G04 #@! TF.FileFunction,Copper,L2,Bot,Signal*
%FSLAX46Y46*%
G04 Gerber Fmt 4.6, Leading zero omitted, Abs format (unit mm)*
G04 Created by KiCad (PCBNEW 0.201510170916+6271~30~ubuntu14.04.1-product) date Tue 27 Oct 2015 04:17:41 PM CET*
%MOMM*%
G01*
G04 APERTURE LIST*
%ADD10C,0.100000*%
%ADD11C,2.500000*%
%ADD12R,2.000000X2.000000*%
%ADD13C,2.000000*%
%ADD14C,1.700000*%
%ADD15C,0.600000*%
%ADD16C,0.250000*%
%ADD17C,0.254000*%
G04 APERTURE END LIST*
D10*
D11*
X99110000Y-101064000D03*
X105410000Y-101064000D03*
X111710000Y-101064000D03*
X99110000Y-84864000D03*
X105410000Y-84864000D03*
X111710000Y-84864000D03*
D12*
X153670000Y-76454000D03*
D13*
X153670000Y-78994000D03*
X153670000Y-81534000D03*
X153670000Y-84074000D03*
X153670000Y-86614000D03*
X153670000Y-89154000D03*
X153670000Y-91694000D03*
X153670000Y-94234000D03*
X153670000Y-96774000D03*
X153670000Y-99314000D03*
X153670000Y-101854000D03*
X153670000Y-104394000D03*
X153670000Y-106934000D03*
X153670000Y-109474000D03*
X138430000Y-109474000D03*
X138430000Y-106934000D03*
X138430000Y-104394000D03*
X138430000Y-101854000D03*
X138430000Y-99314000D03*
X138430000Y-96774000D03*
X138430000Y-94234000D03*
X138430000Y-91694000D03*
X138430000Y-89154000D03*
X138430000Y-86614000D03*
X138430000Y-84074000D03*
X138430000Y-81534000D03*
X138430000Y-78994000D03*
X138430000Y-76454000D03*
D11*
X99110000Y-78839000D03*
X105410000Y-78839000D03*
X111710000Y-78839000D03*
X99110000Y-62639000D03*
X105410000Y-62639000D03*
X111710000Y-62639000D03*
X99110000Y-122654000D03*
X105410000Y-122654000D03*
X111710000Y-122654000D03*
X99110000Y-106454000D03*
X105410000Y-106454000D03*
X111710000Y-106454000D03*
X99110000Y-144244000D03*
X105410000Y-144244000D03*
X111710000Y-144244000D03*
X99110000Y-128044000D03*
X105410000Y-128044000D03*
X111710000Y-128044000D03*
X189180000Y-128044000D03*
X182880000Y-128044000D03*
X176580000Y-128044000D03*
X189180000Y-144244000D03*
X182880000Y-144244000D03*
X176580000Y-144244000D03*
X189180000Y-84864000D03*
X182880000Y-84864000D03*
X176580000Y-84864000D03*
X189180000Y-101064000D03*
X182880000Y-101064000D03*
X176580000Y-101064000D03*
X189180000Y-106454000D03*
X182880000Y-106454000D03*
X176580000Y-106454000D03*
X189180000Y-122654000D03*
X182880000Y-122654000D03*
X176580000Y-122654000D03*
X189180000Y-62639000D03*
X182880000Y-62639000D03*
X176580000Y-62639000D03*
X189180000Y-78839000D03*
X182880000Y-78839000D03*
X176580000Y-78839000D03*
D14*
X153550000Y-65459000D03*
X146050000Y-65459000D03*
X138550000Y-65459000D03*
X151050000Y-67959000D03*
X141050000Y-67959000D03*
X141050000Y-55459000D03*
X151050000Y-55459000D03*
D15*
X120396000Y-63500000D03*
X169164000Y-94234000D03*
X120396000Y-97790000D03*
X169164000Y-81026000D03*
X165354000Y-80772000D03*
X162306000Y-101092000D03*
X157226000Y-100838000D03*
X156464000Y-107950000D03*
X162560000Y-107696000D03*
X159512000Y-112522000D03*
X156718000Y-109728000D03*
X140462000Y-70104000D03*
X135636000Y-70104000D03*
X140462000Y-71120000D03*
X135636000Y-71120000D03*
X119888000Y-81534000D03*
X117602000Y-83820000D03*
X116332000Y-102362000D03*
X116332000Y-98806000D03*
X118364000Y-84582000D03*
X120396000Y-82550000D03*
X135636000Y-72136000D03*
X140462000Y-72136000D03*
X144018000Y-102108000D03*
X148336000Y-102108000D03*
X140970000Y-112522000D03*
X140970000Y-108966000D03*
X124943973Y-97518838D03*
X129032000Y-97028000D03*
X170688000Y-97536000D03*
X170434000Y-102108000D03*
X164084000Y-93980000D03*
X161036000Y-94234000D03*
X164084000Y-96520000D03*
X160020000Y-94996000D03*
X176530000Y-97536000D03*
X173482000Y-96266000D03*
X123444000Y-94996000D03*
X127000000Y-94996000D03*
X118364000Y-98806000D03*
X118364000Y-102362000D03*
X118110000Y-123444000D03*
X118110000Y-126238000D03*
X171450000Y-102108000D03*
X171704000Y-97028000D03*
X117348000Y-102362000D03*
X117348000Y-98806000D03*
X116586000Y-123444000D03*
X116586000Y-126238000D03*
X172466000Y-102108000D03*
X172466000Y-96266000D03*
D16*
X165354000Y-80772000D02*
X165608000Y-81026000D01*
X165608000Y-81026000D02*
X169164000Y-81026000D01*
X162306000Y-101092000D02*
X162052000Y-100838000D01*
X162052000Y-100838000D02*
X157226000Y-100838000D01*
X162306000Y-107950000D02*
X156464000Y-107950000D01*
X162560000Y-107696000D02*
X162306000Y-107950000D01*
X156718000Y-109728000D02*
X159512000Y-112522000D01*
X135636000Y-70104000D02*
X140462000Y-70104000D01*
X140462000Y-71120000D02*
X135636000Y-71120000D01*
X117602000Y-83820000D02*
X119888000Y-81534000D01*
X116332000Y-98806000D02*
X116332000Y-102362000D01*
X120396000Y-82550000D02*
X118364000Y-84582000D01*
X140462000Y-72136000D02*
X135636000Y-72136000D01*
X144018000Y-102108000D02*
X148336000Y-102108000D01*
X140970000Y-108966000D02*
X140970000Y-112522000D01*
X128541162Y-97518838D02*
X129032000Y-97028000D01*
X124943973Y-97518838D02*
X128541162Y-97518838D01*
X170688000Y-97536000D02*
X170434000Y-97790000D01*
X170434000Y-97790000D02*
X170434000Y-102108000D01*
X164084000Y-93980000D02*
X163830000Y-94234000D01*
X163830000Y-94234000D02*
X161036000Y-94234000D01*
X164084000Y-96520000D02*
X162560000Y-94996000D01*
X162560000Y-94996000D02*
X160020000Y-94996000D01*
X176530000Y-96774000D02*
X176530000Y-97536000D01*
X176022000Y-96266000D02*
X176530000Y-96774000D01*
X173482000Y-96266000D02*
X176022000Y-96266000D01*
X127000000Y-94996000D02*
X123444000Y-94996000D01*
X118364000Y-102362000D02*
X118364000Y-98806000D01*
X118110000Y-126238000D02*
X118110000Y-123444000D01*
X171450000Y-97282000D02*
X171450000Y-102108000D01*
X171704000Y-97028000D02*
X171450000Y-97282000D01*
X117348000Y-98806000D02*
X117348000Y-102362000D01*
X116586000Y-126238000D02*
X116586000Y-123444000D01*
X172466000Y-102108000D02*
X172466000Y-96266000D01*
D17*
G36*
X190836634Y-53826957D02*
X192215629Y-54748371D01*
X193137043Y-56127366D01*
X193475000Y-57826390D01*
X193475000Y-147481610D01*
X193137043Y-149180634D01*
X192215629Y-150559629D01*
X190836634Y-151481043D01*
X189137610Y-151819000D01*
X99482390Y-151819000D01*
X97783366Y-151481043D01*
X96404371Y-150559629D01*
X95482957Y-149180634D01*
X95243503Y-147976815D01*
X117274630Y-147976815D01*
X117598980Y-148761800D01*
X118199041Y-149362909D01*
X118983459Y-149688628D01*
X119832815Y-149689370D01*
X120617800Y-149365020D01*
X121218909Y-148764959D01*
X121544628Y-147980541D01*
X121544631Y-147976815D01*
X167074630Y-147976815D01*
X167398980Y-148761800D01*
X167999041Y-149362909D01*
X168783459Y-149688628D01*
X169632815Y-149689370D01*
X170417800Y-149365020D01*
X171018909Y-148764959D01*
X171344628Y-147980541D01*
X171345370Y-147131185D01*
X171021020Y-146346200D01*
X170420959Y-145745091D01*
X169636541Y-145419372D01*
X168787185Y-145418630D01*
X168002200Y-145742980D01*
X167401091Y-146343041D01*
X167075372Y-147127459D01*
X167074630Y-147976815D01*
X121544631Y-147976815D01*
X121545370Y-147131185D01*
X121221020Y-146346200D01*
X120620959Y-145745091D01*
X119836541Y-145419372D01*
X118987185Y-145418630D01*
X118202200Y-145742980D01*
X117601091Y-146343041D01*
X117275372Y-147127459D01*
X117274630Y-147976815D01*
X95243503Y-147976815D01*
X95145000Y-147481610D01*
X95145000Y-145577320D01*
X97956285Y-145577320D01*
X98085533Y-145870123D01*
X98785806Y-146138388D01*
X99535435Y-146118250D01*
X100134467Y-145870123D01*
X100263715Y-145577320D01*
X99110000Y-144423605D01*
X97956285Y-145577320D01*
X95145000Y-145577320D01*
X95145000Y-143919806D01*
X97215612Y-143919806D01*
X97235750Y-144669435D01*
X97483877Y-145268467D01*
X97776680Y-145397715D01*
X98930395Y-144244000D01*
X99289605Y-144244000D01*
X100443320Y-145397715D01*
X100736123Y-145268467D01*
X100985574Y-144617305D01*
X103524674Y-144617305D01*
X103811043Y-145310372D01*
X104340839Y-145841093D01*
X105033405Y-146128672D01*
X105783305Y-146129326D01*
X106476372Y-145842957D01*
X107007093Y-145313161D01*
X107294672Y-144620595D01*
X107294674Y-144617305D01*
X109824674Y-144617305D01*
X110111043Y-145310372D01*
X110640839Y-145841093D01*
X111333405Y-146128672D01*
X112083305Y-146129326D01*
X112776372Y-145842957D01*
X113307093Y-145313161D01*
X113594672Y-144620595D01*
X113594674Y-144617305D01*
X174694674Y-144617305D01*
X174981043Y-145310372D01*
X175510839Y-145841093D01*
X176203405Y-146128672D01*
X176953305Y-146129326D01*
X177646372Y-145842957D01*
X178177093Y-145313161D01*
X178464672Y-144620595D01*
X178464674Y-144617305D01*
X180994674Y-144617305D01*
X181281043Y-145310372D01*
X181810839Y-145841093D01*
X182503405Y-146128672D01*
X183253305Y-146129326D01*
X183946372Y-145842957D01*
X184477093Y-145313161D01*
X184764672Y-144620595D01*
X184764674Y-144617305D01*
X187294674Y-144617305D01*
X187581043Y-145310372D01*
X188110839Y-145841093D01*
X188803405Y-146128672D01*
X189553305Y-146129326D01*
X190246372Y-145842957D01*
X190777093Y-145313161D01*
X191064672Y-144620595D01*
X191065326Y-143870695D01*
X190778957Y-143177628D01*
X190249161Y-142646907D01*
X189556595Y-142359328D01*
X188806695Y-142358674D01*
X188113628Y-142645043D01*
X187582907Y-143174839D01*
X187295328Y-143867405D01*
X187294674Y-144617305D01*
X184764674Y-144617305D01*
X184765326Y-143870695D01*
X184478957Y-143177628D01*
X183949161Y-142646907D01*
X183256595Y-142359328D01*
X182506695Y-142358674D01*
X181813628Y-142645043D01*
X181282907Y-143174839D01*
X180995328Y-143867405D01*
X180994674Y-144617305D01*
X178464674Y-144617305D01*
X178465326Y-143870695D01*
X178178957Y-143177628D01*
X177649161Y-142646907D01*
X176956595Y-142359328D01*
X176206695Y-142358674D01*
X175513628Y-142645043D01*
X174982907Y-143174839D01*
X174695328Y-143867405D01*
X174694674Y-144617305D01*
X113594674Y-144617305D01*
X113595326Y-143870695D01*
X113308957Y-143177628D01*
X112779161Y-142646907D01*
X112086595Y-142359328D01*
X111336695Y-142358674D01*
X110643628Y-142645043D01*
X110112907Y-143174839D01*
X109825328Y-143867405D01*
X109824674Y-144617305D01*
X107294674Y-144617305D01*
X107295326Y-143870695D01*
X107008957Y-143177628D01*
X106479161Y-142646907D01*
X105786595Y-142359328D01*
X105036695Y-142358674D01*
X104343628Y-142645043D01*
X103812907Y-143174839D01*
X103525328Y-143867405D01*
X103524674Y-144617305D01*
X100985574Y-144617305D01*
X101004388Y-144568194D01*
X100984250Y-143818565D01*
X100736123Y-143219533D01*
X100443320Y-143090285D01*
X99289605Y-144244000D01*
X98930395Y-144244000D01*
X97776680Y-143090285D01*
X97483877Y-143219533D01*
X97215612Y-143919806D01*
X95145000Y-143919806D01*
X95145000Y-142910680D01*
X97956285Y-142910680D01*
X99110000Y-144064395D01*
X100263715Y-142910680D01*
X100134467Y-142617877D01*
X99434194Y-142349612D01*
X98684565Y-142369750D01*
X98085533Y-142617877D01*
X97956285Y-142910680D01*
X95145000Y-142910680D01*
X95145000Y-128417305D01*
X97224674Y-128417305D01*
X97511043Y-129110372D01*
X98040839Y-129641093D01*
X98733405Y-129928672D01*
X99483305Y-129929326D01*
X100176372Y-129642957D01*
X100707093Y-129113161D01*
X100994672Y-128420595D01*
X100994674Y-128417305D01*
X103524674Y-128417305D01*
X103811043Y-129110372D01*
X104340839Y-129641093D01*
X105033405Y-129928672D01*
X105783305Y-129929326D01*
X106476372Y-129642957D01*
X107007093Y-129113161D01*
X107294672Y-128420595D01*
X107294674Y-128417305D01*
X109824674Y-128417305D01*
X110111043Y-129110372D01*
X110640839Y-129641093D01*
X111333405Y-129928672D01*
X112083305Y-129929326D01*
X112776372Y-129642957D01*
X113307093Y-129113161D01*
X113594672Y-128420595D01*
X113594674Y-128417305D01*
X174694674Y-128417305D01*
X174981043Y-129110372D01*
X175510839Y-129641093D01*
X176203405Y-129928672D01*
X176953305Y-129929326D01*
X177646372Y-129642957D01*
X178177093Y-129113161D01*
X178464672Y-128420595D01*
X178464674Y-128417305D01*
X180994674Y-128417305D01*
X181281043Y-129110372D01*
X181810839Y-129641093D01*
X182503405Y-129928672D01*
X183253305Y-129929326D01*
X183946372Y-129642957D01*
X184212472Y-129377320D01*
X188026285Y-129377320D01*
X188155533Y-129670123D01*
X188855806Y-129938388D01*
X189605435Y-129918250D01*
X190204467Y-129670123D01*
X190333715Y-129377320D01*
X189180000Y-128223605D01*
X188026285Y-129377320D01*
X184212472Y-129377320D01*
X184477093Y-129113161D01*
X184764672Y-128420595D01*
X184765283Y-127719806D01*
X187285612Y-127719806D01*
X187305750Y-128469435D01*
X187553877Y-129068467D01*
X187846680Y-129197715D01*
X189000395Y-128044000D01*
X189359605Y-128044000D01*
X190513320Y-129197715D01*
X190806123Y-129068467D01*
X191074388Y-128368194D01*
X191054250Y-127618565D01*
X190806123Y-127019533D01*
X190513320Y-126890285D01*
X189359605Y-128044000D01*
X189000395Y-128044000D01*
X187846680Y-126890285D01*
X187553877Y-127019533D01*
X187285612Y-127719806D01*
X184765283Y-127719806D01*
X184765326Y-127670695D01*
X184478957Y-126977628D01*
X184212475Y-126710680D01*
X188026285Y-126710680D01*
X189180000Y-127864395D01*
X190333715Y-126710680D01*
X190204467Y-126417877D01*
X189504194Y-126149612D01*
X188754565Y-126169750D01*
X188155533Y-126417877D01*
X188026285Y-126710680D01*
X184212475Y-126710680D01*
X183949161Y-126446907D01*
X183256595Y-126159328D01*
X182506695Y-126158674D01*
X181813628Y-126445043D01*
X181282907Y-126974839D01*
X180995328Y-127667405D01*
X180994674Y-128417305D01*
X178464674Y-128417305D01*
X178465326Y-127670695D01*
X178178957Y-126977628D01*
X177649161Y-126446907D01*
X176956595Y-126159328D01*
X176206695Y-126158674D01*
X175513628Y-126445043D01*
X174982907Y-126974839D01*
X174695328Y-127667405D01*
X174694674Y-128417305D01*
X113594674Y-128417305D01*
X113595326Y-127670695D01*
X113308957Y-126977628D01*
X112779161Y-126446907D01*
X112086595Y-126159328D01*
X111336695Y-126158674D01*
X110643628Y-126445043D01*
X110112907Y-126974839D01*
X109825328Y-127667405D01*
X109824674Y-128417305D01*
X107294674Y-128417305D01*
X107295326Y-127670695D01*
X107008957Y-126977628D01*
X106479161Y-126446907D01*
X105786595Y-126159328D01*
X105036695Y-126158674D01*
X104343628Y-126445043D01*
X103812907Y-126974839D01*
X103525328Y-127667405D01*
X103524674Y-128417305D01*
X100994674Y-128417305D01*
X100995326Y-127670695D01*
X100708957Y-126977628D01*
X100179161Y-126446907D01*
X99486595Y-126159328D01*
X98736695Y-126158674D01*
X98043628Y-126445043D01*
X97512907Y-126974839D01*
X97225328Y-127667405D01*
X97224674Y-128417305D01*
X95145000Y-128417305D01*
X95145000Y-123987320D01*
X97956285Y-123987320D01*
X98085533Y-124280123D01*
X98785806Y-124548388D01*
X99535435Y-124528250D01*
X100134467Y-124280123D01*
X100263715Y-123987320D01*
X99110000Y-122833605D01*
X97956285Y-123987320D01*
X95145000Y-123987320D01*
X95145000Y-122329806D01*
X97215612Y-122329806D01*
X97235750Y-123079435D01*
X97483877Y-123678467D01*
X97776680Y-123807715D01*
X98930395Y-122654000D01*
X99289605Y-122654000D01*
X100443320Y-123807715D01*
X100736123Y-123678467D01*
X100985574Y-123027305D01*
X103524674Y-123027305D01*
X103811043Y-123720372D01*
X104340839Y-124251093D01*
X105033405Y-124538672D01*
X105783305Y-124539326D01*
X106476372Y-124252957D01*
X107007093Y-123723161D01*
X107294672Y-123030595D01*
X107294674Y-123027305D01*
X109824674Y-123027305D01*
X110111043Y-123720372D01*
X110640839Y-124251093D01*
X111333405Y-124538672D01*
X112083305Y-124539326D01*
X112776372Y-124252957D01*
X113307093Y-123723161D01*
X113346122Y-123629167D01*
X115650838Y-123629167D01*
X115792883Y-123972943D01*
X115826000Y-124006118D01*
X115826000Y-125675537D01*
X115793808Y-125707673D01*
X115651162Y-126051201D01*
X115650838Y-126423167D01*
X115792883Y-126766943D01*
X116055673Y-127030192D01*
X116399201Y-127172838D01*
X116771167Y-127173162D01*
X117114943Y-127031117D01*
X117348176Y-126798291D01*
X117579673Y-127030192D01*
X117923201Y-127172838D01*
X118295167Y-127173162D01*
X118638943Y-127031117D01*
X118902192Y-126768327D01*
X119044838Y-126424799D01*
X119045162Y-126052833D01*
X118903117Y-125709057D01*
X118870000Y-125675882D01*
X118870000Y-124006463D01*
X118902192Y-123974327D01*
X119044838Y-123630799D01*
X119045162Y-123258833D01*
X118949497Y-123027305D01*
X174694674Y-123027305D01*
X174981043Y-123720372D01*
X175510839Y-124251093D01*
X176203405Y-124538672D01*
X176953305Y-124539326D01*
X177646372Y-124252957D01*
X178177093Y-123723161D01*
X178464672Y-123030595D01*
X178464674Y-123027305D01*
X180994674Y-123027305D01*
X181281043Y-123720372D01*
X181810839Y-124251093D01*
X182503405Y-124538672D01*
X183253305Y-124539326D01*
X183946372Y-124252957D01*
X184477093Y-123723161D01*
X184764672Y-123030595D01*
X184764674Y-123027305D01*
X187294674Y-123027305D01*
X187581043Y-123720372D01*
X188110839Y-124251093D01*
X188803405Y-124538672D01*
X189553305Y-124539326D01*
X190246372Y-124252957D01*
X190777093Y-123723161D01*
X191064672Y-123030595D01*
X191065326Y-122280695D01*
X190778957Y-121587628D01*
X190249161Y-121056907D01*
X189556595Y-120769328D01*
X188806695Y-120768674D01*
X188113628Y-121055043D01*
X187582907Y-121584839D01*
X187295328Y-122277405D01*
X187294674Y-123027305D01*
X184764674Y-123027305D01*
X184765326Y-122280695D01*
X184478957Y-121587628D01*
X183949161Y-121056907D01*
X183256595Y-120769328D01*
X182506695Y-120768674D01*
X181813628Y-121055043D01*
X181282907Y-121584839D01*
X180995328Y-122277405D01*
X180994674Y-123027305D01*
X178464674Y-123027305D01*
X178465326Y-122280695D01*
X178178957Y-121587628D01*
X177649161Y-121056907D01*
X176956595Y-120769328D01*
X176206695Y-120768674D01*
X175513628Y-121055043D01*
X174982907Y-121584839D01*
X174695328Y-122277405D01*
X174694674Y-123027305D01*
X118949497Y-123027305D01*
X118903117Y-122915057D01*
X118640327Y-122651808D01*
X118296799Y-122509162D01*
X117924833Y-122508838D01*
X117581057Y-122650883D01*
X117347824Y-122883709D01*
X117116327Y-122651808D01*
X116772799Y-122509162D01*
X116400833Y-122508838D01*
X116057057Y-122650883D01*
X115793808Y-122913673D01*
X115651162Y-123257201D01*
X115650838Y-123629167D01*
X113346122Y-123629167D01*
X113594672Y-123030595D01*
X113595326Y-122280695D01*
X113308957Y-121587628D01*
X112779161Y-121056907D01*
X112086595Y-120769328D01*
X111336695Y-120768674D01*
X110643628Y-121055043D01*
X110112907Y-121584839D01*
X109825328Y-122277405D01*
X109824674Y-123027305D01*
X107294674Y-123027305D01*
X107295326Y-122280695D01*
X107008957Y-121587628D01*
X106479161Y-121056907D01*
X105786595Y-120769328D01*
X105036695Y-120768674D01*
X104343628Y-121055043D01*
X103812907Y-121584839D01*
X103525328Y-122277405D01*
X103524674Y-123027305D01*
X100985574Y-123027305D01*
X101004388Y-122978194D01*
X100984250Y-122228565D01*
X100736123Y-121629533D01*
X100443320Y-121500285D01*
X99289605Y-122654000D01*
X98930395Y-122654000D01*
X97776680Y-121500285D01*
X97483877Y-121629533D01*
X97215612Y-122329806D01*
X95145000Y-122329806D01*
X95145000Y-121320680D01*
X97956285Y-121320680D01*
X99110000Y-122474395D01*
X100263715Y-121320680D01*
X100134467Y-121027877D01*
X99434194Y-120759612D01*
X98684565Y-120779750D01*
X98085533Y-121027877D01*
X97956285Y-121320680D01*
X95145000Y-121320680D01*
X95145000Y-106827305D01*
X97224674Y-106827305D01*
X97511043Y-107520372D01*
X98040839Y-108051093D01*
X98733405Y-108338672D01*
X99483305Y-108339326D01*
X100176372Y-108052957D01*
X100707093Y-107523161D01*
X100994672Y-106830595D01*
X100994674Y-106827305D01*
X103524674Y-106827305D01*
X103811043Y-107520372D01*
X104340839Y-108051093D01*
X105033405Y-108338672D01*
X105783305Y-108339326D01*
X106476372Y-108052957D01*
X107007093Y-107523161D01*
X107294672Y-106830595D01*
X107294674Y-106827305D01*
X109824674Y-106827305D01*
X110111043Y-107520372D01*
X110640839Y-108051093D01*
X111333405Y-108338672D01*
X112083305Y-108339326D01*
X112776372Y-108052957D01*
X113307093Y-107523161D01*
X113594672Y-106830595D01*
X113595326Y-106080695D01*
X113308957Y-105387628D01*
X112779161Y-104856907D01*
X112086595Y-104569328D01*
X111336695Y-104568674D01*
X110643628Y-104855043D01*
X110112907Y-105384839D01*
X109825328Y-106077405D01*
X109824674Y-106827305D01*
X107294674Y-106827305D01*
X107295326Y-106080695D01*
X107008957Y-105387628D01*
X106479161Y-104856907D01*
X105786595Y-104569328D01*
X105036695Y-104568674D01*
X104343628Y-104855043D01*
X103812907Y-105384839D01*
X103525328Y-106077405D01*
X103524674Y-106827305D01*
X100994674Y-106827305D01*
X100995326Y-106080695D01*
X100708957Y-105387628D01*
X100179161Y-104856907D01*
X99486595Y-104569328D01*
X98736695Y-104568674D01*
X98043628Y-104855043D01*
X97512907Y-105384839D01*
X97225328Y-106077405D01*
X97224674Y-106827305D01*
X95145000Y-106827305D01*
X95145000Y-102397320D01*
X97956285Y-102397320D01*
X98085533Y-102690123D01*
X98785806Y-102958388D01*
X99535435Y-102938250D01*
X100134467Y-102690123D01*
X100263715Y-102397320D01*
X99110000Y-101243605D01*
X97956285Y-102397320D01*
X95145000Y-102397320D01*
X95145000Y-100739806D01*
X97215612Y-100739806D01*
X97235750Y-101489435D01*
X97483877Y-102088467D01*
X97776680Y-102217715D01*
X98930395Y-101064000D01*
X99289605Y-101064000D01*
X100443320Y-102217715D01*
X100736123Y-102088467D01*
X100985574Y-101437305D01*
X103524674Y-101437305D01*
X103811043Y-102130372D01*
X104340839Y-102661093D01*
X105033405Y-102948672D01*
X105783305Y-102949326D01*
X106476372Y-102662957D01*
X107007093Y-102133161D01*
X107294672Y-101440595D01*
X107294674Y-101437305D01*
X109824674Y-101437305D01*
X110111043Y-102130372D01*
X110640839Y-102661093D01*
X111333405Y-102948672D01*
X112083305Y-102949326D01*
X112776372Y-102662957D01*
X113307093Y-102133161D01*
X113594672Y-101440595D01*
X113595326Y-100690695D01*
X113308957Y-99997628D01*
X112779161Y-99466907D01*
X112086595Y-99179328D01*
X111336695Y-99178674D01*
X110643628Y-99465043D01*
X110112907Y-99994839D01*
X109825328Y-100687405D01*
X109824674Y-101437305D01*
X107294674Y-101437305D01*
X107295326Y-100690695D01*
X107008957Y-99997628D01*
X106479161Y-99466907D01*
X105786595Y-99179328D01*
X105036695Y-99178674D01*
X104343628Y-99465043D01*
X103812907Y-99994839D01*
X103525328Y-100687405D01*
X103524674Y-101437305D01*
X100985574Y-101437305D01*
X101004388Y-101388194D01*
X100984250Y-100638565D01*
X100736123Y-100039533D01*
X100443320Y-99910285D01*
X99289605Y-101064000D01*
X98930395Y-101064000D01*
X97776680Y-99910285D01*
X97483877Y-100039533D01*
X97215612Y-100739806D01*
X95145000Y-100739806D01*
X95145000Y-99730680D01*
X97956285Y-99730680D01*
X99110000Y-100884395D01*
X100263715Y-99730680D01*
X100134467Y-99437877D01*
X99434194Y-99169612D01*
X98684565Y-99189750D01*
X98085533Y-99437877D01*
X97956285Y-99730680D01*
X95145000Y-99730680D01*
X95145000Y-98991167D01*
X115396838Y-98991167D01*
X115538883Y-99334943D01*
X115572000Y-99368118D01*
X115572000Y-101799537D01*
X115539808Y-101831673D01*
X115397162Y-102175201D01*
X115396838Y-102547167D01*
X115538883Y-102890943D01*
X115801673Y-103154192D01*
X116145201Y-103296838D01*
X116517167Y-103297162D01*
X116840371Y-103163617D01*
X117161201Y-103296838D01*
X117533167Y-103297162D01*
X117856371Y-103163617D01*
X118177201Y-103296838D01*
X118549167Y-103297162D01*
X118892943Y-103155117D01*
X119156192Y-102892327D01*
X119298838Y-102548799D01*
X119299162Y-102176833D01*
X119157117Y-101833057D01*
X119124000Y-101799882D01*
X119124000Y-99368463D01*
X119156192Y-99336327D01*
X119298838Y-98992799D01*
X119299162Y-98620833D01*
X119157117Y-98277057D01*
X118894327Y-98013808D01*
X118550799Y-97871162D01*
X118178833Y-97870838D01*
X117855629Y-98004383D01*
X117534799Y-97871162D01*
X117162833Y-97870838D01*
X116839629Y-98004383D01*
X116518799Y-97871162D01*
X116146833Y-97870838D01*
X115803057Y-98012883D01*
X115539808Y-98275673D01*
X115397162Y-98619201D01*
X115396838Y-98991167D01*
X95145000Y-98991167D01*
X95145000Y-97704005D01*
X124008811Y-97704005D01*
X124150856Y-98047781D01*
X124413646Y-98311030D01*
X124757174Y-98453676D01*
X125129140Y-98454000D01*
X125472916Y-98311955D01*
X125506091Y-98278838D01*
X128541162Y-98278838D01*
X128832001Y-98220986D01*
X129078563Y-98056239D01*
X129171680Y-97963122D01*
X129217167Y-97963162D01*
X129560943Y-97821117D01*
X129824192Y-97558327D01*
X129966838Y-97214799D01*
X129967162Y-96842833D01*
X129825117Y-96499057D01*
X129562327Y-96235808D01*
X129218799Y-96093162D01*
X128846833Y-96092838D01*
X128503057Y-96234883D01*
X128239808Y-96497673D01*
X128131362Y-96758838D01*
X125506436Y-96758838D01*
X125474300Y-96726646D01*
X125130772Y-96584000D01*
X124758806Y-96583676D01*
X124415030Y-96725721D01*
X124151781Y-96988511D01*
X124009135Y-97332039D01*
X124008811Y-97704005D01*
X95145000Y-97704005D01*
X95145000Y-95181167D01*
X122508838Y-95181167D01*
X122650883Y-95524943D01*
X122913673Y-95788192D01*
X123257201Y-95930838D01*
X123629167Y-95931162D01*
X123972943Y-95789117D01*
X124006118Y-95756000D01*
X126437537Y-95756000D01*
X126469673Y-95788192D01*
X126813201Y-95930838D01*
X127185167Y-95931162D01*
X127528943Y-95789117D01*
X127792192Y-95526327D01*
X127934838Y-95182799D01*
X127935162Y-94810833D01*
X127793117Y-94467057D01*
X127530327Y-94203808D01*
X127186799Y-94061162D01*
X126814833Y-94060838D01*
X126471057Y-94202883D01*
X126437882Y-94236000D01*
X124006463Y-94236000D01*
X123974327Y-94203808D01*
X123630799Y-94061162D01*
X123258833Y-94060838D01*
X122915057Y-94202883D01*
X122651808Y-94465673D01*
X122509162Y-94809201D01*
X122508838Y-95181167D01*
X95145000Y-95181167D01*
X95145000Y-85237305D01*
X97224674Y-85237305D01*
X97511043Y-85930372D01*
X98040839Y-86461093D01*
X98733405Y-86748672D01*
X99483305Y-86749326D01*
X100176372Y-86462957D01*
X100707093Y-85933161D01*
X100994672Y-85240595D01*
X100994674Y-85237305D01*
X103524674Y-85237305D01*
X103811043Y-85930372D01*
X104340839Y-86461093D01*
X105033405Y-86748672D01*
X105783305Y-86749326D01*
X106476372Y-86462957D01*
X107007093Y-85933161D01*
X107294672Y-85240595D01*
X107294674Y-85237305D01*
X109824674Y-85237305D01*
X110111043Y-85930372D01*
X110640839Y-86461093D01*
X111333405Y-86748672D01*
X112083305Y-86749326D01*
X112776372Y-86462957D01*
X113307093Y-85933161D01*
X113594672Y-85240595D01*
X113595326Y-84490695D01*
X113394711Y-84005167D01*
X116666838Y-84005167D01*
X116808883Y-84348943D01*
X117071673Y-84612192D01*
X117415201Y-84754838D01*
X117428849Y-84754850D01*
X117428838Y-84767167D01*
X117570883Y-85110943D01*
X117833673Y-85374192D01*
X118177201Y-85516838D01*
X118549167Y-85517162D01*
X118892943Y-85375117D01*
X119156192Y-85112327D01*
X119298838Y-84768799D01*
X119298879Y-84721923D01*
X120535680Y-83485122D01*
X120581167Y-83485162D01*
X120924943Y-83343117D01*
X121188192Y-83080327D01*
X121330838Y-82736799D01*
X121331162Y-82364833D01*
X121189117Y-82021057D01*
X121026140Y-81857795D01*
X136794716Y-81857795D01*
X137043106Y-82458943D01*
X137387759Y-82804199D01*
X137044722Y-83146637D01*
X136795284Y-83747352D01*
X136794716Y-84397795D01*
X137043106Y-84998943D01*
X137387759Y-85344199D01*
X137044722Y-85686637D01*
X136795284Y-86287352D01*
X136794716Y-86937795D01*
X137043106Y-87538943D01*
X137387759Y-87884199D01*
X137044722Y-88226637D01*
X136795284Y-88827352D01*
X136794716Y-89477795D01*
X137043106Y-90078943D01*
X137387759Y-90424199D01*
X137044722Y-90766637D01*
X136795284Y-91367352D01*
X136794716Y-92017795D01*
X137043106Y-92618943D01*
X137387759Y-92964199D01*
X137044722Y-93306637D01*
X136795284Y-93907352D01*
X136794716Y-94557795D01*
X137043106Y-95158943D01*
X137387759Y-95504199D01*
X137044722Y-95846637D01*
X136795284Y-96447352D01*
X136794716Y-97097795D01*
X137043106Y-97698943D01*
X137387759Y-98044199D01*
X137044722Y-98386637D01*
X136795284Y-98987352D01*
X136794716Y-99637795D01*
X137043106Y-100238943D01*
X137387759Y-100584199D01*
X137044722Y-100926637D01*
X136795284Y-101527352D01*
X136794716Y-102177795D01*
X137043106Y-102778943D01*
X137387759Y-103124199D01*
X137044722Y-103466637D01*
X136795284Y-104067352D01*
X136794716Y-104717795D01*
X137043106Y-105318943D01*
X137387759Y-105664199D01*
X137044722Y-106006637D01*
X136795284Y-106607352D01*
X136794716Y-107257795D01*
X137043106Y-107858943D01*
X137387759Y-108204199D01*
X137044722Y-108546637D01*
X136795284Y-109147352D01*
X136794716Y-109797795D01*
X137043106Y-110398943D01*
X137502637Y-110859278D01*
X138103352Y-111108716D01*
X138753795Y-111109284D01*
X139354943Y-110860894D01*
X139815278Y-110401363D01*
X140064716Y-109800648D01*
X140065219Y-109224695D01*
X140176883Y-109494943D01*
X140210000Y-109528118D01*
X140210000Y-111959537D01*
X140177808Y-111991673D01*
X140035162Y-112335201D01*
X140034838Y-112707167D01*
X140176883Y-113050943D01*
X140439673Y-113314192D01*
X140783201Y-113456838D01*
X141155167Y-113457162D01*
X141498943Y-113315117D01*
X141762192Y-113052327D01*
X141904838Y-112708799D01*
X141905162Y-112336833D01*
X141763117Y-111993057D01*
X141730000Y-111959882D01*
X141730000Y-109528463D01*
X141762192Y-109496327D01*
X141904838Y-109152799D01*
X141905162Y-108780833D01*
X141763117Y-108437057D01*
X141500327Y-108173808D01*
X141156799Y-108031162D01*
X140784833Y-108030838D01*
X140441057Y-108172883D01*
X140177808Y-108435673D01*
X140035162Y-108779201D01*
X140034903Y-109076677D01*
X139816894Y-108549057D01*
X139472241Y-108203801D01*
X139815278Y-107861363D01*
X140064716Y-107260648D01*
X140065284Y-106610205D01*
X139816894Y-106009057D01*
X139472241Y-105663801D01*
X139815278Y-105321363D01*
X140064716Y-104720648D01*
X140065284Y-104070205D01*
X139816894Y-103469057D01*
X139472241Y-103123801D01*
X139815278Y-102781363D01*
X140017994Y-102293167D01*
X143082838Y-102293167D01*
X143224883Y-102636943D01*
X143487673Y-102900192D01*
X143831201Y-103042838D01*
X144203167Y-103043162D01*
X144546943Y-102901117D01*
X144580118Y-102868000D01*
X147773537Y-102868000D01*
X147805673Y-102900192D01*
X148149201Y-103042838D01*
X148521167Y-103043162D01*
X148864943Y-102901117D01*
X149128192Y-102638327D01*
X149270838Y-102294799D01*
X149271162Y-101922833D01*
X149129117Y-101579057D01*
X148866327Y-101315808D01*
X148522799Y-101173162D01*
X148150833Y-101172838D01*
X147807057Y-101314883D01*
X147773882Y-101348000D01*
X144580463Y-101348000D01*
X144548327Y-101315808D01*
X144204799Y-101173162D01*
X143832833Y-101172838D01*
X143489057Y-101314883D01*
X143225808Y-101577673D01*
X143083162Y-101921201D01*
X143082838Y-102293167D01*
X140017994Y-102293167D01*
X140064716Y-102180648D01*
X140065284Y-101530205D01*
X139816894Y-100929057D01*
X139472241Y-100583801D01*
X139815278Y-100241363D01*
X140064716Y-99640648D01*
X140065284Y-98990205D01*
X139816894Y-98389057D01*
X139472241Y-98043801D01*
X139815278Y-97701363D01*
X140064716Y-97100648D01*
X140065284Y-96450205D01*
X139816894Y-95849057D01*
X139472241Y-95503801D01*
X139815278Y-95161363D01*
X140064716Y-94560648D01*
X140065284Y-93910205D01*
X139816894Y-93309057D01*
X139472241Y-92963801D01*
X139815278Y-92621363D01*
X140064716Y-92020648D01*
X140065284Y-91370205D01*
X139816894Y-90769057D01*
X139472241Y-90423801D01*
X139815278Y-90081363D01*
X140064716Y-89480648D01*
X140065284Y-88830205D01*
X139816894Y-88229057D01*
X139472241Y-87883801D01*
X139815278Y-87541363D01*
X140064716Y-86940648D01*
X140065284Y-86290205D01*
X139816894Y-85689057D01*
X139472241Y-85343801D01*
X139815278Y-85001363D01*
X140064716Y-84400648D01*
X140065284Y-83750205D01*
X139816894Y-83149057D01*
X139472241Y-82803801D01*
X139815278Y-82461363D01*
X140064716Y-81860648D01*
X140065284Y-81210205D01*
X139816894Y-80609057D01*
X139390022Y-80181438D01*
X139402927Y-80146532D01*
X138430000Y-79173605D01*
X137457073Y-80146532D01*
X137470164Y-80181938D01*
X137044722Y-80606637D01*
X136795284Y-81207352D01*
X136794716Y-81857795D01*
X121026140Y-81857795D01*
X120926327Y-81757808D01*
X120822843Y-81714838D01*
X120823162Y-81348833D01*
X120681117Y-81005057D01*
X120418327Y-80741808D01*
X120074799Y-80599162D01*
X119702833Y-80598838D01*
X119359057Y-80740883D01*
X119095808Y-81003673D01*
X118953162Y-81347201D01*
X118953121Y-81394077D01*
X117462320Y-82884878D01*
X117416833Y-82884838D01*
X117073057Y-83026883D01*
X116809808Y-83289673D01*
X116667162Y-83633201D01*
X116666838Y-84005167D01*
X113394711Y-84005167D01*
X113308957Y-83797628D01*
X112779161Y-83266907D01*
X112086595Y-82979328D01*
X111336695Y-82978674D01*
X110643628Y-83265043D01*
X110112907Y-83794839D01*
X109825328Y-84487405D01*
X109824674Y-85237305D01*
X107294674Y-85237305D01*
X107295326Y-84490695D01*
X107008957Y-83797628D01*
X106479161Y-83266907D01*
X105786595Y-82979328D01*
X105036695Y-82978674D01*
X104343628Y-83265043D01*
X103812907Y-83794839D01*
X103525328Y-84487405D01*
X103524674Y-85237305D01*
X100994674Y-85237305D01*
X100995326Y-84490695D01*
X100708957Y-83797628D01*
X100179161Y-83266907D01*
X99486595Y-82979328D01*
X98736695Y-82978674D01*
X98043628Y-83265043D01*
X97512907Y-83794839D01*
X97225328Y-84487405D01*
X97224674Y-85237305D01*
X95145000Y-85237305D01*
X95145000Y-80172320D01*
X97956285Y-80172320D01*
X98085533Y-80465123D01*
X98785806Y-80733388D01*
X99535435Y-80713250D01*
X100134467Y-80465123D01*
X100263715Y-80172320D01*
X99110000Y-79018605D01*
X97956285Y-80172320D01*
X95145000Y-80172320D01*
X95145000Y-78514806D01*
X97215612Y-78514806D01*
X97235750Y-79264435D01*
X97483877Y-79863467D01*
X97776680Y-79992715D01*
X98930395Y-78839000D01*
X99289605Y-78839000D01*
X100443320Y-79992715D01*
X100736123Y-79863467D01*
X100985574Y-79212305D01*
X103524674Y-79212305D01*
X103811043Y-79905372D01*
X104340839Y-80436093D01*
X105033405Y-80723672D01*
X105783305Y-80724326D01*
X106476372Y-80437957D01*
X107007093Y-79908161D01*
X107294672Y-79215595D01*
X107294674Y-79212305D01*
X109824674Y-79212305D01*
X110111043Y-79905372D01*
X110640839Y-80436093D01*
X111333405Y-80723672D01*
X112083305Y-80724326D01*
X112776372Y-80437957D01*
X113307093Y-79908161D01*
X113594672Y-79215595D01*
X113595095Y-78729461D01*
X136784092Y-78729461D01*
X136808144Y-79379460D01*
X137010613Y-79868264D01*
X137277468Y-79966927D01*
X138250395Y-78994000D01*
X138609605Y-78994000D01*
X139582532Y-79966927D01*
X139849387Y-79868264D01*
X140053893Y-79317795D01*
X152034716Y-79317795D01*
X152283106Y-79918943D01*
X152627759Y-80264199D01*
X152284722Y-80606637D01*
X152035284Y-81207352D01*
X152034716Y-81857795D01*
X152283106Y-82458943D01*
X152627759Y-82804199D01*
X152284722Y-83146637D01*
X152035284Y-83747352D01*
X152034716Y-84397795D01*
X152283106Y-84998943D01*
X152627759Y-85344199D01*
X152284722Y-85686637D01*
X152035284Y-86287352D01*
X152034716Y-86937795D01*
X152283106Y-87538943D01*
X152627759Y-87884199D01*
X152284722Y-88226637D01*
X152035284Y-88827352D01*
X152034716Y-89477795D01*
X152283106Y-90078943D01*
X152627759Y-90424199D01*
X152284722Y-90766637D01*
X152035284Y-91367352D01*
X152034716Y-92017795D01*
X152283106Y-92618943D01*
X152627759Y-92964199D01*
X152284722Y-93306637D01*
X152035284Y-93907352D01*
X152034716Y-94557795D01*
X152283106Y-95158943D01*
X152627759Y-95504199D01*
X152284722Y-95846637D01*
X152035284Y-96447352D01*
X152034716Y-97097795D01*
X152283106Y-97698943D01*
X152627759Y-98044199D01*
X152284722Y-98386637D01*
X152035284Y-98987352D01*
X152034716Y-99637795D01*
X152283106Y-100238943D01*
X152627759Y-100584199D01*
X152284722Y-100926637D01*
X152035284Y-101527352D01*
X152034716Y-102177795D01*
X152283106Y-102778943D01*
X152627759Y-103124199D01*
X152284722Y-103466637D01*
X152035284Y-104067352D01*
X152034716Y-104717795D01*
X152283106Y-105318943D01*
X152627759Y-105664199D01*
X152284722Y-106006637D01*
X152035284Y-106607352D01*
X152034716Y-107257795D01*
X152283106Y-107858943D01*
X152627759Y-108204199D01*
X152284722Y-108546637D01*
X152035284Y-109147352D01*
X152034716Y-109797795D01*
X152283106Y-110398943D01*
X152742637Y-110859278D01*
X153343352Y-111108716D01*
X153993795Y-111109284D01*
X154594943Y-110860894D01*
X155055278Y-110401363D01*
X155304716Y-109800648D01*
X155305284Y-109150205D01*
X155056894Y-108549057D01*
X154712241Y-108203801D01*
X154780995Y-108135167D01*
X155528838Y-108135167D01*
X155670883Y-108478943D01*
X155933673Y-108742192D01*
X156277201Y-108884838D01*
X156310106Y-108884867D01*
X156189057Y-108934883D01*
X155925808Y-109197673D01*
X155783162Y-109541201D01*
X155782838Y-109913167D01*
X155924883Y-110256943D01*
X156187673Y-110520192D01*
X156531201Y-110662838D01*
X156578077Y-110662879D01*
X158576878Y-112661680D01*
X158576838Y-112707167D01*
X158718883Y-113050943D01*
X158981673Y-113314192D01*
X159325201Y-113456838D01*
X159697167Y-113457162D01*
X160040943Y-113315117D01*
X160304192Y-113052327D01*
X160446838Y-112708799D01*
X160447162Y-112336833D01*
X160305117Y-111993057D01*
X160042327Y-111729808D01*
X159698799Y-111587162D01*
X159651923Y-111587121D01*
X157653122Y-109588320D01*
X157653162Y-109542833D01*
X157511117Y-109199057D01*
X157248327Y-108935808D01*
X156904799Y-108793162D01*
X156871894Y-108793133D01*
X156992943Y-108743117D01*
X157026118Y-108710000D01*
X162306000Y-108710000D01*
X162596839Y-108652148D01*
X162628399Y-108631060D01*
X162745167Y-108631162D01*
X163088943Y-108489117D01*
X163352192Y-108226327D01*
X163494838Y-107882799D01*
X163495162Y-107510833D01*
X163353117Y-107167057D01*
X163090327Y-106903808D01*
X162906089Y-106827305D01*
X174694674Y-106827305D01*
X174981043Y-107520372D01*
X175510839Y-108051093D01*
X176203405Y-108338672D01*
X176953305Y-108339326D01*
X177646372Y-108052957D01*
X178177093Y-107523161D01*
X178464672Y-106830595D01*
X178464674Y-106827305D01*
X180994674Y-106827305D01*
X181281043Y-107520372D01*
X181810839Y-108051093D01*
X182503405Y-108338672D01*
X183253305Y-108339326D01*
X183946372Y-108052957D01*
X184212472Y-107787320D01*
X188026285Y-107787320D01*
X188155533Y-108080123D01*
X188855806Y-108348388D01*
X189605435Y-108328250D01*
X190204467Y-108080123D01*
X190333715Y-107787320D01*
X189180000Y-106633605D01*
X188026285Y-107787320D01*
X184212472Y-107787320D01*
X184477093Y-107523161D01*
X184764672Y-106830595D01*
X184765283Y-106129806D01*
X187285612Y-106129806D01*
X187305750Y-106879435D01*
X187553877Y-107478467D01*
X187846680Y-107607715D01*
X189000395Y-106454000D01*
X189359605Y-106454000D01*
X190513320Y-107607715D01*
X190806123Y-107478467D01*
X191074388Y-106778194D01*
X191054250Y-106028565D01*
X190806123Y-105429533D01*
X190513320Y-105300285D01*
X189359605Y-106454000D01*
X189000395Y-106454000D01*
X187846680Y-105300285D01*
X187553877Y-105429533D01*
X187285612Y-106129806D01*
X184765283Y-106129806D01*
X184765326Y-106080695D01*
X184478957Y-105387628D01*
X184212475Y-105120680D01*
X188026285Y-105120680D01*
X189180000Y-106274395D01*
X190333715Y-105120680D01*
X190204467Y-104827877D01*
X189504194Y-104559612D01*
X188754565Y-104579750D01*
X188155533Y-104827877D01*
X188026285Y-105120680D01*
X184212475Y-105120680D01*
X183949161Y-104856907D01*
X183256595Y-104569328D01*
X182506695Y-104568674D01*
X181813628Y-104855043D01*
X181282907Y-105384839D01*
X180995328Y-106077405D01*
X180994674Y-106827305D01*
X178464674Y-106827305D01*
X178465326Y-106080695D01*
X178178957Y-105387628D01*
X177649161Y-104856907D01*
X176956595Y-104569328D01*
X176206695Y-104568674D01*
X175513628Y-104855043D01*
X174982907Y-105384839D01*
X174695328Y-106077405D01*
X174694674Y-106827305D01*
X162906089Y-106827305D01*
X162746799Y-106761162D01*
X162374833Y-106760838D01*
X162031057Y-106902883D01*
X161767808Y-107165673D01*
X161757706Y-107190000D01*
X157026463Y-107190000D01*
X156994327Y-107157808D01*
X156650799Y-107015162D01*
X156278833Y-107014838D01*
X155935057Y-107156883D01*
X155671808Y-107419673D01*
X155529162Y-107763201D01*
X155528838Y-108135167D01*
X154780995Y-108135167D01*
X155055278Y-107861363D01*
X155304716Y-107260648D01*
X155305284Y-106610205D01*
X155056894Y-106009057D01*
X154712241Y-105663801D01*
X155055278Y-105321363D01*
X155304716Y-104720648D01*
X155305284Y-104070205D01*
X155056894Y-103469057D01*
X154712241Y-103123801D01*
X155055278Y-102781363D01*
X155257994Y-102293167D01*
X169498838Y-102293167D01*
X169640883Y-102636943D01*
X169903673Y-102900192D01*
X170247201Y-103042838D01*
X170619167Y-103043162D01*
X170942371Y-102909617D01*
X171263201Y-103042838D01*
X171635167Y-103043162D01*
X171958371Y-102909617D01*
X172279201Y-103042838D01*
X172651167Y-103043162D01*
X172994943Y-102901117D01*
X173258192Y-102638327D01*
X173400838Y-102294799D01*
X173401162Y-101922833D01*
X173259117Y-101579057D01*
X173226000Y-101545882D01*
X173226000Y-101437305D01*
X174694674Y-101437305D01*
X174981043Y-102130372D01*
X175510839Y-102661093D01*
X176203405Y-102948672D01*
X176953305Y-102949326D01*
X177646372Y-102662957D01*
X178177093Y-102133161D01*
X178464672Y-101440595D01*
X178464674Y-101437305D01*
X180994674Y-101437305D01*
X181281043Y-102130372D01*
X181810839Y-102661093D01*
X182503405Y-102948672D01*
X183253305Y-102949326D01*
X183946372Y-102662957D01*
X184477093Y-102133161D01*
X184764672Y-101440595D01*
X184764674Y-101437305D01*
X187294674Y-101437305D01*
X187581043Y-102130372D01*
X188110839Y-102661093D01*
X188803405Y-102948672D01*
X189553305Y-102949326D01*
X190246372Y-102662957D01*
X190777093Y-102133161D01*
X191064672Y-101440595D01*
X191065326Y-100690695D01*
X190778957Y-99997628D01*
X190249161Y-99466907D01*
X189556595Y-99179328D01*
X188806695Y-99178674D01*
X188113628Y-99465043D01*
X187582907Y-99994839D01*
X187295328Y-100687405D01*
X187294674Y-101437305D01*
X184764674Y-101437305D01*
X184765326Y-100690695D01*
X184478957Y-99997628D01*
X183949161Y-99466907D01*
X183256595Y-99179328D01*
X182506695Y-99178674D01*
X181813628Y-99465043D01*
X181282907Y-99994839D01*
X180995328Y-100687405D01*
X180994674Y-101437305D01*
X178464674Y-101437305D01*
X178465326Y-100690695D01*
X178178957Y-99997628D01*
X177649161Y-99466907D01*
X176956595Y-99179328D01*
X176206695Y-99178674D01*
X175513628Y-99465043D01*
X174982907Y-99994839D01*
X174695328Y-100687405D01*
X174694674Y-101437305D01*
X173226000Y-101437305D01*
X173226000Y-97172103D01*
X173295201Y-97200838D01*
X173667167Y-97201162D01*
X174010943Y-97059117D01*
X174044118Y-97026000D01*
X175707198Y-97026000D01*
X175722863Y-97041665D01*
X175595162Y-97349201D01*
X175594838Y-97721167D01*
X175736883Y-98064943D01*
X175999673Y-98328192D01*
X176343201Y-98470838D01*
X176715167Y-98471162D01*
X177058943Y-98329117D01*
X177322192Y-98066327D01*
X177464838Y-97722799D01*
X177465162Y-97350833D01*
X177323117Y-97007057D01*
X177290000Y-96973882D01*
X177290000Y-96774000D01*
X177232148Y-96483161D01*
X177067401Y-96236599D01*
X176559401Y-95728599D01*
X176312839Y-95563852D01*
X176022000Y-95506000D01*
X174044463Y-95506000D01*
X174012327Y-95473808D01*
X173668799Y-95331162D01*
X173296833Y-95330838D01*
X172973629Y-95464383D01*
X172652799Y-95331162D01*
X172280833Y-95330838D01*
X171937057Y-95472883D01*
X171673808Y-95735673D01*
X171531162Y-96079201D01*
X171531150Y-96092849D01*
X171518833Y-96092838D01*
X171175057Y-96234883D01*
X170911808Y-96497673D01*
X170868838Y-96601157D01*
X170502833Y-96600838D01*
X170159057Y-96742883D01*
X169895808Y-97005673D01*
X169753162Y-97349201D01*
X169753059Y-97467422D01*
X169731852Y-97499161D01*
X169674000Y-97790000D01*
X169674000Y-101545537D01*
X169641808Y-101577673D01*
X169499162Y-101921201D01*
X169498838Y-102293167D01*
X155257994Y-102293167D01*
X155304716Y-102180648D01*
X155305284Y-101530205D01*
X155095780Y-101023167D01*
X156290838Y-101023167D01*
X156432883Y-101366943D01*
X156695673Y-101630192D01*
X157039201Y-101772838D01*
X157411167Y-101773162D01*
X157754943Y-101631117D01*
X157788118Y-101598000D01*
X161503403Y-101598000D01*
X161512883Y-101620943D01*
X161775673Y-101884192D01*
X162119201Y-102026838D01*
X162491167Y-102027162D01*
X162834943Y-101885117D01*
X163098192Y-101622327D01*
X163240838Y-101278799D01*
X163241162Y-100906833D01*
X163099117Y-100563057D01*
X162836327Y-100299808D01*
X162492799Y-100157162D01*
X162374578Y-100157059D01*
X162342839Y-100135852D01*
X162052000Y-100078000D01*
X157788463Y-100078000D01*
X157756327Y-100045808D01*
X157412799Y-99903162D01*
X157040833Y-99902838D01*
X156697057Y-100044883D01*
X156433808Y-100307673D01*
X156291162Y-100651201D01*
X156290838Y-101023167D01*
X155095780Y-101023167D01*
X155056894Y-100929057D01*
X154712241Y-100583801D01*
X155055278Y-100241363D01*
X155304716Y-99640648D01*
X155305284Y-98990205D01*
X155056894Y-98389057D01*
X154712241Y-98043801D01*
X155055278Y-97701363D01*
X155304716Y-97100648D01*
X155305284Y-96450205D01*
X155056894Y-95849057D01*
X154712241Y-95503801D01*
X155035439Y-95181167D01*
X159084838Y-95181167D01*
X159226883Y-95524943D01*
X159489673Y-95788192D01*
X159833201Y-95930838D01*
X160205167Y-95931162D01*
X160548943Y-95789117D01*
X160582118Y-95756000D01*
X162245198Y-95756000D01*
X163148878Y-96659680D01*
X163148838Y-96705167D01*
X163290883Y-97048943D01*
X163553673Y-97312192D01*
X163897201Y-97454838D01*
X164269167Y-97455162D01*
X164612943Y-97313117D01*
X164876192Y-97050327D01*
X165018838Y-96706799D01*
X165019162Y-96334833D01*
X164877117Y-95991057D01*
X164614327Y-95727808D01*
X164270799Y-95585162D01*
X164223923Y-95585121D01*
X163632802Y-94994000D01*
X163830000Y-94994000D01*
X164120839Y-94936148D01*
X164152399Y-94915060D01*
X164269167Y-94915162D01*
X164612943Y-94773117D01*
X164876192Y-94510327D01*
X165018838Y-94166799D01*
X165019162Y-93794833D01*
X164877117Y-93451057D01*
X164614327Y-93187808D01*
X164270799Y-93045162D01*
X163898833Y-93044838D01*
X163555057Y-93186883D01*
X163291808Y-93449673D01*
X163281706Y-93474000D01*
X161598463Y-93474000D01*
X161566327Y-93441808D01*
X161222799Y-93299162D01*
X160850833Y-93298838D01*
X160507057Y-93440883D01*
X160243808Y-93703673D01*
X160101162Y-94047201D01*
X160101150Y-94061070D01*
X159834833Y-94060838D01*
X159491057Y-94202883D01*
X159227808Y-94465673D01*
X159085162Y-94809201D01*
X159084838Y-95181167D01*
X155035439Y-95181167D01*
X155055278Y-95161363D01*
X155304716Y-94560648D01*
X155305284Y-93910205D01*
X155056894Y-93309057D01*
X154712241Y-92963801D01*
X155055278Y-92621363D01*
X155304716Y-92020648D01*
X155305284Y-91370205D01*
X155056894Y-90769057D01*
X154712241Y-90423801D01*
X155055278Y-90081363D01*
X155304716Y-89480648D01*
X155305284Y-88830205D01*
X155056894Y-88229057D01*
X154712241Y-87883801D01*
X155055278Y-87541363D01*
X155304716Y-86940648D01*
X155305284Y-86290205D01*
X155056894Y-85689057D01*
X154712241Y-85343801D01*
X154818923Y-85237305D01*
X174694674Y-85237305D01*
X174981043Y-85930372D01*
X175510839Y-86461093D01*
X176203405Y-86748672D01*
X176953305Y-86749326D01*
X177646372Y-86462957D01*
X178177093Y-85933161D01*
X178464672Y-85240595D01*
X178464674Y-85237305D01*
X180994674Y-85237305D01*
X181281043Y-85930372D01*
X181810839Y-86461093D01*
X182503405Y-86748672D01*
X183253305Y-86749326D01*
X183946372Y-86462957D01*
X184212472Y-86197320D01*
X188026285Y-86197320D01*
X188155533Y-86490123D01*
X188855806Y-86758388D01*
X189605435Y-86738250D01*
X190204467Y-86490123D01*
X190333715Y-86197320D01*
X189180000Y-85043605D01*
X188026285Y-86197320D01*
X184212472Y-86197320D01*
X184477093Y-85933161D01*
X184764672Y-85240595D01*
X184765283Y-84539806D01*
X187285612Y-84539806D01*
X187305750Y-85289435D01*
X187553877Y-85888467D01*
X187846680Y-86017715D01*
X189000395Y-84864000D01*
X189359605Y-84864000D01*
X190513320Y-86017715D01*
X190806123Y-85888467D01*
X191074388Y-85188194D01*
X191054250Y-84438565D01*
X190806123Y-83839533D01*
X190513320Y-83710285D01*
X189359605Y-84864000D01*
X189000395Y-84864000D01*
X187846680Y-83710285D01*
X187553877Y-83839533D01*
X187285612Y-84539806D01*
X184765283Y-84539806D01*
X184765326Y-84490695D01*
X184478957Y-83797628D01*
X184212475Y-83530680D01*
X188026285Y-83530680D01*
X189180000Y-84684395D01*
X190333715Y-83530680D01*
X190204467Y-83237877D01*
X189504194Y-82969612D01*
X188754565Y-82989750D01*
X188155533Y-83237877D01*
X188026285Y-83530680D01*
X184212475Y-83530680D01*
X183949161Y-83266907D01*
X183256595Y-82979328D01*
X182506695Y-82978674D01*
X181813628Y-83265043D01*
X181282907Y-83794839D01*
X180995328Y-84487405D01*
X180994674Y-85237305D01*
X178464674Y-85237305D01*
X178465326Y-84490695D01*
X178178957Y-83797628D01*
X177649161Y-83266907D01*
X176956595Y-82979328D01*
X176206695Y-82978674D01*
X175513628Y-83265043D01*
X174982907Y-83794839D01*
X174695328Y-84487405D01*
X174694674Y-85237305D01*
X154818923Y-85237305D01*
X155055278Y-85001363D01*
X155304716Y-84400648D01*
X155305284Y-83750205D01*
X155056894Y-83149057D01*
X154712241Y-82803801D01*
X155055278Y-82461363D01*
X155304716Y-81860648D01*
X155305284Y-81210205D01*
X155200731Y-80957167D01*
X164418838Y-80957167D01*
X164560883Y-81300943D01*
X164823673Y-81564192D01*
X165167201Y-81706838D01*
X165285421Y-81706941D01*
X165317160Y-81728148D01*
X165608000Y-81786000D01*
X168601537Y-81786000D01*
X168633673Y-81818192D01*
X168977201Y-81960838D01*
X169349167Y-81961162D01*
X169692943Y-81819117D01*
X169956192Y-81556327D01*
X170098838Y-81212799D01*
X170099162Y-80840833D01*
X169957117Y-80497057D01*
X169694327Y-80233808D01*
X169350799Y-80091162D01*
X168978833Y-80090838D01*
X168635057Y-80232883D01*
X168601882Y-80266000D01*
X166156597Y-80266000D01*
X166147117Y-80243057D01*
X165884327Y-79979808D01*
X165540799Y-79837162D01*
X165168833Y-79836838D01*
X164825057Y-79978883D01*
X164561808Y-80241673D01*
X164419162Y-80585201D01*
X164418838Y-80957167D01*
X155200731Y-80957167D01*
X155056894Y-80609057D01*
X154712241Y-80263801D01*
X155055278Y-79921363D01*
X155304716Y-79320648D01*
X155304810Y-79212305D01*
X174694674Y-79212305D01*
X174981043Y-79905372D01*
X175510839Y-80436093D01*
X176203405Y-80723672D01*
X176953305Y-80724326D01*
X177646372Y-80437957D01*
X178177093Y-79908161D01*
X178464672Y-79215595D01*
X178464674Y-79212305D01*
X180994674Y-79212305D01*
X181281043Y-79905372D01*
X181810839Y-80436093D01*
X182503405Y-80723672D01*
X183253305Y-80724326D01*
X183946372Y-80437957D01*
X184477093Y-79908161D01*
X184764672Y-79215595D01*
X184764674Y-79212305D01*
X187294674Y-79212305D01*
X187581043Y-79905372D01*
X188110839Y-80436093D01*
X188803405Y-80723672D01*
X189553305Y-80724326D01*
X190246372Y-80437957D01*
X190777093Y-79908161D01*
X191064672Y-79215595D01*
X191065326Y-78465695D01*
X190778957Y-77772628D01*
X190249161Y-77241907D01*
X189556595Y-76954328D01*
X188806695Y-76953674D01*
X188113628Y-77240043D01*
X187582907Y-77769839D01*
X187295328Y-78462405D01*
X187294674Y-79212305D01*
X184764674Y-79212305D01*
X184765326Y-78465695D01*
X184478957Y-77772628D01*
X183949161Y-77241907D01*
X183256595Y-76954328D01*
X182506695Y-76953674D01*
X181813628Y-77240043D01*
X181282907Y-77769839D01*
X180995328Y-78462405D01*
X180994674Y-79212305D01*
X178464674Y-79212305D01*
X178465326Y-78465695D01*
X178178957Y-77772628D01*
X177649161Y-77241907D01*
X176956595Y-76954328D01*
X176206695Y-76953674D01*
X175513628Y-77240043D01*
X174982907Y-77769839D01*
X174695328Y-78462405D01*
X174694674Y-79212305D01*
X155304810Y-79212305D01*
X155305284Y-78670205D01*
X155056894Y-78069057D01*
X154994749Y-78006803D01*
X155029698Y-77992327D01*
X155208327Y-77813699D01*
X155305000Y-77580310D01*
X155305000Y-76739750D01*
X155146250Y-76581000D01*
X153797000Y-76581000D01*
X153797000Y-76601000D01*
X153543000Y-76601000D01*
X153543000Y-76581000D01*
X152193750Y-76581000D01*
X152035000Y-76739750D01*
X152035000Y-77580310D01*
X152131673Y-77813699D01*
X152310302Y-77992327D01*
X152344834Y-78006630D01*
X152284722Y-78066637D01*
X152035284Y-78667352D01*
X152034716Y-79317795D01*
X140053893Y-79317795D01*
X140075908Y-79258539D01*
X140051856Y-78608540D01*
X139849387Y-78119736D01*
X139582532Y-78021073D01*
X138609605Y-78994000D01*
X138250395Y-78994000D01*
X137277468Y-78021073D01*
X137010613Y-78119736D01*
X136784092Y-78729461D01*
X113595095Y-78729461D01*
X113595326Y-78465695D01*
X113308957Y-77772628D01*
X112779161Y-77241907D01*
X112086595Y-76954328D01*
X111336695Y-76953674D01*
X110643628Y-77240043D01*
X110112907Y-77769839D01*
X109825328Y-78462405D01*
X109824674Y-79212305D01*
X107294674Y-79212305D01*
X107295326Y-78465695D01*
X107008957Y-77772628D01*
X106479161Y-77241907D01*
X105786595Y-76954328D01*
X105036695Y-76953674D01*
X104343628Y-77240043D01*
X103812907Y-77769839D01*
X103525328Y-78462405D01*
X103524674Y-79212305D01*
X100985574Y-79212305D01*
X101004388Y-79163194D01*
X100984250Y-78413565D01*
X100736123Y-77814533D01*
X100443320Y-77685285D01*
X99289605Y-78839000D01*
X98930395Y-78839000D01*
X97776680Y-77685285D01*
X97483877Y-77814533D01*
X97215612Y-78514806D01*
X95145000Y-78514806D01*
X95145000Y-77505680D01*
X97956285Y-77505680D01*
X99110000Y-78659395D01*
X100263715Y-77505680D01*
X100134467Y-77212877D01*
X99434194Y-76944612D01*
X98684565Y-76964750D01*
X98085533Y-77212877D01*
X97956285Y-77505680D01*
X95145000Y-77505680D01*
X95145000Y-76777795D01*
X136794716Y-76777795D01*
X137043106Y-77378943D01*
X137469978Y-77806562D01*
X137457073Y-77841468D01*
X138430000Y-78814395D01*
X139402927Y-77841468D01*
X139389836Y-77806062D01*
X139815278Y-77381363D01*
X140064716Y-76780648D01*
X140065284Y-76130205D01*
X139816894Y-75529057D01*
X139615879Y-75327690D01*
X152035000Y-75327690D01*
X152035000Y-76168250D01*
X152193750Y-76327000D01*
X153543000Y-76327000D01*
X153543000Y-74977750D01*
X153797000Y-74977750D01*
X153797000Y-76327000D01*
X155146250Y-76327000D01*
X155305000Y-76168250D01*
X155305000Y-75327690D01*
X155208327Y-75094301D01*
X155029698Y-74915673D01*
X154796309Y-74819000D01*
X153955750Y-74819000D01*
X153797000Y-74977750D01*
X153543000Y-74977750D01*
X153384250Y-74819000D01*
X152543691Y-74819000D01*
X152310302Y-74915673D01*
X152131673Y-75094301D01*
X152035000Y-75327690D01*
X139615879Y-75327690D01*
X139357363Y-75068722D01*
X138756648Y-74819284D01*
X138106205Y-74818716D01*
X137505057Y-75067106D01*
X137044722Y-75526637D01*
X136795284Y-76127352D01*
X136794716Y-76777795D01*
X95145000Y-76777795D01*
X95145000Y-70289167D01*
X134700838Y-70289167D01*
X134834383Y-70612371D01*
X134701162Y-70933201D01*
X134700838Y-71305167D01*
X134834383Y-71628371D01*
X134701162Y-71949201D01*
X134700838Y-72321167D01*
X134842883Y-72664943D01*
X135105673Y-72928192D01*
X135449201Y-73070838D01*
X135821167Y-73071162D01*
X136164943Y-72929117D01*
X136198118Y-72896000D01*
X139899537Y-72896000D01*
X139931673Y-72928192D01*
X140275201Y-73070838D01*
X140647167Y-73071162D01*
X140990943Y-72929117D01*
X141254192Y-72666327D01*
X141396838Y-72322799D01*
X141397162Y-71950833D01*
X141263617Y-71627629D01*
X141396838Y-71306799D01*
X141397162Y-70934833D01*
X141263617Y-70611629D01*
X141396838Y-70290799D01*
X141397162Y-69918833D01*
X141255117Y-69575057D01*
X141124354Y-69444065D01*
X141344089Y-69444257D01*
X141890086Y-69218656D01*
X142308188Y-68801283D01*
X142534742Y-68255681D01*
X142534744Y-68253089D01*
X149564743Y-68253089D01*
X149790344Y-68799086D01*
X150207717Y-69217188D01*
X150753319Y-69443742D01*
X151344089Y-69444257D01*
X151890086Y-69218656D01*
X152308188Y-68801283D01*
X152534742Y-68255681D01*
X152535257Y-67664911D01*
X152309656Y-67118914D01*
X151892283Y-66700812D01*
X151346681Y-66474258D01*
X150755911Y-66473743D01*
X150209914Y-66699344D01*
X149791812Y-67116717D01*
X149565258Y-67662319D01*
X149564743Y-68253089D01*
X142534744Y-68253089D01*
X142535257Y-67664911D01*
X142309656Y-67118914D01*
X141892283Y-66700812D01*
X141415799Y-66502958D01*
X145185647Y-66502958D01*
X145265920Y-66754259D01*
X145821279Y-66955718D01*
X146411458Y-66929315D01*
X146834080Y-66754259D01*
X146914353Y-66502958D01*
X146050000Y-65638605D01*
X145185647Y-66502958D01*
X141415799Y-66502958D01*
X141346681Y-66474258D01*
X140755911Y-66473743D01*
X140209914Y-66699344D01*
X139791812Y-67116717D01*
X139565258Y-67662319D01*
X139564743Y-68253089D01*
X139790344Y-68799086D01*
X140193729Y-69203176D01*
X139933057Y-69310883D01*
X139899882Y-69344000D01*
X136198463Y-69344000D01*
X136166327Y-69311808D01*
X135822799Y-69169162D01*
X135450833Y-69168838D01*
X135107057Y-69310883D01*
X134843808Y-69573673D01*
X134701162Y-69917201D01*
X134700838Y-70289167D01*
X95145000Y-70289167D01*
X95145000Y-65753089D01*
X137064743Y-65753089D01*
X137290344Y-66299086D01*
X137707717Y-66717188D01*
X138253319Y-66943742D01*
X138844089Y-66944257D01*
X139390086Y-66718656D01*
X139808188Y-66301283D01*
X140034742Y-65755681D01*
X140035200Y-65230279D01*
X144553282Y-65230279D01*
X144579685Y-65820458D01*
X144754741Y-66243080D01*
X145006042Y-66323353D01*
X145870395Y-65459000D01*
X146229605Y-65459000D01*
X147093958Y-66323353D01*
X147345259Y-66243080D01*
X147523005Y-65753089D01*
X152064743Y-65753089D01*
X152290344Y-66299086D01*
X152707717Y-66717188D01*
X153253319Y-66943742D01*
X153844089Y-66944257D01*
X154390086Y-66718656D01*
X154808188Y-66301283D01*
X155034742Y-65755681D01*
X155035257Y-65164911D01*
X154809656Y-64618914D01*
X154392283Y-64200812D01*
X153846681Y-63974258D01*
X153255911Y-63973743D01*
X152709914Y-64199344D01*
X152291812Y-64616717D01*
X152065258Y-65162319D01*
X152064743Y-65753089D01*
X147523005Y-65753089D01*
X147546718Y-65687721D01*
X147520315Y-65097542D01*
X147345259Y-64674920D01*
X147093958Y-64594647D01*
X146229605Y-65459000D01*
X145870395Y-65459000D01*
X145006042Y-64594647D01*
X144754741Y-64674920D01*
X144553282Y-65230279D01*
X140035200Y-65230279D01*
X140035257Y-65164911D01*
X139809656Y-64618914D01*
X139606140Y-64415042D01*
X145185647Y-64415042D01*
X146050000Y-65279395D01*
X146914353Y-64415042D01*
X146834080Y-64163741D01*
X146278721Y-63962282D01*
X145688542Y-63988685D01*
X145265920Y-64163741D01*
X145185647Y-64415042D01*
X139606140Y-64415042D01*
X139392283Y-64200812D01*
X138846681Y-63974258D01*
X138255911Y-63973743D01*
X137709914Y-64199344D01*
X137291812Y-64616717D01*
X137065258Y-65162319D01*
X137064743Y-65753089D01*
X95145000Y-65753089D01*
X95145000Y-63012305D01*
X97224674Y-63012305D01*
X97511043Y-63705372D01*
X98040839Y-64236093D01*
X98733405Y-64523672D01*
X99483305Y-64524326D01*
X100176372Y-64237957D01*
X100707093Y-63708161D01*
X100994672Y-63015595D01*
X100994674Y-63012305D01*
X103524674Y-63012305D01*
X103811043Y-63705372D01*
X104340839Y-64236093D01*
X105033405Y-64523672D01*
X105783305Y-64524326D01*
X106476372Y-64237957D01*
X107007093Y-63708161D01*
X107294672Y-63015595D01*
X107294674Y-63012305D01*
X109824674Y-63012305D01*
X110111043Y-63705372D01*
X110640839Y-64236093D01*
X111333405Y-64523672D01*
X112083305Y-64524326D01*
X112776372Y-64237957D01*
X113307093Y-63708161D01*
X113594672Y-63015595D01*
X113594674Y-63012305D01*
X174694674Y-63012305D01*
X174981043Y-63705372D01*
X175510839Y-64236093D01*
X176203405Y-64523672D01*
X176953305Y-64524326D01*
X177646372Y-64237957D01*
X178177093Y-63708161D01*
X178464672Y-63015595D01*
X178464674Y-63012305D01*
X180994674Y-63012305D01*
X181281043Y-63705372D01*
X181810839Y-64236093D01*
X182503405Y-64523672D01*
X183253305Y-64524326D01*
X183946372Y-64237957D01*
X184212472Y-63972320D01*
X188026285Y-63972320D01*
X188155533Y-64265123D01*
X188855806Y-64533388D01*
X189605435Y-64513250D01*
X190204467Y-64265123D01*
X190333715Y-63972320D01*
X189180000Y-62818605D01*
X188026285Y-63972320D01*
X184212472Y-63972320D01*
X184477093Y-63708161D01*
X184764672Y-63015595D01*
X184765283Y-62314806D01*
X187285612Y-62314806D01*
X187305750Y-63064435D01*
X187553877Y-63663467D01*
X187846680Y-63792715D01*
X189000395Y-62639000D01*
X189359605Y-62639000D01*
X190513320Y-63792715D01*
X190806123Y-63663467D01*
X191074388Y-62963194D01*
X191054250Y-62213565D01*
X190806123Y-61614533D01*
X190513320Y-61485285D01*
X189359605Y-62639000D01*
X189000395Y-62639000D01*
X187846680Y-61485285D01*
X187553877Y-61614533D01*
X187285612Y-62314806D01*
X184765283Y-62314806D01*
X184765326Y-62265695D01*
X184478957Y-61572628D01*
X184212475Y-61305680D01*
X188026285Y-61305680D01*
X189180000Y-62459395D01*
X190333715Y-61305680D01*
X190204467Y-61012877D01*
X189504194Y-60744612D01*
X188754565Y-60764750D01*
X188155533Y-61012877D01*
X188026285Y-61305680D01*
X184212475Y-61305680D01*
X183949161Y-61041907D01*
X183256595Y-60754328D01*
X182506695Y-60753674D01*
X181813628Y-61040043D01*
X181282907Y-61569839D01*
X180995328Y-62262405D01*
X180994674Y-63012305D01*
X178464674Y-63012305D01*
X178465326Y-62265695D01*
X178178957Y-61572628D01*
X177649161Y-61041907D01*
X176956595Y-60754328D01*
X176206695Y-60753674D01*
X175513628Y-61040043D01*
X174982907Y-61569839D01*
X174695328Y-62262405D01*
X174694674Y-63012305D01*
X113594674Y-63012305D01*
X113595326Y-62265695D01*
X113308957Y-61572628D01*
X112779161Y-61041907D01*
X112086595Y-60754328D01*
X111336695Y-60753674D01*
X110643628Y-61040043D01*
X110112907Y-61569839D01*
X109825328Y-62262405D01*
X109824674Y-63012305D01*
X107294674Y-63012305D01*
X107295326Y-62265695D01*
X107008957Y-61572628D01*
X106479161Y-61041907D01*
X105786595Y-60754328D01*
X105036695Y-60753674D01*
X104343628Y-61040043D01*
X103812907Y-61569839D01*
X103525328Y-62262405D01*
X103524674Y-63012305D01*
X100994674Y-63012305D01*
X100995326Y-62265695D01*
X100708957Y-61572628D01*
X100179161Y-61041907D01*
X99486595Y-60754328D01*
X98736695Y-60753674D01*
X98043628Y-61040043D01*
X97512907Y-61569839D01*
X97225328Y-62262405D01*
X97224674Y-63012305D01*
X95145000Y-63012305D01*
X95145000Y-58526815D01*
X97116630Y-58526815D01*
X97440980Y-59311800D01*
X98041041Y-59912909D01*
X98825459Y-60238628D01*
X99674815Y-60239370D01*
X100459800Y-59915020D01*
X101060909Y-59314959D01*
X101386628Y-58530541D01*
X101386937Y-58176815D01*
X187074630Y-58176815D01*
X187398980Y-58961800D01*
X187999041Y-59562909D01*
X188783459Y-59888628D01*
X189632815Y-59889370D01*
X190417800Y-59565020D01*
X191018909Y-58964959D01*
X191344628Y-58180541D01*
X191345370Y-57331185D01*
X191021020Y-56546200D01*
X190420959Y-55945091D01*
X189636541Y-55619372D01*
X188787185Y-55618630D01*
X188002200Y-55942980D01*
X187401091Y-56543041D01*
X187075372Y-57327459D01*
X187074630Y-58176815D01*
X101386937Y-58176815D01*
X101387370Y-57681185D01*
X101063020Y-56896200D01*
X100462959Y-56295091D01*
X99678541Y-55969372D01*
X98829185Y-55968630D01*
X98044200Y-56292980D01*
X97443091Y-56893041D01*
X97117372Y-57677459D01*
X97116630Y-58526815D01*
X95145000Y-58526815D01*
X95145000Y-57826390D01*
X95482957Y-56127366D01*
X95733040Y-55753089D01*
X139564743Y-55753089D01*
X139790344Y-56299086D01*
X140207717Y-56717188D01*
X140753319Y-56943742D01*
X141344089Y-56944257D01*
X141890086Y-56718656D01*
X142308188Y-56301283D01*
X142534742Y-55755681D01*
X142534744Y-55753089D01*
X149564743Y-55753089D01*
X149790344Y-56299086D01*
X150207717Y-56717188D01*
X150753319Y-56943742D01*
X151344089Y-56944257D01*
X151890086Y-56718656D01*
X152308188Y-56301283D01*
X152534742Y-55755681D01*
X152535257Y-55164911D01*
X152309656Y-54618914D01*
X151892283Y-54200812D01*
X151346681Y-53974258D01*
X150755911Y-53973743D01*
X150209914Y-54199344D01*
X149791812Y-54616717D01*
X149565258Y-55162319D01*
X149564743Y-55753089D01*
X142534744Y-55753089D01*
X142535257Y-55164911D01*
X142309656Y-54618914D01*
X141892283Y-54200812D01*
X141346681Y-53974258D01*
X140755911Y-53973743D01*
X140209914Y-54199344D01*
X139791812Y-54616717D01*
X139565258Y-55162319D01*
X139564743Y-55753089D01*
X95733040Y-55753089D01*
X96404371Y-54748371D01*
X97783366Y-53826957D01*
X99482390Y-53489000D01*
X189137610Y-53489000D01*
X190836634Y-53826957D01*
X190836634Y-53826957D01*
G37*
X190836634Y-53826957D02*
X192215629Y-54748371D01*
X193137043Y-56127366D01*
X193475000Y-57826390D01*
X193475000Y-147481610D01*
X193137043Y-149180634D01*
X192215629Y-150559629D01*
X190836634Y-151481043D01*
X189137610Y-151819000D01*
X99482390Y-151819000D01*
X97783366Y-151481043D01*
X96404371Y-150559629D01*
X95482957Y-149180634D01*
X95243503Y-147976815D01*
X117274630Y-147976815D01*
X117598980Y-148761800D01*
X118199041Y-149362909D01*
X118983459Y-149688628D01*
X119832815Y-149689370D01*
X120617800Y-149365020D01*
X121218909Y-148764959D01*
X121544628Y-147980541D01*
X121544631Y-147976815D01*
X167074630Y-147976815D01*
X167398980Y-148761800D01*
X167999041Y-149362909D01*
X168783459Y-149688628D01*
X169632815Y-149689370D01*
X170417800Y-149365020D01*
X171018909Y-148764959D01*
X171344628Y-147980541D01*
X171345370Y-147131185D01*
X171021020Y-146346200D01*
X170420959Y-145745091D01*
X169636541Y-145419372D01*
X168787185Y-145418630D01*
X168002200Y-145742980D01*
X167401091Y-146343041D01*
X167075372Y-147127459D01*
X167074630Y-147976815D01*
X121544631Y-147976815D01*
X121545370Y-147131185D01*
X121221020Y-146346200D01*
X120620959Y-145745091D01*
X119836541Y-145419372D01*
X118987185Y-145418630D01*
X118202200Y-145742980D01*
X117601091Y-146343041D01*
X117275372Y-147127459D01*
X117274630Y-147976815D01*
X95243503Y-147976815D01*
X95145000Y-147481610D01*
X95145000Y-145577320D01*
X97956285Y-145577320D01*
X98085533Y-145870123D01*
X98785806Y-146138388D01*
X99535435Y-146118250D01*
X100134467Y-145870123D01*
X100263715Y-145577320D01*
X99110000Y-144423605D01*
X97956285Y-145577320D01*
X95145000Y-145577320D01*
X95145000Y-143919806D01*
X97215612Y-143919806D01*
X97235750Y-144669435D01*
X97483877Y-145268467D01*
X97776680Y-145397715D01*
X98930395Y-144244000D01*
X99289605Y-144244000D01*
X100443320Y-145397715D01*
X100736123Y-145268467D01*
X100985574Y-144617305D01*
X103524674Y-144617305D01*
X103811043Y-145310372D01*
X104340839Y-145841093D01*
X105033405Y-146128672D01*
X105783305Y-146129326D01*
X106476372Y-145842957D01*
X107007093Y-145313161D01*
X107294672Y-144620595D01*
X107294674Y-144617305D01*
X109824674Y-144617305D01*
X110111043Y-145310372D01*
X110640839Y-145841093D01*
X111333405Y-146128672D01*
X112083305Y-146129326D01*
X112776372Y-145842957D01*
X113307093Y-145313161D01*
X113594672Y-144620595D01*
X113594674Y-144617305D01*
X174694674Y-144617305D01*
X174981043Y-145310372D01*
X175510839Y-145841093D01*
X176203405Y-146128672D01*
X176953305Y-146129326D01*
X177646372Y-145842957D01*
X178177093Y-145313161D01*
X178464672Y-144620595D01*
X178464674Y-144617305D01*
X180994674Y-144617305D01*
X181281043Y-145310372D01*
X181810839Y-145841093D01*
X182503405Y-146128672D01*
X183253305Y-146129326D01*
X183946372Y-145842957D01*
X184477093Y-145313161D01*
X184764672Y-144620595D01*
X184764674Y-144617305D01*
X187294674Y-144617305D01*
X187581043Y-145310372D01*
X188110839Y-145841093D01*
X188803405Y-146128672D01*
X189553305Y-146129326D01*
X190246372Y-145842957D01*
X190777093Y-145313161D01*
X191064672Y-144620595D01*
X191065326Y-143870695D01*
X190778957Y-143177628D01*
X190249161Y-142646907D01*
X189556595Y-142359328D01*
X188806695Y-142358674D01*
X188113628Y-142645043D01*
X187582907Y-143174839D01*
X187295328Y-143867405D01*
X187294674Y-144617305D01*
X184764674Y-144617305D01*
X184765326Y-143870695D01*
X184478957Y-143177628D01*
X183949161Y-142646907D01*
X183256595Y-142359328D01*
X182506695Y-142358674D01*
X181813628Y-142645043D01*
X181282907Y-143174839D01*
X180995328Y-143867405D01*
X180994674Y-144617305D01*
X178464674Y-144617305D01*
X178465326Y-143870695D01*
X178178957Y-143177628D01*
X177649161Y-142646907D01*
X176956595Y-142359328D01*
X176206695Y-142358674D01*
X175513628Y-142645043D01*
X174982907Y-143174839D01*
X174695328Y-143867405D01*
X174694674Y-144617305D01*
X113594674Y-144617305D01*
X113595326Y-143870695D01*
X113308957Y-143177628D01*
X112779161Y-142646907D01*
X112086595Y-142359328D01*
X111336695Y-142358674D01*
X110643628Y-142645043D01*
X110112907Y-143174839D01*
X109825328Y-143867405D01*
X109824674Y-144617305D01*
X107294674Y-144617305D01*
X107295326Y-143870695D01*
X107008957Y-143177628D01*
X106479161Y-142646907D01*
X105786595Y-142359328D01*
X105036695Y-142358674D01*
X104343628Y-142645043D01*
X103812907Y-143174839D01*
X103525328Y-143867405D01*
X103524674Y-144617305D01*
X100985574Y-144617305D01*
X101004388Y-144568194D01*
X100984250Y-143818565D01*
X100736123Y-143219533D01*
X100443320Y-143090285D01*
X99289605Y-144244000D01*
X98930395Y-144244000D01*
X97776680Y-143090285D01*
X97483877Y-143219533D01*
X97215612Y-143919806D01*
X95145000Y-143919806D01*
X95145000Y-142910680D01*
X97956285Y-142910680D01*
X99110000Y-144064395D01*
X100263715Y-142910680D01*
X100134467Y-142617877D01*
X99434194Y-142349612D01*
X98684565Y-142369750D01*
X98085533Y-142617877D01*
X97956285Y-142910680D01*
X95145000Y-142910680D01*
X95145000Y-128417305D01*
X97224674Y-128417305D01*
X97511043Y-129110372D01*
X98040839Y-129641093D01*
X98733405Y-129928672D01*
X99483305Y-129929326D01*
X100176372Y-129642957D01*
X100707093Y-129113161D01*
X100994672Y-128420595D01*
X100994674Y-128417305D01*
X103524674Y-128417305D01*
X103811043Y-129110372D01*
X104340839Y-129641093D01*
X105033405Y-129928672D01*
X105783305Y-129929326D01*
X106476372Y-129642957D01*
X107007093Y-129113161D01*
X107294672Y-128420595D01*
X107294674Y-128417305D01*
X109824674Y-128417305D01*
X110111043Y-129110372D01*
X110640839Y-129641093D01*
X111333405Y-129928672D01*
X112083305Y-129929326D01*
X112776372Y-129642957D01*
X113307093Y-129113161D01*
X113594672Y-128420595D01*
X113594674Y-128417305D01*
X174694674Y-128417305D01*
X174981043Y-129110372D01*
X175510839Y-129641093D01*
X176203405Y-129928672D01*
X176953305Y-129929326D01*
X177646372Y-129642957D01*
X178177093Y-129113161D01*
X178464672Y-128420595D01*
X178464674Y-128417305D01*
X180994674Y-128417305D01*
X181281043Y-129110372D01*
X181810839Y-129641093D01*
X182503405Y-129928672D01*
X183253305Y-129929326D01*
X183946372Y-129642957D01*
X184212472Y-129377320D01*
X188026285Y-129377320D01*
X188155533Y-129670123D01*
X188855806Y-129938388D01*
X189605435Y-129918250D01*
X190204467Y-129670123D01*
X190333715Y-129377320D01*
X189180000Y-128223605D01*
X188026285Y-129377320D01*
X184212472Y-129377320D01*
X184477093Y-129113161D01*
X184764672Y-128420595D01*
X184765283Y-127719806D01*
X187285612Y-127719806D01*
X187305750Y-128469435D01*
X187553877Y-129068467D01*
X187846680Y-129197715D01*
X189000395Y-128044000D01*
X189359605Y-128044000D01*
X190513320Y-129197715D01*
X190806123Y-129068467D01*
X191074388Y-128368194D01*
X191054250Y-127618565D01*
X190806123Y-127019533D01*
X190513320Y-126890285D01*
X189359605Y-128044000D01*
X189000395Y-128044000D01*
X187846680Y-126890285D01*
X187553877Y-127019533D01*
X187285612Y-127719806D01*
X184765283Y-127719806D01*
X184765326Y-127670695D01*
X184478957Y-126977628D01*
X184212475Y-126710680D01*
X188026285Y-126710680D01*
X189180000Y-127864395D01*
X190333715Y-126710680D01*
X190204467Y-126417877D01*
X189504194Y-126149612D01*
X188754565Y-126169750D01*
X188155533Y-126417877D01*
X188026285Y-126710680D01*
X184212475Y-126710680D01*
X183949161Y-126446907D01*
X183256595Y-126159328D01*
X182506695Y-126158674D01*
X181813628Y-126445043D01*
X181282907Y-126974839D01*
X180995328Y-127667405D01*
X180994674Y-128417305D01*
X178464674Y-128417305D01*
X178465326Y-127670695D01*
X178178957Y-126977628D01*
X177649161Y-126446907D01*
X176956595Y-126159328D01*
X176206695Y-126158674D01*
X175513628Y-126445043D01*
X174982907Y-126974839D01*
X174695328Y-127667405D01*
X174694674Y-128417305D01*
X113594674Y-128417305D01*
X113595326Y-127670695D01*
X113308957Y-126977628D01*
X112779161Y-126446907D01*
X112086595Y-126159328D01*
X111336695Y-126158674D01*
X110643628Y-126445043D01*
X110112907Y-126974839D01*
X109825328Y-127667405D01*
X109824674Y-128417305D01*
X107294674Y-128417305D01*
X107295326Y-127670695D01*
X107008957Y-126977628D01*
X106479161Y-126446907D01*
X105786595Y-126159328D01*
X105036695Y-126158674D01*
X104343628Y-126445043D01*
X103812907Y-126974839D01*
X103525328Y-127667405D01*
X103524674Y-128417305D01*
X100994674Y-128417305D01*
X100995326Y-127670695D01*
X100708957Y-126977628D01*
X100179161Y-126446907D01*
X99486595Y-126159328D01*
X98736695Y-126158674D01*
X98043628Y-126445043D01*
X97512907Y-126974839D01*
X97225328Y-127667405D01*
X97224674Y-128417305D01*
X95145000Y-128417305D01*
X95145000Y-123987320D01*
X97956285Y-123987320D01*
X98085533Y-124280123D01*
X98785806Y-124548388D01*
X99535435Y-124528250D01*
X100134467Y-124280123D01*
X100263715Y-123987320D01*
X99110000Y-122833605D01*
X97956285Y-123987320D01*
X95145000Y-123987320D01*
X95145000Y-122329806D01*
X97215612Y-122329806D01*
X97235750Y-123079435D01*
X97483877Y-123678467D01*
X97776680Y-123807715D01*
X98930395Y-122654000D01*
X99289605Y-122654000D01*
X100443320Y-123807715D01*
X100736123Y-123678467D01*
X100985574Y-123027305D01*
X103524674Y-123027305D01*
X103811043Y-123720372D01*
X104340839Y-124251093D01*
X105033405Y-124538672D01*
X105783305Y-124539326D01*
X106476372Y-124252957D01*
X107007093Y-123723161D01*
X107294672Y-123030595D01*
X107294674Y-123027305D01*
X109824674Y-123027305D01*
X110111043Y-123720372D01*
X110640839Y-124251093D01*
X111333405Y-124538672D01*
X112083305Y-124539326D01*
X112776372Y-124252957D01*
X113307093Y-123723161D01*
X113346122Y-123629167D01*
X115650838Y-123629167D01*
X115792883Y-123972943D01*
X115826000Y-124006118D01*
X115826000Y-125675537D01*
X115793808Y-125707673D01*
X115651162Y-126051201D01*
X115650838Y-126423167D01*
X115792883Y-126766943D01*
X116055673Y-127030192D01*
X116399201Y-127172838D01*
X116771167Y-127173162D01*
X117114943Y-127031117D01*
X117348176Y-126798291D01*
X117579673Y-127030192D01*
X117923201Y-127172838D01*
X118295167Y-127173162D01*
X118638943Y-127031117D01*
X118902192Y-126768327D01*
X119044838Y-126424799D01*
X119045162Y-126052833D01*
X118903117Y-125709057D01*
X118870000Y-125675882D01*
X118870000Y-124006463D01*
X118902192Y-123974327D01*
X119044838Y-123630799D01*
X119045162Y-123258833D01*
X118949497Y-123027305D01*
X174694674Y-123027305D01*
X174981043Y-123720372D01*
X175510839Y-124251093D01*
X176203405Y-124538672D01*
X176953305Y-124539326D01*
X177646372Y-124252957D01*
X178177093Y-123723161D01*
X178464672Y-123030595D01*
X178464674Y-123027305D01*
X180994674Y-123027305D01*
X181281043Y-123720372D01*
X181810839Y-124251093D01*
X182503405Y-124538672D01*
X183253305Y-124539326D01*
X183946372Y-124252957D01*
X184477093Y-123723161D01*
X184764672Y-123030595D01*
X184764674Y-123027305D01*
X187294674Y-123027305D01*
X187581043Y-123720372D01*
X188110839Y-124251093D01*
X188803405Y-124538672D01*
X189553305Y-124539326D01*
X190246372Y-124252957D01*
X190777093Y-123723161D01*
X191064672Y-123030595D01*
X191065326Y-122280695D01*
X190778957Y-121587628D01*
X190249161Y-121056907D01*
X189556595Y-120769328D01*
X188806695Y-120768674D01*
X188113628Y-121055043D01*
X187582907Y-121584839D01*
X187295328Y-122277405D01*
X187294674Y-123027305D01*
X184764674Y-123027305D01*
X184765326Y-122280695D01*
X184478957Y-121587628D01*
X183949161Y-121056907D01*
X183256595Y-120769328D01*
X182506695Y-120768674D01*
X181813628Y-121055043D01*
X181282907Y-121584839D01*
X180995328Y-122277405D01*
X180994674Y-123027305D01*
X178464674Y-123027305D01*
X178465326Y-122280695D01*
X178178957Y-121587628D01*
X177649161Y-121056907D01*
X176956595Y-120769328D01*
X176206695Y-120768674D01*
X175513628Y-121055043D01*
X174982907Y-121584839D01*
X174695328Y-122277405D01*
X174694674Y-123027305D01*
X118949497Y-123027305D01*
X118903117Y-122915057D01*
X118640327Y-122651808D01*
X118296799Y-122509162D01*
X117924833Y-122508838D01*
X117581057Y-122650883D01*
X117347824Y-122883709D01*
X117116327Y-122651808D01*
X116772799Y-122509162D01*
X116400833Y-122508838D01*
X116057057Y-122650883D01*
X115793808Y-122913673D01*
X115651162Y-123257201D01*
X115650838Y-123629167D01*
X113346122Y-123629167D01*
X113594672Y-123030595D01*
X113595326Y-122280695D01*
X113308957Y-121587628D01*
X112779161Y-121056907D01*
X112086595Y-120769328D01*
X111336695Y-120768674D01*
X110643628Y-121055043D01*
X110112907Y-121584839D01*
X109825328Y-122277405D01*
X109824674Y-123027305D01*
X107294674Y-123027305D01*
X107295326Y-122280695D01*
X107008957Y-121587628D01*
X106479161Y-121056907D01*
X105786595Y-120769328D01*
X105036695Y-120768674D01*
X104343628Y-121055043D01*
X103812907Y-121584839D01*
X103525328Y-122277405D01*
X103524674Y-123027305D01*
X100985574Y-123027305D01*
X101004388Y-122978194D01*
X100984250Y-122228565D01*
X100736123Y-121629533D01*
X100443320Y-121500285D01*
X99289605Y-122654000D01*
X98930395Y-122654000D01*
X97776680Y-121500285D01*
X97483877Y-121629533D01*
X97215612Y-122329806D01*
X95145000Y-122329806D01*
X95145000Y-121320680D01*
X97956285Y-121320680D01*
X99110000Y-122474395D01*
X100263715Y-121320680D01*
X100134467Y-121027877D01*
X99434194Y-120759612D01*
X98684565Y-120779750D01*
X98085533Y-121027877D01*
X97956285Y-121320680D01*
X95145000Y-121320680D01*
X95145000Y-106827305D01*
X97224674Y-106827305D01*
X97511043Y-107520372D01*
X98040839Y-108051093D01*
X98733405Y-108338672D01*
X99483305Y-108339326D01*
X100176372Y-108052957D01*
X100707093Y-107523161D01*
X100994672Y-106830595D01*
X100994674Y-106827305D01*
X103524674Y-106827305D01*
X103811043Y-107520372D01*
X104340839Y-108051093D01*
X105033405Y-108338672D01*
X105783305Y-108339326D01*
X106476372Y-108052957D01*
X107007093Y-107523161D01*
X107294672Y-106830595D01*
X107294674Y-106827305D01*
X109824674Y-106827305D01*
X110111043Y-107520372D01*
X110640839Y-108051093D01*
X111333405Y-108338672D01*
X112083305Y-108339326D01*
X112776372Y-108052957D01*
X113307093Y-107523161D01*
X113594672Y-106830595D01*
X113595326Y-106080695D01*
X113308957Y-105387628D01*
X112779161Y-104856907D01*
X112086595Y-104569328D01*
X111336695Y-104568674D01*
X110643628Y-104855043D01*
X110112907Y-105384839D01*
X109825328Y-106077405D01*
X109824674Y-106827305D01*
X107294674Y-106827305D01*
X107295326Y-106080695D01*
X107008957Y-105387628D01*
X106479161Y-104856907D01*
X105786595Y-104569328D01*
X105036695Y-104568674D01*
X104343628Y-104855043D01*
X103812907Y-105384839D01*
X103525328Y-106077405D01*
X103524674Y-106827305D01*
X100994674Y-106827305D01*
X100995326Y-106080695D01*
X100708957Y-105387628D01*
X100179161Y-104856907D01*
X99486595Y-104569328D01*
X98736695Y-104568674D01*
X98043628Y-104855043D01*
X97512907Y-105384839D01*
X97225328Y-106077405D01*
X97224674Y-106827305D01*
X95145000Y-106827305D01*
X95145000Y-102397320D01*
X97956285Y-102397320D01*
X98085533Y-102690123D01*
X98785806Y-102958388D01*
X99535435Y-102938250D01*
X100134467Y-102690123D01*
X100263715Y-102397320D01*
X99110000Y-101243605D01*
X97956285Y-102397320D01*
X95145000Y-102397320D01*
X95145000Y-100739806D01*
X97215612Y-100739806D01*
X97235750Y-101489435D01*
X97483877Y-102088467D01*
X97776680Y-102217715D01*
X98930395Y-101064000D01*
X99289605Y-101064000D01*
X100443320Y-102217715D01*
X100736123Y-102088467D01*
X100985574Y-101437305D01*
X103524674Y-101437305D01*
X103811043Y-102130372D01*
X104340839Y-102661093D01*
X105033405Y-102948672D01*
X105783305Y-102949326D01*
X106476372Y-102662957D01*
X107007093Y-102133161D01*
X107294672Y-101440595D01*
X107294674Y-101437305D01*
X109824674Y-101437305D01*
X110111043Y-102130372D01*
X110640839Y-102661093D01*
X111333405Y-102948672D01*
X112083305Y-102949326D01*
X112776372Y-102662957D01*
X113307093Y-102133161D01*
X113594672Y-101440595D01*
X113595326Y-100690695D01*
X113308957Y-99997628D01*
X112779161Y-99466907D01*
X112086595Y-99179328D01*
X111336695Y-99178674D01*
X110643628Y-99465043D01*
X110112907Y-99994839D01*
X109825328Y-100687405D01*
X109824674Y-101437305D01*
X107294674Y-101437305D01*
X107295326Y-100690695D01*
X107008957Y-99997628D01*
X106479161Y-99466907D01*
X105786595Y-99179328D01*
X105036695Y-99178674D01*
X104343628Y-99465043D01*
X103812907Y-99994839D01*
X103525328Y-100687405D01*
X103524674Y-101437305D01*
X100985574Y-101437305D01*
X101004388Y-101388194D01*
X100984250Y-100638565D01*
X100736123Y-100039533D01*
X100443320Y-99910285D01*
X99289605Y-101064000D01*
X98930395Y-101064000D01*
X97776680Y-99910285D01*
X97483877Y-100039533D01*
X97215612Y-100739806D01*
X95145000Y-100739806D01*
X95145000Y-99730680D01*
X97956285Y-99730680D01*
X99110000Y-100884395D01*
X100263715Y-99730680D01*
X100134467Y-99437877D01*
X99434194Y-99169612D01*
X98684565Y-99189750D01*
X98085533Y-99437877D01*
X97956285Y-99730680D01*
X95145000Y-99730680D01*
X95145000Y-98991167D01*
X115396838Y-98991167D01*
X115538883Y-99334943D01*
X115572000Y-99368118D01*
X115572000Y-101799537D01*
X115539808Y-101831673D01*
X115397162Y-102175201D01*
X115396838Y-102547167D01*
X115538883Y-102890943D01*
X115801673Y-103154192D01*
X116145201Y-103296838D01*
X116517167Y-103297162D01*
X116840371Y-103163617D01*
X117161201Y-103296838D01*
X117533167Y-103297162D01*
X117856371Y-103163617D01*
X118177201Y-103296838D01*
X118549167Y-103297162D01*
X118892943Y-103155117D01*
X119156192Y-102892327D01*
X119298838Y-102548799D01*
X119299162Y-102176833D01*
X119157117Y-101833057D01*
X119124000Y-101799882D01*
X119124000Y-99368463D01*
X119156192Y-99336327D01*
X119298838Y-98992799D01*
X119299162Y-98620833D01*
X119157117Y-98277057D01*
X118894327Y-98013808D01*
X118550799Y-97871162D01*
X118178833Y-97870838D01*
X117855629Y-98004383D01*
X117534799Y-97871162D01*
X117162833Y-97870838D01*
X116839629Y-98004383D01*
X116518799Y-97871162D01*
X116146833Y-97870838D01*
X115803057Y-98012883D01*
X115539808Y-98275673D01*
X115397162Y-98619201D01*
X115396838Y-98991167D01*
X95145000Y-98991167D01*
X95145000Y-97704005D01*
X124008811Y-97704005D01*
X124150856Y-98047781D01*
X124413646Y-98311030D01*
X124757174Y-98453676D01*
X125129140Y-98454000D01*
X125472916Y-98311955D01*
X125506091Y-98278838D01*
X128541162Y-98278838D01*
X128832001Y-98220986D01*
X129078563Y-98056239D01*
X129171680Y-97963122D01*
X129217167Y-97963162D01*
X129560943Y-97821117D01*
X129824192Y-97558327D01*
X129966838Y-97214799D01*
X129967162Y-96842833D01*
X129825117Y-96499057D01*
X129562327Y-96235808D01*
X129218799Y-96093162D01*
X128846833Y-96092838D01*
X128503057Y-96234883D01*
X128239808Y-96497673D01*
X128131362Y-96758838D01*
X125506436Y-96758838D01*
X125474300Y-96726646D01*
X125130772Y-96584000D01*
X124758806Y-96583676D01*
X124415030Y-96725721D01*
X124151781Y-96988511D01*
X124009135Y-97332039D01*
X124008811Y-97704005D01*
X95145000Y-97704005D01*
X95145000Y-95181167D01*
X122508838Y-95181167D01*
X122650883Y-95524943D01*
X122913673Y-95788192D01*
X123257201Y-95930838D01*
X123629167Y-95931162D01*
X123972943Y-95789117D01*
X124006118Y-95756000D01*
X126437537Y-95756000D01*
X126469673Y-95788192D01*
X126813201Y-95930838D01*
X127185167Y-95931162D01*
X127528943Y-95789117D01*
X127792192Y-95526327D01*
X127934838Y-95182799D01*
X127935162Y-94810833D01*
X127793117Y-94467057D01*
X127530327Y-94203808D01*
X127186799Y-94061162D01*
X126814833Y-94060838D01*
X126471057Y-94202883D01*
X126437882Y-94236000D01*
X124006463Y-94236000D01*
X123974327Y-94203808D01*
X123630799Y-94061162D01*
X123258833Y-94060838D01*
X122915057Y-94202883D01*
X122651808Y-94465673D01*
X122509162Y-94809201D01*
X122508838Y-95181167D01*
X95145000Y-95181167D01*
X95145000Y-85237305D01*
X97224674Y-85237305D01*
X97511043Y-85930372D01*
X98040839Y-86461093D01*
X98733405Y-86748672D01*
X99483305Y-86749326D01*
X100176372Y-86462957D01*
X100707093Y-85933161D01*
X100994672Y-85240595D01*
X100994674Y-85237305D01*
X103524674Y-85237305D01*
X103811043Y-85930372D01*
X104340839Y-86461093D01*
X105033405Y-86748672D01*
X105783305Y-86749326D01*
X106476372Y-86462957D01*
X107007093Y-85933161D01*
X107294672Y-85240595D01*
X107294674Y-85237305D01*
X109824674Y-85237305D01*
X110111043Y-85930372D01*
X110640839Y-86461093D01*
X111333405Y-86748672D01*
X112083305Y-86749326D01*
X112776372Y-86462957D01*
X113307093Y-85933161D01*
X113594672Y-85240595D01*
X113595326Y-84490695D01*
X113394711Y-84005167D01*
X116666838Y-84005167D01*
X116808883Y-84348943D01*
X117071673Y-84612192D01*
X117415201Y-84754838D01*
X117428849Y-84754850D01*
X117428838Y-84767167D01*
X117570883Y-85110943D01*
X117833673Y-85374192D01*
X118177201Y-85516838D01*
X118549167Y-85517162D01*
X118892943Y-85375117D01*
X119156192Y-85112327D01*
X119298838Y-84768799D01*
X119298879Y-84721923D01*
X120535680Y-83485122D01*
X120581167Y-83485162D01*
X120924943Y-83343117D01*
X121188192Y-83080327D01*
X121330838Y-82736799D01*
X121331162Y-82364833D01*
X121189117Y-82021057D01*
X121026140Y-81857795D01*
X136794716Y-81857795D01*
X137043106Y-82458943D01*
X137387759Y-82804199D01*
X137044722Y-83146637D01*
X136795284Y-83747352D01*
X136794716Y-84397795D01*
X137043106Y-84998943D01*
X137387759Y-85344199D01*
X137044722Y-85686637D01*
X136795284Y-86287352D01*
X136794716Y-86937795D01*
X137043106Y-87538943D01*
X137387759Y-87884199D01*
X137044722Y-88226637D01*
X136795284Y-88827352D01*
X136794716Y-89477795D01*
X137043106Y-90078943D01*
X137387759Y-90424199D01*
X137044722Y-90766637D01*
X136795284Y-91367352D01*
X136794716Y-92017795D01*
X137043106Y-92618943D01*
X137387759Y-92964199D01*
X137044722Y-93306637D01*
X136795284Y-93907352D01*
X136794716Y-94557795D01*
X137043106Y-95158943D01*
X137387759Y-95504199D01*
X137044722Y-95846637D01*
X136795284Y-96447352D01*
X136794716Y-97097795D01*
X137043106Y-97698943D01*
X137387759Y-98044199D01*
X137044722Y-98386637D01*
X136795284Y-98987352D01*
X136794716Y-99637795D01*
X137043106Y-100238943D01*
X137387759Y-100584199D01*
X137044722Y-100926637D01*
X136795284Y-101527352D01*
X136794716Y-102177795D01*
X137043106Y-102778943D01*
X137387759Y-103124199D01*
X137044722Y-103466637D01*
X136795284Y-104067352D01*
X136794716Y-104717795D01*
X137043106Y-105318943D01*
X137387759Y-105664199D01*
X137044722Y-106006637D01*
X136795284Y-106607352D01*
X136794716Y-107257795D01*
X137043106Y-107858943D01*
X137387759Y-108204199D01*
X137044722Y-108546637D01*
X136795284Y-109147352D01*
X136794716Y-109797795D01*
X137043106Y-110398943D01*
X137502637Y-110859278D01*
X138103352Y-111108716D01*
X138753795Y-111109284D01*
X139354943Y-110860894D01*
X139815278Y-110401363D01*
X140064716Y-109800648D01*
X140065219Y-109224695D01*
X140176883Y-109494943D01*
X140210000Y-109528118D01*
X140210000Y-111959537D01*
X140177808Y-111991673D01*
X140035162Y-112335201D01*
X140034838Y-112707167D01*
X140176883Y-113050943D01*
X140439673Y-113314192D01*
X140783201Y-113456838D01*
X141155167Y-113457162D01*
X141498943Y-113315117D01*
X141762192Y-113052327D01*
X141904838Y-112708799D01*
X141905162Y-112336833D01*
X141763117Y-111993057D01*
X141730000Y-111959882D01*
X141730000Y-109528463D01*
X141762192Y-109496327D01*
X141904838Y-109152799D01*
X141905162Y-108780833D01*
X141763117Y-108437057D01*
X141500327Y-108173808D01*
X141156799Y-108031162D01*
X140784833Y-108030838D01*
X140441057Y-108172883D01*
X140177808Y-108435673D01*
X140035162Y-108779201D01*
X140034903Y-109076677D01*
X139816894Y-108549057D01*
X139472241Y-108203801D01*
X139815278Y-107861363D01*
X140064716Y-107260648D01*
X140065284Y-106610205D01*
X139816894Y-106009057D01*
X139472241Y-105663801D01*
X139815278Y-105321363D01*
X140064716Y-104720648D01*
X140065284Y-104070205D01*
X139816894Y-103469057D01*
X139472241Y-103123801D01*
X139815278Y-102781363D01*
X140017994Y-102293167D01*
X143082838Y-102293167D01*
X143224883Y-102636943D01*
X143487673Y-102900192D01*
X143831201Y-103042838D01*
X144203167Y-103043162D01*
X144546943Y-102901117D01*
X144580118Y-102868000D01*
X147773537Y-102868000D01*
X147805673Y-102900192D01*
X148149201Y-103042838D01*
X148521167Y-103043162D01*
X148864943Y-102901117D01*
X149128192Y-102638327D01*
X149270838Y-102294799D01*
X149271162Y-101922833D01*
X149129117Y-101579057D01*
X148866327Y-101315808D01*
X148522799Y-101173162D01*
X148150833Y-101172838D01*
X147807057Y-101314883D01*
X147773882Y-101348000D01*
X144580463Y-101348000D01*
X144548327Y-101315808D01*
X144204799Y-101173162D01*
X143832833Y-101172838D01*
X143489057Y-101314883D01*
X143225808Y-101577673D01*
X143083162Y-101921201D01*
X143082838Y-102293167D01*
X140017994Y-102293167D01*
X140064716Y-102180648D01*
X140065284Y-101530205D01*
X139816894Y-100929057D01*
X139472241Y-100583801D01*
X139815278Y-100241363D01*
X140064716Y-99640648D01*
X140065284Y-98990205D01*
X139816894Y-98389057D01*
X139472241Y-98043801D01*
X139815278Y-97701363D01*
X140064716Y-97100648D01*
X140065284Y-96450205D01*
X139816894Y-95849057D01*
X139472241Y-95503801D01*
X139815278Y-95161363D01*
X140064716Y-94560648D01*
X140065284Y-93910205D01*
X139816894Y-93309057D01*
X139472241Y-92963801D01*
X139815278Y-92621363D01*
X140064716Y-92020648D01*
X140065284Y-91370205D01*
X139816894Y-90769057D01*
X139472241Y-90423801D01*
X139815278Y-90081363D01*
X140064716Y-89480648D01*
X140065284Y-88830205D01*
X139816894Y-88229057D01*
X139472241Y-87883801D01*
X139815278Y-87541363D01*
X140064716Y-86940648D01*
X140065284Y-86290205D01*
X139816894Y-85689057D01*
X139472241Y-85343801D01*
X139815278Y-85001363D01*
X140064716Y-84400648D01*
X140065284Y-83750205D01*
X139816894Y-83149057D01*
X139472241Y-82803801D01*
X139815278Y-82461363D01*
X140064716Y-81860648D01*
X140065284Y-81210205D01*
X139816894Y-80609057D01*
X139390022Y-80181438D01*
X139402927Y-80146532D01*
X138430000Y-79173605D01*
X137457073Y-80146532D01*
X137470164Y-80181938D01*
X137044722Y-80606637D01*
X136795284Y-81207352D01*
X136794716Y-81857795D01*
X121026140Y-81857795D01*
X120926327Y-81757808D01*
X120822843Y-81714838D01*
X120823162Y-81348833D01*
X120681117Y-81005057D01*
X120418327Y-80741808D01*
X120074799Y-80599162D01*
X119702833Y-80598838D01*
X119359057Y-80740883D01*
X119095808Y-81003673D01*
X118953162Y-81347201D01*
X118953121Y-81394077D01*
X117462320Y-82884878D01*
X117416833Y-82884838D01*
X117073057Y-83026883D01*
X116809808Y-83289673D01*
X116667162Y-83633201D01*
X116666838Y-84005167D01*
X113394711Y-84005167D01*
X113308957Y-83797628D01*
X112779161Y-83266907D01*
X112086595Y-82979328D01*
X111336695Y-82978674D01*
X110643628Y-83265043D01*
X110112907Y-83794839D01*
X109825328Y-84487405D01*
X109824674Y-85237305D01*
X107294674Y-85237305D01*
X107295326Y-84490695D01*
X107008957Y-83797628D01*
X106479161Y-83266907D01*
X105786595Y-82979328D01*
X105036695Y-82978674D01*
X104343628Y-83265043D01*
X103812907Y-83794839D01*
X103525328Y-84487405D01*
X103524674Y-85237305D01*
X100994674Y-85237305D01*
X100995326Y-84490695D01*
X100708957Y-83797628D01*
X100179161Y-83266907D01*
X99486595Y-82979328D01*
X98736695Y-82978674D01*
X98043628Y-83265043D01*
X97512907Y-83794839D01*
X97225328Y-84487405D01*
X97224674Y-85237305D01*
X95145000Y-85237305D01*
X95145000Y-80172320D01*
X97956285Y-80172320D01*
X98085533Y-80465123D01*
X98785806Y-80733388D01*
X99535435Y-80713250D01*
X100134467Y-80465123D01*
X100263715Y-80172320D01*
X99110000Y-79018605D01*
X97956285Y-80172320D01*
X95145000Y-80172320D01*
X95145000Y-78514806D01*
X97215612Y-78514806D01*
X97235750Y-79264435D01*
X97483877Y-79863467D01*
X97776680Y-79992715D01*
X98930395Y-78839000D01*
X99289605Y-78839000D01*
X100443320Y-79992715D01*
X100736123Y-79863467D01*
X100985574Y-79212305D01*
X103524674Y-79212305D01*
X103811043Y-79905372D01*
X104340839Y-80436093D01*
X105033405Y-80723672D01*
X105783305Y-80724326D01*
X106476372Y-80437957D01*
X107007093Y-79908161D01*
X107294672Y-79215595D01*
X107294674Y-79212305D01*
X109824674Y-79212305D01*
X110111043Y-79905372D01*
X110640839Y-80436093D01*
X111333405Y-80723672D01*
X112083305Y-80724326D01*
X112776372Y-80437957D01*
X113307093Y-79908161D01*
X113594672Y-79215595D01*
X113595095Y-78729461D01*
X136784092Y-78729461D01*
X136808144Y-79379460D01*
X137010613Y-79868264D01*
X137277468Y-79966927D01*
X138250395Y-78994000D01*
X138609605Y-78994000D01*
X139582532Y-79966927D01*
X139849387Y-79868264D01*
X140053893Y-79317795D01*
X152034716Y-79317795D01*
X152283106Y-79918943D01*
X152627759Y-80264199D01*
X152284722Y-80606637D01*
X152035284Y-81207352D01*
X152034716Y-81857795D01*
X152283106Y-82458943D01*
X152627759Y-82804199D01*
X152284722Y-83146637D01*
X152035284Y-83747352D01*
X152034716Y-84397795D01*
X152283106Y-84998943D01*
X152627759Y-85344199D01*
X152284722Y-85686637D01*
X152035284Y-86287352D01*
X152034716Y-86937795D01*
X152283106Y-87538943D01*
X152627759Y-87884199D01*
X152284722Y-88226637D01*
X152035284Y-88827352D01*
X152034716Y-89477795D01*
X152283106Y-90078943D01*
X152627759Y-90424199D01*
X152284722Y-90766637D01*
X152035284Y-91367352D01*
X152034716Y-92017795D01*
X152283106Y-92618943D01*
X152627759Y-92964199D01*
X152284722Y-93306637D01*
X152035284Y-93907352D01*
X152034716Y-94557795D01*
X152283106Y-95158943D01*
X152627759Y-95504199D01*
X152284722Y-95846637D01*
X152035284Y-96447352D01*
X152034716Y-97097795D01*
X152283106Y-97698943D01*
X152627759Y-98044199D01*
X152284722Y-98386637D01*
X152035284Y-98987352D01*
X152034716Y-99637795D01*
X152283106Y-100238943D01*
X152627759Y-100584199D01*
X152284722Y-100926637D01*
X152035284Y-101527352D01*
X152034716Y-102177795D01*
X152283106Y-102778943D01*
X152627759Y-103124199D01*
X152284722Y-103466637D01*
X152035284Y-104067352D01*
X152034716Y-104717795D01*
X152283106Y-105318943D01*
X152627759Y-105664199D01*
X152284722Y-106006637D01*
X152035284Y-106607352D01*
X152034716Y-107257795D01*
X152283106Y-107858943D01*
X152627759Y-108204199D01*
X152284722Y-108546637D01*
X152035284Y-109147352D01*
X152034716Y-109797795D01*
X152283106Y-110398943D01*
X152742637Y-110859278D01*
X153343352Y-111108716D01*
X153993795Y-111109284D01*
X154594943Y-110860894D01*
X155055278Y-110401363D01*
X155304716Y-109800648D01*
X155305284Y-109150205D01*
X155056894Y-108549057D01*
X154712241Y-108203801D01*
X154780995Y-108135167D01*
X155528838Y-108135167D01*
X155670883Y-108478943D01*
X155933673Y-108742192D01*
X156277201Y-108884838D01*
X156310106Y-108884867D01*
X156189057Y-108934883D01*
X155925808Y-109197673D01*
X155783162Y-109541201D01*
X155782838Y-109913167D01*
X155924883Y-110256943D01*
X156187673Y-110520192D01*
X156531201Y-110662838D01*
X156578077Y-110662879D01*
X158576878Y-112661680D01*
X158576838Y-112707167D01*
X158718883Y-113050943D01*
X158981673Y-113314192D01*
X159325201Y-113456838D01*
X159697167Y-113457162D01*
X160040943Y-113315117D01*
X160304192Y-113052327D01*
X160446838Y-112708799D01*
X160447162Y-112336833D01*
X160305117Y-111993057D01*
X160042327Y-111729808D01*
X159698799Y-111587162D01*
X159651923Y-111587121D01*
X157653122Y-109588320D01*
X157653162Y-109542833D01*
X157511117Y-109199057D01*
X157248327Y-108935808D01*
X156904799Y-108793162D01*
X156871894Y-108793133D01*
X156992943Y-108743117D01*
X157026118Y-108710000D01*
X162306000Y-108710000D01*
X162596839Y-108652148D01*
X162628399Y-108631060D01*
X162745167Y-108631162D01*
X163088943Y-108489117D01*
X163352192Y-108226327D01*
X163494838Y-107882799D01*
X163495162Y-107510833D01*
X163353117Y-107167057D01*
X163090327Y-106903808D01*
X162906089Y-106827305D01*
X174694674Y-106827305D01*
X174981043Y-107520372D01*
X175510839Y-108051093D01*
X176203405Y-108338672D01*
X176953305Y-108339326D01*
X177646372Y-108052957D01*
X178177093Y-107523161D01*
X178464672Y-106830595D01*
X178464674Y-106827305D01*
X180994674Y-106827305D01*
X181281043Y-107520372D01*
X181810839Y-108051093D01*
X182503405Y-108338672D01*
X183253305Y-108339326D01*
X183946372Y-108052957D01*
X184212472Y-107787320D01*
X188026285Y-107787320D01*
X188155533Y-108080123D01*
X188855806Y-108348388D01*
X189605435Y-108328250D01*
X190204467Y-108080123D01*
X190333715Y-107787320D01*
X189180000Y-106633605D01*
X188026285Y-107787320D01*
X184212472Y-107787320D01*
X184477093Y-107523161D01*
X184764672Y-106830595D01*
X184765283Y-106129806D01*
X187285612Y-106129806D01*
X187305750Y-106879435D01*
X187553877Y-107478467D01*
X187846680Y-107607715D01*
X189000395Y-106454000D01*
X189359605Y-106454000D01*
X190513320Y-107607715D01*
X190806123Y-107478467D01*
X191074388Y-106778194D01*
X191054250Y-106028565D01*
X190806123Y-105429533D01*
X190513320Y-105300285D01*
X189359605Y-106454000D01*
X189000395Y-106454000D01*
X187846680Y-105300285D01*
X187553877Y-105429533D01*
X187285612Y-106129806D01*
X184765283Y-106129806D01*
X184765326Y-106080695D01*
X184478957Y-105387628D01*
X184212475Y-105120680D01*
X188026285Y-105120680D01*
X189180000Y-106274395D01*
X190333715Y-105120680D01*
X190204467Y-104827877D01*
X189504194Y-104559612D01*
X188754565Y-104579750D01*
X188155533Y-104827877D01*
X188026285Y-105120680D01*
X184212475Y-105120680D01*
X183949161Y-104856907D01*
X183256595Y-104569328D01*
X182506695Y-104568674D01*
X181813628Y-104855043D01*
X181282907Y-105384839D01*
X180995328Y-106077405D01*
X180994674Y-106827305D01*
X178464674Y-106827305D01*
X178465326Y-106080695D01*
X178178957Y-105387628D01*
X177649161Y-104856907D01*
X176956595Y-104569328D01*
X176206695Y-104568674D01*
X175513628Y-104855043D01*
X174982907Y-105384839D01*
X174695328Y-106077405D01*
X174694674Y-106827305D01*
X162906089Y-106827305D01*
X162746799Y-106761162D01*
X162374833Y-106760838D01*
X162031057Y-106902883D01*
X161767808Y-107165673D01*
X161757706Y-107190000D01*
X157026463Y-107190000D01*
X156994327Y-107157808D01*
X156650799Y-107015162D01*
X156278833Y-107014838D01*
X155935057Y-107156883D01*
X155671808Y-107419673D01*
X155529162Y-107763201D01*
X155528838Y-108135167D01*
X154780995Y-108135167D01*
X155055278Y-107861363D01*
X155304716Y-107260648D01*
X155305284Y-106610205D01*
X155056894Y-106009057D01*
X154712241Y-105663801D01*
X155055278Y-105321363D01*
X155304716Y-104720648D01*
X155305284Y-104070205D01*
X155056894Y-103469057D01*
X154712241Y-103123801D01*
X155055278Y-102781363D01*
X155257994Y-102293167D01*
X169498838Y-102293167D01*
X169640883Y-102636943D01*
X169903673Y-102900192D01*
X170247201Y-103042838D01*
X170619167Y-103043162D01*
X170942371Y-102909617D01*
X171263201Y-103042838D01*
X171635167Y-103043162D01*
X171958371Y-102909617D01*
X172279201Y-103042838D01*
X172651167Y-103043162D01*
X172994943Y-102901117D01*
X173258192Y-102638327D01*
X173400838Y-102294799D01*
X173401162Y-101922833D01*
X173259117Y-101579057D01*
X173226000Y-101545882D01*
X173226000Y-101437305D01*
X174694674Y-101437305D01*
X174981043Y-102130372D01*
X175510839Y-102661093D01*
X176203405Y-102948672D01*
X176953305Y-102949326D01*
X177646372Y-102662957D01*
X178177093Y-102133161D01*
X178464672Y-101440595D01*
X178464674Y-101437305D01*
X180994674Y-101437305D01*
X181281043Y-102130372D01*
X181810839Y-102661093D01*
X182503405Y-102948672D01*
X183253305Y-102949326D01*
X183946372Y-102662957D01*
X184477093Y-102133161D01*
X184764672Y-101440595D01*
X184764674Y-101437305D01*
X187294674Y-101437305D01*
X187581043Y-102130372D01*
X188110839Y-102661093D01*
X188803405Y-102948672D01*
X189553305Y-102949326D01*
X190246372Y-102662957D01*
X190777093Y-102133161D01*
X191064672Y-101440595D01*
X191065326Y-100690695D01*
X190778957Y-99997628D01*
X190249161Y-99466907D01*
X189556595Y-99179328D01*
X188806695Y-99178674D01*
X188113628Y-99465043D01*
X187582907Y-99994839D01*
X187295328Y-100687405D01*
X187294674Y-101437305D01*
X184764674Y-101437305D01*
X184765326Y-100690695D01*
X184478957Y-99997628D01*
X183949161Y-99466907D01*
X183256595Y-99179328D01*
X182506695Y-99178674D01*
X181813628Y-99465043D01*
X181282907Y-99994839D01*
X180995328Y-100687405D01*
X180994674Y-101437305D01*
X178464674Y-101437305D01*
X178465326Y-100690695D01*
X178178957Y-99997628D01*
X177649161Y-99466907D01*
X176956595Y-99179328D01*
X176206695Y-99178674D01*
X175513628Y-99465043D01*
X174982907Y-99994839D01*
X174695328Y-100687405D01*
X174694674Y-101437305D01*
X173226000Y-101437305D01*
X173226000Y-97172103D01*
X173295201Y-97200838D01*
X173667167Y-97201162D01*
X174010943Y-97059117D01*
X174044118Y-97026000D01*
X175707198Y-97026000D01*
X175722863Y-97041665D01*
X175595162Y-97349201D01*
X175594838Y-97721167D01*
X175736883Y-98064943D01*
X175999673Y-98328192D01*
X176343201Y-98470838D01*
X176715167Y-98471162D01*
X177058943Y-98329117D01*
X177322192Y-98066327D01*
X177464838Y-97722799D01*
X177465162Y-97350833D01*
X177323117Y-97007057D01*
X177290000Y-96973882D01*
X177290000Y-96774000D01*
X177232148Y-96483161D01*
X177067401Y-96236599D01*
X176559401Y-95728599D01*
X176312839Y-95563852D01*
X176022000Y-95506000D01*
X174044463Y-95506000D01*
X174012327Y-95473808D01*
X173668799Y-95331162D01*
X173296833Y-95330838D01*
X172973629Y-95464383D01*
X172652799Y-95331162D01*
X172280833Y-95330838D01*
X171937057Y-95472883D01*
X171673808Y-95735673D01*
X171531162Y-96079201D01*
X171531150Y-96092849D01*
X171518833Y-96092838D01*
X171175057Y-96234883D01*
X170911808Y-96497673D01*
X170868838Y-96601157D01*
X170502833Y-96600838D01*
X170159057Y-96742883D01*
X169895808Y-97005673D01*
X169753162Y-97349201D01*
X169753059Y-97467422D01*
X169731852Y-97499161D01*
X169674000Y-97790000D01*
X169674000Y-101545537D01*
X169641808Y-101577673D01*
X169499162Y-101921201D01*
X169498838Y-102293167D01*
X155257994Y-102293167D01*
X155304716Y-102180648D01*
X155305284Y-101530205D01*
X155095780Y-101023167D01*
X156290838Y-101023167D01*
X156432883Y-101366943D01*
X156695673Y-101630192D01*
X157039201Y-101772838D01*
X157411167Y-101773162D01*
X157754943Y-101631117D01*
X157788118Y-101598000D01*
X161503403Y-101598000D01*
X161512883Y-101620943D01*
X161775673Y-101884192D01*
X162119201Y-102026838D01*
X162491167Y-102027162D01*
X162834943Y-101885117D01*
X163098192Y-101622327D01*
X163240838Y-101278799D01*
X163241162Y-100906833D01*
X163099117Y-100563057D01*
X162836327Y-100299808D01*
X162492799Y-100157162D01*
X162374578Y-100157059D01*
X162342839Y-100135852D01*
X162052000Y-100078000D01*
X157788463Y-100078000D01*
X157756327Y-100045808D01*
X157412799Y-99903162D01*
X157040833Y-99902838D01*
X156697057Y-100044883D01*
X156433808Y-100307673D01*
X156291162Y-100651201D01*
X156290838Y-101023167D01*
X155095780Y-101023167D01*
X155056894Y-100929057D01*
X154712241Y-100583801D01*
X155055278Y-100241363D01*
X155304716Y-99640648D01*
X155305284Y-98990205D01*
X155056894Y-98389057D01*
X154712241Y-98043801D01*
X155055278Y-97701363D01*
X155304716Y-97100648D01*
X155305284Y-96450205D01*
X155056894Y-95849057D01*
X154712241Y-95503801D01*
X155035439Y-95181167D01*
X159084838Y-95181167D01*
X159226883Y-95524943D01*
X159489673Y-95788192D01*
X159833201Y-95930838D01*
X160205167Y-95931162D01*
X160548943Y-95789117D01*
X160582118Y-95756000D01*
X162245198Y-95756000D01*
X163148878Y-96659680D01*
X163148838Y-96705167D01*
X163290883Y-97048943D01*
X163553673Y-97312192D01*
X163897201Y-97454838D01*
X164269167Y-97455162D01*
X164612943Y-97313117D01*
X164876192Y-97050327D01*
X165018838Y-96706799D01*
X165019162Y-96334833D01*
X164877117Y-95991057D01*
X164614327Y-95727808D01*
X164270799Y-95585162D01*
X164223923Y-95585121D01*
X163632802Y-94994000D01*
X163830000Y-94994000D01*
X164120839Y-94936148D01*
X164152399Y-94915060D01*
X164269167Y-94915162D01*
X164612943Y-94773117D01*
X164876192Y-94510327D01*
X165018838Y-94166799D01*
X165019162Y-93794833D01*
X164877117Y-93451057D01*
X164614327Y-93187808D01*
X164270799Y-93045162D01*
X163898833Y-93044838D01*
X163555057Y-93186883D01*
X163291808Y-93449673D01*
X163281706Y-93474000D01*
X161598463Y-93474000D01*
X161566327Y-93441808D01*
X161222799Y-93299162D01*
X160850833Y-93298838D01*
X160507057Y-93440883D01*
X160243808Y-93703673D01*
X160101162Y-94047201D01*
X160101150Y-94061070D01*
X159834833Y-94060838D01*
X159491057Y-94202883D01*
X159227808Y-94465673D01*
X159085162Y-94809201D01*
X159084838Y-95181167D01*
X155035439Y-95181167D01*
X155055278Y-95161363D01*
X155304716Y-94560648D01*
X155305284Y-93910205D01*
X155056894Y-93309057D01*
X154712241Y-92963801D01*
X155055278Y-92621363D01*
X155304716Y-92020648D01*
X155305284Y-91370205D01*
X155056894Y-90769057D01*
X154712241Y-90423801D01*
X155055278Y-90081363D01*
X155304716Y-89480648D01*
X155305284Y-88830205D01*
X155056894Y-88229057D01*
X154712241Y-87883801D01*
X155055278Y-87541363D01*
X155304716Y-86940648D01*
X155305284Y-86290205D01*
X155056894Y-85689057D01*
X154712241Y-85343801D01*
X154818923Y-85237305D01*
X174694674Y-85237305D01*
X174981043Y-85930372D01*
X175510839Y-86461093D01*
X176203405Y-86748672D01*
X176953305Y-86749326D01*
X177646372Y-86462957D01*
X178177093Y-85933161D01*
X178464672Y-85240595D01*
X178464674Y-85237305D01*
X180994674Y-85237305D01*
X181281043Y-85930372D01*
X181810839Y-86461093D01*
X182503405Y-86748672D01*
X183253305Y-86749326D01*
X183946372Y-86462957D01*
X184212472Y-86197320D01*
X188026285Y-86197320D01*
X188155533Y-86490123D01*
X188855806Y-86758388D01*
X189605435Y-86738250D01*
X190204467Y-86490123D01*
X190333715Y-86197320D01*
X189180000Y-85043605D01*
X188026285Y-86197320D01*
X184212472Y-86197320D01*
X184477093Y-85933161D01*
X184764672Y-85240595D01*
X184765283Y-84539806D01*
X187285612Y-84539806D01*
X187305750Y-85289435D01*
X187553877Y-85888467D01*
X187846680Y-86017715D01*
X189000395Y-84864000D01*
X189359605Y-84864000D01*
X190513320Y-86017715D01*
X190806123Y-85888467D01*
X191074388Y-85188194D01*
X191054250Y-84438565D01*
X190806123Y-83839533D01*
X190513320Y-83710285D01*
X189359605Y-84864000D01*
X189000395Y-84864000D01*
X187846680Y-83710285D01*
X187553877Y-83839533D01*
X187285612Y-84539806D01*
X184765283Y-84539806D01*
X184765326Y-84490695D01*
X184478957Y-83797628D01*
X184212475Y-83530680D01*
X188026285Y-83530680D01*
X189180000Y-84684395D01*
X190333715Y-83530680D01*
X190204467Y-83237877D01*
X189504194Y-82969612D01*
X188754565Y-82989750D01*
X188155533Y-83237877D01*
X188026285Y-83530680D01*
X184212475Y-83530680D01*
X183949161Y-83266907D01*
X183256595Y-82979328D01*
X182506695Y-82978674D01*
X181813628Y-83265043D01*
X181282907Y-83794839D01*
X180995328Y-84487405D01*
X180994674Y-85237305D01*
X178464674Y-85237305D01*
X178465326Y-84490695D01*
X178178957Y-83797628D01*
X177649161Y-83266907D01*
X176956595Y-82979328D01*
X176206695Y-82978674D01*
X175513628Y-83265043D01*
X174982907Y-83794839D01*
X174695328Y-84487405D01*
X174694674Y-85237305D01*
X154818923Y-85237305D01*
X155055278Y-85001363D01*
X155304716Y-84400648D01*
X155305284Y-83750205D01*
X155056894Y-83149057D01*
X154712241Y-82803801D01*
X155055278Y-82461363D01*
X155304716Y-81860648D01*
X155305284Y-81210205D01*
X155200731Y-80957167D01*
X164418838Y-80957167D01*
X164560883Y-81300943D01*
X164823673Y-81564192D01*
X165167201Y-81706838D01*
X165285421Y-81706941D01*
X165317160Y-81728148D01*
X165608000Y-81786000D01*
X168601537Y-81786000D01*
X168633673Y-81818192D01*
X168977201Y-81960838D01*
X169349167Y-81961162D01*
X169692943Y-81819117D01*
X169956192Y-81556327D01*
X170098838Y-81212799D01*
X170099162Y-80840833D01*
X169957117Y-80497057D01*
X169694327Y-80233808D01*
X169350799Y-80091162D01*
X168978833Y-80090838D01*
X168635057Y-80232883D01*
X168601882Y-80266000D01*
X166156597Y-80266000D01*
X166147117Y-80243057D01*
X165884327Y-79979808D01*
X165540799Y-79837162D01*
X165168833Y-79836838D01*
X164825057Y-79978883D01*
X164561808Y-80241673D01*
X164419162Y-80585201D01*
X164418838Y-80957167D01*
X155200731Y-80957167D01*
X155056894Y-80609057D01*
X154712241Y-80263801D01*
X155055278Y-79921363D01*
X155304716Y-79320648D01*
X155304810Y-79212305D01*
X174694674Y-79212305D01*
X174981043Y-79905372D01*
X175510839Y-80436093D01*
X176203405Y-80723672D01*
X176953305Y-80724326D01*
X177646372Y-80437957D01*
X178177093Y-79908161D01*
X178464672Y-79215595D01*
X178464674Y-79212305D01*
X180994674Y-79212305D01*
X181281043Y-79905372D01*
X181810839Y-80436093D01*
X182503405Y-80723672D01*
X183253305Y-80724326D01*
X183946372Y-80437957D01*
X184477093Y-79908161D01*
X184764672Y-79215595D01*
X184764674Y-79212305D01*
X187294674Y-79212305D01*
X187581043Y-79905372D01*
X188110839Y-80436093D01*
X188803405Y-80723672D01*
X189553305Y-80724326D01*
X190246372Y-80437957D01*
X190777093Y-79908161D01*
X191064672Y-79215595D01*
X191065326Y-78465695D01*
X190778957Y-77772628D01*
X190249161Y-77241907D01*
X189556595Y-76954328D01*
X188806695Y-76953674D01*
X188113628Y-77240043D01*
X187582907Y-77769839D01*
X187295328Y-78462405D01*
X187294674Y-79212305D01*
X184764674Y-79212305D01*
X184765326Y-78465695D01*
X184478957Y-77772628D01*
X183949161Y-77241907D01*
X183256595Y-76954328D01*
X182506695Y-76953674D01*
X181813628Y-77240043D01*
X181282907Y-77769839D01*
X180995328Y-78462405D01*
X180994674Y-79212305D01*
X178464674Y-79212305D01*
X178465326Y-78465695D01*
X178178957Y-77772628D01*
X177649161Y-77241907D01*
X176956595Y-76954328D01*
X176206695Y-76953674D01*
X175513628Y-77240043D01*
X174982907Y-77769839D01*
X174695328Y-78462405D01*
X174694674Y-79212305D01*
X155304810Y-79212305D01*
X155305284Y-78670205D01*
X155056894Y-78069057D01*
X154994749Y-78006803D01*
X155029698Y-77992327D01*
X155208327Y-77813699D01*
X155305000Y-77580310D01*
X155305000Y-76739750D01*
X155146250Y-76581000D01*
X153797000Y-76581000D01*
X153797000Y-76601000D01*
X153543000Y-76601000D01*
X153543000Y-76581000D01*
X152193750Y-76581000D01*
X152035000Y-76739750D01*
X152035000Y-77580310D01*
X152131673Y-77813699D01*
X152310302Y-77992327D01*
X152344834Y-78006630D01*
X152284722Y-78066637D01*
X152035284Y-78667352D01*
X152034716Y-79317795D01*
X140053893Y-79317795D01*
X140075908Y-79258539D01*
X140051856Y-78608540D01*
X139849387Y-78119736D01*
X139582532Y-78021073D01*
X138609605Y-78994000D01*
X138250395Y-78994000D01*
X137277468Y-78021073D01*
X137010613Y-78119736D01*
X136784092Y-78729461D01*
X113595095Y-78729461D01*
X113595326Y-78465695D01*
X113308957Y-77772628D01*
X112779161Y-77241907D01*
X112086595Y-76954328D01*
X111336695Y-76953674D01*
X110643628Y-77240043D01*
X110112907Y-77769839D01*
X109825328Y-78462405D01*
X109824674Y-79212305D01*
X107294674Y-79212305D01*
X107295326Y-78465695D01*
X107008957Y-77772628D01*
X106479161Y-77241907D01*
X105786595Y-76954328D01*
X105036695Y-76953674D01*
X104343628Y-77240043D01*
X103812907Y-77769839D01*
X103525328Y-78462405D01*
X103524674Y-79212305D01*
X100985574Y-79212305D01*
X101004388Y-79163194D01*
X100984250Y-78413565D01*
X100736123Y-77814533D01*
X100443320Y-77685285D01*
X99289605Y-78839000D01*
X98930395Y-78839000D01*
X97776680Y-77685285D01*
X97483877Y-77814533D01*
X97215612Y-78514806D01*
X95145000Y-78514806D01*
X95145000Y-77505680D01*
X97956285Y-77505680D01*
X99110000Y-78659395D01*
X100263715Y-77505680D01*
X100134467Y-77212877D01*
X99434194Y-76944612D01*
X98684565Y-76964750D01*
X98085533Y-77212877D01*
X97956285Y-77505680D01*
X95145000Y-77505680D01*
X95145000Y-76777795D01*
X136794716Y-76777795D01*
X137043106Y-77378943D01*
X137469978Y-77806562D01*
X137457073Y-77841468D01*
X138430000Y-78814395D01*
X139402927Y-77841468D01*
X139389836Y-77806062D01*
X139815278Y-77381363D01*
X140064716Y-76780648D01*
X140065284Y-76130205D01*
X139816894Y-75529057D01*
X139615879Y-75327690D01*
X152035000Y-75327690D01*
X152035000Y-76168250D01*
X152193750Y-76327000D01*
X153543000Y-76327000D01*
X153543000Y-74977750D01*
X153797000Y-74977750D01*
X153797000Y-76327000D01*
X155146250Y-76327000D01*
X155305000Y-76168250D01*
X155305000Y-75327690D01*
X155208327Y-75094301D01*
X155029698Y-74915673D01*
X154796309Y-74819000D01*
X153955750Y-74819000D01*
X153797000Y-74977750D01*
X153543000Y-74977750D01*
X153384250Y-74819000D01*
X152543691Y-74819000D01*
X152310302Y-74915673D01*
X152131673Y-75094301D01*
X152035000Y-75327690D01*
X139615879Y-75327690D01*
X139357363Y-75068722D01*
X138756648Y-74819284D01*
X138106205Y-74818716D01*
X137505057Y-75067106D01*
X137044722Y-75526637D01*
X136795284Y-76127352D01*
X136794716Y-76777795D01*
X95145000Y-76777795D01*
X95145000Y-70289167D01*
X134700838Y-70289167D01*
X134834383Y-70612371D01*
X134701162Y-70933201D01*
X134700838Y-71305167D01*
X134834383Y-71628371D01*
X134701162Y-71949201D01*
X134700838Y-72321167D01*
X134842883Y-72664943D01*
X135105673Y-72928192D01*
X135449201Y-73070838D01*
X135821167Y-73071162D01*
X136164943Y-72929117D01*
X136198118Y-72896000D01*
X139899537Y-72896000D01*
X139931673Y-72928192D01*
X140275201Y-73070838D01*
X140647167Y-73071162D01*
X140990943Y-72929117D01*
X141254192Y-72666327D01*
X141396838Y-72322799D01*
X141397162Y-71950833D01*
X141263617Y-71627629D01*
X141396838Y-71306799D01*
X141397162Y-70934833D01*
X141263617Y-70611629D01*
X141396838Y-70290799D01*
X141397162Y-69918833D01*
X141255117Y-69575057D01*
X141124354Y-69444065D01*
X141344089Y-69444257D01*
X141890086Y-69218656D01*
X142308188Y-68801283D01*
X142534742Y-68255681D01*
X142534744Y-68253089D01*
X149564743Y-68253089D01*
X149790344Y-68799086D01*
X150207717Y-69217188D01*
X150753319Y-69443742D01*
X151344089Y-69444257D01*
X151890086Y-69218656D01*
X152308188Y-68801283D01*
X152534742Y-68255681D01*
X152535257Y-67664911D01*
X152309656Y-67118914D01*
X151892283Y-66700812D01*
X151346681Y-66474258D01*
X150755911Y-66473743D01*
X150209914Y-66699344D01*
X149791812Y-67116717D01*
X149565258Y-67662319D01*
X149564743Y-68253089D01*
X142534744Y-68253089D01*
X142535257Y-67664911D01*
X142309656Y-67118914D01*
X141892283Y-66700812D01*
X141415799Y-66502958D01*
X145185647Y-66502958D01*
X145265920Y-66754259D01*
X145821279Y-66955718D01*
X146411458Y-66929315D01*
X146834080Y-66754259D01*
X146914353Y-66502958D01*
X146050000Y-65638605D01*
X145185647Y-66502958D01*
X141415799Y-66502958D01*
X141346681Y-66474258D01*
X140755911Y-66473743D01*
X140209914Y-66699344D01*
X139791812Y-67116717D01*
X139565258Y-67662319D01*
X139564743Y-68253089D01*
X139790344Y-68799086D01*
X140193729Y-69203176D01*
X139933057Y-69310883D01*
X139899882Y-69344000D01*
X136198463Y-69344000D01*
X136166327Y-69311808D01*
X135822799Y-69169162D01*
X135450833Y-69168838D01*
X135107057Y-69310883D01*
X134843808Y-69573673D01*
X134701162Y-69917201D01*
X134700838Y-70289167D01*
X95145000Y-70289167D01*
X95145000Y-65753089D01*
X137064743Y-65753089D01*
X137290344Y-66299086D01*
X137707717Y-66717188D01*
X138253319Y-66943742D01*
X138844089Y-66944257D01*
X139390086Y-66718656D01*
X139808188Y-66301283D01*
X140034742Y-65755681D01*
X140035200Y-65230279D01*
X144553282Y-65230279D01*
X144579685Y-65820458D01*
X144754741Y-66243080D01*
X145006042Y-66323353D01*
X145870395Y-65459000D01*
X146229605Y-65459000D01*
X147093958Y-66323353D01*
X147345259Y-66243080D01*
X147523005Y-65753089D01*
X152064743Y-65753089D01*
X152290344Y-66299086D01*
X152707717Y-66717188D01*
X153253319Y-66943742D01*
X153844089Y-66944257D01*
X154390086Y-66718656D01*
X154808188Y-66301283D01*
X155034742Y-65755681D01*
X155035257Y-65164911D01*
X154809656Y-64618914D01*
X154392283Y-64200812D01*
X153846681Y-63974258D01*
X153255911Y-63973743D01*
X152709914Y-64199344D01*
X152291812Y-64616717D01*
X152065258Y-65162319D01*
X152064743Y-65753089D01*
X147523005Y-65753089D01*
X147546718Y-65687721D01*
X147520315Y-65097542D01*
X147345259Y-64674920D01*
X147093958Y-64594647D01*
X146229605Y-65459000D01*
X145870395Y-65459000D01*
X145006042Y-64594647D01*
X144754741Y-64674920D01*
X144553282Y-65230279D01*
X140035200Y-65230279D01*
X140035257Y-65164911D01*
X139809656Y-64618914D01*
X139606140Y-64415042D01*
X145185647Y-64415042D01*
X146050000Y-65279395D01*
X146914353Y-64415042D01*
X146834080Y-64163741D01*
X146278721Y-63962282D01*
X145688542Y-63988685D01*
X145265920Y-64163741D01*
X145185647Y-64415042D01*
X139606140Y-64415042D01*
X139392283Y-64200812D01*
X138846681Y-63974258D01*
X138255911Y-63973743D01*
X137709914Y-64199344D01*
X137291812Y-64616717D01*
X137065258Y-65162319D01*
X137064743Y-65753089D01*
X95145000Y-65753089D01*
X95145000Y-63012305D01*
X97224674Y-63012305D01*
X97511043Y-63705372D01*
X98040839Y-64236093D01*
X98733405Y-64523672D01*
X99483305Y-64524326D01*
X100176372Y-64237957D01*
X100707093Y-63708161D01*
X100994672Y-63015595D01*
X100994674Y-63012305D01*
X103524674Y-63012305D01*
X103811043Y-63705372D01*
X104340839Y-64236093D01*
X105033405Y-64523672D01*
X105783305Y-64524326D01*
X106476372Y-64237957D01*
X107007093Y-63708161D01*
X107294672Y-63015595D01*
X107294674Y-63012305D01*
X109824674Y-63012305D01*
X110111043Y-63705372D01*
X110640839Y-64236093D01*
X111333405Y-64523672D01*
X112083305Y-64524326D01*
X112776372Y-64237957D01*
X113307093Y-63708161D01*
X113594672Y-63015595D01*
X113594674Y-63012305D01*
X174694674Y-63012305D01*
X174981043Y-63705372D01*
X175510839Y-64236093D01*
X176203405Y-64523672D01*
X176953305Y-64524326D01*
X177646372Y-64237957D01*
X178177093Y-63708161D01*
X178464672Y-63015595D01*
X178464674Y-63012305D01*
X180994674Y-63012305D01*
X181281043Y-63705372D01*
X181810839Y-64236093D01*
X182503405Y-64523672D01*
X183253305Y-64524326D01*
X183946372Y-64237957D01*
X184212472Y-63972320D01*
X188026285Y-63972320D01*
X188155533Y-64265123D01*
X188855806Y-64533388D01*
X189605435Y-64513250D01*
X190204467Y-64265123D01*
X190333715Y-63972320D01*
X189180000Y-62818605D01*
X188026285Y-63972320D01*
X184212472Y-63972320D01*
X184477093Y-63708161D01*
X184764672Y-63015595D01*
X184765283Y-62314806D01*
X187285612Y-62314806D01*
X187305750Y-63064435D01*
X187553877Y-63663467D01*
X187846680Y-63792715D01*
X189000395Y-62639000D01*
X189359605Y-62639000D01*
X190513320Y-63792715D01*
X190806123Y-63663467D01*
X191074388Y-62963194D01*
X191054250Y-62213565D01*
X190806123Y-61614533D01*
X190513320Y-61485285D01*
X189359605Y-62639000D01*
X189000395Y-62639000D01*
X187846680Y-61485285D01*
X187553877Y-61614533D01*
X187285612Y-62314806D01*
X184765283Y-62314806D01*
X184765326Y-62265695D01*
X184478957Y-61572628D01*
X184212475Y-61305680D01*
X188026285Y-61305680D01*
X189180000Y-62459395D01*
X190333715Y-61305680D01*
X190204467Y-61012877D01*
X189504194Y-60744612D01*
X188754565Y-60764750D01*
X188155533Y-61012877D01*
X188026285Y-61305680D01*
X184212475Y-61305680D01*
X183949161Y-61041907D01*
X183256595Y-60754328D01*
X182506695Y-60753674D01*
X181813628Y-61040043D01*
X181282907Y-61569839D01*
X180995328Y-62262405D01*
X180994674Y-63012305D01*
X178464674Y-63012305D01*
X178465326Y-62265695D01*
X178178957Y-61572628D01*
X177649161Y-61041907D01*
X176956595Y-60754328D01*
X176206695Y-60753674D01*
X175513628Y-61040043D01*
X174982907Y-61569839D01*
X174695328Y-62262405D01*
X174694674Y-63012305D01*
X113594674Y-63012305D01*
X113595326Y-62265695D01*
X113308957Y-61572628D01*
X112779161Y-61041907D01*
X112086595Y-60754328D01*
X111336695Y-60753674D01*
X110643628Y-61040043D01*
X110112907Y-61569839D01*
X109825328Y-62262405D01*
X109824674Y-63012305D01*
X107294674Y-63012305D01*
X107295326Y-62265695D01*
X107008957Y-61572628D01*
X106479161Y-61041907D01*
X105786595Y-60754328D01*
X105036695Y-60753674D01*
X104343628Y-61040043D01*
X103812907Y-61569839D01*
X103525328Y-62262405D01*
X103524674Y-63012305D01*
X100994674Y-63012305D01*
X100995326Y-62265695D01*
X100708957Y-61572628D01*
X100179161Y-61041907D01*
X99486595Y-60754328D01*
X98736695Y-60753674D01*
X98043628Y-61040043D01*
X97512907Y-61569839D01*
X97225328Y-62262405D01*
X97224674Y-63012305D01*
X95145000Y-63012305D01*
X95145000Y-58526815D01*
X97116630Y-58526815D01*
X97440980Y-59311800D01*
X98041041Y-59912909D01*
X98825459Y-60238628D01*
X99674815Y-60239370D01*
X100459800Y-59915020D01*
X101060909Y-59314959D01*
X101386628Y-58530541D01*
X101386937Y-58176815D01*
X187074630Y-58176815D01*
X187398980Y-58961800D01*
X187999041Y-59562909D01*
X188783459Y-59888628D01*
X189632815Y-59889370D01*
X190417800Y-59565020D01*
X191018909Y-58964959D01*
X191344628Y-58180541D01*
X191345370Y-57331185D01*
X191021020Y-56546200D01*
X190420959Y-55945091D01*
X189636541Y-55619372D01*
X188787185Y-55618630D01*
X188002200Y-55942980D01*
X187401091Y-56543041D01*
X187075372Y-57327459D01*
X187074630Y-58176815D01*
X101386937Y-58176815D01*
X101387370Y-57681185D01*
X101063020Y-56896200D01*
X100462959Y-56295091D01*
X99678541Y-55969372D01*
X98829185Y-55968630D01*
X98044200Y-56292980D01*
X97443091Y-56893041D01*
X97117372Y-57677459D01*
X97116630Y-58526815D01*
X95145000Y-58526815D01*
X95145000Y-57826390D01*
X95482957Y-56127366D01*
X95733040Y-55753089D01*
X139564743Y-55753089D01*
X139790344Y-56299086D01*
X140207717Y-56717188D01*
X140753319Y-56943742D01*
X141344089Y-56944257D01*
X141890086Y-56718656D01*
X142308188Y-56301283D01*
X142534742Y-55755681D01*
X142534744Y-55753089D01*
X149564743Y-55753089D01*
X149790344Y-56299086D01*
X150207717Y-56717188D01*
X150753319Y-56943742D01*
X151344089Y-56944257D01*
X151890086Y-56718656D01*
X152308188Y-56301283D01*
X152534742Y-55755681D01*
X152535257Y-55164911D01*
X152309656Y-54618914D01*
X151892283Y-54200812D01*
X151346681Y-53974258D01*
X150755911Y-53973743D01*
X150209914Y-54199344D01*
X149791812Y-54616717D01*
X149565258Y-55162319D01*
X149564743Y-55753089D01*
X142534744Y-55753089D01*
X142535257Y-55164911D01*
X142309656Y-54618914D01*
X141892283Y-54200812D01*
X141346681Y-53974258D01*
X140755911Y-53973743D01*
X140209914Y-54199344D01*
X139791812Y-54616717D01*
X139565258Y-55162319D01*
X139564743Y-55753089D01*
X95733040Y-55753089D01*
X96404371Y-54748371D01*
X97783366Y-53826957D01*
X99482390Y-53489000D01*
X189137610Y-53489000D01*
X190836634Y-53826957D01*
M02*
