M48
INCH,TZ
T1C0.016
T2C0.040
T3C0.055
T4C0.083
T5C0.030
T6C0.041
T7C0.118
%
G90
G05
T1
X44680Y-29420
X44960Y-32240
X45200Y-48600
X45220Y-45400
X45300Y-40200
X45320Y-37480
X45500Y-55200
X45540Y-35800
X46160Y-32240
X47040Y-49260
X47231Y-31769
X47280Y-56760
X47400Y-25000
X47875Y-30325
X47900Y-32440
X48340Y-49260
X48380Y-35800
X49100Y-29100
X49420Y-33980
X49691Y-30093
X50500Y-29100
X51300Y-29900
X52600Y-28820
X52600Y-31440
X52600Y-35220
X52600Y-36920
X54380Y-35600
X54680Y-35920
X55040Y-36240
X55400Y-36600
X56160Y-35600
X56420Y-35900
X56800Y-36220
X57140Y-36600
X58000Y-34480
X58000Y-36140
X58800Y-36920
X58800Y-40180
X62100Y-37160
X62100Y-38340
X62740Y-45580
X63460Y-37060
X63500Y-37840
X63900Y-46720
X64360Y-37840
X64420Y-30520
X64420Y-37040
X64760Y-30220
X65300Y-31400
X65300Y-35160
X65300Y-37840
X65620Y-31080
X66000Y-36350
X66350Y-40100
X66350Y-48600
X66350Y-57050
X68150Y-31650
X68200Y-34940
X68260Y-43480
X68300Y-52740
X68360Y-27180
T2
X53800Y-21800
X53800Y-22800
X53800Y-23800
X53800Y-24800
X53800Y-25800
X53800Y-26800
X53800Y-27800
X53800Y-28800
X53800Y-29800
X53800Y-30800
X53800Y-31800
X53800Y-32800
X53800Y-33800
X53800Y-34800
X59800Y-21800
X59800Y-22800
X59800Y-23800
X59800Y-24800
X59800Y-25800
X59800Y-26800
X59800Y-27800
X59800Y-28800
X59800Y-29800
X59800Y-30800
X59800Y-31800
X59800Y-32800
X59800Y-33800
X59800Y-34800
T3
X53847Y-55029
X54831Y-54044
X54831Y-58966
X56800Y-55029
X58769Y-54044
X58769Y-58966
X59753Y-55029
T4
X39020Y-24811
X39020Y-31189
X39020Y-33311
X39020Y-39689
X39020Y-41811
X39020Y-48189
X39020Y-50311
X39020Y-56689
X41500Y-24811
X41500Y-31189
X41500Y-33311
X41500Y-39689
X41500Y-41811
X41500Y-48189
X41500Y-50311
X41500Y-56689
X43980Y-24811
X43980Y-31189
X43980Y-33311
X43980Y-39689
X43980Y-41811
X43980Y-48189
X43980Y-50311
X43980Y-56689
X69520Y-24811
X69520Y-31189
X69520Y-33311
X69520Y-39689
X69520Y-41811
X69520Y-48189
X69520Y-50311
X69520Y-56689
X72000Y-24811
X72000Y-31189
X72000Y-33311
X72000Y-39689
X72000Y-41811
X72000Y-48189
X72000Y-50311
X72000Y-56689
X74480Y-24811
X74480Y-31189
X74480Y-33311
X74480Y-39689
X74480Y-41811
X74480Y-48189
X74480Y-50311
X74480Y-56689
T5
X57249Y-39151
T6
X56191Y-40209
T7
X39076Y-22876
X47012Y-58092
X66618Y-58092
X74492Y-22738
T0
M30
