G04 #@! TF.FileFunction,Soldermask,Top*
%FSLAX46Y46*%
G04 Gerber Fmt 4.6, Leading zero omitted, Abs format (unit mm)*
G04 Created by KiCad (PCBNEW 0.201510170916+6271~30~ubuntu14.04.1-product) date Tue 27 Oct 2015 04:17:41 PM CET*
%MOMM*%
G01*
G04 APERTURE LIST*
%ADD10C,0.100000*%
%ADD11R,0.819100X1.543000*%
%ADD12C,2.900000*%
%ADD13R,2.400000X2.400000*%
%ADD14C,2.400000*%
%ADD15R,1.650000X1.900000*%
%ADD16R,0.850000X0.990000*%
%ADD17R,0.990000X0.850000*%
%ADD18R,1.700000X1.900000*%
%ADD19R,3.650000X2.300000*%
%ADD20R,1.350000X2.300000*%
%ADD21R,2.432000X1.924000*%
%ADD22C,2.100000*%
%ADD23C,3.400000*%
%ADD24C,0.254000*%
G04 APERTURE END LIST*
D10*
D11*
X128778000Y-93789500D03*
X128143000Y-93789500D03*
X127508000Y-93789500D03*
X126873000Y-93789500D03*
X126238000Y-93789500D03*
X125603000Y-93789500D03*
X124968000Y-93789500D03*
X124333000Y-93789500D03*
X124333000Y-98742500D03*
X124968000Y-98742500D03*
X125603000Y-98742500D03*
X126238000Y-98742500D03*
X126873000Y-98742500D03*
X127508000Y-98742500D03*
X128143000Y-98742500D03*
X128778000Y-98742500D03*
D12*
X99110000Y-101064000D03*
X105410000Y-101064000D03*
X111710000Y-101064000D03*
X99110000Y-84864000D03*
X105410000Y-84864000D03*
X111710000Y-84864000D03*
D13*
X153670000Y-76454000D03*
D14*
X153670000Y-78994000D03*
X153670000Y-81534000D03*
X153670000Y-84074000D03*
X153670000Y-86614000D03*
X153670000Y-89154000D03*
X153670000Y-91694000D03*
X153670000Y-94234000D03*
X153670000Y-96774000D03*
X153670000Y-99314000D03*
X153670000Y-101854000D03*
X153670000Y-104394000D03*
X153670000Y-106934000D03*
X153670000Y-109474000D03*
X138430000Y-109474000D03*
X138430000Y-106934000D03*
X138430000Y-104394000D03*
X138430000Y-101854000D03*
X138430000Y-99314000D03*
X138430000Y-96774000D03*
X138430000Y-94234000D03*
X138430000Y-91694000D03*
X138430000Y-89154000D03*
X138430000Y-86614000D03*
X138430000Y-84074000D03*
X138430000Y-81534000D03*
X138430000Y-78994000D03*
X138430000Y-76454000D03*
D15*
X121920000Y-95270000D03*
X121920000Y-97770000D03*
X167386000Y-96754000D03*
X167386000Y-94254000D03*
X131445000Y-61194000D03*
X131445000Y-58694000D03*
D16*
X101092000Y-65239000D03*
X101092000Y-67349000D03*
D17*
X109005000Y-72009000D03*
X106895000Y-72009000D03*
D16*
X101092000Y-108673000D03*
X101092000Y-110783000D03*
D17*
X109005000Y-115189000D03*
X106895000Y-115189000D03*
D16*
X101092000Y-87083000D03*
X101092000Y-89193000D03*
D17*
X109005000Y-93599000D03*
X106895000Y-93599000D03*
D16*
X100838000Y-130771000D03*
X100838000Y-132881000D03*
D17*
X109005000Y-137414000D03*
X106895000Y-137414000D03*
D16*
X187452000Y-141517000D03*
X187452000Y-139407000D03*
D17*
X179285000Y-134874000D03*
X181395000Y-134874000D03*
D16*
X187452000Y-97575000D03*
X187452000Y-95465000D03*
D17*
X179285000Y-91059000D03*
X181395000Y-91059000D03*
D16*
X187452000Y-119419000D03*
X187452000Y-117309000D03*
D17*
X179285000Y-112649000D03*
X181395000Y-112649000D03*
D16*
X187706000Y-76239000D03*
X187706000Y-74129000D03*
D17*
X179539000Y-69342000D03*
X181649000Y-69342000D03*
D12*
X99110000Y-78839000D03*
X105410000Y-78839000D03*
X111710000Y-78839000D03*
X99110000Y-62639000D03*
X105410000Y-62639000D03*
X111710000Y-62639000D03*
X99110000Y-122654000D03*
X105410000Y-122654000D03*
X111710000Y-122654000D03*
X99110000Y-106454000D03*
X105410000Y-106454000D03*
X111710000Y-106454000D03*
X99110000Y-144244000D03*
X105410000Y-144244000D03*
X111710000Y-144244000D03*
X99110000Y-128044000D03*
X105410000Y-128044000D03*
X111710000Y-128044000D03*
X189180000Y-128044000D03*
X182880000Y-128044000D03*
X176580000Y-128044000D03*
X189180000Y-144244000D03*
X182880000Y-144244000D03*
X176580000Y-144244000D03*
X189180000Y-84864000D03*
X182880000Y-84864000D03*
X176580000Y-84864000D03*
X189180000Y-101064000D03*
X182880000Y-101064000D03*
X176580000Y-101064000D03*
X189180000Y-106454000D03*
X182880000Y-106454000D03*
X176580000Y-106454000D03*
X189180000Y-122654000D03*
X182880000Y-122654000D03*
X176580000Y-122654000D03*
X189180000Y-62639000D03*
X182880000Y-62639000D03*
X176580000Y-62639000D03*
X189180000Y-78839000D03*
X182880000Y-78839000D03*
X176580000Y-78839000D03*
D18*
X104775000Y-69389000D03*
X104775000Y-72089000D03*
X104775000Y-112569000D03*
X104775000Y-115269000D03*
X104775000Y-90979000D03*
X104775000Y-93679000D03*
X104775000Y-134794000D03*
X104775000Y-137494000D03*
X98425000Y-69389000D03*
X98425000Y-72089000D03*
X98425000Y-112569000D03*
X98425000Y-115269000D03*
X98425000Y-90979000D03*
X98425000Y-93679000D03*
X98425000Y-134794000D03*
X98425000Y-137494000D03*
X100965000Y-72089000D03*
X100965000Y-69389000D03*
X100965000Y-115269000D03*
X100965000Y-112569000D03*
X100965000Y-93679000D03*
X100965000Y-90979000D03*
X100965000Y-137494000D03*
X100965000Y-134794000D03*
X183515000Y-137494000D03*
X183515000Y-134794000D03*
X183515000Y-93679000D03*
X183515000Y-90979000D03*
X183515000Y-115269000D03*
X183515000Y-112569000D03*
X183642000Y-72216000D03*
X183642000Y-69516000D03*
X189865000Y-137494000D03*
X189865000Y-134794000D03*
X189865000Y-93679000D03*
X189865000Y-90979000D03*
X189865000Y-115269000D03*
X189865000Y-112569000D03*
X189992000Y-72216000D03*
X189992000Y-69516000D03*
X187325000Y-134794000D03*
X187325000Y-137494000D03*
X187325000Y-90979000D03*
X187325000Y-93679000D03*
X187325000Y-112569000D03*
X187325000Y-115269000D03*
X187706000Y-69516000D03*
X187706000Y-72216000D03*
X138430000Y-73232000D03*
X138430000Y-70532000D03*
X156845000Y-79074000D03*
X156845000Y-76374000D03*
D19*
X126365000Y-56894000D03*
D20*
X124065000Y-62994000D03*
X126365000Y-62994000D03*
X128665000Y-62994000D03*
D21*
X120015000Y-58293000D03*
X120015000Y-61595000D03*
D11*
X160274000Y-97726500D03*
X160909000Y-97726500D03*
X161544000Y-97726500D03*
X162179000Y-97726500D03*
X162814000Y-97726500D03*
X163449000Y-97726500D03*
X164084000Y-97726500D03*
X164719000Y-97726500D03*
X164719000Y-92773500D03*
X164084000Y-92773500D03*
X163449000Y-92773500D03*
X162814000Y-92773500D03*
X162179000Y-92773500D03*
X161544000Y-92773500D03*
X160909000Y-92773500D03*
X160274000Y-92773500D03*
D22*
X153550000Y-65459000D03*
X146050000Y-65459000D03*
X138550000Y-65459000D03*
X151050000Y-67959000D03*
X141050000Y-67959000D03*
X141050000Y-55459000D03*
X151050000Y-55459000D03*
D23*
X99252000Y-58104000D03*
X189210000Y-57754000D03*
X119410000Y-147554000D03*
X169210000Y-147554000D03*
D10*
G36*
X102520000Y-90686000D02*
X103220000Y-90686000D01*
X103520000Y-91686000D01*
X102220000Y-91686000D01*
X102520000Y-90686000D01*
X102520000Y-90686000D01*
G37*
G36*
X102220000Y-91702000D02*
X103520000Y-91702000D01*
X103220000Y-92702000D01*
X102520000Y-92702000D01*
X102220000Y-91702000D01*
X102220000Y-91702000D01*
G37*
G36*
X102520000Y-69604000D02*
X103220000Y-69604000D01*
X103520000Y-70604000D01*
X102220000Y-70604000D01*
X102520000Y-69604000D01*
X102520000Y-69604000D01*
G37*
G36*
X102220000Y-70620000D02*
X103520000Y-70620000D01*
X103220000Y-71620000D01*
X102520000Y-71620000D01*
X102220000Y-70620000D01*
X102220000Y-70620000D01*
G37*
G36*
X102520000Y-112276000D02*
X103220000Y-112276000D01*
X103520000Y-113276000D01*
X102220000Y-113276000D01*
X102520000Y-112276000D01*
X102520000Y-112276000D01*
G37*
G36*
X102220000Y-113292000D02*
X103520000Y-113292000D01*
X103220000Y-114292000D01*
X102520000Y-114292000D01*
X102220000Y-113292000D01*
X102220000Y-113292000D01*
G37*
G36*
X102520000Y-134628000D02*
X103220000Y-134628000D01*
X103520000Y-135628000D01*
X102220000Y-135628000D01*
X102520000Y-134628000D01*
X102520000Y-134628000D01*
G37*
G36*
X102220000Y-135644000D02*
X103520000Y-135644000D01*
X103220000Y-136644000D01*
X102520000Y-136644000D01*
X102220000Y-135644000D01*
X102220000Y-135644000D01*
G37*
G36*
X185770000Y-137152000D02*
X185070000Y-137152000D01*
X184770000Y-136152000D01*
X186070000Y-136152000D01*
X185770000Y-137152000D01*
X185770000Y-137152000D01*
G37*
G36*
X186070000Y-136136000D02*
X184770000Y-136136000D01*
X185070000Y-135136000D01*
X185770000Y-135136000D01*
X186070000Y-136136000D01*
X186070000Y-136136000D01*
G37*
G36*
X185770000Y-114927000D02*
X185070000Y-114927000D01*
X184770000Y-113927000D01*
X186070000Y-113927000D01*
X185770000Y-114927000D01*
X185770000Y-114927000D01*
G37*
G36*
X186070000Y-113911000D02*
X184770000Y-113911000D01*
X185070000Y-112911000D01*
X185770000Y-112911000D01*
X186070000Y-113911000D01*
X186070000Y-113911000D01*
G37*
G36*
X185770000Y-93337000D02*
X185070000Y-93337000D01*
X184770000Y-92337000D01*
X186070000Y-92337000D01*
X185770000Y-93337000D01*
X185770000Y-93337000D01*
G37*
G36*
X186070000Y-92321000D02*
X184770000Y-92321000D01*
X185070000Y-91321000D01*
X185770000Y-91321000D01*
X186070000Y-92321000D01*
X186070000Y-92321000D01*
G37*
G36*
X186024000Y-71874000D02*
X185324000Y-71874000D01*
X185024000Y-70874000D01*
X186324000Y-70874000D01*
X186024000Y-71874000D01*
X186024000Y-71874000D01*
G37*
G36*
X186324000Y-70858000D02*
X185024000Y-70858000D01*
X185324000Y-69858000D01*
X186024000Y-69858000D01*
X186324000Y-70858000D01*
X186324000Y-70858000D01*
G37*
G36*
X128555000Y-65349500D02*
X129255000Y-65349500D01*
X129555000Y-66349500D01*
X128255000Y-66349500D01*
X128555000Y-65349500D01*
X128555000Y-65349500D01*
G37*
G36*
X128255000Y-66365500D02*
X129555000Y-66365500D01*
X129255000Y-67365500D01*
X128555000Y-67365500D01*
X128255000Y-66365500D01*
X128255000Y-66365500D01*
G37*
G36*
X126015000Y-65349500D02*
X126715000Y-65349500D01*
X127015000Y-66349500D01*
X125715000Y-66349500D01*
X126015000Y-65349500D01*
X126015000Y-65349500D01*
G37*
G36*
X125715000Y-66365500D02*
X127015000Y-66365500D01*
X126715000Y-67365500D01*
X126015000Y-67365500D01*
X125715000Y-66365500D01*
X125715000Y-66365500D01*
G37*
D24*
G36*
X109855000Y-58547000D02*
X104521000Y-58547000D01*
X104521000Y-54991000D01*
X109855000Y-54991000D01*
X109855000Y-58547000D01*
X109855000Y-58547000D01*
G37*
X109855000Y-58547000D02*
X104521000Y-58547000D01*
X104521000Y-54991000D01*
X109855000Y-54991000D01*
X109855000Y-58547000D01*
M02*
