G04 #@! TF.FileFunction,Copper,L2,Bot,Signal*
%FSLAX46Y46*%
G04 Gerber Fmt 4.6, Leading zero omitted, Abs format (unit mm)*
G04 Created by KiCad (PCBNEW 4.0.7-e2-6376~58~ubuntu14.04.1) date Mon Apr 16 00:30:28 2018*
%MOMM*%
%LPD*%
G01*
G04 APERTURE LIST*
%ADD10C,0.100000*%
%ADD11O,3.000000X4.000000*%
%ADD12R,1.500000X1.300000*%
%ADD13R,2.032000X2.032000*%
%ADD14O,2.032000X1.727200*%
%ADD15C,2.500000*%
%ADD16R,1.900000X0.800000*%
%ADD17C,0.600000*%
%ADD18C,0.250000*%
%ADD19C,0.500000*%
%ADD20C,0.254000*%
G04 APERTURE END LIST*
D10*
D11*
X99110000Y-63020000D03*
X105410000Y-63020000D03*
X111710000Y-63020000D03*
X99110000Y-79220000D03*
X105410000Y-79220000D03*
X111710000Y-79220000D03*
X99110000Y-84610000D03*
X105410000Y-84610000D03*
X111710000Y-84610000D03*
X99110000Y-100810000D03*
X105410000Y-100810000D03*
X111710000Y-100810000D03*
D10*
G36*
X148417506Y-102448901D02*
X147710400Y-103156007D01*
X146755806Y-102201413D01*
X147462912Y-101494307D01*
X148417506Y-102448901D01*
X148417506Y-102448901D01*
G37*
G36*
X147427557Y-103438851D02*
X146720451Y-104145957D01*
X145765857Y-103191363D01*
X146472963Y-102484257D01*
X147427557Y-103438851D01*
X147427557Y-103438851D01*
G37*
G36*
X146437607Y-104428800D02*
X145730501Y-105135906D01*
X144775907Y-104181312D01*
X145483013Y-103474206D01*
X146437607Y-104428800D01*
X146437607Y-104428800D01*
G37*
G36*
X143361693Y-97393088D02*
X142654587Y-98100194D01*
X141699993Y-97145600D01*
X142407099Y-96438494D01*
X143361693Y-97393088D01*
X143361693Y-97393088D01*
G37*
G36*
X142371743Y-98383037D02*
X141664637Y-99090143D01*
X140710043Y-98135549D01*
X141417149Y-97428443D01*
X142371743Y-98383037D01*
X142371743Y-98383037D01*
G37*
G36*
X141381794Y-99372987D02*
X140674688Y-100080093D01*
X139720094Y-99125499D01*
X140427200Y-98418393D01*
X141381794Y-99372987D01*
X141381794Y-99372987D01*
G37*
G36*
X148276085Y-97994129D02*
X147003293Y-99266921D01*
X145589079Y-97852707D01*
X146861871Y-96579915D01*
X148276085Y-97994129D01*
X148276085Y-97994129D01*
G37*
G36*
X142548521Y-103721693D02*
X141275729Y-104994485D01*
X139861515Y-103580271D01*
X141134307Y-102307479D01*
X142548521Y-103721693D01*
X142548521Y-103721693D01*
G37*
D12*
X170895000Y-119634000D03*
X168195000Y-119634000D03*
D11*
X189180000Y-143990000D03*
X182880000Y-143990000D03*
X176580000Y-143990000D03*
X189180000Y-127790000D03*
X182880000Y-127790000D03*
X176580000Y-127790000D03*
X189180000Y-122400000D03*
X182880000Y-122400000D03*
X176580000Y-122400000D03*
X189180000Y-106200000D03*
X182880000Y-106200000D03*
X176580000Y-106200000D03*
X189180000Y-79220000D03*
X182880000Y-79220000D03*
X176580000Y-79220000D03*
X189180000Y-63020000D03*
X182880000Y-63020000D03*
X176580000Y-63020000D03*
X189180000Y-100810000D03*
X182880000Y-100810000D03*
X176580000Y-100810000D03*
X189180000Y-84610000D03*
X182880000Y-84610000D03*
X176580000Y-84610000D03*
D13*
X151892000Y-55372000D03*
D14*
X151892000Y-57912000D03*
X151892000Y-60452000D03*
X151892000Y-62992000D03*
X151892000Y-65532000D03*
X151892000Y-68072000D03*
X151892000Y-70612000D03*
X151892000Y-73152000D03*
X151892000Y-75692000D03*
X151892000Y-78232000D03*
X151892000Y-80772000D03*
X151892000Y-83312000D03*
X151892000Y-85852000D03*
X151892000Y-88392000D03*
X136652000Y-88392000D03*
X136652000Y-85852000D03*
X136652000Y-83312000D03*
X136652000Y-80772000D03*
X136652000Y-78232000D03*
X136652000Y-75692000D03*
X136652000Y-73152000D03*
X136652000Y-70612000D03*
X136652000Y-68072000D03*
X136652000Y-65532000D03*
X136652000Y-62992000D03*
X136652000Y-60452000D03*
X136652000Y-57912000D03*
X136652000Y-55372000D03*
D11*
X99110000Y-106200000D03*
X105410000Y-106200000D03*
X111710000Y-106200000D03*
X99110000Y-122400000D03*
X105410000Y-122400000D03*
X111710000Y-122400000D03*
X99110000Y-127790000D03*
X105410000Y-127790000D03*
X111710000Y-127790000D03*
X99110000Y-143990000D03*
X105410000Y-143990000D03*
X111710000Y-143990000D03*
D15*
X136772000Y-139773000D03*
X144272000Y-139773000D03*
X151772000Y-139773000D03*
X139272000Y-137273000D03*
X149272000Y-137273000D03*
X149272000Y-149773000D03*
X139272000Y-149773000D03*
D16*
X117473600Y-137094000D03*
X117473600Y-135194000D03*
X120473600Y-136144000D03*
X117372000Y-115758000D03*
X117372000Y-113858000D03*
X120372000Y-114808000D03*
X117372000Y-94676000D03*
X117372000Y-92776000D03*
X120372000Y-93726000D03*
X117372000Y-73086000D03*
X117372000Y-71186000D03*
X120372000Y-72136000D03*
X170918000Y-71186000D03*
X170918000Y-73086000D03*
X167918000Y-72136000D03*
X170918000Y-93030000D03*
X170918000Y-94930000D03*
X167918000Y-93980000D03*
X170918000Y-114239000D03*
X170918000Y-116139000D03*
X167918000Y-115189000D03*
X171045000Y-135702000D03*
X171045000Y-137602000D03*
X168045000Y-136652000D03*
D12*
X117369600Y-142494000D03*
X120069600Y-142494000D03*
X120222000Y-121666000D03*
X117522000Y-121666000D03*
X117522000Y-100330000D03*
X120222000Y-100330000D03*
X117268000Y-78740000D03*
X119968000Y-78740000D03*
X171149000Y-78740000D03*
X168449000Y-78740000D03*
X171022000Y-100330000D03*
X168322000Y-100330000D03*
X170895000Y-121793000D03*
X168195000Y-121793000D03*
X171022000Y-143129000D03*
X168322000Y-143129000D03*
X117369600Y-140360400D03*
X120069600Y-140360400D03*
X171022000Y-98171000D03*
X168322000Y-98171000D03*
X117522000Y-98044000D03*
X120222000Y-98044000D03*
X171149000Y-76581000D03*
X168449000Y-76581000D03*
X120222000Y-119380000D03*
X117522000Y-119380000D03*
X171022000Y-140970000D03*
X168322000Y-140970000D03*
X117268000Y-76454000D03*
X119968000Y-76454000D03*
D17*
X167640000Y-92329000D03*
X121602500Y-77025500D03*
X120396000Y-63500000D03*
X164490400Y-76758800D03*
X166674800Y-78943200D03*
X163626800Y-77520800D03*
X165862000Y-79756000D03*
X165862000Y-89306400D03*
X165862000Y-96113600D03*
X159359600Y-115773200D03*
X162306000Y-118668800D03*
X157734000Y-97383600D03*
X157734000Y-94386400D03*
X114198400Y-81889600D03*
X117246400Y-81889600D03*
X121666000Y-82397600D03*
X125526800Y-86309200D03*
X138125200Y-90424000D03*
X142646400Y-90424000D03*
X122885200Y-90932000D03*
X115671600Y-90932000D03*
X138887200Y-91236800D03*
X143306800Y-91186000D03*
X139801600Y-92049600D03*
X144272000Y-91998800D03*
X122783600Y-125120400D03*
X119481600Y-125120400D03*
X145135600Y-92964000D03*
X140716000Y-92964000D03*
X126213973Y-76436838D03*
X130302000Y-75946000D03*
X163474400Y-96113600D03*
X161290000Y-96113600D03*
X161188400Y-94132400D03*
X163626800Y-94081600D03*
X133604000Y-93776800D03*
X133604000Y-89458800D03*
X133604000Y-79857600D03*
X133604000Y-73202800D03*
X119968000Y-80692000D03*
X173101000Y-80391000D03*
X168529000Y-144907000D03*
X168529000Y-123444000D03*
X168529000Y-101854000D03*
X115062000Y-102108000D03*
X114808000Y-123444000D03*
X120091200Y-144170400D03*
X128270000Y-73914000D03*
X124714000Y-73914000D03*
X147320000Y-87579200D03*
X147320000Y-91795600D03*
X149352000Y-93776800D03*
X149352000Y-102057200D03*
X113487200Y-74726800D03*
X114858800Y-115316000D03*
X115112800Y-95199200D03*
X115570000Y-140208000D03*
X173634400Y-69037200D03*
X173228000Y-88747600D03*
X173380400Y-110439200D03*
X173482000Y-133959600D03*
D18*
X117467200Y-134306400D02*
X117473600Y-134300000D01*
X164490400Y-76758800D02*
X166674800Y-78943200D01*
X164084000Y-77978000D02*
X163626800Y-77520800D01*
X164084000Y-77978000D02*
X165862000Y-79756000D01*
X165862000Y-91744800D02*
X165862000Y-94030800D01*
X165862000Y-96113600D02*
X165862000Y-94030800D01*
X165862000Y-91744800D02*
X165862000Y-89306400D01*
X162306000Y-118668800D02*
X162255200Y-118668800D01*
X162255200Y-118668800D02*
X159359600Y-115773200D01*
X157734000Y-94386400D02*
X157734000Y-97383600D01*
X114198400Y-81889600D02*
X117246400Y-81889600D01*
X121666000Y-82397600D02*
X121666000Y-82448400D01*
X121666000Y-82448400D02*
X125526800Y-86309200D01*
X138125200Y-90424000D02*
X142646400Y-90424000D01*
X115671600Y-90932000D02*
X122885200Y-90932000D01*
X138887200Y-91236800D02*
X138938000Y-91186000D01*
X138938000Y-91186000D02*
X143306800Y-91186000D01*
X119481600Y-125120400D02*
X122783600Y-125120400D01*
X139801600Y-92049600D02*
X139852400Y-91998800D01*
X139852400Y-91998800D02*
X144272000Y-91998800D01*
X140716000Y-92964000D02*
X145135600Y-92964000D01*
X126213973Y-76436838D02*
X129811162Y-76436838D01*
X129811162Y-76436838D02*
X130302000Y-75946000D01*
X163474400Y-96113600D02*
X161290000Y-96113600D01*
X163576000Y-94132400D02*
X161188400Y-94132400D01*
X163626800Y-94081600D02*
X163576000Y-94132400D01*
D19*
X133604000Y-89458800D02*
X133604000Y-93776800D01*
X133604000Y-73202800D02*
X133604000Y-79857600D01*
D18*
X119968000Y-78740000D02*
X119968000Y-80692000D01*
X119968000Y-80692000D02*
X119888000Y-80772000D01*
X119968000Y-80692000D02*
X119888000Y-80772000D01*
X168449000Y-79930000D02*
X168910000Y-80391000D01*
X173101000Y-80391000D02*
X168910000Y-80391000D01*
X168449000Y-79930000D02*
X168449000Y-78740000D01*
X168322000Y-143129000D02*
X168322000Y-144700000D01*
X168322000Y-144700000D02*
X168529000Y-144907000D01*
X168529000Y-123444000D02*
X168195000Y-123110000D01*
X168195000Y-123110000D02*
X168195000Y-121793000D01*
X168322000Y-100330000D02*
X168322000Y-101647000D01*
X168322000Y-101647000D02*
X168529000Y-101854000D01*
X120222000Y-100330000D02*
X120222000Y-101520000D01*
X119634000Y-102108000D02*
X115062000Y-102108000D01*
X120222000Y-101520000D02*
X119634000Y-102108000D01*
X117522000Y-121666000D02*
X116078000Y-121666000D01*
X114808000Y-122936000D02*
X114808000Y-123444000D01*
X116078000Y-121666000D02*
X114808000Y-122936000D01*
X120069600Y-142494000D02*
X120091200Y-142515600D01*
X120091200Y-142515600D02*
X120091200Y-144170400D01*
X128270000Y-73914000D02*
X124714000Y-73914000D01*
X147320000Y-91795600D02*
X147320000Y-87579200D01*
X149352000Y-102057200D02*
X149352000Y-93776800D01*
X117369600Y-140360400D02*
X117369600Y-142494000D01*
X117568800Y-142294800D02*
X117369600Y-142494000D01*
X120222000Y-121666000D02*
X120222000Y-119380000D01*
X117522000Y-100330000D02*
X117522000Y-98044000D01*
X117268000Y-78740000D02*
X117268000Y-76454000D01*
X171149000Y-78740000D02*
X171149000Y-76581000D01*
X171022000Y-98171000D02*
X171022000Y-100330000D01*
X170895000Y-119634000D02*
X170895000Y-121793000D01*
X171022000Y-143129000D02*
X171022000Y-140970000D01*
X117372000Y-73086000D02*
X114264400Y-73086000D01*
X113487200Y-73863200D02*
X113487200Y-74726800D01*
X114264400Y-73086000D02*
X113487200Y-73863200D01*
X115300800Y-115758000D02*
X117372000Y-115758000D01*
X114858800Y-115316000D02*
X115300800Y-115758000D01*
X115112800Y-95199200D02*
X115062000Y-95250000D01*
X117306000Y-94742000D02*
X115570000Y-94742000D01*
X115570000Y-94742000D02*
X115062000Y-95250000D01*
X117372000Y-94676000D02*
X117306000Y-94742000D01*
X115570000Y-140208000D02*
X115620800Y-140208000D01*
X115620800Y-137668000D02*
X116194800Y-137094000D01*
X117473600Y-137094000D02*
X116194800Y-137094000D01*
X115620800Y-140208000D02*
X115620800Y-137668000D01*
X173634400Y-69037200D02*
X173609000Y-69037200D01*
X173609000Y-69037200D02*
X173583600Y-69037200D01*
X173583600Y-69037200D02*
X173609000Y-69037200D01*
X172146000Y-71186000D02*
X173035000Y-71186000D01*
X173609000Y-70612000D02*
X173609000Y-69723000D01*
X173035000Y-71186000D02*
X173609000Y-70612000D01*
X173609000Y-69723000D02*
X173609000Y-69037200D01*
X170918000Y-71186000D02*
X172146000Y-71186000D01*
X173228000Y-89306400D02*
X173228000Y-88747600D01*
X173228000Y-89712800D02*
X173228000Y-89306400D01*
X170918000Y-93030000D02*
X172781000Y-93030000D01*
X173228000Y-92583000D02*
X173228000Y-89712800D01*
X172781000Y-93030000D02*
X173228000Y-92583000D01*
X173380400Y-110439200D02*
X173355000Y-110439200D01*
X173355000Y-110439200D02*
X173380400Y-110439200D01*
X173380400Y-110439200D02*
X173355000Y-110439200D01*
X170918000Y-114239000D02*
X172527000Y-114239000D01*
X173355000Y-113411000D02*
X173355000Y-110439200D01*
X172527000Y-114239000D02*
X173355000Y-113411000D01*
X171045000Y-135702000D02*
X172400000Y-135702000D01*
X172400000Y-135702000D02*
X173482000Y-134620000D01*
X173482000Y-134620000D02*
X173482000Y-133959600D01*
X120473600Y-136144000D02*
X120069600Y-136548000D01*
X120069600Y-136548000D02*
X120069600Y-140360400D01*
X117522000Y-119380000D02*
X117522000Y-118190000D01*
X120372000Y-116356000D02*
X120372000Y-114808000D01*
X119380000Y-117348000D02*
X120372000Y-116356000D01*
X118364000Y-117348000D02*
X119380000Y-117348000D01*
X117522000Y-118190000D02*
X118364000Y-117348000D01*
X120222000Y-98044000D02*
X120372000Y-97894000D01*
X120372000Y-97894000D02*
X120372000Y-93726000D01*
X120372000Y-72136000D02*
X120396000Y-72160000D01*
X120396000Y-72160000D02*
X120396000Y-73660000D01*
X119968000Y-76454000D02*
X119888000Y-76374000D01*
X119888000Y-76374000D02*
X119888000Y-74168000D01*
X119888000Y-74168000D02*
X120396000Y-73660000D01*
X168449000Y-76581000D02*
X168449000Y-74850000D01*
X167918000Y-74319000D02*
X167918000Y-72136000D01*
X168449000Y-74850000D02*
X167918000Y-74319000D01*
X168322000Y-98171000D02*
X168322000Y-96694000D01*
X167918000Y-96290000D02*
X167918000Y-93980000D01*
X168322000Y-96694000D02*
X167918000Y-96290000D01*
X167918000Y-115189000D02*
X167918000Y-117118000D01*
X168195000Y-117395000D02*
X168195000Y-119634000D01*
X167918000Y-117118000D02*
X168195000Y-117395000D01*
X168322000Y-140970000D02*
X168322000Y-138985000D01*
X168045000Y-138708000D02*
X168045000Y-136652000D01*
X168322000Y-138985000D02*
X168045000Y-138708000D01*
X147586656Y-102325157D02*
X148334699Y-103073200D01*
X151892000Y-101854000D02*
X151892000Y-88392000D01*
X150672800Y-103073200D02*
X151892000Y-101854000D01*
X150114000Y-103073200D02*
X150672800Y-103073200D01*
X148334699Y-103073200D02*
X150114000Y-103073200D01*
X153720800Y-86079202D02*
X153974800Y-86333202D01*
X153924000Y-89611200D02*
X153924000Y-89662000D01*
X153974800Y-89611200D02*
X153924000Y-89611200D01*
X153974800Y-86333202D02*
X153974800Y-89611200D01*
X145606757Y-104305056D02*
X146305301Y-105003600D01*
X152951602Y-90634398D02*
X153924000Y-89662000D01*
X152951602Y-102318398D02*
X152951602Y-90634398D01*
X150266400Y-105003600D02*
X152951602Y-102318398D01*
X146305301Y-105003600D02*
X150266400Y-105003600D01*
X153111200Y-83312000D02*
X151892000Y-83312000D01*
X153720800Y-83921600D02*
X153111200Y-83312000D01*
X153720800Y-86079202D02*
X153720800Y-83921600D01*
X153466800Y-89408000D02*
X153466800Y-86461600D01*
X153466800Y-86461600D02*
X153466800Y-86512400D01*
X153466800Y-86512400D02*
X153466800Y-86461600D01*
X152501600Y-90881200D02*
X152501600Y-90373200D01*
X152501600Y-90373200D02*
X152552400Y-90322400D01*
X146596707Y-103315107D02*
X147472400Y-104190800D01*
X153466800Y-86461600D02*
X152857200Y-85852000D01*
X152552400Y-90322400D02*
X153466800Y-89408000D01*
X152501600Y-102006400D02*
X152501600Y-90881200D01*
X150317200Y-104190800D02*
X152501600Y-102006400D01*
X147472400Y-104190800D02*
X150317200Y-104190800D01*
X152857200Y-85852000D02*
X151892000Y-85852000D01*
X134696200Y-90144600D02*
X134696200Y-84150200D01*
X135534400Y-83312000D02*
X136652000Y-83312000D01*
X134696200Y-84150200D02*
X135534400Y-83312000D01*
X139914551Y-95797449D02*
X139914551Y-98612850D01*
X139914551Y-98612850D02*
X140550944Y-99249243D01*
X139914551Y-95362951D02*
X134696200Y-90144600D01*
X139914551Y-95797449D02*
X139914551Y-95362951D01*
X142530843Y-97269344D02*
X135178800Y-89917301D01*
X135178800Y-86461600D02*
X135788400Y-85852000D01*
X135178800Y-89917301D02*
X135178800Y-86461600D01*
X135788400Y-85852000D02*
X136652000Y-85852000D01*
D20*
G36*
X190836634Y-53826957D02*
X192215629Y-54748371D01*
X193137043Y-56127366D01*
X193475000Y-57826390D01*
X193475000Y-147481610D01*
X193137043Y-149180634D01*
X192215629Y-150559629D01*
X190836634Y-151481043D01*
X189137610Y-151819000D01*
X99482390Y-151819000D01*
X97783366Y-151481043D01*
X96404371Y-150559629D01*
X96128198Y-150146305D01*
X137386674Y-150146305D01*
X137673043Y-150839372D01*
X138202839Y-151370093D01*
X138895405Y-151657672D01*
X139645305Y-151658326D01*
X140338372Y-151371957D01*
X140869093Y-150842161D01*
X141156672Y-150149595D01*
X141156674Y-150146305D01*
X147386674Y-150146305D01*
X147673043Y-150839372D01*
X148202839Y-151370093D01*
X148895405Y-151657672D01*
X149645305Y-151658326D01*
X150338372Y-151371957D01*
X150869093Y-150842161D01*
X151156672Y-150149595D01*
X151157326Y-149399695D01*
X150870957Y-148706628D01*
X150341161Y-148175907D01*
X149648595Y-147888328D01*
X148898695Y-147887674D01*
X148205628Y-148174043D01*
X147674907Y-148703839D01*
X147387328Y-149396405D01*
X147386674Y-150146305D01*
X141156674Y-150146305D01*
X141157326Y-149399695D01*
X140870957Y-148706628D01*
X140341161Y-148175907D01*
X139648595Y-147888328D01*
X138898695Y-147887674D01*
X138205628Y-148174043D01*
X137674907Y-148703839D01*
X137387328Y-149396405D01*
X137386674Y-150146305D01*
X96128198Y-150146305D01*
X95482957Y-149180634D01*
X95243503Y-147976815D01*
X117274630Y-147976815D01*
X117598980Y-148761800D01*
X118199041Y-149362909D01*
X118983459Y-149688628D01*
X119832815Y-149689370D01*
X120617800Y-149365020D01*
X121218909Y-148764959D01*
X121544628Y-147980541D01*
X121545370Y-147131185D01*
X121221020Y-146346200D01*
X120620959Y-145745091D01*
X119836541Y-145419372D01*
X118987185Y-145418630D01*
X118202200Y-145742980D01*
X117601091Y-146343041D01*
X117275372Y-147127459D01*
X117274630Y-147976815D01*
X95243503Y-147976815D01*
X95145000Y-147481610D01*
X95145000Y-143438377D01*
X96975000Y-143438377D01*
X96975000Y-144541623D01*
X97137517Y-145358652D01*
X97600327Y-146051296D01*
X98292971Y-146514106D01*
X99110000Y-146676623D01*
X99927029Y-146514106D01*
X100619673Y-146051296D01*
X101082483Y-145358652D01*
X101245000Y-144541623D01*
X101245000Y-143438377D01*
X103275000Y-143438377D01*
X103275000Y-144541623D01*
X103437517Y-145358652D01*
X103900327Y-146051296D01*
X104592971Y-146514106D01*
X105410000Y-146676623D01*
X106227029Y-146514106D01*
X106919673Y-146051296D01*
X107382483Y-145358652D01*
X107545000Y-144541623D01*
X107545000Y-143438377D01*
X109575000Y-143438377D01*
X109575000Y-144541623D01*
X109737517Y-145358652D01*
X110200327Y-146051296D01*
X110892971Y-146514106D01*
X111710000Y-146676623D01*
X112527029Y-146514106D01*
X113219673Y-146051296D01*
X113682483Y-145358652D01*
X113845000Y-144541623D01*
X113845000Y-143438377D01*
X113682483Y-142621348D01*
X113219673Y-141928704D01*
X112527029Y-141465894D01*
X111710000Y-141303377D01*
X110892971Y-141465894D01*
X110200327Y-141928704D01*
X109737517Y-142621348D01*
X109575000Y-143438377D01*
X107545000Y-143438377D01*
X107382483Y-142621348D01*
X106919673Y-141928704D01*
X106227029Y-141465894D01*
X105410000Y-141303377D01*
X104592971Y-141465894D01*
X103900327Y-141928704D01*
X103437517Y-142621348D01*
X103275000Y-143438377D01*
X101245000Y-143438377D01*
X101082483Y-142621348D01*
X100619673Y-141928704D01*
X99927029Y-141465894D01*
X99110000Y-141303377D01*
X98292971Y-141465894D01*
X97600327Y-141928704D01*
X97137517Y-142621348D01*
X96975000Y-143438377D01*
X95145000Y-143438377D01*
X95145000Y-140393167D01*
X114634838Y-140393167D01*
X114776883Y-140736943D01*
X115039673Y-141000192D01*
X115383201Y-141142838D01*
X115755167Y-141143162D01*
X115979685Y-141050393D01*
X116016438Y-141245717D01*
X116134494Y-141429181D01*
X116023169Y-141592110D01*
X115972160Y-141844000D01*
X115972160Y-143144000D01*
X116016438Y-143379317D01*
X116155510Y-143595441D01*
X116367710Y-143740431D01*
X116619600Y-143791440D01*
X118119600Y-143791440D01*
X118354917Y-143747162D01*
X118571041Y-143608090D01*
X118716031Y-143395890D01*
X118718681Y-143382803D01*
X118855510Y-143595441D01*
X119067710Y-143740431D01*
X119242627Y-143775853D01*
X119156362Y-143983601D01*
X119156038Y-144355567D01*
X119298083Y-144699343D01*
X119560873Y-144962592D01*
X119904401Y-145105238D01*
X120276367Y-145105562D01*
X120620143Y-144963517D01*
X120883392Y-144700727D01*
X121026038Y-144357199D01*
X121026362Y-143985233D01*
X120937149Y-143769322D01*
X121054917Y-143747162D01*
X121271041Y-143608090D01*
X121416031Y-143395890D01*
X121467040Y-143144000D01*
X121467040Y-141844000D01*
X121422762Y-141608683D01*
X121304706Y-141425219D01*
X121416031Y-141262290D01*
X121467040Y-141010400D01*
X121467040Y-140146305D01*
X134886674Y-140146305D01*
X135173043Y-140839372D01*
X135702839Y-141370093D01*
X136395405Y-141657672D01*
X137145305Y-141658326D01*
X137838372Y-141371957D01*
X138104472Y-141106320D01*
X143118285Y-141106320D01*
X143247533Y-141399123D01*
X143947806Y-141667388D01*
X144697435Y-141647250D01*
X145296467Y-141399123D01*
X145425715Y-141106320D01*
X144272000Y-139952605D01*
X143118285Y-141106320D01*
X138104472Y-141106320D01*
X138369093Y-140842161D01*
X138656672Y-140149595D01*
X138657283Y-139448806D01*
X142377612Y-139448806D01*
X142397750Y-140198435D01*
X142645877Y-140797467D01*
X142938680Y-140926715D01*
X144092395Y-139773000D01*
X144451605Y-139773000D01*
X145605320Y-140926715D01*
X145898123Y-140797467D01*
X146166388Y-140097194D01*
X146146250Y-139347565D01*
X145898123Y-138748533D01*
X145605320Y-138619285D01*
X144451605Y-139773000D01*
X144092395Y-139773000D01*
X142938680Y-138619285D01*
X142645877Y-138748533D01*
X142377612Y-139448806D01*
X138657283Y-139448806D01*
X138657326Y-139399695D01*
X138487306Y-138988214D01*
X138895405Y-139157672D01*
X139645305Y-139158326D01*
X140338372Y-138871957D01*
X140771403Y-138439680D01*
X143118285Y-138439680D01*
X144272000Y-139593395D01*
X145425715Y-138439680D01*
X145296467Y-138146877D01*
X144596194Y-137878612D01*
X143846565Y-137898750D01*
X143247533Y-138146877D01*
X143118285Y-138439680D01*
X140771403Y-138439680D01*
X140869093Y-138342161D01*
X141156672Y-137649595D01*
X141156674Y-137646305D01*
X147386674Y-137646305D01*
X147673043Y-138339372D01*
X148202839Y-138870093D01*
X148895405Y-139157672D01*
X149645305Y-139158326D01*
X150056786Y-138988306D01*
X149887328Y-139396405D01*
X149886674Y-140146305D01*
X150173043Y-140839372D01*
X150702839Y-141370093D01*
X151395405Y-141657672D01*
X152145305Y-141658326D01*
X152838372Y-141371957D01*
X153369093Y-140842161D01*
X153656672Y-140149595D01*
X153657326Y-139399695D01*
X153370957Y-138706628D01*
X152841161Y-138175907D01*
X152148595Y-137888328D01*
X151398695Y-137887674D01*
X150987214Y-138057694D01*
X151156672Y-137649595D01*
X151157326Y-136899695D01*
X150889705Y-136252000D01*
X166447560Y-136252000D01*
X166447560Y-137052000D01*
X166491838Y-137287317D01*
X166630910Y-137503441D01*
X166843110Y-137648431D01*
X167095000Y-137699440D01*
X167285000Y-137699440D01*
X167285000Y-138708000D01*
X167342852Y-138998839D01*
X167507599Y-139245401D01*
X167562000Y-139299802D01*
X167562000Y-139674442D01*
X167336683Y-139716838D01*
X167120559Y-139855910D01*
X166975569Y-140068110D01*
X166924560Y-140320000D01*
X166924560Y-141620000D01*
X166968838Y-141855317D01*
X167095311Y-142051862D01*
X166975569Y-142227110D01*
X166924560Y-142479000D01*
X166924560Y-143779000D01*
X166968838Y-144014317D01*
X167107910Y-144230441D01*
X167320110Y-144375431D01*
X167562000Y-144424415D01*
X167562000Y-144700000D01*
X167594039Y-144861071D01*
X167593838Y-145092167D01*
X167735883Y-145435943D01*
X167998673Y-145699192D01*
X168053289Y-145721871D01*
X168002200Y-145742980D01*
X167401091Y-146343041D01*
X167075372Y-147127459D01*
X167074630Y-147976815D01*
X167398980Y-148761800D01*
X167999041Y-149362909D01*
X168783459Y-149688628D01*
X169632815Y-149689370D01*
X170417800Y-149365020D01*
X171018909Y-148764959D01*
X171344628Y-147980541D01*
X171345370Y-147131185D01*
X171021020Y-146346200D01*
X170420959Y-145745091D01*
X169636541Y-145419372D01*
X169328759Y-145419103D01*
X169463838Y-145093799D01*
X169464162Y-144721833D01*
X169322117Y-144378057D01*
X169318824Y-144374758D01*
X169523441Y-144243090D01*
X169668431Y-144030890D01*
X169671081Y-144017803D01*
X169807910Y-144230441D01*
X170020110Y-144375431D01*
X170272000Y-144426440D01*
X171772000Y-144426440D01*
X172007317Y-144382162D01*
X172223441Y-144243090D01*
X172368431Y-144030890D01*
X172419440Y-143779000D01*
X172419440Y-143438377D01*
X174445000Y-143438377D01*
X174445000Y-144541623D01*
X174607517Y-145358652D01*
X175070327Y-146051296D01*
X175762971Y-146514106D01*
X176580000Y-146676623D01*
X177397029Y-146514106D01*
X178089673Y-146051296D01*
X178552483Y-145358652D01*
X178715000Y-144541623D01*
X178715000Y-143438377D01*
X180745000Y-143438377D01*
X180745000Y-144541623D01*
X180907517Y-145358652D01*
X181370327Y-146051296D01*
X182062971Y-146514106D01*
X182880000Y-146676623D01*
X183697029Y-146514106D01*
X184389673Y-146051296D01*
X184852483Y-145358652D01*
X185015000Y-144541623D01*
X185015000Y-144117000D01*
X187045000Y-144117000D01*
X187045000Y-144617000D01*
X187256118Y-145424362D01*
X187760130Y-146089476D01*
X188480304Y-146511084D01*
X188721167Y-146575113D01*
X189053000Y-146462165D01*
X189053000Y-144117000D01*
X189307000Y-144117000D01*
X189307000Y-146462165D01*
X189638833Y-146575113D01*
X189879696Y-146511084D01*
X190599870Y-146089476D01*
X191103882Y-145424362D01*
X191315000Y-144617000D01*
X191315000Y-144117000D01*
X189307000Y-144117000D01*
X189053000Y-144117000D01*
X187045000Y-144117000D01*
X185015000Y-144117000D01*
X185015000Y-143438377D01*
X185000007Y-143363000D01*
X187045000Y-143363000D01*
X187045000Y-143863000D01*
X189053000Y-143863000D01*
X189053000Y-141517835D01*
X189307000Y-141517835D01*
X189307000Y-143863000D01*
X191315000Y-143863000D01*
X191315000Y-143363000D01*
X191103882Y-142555638D01*
X190599870Y-141890524D01*
X189879696Y-141468916D01*
X189638833Y-141404887D01*
X189307000Y-141517835D01*
X189053000Y-141517835D01*
X188721167Y-141404887D01*
X188480304Y-141468916D01*
X187760130Y-141890524D01*
X187256118Y-142555638D01*
X187045000Y-143363000D01*
X185000007Y-143363000D01*
X184852483Y-142621348D01*
X184389673Y-141928704D01*
X183697029Y-141465894D01*
X182880000Y-141303377D01*
X182062971Y-141465894D01*
X181370327Y-141928704D01*
X180907517Y-142621348D01*
X180745000Y-143438377D01*
X178715000Y-143438377D01*
X178552483Y-142621348D01*
X178089673Y-141928704D01*
X177397029Y-141465894D01*
X176580000Y-141303377D01*
X175762971Y-141465894D01*
X175070327Y-141928704D01*
X174607517Y-142621348D01*
X174445000Y-143438377D01*
X172419440Y-143438377D01*
X172419440Y-142479000D01*
X172375162Y-142243683D01*
X172248689Y-142047138D01*
X172368431Y-141871890D01*
X172419440Y-141620000D01*
X172419440Y-140320000D01*
X172375162Y-140084683D01*
X172236090Y-139868559D01*
X172023890Y-139723569D01*
X171772000Y-139672560D01*
X170272000Y-139672560D01*
X170036683Y-139716838D01*
X169820559Y-139855910D01*
X169675569Y-140068110D01*
X169672919Y-140081197D01*
X169536090Y-139868559D01*
X169323890Y-139723569D01*
X169082000Y-139674585D01*
X169082000Y-138985000D01*
X169024148Y-138694161D01*
X168859401Y-138447599D01*
X168805000Y-138393198D01*
X168805000Y-137887750D01*
X169460000Y-137887750D01*
X169460000Y-138128310D01*
X169556673Y-138361699D01*
X169735302Y-138540327D01*
X169968691Y-138637000D01*
X170759250Y-138637000D01*
X170918000Y-138478250D01*
X170918000Y-137729000D01*
X171172000Y-137729000D01*
X171172000Y-138478250D01*
X171330750Y-138637000D01*
X172121309Y-138637000D01*
X172354698Y-138540327D01*
X172533327Y-138361699D01*
X172630000Y-138128310D01*
X172630000Y-137887750D01*
X172471250Y-137729000D01*
X171172000Y-137729000D01*
X170918000Y-137729000D01*
X169618750Y-137729000D01*
X169460000Y-137887750D01*
X168805000Y-137887750D01*
X168805000Y-137699440D01*
X168995000Y-137699440D01*
X169230317Y-137655162D01*
X169446441Y-137516090D01*
X169533064Y-137389314D01*
X169618750Y-137475000D01*
X170918000Y-137475000D01*
X170918000Y-137455000D01*
X171172000Y-137455000D01*
X171172000Y-137475000D01*
X172471250Y-137475000D01*
X172630000Y-137316250D01*
X172630000Y-137075690D01*
X172533327Y-136842301D01*
X172354698Y-136663673D01*
X172318253Y-136648577D01*
X172446441Y-136566090D01*
X172536054Y-136434937D01*
X172690839Y-136404148D01*
X172937401Y-136239401D01*
X174019401Y-135157401D01*
X174184148Y-134910839D01*
X174242000Y-134620000D01*
X174242000Y-134522063D01*
X174274192Y-134489927D01*
X174416838Y-134146399D01*
X174417162Y-133774433D01*
X174275117Y-133430657D01*
X174012327Y-133167408D01*
X173668799Y-133024762D01*
X173296833Y-133024438D01*
X172953057Y-133166483D01*
X172689808Y-133429273D01*
X172547162Y-133772801D01*
X172546838Y-134144767D01*
X172644959Y-134382239D01*
X172291291Y-134735907D01*
X172246890Y-134705569D01*
X171995000Y-134654560D01*
X170095000Y-134654560D01*
X169859683Y-134698838D01*
X169643559Y-134837910D01*
X169498569Y-135050110D01*
X169447560Y-135302000D01*
X169447560Y-135792681D01*
X169246890Y-135655569D01*
X168995000Y-135604560D01*
X167095000Y-135604560D01*
X166859683Y-135648838D01*
X166643559Y-135787910D01*
X166498569Y-136000110D01*
X166447560Y-136252000D01*
X150889705Y-136252000D01*
X150870957Y-136206628D01*
X150341161Y-135675907D01*
X149648595Y-135388328D01*
X148898695Y-135387674D01*
X148205628Y-135674043D01*
X147674907Y-136203839D01*
X147387328Y-136896405D01*
X147386674Y-137646305D01*
X141156674Y-137646305D01*
X141157326Y-136899695D01*
X140870957Y-136206628D01*
X140341161Y-135675907D01*
X139648595Y-135388328D01*
X138898695Y-135387674D01*
X138205628Y-135674043D01*
X137674907Y-136203839D01*
X137387328Y-136896405D01*
X137386674Y-137646305D01*
X137556694Y-138057786D01*
X137148595Y-137888328D01*
X136398695Y-137887674D01*
X135705628Y-138174043D01*
X135174907Y-138703839D01*
X134887328Y-139396405D01*
X134886674Y-140146305D01*
X121467040Y-140146305D01*
X121467040Y-139710400D01*
X121422762Y-139475083D01*
X121283690Y-139258959D01*
X121071490Y-139113969D01*
X120829600Y-139064985D01*
X120829600Y-137191440D01*
X121423600Y-137191440D01*
X121658917Y-137147162D01*
X121875041Y-137008090D01*
X122020031Y-136795890D01*
X122071040Y-136544000D01*
X122071040Y-135744000D01*
X122026762Y-135508683D01*
X121887690Y-135292559D01*
X121675490Y-135147569D01*
X121423600Y-135096560D01*
X119523600Y-135096560D01*
X119288283Y-135140838D01*
X119072159Y-135279910D01*
X118985536Y-135406686D01*
X118899850Y-135321000D01*
X117600600Y-135321000D01*
X117600600Y-135341000D01*
X117346600Y-135341000D01*
X117346600Y-135321000D01*
X116047350Y-135321000D01*
X115888600Y-135479750D01*
X115888600Y-135720310D01*
X115985273Y-135953699D01*
X116163902Y-136132327D01*
X116200347Y-136147423D01*
X116072159Y-136229910D01*
X115970560Y-136378604D01*
X115903961Y-136391852D01*
X115657399Y-136556599D01*
X115083399Y-137130599D01*
X114918652Y-137377161D01*
X114860800Y-137668000D01*
X114860800Y-139594826D01*
X114777808Y-139677673D01*
X114635162Y-140021201D01*
X114634838Y-140393167D01*
X95145000Y-140393167D01*
X95145000Y-134667690D01*
X115888600Y-134667690D01*
X115888600Y-134908250D01*
X116047350Y-135067000D01*
X117346600Y-135067000D01*
X117346600Y-135047000D01*
X117369670Y-135047000D01*
X117467200Y-135066400D01*
X117564730Y-135047000D01*
X117600600Y-135047000D01*
X117600600Y-135067000D01*
X118899850Y-135067000D01*
X119058600Y-134908250D01*
X119058600Y-134667690D01*
X118961927Y-134434301D01*
X118783298Y-134255673D01*
X118549909Y-134159000D01*
X118205553Y-134159000D01*
X118175748Y-134009161D01*
X118011001Y-133762599D01*
X117764439Y-133597852D01*
X117473600Y-133540000D01*
X117182761Y-133597852D01*
X116936199Y-133762599D01*
X116929799Y-133768999D01*
X116765052Y-134015561D01*
X116736520Y-134159000D01*
X116397291Y-134159000D01*
X116163902Y-134255673D01*
X115985273Y-134434301D01*
X115888600Y-134667690D01*
X95145000Y-134667690D01*
X95145000Y-127917000D01*
X96975000Y-127917000D01*
X96975000Y-128417000D01*
X97186118Y-129224362D01*
X97690130Y-129889476D01*
X98410304Y-130311084D01*
X98651167Y-130375113D01*
X98983000Y-130262165D01*
X98983000Y-127917000D01*
X99237000Y-127917000D01*
X99237000Y-130262165D01*
X99568833Y-130375113D01*
X99809696Y-130311084D01*
X100529870Y-129889476D01*
X101033882Y-129224362D01*
X101245000Y-128417000D01*
X101245000Y-127917000D01*
X99237000Y-127917000D01*
X98983000Y-127917000D01*
X96975000Y-127917000D01*
X95145000Y-127917000D01*
X95145000Y-127163000D01*
X96975000Y-127163000D01*
X96975000Y-127663000D01*
X98983000Y-127663000D01*
X98983000Y-125317835D01*
X99237000Y-125317835D01*
X99237000Y-127663000D01*
X101245000Y-127663000D01*
X101245000Y-127238377D01*
X103275000Y-127238377D01*
X103275000Y-128341623D01*
X103437517Y-129158652D01*
X103900327Y-129851296D01*
X104592971Y-130314106D01*
X105410000Y-130476623D01*
X106227029Y-130314106D01*
X106919673Y-129851296D01*
X107382483Y-129158652D01*
X107545000Y-128341623D01*
X107545000Y-127238377D01*
X109575000Y-127238377D01*
X109575000Y-128341623D01*
X109737517Y-129158652D01*
X110200327Y-129851296D01*
X110892971Y-130314106D01*
X111710000Y-130476623D01*
X112527029Y-130314106D01*
X113219673Y-129851296D01*
X113682483Y-129158652D01*
X113845000Y-128341623D01*
X113845000Y-127238377D01*
X174445000Y-127238377D01*
X174445000Y-128341623D01*
X174607517Y-129158652D01*
X175070327Y-129851296D01*
X175762971Y-130314106D01*
X176580000Y-130476623D01*
X177397029Y-130314106D01*
X178089673Y-129851296D01*
X178552483Y-129158652D01*
X178715000Y-128341623D01*
X178715000Y-127238377D01*
X180745000Y-127238377D01*
X180745000Y-128341623D01*
X180907517Y-129158652D01*
X181370327Y-129851296D01*
X182062971Y-130314106D01*
X182880000Y-130476623D01*
X183697029Y-130314106D01*
X184389673Y-129851296D01*
X184852483Y-129158652D01*
X185015000Y-128341623D01*
X185015000Y-127238377D01*
X187045000Y-127238377D01*
X187045000Y-128341623D01*
X187207517Y-129158652D01*
X187670327Y-129851296D01*
X188362971Y-130314106D01*
X189180000Y-130476623D01*
X189997029Y-130314106D01*
X190689673Y-129851296D01*
X191152483Y-129158652D01*
X191315000Y-128341623D01*
X191315000Y-127238377D01*
X191152483Y-126421348D01*
X190689673Y-125728704D01*
X189997029Y-125265894D01*
X189180000Y-125103377D01*
X188362971Y-125265894D01*
X187670327Y-125728704D01*
X187207517Y-126421348D01*
X187045000Y-127238377D01*
X185015000Y-127238377D01*
X184852483Y-126421348D01*
X184389673Y-125728704D01*
X183697029Y-125265894D01*
X182880000Y-125103377D01*
X182062971Y-125265894D01*
X181370327Y-125728704D01*
X180907517Y-126421348D01*
X180745000Y-127238377D01*
X178715000Y-127238377D01*
X178552483Y-126421348D01*
X178089673Y-125728704D01*
X177397029Y-125265894D01*
X176580000Y-125103377D01*
X175762971Y-125265894D01*
X175070327Y-125728704D01*
X174607517Y-126421348D01*
X174445000Y-127238377D01*
X113845000Y-127238377D01*
X113682483Y-126421348D01*
X113219673Y-125728704D01*
X112586404Y-125305567D01*
X118546438Y-125305567D01*
X118688483Y-125649343D01*
X118951273Y-125912592D01*
X119294801Y-126055238D01*
X119666767Y-126055562D01*
X120010543Y-125913517D01*
X120043718Y-125880400D01*
X122221137Y-125880400D01*
X122253273Y-125912592D01*
X122596801Y-126055238D01*
X122968767Y-126055562D01*
X123312543Y-125913517D01*
X123575792Y-125650727D01*
X123718438Y-125307199D01*
X123718762Y-124935233D01*
X123576717Y-124591457D01*
X123313927Y-124328208D01*
X122970399Y-124185562D01*
X122598433Y-124185238D01*
X122254657Y-124327283D01*
X122221482Y-124360400D01*
X120044063Y-124360400D01*
X120011927Y-124328208D01*
X119668399Y-124185562D01*
X119296433Y-124185238D01*
X118952657Y-124327283D01*
X118689408Y-124590073D01*
X118546762Y-124933601D01*
X118546438Y-125305567D01*
X112586404Y-125305567D01*
X112527029Y-125265894D01*
X111710000Y-125103377D01*
X110892971Y-125265894D01*
X110200327Y-125728704D01*
X109737517Y-126421348D01*
X109575000Y-127238377D01*
X107545000Y-127238377D01*
X107382483Y-126421348D01*
X106919673Y-125728704D01*
X106227029Y-125265894D01*
X105410000Y-125103377D01*
X104592971Y-125265894D01*
X103900327Y-125728704D01*
X103437517Y-126421348D01*
X103275000Y-127238377D01*
X101245000Y-127238377D01*
X101245000Y-127163000D01*
X101033882Y-126355638D01*
X100529870Y-125690524D01*
X99809696Y-125268916D01*
X99568833Y-125204887D01*
X99237000Y-125317835D01*
X98983000Y-125317835D01*
X98651167Y-125204887D01*
X98410304Y-125268916D01*
X97690130Y-125690524D01*
X97186118Y-126355638D01*
X96975000Y-127163000D01*
X95145000Y-127163000D01*
X95145000Y-121848377D01*
X96975000Y-121848377D01*
X96975000Y-122951623D01*
X97137517Y-123768652D01*
X97600327Y-124461296D01*
X98292971Y-124924106D01*
X99110000Y-125086623D01*
X99927029Y-124924106D01*
X100619673Y-124461296D01*
X101082483Y-123768652D01*
X101245000Y-122951623D01*
X101245000Y-121848377D01*
X103275000Y-121848377D01*
X103275000Y-122951623D01*
X103437517Y-123768652D01*
X103900327Y-124461296D01*
X104592971Y-124924106D01*
X105410000Y-125086623D01*
X106227029Y-124924106D01*
X106919673Y-124461296D01*
X107382483Y-123768652D01*
X107545000Y-122951623D01*
X107545000Y-121848377D01*
X109575000Y-121848377D01*
X109575000Y-122951623D01*
X109737517Y-123768652D01*
X110200327Y-124461296D01*
X110892971Y-124924106D01*
X111710000Y-125086623D01*
X112527029Y-124924106D01*
X113219673Y-124461296D01*
X113682483Y-123768652D01*
X113710228Y-123629167D01*
X113872838Y-123629167D01*
X114014883Y-123972943D01*
X114277673Y-124236192D01*
X114621201Y-124378838D01*
X114993167Y-124379162D01*
X115336943Y-124237117D01*
X115600192Y-123974327D01*
X115742838Y-123630799D01*
X115743162Y-123258833D01*
X115689600Y-123129202D01*
X116207462Y-122611340D01*
X116307910Y-122767441D01*
X116520110Y-122912431D01*
X116772000Y-122963440D01*
X118272000Y-122963440D01*
X118507317Y-122919162D01*
X118723441Y-122780090D01*
X118868431Y-122567890D01*
X118871081Y-122554803D01*
X119007910Y-122767441D01*
X119220110Y-122912431D01*
X119472000Y-122963440D01*
X120972000Y-122963440D01*
X121207317Y-122919162D01*
X121423441Y-122780090D01*
X121568431Y-122567890D01*
X121619440Y-122316000D01*
X121619440Y-121016000D01*
X121575162Y-120780683D01*
X121436090Y-120564559D01*
X121376841Y-120524076D01*
X121423441Y-120494090D01*
X121568431Y-120281890D01*
X121619440Y-120030000D01*
X121619440Y-118730000D01*
X121575162Y-118494683D01*
X121436090Y-118278559D01*
X121223890Y-118133569D01*
X120972000Y-118082560D01*
X119507894Y-118082560D01*
X119670839Y-118050148D01*
X119917401Y-117885401D01*
X120909401Y-116893401D01*
X121074148Y-116646839D01*
X121132000Y-116356000D01*
X121132000Y-115958367D01*
X158424438Y-115958367D01*
X158566483Y-116302143D01*
X158829273Y-116565392D01*
X159172801Y-116708038D01*
X159219677Y-116708079D01*
X161374551Y-118862953D01*
X161512883Y-119197743D01*
X161775673Y-119460992D01*
X162119201Y-119603638D01*
X162491167Y-119603962D01*
X162834943Y-119461917D01*
X163098192Y-119199127D01*
X163240838Y-118855599D01*
X163241162Y-118483633D01*
X163099117Y-118139857D01*
X162836327Y-117876608D01*
X162492799Y-117733962D01*
X162395079Y-117733877D01*
X160294722Y-115633520D01*
X160294762Y-115588033D01*
X160152717Y-115244257D01*
X159889927Y-114981008D01*
X159546399Y-114838362D01*
X159174433Y-114838038D01*
X158830657Y-114980083D01*
X158567408Y-115242873D01*
X158424762Y-115586401D01*
X158424438Y-115958367D01*
X121132000Y-115958367D01*
X121132000Y-115855440D01*
X121322000Y-115855440D01*
X121557317Y-115811162D01*
X121773441Y-115672090D01*
X121918431Y-115459890D01*
X121969440Y-115208000D01*
X121969440Y-114789000D01*
X166320560Y-114789000D01*
X166320560Y-115589000D01*
X166364838Y-115824317D01*
X166503910Y-116040441D01*
X166716110Y-116185431D01*
X166968000Y-116236440D01*
X167158000Y-116236440D01*
X167158000Y-117118000D01*
X167215852Y-117408839D01*
X167380599Y-117655401D01*
X167435000Y-117709802D01*
X167435000Y-118338442D01*
X167209683Y-118380838D01*
X166993559Y-118519910D01*
X166848569Y-118732110D01*
X166797560Y-118984000D01*
X166797560Y-120284000D01*
X166841838Y-120519317D01*
X166968311Y-120715862D01*
X166848569Y-120891110D01*
X166797560Y-121143000D01*
X166797560Y-122443000D01*
X166841838Y-122678317D01*
X166980910Y-122894441D01*
X167193110Y-123039431D01*
X167435000Y-123088415D01*
X167435000Y-123110000D01*
X167492852Y-123400839D01*
X167593905Y-123552076D01*
X167593838Y-123629167D01*
X167735883Y-123972943D01*
X167998673Y-124236192D01*
X168342201Y-124378838D01*
X168714167Y-124379162D01*
X169057943Y-124237117D01*
X169321192Y-123974327D01*
X169463838Y-123630799D01*
X169464162Y-123258833D01*
X169335127Y-122946544D01*
X169396441Y-122907090D01*
X169541431Y-122694890D01*
X169544081Y-122681803D01*
X169680910Y-122894441D01*
X169893110Y-123039431D01*
X170145000Y-123090440D01*
X171645000Y-123090440D01*
X171880317Y-123046162D01*
X172096441Y-122907090D01*
X172241431Y-122694890D01*
X172292440Y-122443000D01*
X172292440Y-121848377D01*
X174445000Y-121848377D01*
X174445000Y-122951623D01*
X174607517Y-123768652D01*
X175070327Y-124461296D01*
X175762971Y-124924106D01*
X176580000Y-125086623D01*
X177397029Y-124924106D01*
X178089673Y-124461296D01*
X178552483Y-123768652D01*
X178715000Y-122951623D01*
X178715000Y-121848377D01*
X180745000Y-121848377D01*
X180745000Y-122951623D01*
X180907517Y-123768652D01*
X181370327Y-124461296D01*
X182062971Y-124924106D01*
X182880000Y-125086623D01*
X183697029Y-124924106D01*
X184389673Y-124461296D01*
X184852483Y-123768652D01*
X185015000Y-122951623D01*
X185015000Y-122527000D01*
X187045000Y-122527000D01*
X187045000Y-123027000D01*
X187256118Y-123834362D01*
X187760130Y-124499476D01*
X188480304Y-124921084D01*
X188721167Y-124985113D01*
X189053000Y-124872165D01*
X189053000Y-122527000D01*
X189307000Y-122527000D01*
X189307000Y-124872165D01*
X189638833Y-124985113D01*
X189879696Y-124921084D01*
X190599870Y-124499476D01*
X191103882Y-123834362D01*
X191315000Y-123027000D01*
X191315000Y-122527000D01*
X189307000Y-122527000D01*
X189053000Y-122527000D01*
X187045000Y-122527000D01*
X185015000Y-122527000D01*
X185015000Y-121848377D01*
X185000007Y-121773000D01*
X187045000Y-121773000D01*
X187045000Y-122273000D01*
X189053000Y-122273000D01*
X189053000Y-119927835D01*
X189307000Y-119927835D01*
X189307000Y-122273000D01*
X191315000Y-122273000D01*
X191315000Y-121773000D01*
X191103882Y-120965638D01*
X190599870Y-120300524D01*
X189879696Y-119878916D01*
X189638833Y-119814887D01*
X189307000Y-119927835D01*
X189053000Y-119927835D01*
X188721167Y-119814887D01*
X188480304Y-119878916D01*
X187760130Y-120300524D01*
X187256118Y-120965638D01*
X187045000Y-121773000D01*
X185000007Y-121773000D01*
X184852483Y-121031348D01*
X184389673Y-120338704D01*
X183697029Y-119875894D01*
X182880000Y-119713377D01*
X182062971Y-119875894D01*
X181370327Y-120338704D01*
X180907517Y-121031348D01*
X180745000Y-121848377D01*
X178715000Y-121848377D01*
X178552483Y-121031348D01*
X178089673Y-120338704D01*
X177397029Y-119875894D01*
X176580000Y-119713377D01*
X175762971Y-119875894D01*
X175070327Y-120338704D01*
X174607517Y-121031348D01*
X174445000Y-121848377D01*
X172292440Y-121848377D01*
X172292440Y-121143000D01*
X172248162Y-120907683D01*
X172121689Y-120711138D01*
X172241431Y-120535890D01*
X172292440Y-120284000D01*
X172292440Y-118984000D01*
X172248162Y-118748683D01*
X172109090Y-118532559D01*
X171896890Y-118387569D01*
X171645000Y-118336560D01*
X170145000Y-118336560D01*
X169909683Y-118380838D01*
X169693559Y-118519910D01*
X169548569Y-118732110D01*
X169545919Y-118745197D01*
X169409090Y-118532559D01*
X169196890Y-118387569D01*
X168955000Y-118338585D01*
X168955000Y-117395000D01*
X168897148Y-117104161D01*
X168732401Y-116857599D01*
X168678000Y-116803198D01*
X168678000Y-116424750D01*
X169333000Y-116424750D01*
X169333000Y-116665310D01*
X169429673Y-116898699D01*
X169608302Y-117077327D01*
X169841691Y-117174000D01*
X170632250Y-117174000D01*
X170791000Y-117015250D01*
X170791000Y-116266000D01*
X171045000Y-116266000D01*
X171045000Y-117015250D01*
X171203750Y-117174000D01*
X171994309Y-117174000D01*
X172227698Y-117077327D01*
X172406327Y-116898699D01*
X172503000Y-116665310D01*
X172503000Y-116424750D01*
X172344250Y-116266000D01*
X171045000Y-116266000D01*
X170791000Y-116266000D01*
X169491750Y-116266000D01*
X169333000Y-116424750D01*
X168678000Y-116424750D01*
X168678000Y-116236440D01*
X168868000Y-116236440D01*
X169103317Y-116192162D01*
X169319441Y-116053090D01*
X169406064Y-115926314D01*
X169491750Y-116012000D01*
X170791000Y-116012000D01*
X170791000Y-115992000D01*
X171045000Y-115992000D01*
X171045000Y-116012000D01*
X172344250Y-116012000D01*
X172503000Y-115853250D01*
X172503000Y-115612690D01*
X172406327Y-115379301D01*
X172227698Y-115200673D01*
X172191253Y-115185577D01*
X172319441Y-115103090D01*
X172390563Y-114999000D01*
X172527000Y-114999000D01*
X172817839Y-114941148D01*
X173064401Y-114776401D01*
X173892401Y-113948401D01*
X174057148Y-113701839D01*
X174115000Y-113411000D01*
X174115000Y-111027019D01*
X174172592Y-110969527D01*
X174315238Y-110625999D01*
X174315562Y-110254033D01*
X174173517Y-109910257D01*
X173910727Y-109647008D01*
X173567199Y-109504362D01*
X173195233Y-109504038D01*
X172851457Y-109646083D01*
X172588208Y-109908873D01*
X172445562Y-110252401D01*
X172445238Y-110624367D01*
X172587283Y-110968143D01*
X172595000Y-110975873D01*
X172595000Y-113096198D01*
X172315188Y-113376010D01*
X172119890Y-113242569D01*
X171868000Y-113191560D01*
X169968000Y-113191560D01*
X169732683Y-113235838D01*
X169516559Y-113374910D01*
X169371569Y-113587110D01*
X169320560Y-113839000D01*
X169320560Y-114329681D01*
X169119890Y-114192569D01*
X168868000Y-114141560D01*
X166968000Y-114141560D01*
X166732683Y-114185838D01*
X166516559Y-114324910D01*
X166371569Y-114537110D01*
X166320560Y-114789000D01*
X121969440Y-114789000D01*
X121969440Y-114408000D01*
X121925162Y-114172683D01*
X121786090Y-113956559D01*
X121573890Y-113811569D01*
X121322000Y-113760560D01*
X119422000Y-113760560D01*
X119186683Y-113804838D01*
X118970559Y-113943910D01*
X118883936Y-114070686D01*
X118798250Y-113985000D01*
X117499000Y-113985000D01*
X117499000Y-114005000D01*
X117245000Y-114005000D01*
X117245000Y-113985000D01*
X115945750Y-113985000D01*
X115787000Y-114143750D01*
X115787000Y-114384310D01*
X115883673Y-114617699D01*
X116062302Y-114796327D01*
X116098747Y-114811423D01*
X115970559Y-114893910D01*
X115899437Y-114998000D01*
X115739077Y-114998000D01*
X115651917Y-114787057D01*
X115389127Y-114523808D01*
X115045599Y-114381162D01*
X114673633Y-114380838D01*
X114329857Y-114522883D01*
X114066608Y-114785673D01*
X113923962Y-115129201D01*
X113923638Y-115501167D01*
X114065683Y-115844943D01*
X114328473Y-116108192D01*
X114672001Y-116250838D01*
X114718877Y-116250879D01*
X114763399Y-116295401D01*
X115009960Y-116460148D01*
X115300800Y-116518000D01*
X115899069Y-116518000D01*
X115957910Y-116609441D01*
X116170110Y-116754431D01*
X116422000Y-116805440D01*
X117834320Y-116805440D01*
X117826599Y-116810599D01*
X116984599Y-117652599D01*
X116819852Y-117899161D01*
X116783371Y-118082560D01*
X116772000Y-118082560D01*
X116536683Y-118126838D01*
X116320559Y-118265910D01*
X116175569Y-118478110D01*
X116124560Y-118730000D01*
X116124560Y-120030000D01*
X116168838Y-120265317D01*
X116307910Y-120481441D01*
X116367159Y-120521924D01*
X116320559Y-120551910D01*
X116175569Y-120764110D01*
X116146836Y-120906000D01*
X116078000Y-120906000D01*
X115787160Y-120963852D01*
X115540599Y-121128599D01*
X114270599Y-122398599D01*
X114105852Y-122645161D01*
X114061518Y-122868043D01*
X114015808Y-122913673D01*
X113873162Y-123257201D01*
X113872838Y-123629167D01*
X113710228Y-123629167D01*
X113845000Y-122951623D01*
X113845000Y-121848377D01*
X113682483Y-121031348D01*
X113219673Y-120338704D01*
X112527029Y-119875894D01*
X111710000Y-119713377D01*
X110892971Y-119875894D01*
X110200327Y-120338704D01*
X109737517Y-121031348D01*
X109575000Y-121848377D01*
X107545000Y-121848377D01*
X107382483Y-121031348D01*
X106919673Y-120338704D01*
X106227029Y-119875894D01*
X105410000Y-119713377D01*
X104592971Y-119875894D01*
X103900327Y-120338704D01*
X103437517Y-121031348D01*
X103275000Y-121848377D01*
X101245000Y-121848377D01*
X101082483Y-121031348D01*
X100619673Y-120338704D01*
X99927029Y-119875894D01*
X99110000Y-119713377D01*
X98292971Y-119875894D01*
X97600327Y-120338704D01*
X97137517Y-121031348D01*
X96975000Y-121848377D01*
X95145000Y-121848377D01*
X95145000Y-113331690D01*
X115787000Y-113331690D01*
X115787000Y-113572250D01*
X115945750Y-113731000D01*
X117245000Y-113731000D01*
X117245000Y-112981750D01*
X117499000Y-112981750D01*
X117499000Y-113731000D01*
X118798250Y-113731000D01*
X118957000Y-113572250D01*
X118957000Y-113331690D01*
X118860327Y-113098301D01*
X118681698Y-112919673D01*
X118448309Y-112823000D01*
X117657750Y-112823000D01*
X117499000Y-112981750D01*
X117245000Y-112981750D01*
X117086250Y-112823000D01*
X116295691Y-112823000D01*
X116062302Y-112919673D01*
X115883673Y-113098301D01*
X115787000Y-113331690D01*
X95145000Y-113331690D01*
X95145000Y-106327000D01*
X96975000Y-106327000D01*
X96975000Y-106827000D01*
X97186118Y-107634362D01*
X97690130Y-108299476D01*
X98410304Y-108721084D01*
X98651167Y-108785113D01*
X98983000Y-108672165D01*
X98983000Y-106327000D01*
X99237000Y-106327000D01*
X99237000Y-108672165D01*
X99568833Y-108785113D01*
X99809696Y-108721084D01*
X100529870Y-108299476D01*
X101033882Y-107634362D01*
X101245000Y-106827000D01*
X101245000Y-106327000D01*
X99237000Y-106327000D01*
X98983000Y-106327000D01*
X96975000Y-106327000D01*
X95145000Y-106327000D01*
X95145000Y-105573000D01*
X96975000Y-105573000D01*
X96975000Y-106073000D01*
X98983000Y-106073000D01*
X98983000Y-103727835D01*
X99237000Y-103727835D01*
X99237000Y-106073000D01*
X101245000Y-106073000D01*
X101245000Y-105648377D01*
X103275000Y-105648377D01*
X103275000Y-106751623D01*
X103437517Y-107568652D01*
X103900327Y-108261296D01*
X104592971Y-108724106D01*
X105410000Y-108886623D01*
X106227029Y-108724106D01*
X106919673Y-108261296D01*
X107382483Y-107568652D01*
X107545000Y-106751623D01*
X107545000Y-105648377D01*
X109575000Y-105648377D01*
X109575000Y-106751623D01*
X109737517Y-107568652D01*
X110200327Y-108261296D01*
X110892971Y-108724106D01*
X111710000Y-108886623D01*
X112527029Y-108724106D01*
X113219673Y-108261296D01*
X113682483Y-107568652D01*
X113845000Y-106751623D01*
X113845000Y-105648377D01*
X113682483Y-104831348D01*
X113219673Y-104138704D01*
X112527029Y-103675894D01*
X112001335Y-103571327D01*
X139214137Y-103571327D01*
X139261661Y-103823898D01*
X139403706Y-104038080D01*
X140817920Y-105452294D01*
X141015623Y-105587379D01*
X141266785Y-105641863D01*
X141519356Y-105594339D01*
X141733538Y-105452294D01*
X143006330Y-104179502D01*
X143011204Y-104172368D01*
X144128529Y-104172368D01*
X144176053Y-104424939D01*
X144318098Y-104639121D01*
X145272692Y-105593715D01*
X145470395Y-105728800D01*
X145721557Y-105783284D01*
X145974128Y-105735760D01*
X146018246Y-105706501D01*
X146305301Y-105763600D01*
X150266400Y-105763600D01*
X150557239Y-105705748D01*
X150643101Y-105648377D01*
X174445000Y-105648377D01*
X174445000Y-106751623D01*
X174607517Y-107568652D01*
X175070327Y-108261296D01*
X175762971Y-108724106D01*
X176580000Y-108886623D01*
X177397029Y-108724106D01*
X178089673Y-108261296D01*
X178552483Y-107568652D01*
X178715000Y-106751623D01*
X178715000Y-105648377D01*
X180745000Y-105648377D01*
X180745000Y-106751623D01*
X180907517Y-107568652D01*
X181370327Y-108261296D01*
X182062971Y-108724106D01*
X182880000Y-108886623D01*
X183697029Y-108724106D01*
X184389673Y-108261296D01*
X184852483Y-107568652D01*
X185015000Y-106751623D01*
X185015000Y-105648377D01*
X187045000Y-105648377D01*
X187045000Y-106751623D01*
X187207517Y-107568652D01*
X187670327Y-108261296D01*
X188362971Y-108724106D01*
X189180000Y-108886623D01*
X189997029Y-108724106D01*
X190689673Y-108261296D01*
X191152483Y-107568652D01*
X191315000Y-106751623D01*
X191315000Y-105648377D01*
X191152483Y-104831348D01*
X190689673Y-104138704D01*
X189997029Y-103675894D01*
X189180000Y-103513377D01*
X188362971Y-103675894D01*
X187670327Y-104138704D01*
X187207517Y-104831348D01*
X187045000Y-105648377D01*
X185015000Y-105648377D01*
X184852483Y-104831348D01*
X184389673Y-104138704D01*
X183697029Y-103675894D01*
X182880000Y-103513377D01*
X182062971Y-103675894D01*
X181370327Y-104138704D01*
X180907517Y-104831348D01*
X180745000Y-105648377D01*
X178715000Y-105648377D01*
X178552483Y-104831348D01*
X178089673Y-104138704D01*
X177397029Y-103675894D01*
X176580000Y-103513377D01*
X175762971Y-103675894D01*
X175070327Y-104138704D01*
X174607517Y-104831348D01*
X174445000Y-105648377D01*
X150643101Y-105648377D01*
X150803801Y-105541001D01*
X153489003Y-102855799D01*
X153653750Y-102609237D01*
X153711602Y-102318398D01*
X153711602Y-94571567D01*
X156798838Y-94571567D01*
X156940883Y-94915343D01*
X156974000Y-94948518D01*
X156974000Y-96821137D01*
X156941808Y-96853273D01*
X156799162Y-97196801D01*
X156798838Y-97568767D01*
X156940883Y-97912543D01*
X157203673Y-98175792D01*
X157547201Y-98318438D01*
X157919167Y-98318762D01*
X158262943Y-98176717D01*
X158526192Y-97913927D01*
X158668838Y-97570399D01*
X158669162Y-97198433D01*
X158527117Y-96854657D01*
X158494000Y-96821482D01*
X158494000Y-96298767D01*
X160354838Y-96298767D01*
X160496883Y-96642543D01*
X160759673Y-96905792D01*
X161103201Y-97048438D01*
X161475167Y-97048762D01*
X161818943Y-96906717D01*
X161852118Y-96873600D01*
X162911937Y-96873600D01*
X162944073Y-96905792D01*
X163287601Y-97048438D01*
X163659567Y-97048762D01*
X164003343Y-96906717D01*
X164266592Y-96643927D01*
X164409238Y-96300399D01*
X164409562Y-95928433D01*
X164267517Y-95584657D01*
X164004727Y-95321408D01*
X163661199Y-95178762D01*
X163289233Y-95178438D01*
X162945457Y-95320483D01*
X162912282Y-95353600D01*
X161852463Y-95353600D01*
X161820327Y-95321408D01*
X161476799Y-95178762D01*
X161104833Y-95178438D01*
X160761057Y-95320483D01*
X160497808Y-95583273D01*
X160355162Y-95926801D01*
X160354838Y-96298767D01*
X158494000Y-96298767D01*
X158494000Y-94948863D01*
X158526192Y-94916727D01*
X158668838Y-94573199D01*
X158669060Y-94317567D01*
X160253238Y-94317567D01*
X160395283Y-94661343D01*
X160658073Y-94924592D01*
X161001601Y-95067238D01*
X161373567Y-95067562D01*
X161717343Y-94925517D01*
X161750518Y-94892400D01*
X163141286Y-94892400D01*
X163440001Y-95016438D01*
X163811967Y-95016762D01*
X164155743Y-94874717D01*
X164418992Y-94611927D01*
X164561638Y-94268399D01*
X164561962Y-93896433D01*
X164419917Y-93552657D01*
X164157127Y-93289408D01*
X163813599Y-93146762D01*
X163441633Y-93146438D01*
X163097857Y-93288483D01*
X163013793Y-93372400D01*
X161750863Y-93372400D01*
X161718727Y-93340208D01*
X161375199Y-93197562D01*
X161003233Y-93197238D01*
X160659457Y-93339283D01*
X160396208Y-93602073D01*
X160253562Y-93945601D01*
X160253238Y-94317567D01*
X158669060Y-94317567D01*
X158669162Y-94201233D01*
X158527117Y-93857457D01*
X158264327Y-93594208D01*
X157920799Y-93451562D01*
X157548833Y-93451238D01*
X157205057Y-93593283D01*
X156941808Y-93856073D01*
X156799162Y-94199601D01*
X156798838Y-94571567D01*
X153711602Y-94571567D01*
X153711602Y-90949200D01*
X154461401Y-90199401D01*
X154481749Y-90168948D01*
X154512201Y-90148601D01*
X154676948Y-89902039D01*
X154734800Y-89611200D01*
X154734800Y-89491567D01*
X164926838Y-89491567D01*
X165068883Y-89835343D01*
X165102000Y-89868518D01*
X165102000Y-95551137D01*
X165069808Y-95583273D01*
X164927162Y-95926801D01*
X164926838Y-96298767D01*
X165068883Y-96642543D01*
X165331673Y-96905792D01*
X165675201Y-97048438D01*
X166047167Y-97048762D01*
X166390943Y-96906717D01*
X166654192Y-96643927D01*
X166796838Y-96300399D01*
X166797162Y-95928433D01*
X166655117Y-95584657D01*
X166622000Y-95551482D01*
X166622000Y-94912128D01*
X166716110Y-94976431D01*
X166968000Y-95027440D01*
X167158000Y-95027440D01*
X167158000Y-96290000D01*
X167215852Y-96580839D01*
X167380599Y-96827401D01*
X167449759Y-96896561D01*
X167336683Y-96917838D01*
X167120559Y-97056910D01*
X166975569Y-97269110D01*
X166924560Y-97521000D01*
X166924560Y-98821000D01*
X166968838Y-99056317D01*
X167095311Y-99252862D01*
X166975569Y-99428110D01*
X166924560Y-99680000D01*
X166924560Y-100980000D01*
X166968838Y-101215317D01*
X167107910Y-101431441D01*
X167320110Y-101576431D01*
X167562000Y-101625415D01*
X167562000Y-101647000D01*
X167594039Y-101808071D01*
X167593838Y-102039167D01*
X167735883Y-102382943D01*
X167998673Y-102646192D01*
X168342201Y-102788838D01*
X168714167Y-102789162D01*
X169057943Y-102647117D01*
X169321192Y-102384327D01*
X169463838Y-102040799D01*
X169464162Y-101668833D01*
X169403255Y-101521427D01*
X169523441Y-101444090D01*
X169668431Y-101231890D01*
X169671081Y-101218803D01*
X169807910Y-101431441D01*
X170020110Y-101576431D01*
X170272000Y-101627440D01*
X171772000Y-101627440D01*
X172007317Y-101583162D01*
X172223441Y-101444090D01*
X172368431Y-101231890D01*
X172419440Y-100980000D01*
X172419440Y-100258377D01*
X174445000Y-100258377D01*
X174445000Y-101361623D01*
X174607517Y-102178652D01*
X175070327Y-102871296D01*
X175762971Y-103334106D01*
X176580000Y-103496623D01*
X177397029Y-103334106D01*
X178089673Y-102871296D01*
X178552483Y-102178652D01*
X178715000Y-101361623D01*
X178715000Y-100258377D01*
X180745000Y-100258377D01*
X180745000Y-101361623D01*
X180907517Y-102178652D01*
X181370327Y-102871296D01*
X182062971Y-103334106D01*
X182880000Y-103496623D01*
X183697029Y-103334106D01*
X184389673Y-102871296D01*
X184852483Y-102178652D01*
X185015000Y-101361623D01*
X185015000Y-100937000D01*
X187045000Y-100937000D01*
X187045000Y-101437000D01*
X187256118Y-102244362D01*
X187760130Y-102909476D01*
X188480304Y-103331084D01*
X188721167Y-103395113D01*
X189053000Y-103282165D01*
X189053000Y-100937000D01*
X189307000Y-100937000D01*
X189307000Y-103282165D01*
X189638833Y-103395113D01*
X189879696Y-103331084D01*
X190599870Y-102909476D01*
X191103882Y-102244362D01*
X191315000Y-101437000D01*
X191315000Y-100937000D01*
X189307000Y-100937000D01*
X189053000Y-100937000D01*
X187045000Y-100937000D01*
X185015000Y-100937000D01*
X185015000Y-100258377D01*
X185000007Y-100183000D01*
X187045000Y-100183000D01*
X187045000Y-100683000D01*
X189053000Y-100683000D01*
X189053000Y-98337835D01*
X189307000Y-98337835D01*
X189307000Y-100683000D01*
X191315000Y-100683000D01*
X191315000Y-100183000D01*
X191103882Y-99375638D01*
X190599870Y-98710524D01*
X189879696Y-98288916D01*
X189638833Y-98224887D01*
X189307000Y-98337835D01*
X189053000Y-98337835D01*
X188721167Y-98224887D01*
X188480304Y-98288916D01*
X187760130Y-98710524D01*
X187256118Y-99375638D01*
X187045000Y-100183000D01*
X185000007Y-100183000D01*
X184852483Y-99441348D01*
X184389673Y-98748704D01*
X183697029Y-98285894D01*
X182880000Y-98123377D01*
X182062971Y-98285894D01*
X181370327Y-98748704D01*
X180907517Y-99441348D01*
X180745000Y-100258377D01*
X178715000Y-100258377D01*
X178552483Y-99441348D01*
X178089673Y-98748704D01*
X177397029Y-98285894D01*
X176580000Y-98123377D01*
X175762971Y-98285894D01*
X175070327Y-98748704D01*
X174607517Y-99441348D01*
X174445000Y-100258377D01*
X172419440Y-100258377D01*
X172419440Y-99680000D01*
X172375162Y-99444683D01*
X172248689Y-99248138D01*
X172368431Y-99072890D01*
X172419440Y-98821000D01*
X172419440Y-97521000D01*
X172375162Y-97285683D01*
X172236090Y-97069559D01*
X172023890Y-96924569D01*
X171772000Y-96873560D01*
X170272000Y-96873560D01*
X170036683Y-96917838D01*
X169820559Y-97056910D01*
X169675569Y-97269110D01*
X169672919Y-97282197D01*
X169536090Y-97069559D01*
X169323890Y-96924569D01*
X169082000Y-96875585D01*
X169082000Y-96694000D01*
X169072040Y-96643927D01*
X169024148Y-96403160D01*
X168859401Y-96156599D01*
X168678000Y-95975198D01*
X168678000Y-95215750D01*
X169333000Y-95215750D01*
X169333000Y-95456310D01*
X169429673Y-95689699D01*
X169608302Y-95868327D01*
X169841691Y-95965000D01*
X170632250Y-95965000D01*
X170791000Y-95806250D01*
X170791000Y-95057000D01*
X171045000Y-95057000D01*
X171045000Y-95806250D01*
X171203750Y-95965000D01*
X171994309Y-95965000D01*
X172227698Y-95868327D01*
X172406327Y-95689699D01*
X172503000Y-95456310D01*
X172503000Y-95215750D01*
X172344250Y-95057000D01*
X171045000Y-95057000D01*
X170791000Y-95057000D01*
X169491750Y-95057000D01*
X169333000Y-95215750D01*
X168678000Y-95215750D01*
X168678000Y-95027440D01*
X168868000Y-95027440D01*
X169103317Y-94983162D01*
X169319441Y-94844090D01*
X169406064Y-94717314D01*
X169491750Y-94803000D01*
X170791000Y-94803000D01*
X170791000Y-94783000D01*
X171045000Y-94783000D01*
X171045000Y-94803000D01*
X172344250Y-94803000D01*
X172503000Y-94644250D01*
X172503000Y-94403690D01*
X172406327Y-94170301D01*
X172227698Y-93991673D01*
X172191253Y-93976577D01*
X172319441Y-93894090D01*
X172390563Y-93790000D01*
X172781000Y-93790000D01*
X173071839Y-93732148D01*
X173318401Y-93567401D01*
X173765401Y-93120401D01*
X173930148Y-92873840D01*
X173949046Y-92778833D01*
X173988000Y-92583000D01*
X173988000Y-89310063D01*
X174020192Y-89277927D01*
X174162838Y-88934399D01*
X174163162Y-88562433D01*
X174021117Y-88218657D01*
X173758327Y-87955408D01*
X173414799Y-87812762D01*
X173042833Y-87812438D01*
X172699057Y-87954483D01*
X172435808Y-88217273D01*
X172293162Y-88560801D01*
X172292838Y-88932767D01*
X172434883Y-89276543D01*
X172468000Y-89309718D01*
X172468000Y-92268198D01*
X172466198Y-92270000D01*
X172390931Y-92270000D01*
X172332090Y-92178559D01*
X172119890Y-92033569D01*
X171868000Y-91982560D01*
X169968000Y-91982560D01*
X169732683Y-92026838D01*
X169516559Y-92165910D01*
X169371569Y-92378110D01*
X169320560Y-92630000D01*
X169320560Y-93120681D01*
X169119890Y-92983569D01*
X168868000Y-92932560D01*
X166968000Y-92932560D01*
X166732683Y-92976838D01*
X166622000Y-93048061D01*
X166622000Y-89868863D01*
X166654192Y-89836727D01*
X166796838Y-89493199D01*
X166797162Y-89121233D01*
X166655117Y-88777457D01*
X166392327Y-88514208D01*
X166048799Y-88371562D01*
X165676833Y-88371238D01*
X165333057Y-88513283D01*
X165069808Y-88776073D01*
X164927162Y-89119601D01*
X164926838Y-89491567D01*
X154734800Y-89491567D01*
X154734800Y-86333202D01*
X154676948Y-86042363D01*
X154676948Y-86042362D01*
X154512201Y-85795801D01*
X154480800Y-85764400D01*
X154480800Y-84058377D01*
X174445000Y-84058377D01*
X174445000Y-85161623D01*
X174607517Y-85978652D01*
X175070327Y-86671296D01*
X175762971Y-87134106D01*
X176580000Y-87296623D01*
X177397029Y-87134106D01*
X178089673Y-86671296D01*
X178552483Y-85978652D01*
X178715000Y-85161623D01*
X178715000Y-84058377D01*
X180745000Y-84058377D01*
X180745000Y-85161623D01*
X180907517Y-85978652D01*
X181370327Y-86671296D01*
X182062971Y-87134106D01*
X182880000Y-87296623D01*
X183697029Y-87134106D01*
X184389673Y-86671296D01*
X184852483Y-85978652D01*
X185015000Y-85161623D01*
X185015000Y-84058377D01*
X187045000Y-84058377D01*
X187045000Y-85161623D01*
X187207517Y-85978652D01*
X187670327Y-86671296D01*
X188362971Y-87134106D01*
X189180000Y-87296623D01*
X189997029Y-87134106D01*
X190689673Y-86671296D01*
X191152483Y-85978652D01*
X191315000Y-85161623D01*
X191315000Y-84058377D01*
X191152483Y-83241348D01*
X190689673Y-82548704D01*
X189997029Y-82085894D01*
X189180000Y-81923377D01*
X188362971Y-82085894D01*
X187670327Y-82548704D01*
X187207517Y-83241348D01*
X187045000Y-84058377D01*
X185015000Y-84058377D01*
X184852483Y-83241348D01*
X184389673Y-82548704D01*
X183697029Y-82085894D01*
X182880000Y-81923377D01*
X182062971Y-82085894D01*
X181370327Y-82548704D01*
X180907517Y-83241348D01*
X180745000Y-84058377D01*
X178715000Y-84058377D01*
X178552483Y-83241348D01*
X178089673Y-82548704D01*
X177397029Y-82085894D01*
X176580000Y-81923377D01*
X175762971Y-82085894D01*
X175070327Y-82548704D01*
X174607517Y-83241348D01*
X174445000Y-84058377D01*
X154480800Y-84058377D01*
X154480800Y-83921600D01*
X154422948Y-83630761D01*
X154258201Y-83384199D01*
X153648601Y-82774599D01*
X153402039Y-82609852D01*
X153371206Y-82603719D01*
X153136415Y-82252330D01*
X152821634Y-82042000D01*
X153136415Y-81831670D01*
X153461271Y-81345489D01*
X153575345Y-80772000D01*
X153461271Y-80198511D01*
X153136415Y-79712330D01*
X152821634Y-79502000D01*
X153136415Y-79291670D01*
X153461271Y-78805489D01*
X153575345Y-78232000D01*
X153470711Y-77705967D01*
X162691638Y-77705967D01*
X162833683Y-78049743D01*
X163096473Y-78312992D01*
X163440001Y-78455638D01*
X163486877Y-78455679D01*
X164926878Y-79895680D01*
X164926838Y-79941167D01*
X165068883Y-80284943D01*
X165331673Y-80548192D01*
X165675201Y-80690838D01*
X166047167Y-80691162D01*
X166390943Y-80549117D01*
X166654192Y-80286327D01*
X166796838Y-79942799D01*
X166796894Y-79878307D01*
X166859967Y-79878362D01*
X167174926Y-79748224D01*
X167234910Y-79841441D01*
X167447110Y-79986431D01*
X167699000Y-80037440D01*
X167710371Y-80037440D01*
X167746852Y-80220839D01*
X167911599Y-80467401D01*
X168372599Y-80928401D01*
X168619160Y-81093148D01*
X168640577Y-81097408D01*
X168910000Y-81151000D01*
X172538537Y-81151000D01*
X172570673Y-81183192D01*
X172914201Y-81325838D01*
X173286167Y-81326162D01*
X173629943Y-81184117D01*
X173893192Y-80921327D01*
X174035838Y-80577799D01*
X174036162Y-80205833D01*
X173894117Y-79862057D01*
X173631327Y-79598808D01*
X173287799Y-79456162D01*
X172915833Y-79455838D01*
X172572057Y-79597883D01*
X172538882Y-79631000D01*
X172497636Y-79631000D01*
X172546440Y-79390000D01*
X172546440Y-78668377D01*
X174445000Y-78668377D01*
X174445000Y-79771623D01*
X174607517Y-80588652D01*
X175070327Y-81281296D01*
X175762971Y-81744106D01*
X176580000Y-81906623D01*
X177397029Y-81744106D01*
X178089673Y-81281296D01*
X178552483Y-80588652D01*
X178715000Y-79771623D01*
X178715000Y-78668377D01*
X180745000Y-78668377D01*
X180745000Y-79771623D01*
X180907517Y-80588652D01*
X181370327Y-81281296D01*
X182062971Y-81744106D01*
X182880000Y-81906623D01*
X183697029Y-81744106D01*
X184389673Y-81281296D01*
X184852483Y-80588652D01*
X185015000Y-79771623D01*
X185015000Y-79347000D01*
X187045000Y-79347000D01*
X187045000Y-79847000D01*
X187256118Y-80654362D01*
X187760130Y-81319476D01*
X188480304Y-81741084D01*
X188721167Y-81805113D01*
X189053000Y-81692165D01*
X189053000Y-79347000D01*
X189307000Y-79347000D01*
X189307000Y-81692165D01*
X189638833Y-81805113D01*
X189879696Y-81741084D01*
X190599870Y-81319476D01*
X191103882Y-80654362D01*
X191315000Y-79847000D01*
X191315000Y-79347000D01*
X189307000Y-79347000D01*
X189053000Y-79347000D01*
X187045000Y-79347000D01*
X185015000Y-79347000D01*
X185015000Y-78668377D01*
X185000007Y-78593000D01*
X187045000Y-78593000D01*
X187045000Y-79093000D01*
X189053000Y-79093000D01*
X189053000Y-76747835D01*
X189307000Y-76747835D01*
X189307000Y-79093000D01*
X191315000Y-79093000D01*
X191315000Y-78593000D01*
X191103882Y-77785638D01*
X190599870Y-77120524D01*
X189879696Y-76698916D01*
X189638833Y-76634887D01*
X189307000Y-76747835D01*
X189053000Y-76747835D01*
X188721167Y-76634887D01*
X188480304Y-76698916D01*
X187760130Y-77120524D01*
X187256118Y-77785638D01*
X187045000Y-78593000D01*
X185000007Y-78593000D01*
X184852483Y-77851348D01*
X184389673Y-77158704D01*
X183697029Y-76695894D01*
X182880000Y-76533377D01*
X182062971Y-76695894D01*
X181370327Y-77158704D01*
X180907517Y-77851348D01*
X180745000Y-78668377D01*
X178715000Y-78668377D01*
X178552483Y-77851348D01*
X178089673Y-77158704D01*
X177397029Y-76695894D01*
X176580000Y-76533377D01*
X175762971Y-76695894D01*
X175070327Y-77158704D01*
X174607517Y-77851348D01*
X174445000Y-78668377D01*
X172546440Y-78668377D01*
X172546440Y-78090000D01*
X172502162Y-77854683D01*
X172375689Y-77658138D01*
X172495431Y-77482890D01*
X172546440Y-77231000D01*
X172546440Y-75931000D01*
X172502162Y-75695683D01*
X172363090Y-75479559D01*
X172150890Y-75334569D01*
X171899000Y-75283560D01*
X170399000Y-75283560D01*
X170163683Y-75327838D01*
X169947559Y-75466910D01*
X169802569Y-75679110D01*
X169799919Y-75692197D01*
X169663090Y-75479559D01*
X169450890Y-75334569D01*
X169209000Y-75285585D01*
X169209000Y-74850000D01*
X169151148Y-74559161D01*
X169151148Y-74559160D01*
X168986401Y-74312599D01*
X168678000Y-74004198D01*
X168678000Y-73371750D01*
X169333000Y-73371750D01*
X169333000Y-73612310D01*
X169429673Y-73845699D01*
X169608302Y-74024327D01*
X169841691Y-74121000D01*
X170632250Y-74121000D01*
X170791000Y-73962250D01*
X170791000Y-73213000D01*
X171045000Y-73213000D01*
X171045000Y-73962250D01*
X171203750Y-74121000D01*
X171994309Y-74121000D01*
X172227698Y-74024327D01*
X172406327Y-73845699D01*
X172503000Y-73612310D01*
X172503000Y-73371750D01*
X172344250Y-73213000D01*
X171045000Y-73213000D01*
X170791000Y-73213000D01*
X169491750Y-73213000D01*
X169333000Y-73371750D01*
X168678000Y-73371750D01*
X168678000Y-73183440D01*
X168868000Y-73183440D01*
X169103317Y-73139162D01*
X169319441Y-73000090D01*
X169406064Y-72873314D01*
X169491750Y-72959000D01*
X170791000Y-72959000D01*
X170791000Y-72939000D01*
X171045000Y-72939000D01*
X171045000Y-72959000D01*
X172344250Y-72959000D01*
X172503000Y-72800250D01*
X172503000Y-72559690D01*
X172406327Y-72326301D01*
X172227698Y-72147673D01*
X172191253Y-72132577D01*
X172319441Y-72050090D01*
X172390563Y-71946000D01*
X173035000Y-71946000D01*
X173325839Y-71888148D01*
X173572401Y-71723401D01*
X174146401Y-71149401D01*
X174311148Y-70902839D01*
X174369000Y-70612000D01*
X174369000Y-69625019D01*
X174426592Y-69567527D01*
X174569238Y-69223999D01*
X174569562Y-68852033D01*
X174427517Y-68508257D01*
X174164727Y-68245008D01*
X173821199Y-68102362D01*
X173449233Y-68102038D01*
X173105457Y-68244083D01*
X172842208Y-68506873D01*
X172699562Y-68850401D01*
X172699238Y-69222367D01*
X172841283Y-69566143D01*
X172849000Y-69573873D01*
X172849000Y-70297198D01*
X172720198Y-70426000D01*
X172390931Y-70426000D01*
X172332090Y-70334559D01*
X172119890Y-70189569D01*
X171868000Y-70138560D01*
X169968000Y-70138560D01*
X169732683Y-70182838D01*
X169516559Y-70321910D01*
X169371569Y-70534110D01*
X169320560Y-70786000D01*
X169320560Y-71276681D01*
X169119890Y-71139569D01*
X168868000Y-71088560D01*
X166968000Y-71088560D01*
X166732683Y-71132838D01*
X166516559Y-71271910D01*
X166371569Y-71484110D01*
X166320560Y-71736000D01*
X166320560Y-72536000D01*
X166364838Y-72771317D01*
X166503910Y-72987441D01*
X166716110Y-73132431D01*
X166968000Y-73183440D01*
X167158000Y-73183440D01*
X167158000Y-74319000D01*
X167215852Y-74609839D01*
X167380599Y-74856401D01*
X167689000Y-75164802D01*
X167689000Y-75285442D01*
X167463683Y-75327838D01*
X167247559Y-75466910D01*
X167102569Y-75679110D01*
X167051560Y-75931000D01*
X167051560Y-77231000D01*
X167095838Y-77466317D01*
X167222311Y-77662862D01*
X167102569Y-77838110D01*
X167052075Y-78087455D01*
X166861599Y-78008362D01*
X166814723Y-78008321D01*
X165425522Y-76619120D01*
X165425562Y-76573633D01*
X165283517Y-76229857D01*
X165020727Y-75966608D01*
X164677199Y-75823962D01*
X164305233Y-75823638D01*
X163961457Y-75965683D01*
X163698208Y-76228473D01*
X163555562Y-76572001D01*
X163555550Y-76585737D01*
X163441633Y-76585638D01*
X163097857Y-76727683D01*
X162834608Y-76990473D01*
X162691962Y-77334001D01*
X162691638Y-77705967D01*
X153470711Y-77705967D01*
X153461271Y-77658511D01*
X153136415Y-77172330D01*
X152821634Y-76962000D01*
X153136415Y-76751670D01*
X153461271Y-76265489D01*
X153575345Y-75692000D01*
X153461271Y-75118511D01*
X153136415Y-74632330D01*
X152821634Y-74422000D01*
X153136415Y-74211670D01*
X153461271Y-73725489D01*
X153575345Y-73152000D01*
X153461271Y-72578511D01*
X153136415Y-72092330D01*
X152821634Y-71882000D01*
X153136415Y-71671670D01*
X153461271Y-71185489D01*
X153575345Y-70612000D01*
X153461271Y-70038511D01*
X153136415Y-69552330D01*
X152821634Y-69342000D01*
X153136415Y-69131670D01*
X153461271Y-68645489D01*
X153575345Y-68072000D01*
X153461271Y-67498511D01*
X153136415Y-67012330D01*
X152821634Y-66802000D01*
X153136415Y-66591670D01*
X153461271Y-66105489D01*
X153575345Y-65532000D01*
X153461271Y-64958511D01*
X153136415Y-64472330D01*
X152821634Y-64262000D01*
X153136415Y-64051670D01*
X153461271Y-63565489D01*
X153575345Y-62992000D01*
X153471190Y-62468377D01*
X174445000Y-62468377D01*
X174445000Y-63571623D01*
X174607517Y-64388652D01*
X175070327Y-65081296D01*
X175762971Y-65544106D01*
X176580000Y-65706623D01*
X177397029Y-65544106D01*
X178089673Y-65081296D01*
X178552483Y-64388652D01*
X178715000Y-63571623D01*
X178715000Y-62468377D01*
X180745000Y-62468377D01*
X180745000Y-63571623D01*
X180907517Y-64388652D01*
X181370327Y-65081296D01*
X182062971Y-65544106D01*
X182880000Y-65706623D01*
X183697029Y-65544106D01*
X184389673Y-65081296D01*
X184852483Y-64388652D01*
X185015000Y-63571623D01*
X185015000Y-62468377D01*
X187045000Y-62468377D01*
X187045000Y-63571623D01*
X187207517Y-64388652D01*
X187670327Y-65081296D01*
X188362971Y-65544106D01*
X189180000Y-65706623D01*
X189997029Y-65544106D01*
X190689673Y-65081296D01*
X191152483Y-64388652D01*
X191315000Y-63571623D01*
X191315000Y-62468377D01*
X191152483Y-61651348D01*
X190689673Y-60958704D01*
X189997029Y-60495894D01*
X189180000Y-60333377D01*
X188362971Y-60495894D01*
X187670327Y-60958704D01*
X187207517Y-61651348D01*
X187045000Y-62468377D01*
X185015000Y-62468377D01*
X184852483Y-61651348D01*
X184389673Y-60958704D01*
X183697029Y-60495894D01*
X182880000Y-60333377D01*
X182062971Y-60495894D01*
X181370327Y-60958704D01*
X180907517Y-61651348D01*
X180745000Y-62468377D01*
X178715000Y-62468377D01*
X178552483Y-61651348D01*
X178089673Y-60958704D01*
X177397029Y-60495894D01*
X176580000Y-60333377D01*
X175762971Y-60495894D01*
X175070327Y-60958704D01*
X174607517Y-61651348D01*
X174445000Y-62468377D01*
X153471190Y-62468377D01*
X153461271Y-62418511D01*
X153136415Y-61932330D01*
X152821634Y-61722000D01*
X153136415Y-61511670D01*
X153461271Y-61025489D01*
X153575345Y-60452000D01*
X153461271Y-59878511D01*
X153136415Y-59392330D01*
X152821634Y-59182000D01*
X153136415Y-58971670D01*
X153461271Y-58485489D01*
X153522670Y-58176815D01*
X187074630Y-58176815D01*
X187398980Y-58961800D01*
X187999041Y-59562909D01*
X188783459Y-59888628D01*
X189632815Y-59889370D01*
X190417800Y-59565020D01*
X191018909Y-58964959D01*
X191344628Y-58180541D01*
X191345370Y-57331185D01*
X191021020Y-56546200D01*
X190420959Y-55945091D01*
X189636541Y-55619372D01*
X188787185Y-55618630D01*
X188002200Y-55942980D01*
X187401091Y-56543041D01*
X187075372Y-57327459D01*
X187074630Y-58176815D01*
X153522670Y-58176815D01*
X153575345Y-57912000D01*
X153461271Y-57338511D01*
X153203599Y-56952878D01*
X153267698Y-56926327D01*
X153446327Y-56747699D01*
X153543000Y-56514310D01*
X153543000Y-55657750D01*
X153384250Y-55499000D01*
X152019000Y-55499000D01*
X152019000Y-55519000D01*
X151765000Y-55519000D01*
X151765000Y-55499000D01*
X150399750Y-55499000D01*
X150241000Y-55657750D01*
X150241000Y-56514310D01*
X150337673Y-56747699D01*
X150516302Y-56926327D01*
X150580401Y-56952878D01*
X150322729Y-57338511D01*
X150208655Y-57912000D01*
X150322729Y-58485489D01*
X150647585Y-58971670D01*
X150962366Y-59182000D01*
X150647585Y-59392330D01*
X150322729Y-59878511D01*
X150208655Y-60452000D01*
X150322729Y-61025489D01*
X150647585Y-61511670D01*
X150962366Y-61722000D01*
X150647585Y-61932330D01*
X150322729Y-62418511D01*
X150208655Y-62992000D01*
X150322729Y-63565489D01*
X150647585Y-64051670D01*
X150962366Y-64262000D01*
X150647585Y-64472330D01*
X150322729Y-64958511D01*
X150208655Y-65532000D01*
X150322729Y-66105489D01*
X150647585Y-66591670D01*
X150962366Y-66802000D01*
X150647585Y-67012330D01*
X150322729Y-67498511D01*
X150208655Y-68072000D01*
X150322729Y-68645489D01*
X150647585Y-69131670D01*
X150962366Y-69342000D01*
X150647585Y-69552330D01*
X150322729Y-70038511D01*
X150208655Y-70612000D01*
X150322729Y-71185489D01*
X150647585Y-71671670D01*
X150962366Y-71882000D01*
X150647585Y-72092330D01*
X150322729Y-72578511D01*
X150208655Y-73152000D01*
X150322729Y-73725489D01*
X150647585Y-74211670D01*
X150962366Y-74422000D01*
X150647585Y-74632330D01*
X150322729Y-75118511D01*
X150208655Y-75692000D01*
X150322729Y-76265489D01*
X150647585Y-76751670D01*
X150962366Y-76962000D01*
X150647585Y-77172330D01*
X150322729Y-77658511D01*
X150208655Y-78232000D01*
X150322729Y-78805489D01*
X150647585Y-79291670D01*
X150962366Y-79502000D01*
X150647585Y-79712330D01*
X150322729Y-80198511D01*
X150208655Y-80772000D01*
X150322729Y-81345489D01*
X150647585Y-81831670D01*
X150962366Y-82042000D01*
X150647585Y-82252330D01*
X150322729Y-82738511D01*
X150208655Y-83312000D01*
X150322729Y-83885489D01*
X150647585Y-84371670D01*
X150962366Y-84582000D01*
X150647585Y-84792330D01*
X150322729Y-85278511D01*
X150208655Y-85852000D01*
X150322729Y-86425489D01*
X150647585Y-86911670D01*
X150962366Y-87122000D01*
X150647585Y-87332330D01*
X150322729Y-87818511D01*
X150208655Y-88392000D01*
X150322729Y-88965489D01*
X150647585Y-89451670D01*
X151132000Y-89775346D01*
X151132000Y-101539198D01*
X150357998Y-102313200D01*
X150258103Y-102313200D01*
X150286838Y-102243999D01*
X150287162Y-101872033D01*
X150145117Y-101528257D01*
X150112000Y-101495082D01*
X150112000Y-94339263D01*
X150144192Y-94307127D01*
X150286838Y-93963599D01*
X150287162Y-93591633D01*
X150145117Y-93247857D01*
X149882327Y-92984608D01*
X149538799Y-92841962D01*
X149166833Y-92841638D01*
X148823057Y-92983683D01*
X148559808Y-93246473D01*
X148417162Y-93590001D01*
X148416838Y-93961967D01*
X148558883Y-94305743D01*
X148592000Y-94338918D01*
X148592000Y-97394426D01*
X147319680Y-96122106D01*
X147121977Y-95987021D01*
X146870815Y-95932537D01*
X146618244Y-95980061D01*
X146404062Y-96122106D01*
X145131270Y-97394898D01*
X144996185Y-97592601D01*
X144941701Y-97843763D01*
X144989225Y-98096334D01*
X145131270Y-98310516D01*
X145254313Y-98433559D01*
X145212283Y-98433522D01*
X144840931Y-98586961D01*
X144556566Y-98870831D01*
X144402479Y-99241914D01*
X144402128Y-99643717D01*
X144555567Y-100015069D01*
X144839437Y-100299434D01*
X145210520Y-100453521D01*
X145612323Y-100453872D01*
X145983675Y-100300433D01*
X146268040Y-100016563D01*
X146422127Y-99645480D01*
X146422165Y-99601411D01*
X146545484Y-99724730D01*
X146743187Y-99859815D01*
X146994349Y-99914299D01*
X147246920Y-99866775D01*
X147461102Y-99724730D01*
X148592000Y-98593832D01*
X148592000Y-101494737D01*
X148559808Y-101526873D01*
X148516175Y-101631952D01*
X147920721Y-101036498D01*
X147723018Y-100901413D01*
X147471856Y-100846929D01*
X147219285Y-100894453D01*
X147005103Y-101036498D01*
X146297997Y-101743604D01*
X146178970Y-101917806D01*
X146015154Y-102026448D01*
X145308048Y-102733554D01*
X145189023Y-102907753D01*
X145025204Y-103016397D01*
X144318098Y-103723503D01*
X144183013Y-103921206D01*
X144128529Y-104172368D01*
X143011204Y-104172368D01*
X143141415Y-103981799D01*
X143195899Y-103730637D01*
X143148375Y-103478066D01*
X143009360Y-103268453D01*
X143381526Y-103114677D01*
X143708124Y-102788648D01*
X143885095Y-102362454D01*
X143885498Y-101900977D01*
X143709271Y-101474474D01*
X143383242Y-101147876D01*
X142957048Y-100970905D01*
X142495571Y-100970502D01*
X142069068Y-101146729D01*
X141742470Y-101472758D01*
X141587323Y-101846395D01*
X141394413Y-101714585D01*
X141143251Y-101660101D01*
X140890680Y-101707625D01*
X140676498Y-101849670D01*
X139403706Y-103122462D01*
X139268621Y-103320165D01*
X139214137Y-103571327D01*
X112001335Y-103571327D01*
X111710000Y-103513377D01*
X110892971Y-103675894D01*
X110200327Y-104138704D01*
X109737517Y-104831348D01*
X109575000Y-105648377D01*
X107545000Y-105648377D01*
X107382483Y-104831348D01*
X106919673Y-104138704D01*
X106227029Y-103675894D01*
X105410000Y-103513377D01*
X104592971Y-103675894D01*
X103900327Y-104138704D01*
X103437517Y-104831348D01*
X103275000Y-105648377D01*
X101245000Y-105648377D01*
X101245000Y-105573000D01*
X101033882Y-104765638D01*
X100529870Y-104100524D01*
X99809696Y-103678916D01*
X99568833Y-103614887D01*
X99237000Y-103727835D01*
X98983000Y-103727835D01*
X98651167Y-103614887D01*
X98410304Y-103678916D01*
X97690130Y-104100524D01*
X97186118Y-104765638D01*
X96975000Y-105573000D01*
X95145000Y-105573000D01*
X95145000Y-100258377D01*
X96975000Y-100258377D01*
X96975000Y-101361623D01*
X97137517Y-102178652D01*
X97600327Y-102871296D01*
X98292971Y-103334106D01*
X99110000Y-103496623D01*
X99927029Y-103334106D01*
X100619673Y-102871296D01*
X101082483Y-102178652D01*
X101245000Y-101361623D01*
X101245000Y-100258377D01*
X103275000Y-100258377D01*
X103275000Y-101361623D01*
X103437517Y-102178652D01*
X103900327Y-102871296D01*
X104592971Y-103334106D01*
X105410000Y-103496623D01*
X106227029Y-103334106D01*
X106919673Y-102871296D01*
X107382483Y-102178652D01*
X107545000Y-101361623D01*
X107545000Y-100258377D01*
X109575000Y-100258377D01*
X109575000Y-101361623D01*
X109737517Y-102178652D01*
X110200327Y-102871296D01*
X110892971Y-103334106D01*
X111710000Y-103496623D01*
X112527029Y-103334106D01*
X113219673Y-102871296D01*
X113605966Y-102293167D01*
X114126838Y-102293167D01*
X114268883Y-102636943D01*
X114531673Y-102900192D01*
X114875201Y-103042838D01*
X115247167Y-103043162D01*
X115590943Y-102901117D01*
X115624118Y-102868000D01*
X119634000Y-102868000D01*
X119924839Y-102810148D01*
X120171401Y-102645401D01*
X120759401Y-102057401D01*
X120924148Y-101810839D01*
X120960629Y-101627440D01*
X120972000Y-101627440D01*
X121207317Y-101583162D01*
X121423441Y-101444090D01*
X121568431Y-101231890D01*
X121619440Y-100980000D01*
X121619440Y-99680000D01*
X121575162Y-99444683D01*
X121436090Y-99228559D01*
X121376841Y-99188076D01*
X121423441Y-99158090D01*
X121568431Y-98945890D01*
X121619440Y-98694000D01*
X121619440Y-97394000D01*
X121575162Y-97158683D01*
X121436090Y-96942559D01*
X121223890Y-96797569D01*
X121132000Y-96778961D01*
X121132000Y-94773440D01*
X121322000Y-94773440D01*
X121557317Y-94729162D01*
X121773441Y-94590090D01*
X121918431Y-94377890D01*
X121969440Y-94126000D01*
X121969440Y-93326000D01*
X121925162Y-93090683D01*
X121786090Y-92874559D01*
X121573890Y-92729569D01*
X121322000Y-92678560D01*
X119422000Y-92678560D01*
X119186683Y-92722838D01*
X118970559Y-92861910D01*
X118883936Y-92988686D01*
X118798250Y-92903000D01*
X117499000Y-92903000D01*
X117499000Y-92923000D01*
X117245000Y-92923000D01*
X117245000Y-92903000D01*
X115945750Y-92903000D01*
X115787000Y-93061750D01*
X115787000Y-93302310D01*
X115883673Y-93535699D01*
X116062302Y-93714327D01*
X116098747Y-93729423D01*
X115970559Y-93811910D01*
X115854342Y-93982000D01*
X115570000Y-93982000D01*
X115279161Y-94039852D01*
X115165983Y-94115475D01*
X115032599Y-94204599D01*
X114973120Y-94264078D01*
X114927633Y-94264038D01*
X114583857Y-94406083D01*
X114320608Y-94668873D01*
X114177962Y-95012401D01*
X114177638Y-95384367D01*
X114319683Y-95728143D01*
X114582473Y-95991392D01*
X114926001Y-96134038D01*
X115297967Y-96134362D01*
X115641743Y-95992317D01*
X115904992Y-95729527D01*
X115982055Y-95543939D01*
X116170110Y-95672431D01*
X116422000Y-95723440D01*
X118322000Y-95723440D01*
X118557317Y-95679162D01*
X118773441Y-95540090D01*
X118918431Y-95327890D01*
X118969440Y-95076000D01*
X118969440Y-94585319D01*
X119170110Y-94722431D01*
X119422000Y-94773440D01*
X119612000Y-94773440D01*
X119612000Y-96746560D01*
X119472000Y-96746560D01*
X119236683Y-96790838D01*
X119020559Y-96929910D01*
X118875569Y-97142110D01*
X118872919Y-97155197D01*
X118736090Y-96942559D01*
X118523890Y-96797569D01*
X118272000Y-96746560D01*
X116772000Y-96746560D01*
X116536683Y-96790838D01*
X116320559Y-96929910D01*
X116175569Y-97142110D01*
X116124560Y-97394000D01*
X116124560Y-98694000D01*
X116168838Y-98929317D01*
X116307910Y-99145441D01*
X116367159Y-99185924D01*
X116320559Y-99215910D01*
X116175569Y-99428110D01*
X116124560Y-99680000D01*
X116124560Y-100980000D01*
X116168838Y-101215317D01*
X116254217Y-101348000D01*
X115624463Y-101348000D01*
X115592327Y-101315808D01*
X115248799Y-101173162D01*
X114876833Y-101172838D01*
X114533057Y-101314883D01*
X114269808Y-101577673D01*
X114127162Y-101921201D01*
X114126838Y-102293167D01*
X113605966Y-102293167D01*
X113682483Y-102178652D01*
X113845000Y-101361623D01*
X113845000Y-100258377D01*
X113682483Y-99441348D01*
X113219673Y-98748704D01*
X112527029Y-98285894D01*
X111710000Y-98123377D01*
X110892971Y-98285894D01*
X110200327Y-98748704D01*
X109737517Y-99441348D01*
X109575000Y-100258377D01*
X107545000Y-100258377D01*
X107382483Y-99441348D01*
X106919673Y-98748704D01*
X106227029Y-98285894D01*
X105410000Y-98123377D01*
X104592971Y-98285894D01*
X103900327Y-98748704D01*
X103437517Y-99441348D01*
X103275000Y-100258377D01*
X101245000Y-100258377D01*
X101082483Y-99441348D01*
X100619673Y-98748704D01*
X99927029Y-98285894D01*
X99110000Y-98123377D01*
X98292971Y-98285894D01*
X97600327Y-98748704D01*
X97137517Y-99441348D01*
X96975000Y-100258377D01*
X95145000Y-100258377D01*
X95145000Y-92249690D01*
X115787000Y-92249690D01*
X115787000Y-92490250D01*
X115945750Y-92649000D01*
X117245000Y-92649000D01*
X117245000Y-91899750D01*
X117499000Y-91899750D01*
X117499000Y-92649000D01*
X118798250Y-92649000D01*
X118957000Y-92490250D01*
X118957000Y-92249690D01*
X118860327Y-92016301D01*
X118681698Y-91837673D01*
X118448309Y-91741000D01*
X117657750Y-91741000D01*
X117499000Y-91899750D01*
X117245000Y-91899750D01*
X117086250Y-91741000D01*
X116295691Y-91741000D01*
X116062302Y-91837673D01*
X115883673Y-92016301D01*
X115787000Y-92249690D01*
X95145000Y-92249690D01*
X95145000Y-91117167D01*
X114736438Y-91117167D01*
X114878483Y-91460943D01*
X115141273Y-91724192D01*
X115484801Y-91866838D01*
X115856767Y-91867162D01*
X116200543Y-91725117D01*
X116233718Y-91692000D01*
X122322737Y-91692000D01*
X122354873Y-91724192D01*
X122698401Y-91866838D01*
X123070367Y-91867162D01*
X123414143Y-91725117D01*
X123677392Y-91462327D01*
X123820038Y-91118799D01*
X123820362Y-90746833D01*
X123678317Y-90403057D01*
X123415527Y-90139808D01*
X123071999Y-89997162D01*
X122700033Y-89996838D01*
X122356257Y-90138883D01*
X122323082Y-90172000D01*
X116234063Y-90172000D01*
X116201927Y-90139808D01*
X115858399Y-89997162D01*
X115486433Y-89996838D01*
X115142657Y-90138883D01*
X114879408Y-90401673D01*
X114736762Y-90745201D01*
X114736438Y-91117167D01*
X95145000Y-91117167D01*
X95145000Y-89643967D01*
X132668838Y-89643967D01*
X132719000Y-89765369D01*
X132719000Y-93469978D01*
X132669162Y-93590001D01*
X132668838Y-93961967D01*
X132810883Y-94305743D01*
X133073673Y-94568992D01*
X133417201Y-94711638D01*
X133789167Y-94711962D01*
X134132943Y-94569917D01*
X134396192Y-94307127D01*
X134538838Y-93963599D01*
X134539162Y-93591633D01*
X134489000Y-93470231D01*
X134489000Y-91012202D01*
X139154551Y-95677753D01*
X139154551Y-98612850D01*
X139187292Y-98777446D01*
X139127200Y-98865393D01*
X139072716Y-99116555D01*
X139120240Y-99369126D01*
X139262285Y-99583308D01*
X140216879Y-100537902D01*
X140414582Y-100672987D01*
X140665744Y-100727471D01*
X140918315Y-100679947D01*
X141132497Y-100537902D01*
X141839603Y-99830796D01*
X141959495Y-99655329D01*
X142024335Y-99628471D01*
X142202963Y-99449842D01*
X142265147Y-99387659D01*
X142265147Y-99163152D01*
X141540893Y-98438898D01*
X141526751Y-98453041D01*
X141347146Y-98273436D01*
X141361288Y-98259293D01*
X141347146Y-98245151D01*
X141526751Y-98065546D01*
X141540893Y-98079688D01*
X141555036Y-98065546D01*
X141734641Y-98245151D01*
X141720498Y-98259293D01*
X142444752Y-98983547D01*
X142669259Y-98983547D01*
X142731442Y-98921363D01*
X142910071Y-98742735D01*
X142938940Y-98673038D01*
X143112396Y-98558003D01*
X143819502Y-97850897D01*
X143954587Y-97653194D01*
X144009071Y-97402032D01*
X143961547Y-97149461D01*
X143819502Y-96935279D01*
X142864908Y-95980685D01*
X142667205Y-95845600D01*
X142416043Y-95791116D01*
X142173125Y-95836824D01*
X138371272Y-92034971D01*
X138700401Y-92171638D01*
X138866493Y-92171783D01*
X138866438Y-92234767D01*
X139008483Y-92578543D01*
X139271273Y-92841792D01*
X139614801Y-92984438D01*
X139780981Y-92984583D01*
X139780838Y-93149167D01*
X139922883Y-93492943D01*
X140185673Y-93756192D01*
X140529201Y-93898838D01*
X140901167Y-93899162D01*
X141244943Y-93757117D01*
X141278118Y-93724000D01*
X144573137Y-93724000D01*
X144605273Y-93756192D01*
X144948801Y-93898838D01*
X145320767Y-93899162D01*
X145664543Y-93757117D01*
X145927792Y-93494327D01*
X146070438Y-93150799D01*
X146070762Y-92778833D01*
X145928717Y-92435057D01*
X145665927Y-92171808D01*
X145322399Y-92029162D01*
X145206974Y-92029061D01*
X145207162Y-91813633D01*
X145065117Y-91469857D01*
X144802327Y-91206608D01*
X144458799Y-91063962D01*
X144241907Y-91063773D01*
X144241962Y-91000833D01*
X144099917Y-90657057D01*
X143837127Y-90393808D01*
X143581519Y-90287670D01*
X143581562Y-90238833D01*
X143439517Y-89895057D01*
X143176727Y-89631808D01*
X142833199Y-89489162D01*
X142461233Y-89488838D01*
X142117457Y-89630883D01*
X142084282Y-89664000D01*
X138687663Y-89664000D01*
X138655527Y-89631808D01*
X138311999Y-89489162D01*
X137940033Y-89488838D01*
X137679972Y-89596293D01*
X137896415Y-89451670D01*
X138221271Y-88965489D01*
X138335345Y-88392000D01*
X138221271Y-87818511D01*
X138185094Y-87764367D01*
X146384838Y-87764367D01*
X146526883Y-88108143D01*
X146560000Y-88141318D01*
X146560000Y-91233137D01*
X146527808Y-91265273D01*
X146385162Y-91608801D01*
X146384838Y-91980767D01*
X146526883Y-92324543D01*
X146789673Y-92587792D01*
X147133201Y-92730438D01*
X147505167Y-92730762D01*
X147848943Y-92588717D01*
X148112192Y-92325927D01*
X148254838Y-91982399D01*
X148255162Y-91610433D01*
X148113117Y-91266657D01*
X148080000Y-91233482D01*
X148080000Y-88141663D01*
X148112192Y-88109527D01*
X148254838Y-87765999D01*
X148255162Y-87394033D01*
X148113117Y-87050257D01*
X147850327Y-86787008D01*
X147506799Y-86644362D01*
X147134833Y-86644038D01*
X146791057Y-86786083D01*
X146527808Y-87048873D01*
X146385162Y-87392401D01*
X146384838Y-87764367D01*
X138185094Y-87764367D01*
X137896415Y-87332330D01*
X137581634Y-87122000D01*
X137896415Y-86911670D01*
X138221271Y-86425489D01*
X138335345Y-85852000D01*
X138221271Y-85278511D01*
X137896415Y-84792330D01*
X137581634Y-84582000D01*
X137896415Y-84371670D01*
X138221271Y-83885489D01*
X138335345Y-83312000D01*
X138221271Y-82738511D01*
X137896415Y-82252330D01*
X137581634Y-82042000D01*
X137896415Y-81831670D01*
X138221271Y-81345489D01*
X138335345Y-80772000D01*
X138221271Y-80198511D01*
X137896415Y-79712330D01*
X137581634Y-79502000D01*
X137896415Y-79291670D01*
X138221271Y-78805489D01*
X138335345Y-78232000D01*
X138221271Y-77658511D01*
X137896415Y-77172330D01*
X137581634Y-76962000D01*
X137896415Y-76751670D01*
X138221271Y-76265489D01*
X138335345Y-75692000D01*
X138221271Y-75118511D01*
X137896415Y-74632330D01*
X137581634Y-74422000D01*
X137896415Y-74211670D01*
X138221271Y-73725489D01*
X138335345Y-73152000D01*
X138221271Y-72578511D01*
X137896415Y-72092330D01*
X137581634Y-71882000D01*
X137896415Y-71671670D01*
X138221271Y-71185489D01*
X138335345Y-70612000D01*
X138221271Y-70038511D01*
X137896415Y-69552330D01*
X137581634Y-69342000D01*
X137896415Y-69131670D01*
X138221271Y-68645489D01*
X138335345Y-68072000D01*
X138221271Y-67498511D01*
X137896415Y-67012330D01*
X137581634Y-66802000D01*
X137896415Y-66591670D01*
X138221271Y-66105489D01*
X138335345Y-65532000D01*
X138221271Y-64958511D01*
X137896415Y-64472330D01*
X137581634Y-64262000D01*
X137896415Y-64051670D01*
X138221271Y-63565489D01*
X138335345Y-62992000D01*
X138221271Y-62418511D01*
X137896415Y-61932330D01*
X137581634Y-61722000D01*
X137896415Y-61511670D01*
X138221271Y-61025489D01*
X138335345Y-60452000D01*
X138221271Y-59878511D01*
X137896415Y-59392330D01*
X137586931Y-59185539D01*
X138002732Y-58814036D01*
X138256709Y-58286791D01*
X138259358Y-58271026D01*
X138138217Y-58039000D01*
X136779000Y-58039000D01*
X136779000Y-58059000D01*
X136525000Y-58059000D01*
X136525000Y-58039000D01*
X135165783Y-58039000D01*
X135044642Y-58271026D01*
X135047291Y-58286791D01*
X135301268Y-58814036D01*
X135717069Y-59185539D01*
X135407585Y-59392330D01*
X135082729Y-59878511D01*
X134968655Y-60452000D01*
X135082729Y-61025489D01*
X135407585Y-61511670D01*
X135722366Y-61722000D01*
X135407585Y-61932330D01*
X135082729Y-62418511D01*
X134968655Y-62992000D01*
X135082729Y-63565489D01*
X135407585Y-64051670D01*
X135722366Y-64262000D01*
X135407585Y-64472330D01*
X135082729Y-64958511D01*
X134968655Y-65532000D01*
X135082729Y-66105489D01*
X135407585Y-66591670D01*
X135722366Y-66802000D01*
X135407585Y-67012330D01*
X135082729Y-67498511D01*
X134968655Y-68072000D01*
X135082729Y-68645489D01*
X135407585Y-69131670D01*
X135722366Y-69342000D01*
X135407585Y-69552330D01*
X135082729Y-70038511D01*
X134968655Y-70612000D01*
X135082729Y-71185489D01*
X135407585Y-71671670D01*
X135722366Y-71882000D01*
X135407585Y-72092330D01*
X135082729Y-72578511D01*
X134968655Y-73152000D01*
X135082729Y-73725489D01*
X135407585Y-74211670D01*
X135722366Y-74422000D01*
X135407585Y-74632330D01*
X135082729Y-75118511D01*
X134968655Y-75692000D01*
X135082729Y-76265489D01*
X135407585Y-76751670D01*
X135722366Y-76962000D01*
X135407585Y-77172330D01*
X135082729Y-77658511D01*
X134968655Y-78232000D01*
X135082729Y-78805489D01*
X135407585Y-79291670D01*
X135722366Y-79502000D01*
X135407585Y-79712330D01*
X135082729Y-80198511D01*
X134968655Y-80772000D01*
X135082729Y-81345489D01*
X135407585Y-81831670D01*
X135722366Y-82042000D01*
X135407585Y-82252330D01*
X135108313Y-82700221D01*
X134996999Y-82774599D01*
X134158799Y-83612799D01*
X133994052Y-83859361D01*
X133936200Y-84150200D01*
X133936200Y-88584338D01*
X133790799Y-88523962D01*
X133418833Y-88523638D01*
X133075057Y-88665683D01*
X132811808Y-88928473D01*
X132669162Y-89272001D01*
X132668838Y-89643967D01*
X95145000Y-89643967D01*
X95145000Y-84737000D01*
X96975000Y-84737000D01*
X96975000Y-85237000D01*
X97186118Y-86044362D01*
X97690130Y-86709476D01*
X98410304Y-87131084D01*
X98651167Y-87195113D01*
X98983000Y-87082165D01*
X98983000Y-84737000D01*
X99237000Y-84737000D01*
X99237000Y-87082165D01*
X99568833Y-87195113D01*
X99809696Y-87131084D01*
X100529870Y-86709476D01*
X101033882Y-86044362D01*
X101245000Y-85237000D01*
X101245000Y-84737000D01*
X99237000Y-84737000D01*
X98983000Y-84737000D01*
X96975000Y-84737000D01*
X95145000Y-84737000D01*
X95145000Y-83983000D01*
X96975000Y-83983000D01*
X96975000Y-84483000D01*
X98983000Y-84483000D01*
X98983000Y-82137835D01*
X99237000Y-82137835D01*
X99237000Y-84483000D01*
X101245000Y-84483000D01*
X101245000Y-84058377D01*
X103275000Y-84058377D01*
X103275000Y-85161623D01*
X103437517Y-85978652D01*
X103900327Y-86671296D01*
X104592971Y-87134106D01*
X105410000Y-87296623D01*
X106227029Y-87134106D01*
X106919673Y-86671296D01*
X107382483Y-85978652D01*
X107545000Y-85161623D01*
X107545000Y-84058377D01*
X109575000Y-84058377D01*
X109575000Y-85161623D01*
X109737517Y-85978652D01*
X110200327Y-86671296D01*
X110892971Y-87134106D01*
X111710000Y-87296623D01*
X112527029Y-87134106D01*
X113219673Y-86671296D01*
X113682483Y-85978652D01*
X113845000Y-85161623D01*
X113845000Y-84058377D01*
X113682483Y-83241348D01*
X113219673Y-82548704D01*
X112527029Y-82085894D01*
X112471090Y-82074767D01*
X113263238Y-82074767D01*
X113405283Y-82418543D01*
X113668073Y-82681792D01*
X114011601Y-82824438D01*
X114383567Y-82824762D01*
X114727343Y-82682717D01*
X114760518Y-82649600D01*
X116683937Y-82649600D01*
X116716073Y-82681792D01*
X117059601Y-82824438D01*
X117431567Y-82824762D01*
X117775343Y-82682717D01*
X117875467Y-82582767D01*
X120730838Y-82582767D01*
X120872883Y-82926543D01*
X121135673Y-83189792D01*
X121472420Y-83329622D01*
X124591678Y-86448880D01*
X124591638Y-86494367D01*
X124733683Y-86838143D01*
X124996473Y-87101392D01*
X125340001Y-87244038D01*
X125711967Y-87244362D01*
X126055743Y-87102317D01*
X126318992Y-86839527D01*
X126461638Y-86495999D01*
X126461962Y-86124033D01*
X126319917Y-85780257D01*
X126057127Y-85517008D01*
X125713599Y-85374362D01*
X125666723Y-85374321D01*
X122601078Y-82308676D01*
X122601162Y-82212433D01*
X122459117Y-81868657D01*
X122196327Y-81605408D01*
X121852799Y-81462762D01*
X121480833Y-81462438D01*
X121137057Y-81604483D01*
X120873808Y-81867273D01*
X120731162Y-82210801D01*
X120730838Y-82582767D01*
X117875467Y-82582767D01*
X118038592Y-82419927D01*
X118181238Y-82076399D01*
X118181562Y-81704433D01*
X118039517Y-81360657D01*
X117776727Y-81097408D01*
X117433199Y-80954762D01*
X117061233Y-80954438D01*
X116717457Y-81096483D01*
X116684282Y-81129600D01*
X114760863Y-81129600D01*
X114728727Y-81097408D01*
X114385199Y-80954762D01*
X114013233Y-80954438D01*
X113669457Y-81096483D01*
X113406208Y-81359273D01*
X113263562Y-81702801D01*
X113263238Y-82074767D01*
X112471090Y-82074767D01*
X111710000Y-81923377D01*
X110892971Y-82085894D01*
X110200327Y-82548704D01*
X109737517Y-83241348D01*
X109575000Y-84058377D01*
X107545000Y-84058377D01*
X107382483Y-83241348D01*
X106919673Y-82548704D01*
X106227029Y-82085894D01*
X105410000Y-81923377D01*
X104592971Y-82085894D01*
X103900327Y-82548704D01*
X103437517Y-83241348D01*
X103275000Y-84058377D01*
X101245000Y-84058377D01*
X101245000Y-83983000D01*
X101033882Y-83175638D01*
X100529870Y-82510524D01*
X99809696Y-82088916D01*
X99568833Y-82024887D01*
X99237000Y-82137835D01*
X98983000Y-82137835D01*
X98651167Y-82024887D01*
X98410304Y-82088916D01*
X97690130Y-82510524D01*
X97186118Y-83175638D01*
X96975000Y-83983000D01*
X95145000Y-83983000D01*
X95145000Y-78668377D01*
X96975000Y-78668377D01*
X96975000Y-79771623D01*
X97137517Y-80588652D01*
X97600327Y-81281296D01*
X98292971Y-81744106D01*
X99110000Y-81906623D01*
X99927029Y-81744106D01*
X100619673Y-81281296D01*
X101082483Y-80588652D01*
X101245000Y-79771623D01*
X101245000Y-78668377D01*
X103275000Y-78668377D01*
X103275000Y-79771623D01*
X103437517Y-80588652D01*
X103900327Y-81281296D01*
X104592971Y-81744106D01*
X105410000Y-81906623D01*
X106227029Y-81744106D01*
X106919673Y-81281296D01*
X107382483Y-80588652D01*
X107545000Y-79771623D01*
X107545000Y-78668377D01*
X109575000Y-78668377D01*
X109575000Y-79771623D01*
X109737517Y-80588652D01*
X110200327Y-81281296D01*
X110892971Y-81744106D01*
X111710000Y-81906623D01*
X112527029Y-81744106D01*
X113219673Y-81281296D01*
X113682483Y-80588652D01*
X113845000Y-79771623D01*
X113845000Y-78668377D01*
X113682483Y-77851348D01*
X113219673Y-77158704D01*
X112527029Y-76695894D01*
X111710000Y-76533377D01*
X110892971Y-76695894D01*
X110200327Y-77158704D01*
X109737517Y-77851348D01*
X109575000Y-78668377D01*
X107545000Y-78668377D01*
X107382483Y-77851348D01*
X106919673Y-77158704D01*
X106227029Y-76695894D01*
X105410000Y-76533377D01*
X104592971Y-76695894D01*
X103900327Y-77158704D01*
X103437517Y-77851348D01*
X103275000Y-78668377D01*
X101245000Y-78668377D01*
X101082483Y-77851348D01*
X100619673Y-77158704D01*
X99927029Y-76695894D01*
X99110000Y-76533377D01*
X98292971Y-76695894D01*
X97600327Y-77158704D01*
X97137517Y-77851348D01*
X96975000Y-78668377D01*
X95145000Y-78668377D01*
X95145000Y-74911967D01*
X112552038Y-74911967D01*
X112694083Y-75255743D01*
X112956873Y-75518992D01*
X113300401Y-75661638D01*
X113672367Y-75661962D01*
X114016143Y-75519917D01*
X114279392Y-75257127D01*
X114422038Y-74913599D01*
X114422362Y-74541633D01*
X114280317Y-74197857D01*
X114253854Y-74171348D01*
X114579202Y-73846000D01*
X115899069Y-73846000D01*
X115957910Y-73937441D01*
X116170110Y-74082431D01*
X116422000Y-74133440D01*
X118322000Y-74133440D01*
X118557317Y-74089162D01*
X118773441Y-73950090D01*
X118918431Y-73737890D01*
X118969440Y-73486000D01*
X118969440Y-72995319D01*
X119170110Y-73132431D01*
X119422000Y-73183440D01*
X119636000Y-73183440D01*
X119636000Y-73345198D01*
X119350599Y-73630599D01*
X119185852Y-73877161D01*
X119128000Y-74168000D01*
X119128000Y-75173495D01*
X118982683Y-75200838D01*
X118766559Y-75339910D01*
X118621569Y-75552110D01*
X118618919Y-75565197D01*
X118482090Y-75352559D01*
X118269890Y-75207569D01*
X118018000Y-75156560D01*
X116518000Y-75156560D01*
X116282683Y-75200838D01*
X116066559Y-75339910D01*
X115921569Y-75552110D01*
X115870560Y-75804000D01*
X115870560Y-77104000D01*
X115914838Y-77339317D01*
X116053910Y-77555441D01*
X116113159Y-77595924D01*
X116066559Y-77625910D01*
X115921569Y-77838110D01*
X115870560Y-78090000D01*
X115870560Y-79390000D01*
X115914838Y-79625317D01*
X116053910Y-79841441D01*
X116266110Y-79986431D01*
X116518000Y-80037440D01*
X118018000Y-80037440D01*
X118253317Y-79993162D01*
X118469441Y-79854090D01*
X118614431Y-79641890D01*
X118617081Y-79628803D01*
X118753910Y-79841441D01*
X118966110Y-79986431D01*
X119208000Y-80035415D01*
X119208000Y-80129537D01*
X119175808Y-80161673D01*
X119033162Y-80505201D01*
X119032838Y-80877167D01*
X119174883Y-81220943D01*
X119437673Y-81484192D01*
X119781201Y-81626838D01*
X120153167Y-81627162D01*
X120496943Y-81485117D01*
X120760192Y-81222327D01*
X120902838Y-80878799D01*
X120903162Y-80506833D01*
X120761117Y-80163057D01*
X120728000Y-80129882D01*
X120728000Y-80035558D01*
X120953317Y-79993162D01*
X121169441Y-79854090D01*
X121314431Y-79641890D01*
X121365440Y-79390000D01*
X121365440Y-78090000D01*
X121321162Y-77854683D01*
X121182090Y-77638559D01*
X121122841Y-77598076D01*
X121169441Y-77568090D01*
X121314431Y-77355890D01*
X121365440Y-77104000D01*
X121365440Y-76622005D01*
X125278811Y-76622005D01*
X125420856Y-76965781D01*
X125683646Y-77229030D01*
X126027174Y-77371676D01*
X126399140Y-77372000D01*
X126742916Y-77229955D01*
X126776091Y-77196838D01*
X129811162Y-77196838D01*
X130102001Y-77138986D01*
X130348563Y-76974239D01*
X130441680Y-76881122D01*
X130487167Y-76881162D01*
X130830943Y-76739117D01*
X131094192Y-76476327D01*
X131236838Y-76132799D01*
X131237162Y-75760833D01*
X131095117Y-75417057D01*
X130832327Y-75153808D01*
X130488799Y-75011162D01*
X130116833Y-75010838D01*
X129773057Y-75152883D01*
X129509808Y-75415673D01*
X129401362Y-75676838D01*
X126776436Y-75676838D01*
X126744300Y-75644646D01*
X126400772Y-75502000D01*
X126028806Y-75501676D01*
X125685030Y-75643721D01*
X125421781Y-75906511D01*
X125279135Y-76250039D01*
X125278811Y-76622005D01*
X121365440Y-76622005D01*
X121365440Y-75804000D01*
X121321162Y-75568683D01*
X121182090Y-75352559D01*
X120969890Y-75207569D01*
X120718000Y-75156560D01*
X120648000Y-75156560D01*
X120648000Y-74482802D01*
X120933401Y-74197401D01*
X120999038Y-74099167D01*
X123778838Y-74099167D01*
X123920883Y-74442943D01*
X124183673Y-74706192D01*
X124527201Y-74848838D01*
X124899167Y-74849162D01*
X125242943Y-74707117D01*
X125276118Y-74674000D01*
X127707537Y-74674000D01*
X127739673Y-74706192D01*
X128083201Y-74848838D01*
X128455167Y-74849162D01*
X128798943Y-74707117D01*
X129062192Y-74444327D01*
X129204838Y-74100799D01*
X129205162Y-73728833D01*
X129064320Y-73387967D01*
X132668838Y-73387967D01*
X132719000Y-73509369D01*
X132719000Y-79550778D01*
X132669162Y-79670801D01*
X132668838Y-80042767D01*
X132810883Y-80386543D01*
X133073673Y-80649792D01*
X133417201Y-80792438D01*
X133789167Y-80792762D01*
X134132943Y-80650717D01*
X134396192Y-80387927D01*
X134538838Y-80044399D01*
X134539162Y-79672433D01*
X134489000Y-79551031D01*
X134489000Y-73509622D01*
X134538838Y-73389599D01*
X134539162Y-73017633D01*
X134397117Y-72673857D01*
X134134327Y-72410608D01*
X133790799Y-72267962D01*
X133418833Y-72267638D01*
X133075057Y-72409683D01*
X132811808Y-72672473D01*
X132669162Y-73016001D01*
X132668838Y-73387967D01*
X129064320Y-73387967D01*
X129063117Y-73385057D01*
X128800327Y-73121808D01*
X128456799Y-72979162D01*
X128084833Y-72978838D01*
X127741057Y-73120883D01*
X127707882Y-73154000D01*
X125276463Y-73154000D01*
X125244327Y-73121808D01*
X124900799Y-72979162D01*
X124528833Y-72978838D01*
X124185057Y-73120883D01*
X123921808Y-73383673D01*
X123779162Y-73727201D01*
X123778838Y-74099167D01*
X120999038Y-74099167D01*
X121098147Y-73950840D01*
X121098148Y-73950839D01*
X121156000Y-73660000D01*
X121156000Y-73183440D01*
X121322000Y-73183440D01*
X121557317Y-73139162D01*
X121773441Y-73000090D01*
X121918431Y-72787890D01*
X121969440Y-72536000D01*
X121969440Y-71736000D01*
X121925162Y-71500683D01*
X121786090Y-71284559D01*
X121573890Y-71139569D01*
X121322000Y-71088560D01*
X119422000Y-71088560D01*
X119186683Y-71132838D01*
X118970559Y-71271910D01*
X118883936Y-71398686D01*
X118798250Y-71313000D01*
X117499000Y-71313000D01*
X117499000Y-71333000D01*
X117245000Y-71333000D01*
X117245000Y-71313000D01*
X115945750Y-71313000D01*
X115787000Y-71471750D01*
X115787000Y-71712310D01*
X115883673Y-71945699D01*
X116062302Y-72124327D01*
X116098747Y-72139423D01*
X115970559Y-72221910D01*
X115899437Y-72326000D01*
X114264400Y-72326000D01*
X113973561Y-72383852D01*
X113726999Y-72548599D01*
X112949799Y-73325799D01*
X112785052Y-73572361D01*
X112727200Y-73863200D01*
X112727200Y-74164337D01*
X112695008Y-74196473D01*
X112552362Y-74540001D01*
X112552038Y-74911967D01*
X95145000Y-74911967D01*
X95145000Y-70659690D01*
X115787000Y-70659690D01*
X115787000Y-70900250D01*
X115945750Y-71059000D01*
X117245000Y-71059000D01*
X117245000Y-70309750D01*
X117499000Y-70309750D01*
X117499000Y-71059000D01*
X118798250Y-71059000D01*
X118957000Y-70900250D01*
X118957000Y-70659690D01*
X118860327Y-70426301D01*
X118681698Y-70247673D01*
X118448309Y-70151000D01*
X117657750Y-70151000D01*
X117499000Y-70309750D01*
X117245000Y-70309750D01*
X117086250Y-70151000D01*
X116295691Y-70151000D01*
X116062302Y-70247673D01*
X115883673Y-70426301D01*
X115787000Y-70659690D01*
X95145000Y-70659690D01*
X95145000Y-63147000D01*
X96975000Y-63147000D01*
X96975000Y-63647000D01*
X97186118Y-64454362D01*
X97690130Y-65119476D01*
X98410304Y-65541084D01*
X98651167Y-65605113D01*
X98983000Y-65492165D01*
X98983000Y-63147000D01*
X99237000Y-63147000D01*
X99237000Y-65492165D01*
X99568833Y-65605113D01*
X99809696Y-65541084D01*
X100529870Y-65119476D01*
X101033882Y-64454362D01*
X101245000Y-63647000D01*
X101245000Y-63147000D01*
X99237000Y-63147000D01*
X98983000Y-63147000D01*
X96975000Y-63147000D01*
X95145000Y-63147000D01*
X95145000Y-62393000D01*
X96975000Y-62393000D01*
X96975000Y-62893000D01*
X98983000Y-62893000D01*
X98983000Y-60547835D01*
X99237000Y-60547835D01*
X99237000Y-62893000D01*
X101245000Y-62893000D01*
X101245000Y-62468377D01*
X103275000Y-62468377D01*
X103275000Y-63571623D01*
X103437517Y-64388652D01*
X103900327Y-65081296D01*
X104592971Y-65544106D01*
X105410000Y-65706623D01*
X106227029Y-65544106D01*
X106919673Y-65081296D01*
X107382483Y-64388652D01*
X107545000Y-63571623D01*
X107545000Y-62468377D01*
X109575000Y-62468377D01*
X109575000Y-63571623D01*
X109737517Y-64388652D01*
X110200327Y-65081296D01*
X110892971Y-65544106D01*
X111710000Y-65706623D01*
X112527029Y-65544106D01*
X113219673Y-65081296D01*
X113682483Y-64388652D01*
X113845000Y-63571623D01*
X113845000Y-62468377D01*
X113682483Y-61651348D01*
X113219673Y-60958704D01*
X112527029Y-60495894D01*
X111710000Y-60333377D01*
X110892971Y-60495894D01*
X110200327Y-60958704D01*
X109737517Y-61651348D01*
X109575000Y-62468377D01*
X107545000Y-62468377D01*
X107382483Y-61651348D01*
X106919673Y-60958704D01*
X106227029Y-60495894D01*
X105410000Y-60333377D01*
X104592971Y-60495894D01*
X103900327Y-60958704D01*
X103437517Y-61651348D01*
X103275000Y-62468377D01*
X101245000Y-62468377D01*
X101245000Y-62393000D01*
X101033882Y-61585638D01*
X100529870Y-60920524D01*
X99809696Y-60498916D01*
X99568833Y-60434887D01*
X99237000Y-60547835D01*
X98983000Y-60547835D01*
X98651167Y-60434887D01*
X98410304Y-60498916D01*
X97690130Y-60920524D01*
X97186118Y-61585638D01*
X96975000Y-62393000D01*
X95145000Y-62393000D01*
X95145000Y-58526815D01*
X97116630Y-58526815D01*
X97440980Y-59311800D01*
X98041041Y-59912909D01*
X98825459Y-60238628D01*
X99674815Y-60239370D01*
X100459800Y-59915020D01*
X101060909Y-59314959D01*
X101386628Y-58530541D01*
X101387370Y-57681185D01*
X101063020Y-56896200D01*
X100462959Y-56295091D01*
X99678541Y-55969372D01*
X98829185Y-55968630D01*
X98044200Y-56292980D01*
X97443091Y-56893041D01*
X97117372Y-57677459D01*
X97116630Y-58526815D01*
X95145000Y-58526815D01*
X95145000Y-57826390D01*
X95482957Y-56127366D01*
X95987675Y-55372000D01*
X134968655Y-55372000D01*
X135082729Y-55945489D01*
X135407585Y-56431670D01*
X135717069Y-56638461D01*
X135301268Y-57009964D01*
X135047291Y-57537209D01*
X135044642Y-57552974D01*
X135165783Y-57785000D01*
X136525000Y-57785000D01*
X136525000Y-57765000D01*
X136779000Y-57765000D01*
X136779000Y-57785000D01*
X138138217Y-57785000D01*
X138259358Y-57552974D01*
X138256709Y-57537209D01*
X138002732Y-57009964D01*
X137586931Y-56638461D01*
X137896415Y-56431670D01*
X138221271Y-55945489D01*
X138335345Y-55372000D01*
X138221271Y-54798511D01*
X137896415Y-54312330D01*
X137772736Y-54229690D01*
X150241000Y-54229690D01*
X150241000Y-55086250D01*
X150399750Y-55245000D01*
X151765000Y-55245000D01*
X151765000Y-53879750D01*
X152019000Y-53879750D01*
X152019000Y-55245000D01*
X153384250Y-55245000D01*
X153543000Y-55086250D01*
X153543000Y-54229690D01*
X153446327Y-53996301D01*
X153267698Y-53817673D01*
X153034309Y-53721000D01*
X152177750Y-53721000D01*
X152019000Y-53879750D01*
X151765000Y-53879750D01*
X151606250Y-53721000D01*
X150749691Y-53721000D01*
X150516302Y-53817673D01*
X150337673Y-53996301D01*
X150241000Y-54229690D01*
X137772736Y-54229690D01*
X137410234Y-53987474D01*
X136836745Y-53873400D01*
X136467255Y-53873400D01*
X135893766Y-53987474D01*
X135407585Y-54312330D01*
X135082729Y-54798511D01*
X134968655Y-55372000D01*
X95987675Y-55372000D01*
X96404371Y-54748371D01*
X97783366Y-53826957D01*
X99482390Y-53489000D01*
X189137610Y-53489000D01*
X190836634Y-53826957D01*
X190836634Y-53826957D01*
G37*
X190836634Y-53826957D02*
X192215629Y-54748371D01*
X193137043Y-56127366D01*
X193475000Y-57826390D01*
X193475000Y-147481610D01*
X193137043Y-149180634D01*
X192215629Y-150559629D01*
X190836634Y-151481043D01*
X189137610Y-151819000D01*
X99482390Y-151819000D01*
X97783366Y-151481043D01*
X96404371Y-150559629D01*
X96128198Y-150146305D01*
X137386674Y-150146305D01*
X137673043Y-150839372D01*
X138202839Y-151370093D01*
X138895405Y-151657672D01*
X139645305Y-151658326D01*
X140338372Y-151371957D01*
X140869093Y-150842161D01*
X141156672Y-150149595D01*
X141156674Y-150146305D01*
X147386674Y-150146305D01*
X147673043Y-150839372D01*
X148202839Y-151370093D01*
X148895405Y-151657672D01*
X149645305Y-151658326D01*
X150338372Y-151371957D01*
X150869093Y-150842161D01*
X151156672Y-150149595D01*
X151157326Y-149399695D01*
X150870957Y-148706628D01*
X150341161Y-148175907D01*
X149648595Y-147888328D01*
X148898695Y-147887674D01*
X148205628Y-148174043D01*
X147674907Y-148703839D01*
X147387328Y-149396405D01*
X147386674Y-150146305D01*
X141156674Y-150146305D01*
X141157326Y-149399695D01*
X140870957Y-148706628D01*
X140341161Y-148175907D01*
X139648595Y-147888328D01*
X138898695Y-147887674D01*
X138205628Y-148174043D01*
X137674907Y-148703839D01*
X137387328Y-149396405D01*
X137386674Y-150146305D01*
X96128198Y-150146305D01*
X95482957Y-149180634D01*
X95243503Y-147976815D01*
X117274630Y-147976815D01*
X117598980Y-148761800D01*
X118199041Y-149362909D01*
X118983459Y-149688628D01*
X119832815Y-149689370D01*
X120617800Y-149365020D01*
X121218909Y-148764959D01*
X121544628Y-147980541D01*
X121545370Y-147131185D01*
X121221020Y-146346200D01*
X120620959Y-145745091D01*
X119836541Y-145419372D01*
X118987185Y-145418630D01*
X118202200Y-145742980D01*
X117601091Y-146343041D01*
X117275372Y-147127459D01*
X117274630Y-147976815D01*
X95243503Y-147976815D01*
X95145000Y-147481610D01*
X95145000Y-143438377D01*
X96975000Y-143438377D01*
X96975000Y-144541623D01*
X97137517Y-145358652D01*
X97600327Y-146051296D01*
X98292971Y-146514106D01*
X99110000Y-146676623D01*
X99927029Y-146514106D01*
X100619673Y-146051296D01*
X101082483Y-145358652D01*
X101245000Y-144541623D01*
X101245000Y-143438377D01*
X103275000Y-143438377D01*
X103275000Y-144541623D01*
X103437517Y-145358652D01*
X103900327Y-146051296D01*
X104592971Y-146514106D01*
X105410000Y-146676623D01*
X106227029Y-146514106D01*
X106919673Y-146051296D01*
X107382483Y-145358652D01*
X107545000Y-144541623D01*
X107545000Y-143438377D01*
X109575000Y-143438377D01*
X109575000Y-144541623D01*
X109737517Y-145358652D01*
X110200327Y-146051296D01*
X110892971Y-146514106D01*
X111710000Y-146676623D01*
X112527029Y-146514106D01*
X113219673Y-146051296D01*
X113682483Y-145358652D01*
X113845000Y-144541623D01*
X113845000Y-143438377D01*
X113682483Y-142621348D01*
X113219673Y-141928704D01*
X112527029Y-141465894D01*
X111710000Y-141303377D01*
X110892971Y-141465894D01*
X110200327Y-141928704D01*
X109737517Y-142621348D01*
X109575000Y-143438377D01*
X107545000Y-143438377D01*
X107382483Y-142621348D01*
X106919673Y-141928704D01*
X106227029Y-141465894D01*
X105410000Y-141303377D01*
X104592971Y-141465894D01*
X103900327Y-141928704D01*
X103437517Y-142621348D01*
X103275000Y-143438377D01*
X101245000Y-143438377D01*
X101082483Y-142621348D01*
X100619673Y-141928704D01*
X99927029Y-141465894D01*
X99110000Y-141303377D01*
X98292971Y-141465894D01*
X97600327Y-141928704D01*
X97137517Y-142621348D01*
X96975000Y-143438377D01*
X95145000Y-143438377D01*
X95145000Y-140393167D01*
X114634838Y-140393167D01*
X114776883Y-140736943D01*
X115039673Y-141000192D01*
X115383201Y-141142838D01*
X115755167Y-141143162D01*
X115979685Y-141050393D01*
X116016438Y-141245717D01*
X116134494Y-141429181D01*
X116023169Y-141592110D01*
X115972160Y-141844000D01*
X115972160Y-143144000D01*
X116016438Y-143379317D01*
X116155510Y-143595441D01*
X116367710Y-143740431D01*
X116619600Y-143791440D01*
X118119600Y-143791440D01*
X118354917Y-143747162D01*
X118571041Y-143608090D01*
X118716031Y-143395890D01*
X118718681Y-143382803D01*
X118855510Y-143595441D01*
X119067710Y-143740431D01*
X119242627Y-143775853D01*
X119156362Y-143983601D01*
X119156038Y-144355567D01*
X119298083Y-144699343D01*
X119560873Y-144962592D01*
X119904401Y-145105238D01*
X120276367Y-145105562D01*
X120620143Y-144963517D01*
X120883392Y-144700727D01*
X121026038Y-144357199D01*
X121026362Y-143985233D01*
X120937149Y-143769322D01*
X121054917Y-143747162D01*
X121271041Y-143608090D01*
X121416031Y-143395890D01*
X121467040Y-143144000D01*
X121467040Y-141844000D01*
X121422762Y-141608683D01*
X121304706Y-141425219D01*
X121416031Y-141262290D01*
X121467040Y-141010400D01*
X121467040Y-140146305D01*
X134886674Y-140146305D01*
X135173043Y-140839372D01*
X135702839Y-141370093D01*
X136395405Y-141657672D01*
X137145305Y-141658326D01*
X137838372Y-141371957D01*
X138104472Y-141106320D01*
X143118285Y-141106320D01*
X143247533Y-141399123D01*
X143947806Y-141667388D01*
X144697435Y-141647250D01*
X145296467Y-141399123D01*
X145425715Y-141106320D01*
X144272000Y-139952605D01*
X143118285Y-141106320D01*
X138104472Y-141106320D01*
X138369093Y-140842161D01*
X138656672Y-140149595D01*
X138657283Y-139448806D01*
X142377612Y-139448806D01*
X142397750Y-140198435D01*
X142645877Y-140797467D01*
X142938680Y-140926715D01*
X144092395Y-139773000D01*
X144451605Y-139773000D01*
X145605320Y-140926715D01*
X145898123Y-140797467D01*
X146166388Y-140097194D01*
X146146250Y-139347565D01*
X145898123Y-138748533D01*
X145605320Y-138619285D01*
X144451605Y-139773000D01*
X144092395Y-139773000D01*
X142938680Y-138619285D01*
X142645877Y-138748533D01*
X142377612Y-139448806D01*
X138657283Y-139448806D01*
X138657326Y-139399695D01*
X138487306Y-138988214D01*
X138895405Y-139157672D01*
X139645305Y-139158326D01*
X140338372Y-138871957D01*
X140771403Y-138439680D01*
X143118285Y-138439680D01*
X144272000Y-139593395D01*
X145425715Y-138439680D01*
X145296467Y-138146877D01*
X144596194Y-137878612D01*
X143846565Y-137898750D01*
X143247533Y-138146877D01*
X143118285Y-138439680D01*
X140771403Y-138439680D01*
X140869093Y-138342161D01*
X141156672Y-137649595D01*
X141156674Y-137646305D01*
X147386674Y-137646305D01*
X147673043Y-138339372D01*
X148202839Y-138870093D01*
X148895405Y-139157672D01*
X149645305Y-139158326D01*
X150056786Y-138988306D01*
X149887328Y-139396405D01*
X149886674Y-140146305D01*
X150173043Y-140839372D01*
X150702839Y-141370093D01*
X151395405Y-141657672D01*
X152145305Y-141658326D01*
X152838372Y-141371957D01*
X153369093Y-140842161D01*
X153656672Y-140149595D01*
X153657326Y-139399695D01*
X153370957Y-138706628D01*
X152841161Y-138175907D01*
X152148595Y-137888328D01*
X151398695Y-137887674D01*
X150987214Y-138057694D01*
X151156672Y-137649595D01*
X151157326Y-136899695D01*
X150889705Y-136252000D01*
X166447560Y-136252000D01*
X166447560Y-137052000D01*
X166491838Y-137287317D01*
X166630910Y-137503441D01*
X166843110Y-137648431D01*
X167095000Y-137699440D01*
X167285000Y-137699440D01*
X167285000Y-138708000D01*
X167342852Y-138998839D01*
X167507599Y-139245401D01*
X167562000Y-139299802D01*
X167562000Y-139674442D01*
X167336683Y-139716838D01*
X167120559Y-139855910D01*
X166975569Y-140068110D01*
X166924560Y-140320000D01*
X166924560Y-141620000D01*
X166968838Y-141855317D01*
X167095311Y-142051862D01*
X166975569Y-142227110D01*
X166924560Y-142479000D01*
X166924560Y-143779000D01*
X166968838Y-144014317D01*
X167107910Y-144230441D01*
X167320110Y-144375431D01*
X167562000Y-144424415D01*
X167562000Y-144700000D01*
X167594039Y-144861071D01*
X167593838Y-145092167D01*
X167735883Y-145435943D01*
X167998673Y-145699192D01*
X168053289Y-145721871D01*
X168002200Y-145742980D01*
X167401091Y-146343041D01*
X167075372Y-147127459D01*
X167074630Y-147976815D01*
X167398980Y-148761800D01*
X167999041Y-149362909D01*
X168783459Y-149688628D01*
X169632815Y-149689370D01*
X170417800Y-149365020D01*
X171018909Y-148764959D01*
X171344628Y-147980541D01*
X171345370Y-147131185D01*
X171021020Y-146346200D01*
X170420959Y-145745091D01*
X169636541Y-145419372D01*
X169328759Y-145419103D01*
X169463838Y-145093799D01*
X169464162Y-144721833D01*
X169322117Y-144378057D01*
X169318824Y-144374758D01*
X169523441Y-144243090D01*
X169668431Y-144030890D01*
X169671081Y-144017803D01*
X169807910Y-144230441D01*
X170020110Y-144375431D01*
X170272000Y-144426440D01*
X171772000Y-144426440D01*
X172007317Y-144382162D01*
X172223441Y-144243090D01*
X172368431Y-144030890D01*
X172419440Y-143779000D01*
X172419440Y-143438377D01*
X174445000Y-143438377D01*
X174445000Y-144541623D01*
X174607517Y-145358652D01*
X175070327Y-146051296D01*
X175762971Y-146514106D01*
X176580000Y-146676623D01*
X177397029Y-146514106D01*
X178089673Y-146051296D01*
X178552483Y-145358652D01*
X178715000Y-144541623D01*
X178715000Y-143438377D01*
X180745000Y-143438377D01*
X180745000Y-144541623D01*
X180907517Y-145358652D01*
X181370327Y-146051296D01*
X182062971Y-146514106D01*
X182880000Y-146676623D01*
X183697029Y-146514106D01*
X184389673Y-146051296D01*
X184852483Y-145358652D01*
X185015000Y-144541623D01*
X185015000Y-144117000D01*
X187045000Y-144117000D01*
X187045000Y-144617000D01*
X187256118Y-145424362D01*
X187760130Y-146089476D01*
X188480304Y-146511084D01*
X188721167Y-146575113D01*
X189053000Y-146462165D01*
X189053000Y-144117000D01*
X189307000Y-144117000D01*
X189307000Y-146462165D01*
X189638833Y-146575113D01*
X189879696Y-146511084D01*
X190599870Y-146089476D01*
X191103882Y-145424362D01*
X191315000Y-144617000D01*
X191315000Y-144117000D01*
X189307000Y-144117000D01*
X189053000Y-144117000D01*
X187045000Y-144117000D01*
X185015000Y-144117000D01*
X185015000Y-143438377D01*
X185000007Y-143363000D01*
X187045000Y-143363000D01*
X187045000Y-143863000D01*
X189053000Y-143863000D01*
X189053000Y-141517835D01*
X189307000Y-141517835D01*
X189307000Y-143863000D01*
X191315000Y-143863000D01*
X191315000Y-143363000D01*
X191103882Y-142555638D01*
X190599870Y-141890524D01*
X189879696Y-141468916D01*
X189638833Y-141404887D01*
X189307000Y-141517835D01*
X189053000Y-141517835D01*
X188721167Y-141404887D01*
X188480304Y-141468916D01*
X187760130Y-141890524D01*
X187256118Y-142555638D01*
X187045000Y-143363000D01*
X185000007Y-143363000D01*
X184852483Y-142621348D01*
X184389673Y-141928704D01*
X183697029Y-141465894D01*
X182880000Y-141303377D01*
X182062971Y-141465894D01*
X181370327Y-141928704D01*
X180907517Y-142621348D01*
X180745000Y-143438377D01*
X178715000Y-143438377D01*
X178552483Y-142621348D01*
X178089673Y-141928704D01*
X177397029Y-141465894D01*
X176580000Y-141303377D01*
X175762971Y-141465894D01*
X175070327Y-141928704D01*
X174607517Y-142621348D01*
X174445000Y-143438377D01*
X172419440Y-143438377D01*
X172419440Y-142479000D01*
X172375162Y-142243683D01*
X172248689Y-142047138D01*
X172368431Y-141871890D01*
X172419440Y-141620000D01*
X172419440Y-140320000D01*
X172375162Y-140084683D01*
X172236090Y-139868559D01*
X172023890Y-139723569D01*
X171772000Y-139672560D01*
X170272000Y-139672560D01*
X170036683Y-139716838D01*
X169820559Y-139855910D01*
X169675569Y-140068110D01*
X169672919Y-140081197D01*
X169536090Y-139868559D01*
X169323890Y-139723569D01*
X169082000Y-139674585D01*
X169082000Y-138985000D01*
X169024148Y-138694161D01*
X168859401Y-138447599D01*
X168805000Y-138393198D01*
X168805000Y-137887750D01*
X169460000Y-137887750D01*
X169460000Y-138128310D01*
X169556673Y-138361699D01*
X169735302Y-138540327D01*
X169968691Y-138637000D01*
X170759250Y-138637000D01*
X170918000Y-138478250D01*
X170918000Y-137729000D01*
X171172000Y-137729000D01*
X171172000Y-138478250D01*
X171330750Y-138637000D01*
X172121309Y-138637000D01*
X172354698Y-138540327D01*
X172533327Y-138361699D01*
X172630000Y-138128310D01*
X172630000Y-137887750D01*
X172471250Y-137729000D01*
X171172000Y-137729000D01*
X170918000Y-137729000D01*
X169618750Y-137729000D01*
X169460000Y-137887750D01*
X168805000Y-137887750D01*
X168805000Y-137699440D01*
X168995000Y-137699440D01*
X169230317Y-137655162D01*
X169446441Y-137516090D01*
X169533064Y-137389314D01*
X169618750Y-137475000D01*
X170918000Y-137475000D01*
X170918000Y-137455000D01*
X171172000Y-137455000D01*
X171172000Y-137475000D01*
X172471250Y-137475000D01*
X172630000Y-137316250D01*
X172630000Y-137075690D01*
X172533327Y-136842301D01*
X172354698Y-136663673D01*
X172318253Y-136648577D01*
X172446441Y-136566090D01*
X172536054Y-136434937D01*
X172690839Y-136404148D01*
X172937401Y-136239401D01*
X174019401Y-135157401D01*
X174184148Y-134910839D01*
X174242000Y-134620000D01*
X174242000Y-134522063D01*
X174274192Y-134489927D01*
X174416838Y-134146399D01*
X174417162Y-133774433D01*
X174275117Y-133430657D01*
X174012327Y-133167408D01*
X173668799Y-133024762D01*
X173296833Y-133024438D01*
X172953057Y-133166483D01*
X172689808Y-133429273D01*
X172547162Y-133772801D01*
X172546838Y-134144767D01*
X172644959Y-134382239D01*
X172291291Y-134735907D01*
X172246890Y-134705569D01*
X171995000Y-134654560D01*
X170095000Y-134654560D01*
X169859683Y-134698838D01*
X169643559Y-134837910D01*
X169498569Y-135050110D01*
X169447560Y-135302000D01*
X169447560Y-135792681D01*
X169246890Y-135655569D01*
X168995000Y-135604560D01*
X167095000Y-135604560D01*
X166859683Y-135648838D01*
X166643559Y-135787910D01*
X166498569Y-136000110D01*
X166447560Y-136252000D01*
X150889705Y-136252000D01*
X150870957Y-136206628D01*
X150341161Y-135675907D01*
X149648595Y-135388328D01*
X148898695Y-135387674D01*
X148205628Y-135674043D01*
X147674907Y-136203839D01*
X147387328Y-136896405D01*
X147386674Y-137646305D01*
X141156674Y-137646305D01*
X141157326Y-136899695D01*
X140870957Y-136206628D01*
X140341161Y-135675907D01*
X139648595Y-135388328D01*
X138898695Y-135387674D01*
X138205628Y-135674043D01*
X137674907Y-136203839D01*
X137387328Y-136896405D01*
X137386674Y-137646305D01*
X137556694Y-138057786D01*
X137148595Y-137888328D01*
X136398695Y-137887674D01*
X135705628Y-138174043D01*
X135174907Y-138703839D01*
X134887328Y-139396405D01*
X134886674Y-140146305D01*
X121467040Y-140146305D01*
X121467040Y-139710400D01*
X121422762Y-139475083D01*
X121283690Y-139258959D01*
X121071490Y-139113969D01*
X120829600Y-139064985D01*
X120829600Y-137191440D01*
X121423600Y-137191440D01*
X121658917Y-137147162D01*
X121875041Y-137008090D01*
X122020031Y-136795890D01*
X122071040Y-136544000D01*
X122071040Y-135744000D01*
X122026762Y-135508683D01*
X121887690Y-135292559D01*
X121675490Y-135147569D01*
X121423600Y-135096560D01*
X119523600Y-135096560D01*
X119288283Y-135140838D01*
X119072159Y-135279910D01*
X118985536Y-135406686D01*
X118899850Y-135321000D01*
X117600600Y-135321000D01*
X117600600Y-135341000D01*
X117346600Y-135341000D01*
X117346600Y-135321000D01*
X116047350Y-135321000D01*
X115888600Y-135479750D01*
X115888600Y-135720310D01*
X115985273Y-135953699D01*
X116163902Y-136132327D01*
X116200347Y-136147423D01*
X116072159Y-136229910D01*
X115970560Y-136378604D01*
X115903961Y-136391852D01*
X115657399Y-136556599D01*
X115083399Y-137130599D01*
X114918652Y-137377161D01*
X114860800Y-137668000D01*
X114860800Y-139594826D01*
X114777808Y-139677673D01*
X114635162Y-140021201D01*
X114634838Y-140393167D01*
X95145000Y-140393167D01*
X95145000Y-134667690D01*
X115888600Y-134667690D01*
X115888600Y-134908250D01*
X116047350Y-135067000D01*
X117346600Y-135067000D01*
X117346600Y-135047000D01*
X117369670Y-135047000D01*
X117467200Y-135066400D01*
X117564730Y-135047000D01*
X117600600Y-135047000D01*
X117600600Y-135067000D01*
X118899850Y-135067000D01*
X119058600Y-134908250D01*
X119058600Y-134667690D01*
X118961927Y-134434301D01*
X118783298Y-134255673D01*
X118549909Y-134159000D01*
X118205553Y-134159000D01*
X118175748Y-134009161D01*
X118011001Y-133762599D01*
X117764439Y-133597852D01*
X117473600Y-133540000D01*
X117182761Y-133597852D01*
X116936199Y-133762599D01*
X116929799Y-133768999D01*
X116765052Y-134015561D01*
X116736520Y-134159000D01*
X116397291Y-134159000D01*
X116163902Y-134255673D01*
X115985273Y-134434301D01*
X115888600Y-134667690D01*
X95145000Y-134667690D01*
X95145000Y-127917000D01*
X96975000Y-127917000D01*
X96975000Y-128417000D01*
X97186118Y-129224362D01*
X97690130Y-129889476D01*
X98410304Y-130311084D01*
X98651167Y-130375113D01*
X98983000Y-130262165D01*
X98983000Y-127917000D01*
X99237000Y-127917000D01*
X99237000Y-130262165D01*
X99568833Y-130375113D01*
X99809696Y-130311084D01*
X100529870Y-129889476D01*
X101033882Y-129224362D01*
X101245000Y-128417000D01*
X101245000Y-127917000D01*
X99237000Y-127917000D01*
X98983000Y-127917000D01*
X96975000Y-127917000D01*
X95145000Y-127917000D01*
X95145000Y-127163000D01*
X96975000Y-127163000D01*
X96975000Y-127663000D01*
X98983000Y-127663000D01*
X98983000Y-125317835D01*
X99237000Y-125317835D01*
X99237000Y-127663000D01*
X101245000Y-127663000D01*
X101245000Y-127238377D01*
X103275000Y-127238377D01*
X103275000Y-128341623D01*
X103437517Y-129158652D01*
X103900327Y-129851296D01*
X104592971Y-130314106D01*
X105410000Y-130476623D01*
X106227029Y-130314106D01*
X106919673Y-129851296D01*
X107382483Y-129158652D01*
X107545000Y-128341623D01*
X107545000Y-127238377D01*
X109575000Y-127238377D01*
X109575000Y-128341623D01*
X109737517Y-129158652D01*
X110200327Y-129851296D01*
X110892971Y-130314106D01*
X111710000Y-130476623D01*
X112527029Y-130314106D01*
X113219673Y-129851296D01*
X113682483Y-129158652D01*
X113845000Y-128341623D01*
X113845000Y-127238377D01*
X174445000Y-127238377D01*
X174445000Y-128341623D01*
X174607517Y-129158652D01*
X175070327Y-129851296D01*
X175762971Y-130314106D01*
X176580000Y-130476623D01*
X177397029Y-130314106D01*
X178089673Y-129851296D01*
X178552483Y-129158652D01*
X178715000Y-128341623D01*
X178715000Y-127238377D01*
X180745000Y-127238377D01*
X180745000Y-128341623D01*
X180907517Y-129158652D01*
X181370327Y-129851296D01*
X182062971Y-130314106D01*
X182880000Y-130476623D01*
X183697029Y-130314106D01*
X184389673Y-129851296D01*
X184852483Y-129158652D01*
X185015000Y-128341623D01*
X185015000Y-127238377D01*
X187045000Y-127238377D01*
X187045000Y-128341623D01*
X187207517Y-129158652D01*
X187670327Y-129851296D01*
X188362971Y-130314106D01*
X189180000Y-130476623D01*
X189997029Y-130314106D01*
X190689673Y-129851296D01*
X191152483Y-129158652D01*
X191315000Y-128341623D01*
X191315000Y-127238377D01*
X191152483Y-126421348D01*
X190689673Y-125728704D01*
X189997029Y-125265894D01*
X189180000Y-125103377D01*
X188362971Y-125265894D01*
X187670327Y-125728704D01*
X187207517Y-126421348D01*
X187045000Y-127238377D01*
X185015000Y-127238377D01*
X184852483Y-126421348D01*
X184389673Y-125728704D01*
X183697029Y-125265894D01*
X182880000Y-125103377D01*
X182062971Y-125265894D01*
X181370327Y-125728704D01*
X180907517Y-126421348D01*
X180745000Y-127238377D01*
X178715000Y-127238377D01*
X178552483Y-126421348D01*
X178089673Y-125728704D01*
X177397029Y-125265894D01*
X176580000Y-125103377D01*
X175762971Y-125265894D01*
X175070327Y-125728704D01*
X174607517Y-126421348D01*
X174445000Y-127238377D01*
X113845000Y-127238377D01*
X113682483Y-126421348D01*
X113219673Y-125728704D01*
X112586404Y-125305567D01*
X118546438Y-125305567D01*
X118688483Y-125649343D01*
X118951273Y-125912592D01*
X119294801Y-126055238D01*
X119666767Y-126055562D01*
X120010543Y-125913517D01*
X120043718Y-125880400D01*
X122221137Y-125880400D01*
X122253273Y-125912592D01*
X122596801Y-126055238D01*
X122968767Y-126055562D01*
X123312543Y-125913517D01*
X123575792Y-125650727D01*
X123718438Y-125307199D01*
X123718762Y-124935233D01*
X123576717Y-124591457D01*
X123313927Y-124328208D01*
X122970399Y-124185562D01*
X122598433Y-124185238D01*
X122254657Y-124327283D01*
X122221482Y-124360400D01*
X120044063Y-124360400D01*
X120011927Y-124328208D01*
X119668399Y-124185562D01*
X119296433Y-124185238D01*
X118952657Y-124327283D01*
X118689408Y-124590073D01*
X118546762Y-124933601D01*
X118546438Y-125305567D01*
X112586404Y-125305567D01*
X112527029Y-125265894D01*
X111710000Y-125103377D01*
X110892971Y-125265894D01*
X110200327Y-125728704D01*
X109737517Y-126421348D01*
X109575000Y-127238377D01*
X107545000Y-127238377D01*
X107382483Y-126421348D01*
X106919673Y-125728704D01*
X106227029Y-125265894D01*
X105410000Y-125103377D01*
X104592971Y-125265894D01*
X103900327Y-125728704D01*
X103437517Y-126421348D01*
X103275000Y-127238377D01*
X101245000Y-127238377D01*
X101245000Y-127163000D01*
X101033882Y-126355638D01*
X100529870Y-125690524D01*
X99809696Y-125268916D01*
X99568833Y-125204887D01*
X99237000Y-125317835D01*
X98983000Y-125317835D01*
X98651167Y-125204887D01*
X98410304Y-125268916D01*
X97690130Y-125690524D01*
X97186118Y-126355638D01*
X96975000Y-127163000D01*
X95145000Y-127163000D01*
X95145000Y-121848377D01*
X96975000Y-121848377D01*
X96975000Y-122951623D01*
X97137517Y-123768652D01*
X97600327Y-124461296D01*
X98292971Y-124924106D01*
X99110000Y-125086623D01*
X99927029Y-124924106D01*
X100619673Y-124461296D01*
X101082483Y-123768652D01*
X101245000Y-122951623D01*
X101245000Y-121848377D01*
X103275000Y-121848377D01*
X103275000Y-122951623D01*
X103437517Y-123768652D01*
X103900327Y-124461296D01*
X104592971Y-124924106D01*
X105410000Y-125086623D01*
X106227029Y-124924106D01*
X106919673Y-124461296D01*
X107382483Y-123768652D01*
X107545000Y-122951623D01*
X107545000Y-121848377D01*
X109575000Y-121848377D01*
X109575000Y-122951623D01*
X109737517Y-123768652D01*
X110200327Y-124461296D01*
X110892971Y-124924106D01*
X111710000Y-125086623D01*
X112527029Y-124924106D01*
X113219673Y-124461296D01*
X113682483Y-123768652D01*
X113710228Y-123629167D01*
X113872838Y-123629167D01*
X114014883Y-123972943D01*
X114277673Y-124236192D01*
X114621201Y-124378838D01*
X114993167Y-124379162D01*
X115336943Y-124237117D01*
X115600192Y-123974327D01*
X115742838Y-123630799D01*
X115743162Y-123258833D01*
X115689600Y-123129202D01*
X116207462Y-122611340D01*
X116307910Y-122767441D01*
X116520110Y-122912431D01*
X116772000Y-122963440D01*
X118272000Y-122963440D01*
X118507317Y-122919162D01*
X118723441Y-122780090D01*
X118868431Y-122567890D01*
X118871081Y-122554803D01*
X119007910Y-122767441D01*
X119220110Y-122912431D01*
X119472000Y-122963440D01*
X120972000Y-122963440D01*
X121207317Y-122919162D01*
X121423441Y-122780090D01*
X121568431Y-122567890D01*
X121619440Y-122316000D01*
X121619440Y-121016000D01*
X121575162Y-120780683D01*
X121436090Y-120564559D01*
X121376841Y-120524076D01*
X121423441Y-120494090D01*
X121568431Y-120281890D01*
X121619440Y-120030000D01*
X121619440Y-118730000D01*
X121575162Y-118494683D01*
X121436090Y-118278559D01*
X121223890Y-118133569D01*
X120972000Y-118082560D01*
X119507894Y-118082560D01*
X119670839Y-118050148D01*
X119917401Y-117885401D01*
X120909401Y-116893401D01*
X121074148Y-116646839D01*
X121132000Y-116356000D01*
X121132000Y-115958367D01*
X158424438Y-115958367D01*
X158566483Y-116302143D01*
X158829273Y-116565392D01*
X159172801Y-116708038D01*
X159219677Y-116708079D01*
X161374551Y-118862953D01*
X161512883Y-119197743D01*
X161775673Y-119460992D01*
X162119201Y-119603638D01*
X162491167Y-119603962D01*
X162834943Y-119461917D01*
X163098192Y-119199127D01*
X163240838Y-118855599D01*
X163241162Y-118483633D01*
X163099117Y-118139857D01*
X162836327Y-117876608D01*
X162492799Y-117733962D01*
X162395079Y-117733877D01*
X160294722Y-115633520D01*
X160294762Y-115588033D01*
X160152717Y-115244257D01*
X159889927Y-114981008D01*
X159546399Y-114838362D01*
X159174433Y-114838038D01*
X158830657Y-114980083D01*
X158567408Y-115242873D01*
X158424762Y-115586401D01*
X158424438Y-115958367D01*
X121132000Y-115958367D01*
X121132000Y-115855440D01*
X121322000Y-115855440D01*
X121557317Y-115811162D01*
X121773441Y-115672090D01*
X121918431Y-115459890D01*
X121969440Y-115208000D01*
X121969440Y-114789000D01*
X166320560Y-114789000D01*
X166320560Y-115589000D01*
X166364838Y-115824317D01*
X166503910Y-116040441D01*
X166716110Y-116185431D01*
X166968000Y-116236440D01*
X167158000Y-116236440D01*
X167158000Y-117118000D01*
X167215852Y-117408839D01*
X167380599Y-117655401D01*
X167435000Y-117709802D01*
X167435000Y-118338442D01*
X167209683Y-118380838D01*
X166993559Y-118519910D01*
X166848569Y-118732110D01*
X166797560Y-118984000D01*
X166797560Y-120284000D01*
X166841838Y-120519317D01*
X166968311Y-120715862D01*
X166848569Y-120891110D01*
X166797560Y-121143000D01*
X166797560Y-122443000D01*
X166841838Y-122678317D01*
X166980910Y-122894441D01*
X167193110Y-123039431D01*
X167435000Y-123088415D01*
X167435000Y-123110000D01*
X167492852Y-123400839D01*
X167593905Y-123552076D01*
X167593838Y-123629167D01*
X167735883Y-123972943D01*
X167998673Y-124236192D01*
X168342201Y-124378838D01*
X168714167Y-124379162D01*
X169057943Y-124237117D01*
X169321192Y-123974327D01*
X169463838Y-123630799D01*
X169464162Y-123258833D01*
X169335127Y-122946544D01*
X169396441Y-122907090D01*
X169541431Y-122694890D01*
X169544081Y-122681803D01*
X169680910Y-122894441D01*
X169893110Y-123039431D01*
X170145000Y-123090440D01*
X171645000Y-123090440D01*
X171880317Y-123046162D01*
X172096441Y-122907090D01*
X172241431Y-122694890D01*
X172292440Y-122443000D01*
X172292440Y-121848377D01*
X174445000Y-121848377D01*
X174445000Y-122951623D01*
X174607517Y-123768652D01*
X175070327Y-124461296D01*
X175762971Y-124924106D01*
X176580000Y-125086623D01*
X177397029Y-124924106D01*
X178089673Y-124461296D01*
X178552483Y-123768652D01*
X178715000Y-122951623D01*
X178715000Y-121848377D01*
X180745000Y-121848377D01*
X180745000Y-122951623D01*
X180907517Y-123768652D01*
X181370327Y-124461296D01*
X182062971Y-124924106D01*
X182880000Y-125086623D01*
X183697029Y-124924106D01*
X184389673Y-124461296D01*
X184852483Y-123768652D01*
X185015000Y-122951623D01*
X185015000Y-122527000D01*
X187045000Y-122527000D01*
X187045000Y-123027000D01*
X187256118Y-123834362D01*
X187760130Y-124499476D01*
X188480304Y-124921084D01*
X188721167Y-124985113D01*
X189053000Y-124872165D01*
X189053000Y-122527000D01*
X189307000Y-122527000D01*
X189307000Y-124872165D01*
X189638833Y-124985113D01*
X189879696Y-124921084D01*
X190599870Y-124499476D01*
X191103882Y-123834362D01*
X191315000Y-123027000D01*
X191315000Y-122527000D01*
X189307000Y-122527000D01*
X189053000Y-122527000D01*
X187045000Y-122527000D01*
X185015000Y-122527000D01*
X185015000Y-121848377D01*
X185000007Y-121773000D01*
X187045000Y-121773000D01*
X187045000Y-122273000D01*
X189053000Y-122273000D01*
X189053000Y-119927835D01*
X189307000Y-119927835D01*
X189307000Y-122273000D01*
X191315000Y-122273000D01*
X191315000Y-121773000D01*
X191103882Y-120965638D01*
X190599870Y-120300524D01*
X189879696Y-119878916D01*
X189638833Y-119814887D01*
X189307000Y-119927835D01*
X189053000Y-119927835D01*
X188721167Y-119814887D01*
X188480304Y-119878916D01*
X187760130Y-120300524D01*
X187256118Y-120965638D01*
X187045000Y-121773000D01*
X185000007Y-121773000D01*
X184852483Y-121031348D01*
X184389673Y-120338704D01*
X183697029Y-119875894D01*
X182880000Y-119713377D01*
X182062971Y-119875894D01*
X181370327Y-120338704D01*
X180907517Y-121031348D01*
X180745000Y-121848377D01*
X178715000Y-121848377D01*
X178552483Y-121031348D01*
X178089673Y-120338704D01*
X177397029Y-119875894D01*
X176580000Y-119713377D01*
X175762971Y-119875894D01*
X175070327Y-120338704D01*
X174607517Y-121031348D01*
X174445000Y-121848377D01*
X172292440Y-121848377D01*
X172292440Y-121143000D01*
X172248162Y-120907683D01*
X172121689Y-120711138D01*
X172241431Y-120535890D01*
X172292440Y-120284000D01*
X172292440Y-118984000D01*
X172248162Y-118748683D01*
X172109090Y-118532559D01*
X171896890Y-118387569D01*
X171645000Y-118336560D01*
X170145000Y-118336560D01*
X169909683Y-118380838D01*
X169693559Y-118519910D01*
X169548569Y-118732110D01*
X169545919Y-118745197D01*
X169409090Y-118532559D01*
X169196890Y-118387569D01*
X168955000Y-118338585D01*
X168955000Y-117395000D01*
X168897148Y-117104161D01*
X168732401Y-116857599D01*
X168678000Y-116803198D01*
X168678000Y-116424750D01*
X169333000Y-116424750D01*
X169333000Y-116665310D01*
X169429673Y-116898699D01*
X169608302Y-117077327D01*
X169841691Y-117174000D01*
X170632250Y-117174000D01*
X170791000Y-117015250D01*
X170791000Y-116266000D01*
X171045000Y-116266000D01*
X171045000Y-117015250D01*
X171203750Y-117174000D01*
X171994309Y-117174000D01*
X172227698Y-117077327D01*
X172406327Y-116898699D01*
X172503000Y-116665310D01*
X172503000Y-116424750D01*
X172344250Y-116266000D01*
X171045000Y-116266000D01*
X170791000Y-116266000D01*
X169491750Y-116266000D01*
X169333000Y-116424750D01*
X168678000Y-116424750D01*
X168678000Y-116236440D01*
X168868000Y-116236440D01*
X169103317Y-116192162D01*
X169319441Y-116053090D01*
X169406064Y-115926314D01*
X169491750Y-116012000D01*
X170791000Y-116012000D01*
X170791000Y-115992000D01*
X171045000Y-115992000D01*
X171045000Y-116012000D01*
X172344250Y-116012000D01*
X172503000Y-115853250D01*
X172503000Y-115612690D01*
X172406327Y-115379301D01*
X172227698Y-115200673D01*
X172191253Y-115185577D01*
X172319441Y-115103090D01*
X172390563Y-114999000D01*
X172527000Y-114999000D01*
X172817839Y-114941148D01*
X173064401Y-114776401D01*
X173892401Y-113948401D01*
X174057148Y-113701839D01*
X174115000Y-113411000D01*
X174115000Y-111027019D01*
X174172592Y-110969527D01*
X174315238Y-110625999D01*
X174315562Y-110254033D01*
X174173517Y-109910257D01*
X173910727Y-109647008D01*
X173567199Y-109504362D01*
X173195233Y-109504038D01*
X172851457Y-109646083D01*
X172588208Y-109908873D01*
X172445562Y-110252401D01*
X172445238Y-110624367D01*
X172587283Y-110968143D01*
X172595000Y-110975873D01*
X172595000Y-113096198D01*
X172315188Y-113376010D01*
X172119890Y-113242569D01*
X171868000Y-113191560D01*
X169968000Y-113191560D01*
X169732683Y-113235838D01*
X169516559Y-113374910D01*
X169371569Y-113587110D01*
X169320560Y-113839000D01*
X169320560Y-114329681D01*
X169119890Y-114192569D01*
X168868000Y-114141560D01*
X166968000Y-114141560D01*
X166732683Y-114185838D01*
X166516559Y-114324910D01*
X166371569Y-114537110D01*
X166320560Y-114789000D01*
X121969440Y-114789000D01*
X121969440Y-114408000D01*
X121925162Y-114172683D01*
X121786090Y-113956559D01*
X121573890Y-113811569D01*
X121322000Y-113760560D01*
X119422000Y-113760560D01*
X119186683Y-113804838D01*
X118970559Y-113943910D01*
X118883936Y-114070686D01*
X118798250Y-113985000D01*
X117499000Y-113985000D01*
X117499000Y-114005000D01*
X117245000Y-114005000D01*
X117245000Y-113985000D01*
X115945750Y-113985000D01*
X115787000Y-114143750D01*
X115787000Y-114384310D01*
X115883673Y-114617699D01*
X116062302Y-114796327D01*
X116098747Y-114811423D01*
X115970559Y-114893910D01*
X115899437Y-114998000D01*
X115739077Y-114998000D01*
X115651917Y-114787057D01*
X115389127Y-114523808D01*
X115045599Y-114381162D01*
X114673633Y-114380838D01*
X114329857Y-114522883D01*
X114066608Y-114785673D01*
X113923962Y-115129201D01*
X113923638Y-115501167D01*
X114065683Y-115844943D01*
X114328473Y-116108192D01*
X114672001Y-116250838D01*
X114718877Y-116250879D01*
X114763399Y-116295401D01*
X115009960Y-116460148D01*
X115300800Y-116518000D01*
X115899069Y-116518000D01*
X115957910Y-116609441D01*
X116170110Y-116754431D01*
X116422000Y-116805440D01*
X117834320Y-116805440D01*
X117826599Y-116810599D01*
X116984599Y-117652599D01*
X116819852Y-117899161D01*
X116783371Y-118082560D01*
X116772000Y-118082560D01*
X116536683Y-118126838D01*
X116320559Y-118265910D01*
X116175569Y-118478110D01*
X116124560Y-118730000D01*
X116124560Y-120030000D01*
X116168838Y-120265317D01*
X116307910Y-120481441D01*
X116367159Y-120521924D01*
X116320559Y-120551910D01*
X116175569Y-120764110D01*
X116146836Y-120906000D01*
X116078000Y-120906000D01*
X115787160Y-120963852D01*
X115540599Y-121128599D01*
X114270599Y-122398599D01*
X114105852Y-122645161D01*
X114061518Y-122868043D01*
X114015808Y-122913673D01*
X113873162Y-123257201D01*
X113872838Y-123629167D01*
X113710228Y-123629167D01*
X113845000Y-122951623D01*
X113845000Y-121848377D01*
X113682483Y-121031348D01*
X113219673Y-120338704D01*
X112527029Y-119875894D01*
X111710000Y-119713377D01*
X110892971Y-119875894D01*
X110200327Y-120338704D01*
X109737517Y-121031348D01*
X109575000Y-121848377D01*
X107545000Y-121848377D01*
X107382483Y-121031348D01*
X106919673Y-120338704D01*
X106227029Y-119875894D01*
X105410000Y-119713377D01*
X104592971Y-119875894D01*
X103900327Y-120338704D01*
X103437517Y-121031348D01*
X103275000Y-121848377D01*
X101245000Y-121848377D01*
X101082483Y-121031348D01*
X100619673Y-120338704D01*
X99927029Y-119875894D01*
X99110000Y-119713377D01*
X98292971Y-119875894D01*
X97600327Y-120338704D01*
X97137517Y-121031348D01*
X96975000Y-121848377D01*
X95145000Y-121848377D01*
X95145000Y-113331690D01*
X115787000Y-113331690D01*
X115787000Y-113572250D01*
X115945750Y-113731000D01*
X117245000Y-113731000D01*
X117245000Y-112981750D01*
X117499000Y-112981750D01*
X117499000Y-113731000D01*
X118798250Y-113731000D01*
X118957000Y-113572250D01*
X118957000Y-113331690D01*
X118860327Y-113098301D01*
X118681698Y-112919673D01*
X118448309Y-112823000D01*
X117657750Y-112823000D01*
X117499000Y-112981750D01*
X117245000Y-112981750D01*
X117086250Y-112823000D01*
X116295691Y-112823000D01*
X116062302Y-112919673D01*
X115883673Y-113098301D01*
X115787000Y-113331690D01*
X95145000Y-113331690D01*
X95145000Y-106327000D01*
X96975000Y-106327000D01*
X96975000Y-106827000D01*
X97186118Y-107634362D01*
X97690130Y-108299476D01*
X98410304Y-108721084D01*
X98651167Y-108785113D01*
X98983000Y-108672165D01*
X98983000Y-106327000D01*
X99237000Y-106327000D01*
X99237000Y-108672165D01*
X99568833Y-108785113D01*
X99809696Y-108721084D01*
X100529870Y-108299476D01*
X101033882Y-107634362D01*
X101245000Y-106827000D01*
X101245000Y-106327000D01*
X99237000Y-106327000D01*
X98983000Y-106327000D01*
X96975000Y-106327000D01*
X95145000Y-106327000D01*
X95145000Y-105573000D01*
X96975000Y-105573000D01*
X96975000Y-106073000D01*
X98983000Y-106073000D01*
X98983000Y-103727835D01*
X99237000Y-103727835D01*
X99237000Y-106073000D01*
X101245000Y-106073000D01*
X101245000Y-105648377D01*
X103275000Y-105648377D01*
X103275000Y-106751623D01*
X103437517Y-107568652D01*
X103900327Y-108261296D01*
X104592971Y-108724106D01*
X105410000Y-108886623D01*
X106227029Y-108724106D01*
X106919673Y-108261296D01*
X107382483Y-107568652D01*
X107545000Y-106751623D01*
X107545000Y-105648377D01*
X109575000Y-105648377D01*
X109575000Y-106751623D01*
X109737517Y-107568652D01*
X110200327Y-108261296D01*
X110892971Y-108724106D01*
X111710000Y-108886623D01*
X112527029Y-108724106D01*
X113219673Y-108261296D01*
X113682483Y-107568652D01*
X113845000Y-106751623D01*
X113845000Y-105648377D01*
X113682483Y-104831348D01*
X113219673Y-104138704D01*
X112527029Y-103675894D01*
X112001335Y-103571327D01*
X139214137Y-103571327D01*
X139261661Y-103823898D01*
X139403706Y-104038080D01*
X140817920Y-105452294D01*
X141015623Y-105587379D01*
X141266785Y-105641863D01*
X141519356Y-105594339D01*
X141733538Y-105452294D01*
X143006330Y-104179502D01*
X143011204Y-104172368D01*
X144128529Y-104172368D01*
X144176053Y-104424939D01*
X144318098Y-104639121D01*
X145272692Y-105593715D01*
X145470395Y-105728800D01*
X145721557Y-105783284D01*
X145974128Y-105735760D01*
X146018246Y-105706501D01*
X146305301Y-105763600D01*
X150266400Y-105763600D01*
X150557239Y-105705748D01*
X150643101Y-105648377D01*
X174445000Y-105648377D01*
X174445000Y-106751623D01*
X174607517Y-107568652D01*
X175070327Y-108261296D01*
X175762971Y-108724106D01*
X176580000Y-108886623D01*
X177397029Y-108724106D01*
X178089673Y-108261296D01*
X178552483Y-107568652D01*
X178715000Y-106751623D01*
X178715000Y-105648377D01*
X180745000Y-105648377D01*
X180745000Y-106751623D01*
X180907517Y-107568652D01*
X181370327Y-108261296D01*
X182062971Y-108724106D01*
X182880000Y-108886623D01*
X183697029Y-108724106D01*
X184389673Y-108261296D01*
X184852483Y-107568652D01*
X185015000Y-106751623D01*
X185015000Y-105648377D01*
X187045000Y-105648377D01*
X187045000Y-106751623D01*
X187207517Y-107568652D01*
X187670327Y-108261296D01*
X188362971Y-108724106D01*
X189180000Y-108886623D01*
X189997029Y-108724106D01*
X190689673Y-108261296D01*
X191152483Y-107568652D01*
X191315000Y-106751623D01*
X191315000Y-105648377D01*
X191152483Y-104831348D01*
X190689673Y-104138704D01*
X189997029Y-103675894D01*
X189180000Y-103513377D01*
X188362971Y-103675894D01*
X187670327Y-104138704D01*
X187207517Y-104831348D01*
X187045000Y-105648377D01*
X185015000Y-105648377D01*
X184852483Y-104831348D01*
X184389673Y-104138704D01*
X183697029Y-103675894D01*
X182880000Y-103513377D01*
X182062971Y-103675894D01*
X181370327Y-104138704D01*
X180907517Y-104831348D01*
X180745000Y-105648377D01*
X178715000Y-105648377D01*
X178552483Y-104831348D01*
X178089673Y-104138704D01*
X177397029Y-103675894D01*
X176580000Y-103513377D01*
X175762971Y-103675894D01*
X175070327Y-104138704D01*
X174607517Y-104831348D01*
X174445000Y-105648377D01*
X150643101Y-105648377D01*
X150803801Y-105541001D01*
X153489003Y-102855799D01*
X153653750Y-102609237D01*
X153711602Y-102318398D01*
X153711602Y-94571567D01*
X156798838Y-94571567D01*
X156940883Y-94915343D01*
X156974000Y-94948518D01*
X156974000Y-96821137D01*
X156941808Y-96853273D01*
X156799162Y-97196801D01*
X156798838Y-97568767D01*
X156940883Y-97912543D01*
X157203673Y-98175792D01*
X157547201Y-98318438D01*
X157919167Y-98318762D01*
X158262943Y-98176717D01*
X158526192Y-97913927D01*
X158668838Y-97570399D01*
X158669162Y-97198433D01*
X158527117Y-96854657D01*
X158494000Y-96821482D01*
X158494000Y-96298767D01*
X160354838Y-96298767D01*
X160496883Y-96642543D01*
X160759673Y-96905792D01*
X161103201Y-97048438D01*
X161475167Y-97048762D01*
X161818943Y-96906717D01*
X161852118Y-96873600D01*
X162911937Y-96873600D01*
X162944073Y-96905792D01*
X163287601Y-97048438D01*
X163659567Y-97048762D01*
X164003343Y-96906717D01*
X164266592Y-96643927D01*
X164409238Y-96300399D01*
X164409562Y-95928433D01*
X164267517Y-95584657D01*
X164004727Y-95321408D01*
X163661199Y-95178762D01*
X163289233Y-95178438D01*
X162945457Y-95320483D01*
X162912282Y-95353600D01*
X161852463Y-95353600D01*
X161820327Y-95321408D01*
X161476799Y-95178762D01*
X161104833Y-95178438D01*
X160761057Y-95320483D01*
X160497808Y-95583273D01*
X160355162Y-95926801D01*
X160354838Y-96298767D01*
X158494000Y-96298767D01*
X158494000Y-94948863D01*
X158526192Y-94916727D01*
X158668838Y-94573199D01*
X158669060Y-94317567D01*
X160253238Y-94317567D01*
X160395283Y-94661343D01*
X160658073Y-94924592D01*
X161001601Y-95067238D01*
X161373567Y-95067562D01*
X161717343Y-94925517D01*
X161750518Y-94892400D01*
X163141286Y-94892400D01*
X163440001Y-95016438D01*
X163811967Y-95016762D01*
X164155743Y-94874717D01*
X164418992Y-94611927D01*
X164561638Y-94268399D01*
X164561962Y-93896433D01*
X164419917Y-93552657D01*
X164157127Y-93289408D01*
X163813599Y-93146762D01*
X163441633Y-93146438D01*
X163097857Y-93288483D01*
X163013793Y-93372400D01*
X161750863Y-93372400D01*
X161718727Y-93340208D01*
X161375199Y-93197562D01*
X161003233Y-93197238D01*
X160659457Y-93339283D01*
X160396208Y-93602073D01*
X160253562Y-93945601D01*
X160253238Y-94317567D01*
X158669060Y-94317567D01*
X158669162Y-94201233D01*
X158527117Y-93857457D01*
X158264327Y-93594208D01*
X157920799Y-93451562D01*
X157548833Y-93451238D01*
X157205057Y-93593283D01*
X156941808Y-93856073D01*
X156799162Y-94199601D01*
X156798838Y-94571567D01*
X153711602Y-94571567D01*
X153711602Y-90949200D01*
X154461401Y-90199401D01*
X154481749Y-90168948D01*
X154512201Y-90148601D01*
X154676948Y-89902039D01*
X154734800Y-89611200D01*
X154734800Y-89491567D01*
X164926838Y-89491567D01*
X165068883Y-89835343D01*
X165102000Y-89868518D01*
X165102000Y-95551137D01*
X165069808Y-95583273D01*
X164927162Y-95926801D01*
X164926838Y-96298767D01*
X165068883Y-96642543D01*
X165331673Y-96905792D01*
X165675201Y-97048438D01*
X166047167Y-97048762D01*
X166390943Y-96906717D01*
X166654192Y-96643927D01*
X166796838Y-96300399D01*
X166797162Y-95928433D01*
X166655117Y-95584657D01*
X166622000Y-95551482D01*
X166622000Y-94912128D01*
X166716110Y-94976431D01*
X166968000Y-95027440D01*
X167158000Y-95027440D01*
X167158000Y-96290000D01*
X167215852Y-96580839D01*
X167380599Y-96827401D01*
X167449759Y-96896561D01*
X167336683Y-96917838D01*
X167120559Y-97056910D01*
X166975569Y-97269110D01*
X166924560Y-97521000D01*
X166924560Y-98821000D01*
X166968838Y-99056317D01*
X167095311Y-99252862D01*
X166975569Y-99428110D01*
X166924560Y-99680000D01*
X166924560Y-100980000D01*
X166968838Y-101215317D01*
X167107910Y-101431441D01*
X167320110Y-101576431D01*
X167562000Y-101625415D01*
X167562000Y-101647000D01*
X167594039Y-101808071D01*
X167593838Y-102039167D01*
X167735883Y-102382943D01*
X167998673Y-102646192D01*
X168342201Y-102788838D01*
X168714167Y-102789162D01*
X169057943Y-102647117D01*
X169321192Y-102384327D01*
X169463838Y-102040799D01*
X169464162Y-101668833D01*
X169403255Y-101521427D01*
X169523441Y-101444090D01*
X169668431Y-101231890D01*
X169671081Y-101218803D01*
X169807910Y-101431441D01*
X170020110Y-101576431D01*
X170272000Y-101627440D01*
X171772000Y-101627440D01*
X172007317Y-101583162D01*
X172223441Y-101444090D01*
X172368431Y-101231890D01*
X172419440Y-100980000D01*
X172419440Y-100258377D01*
X174445000Y-100258377D01*
X174445000Y-101361623D01*
X174607517Y-102178652D01*
X175070327Y-102871296D01*
X175762971Y-103334106D01*
X176580000Y-103496623D01*
X177397029Y-103334106D01*
X178089673Y-102871296D01*
X178552483Y-102178652D01*
X178715000Y-101361623D01*
X178715000Y-100258377D01*
X180745000Y-100258377D01*
X180745000Y-101361623D01*
X180907517Y-102178652D01*
X181370327Y-102871296D01*
X182062971Y-103334106D01*
X182880000Y-103496623D01*
X183697029Y-103334106D01*
X184389673Y-102871296D01*
X184852483Y-102178652D01*
X185015000Y-101361623D01*
X185015000Y-100937000D01*
X187045000Y-100937000D01*
X187045000Y-101437000D01*
X187256118Y-102244362D01*
X187760130Y-102909476D01*
X188480304Y-103331084D01*
X188721167Y-103395113D01*
X189053000Y-103282165D01*
X189053000Y-100937000D01*
X189307000Y-100937000D01*
X189307000Y-103282165D01*
X189638833Y-103395113D01*
X189879696Y-103331084D01*
X190599870Y-102909476D01*
X191103882Y-102244362D01*
X191315000Y-101437000D01*
X191315000Y-100937000D01*
X189307000Y-100937000D01*
X189053000Y-100937000D01*
X187045000Y-100937000D01*
X185015000Y-100937000D01*
X185015000Y-100258377D01*
X185000007Y-100183000D01*
X187045000Y-100183000D01*
X187045000Y-100683000D01*
X189053000Y-100683000D01*
X189053000Y-98337835D01*
X189307000Y-98337835D01*
X189307000Y-100683000D01*
X191315000Y-100683000D01*
X191315000Y-100183000D01*
X191103882Y-99375638D01*
X190599870Y-98710524D01*
X189879696Y-98288916D01*
X189638833Y-98224887D01*
X189307000Y-98337835D01*
X189053000Y-98337835D01*
X188721167Y-98224887D01*
X188480304Y-98288916D01*
X187760130Y-98710524D01*
X187256118Y-99375638D01*
X187045000Y-100183000D01*
X185000007Y-100183000D01*
X184852483Y-99441348D01*
X184389673Y-98748704D01*
X183697029Y-98285894D01*
X182880000Y-98123377D01*
X182062971Y-98285894D01*
X181370327Y-98748704D01*
X180907517Y-99441348D01*
X180745000Y-100258377D01*
X178715000Y-100258377D01*
X178552483Y-99441348D01*
X178089673Y-98748704D01*
X177397029Y-98285894D01*
X176580000Y-98123377D01*
X175762971Y-98285894D01*
X175070327Y-98748704D01*
X174607517Y-99441348D01*
X174445000Y-100258377D01*
X172419440Y-100258377D01*
X172419440Y-99680000D01*
X172375162Y-99444683D01*
X172248689Y-99248138D01*
X172368431Y-99072890D01*
X172419440Y-98821000D01*
X172419440Y-97521000D01*
X172375162Y-97285683D01*
X172236090Y-97069559D01*
X172023890Y-96924569D01*
X171772000Y-96873560D01*
X170272000Y-96873560D01*
X170036683Y-96917838D01*
X169820559Y-97056910D01*
X169675569Y-97269110D01*
X169672919Y-97282197D01*
X169536090Y-97069559D01*
X169323890Y-96924569D01*
X169082000Y-96875585D01*
X169082000Y-96694000D01*
X169072040Y-96643927D01*
X169024148Y-96403160D01*
X168859401Y-96156599D01*
X168678000Y-95975198D01*
X168678000Y-95215750D01*
X169333000Y-95215750D01*
X169333000Y-95456310D01*
X169429673Y-95689699D01*
X169608302Y-95868327D01*
X169841691Y-95965000D01*
X170632250Y-95965000D01*
X170791000Y-95806250D01*
X170791000Y-95057000D01*
X171045000Y-95057000D01*
X171045000Y-95806250D01*
X171203750Y-95965000D01*
X171994309Y-95965000D01*
X172227698Y-95868327D01*
X172406327Y-95689699D01*
X172503000Y-95456310D01*
X172503000Y-95215750D01*
X172344250Y-95057000D01*
X171045000Y-95057000D01*
X170791000Y-95057000D01*
X169491750Y-95057000D01*
X169333000Y-95215750D01*
X168678000Y-95215750D01*
X168678000Y-95027440D01*
X168868000Y-95027440D01*
X169103317Y-94983162D01*
X169319441Y-94844090D01*
X169406064Y-94717314D01*
X169491750Y-94803000D01*
X170791000Y-94803000D01*
X170791000Y-94783000D01*
X171045000Y-94783000D01*
X171045000Y-94803000D01*
X172344250Y-94803000D01*
X172503000Y-94644250D01*
X172503000Y-94403690D01*
X172406327Y-94170301D01*
X172227698Y-93991673D01*
X172191253Y-93976577D01*
X172319441Y-93894090D01*
X172390563Y-93790000D01*
X172781000Y-93790000D01*
X173071839Y-93732148D01*
X173318401Y-93567401D01*
X173765401Y-93120401D01*
X173930148Y-92873840D01*
X173949046Y-92778833D01*
X173988000Y-92583000D01*
X173988000Y-89310063D01*
X174020192Y-89277927D01*
X174162838Y-88934399D01*
X174163162Y-88562433D01*
X174021117Y-88218657D01*
X173758327Y-87955408D01*
X173414799Y-87812762D01*
X173042833Y-87812438D01*
X172699057Y-87954483D01*
X172435808Y-88217273D01*
X172293162Y-88560801D01*
X172292838Y-88932767D01*
X172434883Y-89276543D01*
X172468000Y-89309718D01*
X172468000Y-92268198D01*
X172466198Y-92270000D01*
X172390931Y-92270000D01*
X172332090Y-92178559D01*
X172119890Y-92033569D01*
X171868000Y-91982560D01*
X169968000Y-91982560D01*
X169732683Y-92026838D01*
X169516559Y-92165910D01*
X169371569Y-92378110D01*
X169320560Y-92630000D01*
X169320560Y-93120681D01*
X169119890Y-92983569D01*
X168868000Y-92932560D01*
X166968000Y-92932560D01*
X166732683Y-92976838D01*
X166622000Y-93048061D01*
X166622000Y-89868863D01*
X166654192Y-89836727D01*
X166796838Y-89493199D01*
X166797162Y-89121233D01*
X166655117Y-88777457D01*
X166392327Y-88514208D01*
X166048799Y-88371562D01*
X165676833Y-88371238D01*
X165333057Y-88513283D01*
X165069808Y-88776073D01*
X164927162Y-89119601D01*
X164926838Y-89491567D01*
X154734800Y-89491567D01*
X154734800Y-86333202D01*
X154676948Y-86042363D01*
X154676948Y-86042362D01*
X154512201Y-85795801D01*
X154480800Y-85764400D01*
X154480800Y-84058377D01*
X174445000Y-84058377D01*
X174445000Y-85161623D01*
X174607517Y-85978652D01*
X175070327Y-86671296D01*
X175762971Y-87134106D01*
X176580000Y-87296623D01*
X177397029Y-87134106D01*
X178089673Y-86671296D01*
X178552483Y-85978652D01*
X178715000Y-85161623D01*
X178715000Y-84058377D01*
X180745000Y-84058377D01*
X180745000Y-85161623D01*
X180907517Y-85978652D01*
X181370327Y-86671296D01*
X182062971Y-87134106D01*
X182880000Y-87296623D01*
X183697029Y-87134106D01*
X184389673Y-86671296D01*
X184852483Y-85978652D01*
X185015000Y-85161623D01*
X185015000Y-84058377D01*
X187045000Y-84058377D01*
X187045000Y-85161623D01*
X187207517Y-85978652D01*
X187670327Y-86671296D01*
X188362971Y-87134106D01*
X189180000Y-87296623D01*
X189997029Y-87134106D01*
X190689673Y-86671296D01*
X191152483Y-85978652D01*
X191315000Y-85161623D01*
X191315000Y-84058377D01*
X191152483Y-83241348D01*
X190689673Y-82548704D01*
X189997029Y-82085894D01*
X189180000Y-81923377D01*
X188362971Y-82085894D01*
X187670327Y-82548704D01*
X187207517Y-83241348D01*
X187045000Y-84058377D01*
X185015000Y-84058377D01*
X184852483Y-83241348D01*
X184389673Y-82548704D01*
X183697029Y-82085894D01*
X182880000Y-81923377D01*
X182062971Y-82085894D01*
X181370327Y-82548704D01*
X180907517Y-83241348D01*
X180745000Y-84058377D01*
X178715000Y-84058377D01*
X178552483Y-83241348D01*
X178089673Y-82548704D01*
X177397029Y-82085894D01*
X176580000Y-81923377D01*
X175762971Y-82085894D01*
X175070327Y-82548704D01*
X174607517Y-83241348D01*
X174445000Y-84058377D01*
X154480800Y-84058377D01*
X154480800Y-83921600D01*
X154422948Y-83630761D01*
X154258201Y-83384199D01*
X153648601Y-82774599D01*
X153402039Y-82609852D01*
X153371206Y-82603719D01*
X153136415Y-82252330D01*
X152821634Y-82042000D01*
X153136415Y-81831670D01*
X153461271Y-81345489D01*
X153575345Y-80772000D01*
X153461271Y-80198511D01*
X153136415Y-79712330D01*
X152821634Y-79502000D01*
X153136415Y-79291670D01*
X153461271Y-78805489D01*
X153575345Y-78232000D01*
X153470711Y-77705967D01*
X162691638Y-77705967D01*
X162833683Y-78049743D01*
X163096473Y-78312992D01*
X163440001Y-78455638D01*
X163486877Y-78455679D01*
X164926878Y-79895680D01*
X164926838Y-79941167D01*
X165068883Y-80284943D01*
X165331673Y-80548192D01*
X165675201Y-80690838D01*
X166047167Y-80691162D01*
X166390943Y-80549117D01*
X166654192Y-80286327D01*
X166796838Y-79942799D01*
X166796894Y-79878307D01*
X166859967Y-79878362D01*
X167174926Y-79748224D01*
X167234910Y-79841441D01*
X167447110Y-79986431D01*
X167699000Y-80037440D01*
X167710371Y-80037440D01*
X167746852Y-80220839D01*
X167911599Y-80467401D01*
X168372599Y-80928401D01*
X168619160Y-81093148D01*
X168640577Y-81097408D01*
X168910000Y-81151000D01*
X172538537Y-81151000D01*
X172570673Y-81183192D01*
X172914201Y-81325838D01*
X173286167Y-81326162D01*
X173629943Y-81184117D01*
X173893192Y-80921327D01*
X174035838Y-80577799D01*
X174036162Y-80205833D01*
X173894117Y-79862057D01*
X173631327Y-79598808D01*
X173287799Y-79456162D01*
X172915833Y-79455838D01*
X172572057Y-79597883D01*
X172538882Y-79631000D01*
X172497636Y-79631000D01*
X172546440Y-79390000D01*
X172546440Y-78668377D01*
X174445000Y-78668377D01*
X174445000Y-79771623D01*
X174607517Y-80588652D01*
X175070327Y-81281296D01*
X175762971Y-81744106D01*
X176580000Y-81906623D01*
X177397029Y-81744106D01*
X178089673Y-81281296D01*
X178552483Y-80588652D01*
X178715000Y-79771623D01*
X178715000Y-78668377D01*
X180745000Y-78668377D01*
X180745000Y-79771623D01*
X180907517Y-80588652D01*
X181370327Y-81281296D01*
X182062971Y-81744106D01*
X182880000Y-81906623D01*
X183697029Y-81744106D01*
X184389673Y-81281296D01*
X184852483Y-80588652D01*
X185015000Y-79771623D01*
X185015000Y-79347000D01*
X187045000Y-79347000D01*
X187045000Y-79847000D01*
X187256118Y-80654362D01*
X187760130Y-81319476D01*
X188480304Y-81741084D01*
X188721167Y-81805113D01*
X189053000Y-81692165D01*
X189053000Y-79347000D01*
X189307000Y-79347000D01*
X189307000Y-81692165D01*
X189638833Y-81805113D01*
X189879696Y-81741084D01*
X190599870Y-81319476D01*
X191103882Y-80654362D01*
X191315000Y-79847000D01*
X191315000Y-79347000D01*
X189307000Y-79347000D01*
X189053000Y-79347000D01*
X187045000Y-79347000D01*
X185015000Y-79347000D01*
X185015000Y-78668377D01*
X185000007Y-78593000D01*
X187045000Y-78593000D01*
X187045000Y-79093000D01*
X189053000Y-79093000D01*
X189053000Y-76747835D01*
X189307000Y-76747835D01*
X189307000Y-79093000D01*
X191315000Y-79093000D01*
X191315000Y-78593000D01*
X191103882Y-77785638D01*
X190599870Y-77120524D01*
X189879696Y-76698916D01*
X189638833Y-76634887D01*
X189307000Y-76747835D01*
X189053000Y-76747835D01*
X188721167Y-76634887D01*
X188480304Y-76698916D01*
X187760130Y-77120524D01*
X187256118Y-77785638D01*
X187045000Y-78593000D01*
X185000007Y-78593000D01*
X184852483Y-77851348D01*
X184389673Y-77158704D01*
X183697029Y-76695894D01*
X182880000Y-76533377D01*
X182062971Y-76695894D01*
X181370327Y-77158704D01*
X180907517Y-77851348D01*
X180745000Y-78668377D01*
X178715000Y-78668377D01*
X178552483Y-77851348D01*
X178089673Y-77158704D01*
X177397029Y-76695894D01*
X176580000Y-76533377D01*
X175762971Y-76695894D01*
X175070327Y-77158704D01*
X174607517Y-77851348D01*
X174445000Y-78668377D01*
X172546440Y-78668377D01*
X172546440Y-78090000D01*
X172502162Y-77854683D01*
X172375689Y-77658138D01*
X172495431Y-77482890D01*
X172546440Y-77231000D01*
X172546440Y-75931000D01*
X172502162Y-75695683D01*
X172363090Y-75479559D01*
X172150890Y-75334569D01*
X171899000Y-75283560D01*
X170399000Y-75283560D01*
X170163683Y-75327838D01*
X169947559Y-75466910D01*
X169802569Y-75679110D01*
X169799919Y-75692197D01*
X169663090Y-75479559D01*
X169450890Y-75334569D01*
X169209000Y-75285585D01*
X169209000Y-74850000D01*
X169151148Y-74559161D01*
X169151148Y-74559160D01*
X168986401Y-74312599D01*
X168678000Y-74004198D01*
X168678000Y-73371750D01*
X169333000Y-73371750D01*
X169333000Y-73612310D01*
X169429673Y-73845699D01*
X169608302Y-74024327D01*
X169841691Y-74121000D01*
X170632250Y-74121000D01*
X170791000Y-73962250D01*
X170791000Y-73213000D01*
X171045000Y-73213000D01*
X171045000Y-73962250D01*
X171203750Y-74121000D01*
X171994309Y-74121000D01*
X172227698Y-74024327D01*
X172406327Y-73845699D01*
X172503000Y-73612310D01*
X172503000Y-73371750D01*
X172344250Y-73213000D01*
X171045000Y-73213000D01*
X170791000Y-73213000D01*
X169491750Y-73213000D01*
X169333000Y-73371750D01*
X168678000Y-73371750D01*
X168678000Y-73183440D01*
X168868000Y-73183440D01*
X169103317Y-73139162D01*
X169319441Y-73000090D01*
X169406064Y-72873314D01*
X169491750Y-72959000D01*
X170791000Y-72959000D01*
X170791000Y-72939000D01*
X171045000Y-72939000D01*
X171045000Y-72959000D01*
X172344250Y-72959000D01*
X172503000Y-72800250D01*
X172503000Y-72559690D01*
X172406327Y-72326301D01*
X172227698Y-72147673D01*
X172191253Y-72132577D01*
X172319441Y-72050090D01*
X172390563Y-71946000D01*
X173035000Y-71946000D01*
X173325839Y-71888148D01*
X173572401Y-71723401D01*
X174146401Y-71149401D01*
X174311148Y-70902839D01*
X174369000Y-70612000D01*
X174369000Y-69625019D01*
X174426592Y-69567527D01*
X174569238Y-69223999D01*
X174569562Y-68852033D01*
X174427517Y-68508257D01*
X174164727Y-68245008D01*
X173821199Y-68102362D01*
X173449233Y-68102038D01*
X173105457Y-68244083D01*
X172842208Y-68506873D01*
X172699562Y-68850401D01*
X172699238Y-69222367D01*
X172841283Y-69566143D01*
X172849000Y-69573873D01*
X172849000Y-70297198D01*
X172720198Y-70426000D01*
X172390931Y-70426000D01*
X172332090Y-70334559D01*
X172119890Y-70189569D01*
X171868000Y-70138560D01*
X169968000Y-70138560D01*
X169732683Y-70182838D01*
X169516559Y-70321910D01*
X169371569Y-70534110D01*
X169320560Y-70786000D01*
X169320560Y-71276681D01*
X169119890Y-71139569D01*
X168868000Y-71088560D01*
X166968000Y-71088560D01*
X166732683Y-71132838D01*
X166516559Y-71271910D01*
X166371569Y-71484110D01*
X166320560Y-71736000D01*
X166320560Y-72536000D01*
X166364838Y-72771317D01*
X166503910Y-72987441D01*
X166716110Y-73132431D01*
X166968000Y-73183440D01*
X167158000Y-73183440D01*
X167158000Y-74319000D01*
X167215852Y-74609839D01*
X167380599Y-74856401D01*
X167689000Y-75164802D01*
X167689000Y-75285442D01*
X167463683Y-75327838D01*
X167247559Y-75466910D01*
X167102569Y-75679110D01*
X167051560Y-75931000D01*
X167051560Y-77231000D01*
X167095838Y-77466317D01*
X167222311Y-77662862D01*
X167102569Y-77838110D01*
X167052075Y-78087455D01*
X166861599Y-78008362D01*
X166814723Y-78008321D01*
X165425522Y-76619120D01*
X165425562Y-76573633D01*
X165283517Y-76229857D01*
X165020727Y-75966608D01*
X164677199Y-75823962D01*
X164305233Y-75823638D01*
X163961457Y-75965683D01*
X163698208Y-76228473D01*
X163555562Y-76572001D01*
X163555550Y-76585737D01*
X163441633Y-76585638D01*
X163097857Y-76727683D01*
X162834608Y-76990473D01*
X162691962Y-77334001D01*
X162691638Y-77705967D01*
X153470711Y-77705967D01*
X153461271Y-77658511D01*
X153136415Y-77172330D01*
X152821634Y-76962000D01*
X153136415Y-76751670D01*
X153461271Y-76265489D01*
X153575345Y-75692000D01*
X153461271Y-75118511D01*
X153136415Y-74632330D01*
X152821634Y-74422000D01*
X153136415Y-74211670D01*
X153461271Y-73725489D01*
X153575345Y-73152000D01*
X153461271Y-72578511D01*
X153136415Y-72092330D01*
X152821634Y-71882000D01*
X153136415Y-71671670D01*
X153461271Y-71185489D01*
X153575345Y-70612000D01*
X153461271Y-70038511D01*
X153136415Y-69552330D01*
X152821634Y-69342000D01*
X153136415Y-69131670D01*
X153461271Y-68645489D01*
X153575345Y-68072000D01*
X153461271Y-67498511D01*
X153136415Y-67012330D01*
X152821634Y-66802000D01*
X153136415Y-66591670D01*
X153461271Y-66105489D01*
X153575345Y-65532000D01*
X153461271Y-64958511D01*
X153136415Y-64472330D01*
X152821634Y-64262000D01*
X153136415Y-64051670D01*
X153461271Y-63565489D01*
X153575345Y-62992000D01*
X153471190Y-62468377D01*
X174445000Y-62468377D01*
X174445000Y-63571623D01*
X174607517Y-64388652D01*
X175070327Y-65081296D01*
X175762971Y-65544106D01*
X176580000Y-65706623D01*
X177397029Y-65544106D01*
X178089673Y-65081296D01*
X178552483Y-64388652D01*
X178715000Y-63571623D01*
X178715000Y-62468377D01*
X180745000Y-62468377D01*
X180745000Y-63571623D01*
X180907517Y-64388652D01*
X181370327Y-65081296D01*
X182062971Y-65544106D01*
X182880000Y-65706623D01*
X183697029Y-65544106D01*
X184389673Y-65081296D01*
X184852483Y-64388652D01*
X185015000Y-63571623D01*
X185015000Y-62468377D01*
X187045000Y-62468377D01*
X187045000Y-63571623D01*
X187207517Y-64388652D01*
X187670327Y-65081296D01*
X188362971Y-65544106D01*
X189180000Y-65706623D01*
X189997029Y-65544106D01*
X190689673Y-65081296D01*
X191152483Y-64388652D01*
X191315000Y-63571623D01*
X191315000Y-62468377D01*
X191152483Y-61651348D01*
X190689673Y-60958704D01*
X189997029Y-60495894D01*
X189180000Y-60333377D01*
X188362971Y-60495894D01*
X187670327Y-60958704D01*
X187207517Y-61651348D01*
X187045000Y-62468377D01*
X185015000Y-62468377D01*
X184852483Y-61651348D01*
X184389673Y-60958704D01*
X183697029Y-60495894D01*
X182880000Y-60333377D01*
X182062971Y-60495894D01*
X181370327Y-60958704D01*
X180907517Y-61651348D01*
X180745000Y-62468377D01*
X178715000Y-62468377D01*
X178552483Y-61651348D01*
X178089673Y-60958704D01*
X177397029Y-60495894D01*
X176580000Y-60333377D01*
X175762971Y-60495894D01*
X175070327Y-60958704D01*
X174607517Y-61651348D01*
X174445000Y-62468377D01*
X153471190Y-62468377D01*
X153461271Y-62418511D01*
X153136415Y-61932330D01*
X152821634Y-61722000D01*
X153136415Y-61511670D01*
X153461271Y-61025489D01*
X153575345Y-60452000D01*
X153461271Y-59878511D01*
X153136415Y-59392330D01*
X152821634Y-59182000D01*
X153136415Y-58971670D01*
X153461271Y-58485489D01*
X153522670Y-58176815D01*
X187074630Y-58176815D01*
X187398980Y-58961800D01*
X187999041Y-59562909D01*
X188783459Y-59888628D01*
X189632815Y-59889370D01*
X190417800Y-59565020D01*
X191018909Y-58964959D01*
X191344628Y-58180541D01*
X191345370Y-57331185D01*
X191021020Y-56546200D01*
X190420959Y-55945091D01*
X189636541Y-55619372D01*
X188787185Y-55618630D01*
X188002200Y-55942980D01*
X187401091Y-56543041D01*
X187075372Y-57327459D01*
X187074630Y-58176815D01*
X153522670Y-58176815D01*
X153575345Y-57912000D01*
X153461271Y-57338511D01*
X153203599Y-56952878D01*
X153267698Y-56926327D01*
X153446327Y-56747699D01*
X153543000Y-56514310D01*
X153543000Y-55657750D01*
X153384250Y-55499000D01*
X152019000Y-55499000D01*
X152019000Y-55519000D01*
X151765000Y-55519000D01*
X151765000Y-55499000D01*
X150399750Y-55499000D01*
X150241000Y-55657750D01*
X150241000Y-56514310D01*
X150337673Y-56747699D01*
X150516302Y-56926327D01*
X150580401Y-56952878D01*
X150322729Y-57338511D01*
X150208655Y-57912000D01*
X150322729Y-58485489D01*
X150647585Y-58971670D01*
X150962366Y-59182000D01*
X150647585Y-59392330D01*
X150322729Y-59878511D01*
X150208655Y-60452000D01*
X150322729Y-61025489D01*
X150647585Y-61511670D01*
X150962366Y-61722000D01*
X150647585Y-61932330D01*
X150322729Y-62418511D01*
X150208655Y-62992000D01*
X150322729Y-63565489D01*
X150647585Y-64051670D01*
X150962366Y-64262000D01*
X150647585Y-64472330D01*
X150322729Y-64958511D01*
X150208655Y-65532000D01*
X150322729Y-66105489D01*
X150647585Y-66591670D01*
X150962366Y-66802000D01*
X150647585Y-67012330D01*
X150322729Y-67498511D01*
X150208655Y-68072000D01*
X150322729Y-68645489D01*
X150647585Y-69131670D01*
X150962366Y-69342000D01*
X150647585Y-69552330D01*
X150322729Y-70038511D01*
X150208655Y-70612000D01*
X150322729Y-71185489D01*
X150647585Y-71671670D01*
X150962366Y-71882000D01*
X150647585Y-72092330D01*
X150322729Y-72578511D01*
X150208655Y-73152000D01*
X150322729Y-73725489D01*
X150647585Y-74211670D01*
X150962366Y-74422000D01*
X150647585Y-74632330D01*
X150322729Y-75118511D01*
X150208655Y-75692000D01*
X150322729Y-76265489D01*
X150647585Y-76751670D01*
X150962366Y-76962000D01*
X150647585Y-77172330D01*
X150322729Y-77658511D01*
X150208655Y-78232000D01*
X150322729Y-78805489D01*
X150647585Y-79291670D01*
X150962366Y-79502000D01*
X150647585Y-79712330D01*
X150322729Y-80198511D01*
X150208655Y-80772000D01*
X150322729Y-81345489D01*
X150647585Y-81831670D01*
X150962366Y-82042000D01*
X150647585Y-82252330D01*
X150322729Y-82738511D01*
X150208655Y-83312000D01*
X150322729Y-83885489D01*
X150647585Y-84371670D01*
X150962366Y-84582000D01*
X150647585Y-84792330D01*
X150322729Y-85278511D01*
X150208655Y-85852000D01*
X150322729Y-86425489D01*
X150647585Y-86911670D01*
X150962366Y-87122000D01*
X150647585Y-87332330D01*
X150322729Y-87818511D01*
X150208655Y-88392000D01*
X150322729Y-88965489D01*
X150647585Y-89451670D01*
X151132000Y-89775346D01*
X151132000Y-101539198D01*
X150357998Y-102313200D01*
X150258103Y-102313200D01*
X150286838Y-102243999D01*
X150287162Y-101872033D01*
X150145117Y-101528257D01*
X150112000Y-101495082D01*
X150112000Y-94339263D01*
X150144192Y-94307127D01*
X150286838Y-93963599D01*
X150287162Y-93591633D01*
X150145117Y-93247857D01*
X149882327Y-92984608D01*
X149538799Y-92841962D01*
X149166833Y-92841638D01*
X148823057Y-92983683D01*
X148559808Y-93246473D01*
X148417162Y-93590001D01*
X148416838Y-93961967D01*
X148558883Y-94305743D01*
X148592000Y-94338918D01*
X148592000Y-97394426D01*
X147319680Y-96122106D01*
X147121977Y-95987021D01*
X146870815Y-95932537D01*
X146618244Y-95980061D01*
X146404062Y-96122106D01*
X145131270Y-97394898D01*
X144996185Y-97592601D01*
X144941701Y-97843763D01*
X144989225Y-98096334D01*
X145131270Y-98310516D01*
X145254313Y-98433559D01*
X145212283Y-98433522D01*
X144840931Y-98586961D01*
X144556566Y-98870831D01*
X144402479Y-99241914D01*
X144402128Y-99643717D01*
X144555567Y-100015069D01*
X144839437Y-100299434D01*
X145210520Y-100453521D01*
X145612323Y-100453872D01*
X145983675Y-100300433D01*
X146268040Y-100016563D01*
X146422127Y-99645480D01*
X146422165Y-99601411D01*
X146545484Y-99724730D01*
X146743187Y-99859815D01*
X146994349Y-99914299D01*
X147246920Y-99866775D01*
X147461102Y-99724730D01*
X148592000Y-98593832D01*
X148592000Y-101494737D01*
X148559808Y-101526873D01*
X148516175Y-101631952D01*
X147920721Y-101036498D01*
X147723018Y-100901413D01*
X147471856Y-100846929D01*
X147219285Y-100894453D01*
X147005103Y-101036498D01*
X146297997Y-101743604D01*
X146178970Y-101917806D01*
X146015154Y-102026448D01*
X145308048Y-102733554D01*
X145189023Y-102907753D01*
X145025204Y-103016397D01*
X144318098Y-103723503D01*
X144183013Y-103921206D01*
X144128529Y-104172368D01*
X143011204Y-104172368D01*
X143141415Y-103981799D01*
X143195899Y-103730637D01*
X143148375Y-103478066D01*
X143009360Y-103268453D01*
X143381526Y-103114677D01*
X143708124Y-102788648D01*
X143885095Y-102362454D01*
X143885498Y-101900977D01*
X143709271Y-101474474D01*
X143383242Y-101147876D01*
X142957048Y-100970905D01*
X142495571Y-100970502D01*
X142069068Y-101146729D01*
X141742470Y-101472758D01*
X141587323Y-101846395D01*
X141394413Y-101714585D01*
X141143251Y-101660101D01*
X140890680Y-101707625D01*
X140676498Y-101849670D01*
X139403706Y-103122462D01*
X139268621Y-103320165D01*
X139214137Y-103571327D01*
X112001335Y-103571327D01*
X111710000Y-103513377D01*
X110892971Y-103675894D01*
X110200327Y-104138704D01*
X109737517Y-104831348D01*
X109575000Y-105648377D01*
X107545000Y-105648377D01*
X107382483Y-104831348D01*
X106919673Y-104138704D01*
X106227029Y-103675894D01*
X105410000Y-103513377D01*
X104592971Y-103675894D01*
X103900327Y-104138704D01*
X103437517Y-104831348D01*
X103275000Y-105648377D01*
X101245000Y-105648377D01*
X101245000Y-105573000D01*
X101033882Y-104765638D01*
X100529870Y-104100524D01*
X99809696Y-103678916D01*
X99568833Y-103614887D01*
X99237000Y-103727835D01*
X98983000Y-103727835D01*
X98651167Y-103614887D01*
X98410304Y-103678916D01*
X97690130Y-104100524D01*
X97186118Y-104765638D01*
X96975000Y-105573000D01*
X95145000Y-105573000D01*
X95145000Y-100258377D01*
X96975000Y-100258377D01*
X96975000Y-101361623D01*
X97137517Y-102178652D01*
X97600327Y-102871296D01*
X98292971Y-103334106D01*
X99110000Y-103496623D01*
X99927029Y-103334106D01*
X100619673Y-102871296D01*
X101082483Y-102178652D01*
X101245000Y-101361623D01*
X101245000Y-100258377D01*
X103275000Y-100258377D01*
X103275000Y-101361623D01*
X103437517Y-102178652D01*
X103900327Y-102871296D01*
X104592971Y-103334106D01*
X105410000Y-103496623D01*
X106227029Y-103334106D01*
X106919673Y-102871296D01*
X107382483Y-102178652D01*
X107545000Y-101361623D01*
X107545000Y-100258377D01*
X109575000Y-100258377D01*
X109575000Y-101361623D01*
X109737517Y-102178652D01*
X110200327Y-102871296D01*
X110892971Y-103334106D01*
X111710000Y-103496623D01*
X112527029Y-103334106D01*
X113219673Y-102871296D01*
X113605966Y-102293167D01*
X114126838Y-102293167D01*
X114268883Y-102636943D01*
X114531673Y-102900192D01*
X114875201Y-103042838D01*
X115247167Y-103043162D01*
X115590943Y-102901117D01*
X115624118Y-102868000D01*
X119634000Y-102868000D01*
X119924839Y-102810148D01*
X120171401Y-102645401D01*
X120759401Y-102057401D01*
X120924148Y-101810839D01*
X120960629Y-101627440D01*
X120972000Y-101627440D01*
X121207317Y-101583162D01*
X121423441Y-101444090D01*
X121568431Y-101231890D01*
X121619440Y-100980000D01*
X121619440Y-99680000D01*
X121575162Y-99444683D01*
X121436090Y-99228559D01*
X121376841Y-99188076D01*
X121423441Y-99158090D01*
X121568431Y-98945890D01*
X121619440Y-98694000D01*
X121619440Y-97394000D01*
X121575162Y-97158683D01*
X121436090Y-96942559D01*
X121223890Y-96797569D01*
X121132000Y-96778961D01*
X121132000Y-94773440D01*
X121322000Y-94773440D01*
X121557317Y-94729162D01*
X121773441Y-94590090D01*
X121918431Y-94377890D01*
X121969440Y-94126000D01*
X121969440Y-93326000D01*
X121925162Y-93090683D01*
X121786090Y-92874559D01*
X121573890Y-92729569D01*
X121322000Y-92678560D01*
X119422000Y-92678560D01*
X119186683Y-92722838D01*
X118970559Y-92861910D01*
X118883936Y-92988686D01*
X118798250Y-92903000D01*
X117499000Y-92903000D01*
X117499000Y-92923000D01*
X117245000Y-92923000D01*
X117245000Y-92903000D01*
X115945750Y-92903000D01*
X115787000Y-93061750D01*
X115787000Y-93302310D01*
X115883673Y-93535699D01*
X116062302Y-93714327D01*
X116098747Y-93729423D01*
X115970559Y-93811910D01*
X115854342Y-93982000D01*
X115570000Y-93982000D01*
X115279161Y-94039852D01*
X115165983Y-94115475D01*
X115032599Y-94204599D01*
X114973120Y-94264078D01*
X114927633Y-94264038D01*
X114583857Y-94406083D01*
X114320608Y-94668873D01*
X114177962Y-95012401D01*
X114177638Y-95384367D01*
X114319683Y-95728143D01*
X114582473Y-95991392D01*
X114926001Y-96134038D01*
X115297967Y-96134362D01*
X115641743Y-95992317D01*
X115904992Y-95729527D01*
X115982055Y-95543939D01*
X116170110Y-95672431D01*
X116422000Y-95723440D01*
X118322000Y-95723440D01*
X118557317Y-95679162D01*
X118773441Y-95540090D01*
X118918431Y-95327890D01*
X118969440Y-95076000D01*
X118969440Y-94585319D01*
X119170110Y-94722431D01*
X119422000Y-94773440D01*
X119612000Y-94773440D01*
X119612000Y-96746560D01*
X119472000Y-96746560D01*
X119236683Y-96790838D01*
X119020559Y-96929910D01*
X118875569Y-97142110D01*
X118872919Y-97155197D01*
X118736090Y-96942559D01*
X118523890Y-96797569D01*
X118272000Y-96746560D01*
X116772000Y-96746560D01*
X116536683Y-96790838D01*
X116320559Y-96929910D01*
X116175569Y-97142110D01*
X116124560Y-97394000D01*
X116124560Y-98694000D01*
X116168838Y-98929317D01*
X116307910Y-99145441D01*
X116367159Y-99185924D01*
X116320559Y-99215910D01*
X116175569Y-99428110D01*
X116124560Y-99680000D01*
X116124560Y-100980000D01*
X116168838Y-101215317D01*
X116254217Y-101348000D01*
X115624463Y-101348000D01*
X115592327Y-101315808D01*
X115248799Y-101173162D01*
X114876833Y-101172838D01*
X114533057Y-101314883D01*
X114269808Y-101577673D01*
X114127162Y-101921201D01*
X114126838Y-102293167D01*
X113605966Y-102293167D01*
X113682483Y-102178652D01*
X113845000Y-101361623D01*
X113845000Y-100258377D01*
X113682483Y-99441348D01*
X113219673Y-98748704D01*
X112527029Y-98285894D01*
X111710000Y-98123377D01*
X110892971Y-98285894D01*
X110200327Y-98748704D01*
X109737517Y-99441348D01*
X109575000Y-100258377D01*
X107545000Y-100258377D01*
X107382483Y-99441348D01*
X106919673Y-98748704D01*
X106227029Y-98285894D01*
X105410000Y-98123377D01*
X104592971Y-98285894D01*
X103900327Y-98748704D01*
X103437517Y-99441348D01*
X103275000Y-100258377D01*
X101245000Y-100258377D01*
X101082483Y-99441348D01*
X100619673Y-98748704D01*
X99927029Y-98285894D01*
X99110000Y-98123377D01*
X98292971Y-98285894D01*
X97600327Y-98748704D01*
X97137517Y-99441348D01*
X96975000Y-100258377D01*
X95145000Y-100258377D01*
X95145000Y-92249690D01*
X115787000Y-92249690D01*
X115787000Y-92490250D01*
X115945750Y-92649000D01*
X117245000Y-92649000D01*
X117245000Y-91899750D01*
X117499000Y-91899750D01*
X117499000Y-92649000D01*
X118798250Y-92649000D01*
X118957000Y-92490250D01*
X118957000Y-92249690D01*
X118860327Y-92016301D01*
X118681698Y-91837673D01*
X118448309Y-91741000D01*
X117657750Y-91741000D01*
X117499000Y-91899750D01*
X117245000Y-91899750D01*
X117086250Y-91741000D01*
X116295691Y-91741000D01*
X116062302Y-91837673D01*
X115883673Y-92016301D01*
X115787000Y-92249690D01*
X95145000Y-92249690D01*
X95145000Y-91117167D01*
X114736438Y-91117167D01*
X114878483Y-91460943D01*
X115141273Y-91724192D01*
X115484801Y-91866838D01*
X115856767Y-91867162D01*
X116200543Y-91725117D01*
X116233718Y-91692000D01*
X122322737Y-91692000D01*
X122354873Y-91724192D01*
X122698401Y-91866838D01*
X123070367Y-91867162D01*
X123414143Y-91725117D01*
X123677392Y-91462327D01*
X123820038Y-91118799D01*
X123820362Y-90746833D01*
X123678317Y-90403057D01*
X123415527Y-90139808D01*
X123071999Y-89997162D01*
X122700033Y-89996838D01*
X122356257Y-90138883D01*
X122323082Y-90172000D01*
X116234063Y-90172000D01*
X116201927Y-90139808D01*
X115858399Y-89997162D01*
X115486433Y-89996838D01*
X115142657Y-90138883D01*
X114879408Y-90401673D01*
X114736762Y-90745201D01*
X114736438Y-91117167D01*
X95145000Y-91117167D01*
X95145000Y-89643967D01*
X132668838Y-89643967D01*
X132719000Y-89765369D01*
X132719000Y-93469978D01*
X132669162Y-93590001D01*
X132668838Y-93961967D01*
X132810883Y-94305743D01*
X133073673Y-94568992D01*
X133417201Y-94711638D01*
X133789167Y-94711962D01*
X134132943Y-94569917D01*
X134396192Y-94307127D01*
X134538838Y-93963599D01*
X134539162Y-93591633D01*
X134489000Y-93470231D01*
X134489000Y-91012202D01*
X139154551Y-95677753D01*
X139154551Y-98612850D01*
X139187292Y-98777446D01*
X139127200Y-98865393D01*
X139072716Y-99116555D01*
X139120240Y-99369126D01*
X139262285Y-99583308D01*
X140216879Y-100537902D01*
X140414582Y-100672987D01*
X140665744Y-100727471D01*
X140918315Y-100679947D01*
X141132497Y-100537902D01*
X141839603Y-99830796D01*
X141959495Y-99655329D01*
X142024335Y-99628471D01*
X142202963Y-99449842D01*
X142265147Y-99387659D01*
X142265147Y-99163152D01*
X141540893Y-98438898D01*
X141526751Y-98453041D01*
X141347146Y-98273436D01*
X141361288Y-98259293D01*
X141347146Y-98245151D01*
X141526751Y-98065546D01*
X141540893Y-98079688D01*
X141555036Y-98065546D01*
X141734641Y-98245151D01*
X141720498Y-98259293D01*
X142444752Y-98983547D01*
X142669259Y-98983547D01*
X142731442Y-98921363D01*
X142910071Y-98742735D01*
X142938940Y-98673038D01*
X143112396Y-98558003D01*
X143819502Y-97850897D01*
X143954587Y-97653194D01*
X144009071Y-97402032D01*
X143961547Y-97149461D01*
X143819502Y-96935279D01*
X142864908Y-95980685D01*
X142667205Y-95845600D01*
X142416043Y-95791116D01*
X142173125Y-95836824D01*
X138371272Y-92034971D01*
X138700401Y-92171638D01*
X138866493Y-92171783D01*
X138866438Y-92234767D01*
X139008483Y-92578543D01*
X139271273Y-92841792D01*
X139614801Y-92984438D01*
X139780981Y-92984583D01*
X139780838Y-93149167D01*
X139922883Y-93492943D01*
X140185673Y-93756192D01*
X140529201Y-93898838D01*
X140901167Y-93899162D01*
X141244943Y-93757117D01*
X141278118Y-93724000D01*
X144573137Y-93724000D01*
X144605273Y-93756192D01*
X144948801Y-93898838D01*
X145320767Y-93899162D01*
X145664543Y-93757117D01*
X145927792Y-93494327D01*
X146070438Y-93150799D01*
X146070762Y-92778833D01*
X145928717Y-92435057D01*
X145665927Y-92171808D01*
X145322399Y-92029162D01*
X145206974Y-92029061D01*
X145207162Y-91813633D01*
X145065117Y-91469857D01*
X144802327Y-91206608D01*
X144458799Y-91063962D01*
X144241907Y-91063773D01*
X144241962Y-91000833D01*
X144099917Y-90657057D01*
X143837127Y-90393808D01*
X143581519Y-90287670D01*
X143581562Y-90238833D01*
X143439517Y-89895057D01*
X143176727Y-89631808D01*
X142833199Y-89489162D01*
X142461233Y-89488838D01*
X142117457Y-89630883D01*
X142084282Y-89664000D01*
X138687663Y-89664000D01*
X138655527Y-89631808D01*
X138311999Y-89489162D01*
X137940033Y-89488838D01*
X137679972Y-89596293D01*
X137896415Y-89451670D01*
X138221271Y-88965489D01*
X138335345Y-88392000D01*
X138221271Y-87818511D01*
X138185094Y-87764367D01*
X146384838Y-87764367D01*
X146526883Y-88108143D01*
X146560000Y-88141318D01*
X146560000Y-91233137D01*
X146527808Y-91265273D01*
X146385162Y-91608801D01*
X146384838Y-91980767D01*
X146526883Y-92324543D01*
X146789673Y-92587792D01*
X147133201Y-92730438D01*
X147505167Y-92730762D01*
X147848943Y-92588717D01*
X148112192Y-92325927D01*
X148254838Y-91982399D01*
X148255162Y-91610433D01*
X148113117Y-91266657D01*
X148080000Y-91233482D01*
X148080000Y-88141663D01*
X148112192Y-88109527D01*
X148254838Y-87765999D01*
X148255162Y-87394033D01*
X148113117Y-87050257D01*
X147850327Y-86787008D01*
X147506799Y-86644362D01*
X147134833Y-86644038D01*
X146791057Y-86786083D01*
X146527808Y-87048873D01*
X146385162Y-87392401D01*
X146384838Y-87764367D01*
X138185094Y-87764367D01*
X137896415Y-87332330D01*
X137581634Y-87122000D01*
X137896415Y-86911670D01*
X138221271Y-86425489D01*
X138335345Y-85852000D01*
X138221271Y-85278511D01*
X137896415Y-84792330D01*
X137581634Y-84582000D01*
X137896415Y-84371670D01*
X138221271Y-83885489D01*
X138335345Y-83312000D01*
X138221271Y-82738511D01*
X137896415Y-82252330D01*
X137581634Y-82042000D01*
X137896415Y-81831670D01*
X138221271Y-81345489D01*
X138335345Y-80772000D01*
X138221271Y-80198511D01*
X137896415Y-79712330D01*
X137581634Y-79502000D01*
X137896415Y-79291670D01*
X138221271Y-78805489D01*
X138335345Y-78232000D01*
X138221271Y-77658511D01*
X137896415Y-77172330D01*
X137581634Y-76962000D01*
X137896415Y-76751670D01*
X138221271Y-76265489D01*
X138335345Y-75692000D01*
X138221271Y-75118511D01*
X137896415Y-74632330D01*
X137581634Y-74422000D01*
X137896415Y-74211670D01*
X138221271Y-73725489D01*
X138335345Y-73152000D01*
X138221271Y-72578511D01*
X137896415Y-72092330D01*
X137581634Y-71882000D01*
X137896415Y-71671670D01*
X138221271Y-71185489D01*
X138335345Y-70612000D01*
X138221271Y-70038511D01*
X137896415Y-69552330D01*
X137581634Y-69342000D01*
X137896415Y-69131670D01*
X138221271Y-68645489D01*
X138335345Y-68072000D01*
X138221271Y-67498511D01*
X137896415Y-67012330D01*
X137581634Y-66802000D01*
X137896415Y-66591670D01*
X138221271Y-66105489D01*
X138335345Y-65532000D01*
X138221271Y-64958511D01*
X137896415Y-64472330D01*
X137581634Y-64262000D01*
X137896415Y-64051670D01*
X138221271Y-63565489D01*
X138335345Y-62992000D01*
X138221271Y-62418511D01*
X137896415Y-61932330D01*
X137581634Y-61722000D01*
X137896415Y-61511670D01*
X138221271Y-61025489D01*
X138335345Y-60452000D01*
X138221271Y-59878511D01*
X137896415Y-59392330D01*
X137586931Y-59185539D01*
X138002732Y-58814036D01*
X138256709Y-58286791D01*
X138259358Y-58271026D01*
X138138217Y-58039000D01*
X136779000Y-58039000D01*
X136779000Y-58059000D01*
X136525000Y-58059000D01*
X136525000Y-58039000D01*
X135165783Y-58039000D01*
X135044642Y-58271026D01*
X135047291Y-58286791D01*
X135301268Y-58814036D01*
X135717069Y-59185539D01*
X135407585Y-59392330D01*
X135082729Y-59878511D01*
X134968655Y-60452000D01*
X135082729Y-61025489D01*
X135407585Y-61511670D01*
X135722366Y-61722000D01*
X135407585Y-61932330D01*
X135082729Y-62418511D01*
X134968655Y-62992000D01*
X135082729Y-63565489D01*
X135407585Y-64051670D01*
X135722366Y-64262000D01*
X135407585Y-64472330D01*
X135082729Y-64958511D01*
X134968655Y-65532000D01*
X135082729Y-66105489D01*
X135407585Y-66591670D01*
X135722366Y-66802000D01*
X135407585Y-67012330D01*
X135082729Y-67498511D01*
X134968655Y-68072000D01*
X135082729Y-68645489D01*
X135407585Y-69131670D01*
X135722366Y-69342000D01*
X135407585Y-69552330D01*
X135082729Y-70038511D01*
X134968655Y-70612000D01*
X135082729Y-71185489D01*
X135407585Y-71671670D01*
X135722366Y-71882000D01*
X135407585Y-72092330D01*
X135082729Y-72578511D01*
X134968655Y-73152000D01*
X135082729Y-73725489D01*
X135407585Y-74211670D01*
X135722366Y-74422000D01*
X135407585Y-74632330D01*
X135082729Y-75118511D01*
X134968655Y-75692000D01*
X135082729Y-76265489D01*
X135407585Y-76751670D01*
X135722366Y-76962000D01*
X135407585Y-77172330D01*
X135082729Y-77658511D01*
X134968655Y-78232000D01*
X135082729Y-78805489D01*
X135407585Y-79291670D01*
X135722366Y-79502000D01*
X135407585Y-79712330D01*
X135082729Y-80198511D01*
X134968655Y-80772000D01*
X135082729Y-81345489D01*
X135407585Y-81831670D01*
X135722366Y-82042000D01*
X135407585Y-82252330D01*
X135108313Y-82700221D01*
X134996999Y-82774599D01*
X134158799Y-83612799D01*
X133994052Y-83859361D01*
X133936200Y-84150200D01*
X133936200Y-88584338D01*
X133790799Y-88523962D01*
X133418833Y-88523638D01*
X133075057Y-88665683D01*
X132811808Y-88928473D01*
X132669162Y-89272001D01*
X132668838Y-89643967D01*
X95145000Y-89643967D01*
X95145000Y-84737000D01*
X96975000Y-84737000D01*
X96975000Y-85237000D01*
X97186118Y-86044362D01*
X97690130Y-86709476D01*
X98410304Y-87131084D01*
X98651167Y-87195113D01*
X98983000Y-87082165D01*
X98983000Y-84737000D01*
X99237000Y-84737000D01*
X99237000Y-87082165D01*
X99568833Y-87195113D01*
X99809696Y-87131084D01*
X100529870Y-86709476D01*
X101033882Y-86044362D01*
X101245000Y-85237000D01*
X101245000Y-84737000D01*
X99237000Y-84737000D01*
X98983000Y-84737000D01*
X96975000Y-84737000D01*
X95145000Y-84737000D01*
X95145000Y-83983000D01*
X96975000Y-83983000D01*
X96975000Y-84483000D01*
X98983000Y-84483000D01*
X98983000Y-82137835D01*
X99237000Y-82137835D01*
X99237000Y-84483000D01*
X101245000Y-84483000D01*
X101245000Y-84058377D01*
X103275000Y-84058377D01*
X103275000Y-85161623D01*
X103437517Y-85978652D01*
X103900327Y-86671296D01*
X104592971Y-87134106D01*
X105410000Y-87296623D01*
X106227029Y-87134106D01*
X106919673Y-86671296D01*
X107382483Y-85978652D01*
X107545000Y-85161623D01*
X107545000Y-84058377D01*
X109575000Y-84058377D01*
X109575000Y-85161623D01*
X109737517Y-85978652D01*
X110200327Y-86671296D01*
X110892971Y-87134106D01*
X111710000Y-87296623D01*
X112527029Y-87134106D01*
X113219673Y-86671296D01*
X113682483Y-85978652D01*
X113845000Y-85161623D01*
X113845000Y-84058377D01*
X113682483Y-83241348D01*
X113219673Y-82548704D01*
X112527029Y-82085894D01*
X112471090Y-82074767D01*
X113263238Y-82074767D01*
X113405283Y-82418543D01*
X113668073Y-82681792D01*
X114011601Y-82824438D01*
X114383567Y-82824762D01*
X114727343Y-82682717D01*
X114760518Y-82649600D01*
X116683937Y-82649600D01*
X116716073Y-82681792D01*
X117059601Y-82824438D01*
X117431567Y-82824762D01*
X117775343Y-82682717D01*
X117875467Y-82582767D01*
X120730838Y-82582767D01*
X120872883Y-82926543D01*
X121135673Y-83189792D01*
X121472420Y-83329622D01*
X124591678Y-86448880D01*
X124591638Y-86494367D01*
X124733683Y-86838143D01*
X124996473Y-87101392D01*
X125340001Y-87244038D01*
X125711967Y-87244362D01*
X126055743Y-87102317D01*
X126318992Y-86839527D01*
X126461638Y-86495999D01*
X126461962Y-86124033D01*
X126319917Y-85780257D01*
X126057127Y-85517008D01*
X125713599Y-85374362D01*
X125666723Y-85374321D01*
X122601078Y-82308676D01*
X122601162Y-82212433D01*
X122459117Y-81868657D01*
X122196327Y-81605408D01*
X121852799Y-81462762D01*
X121480833Y-81462438D01*
X121137057Y-81604483D01*
X120873808Y-81867273D01*
X120731162Y-82210801D01*
X120730838Y-82582767D01*
X117875467Y-82582767D01*
X118038592Y-82419927D01*
X118181238Y-82076399D01*
X118181562Y-81704433D01*
X118039517Y-81360657D01*
X117776727Y-81097408D01*
X117433199Y-80954762D01*
X117061233Y-80954438D01*
X116717457Y-81096483D01*
X116684282Y-81129600D01*
X114760863Y-81129600D01*
X114728727Y-81097408D01*
X114385199Y-80954762D01*
X114013233Y-80954438D01*
X113669457Y-81096483D01*
X113406208Y-81359273D01*
X113263562Y-81702801D01*
X113263238Y-82074767D01*
X112471090Y-82074767D01*
X111710000Y-81923377D01*
X110892971Y-82085894D01*
X110200327Y-82548704D01*
X109737517Y-83241348D01*
X109575000Y-84058377D01*
X107545000Y-84058377D01*
X107382483Y-83241348D01*
X106919673Y-82548704D01*
X106227029Y-82085894D01*
X105410000Y-81923377D01*
X104592971Y-82085894D01*
X103900327Y-82548704D01*
X103437517Y-83241348D01*
X103275000Y-84058377D01*
X101245000Y-84058377D01*
X101245000Y-83983000D01*
X101033882Y-83175638D01*
X100529870Y-82510524D01*
X99809696Y-82088916D01*
X99568833Y-82024887D01*
X99237000Y-82137835D01*
X98983000Y-82137835D01*
X98651167Y-82024887D01*
X98410304Y-82088916D01*
X97690130Y-82510524D01*
X97186118Y-83175638D01*
X96975000Y-83983000D01*
X95145000Y-83983000D01*
X95145000Y-78668377D01*
X96975000Y-78668377D01*
X96975000Y-79771623D01*
X97137517Y-80588652D01*
X97600327Y-81281296D01*
X98292971Y-81744106D01*
X99110000Y-81906623D01*
X99927029Y-81744106D01*
X100619673Y-81281296D01*
X101082483Y-80588652D01*
X101245000Y-79771623D01*
X101245000Y-78668377D01*
X103275000Y-78668377D01*
X103275000Y-79771623D01*
X103437517Y-80588652D01*
X103900327Y-81281296D01*
X104592971Y-81744106D01*
X105410000Y-81906623D01*
X106227029Y-81744106D01*
X106919673Y-81281296D01*
X107382483Y-80588652D01*
X107545000Y-79771623D01*
X107545000Y-78668377D01*
X109575000Y-78668377D01*
X109575000Y-79771623D01*
X109737517Y-80588652D01*
X110200327Y-81281296D01*
X110892971Y-81744106D01*
X111710000Y-81906623D01*
X112527029Y-81744106D01*
X113219673Y-81281296D01*
X113682483Y-80588652D01*
X113845000Y-79771623D01*
X113845000Y-78668377D01*
X113682483Y-77851348D01*
X113219673Y-77158704D01*
X112527029Y-76695894D01*
X111710000Y-76533377D01*
X110892971Y-76695894D01*
X110200327Y-77158704D01*
X109737517Y-77851348D01*
X109575000Y-78668377D01*
X107545000Y-78668377D01*
X107382483Y-77851348D01*
X106919673Y-77158704D01*
X106227029Y-76695894D01*
X105410000Y-76533377D01*
X104592971Y-76695894D01*
X103900327Y-77158704D01*
X103437517Y-77851348D01*
X103275000Y-78668377D01*
X101245000Y-78668377D01*
X101082483Y-77851348D01*
X100619673Y-77158704D01*
X99927029Y-76695894D01*
X99110000Y-76533377D01*
X98292971Y-76695894D01*
X97600327Y-77158704D01*
X97137517Y-77851348D01*
X96975000Y-78668377D01*
X95145000Y-78668377D01*
X95145000Y-74911967D01*
X112552038Y-74911967D01*
X112694083Y-75255743D01*
X112956873Y-75518992D01*
X113300401Y-75661638D01*
X113672367Y-75661962D01*
X114016143Y-75519917D01*
X114279392Y-75257127D01*
X114422038Y-74913599D01*
X114422362Y-74541633D01*
X114280317Y-74197857D01*
X114253854Y-74171348D01*
X114579202Y-73846000D01*
X115899069Y-73846000D01*
X115957910Y-73937441D01*
X116170110Y-74082431D01*
X116422000Y-74133440D01*
X118322000Y-74133440D01*
X118557317Y-74089162D01*
X118773441Y-73950090D01*
X118918431Y-73737890D01*
X118969440Y-73486000D01*
X118969440Y-72995319D01*
X119170110Y-73132431D01*
X119422000Y-73183440D01*
X119636000Y-73183440D01*
X119636000Y-73345198D01*
X119350599Y-73630599D01*
X119185852Y-73877161D01*
X119128000Y-74168000D01*
X119128000Y-75173495D01*
X118982683Y-75200838D01*
X118766559Y-75339910D01*
X118621569Y-75552110D01*
X118618919Y-75565197D01*
X118482090Y-75352559D01*
X118269890Y-75207569D01*
X118018000Y-75156560D01*
X116518000Y-75156560D01*
X116282683Y-75200838D01*
X116066559Y-75339910D01*
X115921569Y-75552110D01*
X115870560Y-75804000D01*
X115870560Y-77104000D01*
X115914838Y-77339317D01*
X116053910Y-77555441D01*
X116113159Y-77595924D01*
X116066559Y-77625910D01*
X115921569Y-77838110D01*
X115870560Y-78090000D01*
X115870560Y-79390000D01*
X115914838Y-79625317D01*
X116053910Y-79841441D01*
X116266110Y-79986431D01*
X116518000Y-80037440D01*
X118018000Y-80037440D01*
X118253317Y-79993162D01*
X118469441Y-79854090D01*
X118614431Y-79641890D01*
X118617081Y-79628803D01*
X118753910Y-79841441D01*
X118966110Y-79986431D01*
X119208000Y-80035415D01*
X119208000Y-80129537D01*
X119175808Y-80161673D01*
X119033162Y-80505201D01*
X119032838Y-80877167D01*
X119174883Y-81220943D01*
X119437673Y-81484192D01*
X119781201Y-81626838D01*
X120153167Y-81627162D01*
X120496943Y-81485117D01*
X120760192Y-81222327D01*
X120902838Y-80878799D01*
X120903162Y-80506833D01*
X120761117Y-80163057D01*
X120728000Y-80129882D01*
X120728000Y-80035558D01*
X120953317Y-79993162D01*
X121169441Y-79854090D01*
X121314431Y-79641890D01*
X121365440Y-79390000D01*
X121365440Y-78090000D01*
X121321162Y-77854683D01*
X121182090Y-77638559D01*
X121122841Y-77598076D01*
X121169441Y-77568090D01*
X121314431Y-77355890D01*
X121365440Y-77104000D01*
X121365440Y-76622005D01*
X125278811Y-76622005D01*
X125420856Y-76965781D01*
X125683646Y-77229030D01*
X126027174Y-77371676D01*
X126399140Y-77372000D01*
X126742916Y-77229955D01*
X126776091Y-77196838D01*
X129811162Y-77196838D01*
X130102001Y-77138986D01*
X130348563Y-76974239D01*
X130441680Y-76881122D01*
X130487167Y-76881162D01*
X130830943Y-76739117D01*
X131094192Y-76476327D01*
X131236838Y-76132799D01*
X131237162Y-75760833D01*
X131095117Y-75417057D01*
X130832327Y-75153808D01*
X130488799Y-75011162D01*
X130116833Y-75010838D01*
X129773057Y-75152883D01*
X129509808Y-75415673D01*
X129401362Y-75676838D01*
X126776436Y-75676838D01*
X126744300Y-75644646D01*
X126400772Y-75502000D01*
X126028806Y-75501676D01*
X125685030Y-75643721D01*
X125421781Y-75906511D01*
X125279135Y-76250039D01*
X125278811Y-76622005D01*
X121365440Y-76622005D01*
X121365440Y-75804000D01*
X121321162Y-75568683D01*
X121182090Y-75352559D01*
X120969890Y-75207569D01*
X120718000Y-75156560D01*
X120648000Y-75156560D01*
X120648000Y-74482802D01*
X120933401Y-74197401D01*
X120999038Y-74099167D01*
X123778838Y-74099167D01*
X123920883Y-74442943D01*
X124183673Y-74706192D01*
X124527201Y-74848838D01*
X124899167Y-74849162D01*
X125242943Y-74707117D01*
X125276118Y-74674000D01*
X127707537Y-74674000D01*
X127739673Y-74706192D01*
X128083201Y-74848838D01*
X128455167Y-74849162D01*
X128798943Y-74707117D01*
X129062192Y-74444327D01*
X129204838Y-74100799D01*
X129205162Y-73728833D01*
X129064320Y-73387967D01*
X132668838Y-73387967D01*
X132719000Y-73509369D01*
X132719000Y-79550778D01*
X132669162Y-79670801D01*
X132668838Y-80042767D01*
X132810883Y-80386543D01*
X133073673Y-80649792D01*
X133417201Y-80792438D01*
X133789167Y-80792762D01*
X134132943Y-80650717D01*
X134396192Y-80387927D01*
X134538838Y-80044399D01*
X134539162Y-79672433D01*
X134489000Y-79551031D01*
X134489000Y-73509622D01*
X134538838Y-73389599D01*
X134539162Y-73017633D01*
X134397117Y-72673857D01*
X134134327Y-72410608D01*
X133790799Y-72267962D01*
X133418833Y-72267638D01*
X133075057Y-72409683D01*
X132811808Y-72672473D01*
X132669162Y-73016001D01*
X132668838Y-73387967D01*
X129064320Y-73387967D01*
X129063117Y-73385057D01*
X128800327Y-73121808D01*
X128456799Y-72979162D01*
X128084833Y-72978838D01*
X127741057Y-73120883D01*
X127707882Y-73154000D01*
X125276463Y-73154000D01*
X125244327Y-73121808D01*
X124900799Y-72979162D01*
X124528833Y-72978838D01*
X124185057Y-73120883D01*
X123921808Y-73383673D01*
X123779162Y-73727201D01*
X123778838Y-74099167D01*
X120999038Y-74099167D01*
X121098147Y-73950840D01*
X121098148Y-73950839D01*
X121156000Y-73660000D01*
X121156000Y-73183440D01*
X121322000Y-73183440D01*
X121557317Y-73139162D01*
X121773441Y-73000090D01*
X121918431Y-72787890D01*
X121969440Y-72536000D01*
X121969440Y-71736000D01*
X121925162Y-71500683D01*
X121786090Y-71284559D01*
X121573890Y-71139569D01*
X121322000Y-71088560D01*
X119422000Y-71088560D01*
X119186683Y-71132838D01*
X118970559Y-71271910D01*
X118883936Y-71398686D01*
X118798250Y-71313000D01*
X117499000Y-71313000D01*
X117499000Y-71333000D01*
X117245000Y-71333000D01*
X117245000Y-71313000D01*
X115945750Y-71313000D01*
X115787000Y-71471750D01*
X115787000Y-71712310D01*
X115883673Y-71945699D01*
X116062302Y-72124327D01*
X116098747Y-72139423D01*
X115970559Y-72221910D01*
X115899437Y-72326000D01*
X114264400Y-72326000D01*
X113973561Y-72383852D01*
X113726999Y-72548599D01*
X112949799Y-73325799D01*
X112785052Y-73572361D01*
X112727200Y-73863200D01*
X112727200Y-74164337D01*
X112695008Y-74196473D01*
X112552362Y-74540001D01*
X112552038Y-74911967D01*
X95145000Y-74911967D01*
X95145000Y-70659690D01*
X115787000Y-70659690D01*
X115787000Y-70900250D01*
X115945750Y-71059000D01*
X117245000Y-71059000D01*
X117245000Y-70309750D01*
X117499000Y-70309750D01*
X117499000Y-71059000D01*
X118798250Y-71059000D01*
X118957000Y-70900250D01*
X118957000Y-70659690D01*
X118860327Y-70426301D01*
X118681698Y-70247673D01*
X118448309Y-70151000D01*
X117657750Y-70151000D01*
X117499000Y-70309750D01*
X117245000Y-70309750D01*
X117086250Y-70151000D01*
X116295691Y-70151000D01*
X116062302Y-70247673D01*
X115883673Y-70426301D01*
X115787000Y-70659690D01*
X95145000Y-70659690D01*
X95145000Y-63147000D01*
X96975000Y-63147000D01*
X96975000Y-63647000D01*
X97186118Y-64454362D01*
X97690130Y-65119476D01*
X98410304Y-65541084D01*
X98651167Y-65605113D01*
X98983000Y-65492165D01*
X98983000Y-63147000D01*
X99237000Y-63147000D01*
X99237000Y-65492165D01*
X99568833Y-65605113D01*
X99809696Y-65541084D01*
X100529870Y-65119476D01*
X101033882Y-64454362D01*
X101245000Y-63647000D01*
X101245000Y-63147000D01*
X99237000Y-63147000D01*
X98983000Y-63147000D01*
X96975000Y-63147000D01*
X95145000Y-63147000D01*
X95145000Y-62393000D01*
X96975000Y-62393000D01*
X96975000Y-62893000D01*
X98983000Y-62893000D01*
X98983000Y-60547835D01*
X99237000Y-60547835D01*
X99237000Y-62893000D01*
X101245000Y-62893000D01*
X101245000Y-62468377D01*
X103275000Y-62468377D01*
X103275000Y-63571623D01*
X103437517Y-64388652D01*
X103900327Y-65081296D01*
X104592971Y-65544106D01*
X105410000Y-65706623D01*
X106227029Y-65544106D01*
X106919673Y-65081296D01*
X107382483Y-64388652D01*
X107545000Y-63571623D01*
X107545000Y-62468377D01*
X109575000Y-62468377D01*
X109575000Y-63571623D01*
X109737517Y-64388652D01*
X110200327Y-65081296D01*
X110892971Y-65544106D01*
X111710000Y-65706623D01*
X112527029Y-65544106D01*
X113219673Y-65081296D01*
X113682483Y-64388652D01*
X113845000Y-63571623D01*
X113845000Y-62468377D01*
X113682483Y-61651348D01*
X113219673Y-60958704D01*
X112527029Y-60495894D01*
X111710000Y-60333377D01*
X110892971Y-60495894D01*
X110200327Y-60958704D01*
X109737517Y-61651348D01*
X109575000Y-62468377D01*
X107545000Y-62468377D01*
X107382483Y-61651348D01*
X106919673Y-60958704D01*
X106227029Y-60495894D01*
X105410000Y-60333377D01*
X104592971Y-60495894D01*
X103900327Y-60958704D01*
X103437517Y-61651348D01*
X103275000Y-62468377D01*
X101245000Y-62468377D01*
X101245000Y-62393000D01*
X101033882Y-61585638D01*
X100529870Y-60920524D01*
X99809696Y-60498916D01*
X99568833Y-60434887D01*
X99237000Y-60547835D01*
X98983000Y-60547835D01*
X98651167Y-60434887D01*
X98410304Y-60498916D01*
X97690130Y-60920524D01*
X97186118Y-61585638D01*
X96975000Y-62393000D01*
X95145000Y-62393000D01*
X95145000Y-58526815D01*
X97116630Y-58526815D01*
X97440980Y-59311800D01*
X98041041Y-59912909D01*
X98825459Y-60238628D01*
X99674815Y-60239370D01*
X100459800Y-59915020D01*
X101060909Y-59314959D01*
X101386628Y-58530541D01*
X101387370Y-57681185D01*
X101063020Y-56896200D01*
X100462959Y-56295091D01*
X99678541Y-55969372D01*
X98829185Y-55968630D01*
X98044200Y-56292980D01*
X97443091Y-56893041D01*
X97117372Y-57677459D01*
X97116630Y-58526815D01*
X95145000Y-58526815D01*
X95145000Y-57826390D01*
X95482957Y-56127366D01*
X95987675Y-55372000D01*
X134968655Y-55372000D01*
X135082729Y-55945489D01*
X135407585Y-56431670D01*
X135717069Y-56638461D01*
X135301268Y-57009964D01*
X135047291Y-57537209D01*
X135044642Y-57552974D01*
X135165783Y-57785000D01*
X136525000Y-57785000D01*
X136525000Y-57765000D01*
X136779000Y-57765000D01*
X136779000Y-57785000D01*
X138138217Y-57785000D01*
X138259358Y-57552974D01*
X138256709Y-57537209D01*
X138002732Y-57009964D01*
X137586931Y-56638461D01*
X137896415Y-56431670D01*
X138221271Y-55945489D01*
X138335345Y-55372000D01*
X138221271Y-54798511D01*
X137896415Y-54312330D01*
X137772736Y-54229690D01*
X150241000Y-54229690D01*
X150241000Y-55086250D01*
X150399750Y-55245000D01*
X151765000Y-55245000D01*
X151765000Y-53879750D01*
X152019000Y-53879750D01*
X152019000Y-55245000D01*
X153384250Y-55245000D01*
X153543000Y-55086250D01*
X153543000Y-54229690D01*
X153446327Y-53996301D01*
X153267698Y-53817673D01*
X153034309Y-53721000D01*
X152177750Y-53721000D01*
X152019000Y-53879750D01*
X151765000Y-53879750D01*
X151606250Y-53721000D01*
X150749691Y-53721000D01*
X150516302Y-53817673D01*
X150337673Y-53996301D01*
X150241000Y-54229690D01*
X137772736Y-54229690D01*
X137410234Y-53987474D01*
X136836745Y-53873400D01*
X136467255Y-53873400D01*
X135893766Y-53987474D01*
X135407585Y-54312330D01*
X135082729Y-54798511D01*
X134968655Y-55372000D01*
X95987675Y-55372000D01*
X96404371Y-54748371D01*
X97783366Y-53826957D01*
X99482390Y-53489000D01*
X189137610Y-53489000D01*
X190836634Y-53826957D01*
M02*
