G04 #@! TF.FileFunction,Soldermask,Bot*
%FSLAX46Y46*%
G04 Gerber Fmt 4.6, Leading zero omitted, Abs format (unit mm)*
G04 Created by KiCad (PCBNEW 4.0.7-e2-6376~58~ubuntu14.04.1) date Mon Apr 16 00:30:28 2018*
%MOMM*%
%LPD*%
G01*
G04 APERTURE LIST*
%ADD10C,0.100000*%
%ADD11O,3.400000X4.400000*%
%ADD12C,1.150000*%
%ADD13C,1.450000*%
%ADD14R,1.900000X1.700000*%
%ADD15R,2.432000X2.432000*%
%ADD16O,2.432000X2.127200*%
%ADD17C,3.400000*%
%ADD18C,2.900000*%
%ADD19R,2.300000X1.200000*%
G04 APERTURE END LIST*
D10*
D11*
X99110000Y-63020000D03*
X105410000Y-63020000D03*
X111710000Y-63020000D03*
X99110000Y-79220000D03*
X105410000Y-79220000D03*
X111710000Y-79220000D03*
X99110000Y-84610000D03*
X105410000Y-84610000D03*
X111710000Y-84610000D03*
X99110000Y-100810000D03*
X105410000Y-100810000D03*
X111710000Y-100810000D03*
D10*
G36*
X148700349Y-102448901D02*
X147710400Y-103438850D01*
X146472963Y-102201413D01*
X147462912Y-101211464D01*
X148700349Y-102448901D01*
X148700349Y-102448901D01*
G37*
G36*
X147710400Y-103438851D02*
X146720451Y-104428800D01*
X145483014Y-103191363D01*
X146472963Y-102201414D01*
X147710400Y-103438851D01*
X147710400Y-103438851D01*
G37*
G36*
X146720450Y-104428800D02*
X145730501Y-105418749D01*
X144493064Y-104181312D01*
X145483013Y-103191363D01*
X146720450Y-104428800D01*
X146720450Y-104428800D01*
G37*
G36*
X143644536Y-97393088D02*
X142654587Y-98383037D01*
X141417150Y-97145600D01*
X142407099Y-96155651D01*
X143644536Y-97393088D01*
X143644536Y-97393088D01*
G37*
G36*
X142654586Y-98383037D02*
X141664637Y-99372986D01*
X140427200Y-98135549D01*
X141417149Y-97145600D01*
X142654586Y-98383037D01*
X142654586Y-98383037D01*
G37*
G36*
X141664637Y-99372987D02*
X140674688Y-100362936D01*
X139437251Y-99125499D01*
X140427200Y-98135550D01*
X141664637Y-99372987D01*
X141664637Y-99372987D01*
G37*
G36*
X148558928Y-97994129D02*
X147003293Y-99549764D01*
X145306236Y-97852707D01*
X146861871Y-96297072D01*
X148558928Y-97994129D01*
X148558928Y-97994129D01*
G37*
G36*
X142831364Y-103721693D02*
X141275729Y-105277328D01*
X139578672Y-103580271D01*
X141134307Y-102024636D01*
X142831364Y-103721693D01*
X142831364Y-103721693D01*
G37*
D12*
X145412303Y-99443697D03*
D13*
X142725297Y-102130703D03*
D14*
X170895000Y-119634000D03*
X168195000Y-119634000D03*
D11*
X189180000Y-143990000D03*
X182880000Y-143990000D03*
X176580000Y-143990000D03*
X189180000Y-127790000D03*
X182880000Y-127790000D03*
X176580000Y-127790000D03*
X189180000Y-122400000D03*
X182880000Y-122400000D03*
X176580000Y-122400000D03*
X189180000Y-106200000D03*
X182880000Y-106200000D03*
X176580000Y-106200000D03*
X189180000Y-79220000D03*
X182880000Y-79220000D03*
X176580000Y-79220000D03*
X189180000Y-63020000D03*
X182880000Y-63020000D03*
X176580000Y-63020000D03*
X189180000Y-100810000D03*
X182880000Y-100810000D03*
X176580000Y-100810000D03*
X189180000Y-84610000D03*
X182880000Y-84610000D03*
X176580000Y-84610000D03*
D15*
X151892000Y-55372000D03*
D16*
X151892000Y-57912000D03*
X151892000Y-60452000D03*
X151892000Y-62992000D03*
X151892000Y-65532000D03*
X151892000Y-68072000D03*
X151892000Y-70612000D03*
X151892000Y-73152000D03*
X151892000Y-75692000D03*
X151892000Y-78232000D03*
X151892000Y-80772000D03*
X151892000Y-83312000D03*
X151892000Y-85852000D03*
X151892000Y-88392000D03*
X136652000Y-88392000D03*
X136652000Y-85852000D03*
X136652000Y-83312000D03*
X136652000Y-80772000D03*
X136652000Y-78232000D03*
X136652000Y-75692000D03*
X136652000Y-73152000D03*
X136652000Y-70612000D03*
X136652000Y-68072000D03*
X136652000Y-65532000D03*
X136652000Y-62992000D03*
X136652000Y-60452000D03*
X136652000Y-57912000D03*
X136652000Y-55372000D03*
D17*
X99252000Y-58104000D03*
X189210000Y-57754000D03*
X119410000Y-147554000D03*
X169210000Y-147554000D03*
D11*
X99110000Y-106200000D03*
X105410000Y-106200000D03*
X111710000Y-106200000D03*
X99110000Y-122400000D03*
X105410000Y-122400000D03*
X111710000Y-122400000D03*
X99110000Y-127790000D03*
X105410000Y-127790000D03*
X111710000Y-127790000D03*
X99110000Y-143990000D03*
X105410000Y-143990000D03*
X111710000Y-143990000D03*
D18*
X136772000Y-139773000D03*
X144272000Y-139773000D03*
X151772000Y-139773000D03*
X139272000Y-137273000D03*
X149272000Y-137273000D03*
X149272000Y-149773000D03*
X139272000Y-149773000D03*
D19*
X117473600Y-137094000D03*
X117473600Y-135194000D03*
X120473600Y-136144000D03*
X117372000Y-115758000D03*
X117372000Y-113858000D03*
X120372000Y-114808000D03*
X117372000Y-94676000D03*
X117372000Y-92776000D03*
X120372000Y-93726000D03*
X117372000Y-73086000D03*
X117372000Y-71186000D03*
X120372000Y-72136000D03*
X170918000Y-71186000D03*
X170918000Y-73086000D03*
X167918000Y-72136000D03*
X170918000Y-93030000D03*
X170918000Y-94930000D03*
X167918000Y-93980000D03*
X170918000Y-114239000D03*
X170918000Y-116139000D03*
X167918000Y-115189000D03*
X171045000Y-135702000D03*
X171045000Y-137602000D03*
X168045000Y-136652000D03*
D14*
X117369600Y-142494000D03*
X120069600Y-142494000D03*
X120222000Y-121666000D03*
X117522000Y-121666000D03*
X117522000Y-100330000D03*
X120222000Y-100330000D03*
X117268000Y-78740000D03*
X119968000Y-78740000D03*
X171149000Y-78740000D03*
X168449000Y-78740000D03*
X171022000Y-100330000D03*
X168322000Y-100330000D03*
X170895000Y-121793000D03*
X168195000Y-121793000D03*
X171022000Y-143129000D03*
X168322000Y-143129000D03*
X117369600Y-140360400D03*
X120069600Y-140360400D03*
X171022000Y-98171000D03*
X168322000Y-98171000D03*
X117522000Y-98044000D03*
X120222000Y-98044000D03*
X171149000Y-76581000D03*
X168449000Y-76581000D03*
X120222000Y-119380000D03*
X117522000Y-119380000D03*
X171022000Y-140970000D03*
X168322000Y-140970000D03*
X117268000Y-76454000D03*
X119968000Y-76454000D03*
M02*
