G04 #@! TF.FileFunction,Legend,Bot*
%FSLAX46Y46*%
G04 Gerber Fmt 4.6, Leading zero omitted, Abs format (unit mm)*
G04 Created by KiCad (PCBNEW 0.201510170916+6271~30~ubuntu14.04.1-product) date Tue 27 Oct 2015 04:17:41 PM CET*
%MOMM*%
G01*
G04 APERTURE LIST*
%ADD10C,0.100000*%
%ADD11C,0.500000*%
%ADD12C,0.150000*%
%ADD13C,0.010000*%
%ADD14C,2.900000*%
%ADD15R,2.400000X2.400000*%
%ADD16C,2.400000*%
%ADD17C,2.100000*%
%ADD18C,3.400000*%
G04 APERTURE END LIST*
D10*
D11*
X144661143Y-83709904D02*
X144661143Y-84852761D01*
X147661143Y-84281333D02*
X144661143Y-84281333D01*
X146089714Y-85519428D02*
X146089714Y-86186095D01*
X147661143Y-86471809D02*
X147661143Y-85519428D01*
X144661143Y-85519428D01*
X144661143Y-86471809D01*
X146089714Y-87328952D02*
X146089714Y-87995619D01*
X147661143Y-88281333D02*
X147661143Y-87328952D01*
X144661143Y-87328952D01*
X144661143Y-88281333D01*
X147661143Y-89138476D02*
X144661143Y-89138476D01*
X147661143Y-90281334D01*
X144661143Y-90281334D01*
X147518286Y-91138476D02*
X147661143Y-91424191D01*
X147661143Y-91900381D01*
X147518286Y-92090857D01*
X147375429Y-92186095D01*
X147089714Y-92281334D01*
X146804000Y-92281334D01*
X146518286Y-92186095D01*
X146375429Y-92090857D01*
X146232571Y-91900381D01*
X146089714Y-91519429D01*
X145946857Y-91328953D01*
X145804000Y-91233714D01*
X145518286Y-91138476D01*
X145232571Y-91138476D01*
X144946857Y-91233714D01*
X144804000Y-91328953D01*
X144661143Y-91519429D01*
X144661143Y-91995619D01*
X144804000Y-92281334D01*
X146232571Y-93519429D02*
X147661143Y-93519429D01*
X144661143Y-92852762D02*
X146232571Y-93519429D01*
X144661143Y-94186096D01*
X144661143Y-96186096D02*
X144661143Y-97424192D01*
X145804000Y-96757525D01*
X145804000Y-97043239D01*
X145946857Y-97233715D01*
X146089714Y-97328953D01*
X146375429Y-97424192D01*
X147089714Y-97424192D01*
X147375429Y-97328953D01*
X147518286Y-97233715D01*
X147661143Y-97043239D01*
X147661143Y-96471811D01*
X147518286Y-96281334D01*
X147375429Y-96186096D01*
X147375429Y-98281334D02*
X147518286Y-98376573D01*
X147661143Y-98281334D01*
X147518286Y-98186096D01*
X147375429Y-98281334D01*
X147661143Y-98281334D01*
X147661143Y-99043239D02*
X145661143Y-100090858D01*
X145661143Y-99043239D02*
X147661143Y-100090858D01*
X171251429Y-129080476D02*
X171394286Y-128985238D01*
X171537143Y-128699523D01*
X171537143Y-128509047D01*
X171394286Y-128223333D01*
X171108571Y-128032857D01*
X170822857Y-127937618D01*
X170251429Y-127842380D01*
X169822857Y-127842380D01*
X169251429Y-127937618D01*
X168965714Y-128032857D01*
X168680000Y-128223333D01*
X168537143Y-128509047D01*
X168537143Y-128699523D01*
X168680000Y-128985238D01*
X168822857Y-129080476D01*
X171537143Y-129937618D02*
X168537143Y-129937618D01*
X169965714Y-129937618D02*
X169965714Y-131080476D01*
X171537143Y-131080476D02*
X168537143Y-131080476D01*
X170680000Y-131937618D02*
X170680000Y-132889999D01*
X171537143Y-131747142D02*
X168537143Y-132413809D01*
X171537143Y-133080476D01*
X171537143Y-133747142D02*
X168537143Y-133747142D01*
X171537143Y-134890000D01*
X168537143Y-134890000D01*
X171537143Y-135842380D02*
X168537143Y-135842380D01*
X171537143Y-136985238D01*
X168537143Y-136985238D01*
X169965714Y-137937618D02*
X169965714Y-138604285D01*
X171537143Y-138889999D02*
X171537143Y-137937618D01*
X168537143Y-137937618D01*
X168537143Y-138889999D01*
X171537143Y-140699523D02*
X171537143Y-139747142D01*
X168537143Y-139747142D01*
X169822857Y-143175715D02*
X169680000Y-142985239D01*
X169537143Y-142890000D01*
X169251429Y-142794762D01*
X169108571Y-142794762D01*
X168822857Y-142890000D01*
X168680000Y-142985239D01*
X168537143Y-143175715D01*
X168537143Y-143556667D01*
X168680000Y-143747143D01*
X168822857Y-143842381D01*
X169108571Y-143937620D01*
X169251429Y-143937620D01*
X169537143Y-143842381D01*
X169680000Y-143747143D01*
X169822857Y-143556667D01*
X169822857Y-143175715D01*
X169965714Y-142985239D01*
X170108571Y-142890000D01*
X170394286Y-142794762D01*
X170965714Y-142794762D01*
X171251429Y-142890000D01*
X171394286Y-142985239D01*
X171537143Y-143175715D01*
X171537143Y-143556667D01*
X171394286Y-143747143D01*
X171251429Y-143842381D01*
X170965714Y-143937620D01*
X170394286Y-143937620D01*
X170108571Y-143842381D01*
X169965714Y-143747143D01*
X169822857Y-143556667D01*
X170743429Y-107744476D02*
X170886286Y-107649238D01*
X171029143Y-107363523D01*
X171029143Y-107173047D01*
X170886286Y-106887333D01*
X170600571Y-106696857D01*
X170314857Y-106601618D01*
X169743429Y-106506380D01*
X169314857Y-106506380D01*
X168743429Y-106601618D01*
X168457714Y-106696857D01*
X168172000Y-106887333D01*
X168029143Y-107173047D01*
X168029143Y-107363523D01*
X168172000Y-107649238D01*
X168314857Y-107744476D01*
X171029143Y-108601618D02*
X168029143Y-108601618D01*
X169457714Y-108601618D02*
X169457714Y-109744476D01*
X171029143Y-109744476D02*
X168029143Y-109744476D01*
X170172000Y-110601618D02*
X170172000Y-111553999D01*
X171029143Y-110411142D02*
X168029143Y-111077809D01*
X171029143Y-111744476D01*
X171029143Y-112411142D02*
X168029143Y-112411142D01*
X171029143Y-113554000D01*
X168029143Y-113554000D01*
X171029143Y-114506380D02*
X168029143Y-114506380D01*
X171029143Y-115649238D01*
X168029143Y-115649238D01*
X169457714Y-116601618D02*
X169457714Y-117268285D01*
X171029143Y-117553999D02*
X171029143Y-116601618D01*
X168029143Y-116601618D01*
X168029143Y-117553999D01*
X171029143Y-119363523D02*
X171029143Y-118411142D01*
X168029143Y-118411142D01*
X168029143Y-121363524D02*
X168029143Y-122696858D01*
X171029143Y-121839715D01*
X170997429Y-85138476D02*
X171140286Y-85043238D01*
X171283143Y-84757523D01*
X171283143Y-84567047D01*
X171140286Y-84281333D01*
X170854571Y-84090857D01*
X170568857Y-83995618D01*
X169997429Y-83900380D01*
X169568857Y-83900380D01*
X168997429Y-83995618D01*
X168711714Y-84090857D01*
X168426000Y-84281333D01*
X168283143Y-84567047D01*
X168283143Y-84757523D01*
X168426000Y-85043238D01*
X168568857Y-85138476D01*
X171283143Y-85995618D02*
X168283143Y-85995618D01*
X169711714Y-85995618D02*
X169711714Y-87138476D01*
X171283143Y-87138476D02*
X168283143Y-87138476D01*
X170426000Y-87995618D02*
X170426000Y-88947999D01*
X171283143Y-87805142D02*
X168283143Y-88471809D01*
X171283143Y-89138476D01*
X171283143Y-89805142D02*
X168283143Y-89805142D01*
X171283143Y-90948000D01*
X168283143Y-90948000D01*
X171283143Y-91900380D02*
X168283143Y-91900380D01*
X171283143Y-93043238D01*
X168283143Y-93043238D01*
X169711714Y-93995618D02*
X169711714Y-94662285D01*
X171283143Y-94947999D02*
X171283143Y-93995618D01*
X168283143Y-93995618D01*
X168283143Y-94947999D01*
X171283143Y-96757523D02*
X171283143Y-95805142D01*
X168283143Y-95805142D01*
X168283143Y-99805143D02*
X168283143Y-99424191D01*
X168426000Y-99233715D01*
X168568857Y-99138477D01*
X168997429Y-98948000D01*
X169568857Y-98852762D01*
X170711714Y-98852762D01*
X170997429Y-98948000D01*
X171140286Y-99043239D01*
X171283143Y-99233715D01*
X171283143Y-99614667D01*
X171140286Y-99805143D01*
X170997429Y-99900381D01*
X170711714Y-99995620D01*
X169997429Y-99995620D01*
X169711714Y-99900381D01*
X169568857Y-99805143D01*
X169426000Y-99614667D01*
X169426000Y-99233715D01*
X169568857Y-99043239D01*
X169711714Y-98948000D01*
X169997429Y-98852762D01*
X170997429Y-64310476D02*
X171140286Y-64215238D01*
X171283143Y-63929523D01*
X171283143Y-63739047D01*
X171140286Y-63453333D01*
X170854571Y-63262857D01*
X170568857Y-63167618D01*
X169997429Y-63072380D01*
X169568857Y-63072380D01*
X168997429Y-63167618D01*
X168711714Y-63262857D01*
X168426000Y-63453333D01*
X168283143Y-63739047D01*
X168283143Y-63929523D01*
X168426000Y-64215238D01*
X168568857Y-64310476D01*
X171283143Y-65167618D02*
X168283143Y-65167618D01*
X169711714Y-65167618D02*
X169711714Y-66310476D01*
X171283143Y-66310476D02*
X168283143Y-66310476D01*
X170426000Y-67167618D02*
X170426000Y-68119999D01*
X171283143Y-66977142D02*
X168283143Y-67643809D01*
X171283143Y-68310476D01*
X171283143Y-68977142D02*
X168283143Y-68977142D01*
X171283143Y-70120000D01*
X168283143Y-70120000D01*
X171283143Y-71072380D02*
X168283143Y-71072380D01*
X171283143Y-72215238D01*
X168283143Y-72215238D01*
X169711714Y-73167618D02*
X169711714Y-73834285D01*
X171283143Y-74119999D02*
X171283143Y-73167618D01*
X168283143Y-73167618D01*
X168283143Y-74119999D01*
X171283143Y-75929523D02*
X171283143Y-74977142D01*
X168283143Y-74977142D01*
X168283143Y-79072381D02*
X168283143Y-78120000D01*
X169711714Y-78024762D01*
X169568857Y-78120000D01*
X169426000Y-78310477D01*
X169426000Y-78786667D01*
X169568857Y-78977143D01*
X169711714Y-79072381D01*
X169997429Y-79167620D01*
X170711714Y-79167620D01*
X170997429Y-79072381D01*
X171140286Y-78977143D01*
X171283143Y-78786667D01*
X171283143Y-78310477D01*
X171140286Y-78120000D01*
X170997429Y-78024762D01*
X117292571Y-77675524D02*
X117149714Y-77770762D01*
X117006857Y-78056477D01*
X117006857Y-78246953D01*
X117149714Y-78532667D01*
X117435429Y-78723143D01*
X117721143Y-78818382D01*
X118292571Y-78913620D01*
X118721143Y-78913620D01*
X119292571Y-78818382D01*
X119578286Y-78723143D01*
X119864000Y-78532667D01*
X120006857Y-78246953D01*
X120006857Y-78056477D01*
X119864000Y-77770762D01*
X119721143Y-77675524D01*
X117006857Y-76818382D02*
X120006857Y-76818382D01*
X118578286Y-76818382D02*
X118578286Y-75675524D01*
X117006857Y-75675524D02*
X120006857Y-75675524D01*
X117864000Y-74818382D02*
X117864000Y-73866001D01*
X117006857Y-75008858D02*
X120006857Y-74342191D01*
X117006857Y-73675524D01*
X117006857Y-73008858D02*
X120006857Y-73008858D01*
X117006857Y-71866000D01*
X120006857Y-71866000D01*
X117006857Y-70913620D02*
X120006857Y-70913620D01*
X117006857Y-69770762D01*
X120006857Y-69770762D01*
X118578286Y-68818382D02*
X118578286Y-68151715D01*
X117006857Y-67866001D02*
X117006857Y-68818382D01*
X120006857Y-68818382D01*
X120006857Y-67866001D01*
X117006857Y-66056477D02*
X117006857Y-67008858D01*
X120006857Y-67008858D01*
X119006857Y-63008857D02*
X117006857Y-63008857D01*
X120149714Y-63485047D02*
X118006857Y-63961238D01*
X118006857Y-62723142D01*
X117292571Y-99773524D02*
X117149714Y-99868762D01*
X117006857Y-100154477D01*
X117006857Y-100344953D01*
X117149714Y-100630667D01*
X117435429Y-100821143D01*
X117721143Y-100916382D01*
X118292571Y-101011620D01*
X118721143Y-101011620D01*
X119292571Y-100916382D01*
X119578286Y-100821143D01*
X119864000Y-100630667D01*
X120006857Y-100344953D01*
X120006857Y-100154477D01*
X119864000Y-99868762D01*
X119721143Y-99773524D01*
X117006857Y-98916382D02*
X120006857Y-98916382D01*
X118578286Y-98916382D02*
X118578286Y-97773524D01*
X117006857Y-97773524D02*
X120006857Y-97773524D01*
X117864000Y-96916382D02*
X117864000Y-95964001D01*
X117006857Y-97106858D02*
X120006857Y-96440191D01*
X117006857Y-95773524D01*
X117006857Y-95106858D02*
X120006857Y-95106858D01*
X117006857Y-93964000D01*
X120006857Y-93964000D01*
X117006857Y-93011620D02*
X120006857Y-93011620D01*
X117006857Y-91868762D01*
X120006857Y-91868762D01*
X118578286Y-90916382D02*
X118578286Y-90249715D01*
X117006857Y-89964001D02*
X117006857Y-90916382D01*
X120006857Y-90916382D01*
X120006857Y-89964001D01*
X117006857Y-88154477D02*
X117006857Y-89106858D01*
X120006857Y-89106858D01*
X120006857Y-86154476D02*
X120006857Y-84916380D01*
X118864000Y-85583047D01*
X118864000Y-85297333D01*
X118721143Y-85106857D01*
X118578286Y-85011619D01*
X118292571Y-84916380D01*
X117578286Y-84916380D01*
X117292571Y-85011619D01*
X117149714Y-85106857D01*
X117006857Y-85297333D01*
X117006857Y-85868761D01*
X117149714Y-86059238D01*
X117292571Y-86154476D01*
X117038571Y-120855524D02*
X116895714Y-120950762D01*
X116752857Y-121236477D01*
X116752857Y-121426953D01*
X116895714Y-121712667D01*
X117181429Y-121903143D01*
X117467143Y-121998382D01*
X118038571Y-122093620D01*
X118467143Y-122093620D01*
X119038571Y-121998382D01*
X119324286Y-121903143D01*
X119610000Y-121712667D01*
X119752857Y-121426953D01*
X119752857Y-121236477D01*
X119610000Y-120950762D01*
X119467143Y-120855524D01*
X116752857Y-119998382D02*
X119752857Y-119998382D01*
X118324286Y-119998382D02*
X118324286Y-118855524D01*
X116752857Y-118855524D02*
X119752857Y-118855524D01*
X117610000Y-117998382D02*
X117610000Y-117046001D01*
X116752857Y-118188858D02*
X119752857Y-117522191D01*
X116752857Y-116855524D01*
X116752857Y-116188858D02*
X119752857Y-116188858D01*
X116752857Y-115046000D01*
X119752857Y-115046000D01*
X116752857Y-114093620D02*
X119752857Y-114093620D01*
X116752857Y-112950762D01*
X119752857Y-112950762D01*
X118324286Y-111998382D02*
X118324286Y-111331715D01*
X116752857Y-111046001D02*
X116752857Y-111998382D01*
X119752857Y-111998382D01*
X119752857Y-111046001D01*
X116752857Y-109236477D02*
X116752857Y-110188858D01*
X119752857Y-110188858D01*
X119467143Y-107141238D02*
X119610000Y-107046000D01*
X119752857Y-106855523D01*
X119752857Y-106379333D01*
X119610000Y-106188857D01*
X119467143Y-106093619D01*
X119181429Y-105998380D01*
X118895714Y-105998380D01*
X118467143Y-106093619D01*
X116752857Y-107236476D01*
X116752857Y-105998380D01*
X117546571Y-142699524D02*
X117403714Y-142794762D01*
X117260857Y-143080477D01*
X117260857Y-143270953D01*
X117403714Y-143556667D01*
X117689429Y-143747143D01*
X117975143Y-143842382D01*
X118546571Y-143937620D01*
X118975143Y-143937620D01*
X119546571Y-143842382D01*
X119832286Y-143747143D01*
X120118000Y-143556667D01*
X120260857Y-143270953D01*
X120260857Y-143080477D01*
X120118000Y-142794762D01*
X119975143Y-142699524D01*
X117260857Y-141842382D02*
X120260857Y-141842382D01*
X118832286Y-141842382D02*
X118832286Y-140699524D01*
X117260857Y-140699524D02*
X120260857Y-140699524D01*
X118118000Y-139842382D02*
X118118000Y-138890001D01*
X117260857Y-140032858D02*
X120260857Y-139366191D01*
X117260857Y-138699524D01*
X117260857Y-138032858D02*
X120260857Y-138032858D01*
X117260857Y-136890000D01*
X120260857Y-136890000D01*
X117260857Y-135937620D02*
X120260857Y-135937620D01*
X117260857Y-134794762D01*
X120260857Y-134794762D01*
X118832286Y-133842382D02*
X118832286Y-133175715D01*
X117260857Y-132890001D02*
X117260857Y-133842382D01*
X120260857Y-133842382D01*
X120260857Y-132890001D01*
X117260857Y-131080477D02*
X117260857Y-132032858D01*
X120260857Y-132032858D01*
X117260857Y-127842380D02*
X117260857Y-128985238D01*
X117260857Y-128413809D02*
X120260857Y-128413809D01*
X119832286Y-128604285D01*
X119546571Y-128794761D01*
X119403714Y-128985238D01*
X158154857Y-66182096D02*
X161154857Y-66182096D01*
X159012000Y-65515429D01*
X161154857Y-64848762D01*
X158154857Y-64848762D01*
X158154857Y-63896382D02*
X161154857Y-63896382D01*
X158154857Y-62944001D02*
X161154857Y-62944001D01*
X161154857Y-62467810D01*
X161012000Y-62182096D01*
X160726286Y-61991620D01*
X160440571Y-61896381D01*
X159869143Y-61801143D01*
X159440571Y-61801143D01*
X158869143Y-61896381D01*
X158583429Y-61991620D01*
X158297714Y-62182096D01*
X158154857Y-62467810D01*
X158154857Y-62944001D01*
X158154857Y-60944001D02*
X161154857Y-60944001D01*
X161154857Y-58086857D02*
X161154857Y-57705905D01*
X161012000Y-57515429D01*
X160726286Y-57324952D01*
X160154857Y-57229714D01*
X159154857Y-57229714D01*
X158583429Y-57324952D01*
X158297714Y-57515429D01*
X158154857Y-57705905D01*
X158154857Y-58086857D01*
X158297714Y-58277333D01*
X158583429Y-58467810D01*
X159154857Y-58563048D01*
X160154857Y-58563048D01*
X160726286Y-58467810D01*
X161012000Y-58277333D01*
X161154857Y-58086857D01*
X161154857Y-56372572D02*
X158726286Y-56372572D01*
X158440571Y-56277333D01*
X158297714Y-56182095D01*
X158154857Y-55991619D01*
X158154857Y-55610667D01*
X158297714Y-55420191D01*
X158440571Y-55324952D01*
X158726286Y-55229714D01*
X161154857Y-55229714D01*
X161154857Y-54563048D02*
X161154857Y-53420191D01*
X158154857Y-53991619D02*
X161154857Y-53991619D01*
D12*
X94910000Y-82964000D02*
X86910000Y-82964000D01*
X86910000Y-82964000D02*
X86910000Y-102964000D01*
X86910000Y-102964000D02*
X94910000Y-102964000D01*
X115910000Y-102964000D02*
X94910000Y-102964000D01*
X94910000Y-102964000D02*
X94910000Y-82964000D01*
X94910000Y-82964000D02*
X115910000Y-82964000D01*
X115910000Y-82964000D02*
X115910000Y-102964000D01*
X147320000Y-75184000D02*
X147320000Y-76454000D01*
X147320000Y-76454000D02*
X144780000Y-76454000D01*
X144780000Y-76454000D02*
X144780000Y-75184000D01*
X152400000Y-75184000D02*
X139700000Y-75184000D01*
X152400000Y-110744000D02*
X139700000Y-110744000D01*
X139700000Y-75184000D02*
X139700000Y-110744000D01*
X139700000Y-110744000D02*
X137160000Y-110744000D01*
X137160000Y-110744000D02*
X137160000Y-75184000D01*
X137160000Y-75184000D02*
X139700000Y-75184000D01*
X154940000Y-75184000D02*
X154940000Y-110744000D01*
X154940000Y-110744000D02*
X152400000Y-110744000D01*
X152400000Y-110744000D02*
X152400000Y-75184000D01*
X152400000Y-75184000D02*
X154940000Y-75184000D01*
X94910000Y-60739000D02*
X86910000Y-60739000D01*
X86910000Y-60739000D02*
X86910000Y-80739000D01*
X86910000Y-80739000D02*
X94910000Y-80739000D01*
X115910000Y-80739000D02*
X94910000Y-80739000D01*
X94910000Y-80739000D02*
X94910000Y-60739000D01*
X94910000Y-60739000D02*
X115910000Y-60739000D01*
X115910000Y-60739000D02*
X115910000Y-80739000D01*
X94910000Y-104554000D02*
X86910000Y-104554000D01*
X86910000Y-104554000D02*
X86910000Y-124554000D01*
X86910000Y-124554000D02*
X94910000Y-124554000D01*
X115910000Y-124554000D02*
X94910000Y-124554000D01*
X94910000Y-124554000D02*
X94910000Y-104554000D01*
X94910000Y-104554000D02*
X115910000Y-104554000D01*
X115910000Y-104554000D02*
X115910000Y-124554000D01*
X94910000Y-126144000D02*
X86910000Y-126144000D01*
X86910000Y-126144000D02*
X86910000Y-146144000D01*
X86910000Y-146144000D02*
X94910000Y-146144000D01*
X115910000Y-146144000D02*
X94910000Y-146144000D01*
X94910000Y-146144000D02*
X94910000Y-126144000D01*
X94910000Y-126144000D02*
X115910000Y-126144000D01*
X115910000Y-126144000D02*
X115910000Y-146144000D01*
X193380000Y-146144000D02*
X201380000Y-146144000D01*
X201380000Y-146144000D02*
X201380000Y-126144000D01*
X201380000Y-126144000D02*
X193380000Y-126144000D01*
X172380000Y-126144000D02*
X193380000Y-126144000D01*
X193380000Y-126144000D02*
X193380000Y-146144000D01*
X193380000Y-146144000D02*
X172380000Y-146144000D01*
X172380000Y-146144000D02*
X172380000Y-126144000D01*
X193380000Y-102964000D02*
X201380000Y-102964000D01*
X201380000Y-102964000D02*
X201380000Y-82964000D01*
X201380000Y-82964000D02*
X193380000Y-82964000D01*
X172380000Y-82964000D02*
X193380000Y-82964000D01*
X193380000Y-82964000D02*
X193380000Y-102964000D01*
X193380000Y-102964000D02*
X172380000Y-102964000D01*
X172380000Y-102964000D02*
X172380000Y-82964000D01*
X193380000Y-124554000D02*
X201380000Y-124554000D01*
X201380000Y-124554000D02*
X201380000Y-104554000D01*
X201380000Y-104554000D02*
X193380000Y-104554000D01*
X172380000Y-104554000D02*
X193380000Y-104554000D01*
X193380000Y-104554000D02*
X193380000Y-124554000D01*
X193380000Y-124554000D02*
X172380000Y-124554000D01*
X172380000Y-124554000D02*
X172380000Y-104554000D01*
X193380000Y-80739000D02*
X201380000Y-80739000D01*
X201380000Y-80739000D02*
X201380000Y-60739000D01*
X201380000Y-60739000D02*
X193380000Y-60739000D01*
X172380000Y-60739000D02*
X193380000Y-60739000D01*
X193380000Y-60739000D02*
X193380000Y-80739000D01*
X193380000Y-80739000D02*
X172380000Y-80739000D01*
X172380000Y-80739000D02*
X172380000Y-60739000D01*
X149098000Y-66675000D02*
X149098000Y-57531000D01*
X143002000Y-66675000D02*
X143002000Y-57531000D01*
X138938000Y-52959000D02*
X138938000Y-57531000D01*
X138938000Y-57531000D02*
X153162000Y-57531000D01*
X153162000Y-57531000D02*
X153162000Y-52959000D01*
X156718000Y-52959000D02*
X156718000Y-66675000D01*
X156718000Y-66675000D02*
X135382000Y-66675000D01*
X135382000Y-66675000D02*
X135382000Y-52959000D01*
X135450000Y-52959000D02*
X156650000Y-52959000D01*
D13*
G36*
X144224449Y-115165179D02*
X143864784Y-115173515D01*
X143536722Y-115186609D01*
X143271453Y-115203017D01*
X143014482Y-115222677D01*
X142804188Y-115239435D01*
X142628875Y-115254613D01*
X142476848Y-115269532D01*
X142336411Y-115285516D01*
X142195868Y-115303884D01*
X142043523Y-115325960D01*
X141867681Y-115353066D01*
X141678157Y-115383094D01*
X141023450Y-115493959D01*
X140422799Y-115609676D01*
X139871848Y-115731506D01*
X139366237Y-115860711D01*
X138901609Y-115998553D01*
X138473605Y-116146294D01*
X138077866Y-116305196D01*
X137710036Y-116476520D01*
X137475062Y-116599970D01*
X136979722Y-116893778D01*
X136531027Y-117205694D01*
X136117825Y-117544601D01*
X135728967Y-117919385D01*
X135484049Y-118186363D01*
X135305602Y-118393138D01*
X135149620Y-118582546D01*
X135010941Y-118762918D01*
X134884403Y-118942584D01*
X134764845Y-119129874D01*
X134647103Y-119333120D01*
X134526017Y-119560653D01*
X134396423Y-119820802D01*
X134253160Y-120121898D01*
X134158721Y-120325184D01*
X134086975Y-120500596D01*
X134011508Y-120720487D01*
X133936130Y-120971298D01*
X133864650Y-121239468D01*
X133800879Y-121511439D01*
X133748628Y-121773650D01*
X133743463Y-121802949D01*
X133719321Y-121979747D01*
X133699064Y-122202733D01*
X133683011Y-122459680D01*
X133671478Y-122738360D01*
X133664781Y-123026545D01*
X133663237Y-123312007D01*
X133667164Y-123582520D01*
X133676876Y-123825854D01*
X133687259Y-123973138D01*
X133766306Y-124668915D01*
X133884131Y-125399243D01*
X134038922Y-126156515D01*
X134228868Y-126933121D01*
X134452154Y-127721451D01*
X134706971Y-128513895D01*
X134895212Y-129045461D01*
X135037102Y-129424764D01*
X135185144Y-129808029D01*
X135334590Y-130183520D01*
X135480692Y-130539500D01*
X135618701Y-130864231D01*
X135743869Y-131145977D01*
X135753505Y-131167005D01*
X135826572Y-131326764D01*
X135896786Y-131481633D01*
X135957842Y-131617609D01*
X136003433Y-131720688D01*
X136017073Y-131752258D01*
X136054822Y-131835144D01*
X136115352Y-131961204D01*
X136194271Y-132121779D01*
X136287187Y-132308209D01*
X136389706Y-132511835D01*
X136497437Y-132723998D01*
X136605987Y-132936036D01*
X136710963Y-133139291D01*
X136807973Y-133325104D01*
X136892625Y-133484813D01*
X136944768Y-133581175D01*
X137011723Y-133701611D01*
X137101308Y-133860260D01*
X137206524Y-134044863D01*
X137320373Y-134243162D01*
X137435854Y-134442899D01*
X137487786Y-134532212D01*
X137592314Y-134712770D01*
X137689676Y-134883116D01*
X137775057Y-135034653D01*
X137843640Y-135158786D01*
X137890612Y-135246919D01*
X137907734Y-135281860D01*
X137950205Y-135364264D01*
X137992590Y-135426193D01*
X138004807Y-135438621D01*
X138036393Y-135475464D01*
X138092627Y-135551276D01*
X138166280Y-135655944D01*
X138250123Y-135779355D01*
X138274238Y-135815586D01*
X138384880Y-135980376D01*
X138511198Y-136164843D01*
X138647294Y-136360713D01*
X138787275Y-136559715D01*
X138925242Y-136753574D01*
X139055301Y-136934017D01*
X139171555Y-137092772D01*
X139268108Y-137221566D01*
X139339064Y-137312124D01*
X139351248Y-137326797D01*
X139419371Y-137410070D01*
X139509883Y-137524375D01*
X139610275Y-137653765D01*
X139695572Y-137765737D01*
X139949257Y-138087520D01*
X140234270Y-138423379D01*
X140543016Y-138765803D01*
X140867902Y-139107279D01*
X141201334Y-139440296D01*
X141535720Y-139757342D01*
X141863465Y-140050905D01*
X142176977Y-140313473D01*
X142468662Y-140537534D01*
X142570668Y-140609959D01*
X142886306Y-140809299D01*
X143227860Y-140990966D01*
X143579825Y-141148066D01*
X143926698Y-141273708D01*
X144252975Y-141360999D01*
X144266219Y-141363769D01*
X144478588Y-141393602D01*
X144723949Y-141405465D01*
X144979676Y-141399608D01*
X145223141Y-141376281D01*
X145365253Y-141351623D01*
X145717083Y-141253109D01*
X146089212Y-141104911D01*
X146476298Y-140909954D01*
X146873000Y-140671165D01*
X147273976Y-140391469D01*
X147627888Y-140112357D01*
X147751492Y-140006613D01*
X147898053Y-139876657D01*
X148060025Y-139729624D01*
X148229858Y-139572648D01*
X148400005Y-139412866D01*
X148562917Y-139257412D01*
X148711047Y-139113421D01*
X148836846Y-138988028D01*
X148932766Y-138888368D01*
X148984706Y-138829786D01*
X149033986Y-138770716D01*
X149111592Y-138679118D01*
X149207544Y-138566714D01*
X149311862Y-138445228D01*
X149330027Y-138424147D01*
X149454337Y-138276550D01*
X149595532Y-138103483D01*
X149736028Y-137926775D01*
X149855393Y-137772025D01*
X149953038Y-137644087D01*
X150043364Y-137528208D01*
X150118143Y-137434766D01*
X150169149Y-137374142D01*
X150180109Y-137362348D01*
X150221482Y-137313532D01*
X150290679Y-137223816D01*
X150382405Y-137100556D01*
X150491369Y-136951107D01*
X150612275Y-136782823D01*
X150739832Y-136603059D01*
X150868744Y-136419170D01*
X150993718Y-136238510D01*
X151079881Y-136112215D01*
X151465040Y-135525370D01*
X151854734Y-134896145D01*
X152240133Y-134239136D01*
X152558170Y-133668963D01*
X153146432Y-132546198D01*
X153679518Y-131439400D01*
X154158070Y-130346945D01*
X154582732Y-129267211D01*
X154954145Y-128198574D01*
X155272955Y-127139412D01*
X155508682Y-126221613D01*
X155532746Y-126117761D01*
X155556286Y-126011377D01*
X155580898Y-125894412D01*
X155608175Y-125758812D01*
X155637658Y-125607097D01*
X152607765Y-125607097D01*
X152607765Y-126572765D01*
X150959916Y-126572765D01*
X150939793Y-126719078D01*
X150923579Y-126802410D01*
X150904134Y-126855399D01*
X150893153Y-126865392D01*
X150880325Y-126892228D01*
X150870910Y-126963075D01*
X150866706Y-127063442D01*
X150866636Y-127079009D01*
X150863072Y-127187295D01*
X150853683Y-127272921D01*
X150840426Y-127318772D01*
X150839048Y-127320426D01*
X150822070Y-127363746D01*
X150808928Y-127444000D01*
X150804608Y-127500711D01*
X150792778Y-127601615D01*
X150769954Y-127659580D01*
X150759039Y-127668053D01*
X150732416Y-127707687D01*
X150720655Y-127794298D01*
X150720323Y-127815510D01*
X150714548Y-127894360D01*
X150699928Y-127941849D01*
X150691060Y-127948111D01*
X150672085Y-127973921D01*
X150662201Y-128037760D01*
X150661797Y-128055541D01*
X150650461Y-128140585D01*
X150622773Y-128205642D01*
X150618828Y-128210453D01*
X150585369Y-128273650D01*
X150568954Y-128348542D01*
X150554930Y-128409858D01*
X150529551Y-128426669D01*
X150529019Y-128426475D01*
X150507495Y-128440330D01*
X150509008Y-128502507D01*
X150507644Y-128575781D01*
X150474862Y-128609314D01*
X150438179Y-128649525D01*
X150427696Y-128697440D01*
X150417272Y-128750917D01*
X150398433Y-128767465D01*
X150374330Y-128791866D01*
X150369171Y-128823597D01*
X150352989Y-128918468D01*
X150303711Y-128965884D01*
X150263620Y-128972304D01*
X150207492Y-128987864D01*
X150195905Y-129023514D01*
X150203399Y-129051244D01*
X150212975Y-129038145D01*
X150243439Y-129003143D01*
X150272234Y-129018014D01*
X150281383Y-129060092D01*
X150270444Y-129107663D01*
X150255292Y-129118617D01*
X150229531Y-129143417D01*
X150210841Y-129191774D01*
X150187343Y-129246580D01*
X150163774Y-129264931D01*
X150138305Y-129288641D01*
X150135069Y-129308825D01*
X150120348Y-129347783D01*
X150107842Y-129352719D01*
X150083030Y-129377600D01*
X150071263Y-129418560D01*
X150037980Y-129477741D01*
X149997017Y-129493628D01*
X149952125Y-129507994D01*
X149956933Y-129541806D01*
X149965110Y-129555678D01*
X149980863Y-129605184D01*
X149953378Y-129655974D01*
X149941406Y-129669355D01*
X149870962Y-129727028D01*
X149812368Y-129759079D01*
X149770147Y-129780327D01*
X149783218Y-129789326D01*
X149791233Y-129789804D01*
X149831100Y-129805435D01*
X149842852Y-129833207D01*
X149818083Y-129849999D01*
X149813180Y-129850184D01*
X149787219Y-129873886D01*
X149783917Y-129894078D01*
X149760493Y-129932874D01*
X149740023Y-129937972D01*
X149704303Y-129962489D01*
X149696129Y-129997721D01*
X149679560Y-130057171D01*
X149640145Y-130116023D01*
X149593325Y-130156377D01*
X149555373Y-130160877D01*
X149516361Y-130165662D01*
X149490467Y-130187697D01*
X149469417Y-130219171D01*
X149493014Y-130216770D01*
X149501783Y-130213507D01*
X149543187Y-130209240D01*
X149546316Y-130238112D01*
X149514180Y-130291782D01*
X149449790Y-130361910D01*
X149447396Y-130364176D01*
X149387130Y-130427034D01*
X149350317Y-130477031D01*
X149344977Y-130491998D01*
X149321307Y-130519691D01*
X149301083Y-130523226D01*
X149262159Y-130540132D01*
X149257189Y-130554579D01*
X149235023Y-130604220D01*
X149186373Y-130651366D01*
X149142228Y-130669539D01*
X149112162Y-130692021D01*
X149110876Y-130700892D01*
X149088710Y-130750533D01*
X149040060Y-130797679D01*
X148995915Y-130815853D01*
X148965848Y-130838334D01*
X148964562Y-130847205D01*
X148942397Y-130896847D01*
X148893746Y-130943993D01*
X148849602Y-130962166D01*
X148819535Y-130984648D01*
X148818249Y-130993519D01*
X148796083Y-131043160D01*
X148747433Y-131090306D01*
X148703288Y-131108479D01*
X148673221Y-131130961D01*
X148671936Y-131139832D01*
X148652935Y-131183518D01*
X148611782Y-131230770D01*
X148572254Y-131254687D01*
X148570329Y-131254793D01*
X148539078Y-131272828D01*
X148485127Y-131317285D01*
X148473434Y-131327949D01*
X148415649Y-131376083D01*
X148374966Y-131400391D01*
X148370895Y-131401106D01*
X148336786Y-131420611D01*
X148285170Y-131468182D01*
X148279452Y-131474263D01*
X148228326Y-131523755D01*
X148193821Y-131547140D01*
X148191826Y-131547419D01*
X148161713Y-131560014D01*
X148106555Y-131602355D01*
X148043863Y-131657154D01*
X147993624Y-131688517D01*
X147971722Y-131693733D01*
X147941633Y-131714384D01*
X147940369Y-131722438D01*
X147915539Y-131750174D01*
X147867212Y-131769504D01*
X147812432Y-131792098D01*
X147794055Y-131813956D01*
X147771535Y-131839135D01*
X147763558Y-131840046D01*
X147731721Y-131848926D01*
X147684390Y-131881395D01*
X147608920Y-131946200D01*
X147604923Y-131949781D01*
X147541436Y-131981283D01*
X147506650Y-131986359D01*
X147450869Y-132006894D01*
X147431609Y-132032108D01*
X147403675Y-132063081D01*
X147386944Y-132061102D01*
X147347352Y-132065520D01*
X147315671Y-132088510D01*
X147251151Y-132125476D01*
X147210892Y-132132673D01*
X147162198Y-132143271D01*
X147150277Y-132158763D01*
X147125477Y-132184524D01*
X147077120Y-132203215D01*
X147022314Y-132226713D01*
X147003963Y-132250281D01*
X146978855Y-132271640D01*
X146928716Y-132278986D01*
X146853481Y-132295507D01*
X146809575Y-132322880D01*
X146746182Y-132357908D01*
X146694615Y-132366774D01*
X146640629Y-132377059D01*
X146623548Y-132396037D01*
X146597824Y-132415379D01*
X146534570Y-132425047D01*
X146521129Y-132425300D01*
X146453428Y-132432317D01*
X146419593Y-132449574D01*
X146418710Y-132453236D01*
X146393124Y-132476434D01*
X146330138Y-132497522D01*
X146315967Y-132500448D01*
X146243254Y-132519985D01*
X146199652Y-132542619D01*
X146197189Y-132545668D01*
X146159856Y-132563038D01*
X146089509Y-132571463D01*
X146078372Y-132571613D01*
X145995873Y-132583631D01*
X145934563Y-132612830D01*
X145931695Y-132615507D01*
X145874920Y-132644182D01*
X145790867Y-132658889D01*
X145772841Y-132659401D01*
X145700319Y-132666001D01*
X145660501Y-132682456D01*
X145657880Y-132688664D01*
X145630674Y-132703452D01*
X145557143Y-132713745D01*
X145449417Y-132717907D01*
X145440849Y-132717926D01*
X145309856Y-132722546D01*
X145234074Y-132736681D01*
X145211639Y-132754505D01*
X145192532Y-132766767D01*
X145140829Y-132776779D01*
X145051480Y-132784859D01*
X144919432Y-132791325D01*
X144739635Y-132796497D01*
X144507038Y-132800693D01*
X144471902Y-132801194D01*
X144149094Y-132803899D01*
X143882855Y-132802273D01*
X143673523Y-132796332D01*
X143521431Y-132786093D01*
X143426917Y-132771575D01*
X143390316Y-132752795D01*
X143391480Y-132744831D01*
X143373159Y-132731553D01*
X143307234Y-132722133D01*
X143204578Y-132718001D01*
X143186911Y-132717926D01*
X143075687Y-132714321D01*
X142998086Y-132704552D01*
X142965969Y-132690188D01*
X142965714Y-132688664D01*
X142939785Y-132670204D01*
X142875142Y-132660068D01*
X142850754Y-132659401D01*
X142764923Y-132648672D01*
X142699928Y-132622194D01*
X142691899Y-132615507D01*
X142630581Y-132585650D01*
X142533332Y-132571951D01*
X142514233Y-132571613D01*
X142434979Y-132565886D01*
X142387007Y-132551373D01*
X142380461Y-132542350D01*
X142355484Y-132520121D01*
X142309394Y-132513088D01*
X142235163Y-132495568D01*
X142194434Y-132469194D01*
X142129843Y-132433038D01*
X142085126Y-132425300D01*
X142020777Y-132414703D01*
X141940368Y-132388402D01*
X141863348Y-132354625D01*
X141809165Y-132321603D01*
X141795207Y-132302617D01*
X141770134Y-132284844D01*
X141722051Y-132278986D01*
X141667057Y-132268969D01*
X141648894Y-132249723D01*
X141623917Y-132227494D01*
X141577828Y-132220461D01*
X141503596Y-132202941D01*
X141462867Y-132176567D01*
X141398317Y-132139743D01*
X141358357Y-132132673D01*
X141309683Y-132120798D01*
X141297742Y-132103410D01*
X141274040Y-132077449D01*
X141253848Y-132074147D01*
X141244149Y-132079692D01*
X141235965Y-132099293D01*
X141229174Y-132137401D01*
X141223648Y-132198465D01*
X141219265Y-132286936D01*
X141215898Y-132407264D01*
X141213424Y-132563900D01*
X141211717Y-132761293D01*
X141210653Y-133003893D01*
X141210107Y-133296152D01*
X141209954Y-133639700D01*
X141209410Y-134025871D01*
X141207788Y-134359001D01*
X141205103Y-134638243D01*
X141201373Y-134862745D01*
X141196612Y-135031661D01*
X141190837Y-135144139D01*
X141184064Y-135199332D01*
X141180691Y-135205253D01*
X141151968Y-135181964D01*
X141149118Y-135168675D01*
X141143236Y-135147111D01*
X141132048Y-135168675D01*
X141107080Y-135184789D01*
X141043332Y-135195877D01*
X140934779Y-135202480D01*
X140775391Y-135205141D01*
X140724681Y-135205253D01*
X140332074Y-135205253D01*
X140332074Y-131520725D01*
X140171136Y-131358496D01*
X140091380Y-131281644D01*
X140025346Y-131224469D01*
X139985060Y-131197226D01*
X139980929Y-131196267D01*
X139953311Y-131173407D01*
X139951659Y-131162127D01*
X139940972Y-131141298D01*
X139934327Y-131145319D01*
X139908915Y-131132265D01*
X139852212Y-131085149D01*
X139772924Y-131012632D01*
X139679758Y-130923378D01*
X139581418Y-130826049D01*
X139486612Y-130729309D01*
X139404046Y-130641819D01*
X139342424Y-130572244D01*
X139310454Y-130529245D01*
X139307880Y-130521983D01*
X139288179Y-130482742D01*
X139240200Y-130428530D01*
X139234724Y-130423369D01*
X139184838Y-130368160D01*
X139161756Y-130324917D01*
X139161567Y-130322347D01*
X139140139Y-130290840D01*
X139130214Y-130289124D01*
X139075136Y-130264157D01*
X139030598Y-130205191D01*
X139015253Y-130144901D01*
X138997442Y-130095603D01*
X138971359Y-130084286D01*
X138932564Y-130060862D01*
X138927465Y-130040392D01*
X138911664Y-130001450D01*
X138898203Y-129996498D01*
X138869985Y-129974065D01*
X138868940Y-129966000D01*
X138860061Y-129934163D01*
X138827591Y-129886832D01*
X138762786Y-129811362D01*
X138759205Y-129807365D01*
X138728293Y-129744586D01*
X138722627Y-129705961D01*
X138704815Y-129656663D01*
X138678733Y-129645346D01*
X138639937Y-129621922D01*
X138634839Y-129601452D01*
X138619038Y-129562510D01*
X138605576Y-129557558D01*
X138583579Y-129532515D01*
X138576313Y-129484401D01*
X138561051Y-129425563D01*
X138532419Y-129411244D01*
X138496498Y-129386989D01*
X138488525Y-129354446D01*
X138475088Y-129298427D01*
X138459263Y-129279562D01*
X138434212Y-129238067D01*
X138430000Y-129207809D01*
X138409023Y-129154041D01*
X138386106Y-129137298D01*
X138349959Y-129097604D01*
X138342212Y-129061011D01*
X138330127Y-129012963D01*
X138312949Y-129001567D01*
X138292403Y-128976138D01*
X138283689Y-128914871D01*
X138283687Y-128913779D01*
X138270600Y-128844083D01*
X138239793Y-128825991D01*
X138204490Y-128800553D01*
X138195899Y-128752834D01*
X138185882Y-128697840D01*
X138166636Y-128679677D01*
X138147294Y-128653953D01*
X138137626Y-128590699D01*
X138137373Y-128577258D01*
X138127855Y-128501507D01*
X138097477Y-128475024D01*
X138093479Y-128474839D01*
X138058632Y-128448665D01*
X138049585Y-128387051D01*
X138041109Y-128325412D01*
X138020687Y-128299269D01*
X138020323Y-128299263D01*
X138000794Y-128273583D01*
X137991249Y-128210629D01*
X137991060Y-128199282D01*
X137982622Y-128129121D01*
X137961998Y-128090072D01*
X137958919Y-128088587D01*
X137936992Y-128055637D01*
X137917820Y-127984169D01*
X137911219Y-127939836D01*
X137897298Y-127859177D01*
X137879411Y-127809459D01*
X137870204Y-127801797D01*
X137855576Y-127775498D01*
X137846371Y-127708367D01*
X137844747Y-127657922D01*
X137838635Y-127571644D01*
X137822955Y-127514865D01*
X137812018Y-127503138D01*
X137793985Y-127470608D01*
X137777199Y-127394979D01*
X137764974Y-127291638D01*
X137764192Y-127281229D01*
X137753632Y-127178623D01*
X137739774Y-127103576D01*
X137725410Y-127070658D01*
X137723764Y-127070230D01*
X137717746Y-127042096D01*
X137712239Y-126962206D01*
X137707418Y-126837329D01*
X137703458Y-126674234D01*
X137700534Y-126479688D01*
X137698820Y-126260461D01*
X137698433Y-126089931D01*
X137698475Y-126075300D01*
X137669171Y-126075300D01*
X137658464Y-126099386D01*
X137649662Y-126094808D01*
X137646160Y-126060080D01*
X137649662Y-126055791D01*
X137667059Y-126059808D01*
X137669171Y-126075300D01*
X137698475Y-126075300D01*
X137699298Y-125795329D01*
X137701860Y-125551005D01*
X137706069Y-125358619D01*
X137711877Y-125219830D01*
X137719232Y-125136297D01*
X137727696Y-125109631D01*
X137743812Y-125083192D01*
X137754440Y-125015070D01*
X137756959Y-124950777D01*
X137766650Y-124829832D01*
X137794515Y-124755382D01*
X137800853Y-124748028D01*
X137831688Y-124681603D01*
X137844465Y-124565330D01*
X137844747Y-124541099D01*
X137849499Y-124452311D01*
X137861772Y-124393097D01*
X137874009Y-124378064D01*
X137892334Y-124352104D01*
X137902526Y-124287252D01*
X137903272Y-124261014D01*
X137910520Y-124179625D01*
X137934547Y-124146087D01*
X137947166Y-124143963D01*
X137977687Y-124124635D01*
X137990263Y-124060564D01*
X137991060Y-124026912D01*
X137997550Y-123953615D01*
X138013763Y-123912846D01*
X138020323Y-123909862D01*
X138039664Y-123884138D01*
X138049333Y-123820884D01*
X138049585Y-123807442D01*
X138059104Y-123731691D01*
X138089482Y-123705208D01*
X138093479Y-123705023D01*
X138125944Y-123682813D01*
X138137294Y-123611932D01*
X138137373Y-123602604D01*
X138144723Y-123534908D01*
X138162796Y-123501069D01*
X138166636Y-123500184D01*
X138188534Y-123475114D01*
X138195899Y-123426109D01*
X138211397Y-123363788D01*
X138239793Y-123335190D01*
X138273901Y-123296027D01*
X138283687Y-123248321D01*
X138294110Y-123194843D01*
X138312949Y-123178295D01*
X138336602Y-123153746D01*
X138342212Y-123118851D01*
X138361280Y-123062582D01*
X138386106Y-123042564D01*
X138422848Y-123002722D01*
X138430000Y-122969090D01*
X138436202Y-122925239D01*
X138461331Y-122878368D01*
X138515172Y-122812003D01*
X138539735Y-122784323D01*
X138571518Y-122725590D01*
X138576313Y-122697551D01*
X138591486Y-122657286D01*
X138605576Y-122651567D01*
X138629351Y-122627058D01*
X138634839Y-122593041D01*
X138653136Y-122545379D01*
X138678733Y-122534516D01*
X138714036Y-122509078D01*
X138722627Y-122461359D01*
X138732644Y-122406366D01*
X138751889Y-122388203D01*
X138777851Y-122364501D01*
X138781152Y-122344309D01*
X138804576Y-122305513D01*
X138825046Y-122300415D01*
X138860748Y-122275829D01*
X138868940Y-122239924D01*
X138889271Y-122184684D01*
X138940713Y-122114526D01*
X138971359Y-122082840D01*
X139031641Y-122019856D01*
X139068451Y-121969577D01*
X139073779Y-121954453D01*
X139092853Y-121914026D01*
X139139517Y-121857086D01*
X139146936Y-121849504D01*
X139196035Y-121792441D01*
X139219706Y-121749285D01*
X139220092Y-121745754D01*
X139243773Y-121718620D01*
X139263986Y-121715161D01*
X139302911Y-121698255D01*
X139307880Y-121683808D01*
X139330046Y-121634167D01*
X139378696Y-121587021D01*
X139422841Y-121568848D01*
X139452908Y-121546366D01*
X139454194Y-121537495D01*
X139472639Y-121491176D01*
X139490772Y-121468231D01*
X139535003Y-121419819D01*
X139591260Y-121355308D01*
X139592998Y-121353270D01*
X139649590Y-121300792D01*
X139699273Y-121276434D01*
X139702733Y-121276221D01*
X139741781Y-121259380D01*
X139746820Y-121244868D01*
X139768986Y-121195227D01*
X139817636Y-121148081D01*
X139861781Y-121129908D01*
X139891848Y-121107426D01*
X139893134Y-121098555D01*
X139912546Y-121054020D01*
X139954663Y-121006755D01*
X139995300Y-120983637D01*
X139996567Y-120983594D01*
X140026601Y-120962924D01*
X140071965Y-120912931D01*
X140073954Y-120910417D01*
X140137337Y-120856231D01*
X140195216Y-120852183D01*
X140256424Y-120853395D01*
X140307025Y-120834966D01*
X140328792Y-120806326D01*
X140319904Y-120787663D01*
X140290025Y-120787058D01*
X140281735Y-120800703D01*
X140253628Y-120827609D01*
X140212102Y-120838687D01*
X140186439Y-120827242D01*
X140185760Y-120822650D01*
X140204536Y-120789395D01*
X140246690Y-120748250D01*
X140290967Y-120717261D01*
X140315004Y-120712915D01*
X140317933Y-120687444D01*
X140320703Y-120608234D01*
X140323272Y-120480072D01*
X140325596Y-120307744D01*
X140327632Y-120096036D01*
X140329336Y-119849735D01*
X140330667Y-119573627D01*
X140331581Y-119272499D01*
X140332034Y-118951136D01*
X140332077Y-118815718D01*
X140332080Y-116901452D01*
X141209960Y-116901452D01*
X141209954Y-120105714D01*
X141283111Y-120105714D01*
X141338107Y-120095887D01*
X141356267Y-120077009D01*
X141381097Y-120049272D01*
X141429424Y-120029943D01*
X141484204Y-120007349D01*
X141502581Y-119985491D01*
X141527642Y-119965873D01*
X141575737Y-119959401D01*
X141630738Y-119949835D01*
X141648894Y-119931464D01*
X141674475Y-119908244D01*
X141737424Y-119887177D01*
X141751313Y-119884314D01*
X141818833Y-119865155D01*
X141852782Y-119842809D01*
X141853733Y-119839094D01*
X141878856Y-119819739D01*
X141928980Y-119813088D01*
X142004215Y-119796567D01*
X142048120Y-119769194D01*
X142111514Y-119734166D01*
X142163081Y-119725300D01*
X142217067Y-119715015D01*
X142234147Y-119696037D01*
X142260108Y-119677712D01*
X142324960Y-119667520D01*
X142351198Y-119666774D01*
X142424501Y-119660681D01*
X142465267Y-119645459D01*
X142468249Y-119639305D01*
X142494306Y-119619062D01*
X142560281Y-119599331D01*
X142600291Y-119592034D01*
X142682932Y-119574888D01*
X142738180Y-119554603D01*
X142748331Y-119546347D01*
X142784019Y-119532425D01*
X142859950Y-119523028D01*
X142935740Y-119520461D01*
X143042975Y-119514588D01*
X143106193Y-119498125D01*
X143118765Y-119485617D01*
X143153388Y-119464869D01*
X143234996Y-119448037D01*
X143333358Y-119438654D01*
X143438958Y-119429017D01*
X143521712Y-119415333D01*
X143563918Y-119400541D01*
X143564136Y-119400341D01*
X143599925Y-119392657D01*
X143683155Y-119386325D01*
X143804231Y-119381353D01*
X143953561Y-119377746D01*
X144121551Y-119375514D01*
X144298605Y-119374661D01*
X144475131Y-119375196D01*
X144641535Y-119377125D01*
X144788222Y-119380456D01*
X144905599Y-119385194D01*
X144984072Y-119391348D01*
X145014047Y-119398925D01*
X145014101Y-119399285D01*
X145041131Y-119412199D01*
X145113386Y-119425348D01*
X145217613Y-119436600D01*
X145269203Y-119440338D01*
X145389645Y-119451261D01*
X145480769Y-119466183D01*
X145530051Y-119482843D01*
X145535005Y-119488357D01*
X145568492Y-119506343D01*
X145645336Y-119517769D01*
X145718844Y-119520461D01*
X145810716Y-119524377D01*
X145873497Y-119534543D01*
X145891982Y-119545983D01*
X145917830Y-119566069D01*
X145982435Y-119585301D01*
X146009032Y-119590223D01*
X146082211Y-119608315D01*
X146123027Y-119630811D01*
X146126083Y-119637857D01*
X146151808Y-119656971D01*
X146215065Y-119666525D01*
X146228502Y-119666774D01*
X146296211Y-119673187D01*
X146330042Y-119688956D01*
X146330922Y-119692297D01*
X146356770Y-119712382D01*
X146421375Y-119731614D01*
X146447972Y-119736537D01*
X146521151Y-119754628D01*
X146561967Y-119777124D01*
X146565023Y-119784171D01*
X146590704Y-119803468D01*
X146653660Y-119812901D01*
X146665004Y-119813088D01*
X146735000Y-119821104D01*
X146773724Y-119840701D01*
X146775172Y-119843650D01*
X146808951Y-119869830D01*
X146850768Y-119879140D01*
X146902000Y-119897318D01*
X146916175Y-119921734D01*
X146943027Y-119949263D01*
X147017299Y-119959399D01*
X147018594Y-119959401D01*
X147086302Y-119965956D01*
X147120133Y-119982075D01*
X147121014Y-119985491D01*
X147145814Y-120011252D01*
X147194171Y-120029943D01*
X147248977Y-120053441D01*
X147267327Y-120077009D01*
X147290580Y-120103440D01*
X147305387Y-120105714D01*
X147369768Y-120119472D01*
X147438502Y-120152280D01*
X147488928Y-120191439D01*
X147501200Y-120215449D01*
X147526379Y-120242931D01*
X147574585Y-120252028D01*
X147629595Y-120260965D01*
X147647742Y-120278118D01*
X147672542Y-120303879D01*
X147720899Y-120322570D01*
X147775705Y-120346068D01*
X147794055Y-120369636D01*
X147817765Y-120395105D01*
X147837949Y-120398341D01*
X147876907Y-120413096D01*
X147881843Y-120425632D01*
X147906204Y-120454477D01*
X147947684Y-120473712D01*
X148020749Y-120512458D01*
X148057419Y-120544654D01*
X148121928Y-120594848D01*
X148167154Y-120615597D01*
X148218189Y-120641809D01*
X148232995Y-120663677D01*
X148255589Y-120689877D01*
X148264348Y-120690968D01*
X148313990Y-120713133D01*
X148361136Y-120761784D01*
X148379309Y-120805928D01*
X148401201Y-120836002D01*
X148409807Y-120837281D01*
X148441643Y-120846161D01*
X148488974Y-120878630D01*
X148564444Y-120943435D01*
X148568441Y-120947016D01*
X148618680Y-120978378D01*
X148640583Y-120983594D01*
X148668386Y-121007263D01*
X148671936Y-121027488D01*
X148687276Y-121066437D01*
X148700329Y-121071382D01*
X148734743Y-121091260D01*
X148796556Y-121143178D01*
X148874165Y-121215564D01*
X148955968Y-121296846D01*
X149030361Y-121375451D01*
X149085743Y-121439808D01*
X149110510Y-121478343D01*
X149110876Y-121480855D01*
X149126257Y-121502048D01*
X149134918Y-121498917D01*
X149168174Y-121507473D01*
X149212015Y-121546580D01*
X149247481Y-121596269D01*
X149257189Y-121627708D01*
X149279739Y-121655468D01*
X149288542Y-121656636D01*
X149341781Y-121680640D01*
X149387451Y-121735505D01*
X149403502Y-121787955D01*
X149416272Y-121820479D01*
X149430658Y-121818883D01*
X149459377Y-121828530D01*
X149476524Y-121861050D01*
X149502792Y-121908566D01*
X149522525Y-121920000D01*
X149548830Y-121942508D01*
X149549816Y-121950660D01*
X149569513Y-121989790D01*
X149617483Y-122043946D01*
X149622972Y-122049119D01*
X149673707Y-122113712D01*
X149696076Y-122176971D01*
X149696129Y-122179404D01*
X149713519Y-122230150D01*
X149740023Y-122241889D01*
X149778407Y-122265448D01*
X149783917Y-122287510D01*
X149798103Y-122317799D01*
X149813180Y-122315046D01*
X149834879Y-122325406D01*
X149842442Y-122371844D01*
X149854684Y-122427706D01*
X149879021Y-122446956D01*
X149915179Y-122471646D01*
X149953718Y-122530225D01*
X149981938Y-122600033D01*
X149988756Y-122642769D01*
X150006293Y-122677814D01*
X150017461Y-122680829D01*
X150045198Y-122705659D01*
X150064527Y-122753986D01*
X150087121Y-122808766D01*
X150108979Y-122827143D01*
X150128597Y-122852204D01*
X150135069Y-122900300D01*
X150150332Y-122959138D01*
X150178963Y-122973456D01*
X150214710Y-122997852D01*
X150222857Y-123031982D01*
X150235112Y-123079532D01*
X150252120Y-123090507D01*
X150272666Y-123115935D01*
X150281380Y-123177203D01*
X150281383Y-123178295D01*
X150294469Y-123247990D01*
X150325277Y-123266083D01*
X150360579Y-123291521D01*
X150369171Y-123339240D01*
X150379187Y-123394233D01*
X150398433Y-123412396D01*
X150421931Y-123436994D01*
X150427696Y-123473012D01*
X150447774Y-123543941D01*
X150471590Y-123577521D01*
X150506618Y-123640915D01*
X150515484Y-123692482D01*
X150525769Y-123746467D01*
X150544747Y-123763548D01*
X150563071Y-123789509D01*
X150573263Y-123854361D01*
X150574009Y-123880599D01*
X150581257Y-123961988D01*
X150605284Y-123995525D01*
X150617903Y-123997650D01*
X150650368Y-124019859D01*
X150661718Y-124090741D01*
X150661797Y-124100069D01*
X150669147Y-124167765D01*
X150687220Y-124201604D01*
X150691060Y-124202488D01*
X150707872Y-124228781D01*
X150718454Y-124295898D01*
X150720323Y-124346363D01*
X150726911Y-124437116D01*
X150744339Y-124492539D01*
X150754626Y-124501673D01*
X150774957Y-124535048D01*
X150792477Y-124610817D01*
X150802037Y-124694318D01*
X150812636Y-124788569D01*
X150827232Y-124854100D01*
X150840890Y-124875530D01*
X150853196Y-124902400D01*
X150862300Y-124973477D01*
X150866523Y-125074463D01*
X150866636Y-125095000D01*
X150869882Y-125199901D01*
X150878470Y-125277504D01*
X150890671Y-125313510D01*
X150893153Y-125314470D01*
X150911862Y-125340696D01*
X150930691Y-125407775D01*
X150939793Y-125460783D01*
X150959916Y-125607097D01*
X152607765Y-125607097D01*
X155637658Y-125607097D01*
X155639712Y-125596529D01*
X155677103Y-125399509D01*
X155721940Y-125159704D01*
X155766505Y-124919424D01*
X155806025Y-124662385D01*
X155839120Y-124358228D01*
X155865127Y-124018073D01*
X155883383Y-123653044D01*
X155893227Y-123274261D01*
X155893996Y-122892848D01*
X155892717Y-122799765D01*
X155888496Y-122567939D01*
X155883922Y-122383157D01*
X155877897Y-122233945D01*
X155869325Y-122108826D01*
X155857109Y-121996326D01*
X155840152Y-121884968D01*
X155817357Y-121763278D01*
X155787626Y-121619779D01*
X155773657Y-121554217D01*
X155721066Y-121320045D01*
X155666634Y-121105233D01*
X155605432Y-120893085D01*
X155532534Y-120666903D01*
X155443011Y-120409989D01*
X155404414Y-120303049D01*
X155351706Y-120172803D01*
X155276884Y-120007406D01*
X155187575Y-119822115D01*
X155091404Y-119632186D01*
X154995998Y-119452875D01*
X154908981Y-119299438D01*
X154874151Y-119242193D01*
X154519924Y-118719969D01*
X154139594Y-118243697D01*
X153726247Y-117806317D01*
X153272972Y-117400765D01*
X152772854Y-117019980D01*
X152549240Y-116867107D01*
X152194651Y-116650065D01*
X151808870Y-116449496D01*
X151387076Y-116263537D01*
X150924453Y-116090325D01*
X150416180Y-115927999D01*
X149857440Y-115774696D01*
X149491290Y-115685173D01*
X149074085Y-115592663D01*
X148637189Y-115505526D01*
X148196587Y-115426515D01*
X147768266Y-115358385D01*
X147368212Y-115303889D01*
X147110657Y-115275040D01*
X146967868Y-115260760D01*
X146831374Y-115247064D01*
X146721766Y-115236018D01*
X146682074Y-115231993D01*
X146416159Y-115209706D01*
X146103105Y-115191507D01*
X145754160Y-115177492D01*
X145380572Y-115167756D01*
X144993592Y-115162395D01*
X144604468Y-115161504D01*
X144224449Y-115165179D01*
X144224449Y-115165179D01*
G37*
X144224449Y-115165179D02*
X143864784Y-115173515D01*
X143536722Y-115186609D01*
X143271453Y-115203017D01*
X143014482Y-115222677D01*
X142804188Y-115239435D01*
X142628875Y-115254613D01*
X142476848Y-115269532D01*
X142336411Y-115285516D01*
X142195868Y-115303884D01*
X142043523Y-115325960D01*
X141867681Y-115353066D01*
X141678157Y-115383094D01*
X141023450Y-115493959D01*
X140422799Y-115609676D01*
X139871848Y-115731506D01*
X139366237Y-115860711D01*
X138901609Y-115998553D01*
X138473605Y-116146294D01*
X138077866Y-116305196D01*
X137710036Y-116476520D01*
X137475062Y-116599970D01*
X136979722Y-116893778D01*
X136531027Y-117205694D01*
X136117825Y-117544601D01*
X135728967Y-117919385D01*
X135484049Y-118186363D01*
X135305602Y-118393138D01*
X135149620Y-118582546D01*
X135010941Y-118762918D01*
X134884403Y-118942584D01*
X134764845Y-119129874D01*
X134647103Y-119333120D01*
X134526017Y-119560653D01*
X134396423Y-119820802D01*
X134253160Y-120121898D01*
X134158721Y-120325184D01*
X134086975Y-120500596D01*
X134011508Y-120720487D01*
X133936130Y-120971298D01*
X133864650Y-121239468D01*
X133800879Y-121511439D01*
X133748628Y-121773650D01*
X133743463Y-121802949D01*
X133719321Y-121979747D01*
X133699064Y-122202733D01*
X133683011Y-122459680D01*
X133671478Y-122738360D01*
X133664781Y-123026545D01*
X133663237Y-123312007D01*
X133667164Y-123582520D01*
X133676876Y-123825854D01*
X133687259Y-123973138D01*
X133766306Y-124668915D01*
X133884131Y-125399243D01*
X134038922Y-126156515D01*
X134228868Y-126933121D01*
X134452154Y-127721451D01*
X134706971Y-128513895D01*
X134895212Y-129045461D01*
X135037102Y-129424764D01*
X135185144Y-129808029D01*
X135334590Y-130183520D01*
X135480692Y-130539500D01*
X135618701Y-130864231D01*
X135743869Y-131145977D01*
X135753505Y-131167005D01*
X135826572Y-131326764D01*
X135896786Y-131481633D01*
X135957842Y-131617609D01*
X136003433Y-131720688D01*
X136017073Y-131752258D01*
X136054822Y-131835144D01*
X136115352Y-131961204D01*
X136194271Y-132121779D01*
X136287187Y-132308209D01*
X136389706Y-132511835D01*
X136497437Y-132723998D01*
X136605987Y-132936036D01*
X136710963Y-133139291D01*
X136807973Y-133325104D01*
X136892625Y-133484813D01*
X136944768Y-133581175D01*
X137011723Y-133701611D01*
X137101308Y-133860260D01*
X137206524Y-134044863D01*
X137320373Y-134243162D01*
X137435854Y-134442899D01*
X137487786Y-134532212D01*
X137592314Y-134712770D01*
X137689676Y-134883116D01*
X137775057Y-135034653D01*
X137843640Y-135158786D01*
X137890612Y-135246919D01*
X137907734Y-135281860D01*
X137950205Y-135364264D01*
X137992590Y-135426193D01*
X138004807Y-135438621D01*
X138036393Y-135475464D01*
X138092627Y-135551276D01*
X138166280Y-135655944D01*
X138250123Y-135779355D01*
X138274238Y-135815586D01*
X138384880Y-135980376D01*
X138511198Y-136164843D01*
X138647294Y-136360713D01*
X138787275Y-136559715D01*
X138925242Y-136753574D01*
X139055301Y-136934017D01*
X139171555Y-137092772D01*
X139268108Y-137221566D01*
X139339064Y-137312124D01*
X139351248Y-137326797D01*
X139419371Y-137410070D01*
X139509883Y-137524375D01*
X139610275Y-137653765D01*
X139695572Y-137765737D01*
X139949257Y-138087520D01*
X140234270Y-138423379D01*
X140543016Y-138765803D01*
X140867902Y-139107279D01*
X141201334Y-139440296D01*
X141535720Y-139757342D01*
X141863465Y-140050905D01*
X142176977Y-140313473D01*
X142468662Y-140537534D01*
X142570668Y-140609959D01*
X142886306Y-140809299D01*
X143227860Y-140990966D01*
X143579825Y-141148066D01*
X143926698Y-141273708D01*
X144252975Y-141360999D01*
X144266219Y-141363769D01*
X144478588Y-141393602D01*
X144723949Y-141405465D01*
X144979676Y-141399608D01*
X145223141Y-141376281D01*
X145365253Y-141351623D01*
X145717083Y-141253109D01*
X146089212Y-141104911D01*
X146476298Y-140909954D01*
X146873000Y-140671165D01*
X147273976Y-140391469D01*
X147627888Y-140112357D01*
X147751492Y-140006613D01*
X147898053Y-139876657D01*
X148060025Y-139729624D01*
X148229858Y-139572648D01*
X148400005Y-139412866D01*
X148562917Y-139257412D01*
X148711047Y-139113421D01*
X148836846Y-138988028D01*
X148932766Y-138888368D01*
X148984706Y-138829786D01*
X149033986Y-138770716D01*
X149111592Y-138679118D01*
X149207544Y-138566714D01*
X149311862Y-138445228D01*
X149330027Y-138424147D01*
X149454337Y-138276550D01*
X149595532Y-138103483D01*
X149736028Y-137926775D01*
X149855393Y-137772025D01*
X149953038Y-137644087D01*
X150043364Y-137528208D01*
X150118143Y-137434766D01*
X150169149Y-137374142D01*
X150180109Y-137362348D01*
X150221482Y-137313532D01*
X150290679Y-137223816D01*
X150382405Y-137100556D01*
X150491369Y-136951107D01*
X150612275Y-136782823D01*
X150739832Y-136603059D01*
X150868744Y-136419170D01*
X150993718Y-136238510D01*
X151079881Y-136112215D01*
X151465040Y-135525370D01*
X151854734Y-134896145D01*
X152240133Y-134239136D01*
X152558170Y-133668963D01*
X153146432Y-132546198D01*
X153679518Y-131439400D01*
X154158070Y-130346945D01*
X154582732Y-129267211D01*
X154954145Y-128198574D01*
X155272955Y-127139412D01*
X155508682Y-126221613D01*
X155532746Y-126117761D01*
X155556286Y-126011377D01*
X155580898Y-125894412D01*
X155608175Y-125758812D01*
X155637658Y-125607097D01*
X152607765Y-125607097D01*
X152607765Y-126572765D01*
X150959916Y-126572765D01*
X150939793Y-126719078D01*
X150923579Y-126802410D01*
X150904134Y-126855399D01*
X150893153Y-126865392D01*
X150880325Y-126892228D01*
X150870910Y-126963075D01*
X150866706Y-127063442D01*
X150866636Y-127079009D01*
X150863072Y-127187295D01*
X150853683Y-127272921D01*
X150840426Y-127318772D01*
X150839048Y-127320426D01*
X150822070Y-127363746D01*
X150808928Y-127444000D01*
X150804608Y-127500711D01*
X150792778Y-127601615D01*
X150769954Y-127659580D01*
X150759039Y-127668053D01*
X150732416Y-127707687D01*
X150720655Y-127794298D01*
X150720323Y-127815510D01*
X150714548Y-127894360D01*
X150699928Y-127941849D01*
X150691060Y-127948111D01*
X150672085Y-127973921D01*
X150662201Y-128037760D01*
X150661797Y-128055541D01*
X150650461Y-128140585D01*
X150622773Y-128205642D01*
X150618828Y-128210453D01*
X150585369Y-128273650D01*
X150568954Y-128348542D01*
X150554930Y-128409858D01*
X150529551Y-128426669D01*
X150529019Y-128426475D01*
X150507495Y-128440330D01*
X150509008Y-128502507D01*
X150507644Y-128575781D01*
X150474862Y-128609314D01*
X150438179Y-128649525D01*
X150427696Y-128697440D01*
X150417272Y-128750917D01*
X150398433Y-128767465D01*
X150374330Y-128791866D01*
X150369171Y-128823597D01*
X150352989Y-128918468D01*
X150303711Y-128965884D01*
X150263620Y-128972304D01*
X150207492Y-128987864D01*
X150195905Y-129023514D01*
X150203399Y-129051244D01*
X150212975Y-129038145D01*
X150243439Y-129003143D01*
X150272234Y-129018014D01*
X150281383Y-129060092D01*
X150270444Y-129107663D01*
X150255292Y-129118617D01*
X150229531Y-129143417D01*
X150210841Y-129191774D01*
X150187343Y-129246580D01*
X150163774Y-129264931D01*
X150138305Y-129288641D01*
X150135069Y-129308825D01*
X150120348Y-129347783D01*
X150107842Y-129352719D01*
X150083030Y-129377600D01*
X150071263Y-129418560D01*
X150037980Y-129477741D01*
X149997017Y-129493628D01*
X149952125Y-129507994D01*
X149956933Y-129541806D01*
X149965110Y-129555678D01*
X149980863Y-129605184D01*
X149953378Y-129655974D01*
X149941406Y-129669355D01*
X149870962Y-129727028D01*
X149812368Y-129759079D01*
X149770147Y-129780327D01*
X149783218Y-129789326D01*
X149791233Y-129789804D01*
X149831100Y-129805435D01*
X149842852Y-129833207D01*
X149818083Y-129849999D01*
X149813180Y-129850184D01*
X149787219Y-129873886D01*
X149783917Y-129894078D01*
X149760493Y-129932874D01*
X149740023Y-129937972D01*
X149704303Y-129962489D01*
X149696129Y-129997721D01*
X149679560Y-130057171D01*
X149640145Y-130116023D01*
X149593325Y-130156377D01*
X149555373Y-130160877D01*
X149516361Y-130165662D01*
X149490467Y-130187697D01*
X149469417Y-130219171D01*
X149493014Y-130216770D01*
X149501783Y-130213507D01*
X149543187Y-130209240D01*
X149546316Y-130238112D01*
X149514180Y-130291782D01*
X149449790Y-130361910D01*
X149447396Y-130364176D01*
X149387130Y-130427034D01*
X149350317Y-130477031D01*
X149344977Y-130491998D01*
X149321307Y-130519691D01*
X149301083Y-130523226D01*
X149262159Y-130540132D01*
X149257189Y-130554579D01*
X149235023Y-130604220D01*
X149186373Y-130651366D01*
X149142228Y-130669539D01*
X149112162Y-130692021D01*
X149110876Y-130700892D01*
X149088710Y-130750533D01*
X149040060Y-130797679D01*
X148995915Y-130815853D01*
X148965848Y-130838334D01*
X148964562Y-130847205D01*
X148942397Y-130896847D01*
X148893746Y-130943993D01*
X148849602Y-130962166D01*
X148819535Y-130984648D01*
X148818249Y-130993519D01*
X148796083Y-131043160D01*
X148747433Y-131090306D01*
X148703288Y-131108479D01*
X148673221Y-131130961D01*
X148671936Y-131139832D01*
X148652935Y-131183518D01*
X148611782Y-131230770D01*
X148572254Y-131254687D01*
X148570329Y-131254793D01*
X148539078Y-131272828D01*
X148485127Y-131317285D01*
X148473434Y-131327949D01*
X148415649Y-131376083D01*
X148374966Y-131400391D01*
X148370895Y-131401106D01*
X148336786Y-131420611D01*
X148285170Y-131468182D01*
X148279452Y-131474263D01*
X148228326Y-131523755D01*
X148193821Y-131547140D01*
X148191826Y-131547419D01*
X148161713Y-131560014D01*
X148106555Y-131602355D01*
X148043863Y-131657154D01*
X147993624Y-131688517D01*
X147971722Y-131693733D01*
X147941633Y-131714384D01*
X147940369Y-131722438D01*
X147915539Y-131750174D01*
X147867212Y-131769504D01*
X147812432Y-131792098D01*
X147794055Y-131813956D01*
X147771535Y-131839135D01*
X147763558Y-131840046D01*
X147731721Y-131848926D01*
X147684390Y-131881395D01*
X147608920Y-131946200D01*
X147604923Y-131949781D01*
X147541436Y-131981283D01*
X147506650Y-131986359D01*
X147450869Y-132006894D01*
X147431609Y-132032108D01*
X147403675Y-132063081D01*
X147386944Y-132061102D01*
X147347352Y-132065520D01*
X147315671Y-132088510D01*
X147251151Y-132125476D01*
X147210892Y-132132673D01*
X147162198Y-132143271D01*
X147150277Y-132158763D01*
X147125477Y-132184524D01*
X147077120Y-132203215D01*
X147022314Y-132226713D01*
X147003963Y-132250281D01*
X146978855Y-132271640D01*
X146928716Y-132278986D01*
X146853481Y-132295507D01*
X146809575Y-132322880D01*
X146746182Y-132357908D01*
X146694615Y-132366774D01*
X146640629Y-132377059D01*
X146623548Y-132396037D01*
X146597824Y-132415379D01*
X146534570Y-132425047D01*
X146521129Y-132425300D01*
X146453428Y-132432317D01*
X146419593Y-132449574D01*
X146418710Y-132453236D01*
X146393124Y-132476434D01*
X146330138Y-132497522D01*
X146315967Y-132500448D01*
X146243254Y-132519985D01*
X146199652Y-132542619D01*
X146197189Y-132545668D01*
X146159856Y-132563038D01*
X146089509Y-132571463D01*
X146078372Y-132571613D01*
X145995873Y-132583631D01*
X145934563Y-132612830D01*
X145931695Y-132615507D01*
X145874920Y-132644182D01*
X145790867Y-132658889D01*
X145772841Y-132659401D01*
X145700319Y-132666001D01*
X145660501Y-132682456D01*
X145657880Y-132688664D01*
X145630674Y-132703452D01*
X145557143Y-132713745D01*
X145449417Y-132717907D01*
X145440849Y-132717926D01*
X145309856Y-132722546D01*
X145234074Y-132736681D01*
X145211639Y-132754505D01*
X145192532Y-132766767D01*
X145140829Y-132776779D01*
X145051480Y-132784859D01*
X144919432Y-132791325D01*
X144739635Y-132796497D01*
X144507038Y-132800693D01*
X144471902Y-132801194D01*
X144149094Y-132803899D01*
X143882855Y-132802273D01*
X143673523Y-132796332D01*
X143521431Y-132786093D01*
X143426917Y-132771575D01*
X143390316Y-132752795D01*
X143391480Y-132744831D01*
X143373159Y-132731553D01*
X143307234Y-132722133D01*
X143204578Y-132718001D01*
X143186911Y-132717926D01*
X143075687Y-132714321D01*
X142998086Y-132704552D01*
X142965969Y-132690188D01*
X142965714Y-132688664D01*
X142939785Y-132670204D01*
X142875142Y-132660068D01*
X142850754Y-132659401D01*
X142764923Y-132648672D01*
X142699928Y-132622194D01*
X142691899Y-132615507D01*
X142630581Y-132585650D01*
X142533332Y-132571951D01*
X142514233Y-132571613D01*
X142434979Y-132565886D01*
X142387007Y-132551373D01*
X142380461Y-132542350D01*
X142355484Y-132520121D01*
X142309394Y-132513088D01*
X142235163Y-132495568D01*
X142194434Y-132469194D01*
X142129843Y-132433038D01*
X142085126Y-132425300D01*
X142020777Y-132414703D01*
X141940368Y-132388402D01*
X141863348Y-132354625D01*
X141809165Y-132321603D01*
X141795207Y-132302617D01*
X141770134Y-132284844D01*
X141722051Y-132278986D01*
X141667057Y-132268969D01*
X141648894Y-132249723D01*
X141623917Y-132227494D01*
X141577828Y-132220461D01*
X141503596Y-132202941D01*
X141462867Y-132176567D01*
X141398317Y-132139743D01*
X141358357Y-132132673D01*
X141309683Y-132120798D01*
X141297742Y-132103410D01*
X141274040Y-132077449D01*
X141253848Y-132074147D01*
X141244149Y-132079692D01*
X141235965Y-132099293D01*
X141229174Y-132137401D01*
X141223648Y-132198465D01*
X141219265Y-132286936D01*
X141215898Y-132407264D01*
X141213424Y-132563900D01*
X141211717Y-132761293D01*
X141210653Y-133003893D01*
X141210107Y-133296152D01*
X141209954Y-133639700D01*
X141209410Y-134025871D01*
X141207788Y-134359001D01*
X141205103Y-134638243D01*
X141201373Y-134862745D01*
X141196612Y-135031661D01*
X141190837Y-135144139D01*
X141184064Y-135199332D01*
X141180691Y-135205253D01*
X141151968Y-135181964D01*
X141149118Y-135168675D01*
X141143236Y-135147111D01*
X141132048Y-135168675D01*
X141107080Y-135184789D01*
X141043332Y-135195877D01*
X140934779Y-135202480D01*
X140775391Y-135205141D01*
X140724681Y-135205253D01*
X140332074Y-135205253D01*
X140332074Y-131520725D01*
X140171136Y-131358496D01*
X140091380Y-131281644D01*
X140025346Y-131224469D01*
X139985060Y-131197226D01*
X139980929Y-131196267D01*
X139953311Y-131173407D01*
X139951659Y-131162127D01*
X139940972Y-131141298D01*
X139934327Y-131145319D01*
X139908915Y-131132265D01*
X139852212Y-131085149D01*
X139772924Y-131012632D01*
X139679758Y-130923378D01*
X139581418Y-130826049D01*
X139486612Y-130729309D01*
X139404046Y-130641819D01*
X139342424Y-130572244D01*
X139310454Y-130529245D01*
X139307880Y-130521983D01*
X139288179Y-130482742D01*
X139240200Y-130428530D01*
X139234724Y-130423369D01*
X139184838Y-130368160D01*
X139161756Y-130324917D01*
X139161567Y-130322347D01*
X139140139Y-130290840D01*
X139130214Y-130289124D01*
X139075136Y-130264157D01*
X139030598Y-130205191D01*
X139015253Y-130144901D01*
X138997442Y-130095603D01*
X138971359Y-130084286D01*
X138932564Y-130060862D01*
X138927465Y-130040392D01*
X138911664Y-130001450D01*
X138898203Y-129996498D01*
X138869985Y-129974065D01*
X138868940Y-129966000D01*
X138860061Y-129934163D01*
X138827591Y-129886832D01*
X138762786Y-129811362D01*
X138759205Y-129807365D01*
X138728293Y-129744586D01*
X138722627Y-129705961D01*
X138704815Y-129656663D01*
X138678733Y-129645346D01*
X138639937Y-129621922D01*
X138634839Y-129601452D01*
X138619038Y-129562510D01*
X138605576Y-129557558D01*
X138583579Y-129532515D01*
X138576313Y-129484401D01*
X138561051Y-129425563D01*
X138532419Y-129411244D01*
X138496498Y-129386989D01*
X138488525Y-129354446D01*
X138475088Y-129298427D01*
X138459263Y-129279562D01*
X138434212Y-129238067D01*
X138430000Y-129207809D01*
X138409023Y-129154041D01*
X138386106Y-129137298D01*
X138349959Y-129097604D01*
X138342212Y-129061011D01*
X138330127Y-129012963D01*
X138312949Y-129001567D01*
X138292403Y-128976138D01*
X138283689Y-128914871D01*
X138283687Y-128913779D01*
X138270600Y-128844083D01*
X138239793Y-128825991D01*
X138204490Y-128800553D01*
X138195899Y-128752834D01*
X138185882Y-128697840D01*
X138166636Y-128679677D01*
X138147294Y-128653953D01*
X138137626Y-128590699D01*
X138137373Y-128577258D01*
X138127855Y-128501507D01*
X138097477Y-128475024D01*
X138093479Y-128474839D01*
X138058632Y-128448665D01*
X138049585Y-128387051D01*
X138041109Y-128325412D01*
X138020687Y-128299269D01*
X138020323Y-128299263D01*
X138000794Y-128273583D01*
X137991249Y-128210629D01*
X137991060Y-128199282D01*
X137982622Y-128129121D01*
X137961998Y-128090072D01*
X137958919Y-128088587D01*
X137936992Y-128055637D01*
X137917820Y-127984169D01*
X137911219Y-127939836D01*
X137897298Y-127859177D01*
X137879411Y-127809459D01*
X137870204Y-127801797D01*
X137855576Y-127775498D01*
X137846371Y-127708367D01*
X137844747Y-127657922D01*
X137838635Y-127571644D01*
X137822955Y-127514865D01*
X137812018Y-127503138D01*
X137793985Y-127470608D01*
X137777199Y-127394979D01*
X137764974Y-127291638D01*
X137764192Y-127281229D01*
X137753632Y-127178623D01*
X137739774Y-127103576D01*
X137725410Y-127070658D01*
X137723764Y-127070230D01*
X137717746Y-127042096D01*
X137712239Y-126962206D01*
X137707418Y-126837329D01*
X137703458Y-126674234D01*
X137700534Y-126479688D01*
X137698820Y-126260461D01*
X137698433Y-126089931D01*
X137698475Y-126075300D01*
X137669171Y-126075300D01*
X137658464Y-126099386D01*
X137649662Y-126094808D01*
X137646160Y-126060080D01*
X137649662Y-126055791D01*
X137667059Y-126059808D01*
X137669171Y-126075300D01*
X137698475Y-126075300D01*
X137699298Y-125795329D01*
X137701860Y-125551005D01*
X137706069Y-125358619D01*
X137711877Y-125219830D01*
X137719232Y-125136297D01*
X137727696Y-125109631D01*
X137743812Y-125083192D01*
X137754440Y-125015070D01*
X137756959Y-124950777D01*
X137766650Y-124829832D01*
X137794515Y-124755382D01*
X137800853Y-124748028D01*
X137831688Y-124681603D01*
X137844465Y-124565330D01*
X137844747Y-124541099D01*
X137849499Y-124452311D01*
X137861772Y-124393097D01*
X137874009Y-124378064D01*
X137892334Y-124352104D01*
X137902526Y-124287252D01*
X137903272Y-124261014D01*
X137910520Y-124179625D01*
X137934547Y-124146087D01*
X137947166Y-124143963D01*
X137977687Y-124124635D01*
X137990263Y-124060564D01*
X137991060Y-124026912D01*
X137997550Y-123953615D01*
X138013763Y-123912846D01*
X138020323Y-123909862D01*
X138039664Y-123884138D01*
X138049333Y-123820884D01*
X138049585Y-123807442D01*
X138059104Y-123731691D01*
X138089482Y-123705208D01*
X138093479Y-123705023D01*
X138125944Y-123682813D01*
X138137294Y-123611932D01*
X138137373Y-123602604D01*
X138144723Y-123534908D01*
X138162796Y-123501069D01*
X138166636Y-123500184D01*
X138188534Y-123475114D01*
X138195899Y-123426109D01*
X138211397Y-123363788D01*
X138239793Y-123335190D01*
X138273901Y-123296027D01*
X138283687Y-123248321D01*
X138294110Y-123194843D01*
X138312949Y-123178295D01*
X138336602Y-123153746D01*
X138342212Y-123118851D01*
X138361280Y-123062582D01*
X138386106Y-123042564D01*
X138422848Y-123002722D01*
X138430000Y-122969090D01*
X138436202Y-122925239D01*
X138461331Y-122878368D01*
X138515172Y-122812003D01*
X138539735Y-122784323D01*
X138571518Y-122725590D01*
X138576313Y-122697551D01*
X138591486Y-122657286D01*
X138605576Y-122651567D01*
X138629351Y-122627058D01*
X138634839Y-122593041D01*
X138653136Y-122545379D01*
X138678733Y-122534516D01*
X138714036Y-122509078D01*
X138722627Y-122461359D01*
X138732644Y-122406366D01*
X138751889Y-122388203D01*
X138777851Y-122364501D01*
X138781152Y-122344309D01*
X138804576Y-122305513D01*
X138825046Y-122300415D01*
X138860748Y-122275829D01*
X138868940Y-122239924D01*
X138889271Y-122184684D01*
X138940713Y-122114526D01*
X138971359Y-122082840D01*
X139031641Y-122019856D01*
X139068451Y-121969577D01*
X139073779Y-121954453D01*
X139092853Y-121914026D01*
X139139517Y-121857086D01*
X139146936Y-121849504D01*
X139196035Y-121792441D01*
X139219706Y-121749285D01*
X139220092Y-121745754D01*
X139243773Y-121718620D01*
X139263986Y-121715161D01*
X139302911Y-121698255D01*
X139307880Y-121683808D01*
X139330046Y-121634167D01*
X139378696Y-121587021D01*
X139422841Y-121568848D01*
X139452908Y-121546366D01*
X139454194Y-121537495D01*
X139472639Y-121491176D01*
X139490772Y-121468231D01*
X139535003Y-121419819D01*
X139591260Y-121355308D01*
X139592998Y-121353270D01*
X139649590Y-121300792D01*
X139699273Y-121276434D01*
X139702733Y-121276221D01*
X139741781Y-121259380D01*
X139746820Y-121244868D01*
X139768986Y-121195227D01*
X139817636Y-121148081D01*
X139861781Y-121129908D01*
X139891848Y-121107426D01*
X139893134Y-121098555D01*
X139912546Y-121054020D01*
X139954663Y-121006755D01*
X139995300Y-120983637D01*
X139996567Y-120983594D01*
X140026601Y-120962924D01*
X140071965Y-120912931D01*
X140073954Y-120910417D01*
X140137337Y-120856231D01*
X140195216Y-120852183D01*
X140256424Y-120853395D01*
X140307025Y-120834966D01*
X140328792Y-120806326D01*
X140319904Y-120787663D01*
X140290025Y-120787058D01*
X140281735Y-120800703D01*
X140253628Y-120827609D01*
X140212102Y-120838687D01*
X140186439Y-120827242D01*
X140185760Y-120822650D01*
X140204536Y-120789395D01*
X140246690Y-120748250D01*
X140290967Y-120717261D01*
X140315004Y-120712915D01*
X140317933Y-120687444D01*
X140320703Y-120608234D01*
X140323272Y-120480072D01*
X140325596Y-120307744D01*
X140327632Y-120096036D01*
X140329336Y-119849735D01*
X140330667Y-119573627D01*
X140331581Y-119272499D01*
X140332034Y-118951136D01*
X140332077Y-118815718D01*
X140332080Y-116901452D01*
X141209960Y-116901452D01*
X141209954Y-120105714D01*
X141283111Y-120105714D01*
X141338107Y-120095887D01*
X141356267Y-120077009D01*
X141381097Y-120049272D01*
X141429424Y-120029943D01*
X141484204Y-120007349D01*
X141502581Y-119985491D01*
X141527642Y-119965873D01*
X141575737Y-119959401D01*
X141630738Y-119949835D01*
X141648894Y-119931464D01*
X141674475Y-119908244D01*
X141737424Y-119887177D01*
X141751313Y-119884314D01*
X141818833Y-119865155D01*
X141852782Y-119842809D01*
X141853733Y-119839094D01*
X141878856Y-119819739D01*
X141928980Y-119813088D01*
X142004215Y-119796567D01*
X142048120Y-119769194D01*
X142111514Y-119734166D01*
X142163081Y-119725300D01*
X142217067Y-119715015D01*
X142234147Y-119696037D01*
X142260108Y-119677712D01*
X142324960Y-119667520D01*
X142351198Y-119666774D01*
X142424501Y-119660681D01*
X142465267Y-119645459D01*
X142468249Y-119639305D01*
X142494306Y-119619062D01*
X142560281Y-119599331D01*
X142600291Y-119592034D01*
X142682932Y-119574888D01*
X142738180Y-119554603D01*
X142748331Y-119546347D01*
X142784019Y-119532425D01*
X142859950Y-119523028D01*
X142935740Y-119520461D01*
X143042975Y-119514588D01*
X143106193Y-119498125D01*
X143118765Y-119485617D01*
X143153388Y-119464869D01*
X143234996Y-119448037D01*
X143333358Y-119438654D01*
X143438958Y-119429017D01*
X143521712Y-119415333D01*
X143563918Y-119400541D01*
X143564136Y-119400341D01*
X143599925Y-119392657D01*
X143683155Y-119386325D01*
X143804231Y-119381353D01*
X143953561Y-119377746D01*
X144121551Y-119375514D01*
X144298605Y-119374661D01*
X144475131Y-119375196D01*
X144641535Y-119377125D01*
X144788222Y-119380456D01*
X144905599Y-119385194D01*
X144984072Y-119391348D01*
X145014047Y-119398925D01*
X145014101Y-119399285D01*
X145041131Y-119412199D01*
X145113386Y-119425348D01*
X145217613Y-119436600D01*
X145269203Y-119440338D01*
X145389645Y-119451261D01*
X145480769Y-119466183D01*
X145530051Y-119482843D01*
X145535005Y-119488357D01*
X145568492Y-119506343D01*
X145645336Y-119517769D01*
X145718844Y-119520461D01*
X145810716Y-119524377D01*
X145873497Y-119534543D01*
X145891982Y-119545983D01*
X145917830Y-119566069D01*
X145982435Y-119585301D01*
X146009032Y-119590223D01*
X146082211Y-119608315D01*
X146123027Y-119630811D01*
X146126083Y-119637857D01*
X146151808Y-119656971D01*
X146215065Y-119666525D01*
X146228502Y-119666774D01*
X146296211Y-119673187D01*
X146330042Y-119688956D01*
X146330922Y-119692297D01*
X146356770Y-119712382D01*
X146421375Y-119731614D01*
X146447972Y-119736537D01*
X146521151Y-119754628D01*
X146561967Y-119777124D01*
X146565023Y-119784171D01*
X146590704Y-119803468D01*
X146653660Y-119812901D01*
X146665004Y-119813088D01*
X146735000Y-119821104D01*
X146773724Y-119840701D01*
X146775172Y-119843650D01*
X146808951Y-119869830D01*
X146850768Y-119879140D01*
X146902000Y-119897318D01*
X146916175Y-119921734D01*
X146943027Y-119949263D01*
X147017299Y-119959399D01*
X147018594Y-119959401D01*
X147086302Y-119965956D01*
X147120133Y-119982075D01*
X147121014Y-119985491D01*
X147145814Y-120011252D01*
X147194171Y-120029943D01*
X147248977Y-120053441D01*
X147267327Y-120077009D01*
X147290580Y-120103440D01*
X147305387Y-120105714D01*
X147369768Y-120119472D01*
X147438502Y-120152280D01*
X147488928Y-120191439D01*
X147501200Y-120215449D01*
X147526379Y-120242931D01*
X147574585Y-120252028D01*
X147629595Y-120260965D01*
X147647742Y-120278118D01*
X147672542Y-120303879D01*
X147720899Y-120322570D01*
X147775705Y-120346068D01*
X147794055Y-120369636D01*
X147817765Y-120395105D01*
X147837949Y-120398341D01*
X147876907Y-120413096D01*
X147881843Y-120425632D01*
X147906204Y-120454477D01*
X147947684Y-120473712D01*
X148020749Y-120512458D01*
X148057419Y-120544654D01*
X148121928Y-120594848D01*
X148167154Y-120615597D01*
X148218189Y-120641809D01*
X148232995Y-120663677D01*
X148255589Y-120689877D01*
X148264348Y-120690968D01*
X148313990Y-120713133D01*
X148361136Y-120761784D01*
X148379309Y-120805928D01*
X148401201Y-120836002D01*
X148409807Y-120837281D01*
X148441643Y-120846161D01*
X148488974Y-120878630D01*
X148564444Y-120943435D01*
X148568441Y-120947016D01*
X148618680Y-120978378D01*
X148640583Y-120983594D01*
X148668386Y-121007263D01*
X148671936Y-121027488D01*
X148687276Y-121066437D01*
X148700329Y-121071382D01*
X148734743Y-121091260D01*
X148796556Y-121143178D01*
X148874165Y-121215564D01*
X148955968Y-121296846D01*
X149030361Y-121375451D01*
X149085743Y-121439808D01*
X149110510Y-121478343D01*
X149110876Y-121480855D01*
X149126257Y-121502048D01*
X149134918Y-121498917D01*
X149168174Y-121507473D01*
X149212015Y-121546580D01*
X149247481Y-121596269D01*
X149257189Y-121627708D01*
X149279739Y-121655468D01*
X149288542Y-121656636D01*
X149341781Y-121680640D01*
X149387451Y-121735505D01*
X149403502Y-121787955D01*
X149416272Y-121820479D01*
X149430658Y-121818883D01*
X149459377Y-121828530D01*
X149476524Y-121861050D01*
X149502792Y-121908566D01*
X149522525Y-121920000D01*
X149548830Y-121942508D01*
X149549816Y-121950660D01*
X149569513Y-121989790D01*
X149617483Y-122043946D01*
X149622972Y-122049119D01*
X149673707Y-122113712D01*
X149696076Y-122176971D01*
X149696129Y-122179404D01*
X149713519Y-122230150D01*
X149740023Y-122241889D01*
X149778407Y-122265448D01*
X149783917Y-122287510D01*
X149798103Y-122317799D01*
X149813180Y-122315046D01*
X149834879Y-122325406D01*
X149842442Y-122371844D01*
X149854684Y-122427706D01*
X149879021Y-122446956D01*
X149915179Y-122471646D01*
X149953718Y-122530225D01*
X149981938Y-122600033D01*
X149988756Y-122642769D01*
X150006293Y-122677814D01*
X150017461Y-122680829D01*
X150045198Y-122705659D01*
X150064527Y-122753986D01*
X150087121Y-122808766D01*
X150108979Y-122827143D01*
X150128597Y-122852204D01*
X150135069Y-122900300D01*
X150150332Y-122959138D01*
X150178963Y-122973456D01*
X150214710Y-122997852D01*
X150222857Y-123031982D01*
X150235112Y-123079532D01*
X150252120Y-123090507D01*
X150272666Y-123115935D01*
X150281380Y-123177203D01*
X150281383Y-123178295D01*
X150294469Y-123247990D01*
X150325277Y-123266083D01*
X150360579Y-123291521D01*
X150369171Y-123339240D01*
X150379187Y-123394233D01*
X150398433Y-123412396D01*
X150421931Y-123436994D01*
X150427696Y-123473012D01*
X150447774Y-123543941D01*
X150471590Y-123577521D01*
X150506618Y-123640915D01*
X150515484Y-123692482D01*
X150525769Y-123746467D01*
X150544747Y-123763548D01*
X150563071Y-123789509D01*
X150573263Y-123854361D01*
X150574009Y-123880599D01*
X150581257Y-123961988D01*
X150605284Y-123995525D01*
X150617903Y-123997650D01*
X150650368Y-124019859D01*
X150661718Y-124090741D01*
X150661797Y-124100069D01*
X150669147Y-124167765D01*
X150687220Y-124201604D01*
X150691060Y-124202488D01*
X150707872Y-124228781D01*
X150718454Y-124295898D01*
X150720323Y-124346363D01*
X150726911Y-124437116D01*
X150744339Y-124492539D01*
X150754626Y-124501673D01*
X150774957Y-124535048D01*
X150792477Y-124610817D01*
X150802037Y-124694318D01*
X150812636Y-124788569D01*
X150827232Y-124854100D01*
X150840890Y-124875530D01*
X150853196Y-124902400D01*
X150862300Y-124973477D01*
X150866523Y-125074463D01*
X150866636Y-125095000D01*
X150869882Y-125199901D01*
X150878470Y-125277504D01*
X150890671Y-125313510D01*
X150893153Y-125314470D01*
X150911862Y-125340696D01*
X150930691Y-125407775D01*
X150939793Y-125460783D01*
X150959916Y-125607097D01*
X152607765Y-125607097D01*
X155637658Y-125607097D01*
X155639712Y-125596529D01*
X155677103Y-125399509D01*
X155721940Y-125159704D01*
X155766505Y-124919424D01*
X155806025Y-124662385D01*
X155839120Y-124358228D01*
X155865127Y-124018073D01*
X155883383Y-123653044D01*
X155893227Y-123274261D01*
X155893996Y-122892848D01*
X155892717Y-122799765D01*
X155888496Y-122567939D01*
X155883922Y-122383157D01*
X155877897Y-122233945D01*
X155869325Y-122108826D01*
X155857109Y-121996326D01*
X155840152Y-121884968D01*
X155817357Y-121763278D01*
X155787626Y-121619779D01*
X155773657Y-121554217D01*
X155721066Y-121320045D01*
X155666634Y-121105233D01*
X155605432Y-120893085D01*
X155532534Y-120666903D01*
X155443011Y-120409989D01*
X155404414Y-120303049D01*
X155351706Y-120172803D01*
X155276884Y-120007406D01*
X155187575Y-119822115D01*
X155091404Y-119632186D01*
X154995998Y-119452875D01*
X154908981Y-119299438D01*
X154874151Y-119242193D01*
X154519924Y-118719969D01*
X154139594Y-118243697D01*
X153726247Y-117806317D01*
X153272972Y-117400765D01*
X152772854Y-117019980D01*
X152549240Y-116867107D01*
X152194651Y-116650065D01*
X151808870Y-116449496D01*
X151387076Y-116263537D01*
X150924453Y-116090325D01*
X150416180Y-115927999D01*
X149857440Y-115774696D01*
X149491290Y-115685173D01*
X149074085Y-115592663D01*
X148637189Y-115505526D01*
X148196587Y-115426515D01*
X147768266Y-115358385D01*
X147368212Y-115303889D01*
X147110657Y-115275040D01*
X146967868Y-115260760D01*
X146831374Y-115247064D01*
X146721766Y-115236018D01*
X146682074Y-115231993D01*
X146416159Y-115209706D01*
X146103105Y-115191507D01*
X145754160Y-115177492D01*
X145380572Y-115167756D01*
X144993592Y-115162395D01*
X144604468Y-115161504D01*
X144224449Y-115165179D01*
G36*
X146769862Y-129791659D02*
X145014101Y-129791659D01*
X145014101Y-129601452D01*
X145012819Y-129499204D01*
X145005580Y-129442254D01*
X144987300Y-129417378D01*
X144952893Y-129411354D01*
X144940945Y-129411244D01*
X144882107Y-129426507D01*
X144867788Y-129455138D01*
X144842350Y-129490441D01*
X144794631Y-129499032D01*
X144739615Y-129507481D01*
X144721475Y-129523687D01*
X144698124Y-129551888D01*
X144639988Y-129591704D01*
X144619055Y-129603498D01*
X144554188Y-129643578D01*
X144518827Y-129675435D01*
X144516636Y-129681263D01*
X144492987Y-129701614D01*
X144474832Y-129703871D01*
X144418399Y-129722545D01*
X144393824Y-129740449D01*
X144332367Y-129787279D01*
X144259603Y-129829176D01*
X144194590Y-129856670D01*
X144156384Y-129860289D01*
X144154959Y-129859167D01*
X144139210Y-129865845D01*
X144136221Y-129889201D01*
X144111873Y-129929242D01*
X144063065Y-129937972D01*
X144008068Y-129947800D01*
X143989908Y-129966677D01*
X143965078Y-129994414D01*
X143916751Y-130013744D01*
X143861971Y-130036337D01*
X143843594Y-130058195D01*
X143820971Y-130083250D01*
X143812242Y-130084286D01*
X143765498Y-130102097D01*
X143740100Y-130120864D01*
X143663164Y-130187228D01*
X143614899Y-130220886D01*
X143582664Y-130230586D01*
X143581466Y-130230599D01*
X143558542Y-130255634D01*
X143550968Y-130303756D01*
X143560795Y-130358752D01*
X143579673Y-130376912D01*
X143607410Y-130401742D01*
X143626739Y-130450069D01*
X143649333Y-130504849D01*
X143671191Y-130523226D01*
X143692783Y-130547622D01*
X143697281Y-130578620D01*
X143717649Y-130633143D01*
X143741175Y-130650859D01*
X143774580Y-130689832D01*
X143785069Y-130741777D01*
X143785069Y-130815853D01*
X143463180Y-130815853D01*
X143333835Y-130817956D01*
X143229304Y-130823661D01*
X143161396Y-130832056D01*
X143141290Y-130840668D01*
X143113871Y-130851282D01*
X143038928Y-130862545D01*
X142927431Y-130873209D01*
X142790351Y-130882023D01*
X142768682Y-130883089D01*
X142615648Y-130892606D01*
X142494862Y-130904702D01*
X142415233Y-130918253D01*
X142385829Y-130931430D01*
X142351802Y-130959516D01*
X142334128Y-130962166D01*
X142296609Y-130974688D01*
X142292488Y-130984113D01*
X142268738Y-131012791D01*
X142212152Y-131050996D01*
X142144225Y-131086494D01*
X142086450Y-131107052D01*
X142073962Y-131108479D01*
X142031316Y-131132114D01*
X142018015Y-131154228D01*
X141989020Y-131184486D01*
X141970990Y-131181764D01*
X141945767Y-131188278D01*
X141941521Y-131209172D01*
X141916309Y-131246240D01*
X141868364Y-131254793D01*
X141813370Y-131264810D01*
X141795207Y-131284055D01*
X141818909Y-131310017D01*
X141839101Y-131313318D01*
X141878048Y-131328824D01*
X141882995Y-131342023D01*
X141907825Y-131369760D01*
X141956152Y-131389089D01*
X142010932Y-131411683D01*
X142029309Y-131433541D01*
X142054986Y-131451003D01*
X142117875Y-131459479D01*
X142128597Y-131459631D01*
X142208522Y-131472512D01*
X142244730Y-131503525D01*
X142284424Y-131539672D01*
X142321017Y-131547419D01*
X142369064Y-131559504D01*
X142380461Y-131576682D01*
X142406390Y-131595142D01*
X142471033Y-131605278D01*
X142495421Y-131605945D01*
X142579597Y-131614902D01*
X142641425Y-131637033D01*
X142649050Y-131642923D01*
X142703493Y-131670873D01*
X142783559Y-131688832D01*
X142790138Y-131689517D01*
X142860954Y-131702745D01*
X142900524Y-131722592D01*
X142902312Y-131725695D01*
X142934801Y-131741967D01*
X143004873Y-131751350D01*
X143037736Y-131752258D01*
X143144773Y-131762110D01*
X143246827Y-131786379D01*
X143262083Y-131792014D01*
X143345101Y-131814369D01*
X143458597Y-131831369D01*
X143550968Y-131838061D01*
X143649724Y-131845129D01*
X143721927Y-131857454D01*
X143750929Y-131871462D01*
X143782128Y-131880242D01*
X143863440Y-131887746D01*
X143986460Y-131893571D01*
X144142782Y-131897313D01*
X144315963Y-131898571D01*
X144490932Y-131897297D01*
X144640618Y-131893734D01*
X144756777Y-131888273D01*
X144831168Y-131881308D01*
X144855548Y-131873228D01*
X144855408Y-131872951D01*
X144874951Y-131860051D01*
X144940685Y-131847486D01*
X145040300Y-131837301D01*
X145088422Y-131834269D01*
X145206303Y-131824428D01*
X145303107Y-131809615D01*
X145362811Y-131792521D01*
X145371746Y-131786733D01*
X145419895Y-131766250D01*
X145502307Y-131753899D01*
X145546682Y-131752258D01*
X145628206Y-131746788D01*
X145678885Y-131732858D01*
X145687143Y-131722995D01*
X145712762Y-131703218D01*
X145775311Y-131693850D01*
X145783969Y-131693733D01*
X145869999Y-131680842D01*
X145937598Y-131650769D01*
X146007515Y-131619620D01*
X146089505Y-131606875D01*
X146154252Y-131598365D01*
X146184340Y-131578886D01*
X146184608Y-131576682D01*
X146209469Y-131554048D01*
X146252172Y-131547419D01*
X146330150Y-131529713D01*
X146376538Y-131504456D01*
X146449470Y-131469397D01*
X146499182Y-131460562D01*
X146550595Y-131448800D01*
X146565023Y-131430369D01*
X146588551Y-131404015D01*
X146606546Y-131401106D01*
X146658724Y-131387973D01*
X146731652Y-131356328D01*
X146802296Y-131317804D01*
X146847627Y-131284035D01*
X146852773Y-131276740D01*
X146886321Y-131258009D01*
X146915031Y-131254793D01*
X146977443Y-131233639D01*
X147003963Y-131210899D01*
X147053784Y-131173713D01*
X147080703Y-131167005D01*
X147117313Y-131151804D01*
X147121014Y-131140914D01*
X147145814Y-131115153D01*
X147194171Y-131096463D01*
X147248977Y-131072965D01*
X147267327Y-131049396D01*
X147291037Y-131023927D01*
X147311221Y-131020691D01*
X147350187Y-131006575D01*
X147355115Y-130994601D01*
X147379915Y-130968840D01*
X147428272Y-130950149D01*
X147483078Y-130926651D01*
X147501429Y-130903083D01*
X147523985Y-130875535D01*
X147532781Y-130874378D01*
X147579525Y-130856566D01*
X147604923Y-130837800D01*
X147681859Y-130771436D01*
X147730124Y-130737777D01*
X147762359Y-130728078D01*
X147763558Y-130728064D01*
X147793011Y-130711058D01*
X147794055Y-130705111D01*
X147816794Y-130676534D01*
X147872735Y-130635888D01*
X147884949Y-130628466D01*
X147949252Y-130581746D01*
X148036584Y-130507050D01*
X148129928Y-130419078D01*
X148146334Y-130402686D01*
X148228569Y-130323264D01*
X148297478Y-130263239D01*
X148341374Y-130232581D01*
X148348067Y-130230599D01*
X148377885Y-130208014D01*
X148379309Y-130198434D01*
X148398904Y-130163216D01*
X148450373Y-130101295D01*
X148522739Y-130025832D01*
X148525622Y-130023002D01*
X148598570Y-129947101D01*
X148650996Y-129884019D01*
X148671909Y-129847027D01*
X148671936Y-129846369D01*
X148691706Y-129805291D01*
X148739832Y-129750163D01*
X148745092Y-129745202D01*
X148794534Y-129694587D01*
X148817956Y-129661176D01*
X148818249Y-129659284D01*
X148839752Y-129620577D01*
X148886329Y-129578764D01*
X148931082Y-129557647D01*
X148933209Y-129557558D01*
X148958120Y-129532902D01*
X148964562Y-129495072D01*
X148985136Y-129432671D01*
X149034927Y-129367420D01*
X149037719Y-129364787D01*
X149087957Y-129305785D01*
X149110753Y-129254442D01*
X149110876Y-129251697D01*
X149126251Y-129211866D01*
X149140138Y-129206406D01*
X149166100Y-129182704D01*
X149169401Y-129162512D01*
X149192825Y-129123716D01*
X149213295Y-129118617D01*
X149248598Y-129093179D01*
X149257189Y-129045461D01*
X149266514Y-128990457D01*
X149284416Y-128972304D01*
X149309485Y-128947436D01*
X149321689Y-128906463D01*
X149342746Y-128858142D01*
X149367619Y-128847938D01*
X149394416Y-128828142D01*
X149403502Y-128767465D01*
X149410808Y-128705810D01*
X149428408Y-128679684D01*
X149428707Y-128679677D01*
X149442890Y-128704410D01*
X149441047Y-128760150D01*
X149436872Y-128810463D01*
X149450268Y-128808349D01*
X149456965Y-128799486D01*
X149473458Y-128743435D01*
X149474011Y-128663978D01*
X149473513Y-128659714D01*
X149474523Y-128580718D01*
X149504953Y-128544322D01*
X149505547Y-128544090D01*
X149539950Y-128504806D01*
X149549816Y-128457077D01*
X149560239Y-128403599D01*
X149579078Y-128387051D01*
X149601308Y-128362074D01*
X149608341Y-128315984D01*
X149625861Y-128241753D01*
X149652235Y-128201024D01*
X149682120Y-128143004D01*
X149696005Y-128060597D01*
X149696129Y-128052620D01*
X149703342Y-127984098D01*
X149721123Y-127949228D01*
X149725392Y-127948111D01*
X149747621Y-127923133D01*
X149754654Y-127877044D01*
X149772174Y-127802813D01*
X149798548Y-127762084D01*
X149828405Y-127700765D01*
X149842104Y-127603516D01*
X149842442Y-127584417D01*
X149847442Y-127505154D01*
X149860111Y-127457184D01*
X149867982Y-127450645D01*
X149884828Y-127424287D01*
X149900597Y-127356627D01*
X149908165Y-127298253D01*
X149922224Y-127210305D01*
X149942383Y-127150097D01*
X149955782Y-127134870D01*
X149973286Y-127099455D01*
X149984390Y-127009140D01*
X149988711Y-126867236D01*
X149988756Y-126848322D01*
X149988756Y-126572765D01*
X146769862Y-126572765D01*
X146769862Y-129791659D01*
X146769862Y-129791659D01*
G37*
X146769862Y-129791659D02*
X145014101Y-129791659D01*
X145014101Y-129601452D01*
X145012819Y-129499204D01*
X145005580Y-129442254D01*
X144987300Y-129417378D01*
X144952893Y-129411354D01*
X144940945Y-129411244D01*
X144882107Y-129426507D01*
X144867788Y-129455138D01*
X144842350Y-129490441D01*
X144794631Y-129499032D01*
X144739615Y-129507481D01*
X144721475Y-129523687D01*
X144698124Y-129551888D01*
X144639988Y-129591704D01*
X144619055Y-129603498D01*
X144554188Y-129643578D01*
X144518827Y-129675435D01*
X144516636Y-129681263D01*
X144492987Y-129701614D01*
X144474832Y-129703871D01*
X144418399Y-129722545D01*
X144393824Y-129740449D01*
X144332367Y-129787279D01*
X144259603Y-129829176D01*
X144194590Y-129856670D01*
X144156384Y-129860289D01*
X144154959Y-129859167D01*
X144139210Y-129865845D01*
X144136221Y-129889201D01*
X144111873Y-129929242D01*
X144063065Y-129937972D01*
X144008068Y-129947800D01*
X143989908Y-129966677D01*
X143965078Y-129994414D01*
X143916751Y-130013744D01*
X143861971Y-130036337D01*
X143843594Y-130058195D01*
X143820971Y-130083250D01*
X143812242Y-130084286D01*
X143765498Y-130102097D01*
X143740100Y-130120864D01*
X143663164Y-130187228D01*
X143614899Y-130220886D01*
X143582664Y-130230586D01*
X143581466Y-130230599D01*
X143558542Y-130255634D01*
X143550968Y-130303756D01*
X143560795Y-130358752D01*
X143579673Y-130376912D01*
X143607410Y-130401742D01*
X143626739Y-130450069D01*
X143649333Y-130504849D01*
X143671191Y-130523226D01*
X143692783Y-130547622D01*
X143697281Y-130578620D01*
X143717649Y-130633143D01*
X143741175Y-130650859D01*
X143774580Y-130689832D01*
X143785069Y-130741777D01*
X143785069Y-130815853D01*
X143463180Y-130815853D01*
X143333835Y-130817956D01*
X143229304Y-130823661D01*
X143161396Y-130832056D01*
X143141290Y-130840668D01*
X143113871Y-130851282D01*
X143038928Y-130862545D01*
X142927431Y-130873209D01*
X142790351Y-130882023D01*
X142768682Y-130883089D01*
X142615648Y-130892606D01*
X142494862Y-130904702D01*
X142415233Y-130918253D01*
X142385829Y-130931430D01*
X142351802Y-130959516D01*
X142334128Y-130962166D01*
X142296609Y-130974688D01*
X142292488Y-130984113D01*
X142268738Y-131012791D01*
X142212152Y-131050996D01*
X142144225Y-131086494D01*
X142086450Y-131107052D01*
X142073962Y-131108479D01*
X142031316Y-131132114D01*
X142018015Y-131154228D01*
X141989020Y-131184486D01*
X141970990Y-131181764D01*
X141945767Y-131188278D01*
X141941521Y-131209172D01*
X141916309Y-131246240D01*
X141868364Y-131254793D01*
X141813370Y-131264810D01*
X141795207Y-131284055D01*
X141818909Y-131310017D01*
X141839101Y-131313318D01*
X141878048Y-131328824D01*
X141882995Y-131342023D01*
X141907825Y-131369760D01*
X141956152Y-131389089D01*
X142010932Y-131411683D01*
X142029309Y-131433541D01*
X142054986Y-131451003D01*
X142117875Y-131459479D01*
X142128597Y-131459631D01*
X142208522Y-131472512D01*
X142244730Y-131503525D01*
X142284424Y-131539672D01*
X142321017Y-131547419D01*
X142369064Y-131559504D01*
X142380461Y-131576682D01*
X142406390Y-131595142D01*
X142471033Y-131605278D01*
X142495421Y-131605945D01*
X142579597Y-131614902D01*
X142641425Y-131637033D01*
X142649050Y-131642923D01*
X142703493Y-131670873D01*
X142783559Y-131688832D01*
X142790138Y-131689517D01*
X142860954Y-131702745D01*
X142900524Y-131722592D01*
X142902312Y-131725695D01*
X142934801Y-131741967D01*
X143004873Y-131751350D01*
X143037736Y-131752258D01*
X143144773Y-131762110D01*
X143246827Y-131786379D01*
X143262083Y-131792014D01*
X143345101Y-131814369D01*
X143458597Y-131831369D01*
X143550968Y-131838061D01*
X143649724Y-131845129D01*
X143721927Y-131857454D01*
X143750929Y-131871462D01*
X143782128Y-131880242D01*
X143863440Y-131887746D01*
X143986460Y-131893571D01*
X144142782Y-131897313D01*
X144315963Y-131898571D01*
X144490932Y-131897297D01*
X144640618Y-131893734D01*
X144756777Y-131888273D01*
X144831168Y-131881308D01*
X144855548Y-131873228D01*
X144855408Y-131872951D01*
X144874951Y-131860051D01*
X144940685Y-131847486D01*
X145040300Y-131837301D01*
X145088422Y-131834269D01*
X145206303Y-131824428D01*
X145303107Y-131809615D01*
X145362811Y-131792521D01*
X145371746Y-131786733D01*
X145419895Y-131766250D01*
X145502307Y-131753899D01*
X145546682Y-131752258D01*
X145628206Y-131746788D01*
X145678885Y-131732858D01*
X145687143Y-131722995D01*
X145712762Y-131703218D01*
X145775311Y-131693850D01*
X145783969Y-131693733D01*
X145869999Y-131680842D01*
X145937598Y-131650769D01*
X146007515Y-131619620D01*
X146089505Y-131606875D01*
X146154252Y-131598365D01*
X146184340Y-131578886D01*
X146184608Y-131576682D01*
X146209469Y-131554048D01*
X146252172Y-131547419D01*
X146330150Y-131529713D01*
X146376538Y-131504456D01*
X146449470Y-131469397D01*
X146499182Y-131460562D01*
X146550595Y-131448800D01*
X146565023Y-131430369D01*
X146588551Y-131404015D01*
X146606546Y-131401106D01*
X146658724Y-131387973D01*
X146731652Y-131356328D01*
X146802296Y-131317804D01*
X146847627Y-131284035D01*
X146852773Y-131276740D01*
X146886321Y-131258009D01*
X146915031Y-131254793D01*
X146977443Y-131233639D01*
X147003963Y-131210899D01*
X147053784Y-131173713D01*
X147080703Y-131167005D01*
X147117313Y-131151804D01*
X147121014Y-131140914D01*
X147145814Y-131115153D01*
X147194171Y-131096463D01*
X147248977Y-131072965D01*
X147267327Y-131049396D01*
X147291037Y-131023927D01*
X147311221Y-131020691D01*
X147350187Y-131006575D01*
X147355115Y-130994601D01*
X147379915Y-130968840D01*
X147428272Y-130950149D01*
X147483078Y-130926651D01*
X147501429Y-130903083D01*
X147523985Y-130875535D01*
X147532781Y-130874378D01*
X147579525Y-130856566D01*
X147604923Y-130837800D01*
X147681859Y-130771436D01*
X147730124Y-130737777D01*
X147762359Y-130728078D01*
X147763558Y-130728064D01*
X147793011Y-130711058D01*
X147794055Y-130705111D01*
X147816794Y-130676534D01*
X147872735Y-130635888D01*
X147884949Y-130628466D01*
X147949252Y-130581746D01*
X148036584Y-130507050D01*
X148129928Y-130419078D01*
X148146334Y-130402686D01*
X148228569Y-130323264D01*
X148297478Y-130263239D01*
X148341374Y-130232581D01*
X148348067Y-130230599D01*
X148377885Y-130208014D01*
X148379309Y-130198434D01*
X148398904Y-130163216D01*
X148450373Y-130101295D01*
X148522739Y-130025832D01*
X148525622Y-130023002D01*
X148598570Y-129947101D01*
X148650996Y-129884019D01*
X148671909Y-129847027D01*
X148671936Y-129846369D01*
X148691706Y-129805291D01*
X148739832Y-129750163D01*
X148745092Y-129745202D01*
X148794534Y-129694587D01*
X148817956Y-129661176D01*
X148818249Y-129659284D01*
X148839752Y-129620577D01*
X148886329Y-129578764D01*
X148931082Y-129557647D01*
X148933209Y-129557558D01*
X148958120Y-129532902D01*
X148964562Y-129495072D01*
X148985136Y-129432671D01*
X149034927Y-129367420D01*
X149037719Y-129364787D01*
X149087957Y-129305785D01*
X149110753Y-129254442D01*
X149110876Y-129251697D01*
X149126251Y-129211866D01*
X149140138Y-129206406D01*
X149166100Y-129182704D01*
X149169401Y-129162512D01*
X149192825Y-129123716D01*
X149213295Y-129118617D01*
X149248598Y-129093179D01*
X149257189Y-129045461D01*
X149266514Y-128990457D01*
X149284416Y-128972304D01*
X149309485Y-128947436D01*
X149321689Y-128906463D01*
X149342746Y-128858142D01*
X149367619Y-128847938D01*
X149394416Y-128828142D01*
X149403502Y-128767465D01*
X149410808Y-128705810D01*
X149428408Y-128679684D01*
X149428707Y-128679677D01*
X149442890Y-128704410D01*
X149441047Y-128760150D01*
X149436872Y-128810463D01*
X149450268Y-128808349D01*
X149456965Y-128799486D01*
X149473458Y-128743435D01*
X149474011Y-128663978D01*
X149473513Y-128659714D01*
X149474523Y-128580718D01*
X149504953Y-128544322D01*
X149505547Y-128544090D01*
X149539950Y-128504806D01*
X149549816Y-128457077D01*
X149560239Y-128403599D01*
X149579078Y-128387051D01*
X149601308Y-128362074D01*
X149608341Y-128315984D01*
X149625861Y-128241753D01*
X149652235Y-128201024D01*
X149682120Y-128143004D01*
X149696005Y-128060597D01*
X149696129Y-128052620D01*
X149703342Y-127984098D01*
X149721123Y-127949228D01*
X149725392Y-127948111D01*
X149747621Y-127923133D01*
X149754654Y-127877044D01*
X149772174Y-127802813D01*
X149798548Y-127762084D01*
X149828405Y-127700765D01*
X149842104Y-127603516D01*
X149842442Y-127584417D01*
X149847442Y-127505154D01*
X149860111Y-127457184D01*
X149867982Y-127450645D01*
X149884828Y-127424287D01*
X149900597Y-127356627D01*
X149908165Y-127298253D01*
X149922224Y-127210305D01*
X149942383Y-127150097D01*
X149955782Y-127134870D01*
X149973286Y-127099455D01*
X149984390Y-127009140D01*
X149988711Y-126867236D01*
X149988756Y-126848322D01*
X149988756Y-126572765D01*
X146769862Y-126572765D01*
X146769862Y-129791659D01*
G36*
X140859504Y-121472730D02*
X140803743Y-121510190D01*
X140747092Y-121561532D01*
X140695898Y-121593255D01*
X140673450Y-121598111D01*
X140632721Y-121619515D01*
X140584067Y-121670717D01*
X140538957Y-121716698D01*
X140504874Y-121728015D01*
X140503964Y-121727515D01*
X140480177Y-121733768D01*
X140478387Y-121744787D01*
X140456321Y-121795646D01*
X140407692Y-121843347D01*
X140363427Y-121861475D01*
X140333339Y-121882281D01*
X140332074Y-121890403D01*
X140314657Y-121935222D01*
X140275048Y-121984015D01*
X140232204Y-122016812D01*
X140209803Y-122019193D01*
X140187656Y-122026829D01*
X140185760Y-122039184D01*
X140165947Y-122078411D01*
X140115674Y-122138344D01*
X140083341Y-122170628D01*
X140023075Y-122233486D01*
X139986262Y-122283482D01*
X139980922Y-122298450D01*
X139957252Y-122326143D01*
X139937028Y-122329677D01*
X139901281Y-122354074D01*
X139893134Y-122388203D01*
X139880879Y-122435754D01*
X139863871Y-122446728D01*
X139837910Y-122470430D01*
X139834608Y-122490622D01*
X139811185Y-122529418D01*
X139790714Y-122534516D01*
X139751783Y-122550970D01*
X139746820Y-122565014D01*
X139737941Y-122596850D01*
X139705471Y-122644182D01*
X139640666Y-122719651D01*
X139637085Y-122723649D01*
X139605723Y-122773888D01*
X139600507Y-122795790D01*
X139581680Y-122825899D01*
X139574417Y-122827143D01*
X139548767Y-122851971D01*
X139529665Y-122901496D01*
X139506956Y-122950236D01*
X139482598Y-122958295D01*
X139458566Y-122965798D01*
X139454194Y-122988451D01*
X139435580Y-123050727D01*
X139417615Y-123076950D01*
X139352718Y-123152931D01*
X139319603Y-123204619D01*
X139308430Y-123248863D01*
X139307880Y-123264848D01*
X139297145Y-123313085D01*
X139281790Y-123324608D01*
X139256029Y-123349408D01*
X139237338Y-123397765D01*
X139213840Y-123452571D01*
X139190272Y-123470922D01*
X139168692Y-123495967D01*
X139161567Y-123544078D01*
X139152629Y-123599088D01*
X139135476Y-123617235D01*
X139109715Y-123642035D01*
X139091025Y-123690392D01*
X139067527Y-123745198D01*
X139043959Y-123763548D01*
X139023803Y-123788979D01*
X139015256Y-123850252D01*
X139015253Y-123851336D01*
X139006777Y-123912975D01*
X138986355Y-123939118D01*
X138985991Y-123939124D01*
X138963761Y-123964102D01*
X138956728Y-124010191D01*
X138939208Y-124084422D01*
X138912834Y-124125151D01*
X138880977Y-124185216D01*
X138868940Y-124258924D01*
X138860646Y-124321460D01*
X138840596Y-124348758D01*
X138839677Y-124348802D01*
X138821353Y-124374762D01*
X138811161Y-124439615D01*
X138810415Y-124465853D01*
X138803167Y-124547241D01*
X138779140Y-124580779D01*
X138766521Y-124582903D01*
X138740878Y-124596534D01*
X138727199Y-124644781D01*
X138722686Y-124738675D01*
X138722627Y-124756041D01*
X138718337Y-124849928D01*
X138707213Y-124916669D01*
X138694998Y-124938932D01*
X138679754Y-124970949D01*
X138667294Y-125044832D01*
X138660832Y-125134392D01*
X138651014Y-125244777D01*
X138632292Y-125327103D01*
X138615304Y-125359087D01*
X138603329Y-125398877D01*
X138593302Y-125485816D01*
X138585276Y-125610059D01*
X138579301Y-125761759D01*
X138575429Y-125931069D01*
X138573711Y-126108142D01*
X138574197Y-126283132D01*
X138576940Y-126446193D01*
X138581990Y-126587477D01*
X138589399Y-126697139D01*
X138599218Y-126765331D01*
X138607895Y-126783254D01*
X138624306Y-126815321D01*
X138640276Y-126891415D01*
X138653040Y-126997083D01*
X138655970Y-127034425D01*
X138666343Y-127144763D01*
X138679562Y-127228468D01*
X138693270Y-127271899D01*
X138697546Y-127275069D01*
X138711855Y-127301394D01*
X138720936Y-127368700D01*
X138722627Y-127421382D01*
X138727828Y-127504847D01*
X138741128Y-127557823D01*
X138751544Y-127567696D01*
X138773758Y-127593560D01*
X138794178Y-127658202D01*
X138799178Y-127684747D01*
X138816512Y-127757904D01*
X138837127Y-127798729D01*
X138843417Y-127801797D01*
X138860155Y-127827569D01*
X138868669Y-127891096D01*
X138868940Y-127906307D01*
X138880757Y-127989277D01*
X138909536Y-128051118D01*
X138912834Y-128054710D01*
X138947862Y-128118104D01*
X138956728Y-128169671D01*
X138967013Y-128223656D01*
X138985991Y-128240737D01*
X139005573Y-128266404D01*
X139015082Y-128329270D01*
X139015253Y-128340026D01*
X139028134Y-128419951D01*
X139059147Y-128456158D01*
X139095294Y-128495852D01*
X139103041Y-128532446D01*
X139115126Y-128580493D01*
X139132304Y-128591889D01*
X139154652Y-128616833D01*
X139161567Y-128661915D01*
X139177912Y-128722601D01*
X139205461Y-128748785D01*
X139241608Y-128788479D01*
X139249355Y-128825072D01*
X139261440Y-128873120D01*
X139278618Y-128884516D01*
X139302207Y-128909085D01*
X139307880Y-128944439D01*
X139328383Y-129004937D01*
X139378028Y-129069322D01*
X139381037Y-129072161D01*
X139431772Y-129136753D01*
X139454141Y-129200012D01*
X139454194Y-129202445D01*
X139471583Y-129253192D01*
X139498088Y-129264931D01*
X139536883Y-129288355D01*
X139541982Y-129308825D01*
X139557783Y-129347767D01*
X139571244Y-129352719D01*
X139596979Y-129376516D01*
X139600507Y-129398010D01*
X139620606Y-129447739D01*
X139669413Y-129507086D01*
X139673664Y-129511101D01*
X139723181Y-129562483D01*
X139746547Y-129597539D01*
X139746820Y-129599582D01*
X139764121Y-129636429D01*
X139783399Y-129661052D01*
X139849763Y-129737988D01*
X139883421Y-129786253D01*
X139893120Y-129818488D01*
X139893134Y-129819687D01*
X139916816Y-129846736D01*
X139937028Y-129850184D01*
X139975968Y-129866068D01*
X139980922Y-129879602D01*
X140000480Y-129908023D01*
X140053529Y-129968609D01*
X140131634Y-130052767D01*
X140226356Y-130151901D01*
X140329259Y-130257418D01*
X140431907Y-130360723D01*
X140525862Y-130453224D01*
X140602688Y-130526324D01*
X140653947Y-130571431D01*
X140670218Y-130581751D01*
X140709678Y-130604016D01*
X140750786Y-130652957D01*
X140771365Y-130701791D01*
X140771462Y-130704027D01*
X140779187Y-130723974D01*
X140800277Y-130698802D01*
X140823938Y-130674993D01*
X140829091Y-130691486D01*
X140854451Y-130718974D01*
X140902696Y-130728064D01*
X140957706Y-130719127D01*
X140975853Y-130701974D01*
X141000652Y-130676213D01*
X141049009Y-130657523D01*
X141103815Y-130634025D01*
X141122166Y-130610456D01*
X141145876Y-130584987D01*
X141166060Y-130581751D01*
X141205026Y-130567635D01*
X141209954Y-130555661D01*
X141234754Y-130529900D01*
X141283111Y-130511209D01*
X141337917Y-130487711D01*
X141356267Y-130464143D01*
X141380836Y-130440986D01*
X141416070Y-130435438D01*
X141476921Y-130416305D01*
X141546672Y-130369518D01*
X141554768Y-130362281D01*
X141616436Y-130313758D01*
X141665322Y-130289696D01*
X141670542Y-130289124D01*
X141704774Y-130272713D01*
X141707419Y-130263034D01*
X141732219Y-130237273D01*
X141780576Y-130218583D01*
X141835382Y-130195084D01*
X141853733Y-130171516D01*
X141876289Y-130143968D01*
X141885086Y-130142811D01*
X141934727Y-130120645D01*
X141981873Y-130071995D01*
X142000046Y-130027851D01*
X142023714Y-130000047D01*
X142043940Y-129996498D01*
X142079588Y-129971743D01*
X142087834Y-129934012D01*
X142108408Y-129871611D01*
X142158199Y-129806360D01*
X142160991Y-129803727D01*
X142211229Y-129744725D01*
X142234025Y-129693382D01*
X142234147Y-129690637D01*
X142247881Y-129650783D01*
X142260238Y-129645346D01*
X142285999Y-129620546D01*
X142304689Y-129572189D01*
X142328187Y-129517383D01*
X142351756Y-129499032D01*
X142377225Y-129475322D01*
X142380461Y-129455138D01*
X142394577Y-129416172D01*
X142406551Y-129411244D01*
X142432312Y-129386444D01*
X142451003Y-129338088D01*
X142474501Y-129283281D01*
X142498069Y-129264931D01*
X142523539Y-129241221D01*
X142526774Y-129221037D01*
X142542575Y-129182095D01*
X142556037Y-129177143D01*
X142579812Y-129152634D01*
X142585300Y-129118617D01*
X142603597Y-129070955D01*
X142629194Y-129060092D01*
X142667989Y-129036668D01*
X142673088Y-129016198D01*
X142689993Y-128977274D01*
X142704440Y-128972304D01*
X142757623Y-128996279D01*
X142803322Y-129051029D01*
X142819401Y-129103293D01*
X142839557Y-129154551D01*
X142888485Y-129214626D01*
X142892558Y-129218474D01*
X142943292Y-129283066D01*
X142965661Y-129346325D01*
X142965714Y-129348759D01*
X142982008Y-129398354D01*
X143007170Y-129411244D01*
X143055799Y-129433623D01*
X143065695Y-129447823D01*
X143084913Y-129469342D01*
X143099835Y-129447823D01*
X143133469Y-129414035D01*
X143145819Y-129411244D01*
X143190284Y-129393550D01*
X143215522Y-129374666D01*
X143291516Y-129309439D01*
X143341441Y-129276158D01*
X143380498Y-129265272D01*
X143390185Y-129264931D01*
X143440817Y-129244798D01*
X143500595Y-129195920D01*
X143504511Y-129191774D01*
X143569103Y-129141039D01*
X143632362Y-129118670D01*
X143634796Y-129118617D01*
X143684460Y-129107281D01*
X143697281Y-129089912D01*
X143722111Y-129062176D01*
X143770438Y-129042846D01*
X143825218Y-129020253D01*
X143843594Y-128998394D01*
X143866218Y-128973339D01*
X143874947Y-128972304D01*
X143921691Y-128954493D01*
X143947089Y-128935726D01*
X144023083Y-128870499D01*
X144073008Y-128837217D01*
X144112065Y-128826332D01*
X144121752Y-128825991D01*
X144172384Y-128805858D01*
X144232161Y-128756980D01*
X144236078Y-128752834D01*
X144300670Y-128702099D01*
X144363929Y-128679730D01*
X144366363Y-128679677D01*
X144416027Y-128668341D01*
X144428848Y-128650972D01*
X144453677Y-128623236D01*
X144502005Y-128603906D01*
X144556785Y-128581312D01*
X144575161Y-128559454D01*
X144597681Y-128534275D01*
X144605659Y-128533364D01*
X144637495Y-128524484D01*
X144684827Y-128492015D01*
X144760297Y-128427210D01*
X144764294Y-128423629D01*
X144823028Y-128391846D01*
X144851067Y-128387051D01*
X144904661Y-128367610D01*
X144955576Y-128328525D01*
X144966489Y-128316429D01*
X144975953Y-128300818D01*
X144984073Y-128277702D01*
X144990950Y-128243086D01*
X144996689Y-128192979D01*
X145001391Y-128123388D01*
X145005161Y-128030320D01*
X145008101Y-127909782D01*
X145010314Y-127757782D01*
X145011904Y-127570327D01*
X145012973Y-127343424D01*
X145013624Y-127073081D01*
X145013960Y-126755305D01*
X145014085Y-126386104D01*
X145014101Y-126060668D01*
X145014101Y-123851336D01*
X144940945Y-123851336D01*
X144885948Y-123841509D01*
X144867788Y-123822631D01*
X144842963Y-123794874D01*
X144794834Y-123775616D01*
X144746346Y-123753615D01*
X144738035Y-123731164D01*
X144727428Y-123710534D01*
X144693939Y-123705023D01*
X144645455Y-123693309D01*
X144633687Y-123676318D01*
X144608857Y-123648581D01*
X144560530Y-123629252D01*
X144505808Y-123608543D01*
X144487373Y-123590262D01*
X144462937Y-123567338D01*
X144402444Y-123536613D01*
X144384954Y-123529447D01*
X144318435Y-123494079D01*
X144283899Y-123457616D01*
X144282535Y-123450829D01*
X144257427Y-123421668D01*
X144209378Y-123412396D01*
X144154381Y-123402569D01*
X144136221Y-123383691D01*
X144111392Y-123355955D01*
X144063065Y-123336625D01*
X144008284Y-123314031D01*
X143989908Y-123292173D01*
X143966160Y-123269012D01*
X143946014Y-123266083D01*
X143907068Y-123250577D01*
X143902120Y-123237378D01*
X143877290Y-123209641D01*
X143828963Y-123190311D01*
X143774183Y-123167718D01*
X143755806Y-123145860D01*
X143731270Y-123124653D01*
X143697281Y-123119770D01*
X143649730Y-123107515D01*
X143638756Y-123090507D01*
X143615054Y-123064546D01*
X143594862Y-123061244D01*
X143556066Y-123037820D01*
X143550968Y-123017350D01*
X143525530Y-122982047D01*
X143477811Y-122973456D01*
X143422814Y-122963629D01*
X143404654Y-122944751D01*
X143379825Y-122917014D01*
X143331498Y-122897685D01*
X143276718Y-122875091D01*
X143258341Y-122853233D01*
X143234593Y-122830072D01*
X143214447Y-122827143D01*
X143175501Y-122811637D01*
X143170553Y-122798438D01*
X143145724Y-122770701D01*
X143097396Y-122751371D01*
X143042616Y-122728778D01*
X143024240Y-122706920D01*
X142999703Y-122685713D01*
X142965714Y-122680829D01*
X142918163Y-122668575D01*
X142907189Y-122651567D01*
X142883721Y-122625085D01*
X142866426Y-122622304D01*
X142821251Y-122598700D01*
X142808819Y-122578410D01*
X142769125Y-122542263D01*
X142732531Y-122534516D01*
X142684480Y-122522659D01*
X142673088Y-122505811D01*
X142648258Y-122478074D01*
X142599931Y-122458745D01*
X142545151Y-122436151D01*
X142526774Y-122414293D01*
X142503026Y-122391132D01*
X142482880Y-122388203D01*
X142443934Y-122372697D01*
X142438986Y-122359498D01*
X142414157Y-122331761D01*
X142365830Y-122312431D01*
X142311049Y-122289838D01*
X142292673Y-122267980D01*
X142268136Y-122246773D01*
X142234147Y-122241889D01*
X142186597Y-122229635D01*
X142175622Y-122212627D01*
X142151921Y-122186665D01*
X142131728Y-122183364D01*
X142092933Y-122159940D01*
X142087834Y-122139470D01*
X142062396Y-122104167D01*
X142014677Y-122095576D01*
X141959684Y-122085559D01*
X141941521Y-122066313D01*
X141917972Y-122040007D01*
X141899717Y-122037051D01*
X141844753Y-122017785D01*
X141817880Y-121997017D01*
X141757045Y-121955234D01*
X141713370Y-121936520D01*
X141663020Y-121910246D01*
X141648894Y-121888765D01*
X141625163Y-121864544D01*
X141605000Y-121861475D01*
X141566058Y-121845674D01*
X141561106Y-121832212D01*
X141537578Y-121805858D01*
X141519583Y-121802949D01*
X141467916Y-121789622D01*
X141399894Y-121757655D01*
X141336945Y-121719070D01*
X141300495Y-121685890D01*
X141297927Y-121678583D01*
X141273942Y-121659081D01*
X141253848Y-121656636D01*
X141214906Y-121640835D01*
X141209954Y-121627373D01*
X141186405Y-121601066D01*
X141168150Y-121598111D01*
X141111948Y-121579237D01*
X141087678Y-121561191D01*
X141033245Y-121522700D01*
X140965262Y-121487169D01*
X140907207Y-121467148D01*
X140859504Y-121472730D01*
X140859504Y-121472730D01*
G37*
X140859504Y-121472730D02*
X140803743Y-121510190D01*
X140747092Y-121561532D01*
X140695898Y-121593255D01*
X140673450Y-121598111D01*
X140632721Y-121619515D01*
X140584067Y-121670717D01*
X140538957Y-121716698D01*
X140504874Y-121728015D01*
X140503964Y-121727515D01*
X140480177Y-121733768D01*
X140478387Y-121744787D01*
X140456321Y-121795646D01*
X140407692Y-121843347D01*
X140363427Y-121861475D01*
X140333339Y-121882281D01*
X140332074Y-121890403D01*
X140314657Y-121935222D01*
X140275048Y-121984015D01*
X140232204Y-122016812D01*
X140209803Y-122019193D01*
X140187656Y-122026829D01*
X140185760Y-122039184D01*
X140165947Y-122078411D01*
X140115674Y-122138344D01*
X140083341Y-122170628D01*
X140023075Y-122233486D01*
X139986262Y-122283482D01*
X139980922Y-122298450D01*
X139957252Y-122326143D01*
X139937028Y-122329677D01*
X139901281Y-122354074D01*
X139893134Y-122388203D01*
X139880879Y-122435754D01*
X139863871Y-122446728D01*
X139837910Y-122470430D01*
X139834608Y-122490622D01*
X139811185Y-122529418D01*
X139790714Y-122534516D01*
X139751783Y-122550970D01*
X139746820Y-122565014D01*
X139737941Y-122596850D01*
X139705471Y-122644182D01*
X139640666Y-122719651D01*
X139637085Y-122723649D01*
X139605723Y-122773888D01*
X139600507Y-122795790D01*
X139581680Y-122825899D01*
X139574417Y-122827143D01*
X139548767Y-122851971D01*
X139529665Y-122901496D01*
X139506956Y-122950236D01*
X139482598Y-122958295D01*
X139458566Y-122965798D01*
X139454194Y-122988451D01*
X139435580Y-123050727D01*
X139417615Y-123076950D01*
X139352718Y-123152931D01*
X139319603Y-123204619D01*
X139308430Y-123248863D01*
X139307880Y-123264848D01*
X139297145Y-123313085D01*
X139281790Y-123324608D01*
X139256029Y-123349408D01*
X139237338Y-123397765D01*
X139213840Y-123452571D01*
X139190272Y-123470922D01*
X139168692Y-123495967D01*
X139161567Y-123544078D01*
X139152629Y-123599088D01*
X139135476Y-123617235D01*
X139109715Y-123642035D01*
X139091025Y-123690392D01*
X139067527Y-123745198D01*
X139043959Y-123763548D01*
X139023803Y-123788979D01*
X139015256Y-123850252D01*
X139015253Y-123851336D01*
X139006777Y-123912975D01*
X138986355Y-123939118D01*
X138985991Y-123939124D01*
X138963761Y-123964102D01*
X138956728Y-124010191D01*
X138939208Y-124084422D01*
X138912834Y-124125151D01*
X138880977Y-124185216D01*
X138868940Y-124258924D01*
X138860646Y-124321460D01*
X138840596Y-124348758D01*
X138839677Y-124348802D01*
X138821353Y-124374762D01*
X138811161Y-124439615D01*
X138810415Y-124465853D01*
X138803167Y-124547241D01*
X138779140Y-124580779D01*
X138766521Y-124582903D01*
X138740878Y-124596534D01*
X138727199Y-124644781D01*
X138722686Y-124738675D01*
X138722627Y-124756041D01*
X138718337Y-124849928D01*
X138707213Y-124916669D01*
X138694998Y-124938932D01*
X138679754Y-124970949D01*
X138667294Y-125044832D01*
X138660832Y-125134392D01*
X138651014Y-125244777D01*
X138632292Y-125327103D01*
X138615304Y-125359087D01*
X138603329Y-125398877D01*
X138593302Y-125485816D01*
X138585276Y-125610059D01*
X138579301Y-125761759D01*
X138575429Y-125931069D01*
X138573711Y-126108142D01*
X138574197Y-126283132D01*
X138576940Y-126446193D01*
X138581990Y-126587477D01*
X138589399Y-126697139D01*
X138599218Y-126765331D01*
X138607895Y-126783254D01*
X138624306Y-126815321D01*
X138640276Y-126891415D01*
X138653040Y-126997083D01*
X138655970Y-127034425D01*
X138666343Y-127144763D01*
X138679562Y-127228468D01*
X138693270Y-127271899D01*
X138697546Y-127275069D01*
X138711855Y-127301394D01*
X138720936Y-127368700D01*
X138722627Y-127421382D01*
X138727828Y-127504847D01*
X138741128Y-127557823D01*
X138751544Y-127567696D01*
X138773758Y-127593560D01*
X138794178Y-127658202D01*
X138799178Y-127684747D01*
X138816512Y-127757904D01*
X138837127Y-127798729D01*
X138843417Y-127801797D01*
X138860155Y-127827569D01*
X138868669Y-127891096D01*
X138868940Y-127906307D01*
X138880757Y-127989277D01*
X138909536Y-128051118D01*
X138912834Y-128054710D01*
X138947862Y-128118104D01*
X138956728Y-128169671D01*
X138967013Y-128223656D01*
X138985991Y-128240737D01*
X139005573Y-128266404D01*
X139015082Y-128329270D01*
X139015253Y-128340026D01*
X139028134Y-128419951D01*
X139059147Y-128456158D01*
X139095294Y-128495852D01*
X139103041Y-128532446D01*
X139115126Y-128580493D01*
X139132304Y-128591889D01*
X139154652Y-128616833D01*
X139161567Y-128661915D01*
X139177912Y-128722601D01*
X139205461Y-128748785D01*
X139241608Y-128788479D01*
X139249355Y-128825072D01*
X139261440Y-128873120D01*
X139278618Y-128884516D01*
X139302207Y-128909085D01*
X139307880Y-128944439D01*
X139328383Y-129004937D01*
X139378028Y-129069322D01*
X139381037Y-129072161D01*
X139431772Y-129136753D01*
X139454141Y-129200012D01*
X139454194Y-129202445D01*
X139471583Y-129253192D01*
X139498088Y-129264931D01*
X139536883Y-129288355D01*
X139541982Y-129308825D01*
X139557783Y-129347767D01*
X139571244Y-129352719D01*
X139596979Y-129376516D01*
X139600507Y-129398010D01*
X139620606Y-129447739D01*
X139669413Y-129507086D01*
X139673664Y-129511101D01*
X139723181Y-129562483D01*
X139746547Y-129597539D01*
X139746820Y-129599582D01*
X139764121Y-129636429D01*
X139783399Y-129661052D01*
X139849763Y-129737988D01*
X139883421Y-129786253D01*
X139893120Y-129818488D01*
X139893134Y-129819687D01*
X139916816Y-129846736D01*
X139937028Y-129850184D01*
X139975968Y-129866068D01*
X139980922Y-129879602D01*
X140000480Y-129908023D01*
X140053529Y-129968609D01*
X140131634Y-130052767D01*
X140226356Y-130151901D01*
X140329259Y-130257418D01*
X140431907Y-130360723D01*
X140525862Y-130453224D01*
X140602688Y-130526324D01*
X140653947Y-130571431D01*
X140670218Y-130581751D01*
X140709678Y-130604016D01*
X140750786Y-130652957D01*
X140771365Y-130701791D01*
X140771462Y-130704027D01*
X140779187Y-130723974D01*
X140800277Y-130698802D01*
X140823938Y-130674993D01*
X140829091Y-130691486D01*
X140854451Y-130718974D01*
X140902696Y-130728064D01*
X140957706Y-130719127D01*
X140975853Y-130701974D01*
X141000652Y-130676213D01*
X141049009Y-130657523D01*
X141103815Y-130634025D01*
X141122166Y-130610456D01*
X141145876Y-130584987D01*
X141166060Y-130581751D01*
X141205026Y-130567635D01*
X141209954Y-130555661D01*
X141234754Y-130529900D01*
X141283111Y-130511209D01*
X141337917Y-130487711D01*
X141356267Y-130464143D01*
X141380836Y-130440986D01*
X141416070Y-130435438D01*
X141476921Y-130416305D01*
X141546672Y-130369518D01*
X141554768Y-130362281D01*
X141616436Y-130313758D01*
X141665322Y-130289696D01*
X141670542Y-130289124D01*
X141704774Y-130272713D01*
X141707419Y-130263034D01*
X141732219Y-130237273D01*
X141780576Y-130218583D01*
X141835382Y-130195084D01*
X141853733Y-130171516D01*
X141876289Y-130143968D01*
X141885086Y-130142811D01*
X141934727Y-130120645D01*
X141981873Y-130071995D01*
X142000046Y-130027851D01*
X142023714Y-130000047D01*
X142043940Y-129996498D01*
X142079588Y-129971743D01*
X142087834Y-129934012D01*
X142108408Y-129871611D01*
X142158199Y-129806360D01*
X142160991Y-129803727D01*
X142211229Y-129744725D01*
X142234025Y-129693382D01*
X142234147Y-129690637D01*
X142247881Y-129650783D01*
X142260238Y-129645346D01*
X142285999Y-129620546D01*
X142304689Y-129572189D01*
X142328187Y-129517383D01*
X142351756Y-129499032D01*
X142377225Y-129475322D01*
X142380461Y-129455138D01*
X142394577Y-129416172D01*
X142406551Y-129411244D01*
X142432312Y-129386444D01*
X142451003Y-129338088D01*
X142474501Y-129283281D01*
X142498069Y-129264931D01*
X142523539Y-129241221D01*
X142526774Y-129221037D01*
X142542575Y-129182095D01*
X142556037Y-129177143D01*
X142579812Y-129152634D01*
X142585300Y-129118617D01*
X142603597Y-129070955D01*
X142629194Y-129060092D01*
X142667989Y-129036668D01*
X142673088Y-129016198D01*
X142689993Y-128977274D01*
X142704440Y-128972304D01*
X142757623Y-128996279D01*
X142803322Y-129051029D01*
X142819401Y-129103293D01*
X142839557Y-129154551D01*
X142888485Y-129214626D01*
X142892558Y-129218474D01*
X142943292Y-129283066D01*
X142965661Y-129346325D01*
X142965714Y-129348759D01*
X142982008Y-129398354D01*
X143007170Y-129411244D01*
X143055799Y-129433623D01*
X143065695Y-129447823D01*
X143084913Y-129469342D01*
X143099835Y-129447823D01*
X143133469Y-129414035D01*
X143145819Y-129411244D01*
X143190284Y-129393550D01*
X143215522Y-129374666D01*
X143291516Y-129309439D01*
X143341441Y-129276158D01*
X143380498Y-129265272D01*
X143390185Y-129264931D01*
X143440817Y-129244798D01*
X143500595Y-129195920D01*
X143504511Y-129191774D01*
X143569103Y-129141039D01*
X143632362Y-129118670D01*
X143634796Y-129118617D01*
X143684460Y-129107281D01*
X143697281Y-129089912D01*
X143722111Y-129062176D01*
X143770438Y-129042846D01*
X143825218Y-129020253D01*
X143843594Y-128998394D01*
X143866218Y-128973339D01*
X143874947Y-128972304D01*
X143921691Y-128954493D01*
X143947089Y-128935726D01*
X144023083Y-128870499D01*
X144073008Y-128837217D01*
X144112065Y-128826332D01*
X144121752Y-128825991D01*
X144172384Y-128805858D01*
X144232161Y-128756980D01*
X144236078Y-128752834D01*
X144300670Y-128702099D01*
X144363929Y-128679730D01*
X144366363Y-128679677D01*
X144416027Y-128668341D01*
X144428848Y-128650972D01*
X144453677Y-128623236D01*
X144502005Y-128603906D01*
X144556785Y-128581312D01*
X144575161Y-128559454D01*
X144597681Y-128534275D01*
X144605659Y-128533364D01*
X144637495Y-128524484D01*
X144684827Y-128492015D01*
X144760297Y-128427210D01*
X144764294Y-128423629D01*
X144823028Y-128391846D01*
X144851067Y-128387051D01*
X144904661Y-128367610D01*
X144955576Y-128328525D01*
X144966489Y-128316429D01*
X144975953Y-128300818D01*
X144984073Y-128277702D01*
X144990950Y-128243086D01*
X144996689Y-128192979D01*
X145001391Y-128123388D01*
X145005161Y-128030320D01*
X145008101Y-127909782D01*
X145010314Y-127757782D01*
X145011904Y-127570327D01*
X145012973Y-127343424D01*
X145013624Y-127073081D01*
X145013960Y-126755305D01*
X145014085Y-126386104D01*
X145014101Y-126060668D01*
X145014101Y-123851336D01*
X144940945Y-123851336D01*
X144885948Y-123841509D01*
X144867788Y-123822631D01*
X144842963Y-123794874D01*
X144794834Y-123775616D01*
X144746346Y-123753615D01*
X144738035Y-123731164D01*
X144727428Y-123710534D01*
X144693939Y-123705023D01*
X144645455Y-123693309D01*
X144633687Y-123676318D01*
X144608857Y-123648581D01*
X144560530Y-123629252D01*
X144505808Y-123608543D01*
X144487373Y-123590262D01*
X144462937Y-123567338D01*
X144402444Y-123536613D01*
X144384954Y-123529447D01*
X144318435Y-123494079D01*
X144283899Y-123457616D01*
X144282535Y-123450829D01*
X144257427Y-123421668D01*
X144209378Y-123412396D01*
X144154381Y-123402569D01*
X144136221Y-123383691D01*
X144111392Y-123355955D01*
X144063065Y-123336625D01*
X144008284Y-123314031D01*
X143989908Y-123292173D01*
X143966160Y-123269012D01*
X143946014Y-123266083D01*
X143907068Y-123250577D01*
X143902120Y-123237378D01*
X143877290Y-123209641D01*
X143828963Y-123190311D01*
X143774183Y-123167718D01*
X143755806Y-123145860D01*
X143731270Y-123124653D01*
X143697281Y-123119770D01*
X143649730Y-123107515D01*
X143638756Y-123090507D01*
X143615054Y-123064546D01*
X143594862Y-123061244D01*
X143556066Y-123037820D01*
X143550968Y-123017350D01*
X143525530Y-122982047D01*
X143477811Y-122973456D01*
X143422814Y-122963629D01*
X143404654Y-122944751D01*
X143379825Y-122917014D01*
X143331498Y-122897685D01*
X143276718Y-122875091D01*
X143258341Y-122853233D01*
X143234593Y-122830072D01*
X143214447Y-122827143D01*
X143175501Y-122811637D01*
X143170553Y-122798438D01*
X143145724Y-122770701D01*
X143097396Y-122751371D01*
X143042616Y-122728778D01*
X143024240Y-122706920D01*
X142999703Y-122685713D01*
X142965714Y-122680829D01*
X142918163Y-122668575D01*
X142907189Y-122651567D01*
X142883721Y-122625085D01*
X142866426Y-122622304D01*
X142821251Y-122598700D01*
X142808819Y-122578410D01*
X142769125Y-122542263D01*
X142732531Y-122534516D01*
X142684480Y-122522659D01*
X142673088Y-122505811D01*
X142648258Y-122478074D01*
X142599931Y-122458745D01*
X142545151Y-122436151D01*
X142526774Y-122414293D01*
X142503026Y-122391132D01*
X142482880Y-122388203D01*
X142443934Y-122372697D01*
X142438986Y-122359498D01*
X142414157Y-122331761D01*
X142365830Y-122312431D01*
X142311049Y-122289838D01*
X142292673Y-122267980D01*
X142268136Y-122246773D01*
X142234147Y-122241889D01*
X142186597Y-122229635D01*
X142175622Y-122212627D01*
X142151921Y-122186665D01*
X142131728Y-122183364D01*
X142092933Y-122159940D01*
X142087834Y-122139470D01*
X142062396Y-122104167D01*
X142014677Y-122095576D01*
X141959684Y-122085559D01*
X141941521Y-122066313D01*
X141917972Y-122040007D01*
X141899717Y-122037051D01*
X141844753Y-122017785D01*
X141817880Y-121997017D01*
X141757045Y-121955234D01*
X141713370Y-121936520D01*
X141663020Y-121910246D01*
X141648894Y-121888765D01*
X141625163Y-121864544D01*
X141605000Y-121861475D01*
X141566058Y-121845674D01*
X141561106Y-121832212D01*
X141537578Y-121805858D01*
X141519583Y-121802949D01*
X141467916Y-121789622D01*
X141399894Y-121757655D01*
X141336945Y-121719070D01*
X141300495Y-121685890D01*
X141297927Y-121678583D01*
X141273942Y-121659081D01*
X141253848Y-121656636D01*
X141214906Y-121640835D01*
X141209954Y-121627373D01*
X141186405Y-121601066D01*
X141168150Y-121598111D01*
X141111948Y-121579237D01*
X141087678Y-121561191D01*
X141033245Y-121522700D01*
X140965262Y-121487169D01*
X140907207Y-121467148D01*
X140859504Y-121472730D01*
G36*
X149550666Y-130077291D02*
X149549816Y-130084286D01*
X149572084Y-130112698D01*
X149579078Y-130113548D01*
X149607491Y-130091280D01*
X149608341Y-130084286D01*
X149586073Y-130055873D01*
X149579078Y-130055023D01*
X149550666Y-130077291D01*
X149550666Y-130077291D01*
G37*
X149550666Y-130077291D02*
X149549816Y-130084286D01*
X149572084Y-130112698D01*
X149579078Y-130113548D01*
X149607491Y-130091280D01*
X149608341Y-130084286D01*
X149586073Y-130055873D01*
X149579078Y-130055023D01*
X149550666Y-130077291D01*
G36*
X149608341Y-130011129D02*
X149622972Y-130025760D01*
X149637604Y-130011129D01*
X149622972Y-129996498D01*
X149608341Y-130011129D01*
X149608341Y-130011129D01*
G37*
X149608341Y-130011129D02*
X149622972Y-130025760D01*
X149637604Y-130011129D01*
X149622972Y-129996498D01*
X149608341Y-130011129D01*
G36*
X149696979Y-129872452D02*
X149696129Y-129879447D01*
X149718397Y-129907859D01*
X149725392Y-129908710D01*
X149753804Y-129886441D01*
X149754654Y-129879447D01*
X149732386Y-129851035D01*
X149725392Y-129850184D01*
X149696979Y-129872452D01*
X149696979Y-129872452D01*
G37*
X149696979Y-129872452D02*
X149696129Y-129879447D01*
X149718397Y-129907859D01*
X149725392Y-129908710D01*
X149753804Y-129886441D01*
X149754654Y-129879447D01*
X149732386Y-129851035D01*
X149725392Y-129850184D01*
X149696979Y-129872452D01*
G36*
X149871705Y-129689240D02*
X149886336Y-129703871D01*
X149900968Y-129689240D01*
X149886336Y-129674608D01*
X149871705Y-129689240D01*
X149871705Y-129689240D01*
G37*
X149871705Y-129689240D02*
X149886336Y-129703871D01*
X149900968Y-129689240D01*
X149886336Y-129674608D01*
X149871705Y-129689240D01*
G36*
X149842442Y-129630714D02*
X149857074Y-129645346D01*
X149871705Y-129630714D01*
X149857074Y-129616083D01*
X149842442Y-129630714D01*
X149842442Y-129630714D01*
G37*
X149842442Y-129630714D02*
X149857074Y-129645346D01*
X149871705Y-129630714D01*
X149857074Y-129616083D01*
X149842442Y-129630714D01*
G36*
X150057035Y-129274685D02*
X150053533Y-129309413D01*
X150057035Y-129313702D01*
X150074432Y-129309685D01*
X150076544Y-129294194D01*
X150065837Y-129270107D01*
X150057035Y-129274685D01*
X150057035Y-129274685D01*
G37*
X150057035Y-129274685D02*
X150053533Y-129309413D01*
X150057035Y-129313702D01*
X150074432Y-129309685D01*
X150076544Y-129294194D01*
X150065837Y-129270107D01*
X150057035Y-129274685D01*
G36*
X150144823Y-129128372D02*
X150148840Y-129145768D01*
X150164332Y-129147880D01*
X150188418Y-129137173D01*
X150183840Y-129128372D01*
X150149112Y-129124870D01*
X150144823Y-129128372D01*
X150144823Y-129128372D01*
G37*
X150144823Y-129128372D02*
X150148840Y-129145768D01*
X150164332Y-129147880D01*
X150188418Y-129137173D01*
X150183840Y-129128372D01*
X150149112Y-129124870D01*
X150144823Y-129128372D01*
G36*
X149383994Y-128923533D02*
X149380492Y-128958261D01*
X149383994Y-128962550D01*
X149401391Y-128958533D01*
X149403502Y-128943041D01*
X149392796Y-128918955D01*
X149383994Y-128923533D01*
X149383994Y-128923533D01*
G37*
X149383994Y-128923533D02*
X149380492Y-128958261D01*
X149383994Y-128962550D01*
X149401391Y-128958533D01*
X149403502Y-128943041D01*
X149392796Y-128918955D01*
X149383994Y-128923533D01*
G36*
X150349662Y-128689432D02*
X150346160Y-128724160D01*
X150349662Y-128728449D01*
X150367059Y-128724432D01*
X150369171Y-128708940D01*
X150358464Y-128684854D01*
X150349662Y-128689432D01*
X150349662Y-128689432D01*
G37*
X150349662Y-128689432D02*
X150346160Y-128724160D01*
X150349662Y-128728449D01*
X150367059Y-128724432D01*
X150369171Y-128708940D01*
X150358464Y-128684854D01*
X150349662Y-128689432D01*
G36*
X150437755Y-128492766D02*
X150442327Y-128504101D01*
X150468623Y-128532017D01*
X150473317Y-128533364D01*
X150485886Y-128510724D01*
X150486221Y-128504101D01*
X150463725Y-128475963D01*
X150455232Y-128474839D01*
X150437755Y-128492766D01*
X150437755Y-128492766D01*
G37*
X150437755Y-128492766D02*
X150442327Y-128504101D01*
X150468623Y-128532017D01*
X150473317Y-128533364D01*
X150485886Y-128510724D01*
X150486221Y-128504101D01*
X150463725Y-128475963D01*
X150455232Y-128474839D01*
X150437755Y-128492766D01*
G36*
X144224095Y-120306435D02*
X144105749Y-120310824D01*
X143968562Y-120318221D01*
X143824338Y-120327744D01*
X143684880Y-120338512D01*
X143561992Y-120349646D01*
X143467477Y-120360263D01*
X143413139Y-120369484D01*
X143404654Y-120373634D01*
X143378406Y-120388074D01*
X143311630Y-120397064D01*
X143265657Y-120398521D01*
X143161589Y-120408063D01*
X143067456Y-120431762D01*
X143042842Y-120442415D01*
X142955335Y-120472138D01*
X142854408Y-120485997D01*
X142845319Y-120486129D01*
X142771651Y-120493638D01*
X142733482Y-120512687D01*
X142731613Y-120518805D01*
X142711809Y-120538576D01*
X142649683Y-120527570D01*
X142577984Y-120500950D01*
X142536395Y-120497623D01*
X142526774Y-120530721D01*
X142516770Y-120563077D01*
X142476710Y-120571905D01*
X142417039Y-120565872D01*
X142307304Y-120550169D01*
X142482880Y-120629803D01*
X142387777Y-120631123D01*
X142323014Y-120639026D01*
X142292938Y-120656501D01*
X142292673Y-120658448D01*
X142267105Y-120680389D01*
X142204183Y-120700814D01*
X142190253Y-120703668D01*
X142122720Y-120723315D01*
X142088779Y-120746853D01*
X142087834Y-120750819D01*
X142062784Y-120771822D01*
X142014677Y-120778756D01*
X141959673Y-120788081D01*
X141941521Y-120805983D01*
X141916719Y-120831176D01*
X141877972Y-120842562D01*
X141826581Y-120862835D01*
X141801326Y-120894199D01*
X141810709Y-120919674D01*
X141836663Y-120925069D01*
X141877145Y-120940142D01*
X141882995Y-120954332D01*
X141907361Y-120978539D01*
X141938390Y-120983594D01*
X141993276Y-121004851D01*
X142011340Y-121029343D01*
X142040335Y-121059601D01*
X142058365Y-121056879D01*
X142083588Y-121063393D01*
X142087834Y-121084287D01*
X142113046Y-121121356D01*
X142160991Y-121129908D01*
X142215987Y-121139735D01*
X142234147Y-121158613D01*
X142258977Y-121186350D01*
X142307304Y-121205679D01*
X142362084Y-121228273D01*
X142380461Y-121250131D01*
X142404209Y-121273292D01*
X142424355Y-121276221D01*
X142463301Y-121291727D01*
X142468249Y-121304926D01*
X142493078Y-121332663D01*
X142541406Y-121351993D01*
X142596186Y-121374586D01*
X142614562Y-121396444D01*
X142638959Y-121418037D01*
X142669957Y-121422535D01*
X142724480Y-121442902D01*
X142742195Y-121466429D01*
X142782269Y-121505370D01*
X142805578Y-121510323D01*
X142836572Y-121524281D01*
X142834032Y-121539585D01*
X142844392Y-121561284D01*
X142890831Y-121568848D01*
X142946648Y-121578468D01*
X142965714Y-121597553D01*
X142990544Y-121625290D01*
X143038871Y-121644619D01*
X143093651Y-121667213D01*
X143112028Y-121689071D01*
X143135776Y-121712232D01*
X143155922Y-121715161D01*
X143194849Y-121731875D01*
X143199816Y-121746151D01*
X143217743Y-121763628D01*
X143229078Y-121759055D01*
X143256043Y-121761375D01*
X143258341Y-121771960D01*
X143282015Y-121799443D01*
X143302235Y-121802949D01*
X143341177Y-121818750D01*
X143346129Y-121832212D01*
X143370678Y-121855864D01*
X143405573Y-121861475D01*
X143461811Y-121880468D01*
X143481796Y-121905201D01*
X143508226Y-121935662D01*
X143522412Y-121934194D01*
X143559340Y-121940213D01*
X143590412Y-121963625D01*
X143639896Y-121999743D01*
X143665928Y-122007788D01*
X143696017Y-122028439D01*
X143697281Y-122036493D01*
X143722111Y-122064230D01*
X143770438Y-122083559D01*
X143825185Y-122105057D01*
X143843594Y-122124839D01*
X143868357Y-122148204D01*
X143916751Y-122166118D01*
X143971557Y-122189616D01*
X143989908Y-122213184D01*
X144013618Y-122238654D01*
X144033802Y-122241889D01*
X144072744Y-122257690D01*
X144077696Y-122271152D01*
X144102244Y-122294805D01*
X144137140Y-122300415D01*
X144193409Y-122319483D01*
X144213427Y-122344309D01*
X144253333Y-122381319D01*
X144285665Y-122388203D01*
X144331490Y-122401074D01*
X144341060Y-122417465D01*
X144364761Y-122443427D01*
X144384954Y-122446728D01*
X144423900Y-122462234D01*
X144428848Y-122475433D01*
X144453677Y-122503170D01*
X144502005Y-122522500D01*
X144556785Y-122545093D01*
X144575161Y-122566951D01*
X144599737Y-122588048D01*
X144634605Y-122593041D01*
X144690874Y-122612110D01*
X144710893Y-122636935D01*
X144747737Y-122675826D01*
X144768499Y-122680829D01*
X144805388Y-122697677D01*
X144809263Y-122710092D01*
X144833811Y-122733745D01*
X144868706Y-122739355D01*
X144924976Y-122758423D01*
X144944994Y-122783249D01*
X144970888Y-122827137D01*
X144991960Y-122816345D01*
X145006734Y-122754625D01*
X145013735Y-122645726D01*
X145014101Y-122607673D01*
X145014101Y-122388203D01*
X146769862Y-122388203D01*
X146769862Y-125607097D01*
X149991626Y-125607097D01*
X149986584Y-125314470D01*
X149981259Y-125165222D01*
X149971057Y-125070449D01*
X149955449Y-125026262D01*
X149946723Y-125021843D01*
X149923140Y-124994609D01*
X149907800Y-124920634D01*
X149904866Y-124882846D01*
X149895423Y-124799366D01*
X149879402Y-124744620D01*
X149870135Y-124734094D01*
X149853485Y-124701664D01*
X149843612Y-124631109D01*
X149842442Y-124593006D01*
X149832062Y-124493663D01*
X149804741Y-124425025D01*
X149798548Y-124417778D01*
X149763521Y-124354385D01*
X149754654Y-124302818D01*
X149744370Y-124248832D01*
X149725392Y-124231751D01*
X149707067Y-124205791D01*
X149696875Y-124140938D01*
X149696129Y-124114700D01*
X149688881Y-124033312D01*
X149664854Y-123999774D01*
X149652235Y-123997650D01*
X149616932Y-123972212D01*
X149608341Y-123924493D01*
X149598324Y-123869499D01*
X149579078Y-123851336D01*
X149559496Y-123825670D01*
X149549987Y-123762803D01*
X149549816Y-123752048D01*
X149536935Y-123672123D01*
X149505922Y-123635916D01*
X149469775Y-123596221D01*
X149462028Y-123559628D01*
X149449943Y-123511581D01*
X149432765Y-123500184D01*
X149410418Y-123475241D01*
X149403502Y-123430158D01*
X149387158Y-123369472D01*
X149359608Y-123343289D01*
X149323462Y-123303595D01*
X149315714Y-123267001D01*
X149303630Y-123218954D01*
X149286452Y-123207558D01*
X149260490Y-123183856D01*
X149257189Y-123163664D01*
X149241683Y-123124717D01*
X149228484Y-123119770D01*
X149200747Y-123094940D01*
X149181417Y-123046613D01*
X149158824Y-122991833D01*
X149136966Y-122973456D01*
X149111911Y-122950832D01*
X149110876Y-122942103D01*
X149093064Y-122895360D01*
X149074297Y-122869962D01*
X149007469Y-122792540D01*
X148973698Y-122744479D01*
X148964562Y-122714458D01*
X148941244Y-122681357D01*
X148920668Y-122670247D01*
X148884875Y-122630642D01*
X148876774Y-122592233D01*
X148865653Y-122551196D01*
X148847512Y-122549147D01*
X148820582Y-122546041D01*
X148818249Y-122534846D01*
X148798505Y-122494474D01*
X148750435Y-122439698D01*
X148745092Y-122434660D01*
X148695646Y-122384003D01*
X148672227Y-122350504D01*
X148671936Y-122348603D01*
X148653694Y-122309152D01*
X148612762Y-122263950D01*
X148569829Y-122232985D01*
X148549665Y-122230484D01*
X148530220Y-122219275D01*
X148525622Y-122189190D01*
X148503635Y-122132642D01*
X148452465Y-122078098D01*
X148400822Y-122028474D01*
X148379309Y-121986247D01*
X148379309Y-121986211D01*
X148359711Y-121951973D01*
X148347956Y-121949263D01*
X148298315Y-121927097D01*
X148251169Y-121878447D01*
X148232995Y-121834302D01*
X148210514Y-121804235D01*
X148201643Y-121802949D01*
X148154899Y-121785138D01*
X148129501Y-121766371D01*
X148052565Y-121700007D01*
X148004300Y-121666349D01*
X147972065Y-121656649D01*
X147970866Y-121656636D01*
X147943817Y-121632954D01*
X147940369Y-121612742D01*
X147923864Y-121573811D01*
X147909776Y-121568848D01*
X147870202Y-121549806D01*
X147813707Y-121503210D01*
X147806026Y-121495691D01*
X147745308Y-121446239D01*
X147694388Y-121422824D01*
X147690306Y-121422535D01*
X147652225Y-121406305D01*
X147647742Y-121393272D01*
X147625201Y-121365193D01*
X147616389Y-121364009D01*
X147569646Y-121346198D01*
X147544248Y-121327431D01*
X147467311Y-121261067D01*
X147419047Y-121227408D01*
X147386811Y-121217709D01*
X147385613Y-121217696D01*
X147356200Y-121196566D01*
X147355115Y-121188991D01*
X147330286Y-121161254D01*
X147281959Y-121141924D01*
X147227178Y-121119331D01*
X147208802Y-121097473D01*
X147185054Y-121074312D01*
X147164908Y-121071382D01*
X147125962Y-121055877D01*
X147121014Y-121042677D01*
X147096184Y-121014941D01*
X147047857Y-120995611D01*
X146993077Y-120973018D01*
X146974700Y-120951159D01*
X146949640Y-120931541D01*
X146901544Y-120925069D01*
X146846547Y-120915242D01*
X146828387Y-120896364D01*
X146803558Y-120868627D01*
X146755230Y-120849298D01*
X146700450Y-120826704D01*
X146682074Y-120804846D01*
X146657077Y-120785020D01*
X146611007Y-120778756D01*
X146536776Y-120761236D01*
X146496047Y-120734862D01*
X146431497Y-120698038D01*
X146391537Y-120690968D01*
X146342863Y-120679093D01*
X146330922Y-120661705D01*
X146305197Y-120642363D01*
X146241943Y-120632695D01*
X146228502Y-120632442D01*
X146160805Y-120625179D01*
X146126967Y-120607319D01*
X146126083Y-120603526D01*
X146100218Y-120581311D01*
X146035576Y-120560891D01*
X146009032Y-120555891D01*
X145935874Y-120538557D01*
X145895050Y-120517942D01*
X145891982Y-120511652D01*
X145865683Y-120496987D01*
X145798552Y-120487758D01*
X145748107Y-120486129D01*
X145657354Y-120479541D01*
X145601931Y-120462112D01*
X145592797Y-120451826D01*
X145559422Y-120431494D01*
X145483653Y-120413975D01*
X145400152Y-120404414D01*
X145305911Y-120394448D01*
X145240380Y-120381499D01*
X145218940Y-120369859D01*
X145191433Y-120362175D01*
X145115840Y-120352884D01*
X145002555Y-120342716D01*
X144861971Y-120332406D01*
X144704479Y-120322684D01*
X144540475Y-120314285D01*
X144380350Y-120307939D01*
X144311797Y-120305935D01*
X144224095Y-120306435D01*
X144224095Y-120306435D01*
G37*
X144224095Y-120306435D02*
X144105749Y-120310824D01*
X143968562Y-120318221D01*
X143824338Y-120327744D01*
X143684880Y-120338512D01*
X143561992Y-120349646D01*
X143467477Y-120360263D01*
X143413139Y-120369484D01*
X143404654Y-120373634D01*
X143378406Y-120388074D01*
X143311630Y-120397064D01*
X143265657Y-120398521D01*
X143161589Y-120408063D01*
X143067456Y-120431762D01*
X143042842Y-120442415D01*
X142955335Y-120472138D01*
X142854408Y-120485997D01*
X142845319Y-120486129D01*
X142771651Y-120493638D01*
X142733482Y-120512687D01*
X142731613Y-120518805D01*
X142711809Y-120538576D01*
X142649683Y-120527570D01*
X142577984Y-120500950D01*
X142536395Y-120497623D01*
X142526774Y-120530721D01*
X142516770Y-120563077D01*
X142476710Y-120571905D01*
X142417039Y-120565872D01*
X142307304Y-120550169D01*
X142482880Y-120629803D01*
X142387777Y-120631123D01*
X142323014Y-120639026D01*
X142292938Y-120656501D01*
X142292673Y-120658448D01*
X142267105Y-120680389D01*
X142204183Y-120700814D01*
X142190253Y-120703668D01*
X142122720Y-120723315D01*
X142088779Y-120746853D01*
X142087834Y-120750819D01*
X142062784Y-120771822D01*
X142014677Y-120778756D01*
X141959673Y-120788081D01*
X141941521Y-120805983D01*
X141916719Y-120831176D01*
X141877972Y-120842562D01*
X141826581Y-120862835D01*
X141801326Y-120894199D01*
X141810709Y-120919674D01*
X141836663Y-120925069D01*
X141877145Y-120940142D01*
X141882995Y-120954332D01*
X141907361Y-120978539D01*
X141938390Y-120983594D01*
X141993276Y-121004851D01*
X142011340Y-121029343D01*
X142040335Y-121059601D01*
X142058365Y-121056879D01*
X142083588Y-121063393D01*
X142087834Y-121084287D01*
X142113046Y-121121356D01*
X142160991Y-121129908D01*
X142215987Y-121139735D01*
X142234147Y-121158613D01*
X142258977Y-121186350D01*
X142307304Y-121205679D01*
X142362084Y-121228273D01*
X142380461Y-121250131D01*
X142404209Y-121273292D01*
X142424355Y-121276221D01*
X142463301Y-121291727D01*
X142468249Y-121304926D01*
X142493078Y-121332663D01*
X142541406Y-121351993D01*
X142596186Y-121374586D01*
X142614562Y-121396444D01*
X142638959Y-121418037D01*
X142669957Y-121422535D01*
X142724480Y-121442902D01*
X142742195Y-121466429D01*
X142782269Y-121505370D01*
X142805578Y-121510323D01*
X142836572Y-121524281D01*
X142834032Y-121539585D01*
X142844392Y-121561284D01*
X142890831Y-121568848D01*
X142946648Y-121578468D01*
X142965714Y-121597553D01*
X142990544Y-121625290D01*
X143038871Y-121644619D01*
X143093651Y-121667213D01*
X143112028Y-121689071D01*
X143135776Y-121712232D01*
X143155922Y-121715161D01*
X143194849Y-121731875D01*
X143199816Y-121746151D01*
X143217743Y-121763628D01*
X143229078Y-121759055D01*
X143256043Y-121761375D01*
X143258341Y-121771960D01*
X143282015Y-121799443D01*
X143302235Y-121802949D01*
X143341177Y-121818750D01*
X143346129Y-121832212D01*
X143370678Y-121855864D01*
X143405573Y-121861475D01*
X143461811Y-121880468D01*
X143481796Y-121905201D01*
X143508226Y-121935662D01*
X143522412Y-121934194D01*
X143559340Y-121940213D01*
X143590412Y-121963625D01*
X143639896Y-121999743D01*
X143665928Y-122007788D01*
X143696017Y-122028439D01*
X143697281Y-122036493D01*
X143722111Y-122064230D01*
X143770438Y-122083559D01*
X143825185Y-122105057D01*
X143843594Y-122124839D01*
X143868357Y-122148204D01*
X143916751Y-122166118D01*
X143971557Y-122189616D01*
X143989908Y-122213184D01*
X144013618Y-122238654D01*
X144033802Y-122241889D01*
X144072744Y-122257690D01*
X144077696Y-122271152D01*
X144102244Y-122294805D01*
X144137140Y-122300415D01*
X144193409Y-122319483D01*
X144213427Y-122344309D01*
X144253333Y-122381319D01*
X144285665Y-122388203D01*
X144331490Y-122401074D01*
X144341060Y-122417465D01*
X144364761Y-122443427D01*
X144384954Y-122446728D01*
X144423900Y-122462234D01*
X144428848Y-122475433D01*
X144453677Y-122503170D01*
X144502005Y-122522500D01*
X144556785Y-122545093D01*
X144575161Y-122566951D01*
X144599737Y-122588048D01*
X144634605Y-122593041D01*
X144690874Y-122612110D01*
X144710893Y-122636935D01*
X144747737Y-122675826D01*
X144768499Y-122680829D01*
X144805388Y-122697677D01*
X144809263Y-122710092D01*
X144833811Y-122733745D01*
X144868706Y-122739355D01*
X144924976Y-122758423D01*
X144944994Y-122783249D01*
X144970888Y-122827137D01*
X144991960Y-122816345D01*
X145006734Y-122754625D01*
X145013735Y-122645726D01*
X145014101Y-122607673D01*
X145014101Y-122388203D01*
X146769862Y-122388203D01*
X146769862Y-125607097D01*
X149991626Y-125607097D01*
X149986584Y-125314470D01*
X149981259Y-125165222D01*
X149971057Y-125070449D01*
X149955449Y-125026262D01*
X149946723Y-125021843D01*
X149923140Y-124994609D01*
X149907800Y-124920634D01*
X149904866Y-124882846D01*
X149895423Y-124799366D01*
X149879402Y-124744620D01*
X149870135Y-124734094D01*
X149853485Y-124701664D01*
X149843612Y-124631109D01*
X149842442Y-124593006D01*
X149832062Y-124493663D01*
X149804741Y-124425025D01*
X149798548Y-124417778D01*
X149763521Y-124354385D01*
X149754654Y-124302818D01*
X149744370Y-124248832D01*
X149725392Y-124231751D01*
X149707067Y-124205791D01*
X149696875Y-124140938D01*
X149696129Y-124114700D01*
X149688881Y-124033312D01*
X149664854Y-123999774D01*
X149652235Y-123997650D01*
X149616932Y-123972212D01*
X149608341Y-123924493D01*
X149598324Y-123869499D01*
X149579078Y-123851336D01*
X149559496Y-123825670D01*
X149549987Y-123762803D01*
X149549816Y-123752048D01*
X149536935Y-123672123D01*
X149505922Y-123635916D01*
X149469775Y-123596221D01*
X149462028Y-123559628D01*
X149449943Y-123511581D01*
X149432765Y-123500184D01*
X149410418Y-123475241D01*
X149403502Y-123430158D01*
X149387158Y-123369472D01*
X149359608Y-123343289D01*
X149323462Y-123303595D01*
X149315714Y-123267001D01*
X149303630Y-123218954D01*
X149286452Y-123207558D01*
X149260490Y-123183856D01*
X149257189Y-123163664D01*
X149241683Y-123124717D01*
X149228484Y-123119770D01*
X149200747Y-123094940D01*
X149181417Y-123046613D01*
X149158824Y-122991833D01*
X149136966Y-122973456D01*
X149111911Y-122950832D01*
X149110876Y-122942103D01*
X149093064Y-122895360D01*
X149074297Y-122869962D01*
X149007469Y-122792540D01*
X148973698Y-122744479D01*
X148964562Y-122714458D01*
X148941244Y-122681357D01*
X148920668Y-122670247D01*
X148884875Y-122630642D01*
X148876774Y-122592233D01*
X148865653Y-122551196D01*
X148847512Y-122549147D01*
X148820582Y-122546041D01*
X148818249Y-122534846D01*
X148798505Y-122494474D01*
X148750435Y-122439698D01*
X148745092Y-122434660D01*
X148695646Y-122384003D01*
X148672227Y-122350504D01*
X148671936Y-122348603D01*
X148653694Y-122309152D01*
X148612762Y-122263950D01*
X148569829Y-122232985D01*
X148549665Y-122230484D01*
X148530220Y-122219275D01*
X148525622Y-122189190D01*
X148503635Y-122132642D01*
X148452465Y-122078098D01*
X148400822Y-122028474D01*
X148379309Y-121986247D01*
X148379309Y-121986211D01*
X148359711Y-121951973D01*
X148347956Y-121949263D01*
X148298315Y-121927097D01*
X148251169Y-121878447D01*
X148232995Y-121834302D01*
X148210514Y-121804235D01*
X148201643Y-121802949D01*
X148154899Y-121785138D01*
X148129501Y-121766371D01*
X148052565Y-121700007D01*
X148004300Y-121666349D01*
X147972065Y-121656649D01*
X147970866Y-121656636D01*
X147943817Y-121632954D01*
X147940369Y-121612742D01*
X147923864Y-121573811D01*
X147909776Y-121568848D01*
X147870202Y-121549806D01*
X147813707Y-121503210D01*
X147806026Y-121495691D01*
X147745308Y-121446239D01*
X147694388Y-121422824D01*
X147690306Y-121422535D01*
X147652225Y-121406305D01*
X147647742Y-121393272D01*
X147625201Y-121365193D01*
X147616389Y-121364009D01*
X147569646Y-121346198D01*
X147544248Y-121327431D01*
X147467311Y-121261067D01*
X147419047Y-121227408D01*
X147386811Y-121217709D01*
X147385613Y-121217696D01*
X147356200Y-121196566D01*
X147355115Y-121188991D01*
X147330286Y-121161254D01*
X147281959Y-121141924D01*
X147227178Y-121119331D01*
X147208802Y-121097473D01*
X147185054Y-121074312D01*
X147164908Y-121071382D01*
X147125962Y-121055877D01*
X147121014Y-121042677D01*
X147096184Y-121014941D01*
X147047857Y-120995611D01*
X146993077Y-120973018D01*
X146974700Y-120951159D01*
X146949640Y-120931541D01*
X146901544Y-120925069D01*
X146846547Y-120915242D01*
X146828387Y-120896364D01*
X146803558Y-120868627D01*
X146755230Y-120849298D01*
X146700450Y-120826704D01*
X146682074Y-120804846D01*
X146657077Y-120785020D01*
X146611007Y-120778756D01*
X146536776Y-120761236D01*
X146496047Y-120734862D01*
X146431497Y-120698038D01*
X146391537Y-120690968D01*
X146342863Y-120679093D01*
X146330922Y-120661705D01*
X146305197Y-120642363D01*
X146241943Y-120632695D01*
X146228502Y-120632442D01*
X146160805Y-120625179D01*
X146126967Y-120607319D01*
X146126083Y-120603526D01*
X146100218Y-120581311D01*
X146035576Y-120560891D01*
X146009032Y-120555891D01*
X145935874Y-120538557D01*
X145895050Y-120517942D01*
X145891982Y-120511652D01*
X145865683Y-120496987D01*
X145798552Y-120487758D01*
X145748107Y-120486129D01*
X145657354Y-120479541D01*
X145601931Y-120462112D01*
X145592797Y-120451826D01*
X145559422Y-120431494D01*
X145483653Y-120413975D01*
X145400152Y-120404414D01*
X145305911Y-120394448D01*
X145240380Y-120381499D01*
X145218940Y-120369859D01*
X145191433Y-120362175D01*
X145115840Y-120352884D01*
X145002555Y-120342716D01*
X144861971Y-120332406D01*
X144704479Y-120322684D01*
X144540475Y-120314285D01*
X144380350Y-120307939D01*
X144311797Y-120305935D01*
X144224095Y-120306435D01*
G36*
X161927032Y-145426989D02*
X161920934Y-145940611D01*
X161913483Y-146369656D01*
X161904523Y-146718352D01*
X161893895Y-146990925D01*
X161881445Y-147191603D01*
X161867014Y-147324612D01*
X161854407Y-147383719D01*
X161738955Y-147603000D01*
X161557206Y-147785212D01*
X161326378Y-147923496D01*
X161063691Y-148010994D01*
X160786363Y-148040847D01*
X160511611Y-148006199D01*
X160390797Y-147966698D01*
X160212551Y-147860356D01*
X160037092Y-147697087D01*
X159890997Y-147505532D01*
X159809043Y-147339826D01*
X159792498Y-147267518D01*
X159778261Y-147148342D01*
X159766062Y-146975767D01*
X159755634Y-146743264D01*
X159746710Y-146444301D01*
X159739020Y-146072347D01*
X159732299Y-145620872D01*
X159729687Y-145404787D01*
X159709532Y-143639664D01*
X159229580Y-143639664D01*
X159230460Y-145249367D01*
X159231823Y-145747988D01*
X159235810Y-146167022D01*
X159243153Y-146515671D01*
X159254585Y-146803138D01*
X159270838Y-147038627D01*
X159292646Y-147231342D01*
X159320740Y-147390485D01*
X159355854Y-147525259D01*
X159398721Y-147644868D01*
X159426222Y-147708298D01*
X159589267Y-147975206D01*
X159808319Y-148203619D01*
X160064439Y-148378613D01*
X160338687Y-148485263D01*
X160435558Y-148503697D01*
X160577252Y-148523069D01*
X160693980Y-148539254D01*
X160717168Y-148542529D01*
X160806885Y-148543805D01*
X160950660Y-148534374D01*
X161090149Y-148519494D01*
X161449541Y-148432759D01*
X161769276Y-148270495D01*
X162038883Y-148038043D01*
X162043145Y-148033324D01*
X162124533Y-147941656D01*
X162192438Y-147857805D01*
X162248162Y-147772989D01*
X162293007Y-147678427D01*
X162328274Y-147565337D01*
X162355265Y-147424935D01*
X162375283Y-147248442D01*
X162389628Y-147027075D01*
X162399603Y-146752051D01*
X162406509Y-146414589D01*
X162411649Y-146005908D01*
X162416324Y-145517224D01*
X162416337Y-145515801D01*
X162433546Y-143639664D01*
X161944588Y-143639664D01*
X161927032Y-145426989D01*
X161927032Y-145426989D01*
G37*
X161927032Y-145426989D02*
X161920934Y-145940611D01*
X161913483Y-146369656D01*
X161904523Y-146718352D01*
X161893895Y-146990925D01*
X161881445Y-147191603D01*
X161867014Y-147324612D01*
X161854407Y-147383719D01*
X161738955Y-147603000D01*
X161557206Y-147785212D01*
X161326378Y-147923496D01*
X161063691Y-148010994D01*
X160786363Y-148040847D01*
X160511611Y-148006199D01*
X160390797Y-147966698D01*
X160212551Y-147860356D01*
X160037092Y-147697087D01*
X159890997Y-147505532D01*
X159809043Y-147339826D01*
X159792498Y-147267518D01*
X159778261Y-147148342D01*
X159766062Y-146975767D01*
X159755634Y-146743264D01*
X159746710Y-146444301D01*
X159739020Y-146072347D01*
X159732299Y-145620872D01*
X159729687Y-145404787D01*
X159709532Y-143639664D01*
X159229580Y-143639664D01*
X159230460Y-145249367D01*
X159231823Y-145747988D01*
X159235810Y-146167022D01*
X159243153Y-146515671D01*
X159254585Y-146803138D01*
X159270838Y-147038627D01*
X159292646Y-147231342D01*
X159320740Y-147390485D01*
X159355854Y-147525259D01*
X159398721Y-147644868D01*
X159426222Y-147708298D01*
X159589267Y-147975206D01*
X159808319Y-148203619D01*
X160064439Y-148378613D01*
X160338687Y-148485263D01*
X160435558Y-148503697D01*
X160577252Y-148523069D01*
X160693980Y-148539254D01*
X160717168Y-148542529D01*
X160806885Y-148543805D01*
X160950660Y-148534374D01*
X161090149Y-148519494D01*
X161449541Y-148432759D01*
X161769276Y-148270495D01*
X162038883Y-148038043D01*
X162043145Y-148033324D01*
X162124533Y-147941656D01*
X162192438Y-147857805D01*
X162248162Y-147772989D01*
X162293007Y-147678427D01*
X162328274Y-147565337D01*
X162355265Y-147424935D01*
X162375283Y-147248442D01*
X162389628Y-147027075D01*
X162399603Y-146752051D01*
X162406509Y-146414589D01*
X162411649Y-146005908D01*
X162416324Y-145517224D01*
X162416337Y-145515801D01*
X162433546Y-143639664D01*
X161944588Y-143639664D01*
X161927032Y-145426989D01*
G36*
X155405921Y-143517875D02*
X155109320Y-143554021D01*
X155043957Y-143567891D01*
X154691443Y-143680452D01*
X154349814Y-143844015D01*
X154042416Y-144044789D01*
X153792596Y-144268983D01*
X153726467Y-144346139D01*
X153592914Y-144514763D01*
X153792727Y-144658258D01*
X153992541Y-144801754D01*
X154273783Y-144538666D01*
X154566396Y-144305108D01*
X154875455Y-144143583D01*
X155221231Y-144045751D01*
X155568767Y-144005899D01*
X156002207Y-144021675D01*
X156406855Y-144114284D01*
X156774388Y-144277942D01*
X157096484Y-144506868D01*
X157364820Y-144795278D01*
X157571074Y-145137390D01*
X157696126Y-145484049D01*
X157761255Y-145896613D01*
X157745231Y-146302925D01*
X157652832Y-146691761D01*
X157488838Y-147051898D01*
X157258027Y-147372113D01*
X156965178Y-147641180D01*
X156709227Y-147801869D01*
X156423947Y-147928417D01*
X156136627Y-148004262D01*
X155813950Y-148036952D01*
X155659753Y-148039628D01*
X155233513Y-148003904D01*
X154851712Y-147895078D01*
X154501952Y-147708287D01*
X154203303Y-147468551D01*
X153993733Y-147272523D01*
X153587425Y-147564311D01*
X153844080Y-147824534D01*
X154187847Y-148110958D01*
X154581356Y-148325205D01*
X155021121Y-148466191D01*
X155503654Y-148532829D01*
X156025471Y-148524038D01*
X156077418Y-148519194D01*
X156535547Y-148432546D01*
X156956710Y-148270695D01*
X157332878Y-148039034D01*
X157656026Y-147742952D01*
X157918125Y-147387843D01*
X158007977Y-147222583D01*
X158183832Y-146774486D01*
X158277755Y-146321819D01*
X158293068Y-145873359D01*
X158233091Y-145437878D01*
X158101146Y-145024153D01*
X157900555Y-144640959D01*
X157634638Y-144297069D01*
X157306718Y-144001260D01*
X156920116Y-143762305D01*
X156654725Y-143647409D01*
X156394536Y-143576937D01*
X156079215Y-143530848D01*
X155739448Y-143510655D01*
X155405921Y-143517875D01*
X155405921Y-143517875D01*
G37*
X155405921Y-143517875D02*
X155109320Y-143554021D01*
X155043957Y-143567891D01*
X154691443Y-143680452D01*
X154349814Y-143844015D01*
X154042416Y-144044789D01*
X153792596Y-144268983D01*
X153726467Y-144346139D01*
X153592914Y-144514763D01*
X153792727Y-144658258D01*
X153992541Y-144801754D01*
X154273783Y-144538666D01*
X154566396Y-144305108D01*
X154875455Y-144143583D01*
X155221231Y-144045751D01*
X155568767Y-144005899D01*
X156002207Y-144021675D01*
X156406855Y-144114284D01*
X156774388Y-144277942D01*
X157096484Y-144506868D01*
X157364820Y-144795278D01*
X157571074Y-145137390D01*
X157696126Y-145484049D01*
X157761255Y-145896613D01*
X157745231Y-146302925D01*
X157652832Y-146691761D01*
X157488838Y-147051898D01*
X157258027Y-147372113D01*
X156965178Y-147641180D01*
X156709227Y-147801869D01*
X156423947Y-147928417D01*
X156136627Y-148004262D01*
X155813950Y-148036952D01*
X155659753Y-148039628D01*
X155233513Y-148003904D01*
X154851712Y-147895078D01*
X154501952Y-147708287D01*
X154203303Y-147468551D01*
X153993733Y-147272523D01*
X153587425Y-147564311D01*
X153844080Y-147824534D01*
X154187847Y-148110958D01*
X154581356Y-148325205D01*
X155021121Y-148466191D01*
X155503654Y-148532829D01*
X156025471Y-148524038D01*
X156077418Y-148519194D01*
X156535547Y-148432546D01*
X156956710Y-148270695D01*
X157332878Y-148039034D01*
X157656026Y-147742952D01*
X157918125Y-147387843D01*
X158007977Y-147222583D01*
X158183832Y-146774486D01*
X158277755Y-146321819D01*
X158293068Y-145873359D01*
X158233091Y-145437878D01*
X158101146Y-145024153D01*
X157900555Y-144640959D01*
X157634638Y-144297069D01*
X157306718Y-144001260D01*
X156920116Y-143762305D01*
X156654725Y-143647409D01*
X156394536Y-143576937D01*
X156079215Y-143530848D01*
X155739448Y-143510655D01*
X155405921Y-143517875D01*
G36*
X151222499Y-143531237D02*
X151070750Y-143542024D01*
X150954560Y-143565798D01*
X150847337Y-143607311D01*
X150764837Y-143648698D01*
X150527346Y-143810743D01*
X150320726Y-144021257D01*
X150166273Y-144255736D01*
X150104025Y-144409105D01*
X150045516Y-144712811D01*
X150065339Y-144982546D01*
X150166807Y-145231810D01*
X150353230Y-145474104D01*
X150369392Y-145490993D01*
X150597462Y-145726462D01*
X150431695Y-145836161D01*
X150188300Y-146032185D01*
X149997649Y-146271360D01*
X149914522Y-146415014D01*
X149851104Y-146552047D01*
X149814866Y-146684794D01*
X149798677Y-146847884D01*
X149795487Y-146993220D01*
X149798936Y-147189905D01*
X149817774Y-147337081D01*
X149860598Y-147473790D01*
X149936002Y-147639074D01*
X149939067Y-147645308D01*
X150142105Y-147965364D01*
X150399973Y-148217464D01*
X150707415Y-148399051D01*
X151059174Y-148507570D01*
X151449995Y-148540464D01*
X151734334Y-148518475D01*
X152075617Y-148428568D01*
X152376853Y-148262288D01*
X152628533Y-148026662D01*
X152821150Y-147728712D01*
X152830908Y-147708396D01*
X152902983Y-147543302D01*
X152961507Y-147387401D01*
X152990022Y-147289688D01*
X153020880Y-147143033D01*
X152514038Y-147169909D01*
X152428602Y-147399473D01*
X152294560Y-147647388D01*
X152107887Y-147836686D01*
X151881939Y-147968194D01*
X151630075Y-148042735D01*
X151365649Y-148061132D01*
X151102020Y-148024211D01*
X150852545Y-147932794D01*
X150630579Y-147787706D01*
X150449480Y-147589771D01*
X150322605Y-147339813D01*
X150300629Y-147268196D01*
X150274572Y-147010452D01*
X150326983Y-146756024D01*
X150448357Y-146520409D01*
X150629190Y-146319103D01*
X150859978Y-146167605D01*
X151011504Y-146109100D01*
X151167843Y-146068581D01*
X151306745Y-146042371D01*
X151366748Y-146036960D01*
X151532728Y-146027107D01*
X151627691Y-145989280D01*
X151668582Y-145907770D01*
X151672344Y-145766870D01*
X151671650Y-145754297D01*
X151658427Y-145526902D01*
X151426570Y-145498603D01*
X151203126Y-145445504D01*
X150984895Y-145349153D01*
X150797966Y-145224386D01*
X150668429Y-145086039D01*
X150651678Y-145057993D01*
X150575488Y-144830266D01*
X150585181Y-144600967D01*
X150678652Y-144380597D01*
X150821857Y-144208661D01*
X150980857Y-144088691D01*
X151161021Y-144020918D01*
X151390268Y-143995859D01*
X151450391Y-143995136D01*
X151724473Y-144035161D01*
X151957814Y-144153587D01*
X152148072Y-144348731D01*
X152281882Y-144591789D01*
X152324704Y-144682485D01*
X152373863Y-144729492D01*
X152457462Y-144747151D01*
X152591540Y-144749804D01*
X152732196Y-144746083D01*
X152805394Y-144729604D01*
X152832357Y-144692390D01*
X152835175Y-144658243D01*
X152808887Y-144532716D01*
X152739539Y-144366094D01*
X152641404Y-144185104D01*
X152528755Y-144016477D01*
X152431247Y-143901820D01*
X152249624Y-143738462D01*
X152074863Y-143629013D01*
X151881722Y-143564005D01*
X151644954Y-143533971D01*
X151436399Y-143528684D01*
X151222499Y-143531237D01*
X151222499Y-143531237D01*
G37*
X151222499Y-143531237D02*
X151070750Y-143542024D01*
X150954560Y-143565798D01*
X150847337Y-143607311D01*
X150764837Y-143648698D01*
X150527346Y-143810743D01*
X150320726Y-144021257D01*
X150166273Y-144255736D01*
X150104025Y-144409105D01*
X150045516Y-144712811D01*
X150065339Y-144982546D01*
X150166807Y-145231810D01*
X150353230Y-145474104D01*
X150369392Y-145490993D01*
X150597462Y-145726462D01*
X150431695Y-145836161D01*
X150188300Y-146032185D01*
X149997649Y-146271360D01*
X149914522Y-146415014D01*
X149851104Y-146552047D01*
X149814866Y-146684794D01*
X149798677Y-146847884D01*
X149795487Y-146993220D01*
X149798936Y-147189905D01*
X149817774Y-147337081D01*
X149860598Y-147473790D01*
X149936002Y-147639074D01*
X149939067Y-147645308D01*
X150142105Y-147965364D01*
X150399973Y-148217464D01*
X150707415Y-148399051D01*
X151059174Y-148507570D01*
X151449995Y-148540464D01*
X151734334Y-148518475D01*
X152075617Y-148428568D01*
X152376853Y-148262288D01*
X152628533Y-148026662D01*
X152821150Y-147728712D01*
X152830908Y-147708396D01*
X152902983Y-147543302D01*
X152961507Y-147387401D01*
X152990022Y-147289688D01*
X153020880Y-147143033D01*
X152514038Y-147169909D01*
X152428602Y-147399473D01*
X152294560Y-147647388D01*
X152107887Y-147836686D01*
X151881939Y-147968194D01*
X151630075Y-148042735D01*
X151365649Y-148061132D01*
X151102020Y-148024211D01*
X150852545Y-147932794D01*
X150630579Y-147787706D01*
X150449480Y-147589771D01*
X150322605Y-147339813D01*
X150300629Y-147268196D01*
X150274572Y-147010452D01*
X150326983Y-146756024D01*
X150448357Y-146520409D01*
X150629190Y-146319103D01*
X150859978Y-146167605D01*
X151011504Y-146109100D01*
X151167843Y-146068581D01*
X151306745Y-146042371D01*
X151366748Y-146036960D01*
X151532728Y-146027107D01*
X151627691Y-145989280D01*
X151668582Y-145907770D01*
X151672344Y-145766870D01*
X151671650Y-145754297D01*
X151658427Y-145526902D01*
X151426570Y-145498603D01*
X151203126Y-145445504D01*
X150984895Y-145349153D01*
X150797966Y-145224386D01*
X150668429Y-145086039D01*
X150651678Y-145057993D01*
X150575488Y-144830266D01*
X150585181Y-144600967D01*
X150678652Y-144380597D01*
X150821857Y-144208661D01*
X150980857Y-144088691D01*
X151161021Y-144020918D01*
X151390268Y-143995859D01*
X151450391Y-143995136D01*
X151724473Y-144035161D01*
X151957814Y-144153587D01*
X152148072Y-144348731D01*
X152281882Y-144591789D01*
X152324704Y-144682485D01*
X152373863Y-144729492D01*
X152457462Y-144747151D01*
X152591540Y-144749804D01*
X152732196Y-144746083D01*
X152805394Y-144729604D01*
X152832357Y-144692390D01*
X152835175Y-144658243D01*
X152808887Y-144532716D01*
X152739539Y-144366094D01*
X152641404Y-144185104D01*
X152528755Y-144016477D01*
X152431247Y-143901820D01*
X152249624Y-143738462D01*
X152074863Y-143629013D01*
X151881722Y-143564005D01*
X151644954Y-143533971D01*
X151436399Y-143528684D01*
X151222499Y-143531237D01*
G36*
X142530816Y-145649017D02*
X142526386Y-146121281D01*
X142515567Y-146513406D01*
X142497501Y-146833894D01*
X142471331Y-147091244D01*
X142436202Y-147293957D01*
X142391255Y-147450534D01*
X142337566Y-147566204D01*
X142171570Y-147775384D01*
X141953421Y-147920104D01*
X141676284Y-148004058D01*
X141485987Y-148026352D01*
X141301445Y-148033670D01*
X141167176Y-148022733D01*
X141045420Y-147987003D01*
X140913040Y-147927124D01*
X140665511Y-147765892D01*
X140491417Y-147558056D01*
X140407741Y-147374209D01*
X140389921Y-147271854D01*
X140375812Y-147084568D01*
X140365558Y-146816159D01*
X140359307Y-146470434D01*
X140357203Y-146053143D01*
X140357203Y-144883021D01*
X139868741Y-144883021D01*
X139868741Y-145987100D01*
X139870558Y-146306407D01*
X139875657Y-146609470D01*
X139883516Y-146880695D01*
X139893611Y-147104489D01*
X139905418Y-147265259D01*
X139913808Y-147328817D01*
X140020416Y-147680111D01*
X140195002Y-147977759D01*
X140433914Y-148216883D01*
X140698522Y-148376915D01*
X140924581Y-148451151D01*
X141200965Y-148496352D01*
X141493229Y-148509972D01*
X141766931Y-148489471D01*
X141889196Y-148464818D01*
X142133549Y-148385774D01*
X142326675Y-148280790D01*
X142504975Y-148127663D01*
X142589824Y-148037406D01*
X142686220Y-147926483D01*
X142763653Y-147823359D01*
X142824367Y-147716726D01*
X142870603Y-147595277D01*
X142904605Y-147447703D01*
X142928615Y-147262698D01*
X142944875Y-147028954D01*
X142955629Y-146735162D01*
X142963117Y-146370017D01*
X142966618Y-146137479D01*
X142984355Y-144883021D01*
X142533077Y-144883021D01*
X142530816Y-145649017D01*
X142530816Y-145649017D01*
G37*
X142530816Y-145649017D02*
X142526386Y-146121281D01*
X142515567Y-146513406D01*
X142497501Y-146833894D01*
X142471331Y-147091244D01*
X142436202Y-147293957D01*
X142391255Y-147450534D01*
X142337566Y-147566204D01*
X142171570Y-147775384D01*
X141953421Y-147920104D01*
X141676284Y-148004058D01*
X141485987Y-148026352D01*
X141301445Y-148033670D01*
X141167176Y-148022733D01*
X141045420Y-147987003D01*
X140913040Y-147927124D01*
X140665511Y-147765892D01*
X140491417Y-147558056D01*
X140407741Y-147374209D01*
X140389921Y-147271854D01*
X140375812Y-147084568D01*
X140365558Y-146816159D01*
X140359307Y-146470434D01*
X140357203Y-146053143D01*
X140357203Y-144883021D01*
X139868741Y-144883021D01*
X139868741Y-145987100D01*
X139870558Y-146306407D01*
X139875657Y-146609470D01*
X139883516Y-146880695D01*
X139893611Y-147104489D01*
X139905418Y-147265259D01*
X139913808Y-147328817D01*
X140020416Y-147680111D01*
X140195002Y-147977759D01*
X140433914Y-148216883D01*
X140698522Y-148376915D01*
X140924581Y-148451151D01*
X141200965Y-148496352D01*
X141493229Y-148509972D01*
X141766931Y-148489471D01*
X141889196Y-148464818D01*
X142133549Y-148385774D01*
X142326675Y-148280790D01*
X142504975Y-148127663D01*
X142589824Y-148037406D01*
X142686220Y-147926483D01*
X142763653Y-147823359D01*
X142824367Y-147716726D01*
X142870603Y-147595277D01*
X142904605Y-147447703D01*
X142928615Y-147262698D01*
X142944875Y-147028954D01*
X142955629Y-146735162D01*
X142963117Y-146370017D01*
X142966618Y-146137479D01*
X142984355Y-144883021D01*
X142533077Y-144883021D01*
X142530816Y-145649017D01*
G36*
X137869270Y-144803579D02*
X137712946Y-144840036D01*
X137543553Y-144916110D01*
X137514221Y-144931555D01*
X137363548Y-145019376D01*
X137233411Y-145108251D01*
X137164094Y-145167299D01*
X137071653Y-145265699D01*
X137223313Y-145412694D01*
X137374974Y-145559689D01*
X137578201Y-145413743D01*
X137774667Y-145307186D01*
X137987401Y-145248002D01*
X138190321Y-145239897D01*
X138357347Y-145286579D01*
X138379699Y-145299837D01*
X138524538Y-145439934D01*
X138597435Y-145613535D01*
X138590408Y-145800790D01*
X138586595Y-145814306D01*
X138545232Y-145921036D01*
X138482442Y-146014844D01*
X138384872Y-146107617D01*
X138239167Y-146211241D01*
X138031975Y-146337603D01*
X137937098Y-146392477D01*
X137617800Y-146592350D01*
X137378846Y-146783451D01*
X137213589Y-146974908D01*
X137115383Y-147175850D01*
X137077583Y-147395405D01*
X137083493Y-147564933D01*
X137133515Y-147818870D01*
X137235326Y-148028661D01*
X137405491Y-148228089D01*
X137411562Y-148234010D01*
X137632093Y-148389677D01*
X137900329Y-148485729D01*
X138193709Y-148516863D01*
X138469965Y-148482757D01*
X138606624Y-148436177D01*
X138764877Y-148362593D01*
X138924165Y-148274327D01*
X139063927Y-148183701D01*
X139163604Y-148103035D01*
X139202636Y-148044650D01*
X139202657Y-148043676D01*
X139176667Y-147993311D01*
X139110681Y-147901744D01*
X139067605Y-147847805D01*
X138932552Y-147683963D01*
X138732772Y-147836458D01*
X138581872Y-147934476D01*
X138421366Y-148013292D01*
X138347813Y-148038817D01*
X138134441Y-148059947D01*
X137934147Y-148015596D01*
X137760697Y-147918097D01*
X137627855Y-147779778D01*
X137549387Y-147612973D01*
X137539058Y-147430011D01*
X137563715Y-147336411D01*
X137627483Y-147211961D01*
X137727117Y-147097309D01*
X137876884Y-146979890D01*
X138091054Y-146847142D01*
X138170360Y-146802247D01*
X138476035Y-146619434D01*
X138705435Y-146450110D01*
X138867552Y-146282929D01*
X138971380Y-146106543D01*
X139025910Y-145909606D01*
X139040271Y-145704524D01*
X139017157Y-145454895D01*
X138938843Y-145254367D01*
X138792325Y-145073894D01*
X138733734Y-145019855D01*
X138587833Y-144905548D01*
X138449547Y-144836898D01*
X138287383Y-144803317D01*
X138069844Y-144794215D01*
X138062538Y-144794210D01*
X137869270Y-144803579D01*
X137869270Y-144803579D01*
G37*
X137869270Y-144803579D02*
X137712946Y-144840036D01*
X137543553Y-144916110D01*
X137514221Y-144931555D01*
X137363548Y-145019376D01*
X137233411Y-145108251D01*
X137164094Y-145167299D01*
X137071653Y-145265699D01*
X137223313Y-145412694D01*
X137374974Y-145559689D01*
X137578201Y-145413743D01*
X137774667Y-145307186D01*
X137987401Y-145248002D01*
X138190321Y-145239897D01*
X138357347Y-145286579D01*
X138379699Y-145299837D01*
X138524538Y-145439934D01*
X138597435Y-145613535D01*
X138590408Y-145800790D01*
X138586595Y-145814306D01*
X138545232Y-145921036D01*
X138482442Y-146014844D01*
X138384872Y-146107617D01*
X138239167Y-146211241D01*
X138031975Y-146337603D01*
X137937098Y-146392477D01*
X137617800Y-146592350D01*
X137378846Y-146783451D01*
X137213589Y-146974908D01*
X137115383Y-147175850D01*
X137077583Y-147395405D01*
X137083493Y-147564933D01*
X137133515Y-147818870D01*
X137235326Y-148028661D01*
X137405491Y-148228089D01*
X137411562Y-148234010D01*
X137632093Y-148389677D01*
X137900329Y-148485729D01*
X138193709Y-148516863D01*
X138469965Y-148482757D01*
X138606624Y-148436177D01*
X138764877Y-148362593D01*
X138924165Y-148274327D01*
X139063927Y-148183701D01*
X139163604Y-148103035D01*
X139202636Y-148044650D01*
X139202657Y-148043676D01*
X139176667Y-147993311D01*
X139110681Y-147901744D01*
X139067605Y-147847805D01*
X138932552Y-147683963D01*
X138732772Y-147836458D01*
X138581872Y-147934476D01*
X138421366Y-148013292D01*
X138347813Y-148038817D01*
X138134441Y-148059947D01*
X137934147Y-148015596D01*
X137760697Y-147918097D01*
X137627855Y-147779778D01*
X137549387Y-147612973D01*
X137539058Y-147430011D01*
X137563715Y-147336411D01*
X137627483Y-147211961D01*
X137727117Y-147097309D01*
X137876884Y-146979890D01*
X138091054Y-146847142D01*
X138170360Y-146802247D01*
X138476035Y-146619434D01*
X138705435Y-146450110D01*
X138867552Y-146282929D01*
X138971380Y-146106543D01*
X139025910Y-145909606D01*
X139040271Y-145704524D01*
X139017157Y-145454895D01*
X138938843Y-145254367D01*
X138792325Y-145073894D01*
X138733734Y-145019855D01*
X138587833Y-144905548D01*
X138449547Y-144836898D01*
X138287383Y-144803317D01*
X138069844Y-144794215D01*
X138062538Y-144794210D01*
X137869270Y-144803579D01*
G36*
X132812004Y-144804540D02*
X132650144Y-144828285D01*
X132483886Y-144870704D01*
X132457612Y-144878575D01*
X132261440Y-144954836D01*
X132061633Y-145060788D01*
X131873663Y-145184581D01*
X131713001Y-145314368D01*
X131595119Y-145438300D01*
X131535488Y-145544531D01*
X131532326Y-145587154D01*
X131574559Y-145645475D01*
X131667589Y-145718277D01*
X131705070Y-145741425D01*
X131867447Y-145835443D01*
X132084763Y-145632169D01*
X132332364Y-145439408D01*
X132597414Y-145315610D01*
X132898925Y-145254402D01*
X133230105Y-145248124D01*
X133554664Y-145284133D01*
X133821035Y-145366098D01*
X134052459Y-145504525D01*
X134272177Y-145709920D01*
X134286386Y-145725592D01*
X134472826Y-145977922D01*
X134582736Y-146243860D01*
X134623145Y-146544428D01*
X134619084Y-146720482D01*
X134555685Y-147077930D01*
X134417930Y-147388900D01*
X134209889Y-147648590D01*
X133935632Y-147852198D01*
X133599229Y-147994922D01*
X133520353Y-148016893D01*
X133153607Y-148067921D01*
X132800106Y-148033030D01*
X132468235Y-147914280D01*
X132166382Y-147713728D01*
X132120490Y-147673327D01*
X131879937Y-147453475D01*
X131700555Y-147555923D01*
X131593723Y-147627180D01*
X131529331Y-147689885D01*
X131520832Y-147710372D01*
X131550043Y-147767303D01*
X131626252Y-147862468D01*
X131712771Y-147954603D01*
X132019426Y-148199814D01*
X132374991Y-148376667D01*
X132768477Y-148482372D01*
X133188892Y-148514139D01*
X133625248Y-148469180D01*
X133689007Y-148456166D01*
X134049815Y-148334021D01*
X134382044Y-148136418D01*
X134669877Y-147875789D01*
X134897497Y-147564566D01*
X134951209Y-147464142D01*
X135013737Y-147332087D01*
X135054936Y-147222774D01*
X135079237Y-147111451D01*
X135091071Y-146973368D01*
X135094869Y-146783773D01*
X135095140Y-146660178D01*
X135093421Y-146432263D01*
X135085649Y-146269121D01*
X135067901Y-146146741D01*
X135036254Y-146041111D01*
X134986783Y-145928218D01*
X134969849Y-145893352D01*
X134748936Y-145542124D01*
X134461129Y-145244839D01*
X134117103Y-145012191D01*
X134061808Y-144983775D01*
X133903504Y-144908438D01*
X133775526Y-144859042D01*
X133649256Y-144829171D01*
X133496077Y-144812408D01*
X133287373Y-144802338D01*
X133246125Y-144800892D01*
X133000365Y-144796424D01*
X132812004Y-144804540D01*
X132812004Y-144804540D01*
G37*
X132812004Y-144804540D02*
X132650144Y-144828285D01*
X132483886Y-144870704D01*
X132457612Y-144878575D01*
X132261440Y-144954836D01*
X132061633Y-145060788D01*
X131873663Y-145184581D01*
X131713001Y-145314368D01*
X131595119Y-145438300D01*
X131535488Y-145544531D01*
X131532326Y-145587154D01*
X131574559Y-145645475D01*
X131667589Y-145718277D01*
X131705070Y-145741425D01*
X131867447Y-145835443D01*
X132084763Y-145632169D01*
X132332364Y-145439408D01*
X132597414Y-145315610D01*
X132898925Y-145254402D01*
X133230105Y-145248124D01*
X133554664Y-145284133D01*
X133821035Y-145366098D01*
X134052459Y-145504525D01*
X134272177Y-145709920D01*
X134286386Y-145725592D01*
X134472826Y-145977922D01*
X134582736Y-146243860D01*
X134623145Y-146544428D01*
X134619084Y-146720482D01*
X134555685Y-147077930D01*
X134417930Y-147388900D01*
X134209889Y-147648590D01*
X133935632Y-147852198D01*
X133599229Y-147994922D01*
X133520353Y-148016893D01*
X133153607Y-148067921D01*
X132800106Y-148033030D01*
X132468235Y-147914280D01*
X132166382Y-147713728D01*
X132120490Y-147673327D01*
X131879937Y-147453475D01*
X131700555Y-147555923D01*
X131593723Y-147627180D01*
X131529331Y-147689885D01*
X131520832Y-147710372D01*
X131550043Y-147767303D01*
X131626252Y-147862468D01*
X131712771Y-147954603D01*
X132019426Y-148199814D01*
X132374991Y-148376667D01*
X132768477Y-148482372D01*
X133188892Y-148514139D01*
X133625248Y-148469180D01*
X133689007Y-148456166D01*
X134049815Y-148334021D01*
X134382044Y-148136418D01*
X134669877Y-147875789D01*
X134897497Y-147564566D01*
X134951209Y-147464142D01*
X135013737Y-147332087D01*
X135054936Y-147222774D01*
X135079237Y-147111451D01*
X135091071Y-146973368D01*
X135094869Y-146783773D01*
X135095140Y-146660178D01*
X135093421Y-146432263D01*
X135085649Y-146269121D01*
X135067901Y-146146741D01*
X135036254Y-146041111D01*
X134986783Y-145928218D01*
X134969849Y-145893352D01*
X134748936Y-145542124D01*
X134461129Y-145244839D01*
X134117103Y-145012191D01*
X134061808Y-144983775D01*
X133903504Y-144908438D01*
X133775526Y-144859042D01*
X133649256Y-144829171D01*
X133496077Y-144812408D01*
X133287373Y-144802338D01*
X133246125Y-144800892D01*
X133000365Y-144796424D01*
X132812004Y-144804540D01*
G36*
X126533232Y-144817675D02*
X126363857Y-144823827D01*
X126238648Y-144838418D01*
X126135288Y-144864996D01*
X126031460Y-144907111D01*
X125948154Y-144946948D01*
X125626097Y-145153123D01*
X125355176Y-145424759D01*
X125144414Y-145749127D01*
X125002836Y-146113495D01*
X124954471Y-146348738D01*
X124936712Y-146501286D01*
X124929564Y-146617662D01*
X124934036Y-146670346D01*
X124981447Y-146678057D01*
X125107514Y-146685136D01*
X125302086Y-146691373D01*
X125555009Y-146696554D01*
X125856129Y-146700467D01*
X126195293Y-146702901D01*
X126527481Y-146703650D01*
X128101259Y-146703650D01*
X128101259Y-146835201D01*
X128073743Y-147014852D01*
X128000485Y-147227339D01*
X127895421Y-147439724D01*
X127772488Y-147619070D01*
X127766718Y-147625883D01*
X127531722Y-147836113D01*
X127255687Y-147977258D01*
X126953741Y-148049026D01*
X126641014Y-148051124D01*
X126332635Y-147983260D01*
X126043734Y-147845142D01*
X125815927Y-147663564D01*
X125690813Y-147533448D01*
X125583420Y-147411632D01*
X125517590Y-147325329D01*
X125447841Y-147214315D01*
X125240070Y-147314858D01*
X125032299Y-147415402D01*
X125134699Y-147600153D01*
X125354412Y-147908340D01*
X125634265Y-148158680D01*
X125963307Y-148346553D01*
X126330585Y-148467340D01*
X126725146Y-148516423D01*
X127136038Y-148489181D01*
X127210931Y-148475807D01*
X127547812Y-148365623D01*
X127858070Y-148176818D01*
X128131277Y-147918097D01*
X128357003Y-147598162D01*
X128429976Y-147458545D01*
X128488831Y-147329676D01*
X128527981Y-147221117D01*
X128551422Y-147109008D01*
X128563149Y-146969491D01*
X128567156Y-146778706D01*
X128567517Y-146637042D01*
X128565815Y-146402892D01*
X128559464Y-146259594D01*
X128062838Y-146259594D01*
X125471701Y-146259594D01*
X125501755Y-146137479D01*
X125611066Y-145865862D01*
X125785949Y-145637878D01*
X126012506Y-145457514D01*
X126276837Y-145328759D01*
X126565041Y-145255604D01*
X126863220Y-145242036D01*
X127157474Y-145292045D01*
X127433903Y-145409619D01*
X127607933Y-145533040D01*
X127775714Y-145708465D01*
X127922326Y-145918965D01*
X128022469Y-146127244D01*
X128033032Y-146159682D01*
X128062838Y-146259594D01*
X128559464Y-146259594D01*
X128558338Y-146234193D01*
X128541532Y-146107613D01*
X128511841Y-145999820D01*
X128465713Y-145887482D01*
X128447224Y-145847456D01*
X128302488Y-145604757D01*
X128103986Y-145361767D01*
X127876259Y-145143993D01*
X127643851Y-144976947D01*
X127572660Y-144938451D01*
X127461390Y-144886929D01*
X127361754Y-144852342D01*
X127251754Y-144831349D01*
X127109391Y-144820609D01*
X126912668Y-144816782D01*
X126769091Y-144816412D01*
X126533232Y-144817675D01*
X126533232Y-144817675D01*
G37*
X126533232Y-144817675D02*
X126363857Y-144823827D01*
X126238648Y-144838418D01*
X126135288Y-144864996D01*
X126031460Y-144907111D01*
X125948154Y-144946948D01*
X125626097Y-145153123D01*
X125355176Y-145424759D01*
X125144414Y-145749127D01*
X125002836Y-146113495D01*
X124954471Y-146348738D01*
X124936712Y-146501286D01*
X124929564Y-146617662D01*
X124934036Y-146670346D01*
X124981447Y-146678057D01*
X125107514Y-146685136D01*
X125302086Y-146691373D01*
X125555009Y-146696554D01*
X125856129Y-146700467D01*
X126195293Y-146702901D01*
X126527481Y-146703650D01*
X128101259Y-146703650D01*
X128101259Y-146835201D01*
X128073743Y-147014852D01*
X128000485Y-147227339D01*
X127895421Y-147439724D01*
X127772488Y-147619070D01*
X127766718Y-147625883D01*
X127531722Y-147836113D01*
X127255687Y-147977258D01*
X126953741Y-148049026D01*
X126641014Y-148051124D01*
X126332635Y-147983260D01*
X126043734Y-147845142D01*
X125815927Y-147663564D01*
X125690813Y-147533448D01*
X125583420Y-147411632D01*
X125517590Y-147325329D01*
X125447841Y-147214315D01*
X125240070Y-147314858D01*
X125032299Y-147415402D01*
X125134699Y-147600153D01*
X125354412Y-147908340D01*
X125634265Y-148158680D01*
X125963307Y-148346553D01*
X126330585Y-148467340D01*
X126725146Y-148516423D01*
X127136038Y-148489181D01*
X127210931Y-148475807D01*
X127547812Y-148365623D01*
X127858070Y-148176818D01*
X128131277Y-147918097D01*
X128357003Y-147598162D01*
X128429976Y-147458545D01*
X128488831Y-147329676D01*
X128527981Y-147221117D01*
X128551422Y-147109008D01*
X128563149Y-146969491D01*
X128567156Y-146778706D01*
X128567517Y-146637042D01*
X128565815Y-146402892D01*
X128559464Y-146259594D01*
X128062838Y-146259594D01*
X125471701Y-146259594D01*
X125501755Y-146137479D01*
X125611066Y-145865862D01*
X125785949Y-145637878D01*
X126012506Y-145457514D01*
X126276837Y-145328759D01*
X126565041Y-145255604D01*
X126863220Y-145242036D01*
X127157474Y-145292045D01*
X127433903Y-145409619D01*
X127607933Y-145533040D01*
X127775714Y-145708465D01*
X127922326Y-145918965D01*
X128022469Y-146127244D01*
X128033032Y-146159682D01*
X128062838Y-146259594D01*
X128559464Y-146259594D01*
X128558338Y-146234193D01*
X128541532Y-146107613D01*
X128511841Y-145999820D01*
X128465713Y-145887482D01*
X128447224Y-145847456D01*
X128302488Y-145604757D01*
X128103986Y-145361767D01*
X127876259Y-145143993D01*
X127643851Y-144976947D01*
X127572660Y-144938451D01*
X127461390Y-144886929D01*
X127361754Y-144852342D01*
X127251754Y-144831349D01*
X127109391Y-144820609D01*
X126912668Y-144816782D01*
X126769091Y-144816412D01*
X126533232Y-144817675D01*
G36*
X148406332Y-143672718D02*
X148352310Y-143751221D01*
X148272016Y-143888760D01*
X148163553Y-144088920D01*
X148025023Y-144355283D01*
X147854528Y-144691432D01*
X147650171Y-145100950D01*
X147416024Y-145575274D01*
X146462972Y-147513762D01*
X145496412Y-145573259D01*
X145268053Y-145117339D01*
X145064156Y-144715441D01*
X144886863Y-144371597D01*
X144738313Y-144089840D01*
X144620648Y-143874204D01*
X144536008Y-143728722D01*
X144486533Y-143657427D01*
X144476020Y-143650699D01*
X144456037Y-143699453D01*
X144425517Y-143835119D01*
X144384665Y-144056451D01*
X144333688Y-144362202D01*
X144272792Y-144751125D01*
X144202183Y-145221975D01*
X144122067Y-145773504D01*
X144102874Y-145907738D01*
X144040045Y-146347978D01*
X143980416Y-146765175D01*
X143925276Y-147150357D01*
X143875913Y-147494553D01*
X143833614Y-147788793D01*
X143799668Y-148024106D01*
X143775365Y-148191522D01*
X143761991Y-148282069D01*
X143760585Y-148291150D01*
X143737612Y-148435468D01*
X143978205Y-148435468D01*
X144119378Y-148431240D01*
X144195643Y-148412530D01*
X144230738Y-148370306D01*
X144240707Y-148335556D01*
X144251698Y-148268966D01*
X144272942Y-148125319D01*
X144302898Y-147915582D01*
X144340026Y-147650722D01*
X144382786Y-147341707D01*
X144429637Y-146999504D01*
X144466779Y-146725853D01*
X144515617Y-146367651D01*
X144561605Y-146035945D01*
X144603208Y-145741400D01*
X144638889Y-145494676D01*
X144667109Y-145306438D01*
X144686331Y-145187347D01*
X144694042Y-145149454D01*
X144718164Y-145173139D01*
X144777545Y-145269170D01*
X144868246Y-145430201D01*
X144986329Y-145648883D01*
X145127856Y-145917871D01*
X145288890Y-146229817D01*
X145465490Y-146577374D01*
X145556868Y-146759157D01*
X145793503Y-147228560D01*
X145993518Y-147618824D01*
X146157685Y-147931368D01*
X146286775Y-148167611D01*
X146381555Y-148328973D01*
X146442798Y-148416872D01*
X146466600Y-148435468D01*
X146503187Y-148400648D01*
X146571427Y-148295047D01*
X146672234Y-148116954D01*
X146806522Y-147864657D01*
X146975206Y-147536446D01*
X147179201Y-147130608D01*
X147374326Y-146736954D01*
X147551406Y-146378678D01*
X147715999Y-146047138D01*
X147864063Y-145750366D01*
X147991556Y-145496397D01*
X148094436Y-145293262D01*
X148168661Y-145148996D01*
X148210191Y-145071630D01*
X148217728Y-145060643D01*
X148224926Y-145108134D01*
X148242977Y-145233850D01*
X148270511Y-145428051D01*
X148306154Y-145680994D01*
X148348534Y-145982940D01*
X148396280Y-146324147D01*
X148448020Y-146694875D01*
X148455431Y-146748056D01*
X148687453Y-148413266D01*
X148938240Y-148426510D01*
X149189028Y-148439755D01*
X149165707Y-148293293D01*
X149154992Y-148221489D01*
X149133048Y-148070735D01*
X149101165Y-147850005D01*
X149060632Y-147568275D01*
X149012737Y-147234518D01*
X148958770Y-146857710D01*
X148900020Y-146446824D01*
X148837776Y-146010836D01*
X148822636Y-145904693D01*
X148747986Y-145384502D01*
X148683965Y-144946209D01*
X148629521Y-144583675D01*
X148583601Y-144290760D01*
X148545152Y-144061322D01*
X148513122Y-143889221D01*
X148486456Y-143768318D01*
X148464104Y-143692471D01*
X148445010Y-143655541D01*
X148435981Y-143649670D01*
X148406332Y-143672718D01*
X148406332Y-143672718D01*
G37*
X148406332Y-143672718D02*
X148352310Y-143751221D01*
X148272016Y-143888760D01*
X148163553Y-144088920D01*
X148025023Y-144355283D01*
X147854528Y-144691432D01*
X147650171Y-145100950D01*
X147416024Y-145575274D01*
X146462972Y-147513762D01*
X145496412Y-145573259D01*
X145268053Y-145117339D01*
X145064156Y-144715441D01*
X144886863Y-144371597D01*
X144738313Y-144089840D01*
X144620648Y-143874204D01*
X144536008Y-143728722D01*
X144486533Y-143657427D01*
X144476020Y-143650699D01*
X144456037Y-143699453D01*
X144425517Y-143835119D01*
X144384665Y-144056451D01*
X144333688Y-144362202D01*
X144272792Y-144751125D01*
X144202183Y-145221975D01*
X144122067Y-145773504D01*
X144102874Y-145907738D01*
X144040045Y-146347978D01*
X143980416Y-146765175D01*
X143925276Y-147150357D01*
X143875913Y-147494553D01*
X143833614Y-147788793D01*
X143799668Y-148024106D01*
X143775365Y-148191522D01*
X143761991Y-148282069D01*
X143760585Y-148291150D01*
X143737612Y-148435468D01*
X143978205Y-148435468D01*
X144119378Y-148431240D01*
X144195643Y-148412530D01*
X144230738Y-148370306D01*
X144240707Y-148335556D01*
X144251698Y-148268966D01*
X144272942Y-148125319D01*
X144302898Y-147915582D01*
X144340026Y-147650722D01*
X144382786Y-147341707D01*
X144429637Y-146999504D01*
X144466779Y-146725853D01*
X144515617Y-146367651D01*
X144561605Y-146035945D01*
X144603208Y-145741400D01*
X144638889Y-145494676D01*
X144667109Y-145306438D01*
X144686331Y-145187347D01*
X144694042Y-145149454D01*
X144718164Y-145173139D01*
X144777545Y-145269170D01*
X144868246Y-145430201D01*
X144986329Y-145648883D01*
X145127856Y-145917871D01*
X145288890Y-146229817D01*
X145465490Y-146577374D01*
X145556868Y-146759157D01*
X145793503Y-147228560D01*
X145993518Y-147618824D01*
X146157685Y-147931368D01*
X146286775Y-148167611D01*
X146381555Y-148328973D01*
X146442798Y-148416872D01*
X146466600Y-148435468D01*
X146503187Y-148400648D01*
X146571427Y-148295047D01*
X146672234Y-148116954D01*
X146806522Y-147864657D01*
X146975206Y-147536446D01*
X147179201Y-147130608D01*
X147374326Y-146736954D01*
X147551406Y-146378678D01*
X147715999Y-146047138D01*
X147864063Y-145750366D01*
X147991556Y-145496397D01*
X148094436Y-145293262D01*
X148168661Y-145148996D01*
X148210191Y-145071630D01*
X148217728Y-145060643D01*
X148224926Y-145108134D01*
X148242977Y-145233850D01*
X148270511Y-145428051D01*
X148306154Y-145680994D01*
X148348534Y-145982940D01*
X148396280Y-146324147D01*
X148448020Y-146694875D01*
X148455431Y-146748056D01*
X148687453Y-148413266D01*
X148938240Y-148426510D01*
X149189028Y-148439755D01*
X149165707Y-148293293D01*
X149154992Y-148221489D01*
X149133048Y-148070735D01*
X149101165Y-147850005D01*
X149060632Y-147568275D01*
X149012737Y-147234518D01*
X148958770Y-146857710D01*
X148900020Y-146446824D01*
X148837776Y-146010836D01*
X148822636Y-145904693D01*
X148747986Y-145384502D01*
X148683965Y-144946209D01*
X148629521Y-144583675D01*
X148583601Y-144290760D01*
X148545152Y-144061322D01*
X148513122Y-143889221D01*
X148486456Y-143768318D01*
X148464104Y-143692471D01*
X148445010Y-143655541D01*
X148435981Y-143649670D01*
X148406332Y-143672718D01*
G36*
X135872238Y-148435468D02*
X136360699Y-148435468D01*
X136360699Y-144883021D01*
X135872238Y-144883021D01*
X135872238Y-148435468D01*
X135872238Y-148435468D01*
G37*
X135872238Y-148435468D02*
X136360699Y-148435468D01*
X136360699Y-144883021D01*
X135872238Y-144883021D01*
X135872238Y-148435468D01*
G36*
X129122587Y-146836867D02*
X130943217Y-146836867D01*
X130943217Y-146392811D01*
X129122587Y-146392811D01*
X129122587Y-146836867D01*
X129122587Y-146836867D01*
G37*
X129122587Y-146836867D02*
X130943217Y-146836867D01*
X130943217Y-146392811D01*
X129122587Y-146392811D01*
X129122587Y-146836867D01*
G36*
X135945192Y-143454360D02*
X135856023Y-143509670D01*
X135777039Y-143592251D01*
X135743741Y-143697415D01*
X135739021Y-143795084D01*
X135751395Y-143935361D01*
X135799176Y-144027980D01*
X135856023Y-144080497D01*
X136018756Y-144159842D01*
X136191733Y-144164637D01*
X136347997Y-144095747D01*
X136384921Y-144063536D01*
X136479826Y-143920746D01*
X136500601Y-143773972D01*
X136460179Y-143636756D01*
X136371494Y-143522642D01*
X136247478Y-143445176D01*
X136101067Y-143417900D01*
X135945192Y-143454360D01*
X135945192Y-143454360D01*
G37*
X135945192Y-143454360D02*
X135856023Y-143509670D01*
X135777039Y-143592251D01*
X135743741Y-143697415D01*
X135739021Y-143795084D01*
X135751395Y-143935361D01*
X135799176Y-144027980D01*
X135856023Y-144080497D01*
X136018756Y-144159842D01*
X136191733Y-144164637D01*
X136347997Y-144095747D01*
X136384921Y-144063536D01*
X136479826Y-143920746D01*
X136500601Y-143773972D01*
X136460179Y-143636756D01*
X136371494Y-143522642D01*
X136247478Y-143445176D01*
X136101067Y-143417900D01*
X135945192Y-143454360D01*
%LPC*%
D14*
X99110000Y-101064000D03*
X105410000Y-101064000D03*
X111710000Y-101064000D03*
X99110000Y-84864000D03*
X105410000Y-84864000D03*
X111710000Y-84864000D03*
D15*
X153670000Y-76454000D03*
D16*
X153670000Y-78994000D03*
X153670000Y-81534000D03*
X153670000Y-84074000D03*
X153670000Y-86614000D03*
X153670000Y-89154000D03*
X153670000Y-91694000D03*
X153670000Y-94234000D03*
X153670000Y-96774000D03*
X153670000Y-99314000D03*
X153670000Y-101854000D03*
X153670000Y-104394000D03*
X153670000Y-106934000D03*
X153670000Y-109474000D03*
X138430000Y-109474000D03*
X138430000Y-106934000D03*
X138430000Y-104394000D03*
X138430000Y-101854000D03*
X138430000Y-99314000D03*
X138430000Y-96774000D03*
X138430000Y-94234000D03*
X138430000Y-91694000D03*
X138430000Y-89154000D03*
X138430000Y-86614000D03*
X138430000Y-84074000D03*
X138430000Y-81534000D03*
X138430000Y-78994000D03*
X138430000Y-76454000D03*
D14*
X99110000Y-78839000D03*
X105410000Y-78839000D03*
X111710000Y-78839000D03*
X99110000Y-62639000D03*
X105410000Y-62639000D03*
X111710000Y-62639000D03*
X99110000Y-122654000D03*
X105410000Y-122654000D03*
X111710000Y-122654000D03*
X99110000Y-106454000D03*
X105410000Y-106454000D03*
X111710000Y-106454000D03*
X99110000Y-144244000D03*
X105410000Y-144244000D03*
X111710000Y-144244000D03*
X99110000Y-128044000D03*
X105410000Y-128044000D03*
X111710000Y-128044000D03*
X189180000Y-128044000D03*
X182880000Y-128044000D03*
X176580000Y-128044000D03*
X189180000Y-144244000D03*
X182880000Y-144244000D03*
X176580000Y-144244000D03*
X189180000Y-84864000D03*
X182880000Y-84864000D03*
X176580000Y-84864000D03*
X189180000Y-101064000D03*
X182880000Y-101064000D03*
X176580000Y-101064000D03*
X189180000Y-106454000D03*
X182880000Y-106454000D03*
X176580000Y-106454000D03*
X189180000Y-122654000D03*
X182880000Y-122654000D03*
X176580000Y-122654000D03*
X189180000Y-62639000D03*
X182880000Y-62639000D03*
X176580000Y-62639000D03*
X189180000Y-78839000D03*
X182880000Y-78839000D03*
X176580000Y-78839000D03*
D17*
X153550000Y-65459000D03*
X146050000Y-65459000D03*
X138550000Y-65459000D03*
X151050000Y-67959000D03*
X141050000Y-67959000D03*
X141050000Y-55459000D03*
X151050000Y-55459000D03*
D18*
X99252000Y-58104000D03*
X189210000Y-57754000D03*
X119410000Y-147554000D03*
X169210000Y-147554000D03*
M02*
