M48
;DRILL file {KiCad 0.201510170916+6271~30~ubuntu14.04.1-product} date Tue 27 Oct 2015 04:17:45 PM CET
;FORMAT={-:-/ absolute / metric / decimal}
FMAT,2
METRIC,TZ
T1C0.400
T2C1.400
T3C1.500
T4C2.100
T5C3.000
%
G90
G05
M71
T1
X116.332Y-98.806
X116.332Y-102.362
X116.586Y-123.444
X116.586Y-126.238
X117.348Y-98.806
X117.348Y-102.362
X117.602Y-83.82
X118.11Y-123.444
X118.11Y-126.238
X118.364Y-84.582
X118.364Y-98.806
X118.364Y-102.362
X119.888Y-81.534
X120.396Y-63.5
X120.396Y-82.55
X120.396Y-97.79
X123.444Y-94.996
X124.944Y-97.519
X127.Y-94.996
X129.032Y-97.028
X135.636Y-70.104
X135.636Y-71.12
X135.636Y-72.136
X140.462Y-70.104
X140.462Y-71.12
X140.462Y-72.136
X140.97Y-108.966
X140.97Y-112.522
X144.018Y-102.108
X148.336Y-102.108
X156.464Y-107.95
X156.718Y-109.728
X157.226Y-100.838
X159.512Y-112.522
X160.02Y-94.996
X161.036Y-94.234
X162.306Y-101.092
X162.56Y-107.696
X164.084Y-93.98
X164.084Y-96.52
X165.354Y-80.772
X169.164Y-81.026
X169.164Y-94.234
X170.434Y-102.108
X170.688Y-97.536
X171.45Y-102.108
X171.704Y-97.028
X172.466Y-96.266
X172.466Y-102.108
X173.482Y-96.266
X176.53Y-97.536
T2
X138.55Y-65.459
X141.05Y-55.459
X141.05Y-67.959
X146.05Y-65.459
X151.05Y-55.459
X151.05Y-67.959
X153.55Y-65.459
T3
X138.43Y-76.454
X138.43Y-78.994
X138.43Y-81.534
X138.43Y-84.074
X138.43Y-86.614
X138.43Y-89.154
X138.43Y-91.694
X138.43Y-94.234
X138.43Y-96.774
X138.43Y-99.314
X138.43Y-101.854
X138.43Y-104.394
X138.43Y-106.934
X138.43Y-109.474
X153.67Y-76.454
X153.67Y-78.994
X153.67Y-81.534
X153.67Y-84.074
X153.67Y-86.614
X153.67Y-89.154
X153.67Y-91.694
X153.67Y-94.234
X153.67Y-96.774
X153.67Y-99.314
X153.67Y-101.854
X153.67Y-104.394
X153.67Y-106.934
X153.67Y-109.474
T4
X99.11Y-62.639
X99.11Y-78.839
X99.11Y-84.864
X99.11Y-101.064
X99.11Y-106.454
X99.11Y-122.654
X99.11Y-128.044
X99.11Y-144.244
X105.41Y-62.639
X105.41Y-78.839
X105.41Y-84.864
X105.41Y-101.064
X105.41Y-106.454
X105.41Y-122.654
X105.41Y-128.044
X105.41Y-144.244
X111.71Y-62.639
X111.71Y-78.839
X111.71Y-84.864
X111.71Y-101.064
X111.71Y-106.454
X111.71Y-122.654
X111.71Y-128.044
X111.71Y-144.244
X176.58Y-62.639
X176.58Y-78.839
X176.58Y-84.864
X176.58Y-101.064
X176.58Y-106.454
X176.58Y-122.654
X176.58Y-128.044
X176.58Y-144.244
X182.88Y-62.639
X182.88Y-78.839
X182.88Y-84.864
X182.88Y-101.064
X182.88Y-106.454
X182.88Y-122.654
X182.88Y-128.044
X182.88Y-144.244
X189.18Y-62.639
X189.18Y-78.839
X189.18Y-84.864
X189.18Y-101.064
X189.18Y-106.454
X189.18Y-122.654
X189.18Y-128.044
X189.18Y-144.244
T5
X99.252Y-58.104
X119.41Y-147.554
X169.21Y-147.554
X189.21Y-57.754
T0
M30
