G04 #@! TF.FileFunction,Copper,L1,Top,Signal*
%FSLAX46Y46*%
G04 Gerber Fmt 4.6, Leading zero omitted, Abs format (unit mm)*
G04 Created by KiCad (PCBNEW 0.201510170916+6271~30~ubuntu14.04.1-product) date Tue 27 Oct 2015 04:17:41 PM CET*
%MOMM*%
G01*
G04 APERTURE LIST*
%ADD10C,0.100000*%
%ADD11C,0.300000*%
%ADD12R,0.419100X1.143000*%
%ADD13C,2.500000*%
%ADD14R,2.000000X2.000000*%
%ADD15C,2.000000*%
%ADD16R,1.250000X1.500000*%
%ADD17R,0.450000X0.590000*%
%ADD18R,0.590000X0.450000*%
%ADD19R,1.300000X1.500000*%
%ADD20R,3.250000X1.900000*%
%ADD21R,0.950000X1.900000*%
%ADD22R,2.032000X1.524000*%
%ADD23C,1.700000*%
%ADD24C,0.600000*%
%ADD25C,0.500000*%
%ADD26C,0.250000*%
%ADD27C,0.254000*%
G04 APERTURE END LIST*
D10*
D11*
X105473715Y-57574571D02*
X105473715Y-56074571D01*
X105830858Y-56074571D01*
X106045143Y-56146000D01*
X106188001Y-56288857D01*
X106259429Y-56431714D01*
X106330858Y-56717429D01*
X106330858Y-56931714D01*
X106259429Y-57217429D01*
X106188001Y-57360286D01*
X106045143Y-57503143D01*
X105830858Y-57574571D01*
X105473715Y-57574571D01*
X106973715Y-56788857D02*
X107473715Y-56788857D01*
X107688001Y-57574571D02*
X106973715Y-57574571D01*
X106973715Y-56074571D01*
X107688001Y-56074571D01*
X108830858Y-56788857D02*
X108330858Y-56788857D01*
X108330858Y-57574571D02*
X108330858Y-56074571D01*
X109045144Y-56074571D01*
D12*
X128778000Y-93789500D03*
X128143000Y-93789500D03*
X127508000Y-93789500D03*
X126873000Y-93789500D03*
X126238000Y-93789500D03*
X125603000Y-93789500D03*
X124968000Y-93789500D03*
X124333000Y-93789500D03*
X124333000Y-98742500D03*
X124968000Y-98742500D03*
X125603000Y-98742500D03*
X126238000Y-98742500D03*
X126873000Y-98742500D03*
X127508000Y-98742500D03*
X128143000Y-98742500D03*
X128778000Y-98742500D03*
D13*
X99110000Y-101064000D03*
X105410000Y-101064000D03*
X111710000Y-101064000D03*
X99110000Y-84864000D03*
X105410000Y-84864000D03*
X111710000Y-84864000D03*
D14*
X153670000Y-76454000D03*
D15*
X153670000Y-78994000D03*
X153670000Y-81534000D03*
X153670000Y-84074000D03*
X153670000Y-86614000D03*
X153670000Y-89154000D03*
X153670000Y-91694000D03*
X153670000Y-94234000D03*
X153670000Y-96774000D03*
X153670000Y-99314000D03*
X153670000Y-101854000D03*
X153670000Y-104394000D03*
X153670000Y-106934000D03*
X153670000Y-109474000D03*
X138430000Y-109474000D03*
X138430000Y-106934000D03*
X138430000Y-104394000D03*
X138430000Y-101854000D03*
X138430000Y-99314000D03*
X138430000Y-96774000D03*
X138430000Y-94234000D03*
X138430000Y-91694000D03*
X138430000Y-89154000D03*
X138430000Y-86614000D03*
X138430000Y-84074000D03*
X138430000Y-81534000D03*
X138430000Y-78994000D03*
X138430000Y-76454000D03*
D16*
X121920000Y-95270000D03*
X121920000Y-97770000D03*
X167386000Y-96754000D03*
X167386000Y-94254000D03*
X131445000Y-61194000D03*
X131445000Y-58694000D03*
D17*
X101092000Y-65239000D03*
X101092000Y-67349000D03*
D18*
X109005000Y-72009000D03*
X106895000Y-72009000D03*
D17*
X101092000Y-108673000D03*
X101092000Y-110783000D03*
D18*
X109005000Y-115189000D03*
X106895000Y-115189000D03*
D17*
X101092000Y-87083000D03*
X101092000Y-89193000D03*
D18*
X109005000Y-93599000D03*
X106895000Y-93599000D03*
D17*
X100838000Y-130771000D03*
X100838000Y-132881000D03*
D18*
X109005000Y-137414000D03*
X106895000Y-137414000D03*
D17*
X187452000Y-141517000D03*
X187452000Y-139407000D03*
D18*
X179285000Y-134874000D03*
X181395000Y-134874000D03*
D17*
X187452000Y-97575000D03*
X187452000Y-95465000D03*
D18*
X179285000Y-91059000D03*
X181395000Y-91059000D03*
D17*
X187452000Y-119419000D03*
X187452000Y-117309000D03*
D18*
X179285000Y-112649000D03*
X181395000Y-112649000D03*
D17*
X187706000Y-76239000D03*
X187706000Y-74129000D03*
D18*
X179539000Y-69342000D03*
X181649000Y-69342000D03*
D13*
X99110000Y-78839000D03*
X105410000Y-78839000D03*
X111710000Y-78839000D03*
X99110000Y-62639000D03*
X105410000Y-62639000D03*
X111710000Y-62639000D03*
X99110000Y-122654000D03*
X105410000Y-122654000D03*
X111710000Y-122654000D03*
X99110000Y-106454000D03*
X105410000Y-106454000D03*
X111710000Y-106454000D03*
X99110000Y-144244000D03*
X105410000Y-144244000D03*
X111710000Y-144244000D03*
X99110000Y-128044000D03*
X105410000Y-128044000D03*
X111710000Y-128044000D03*
X189180000Y-128044000D03*
X182880000Y-128044000D03*
X176580000Y-128044000D03*
X189180000Y-144244000D03*
X182880000Y-144244000D03*
X176580000Y-144244000D03*
X189180000Y-84864000D03*
X182880000Y-84864000D03*
X176580000Y-84864000D03*
X189180000Y-101064000D03*
X182880000Y-101064000D03*
X176580000Y-101064000D03*
X189180000Y-106454000D03*
X182880000Y-106454000D03*
X176580000Y-106454000D03*
X189180000Y-122654000D03*
X182880000Y-122654000D03*
X176580000Y-122654000D03*
X189180000Y-62639000D03*
X182880000Y-62639000D03*
X176580000Y-62639000D03*
X189180000Y-78839000D03*
X182880000Y-78839000D03*
X176580000Y-78839000D03*
D19*
X104775000Y-69389000D03*
X104775000Y-72089000D03*
X104775000Y-112569000D03*
X104775000Y-115269000D03*
X104775000Y-90979000D03*
X104775000Y-93679000D03*
X104775000Y-134794000D03*
X104775000Y-137494000D03*
X98425000Y-69389000D03*
X98425000Y-72089000D03*
X98425000Y-112569000D03*
X98425000Y-115269000D03*
X98425000Y-90979000D03*
X98425000Y-93679000D03*
X98425000Y-134794000D03*
X98425000Y-137494000D03*
X100965000Y-72089000D03*
X100965000Y-69389000D03*
X100965000Y-115269000D03*
X100965000Y-112569000D03*
X100965000Y-93679000D03*
X100965000Y-90979000D03*
X100965000Y-137494000D03*
X100965000Y-134794000D03*
X183515000Y-137494000D03*
X183515000Y-134794000D03*
X183515000Y-93679000D03*
X183515000Y-90979000D03*
X183515000Y-115269000D03*
X183515000Y-112569000D03*
X183642000Y-72216000D03*
X183642000Y-69516000D03*
X189865000Y-137494000D03*
X189865000Y-134794000D03*
X189865000Y-93679000D03*
X189865000Y-90979000D03*
X189865000Y-115269000D03*
X189865000Y-112569000D03*
X189992000Y-72216000D03*
X189992000Y-69516000D03*
X187325000Y-134794000D03*
X187325000Y-137494000D03*
X187325000Y-90979000D03*
X187325000Y-93679000D03*
X187325000Y-112569000D03*
X187325000Y-115269000D03*
X187706000Y-69516000D03*
X187706000Y-72216000D03*
X138430000Y-73232000D03*
X138430000Y-70532000D03*
X156845000Y-79074000D03*
X156845000Y-76374000D03*
D20*
X126365000Y-56894000D03*
D21*
X124065000Y-62994000D03*
X126365000Y-62994000D03*
X128665000Y-62994000D03*
D22*
X120015000Y-58293000D03*
X120015000Y-61595000D03*
D12*
X160274000Y-97726500D03*
X160909000Y-97726500D03*
X161544000Y-97726500D03*
X162179000Y-97726500D03*
X162814000Y-97726500D03*
X163449000Y-97726500D03*
X164084000Y-97726500D03*
X164719000Y-97726500D03*
X164719000Y-92773500D03*
X164084000Y-92773500D03*
X163449000Y-92773500D03*
X162814000Y-92773500D03*
X162179000Y-92773500D03*
X161544000Y-92773500D03*
X160909000Y-92773500D03*
X160274000Y-92773500D03*
D23*
X153550000Y-65459000D03*
X146050000Y-65459000D03*
X138550000Y-65459000D03*
X151050000Y-67959000D03*
X141050000Y-67959000D03*
X141050000Y-55459000D03*
X151050000Y-55459000D03*
D10*
G36*
X102620000Y-90786000D02*
X103120000Y-90786000D01*
X103420000Y-91586000D01*
X102320000Y-91586000D01*
X102620000Y-90786000D01*
X102620000Y-90786000D01*
G37*
G36*
X102320000Y-91802000D02*
X103420000Y-91802000D01*
X103120000Y-92602000D01*
X102620000Y-92602000D01*
X102320000Y-91802000D01*
X102320000Y-91802000D01*
G37*
G36*
X102620000Y-69704000D02*
X103120000Y-69704000D01*
X103420000Y-70504000D01*
X102320000Y-70504000D01*
X102620000Y-69704000D01*
X102620000Y-69704000D01*
G37*
G36*
X102320000Y-70720000D02*
X103420000Y-70720000D01*
X103120000Y-71520000D01*
X102620000Y-71520000D01*
X102320000Y-70720000D01*
X102320000Y-70720000D01*
G37*
G36*
X102620000Y-112376000D02*
X103120000Y-112376000D01*
X103420000Y-113176000D01*
X102320000Y-113176000D01*
X102620000Y-112376000D01*
X102620000Y-112376000D01*
G37*
G36*
X102320000Y-113392000D02*
X103420000Y-113392000D01*
X103120000Y-114192000D01*
X102620000Y-114192000D01*
X102320000Y-113392000D01*
X102320000Y-113392000D01*
G37*
G36*
X102620000Y-134728000D02*
X103120000Y-134728000D01*
X103420000Y-135528000D01*
X102320000Y-135528000D01*
X102620000Y-134728000D01*
X102620000Y-134728000D01*
G37*
G36*
X102320000Y-135744000D02*
X103420000Y-135744000D01*
X103120000Y-136544000D01*
X102620000Y-136544000D01*
X102320000Y-135744000D01*
X102320000Y-135744000D01*
G37*
G36*
X185670000Y-137052000D02*
X185170000Y-137052000D01*
X184870000Y-136252000D01*
X185970000Y-136252000D01*
X185670000Y-137052000D01*
X185670000Y-137052000D01*
G37*
G36*
X185970000Y-136036000D02*
X184870000Y-136036000D01*
X185170000Y-135236000D01*
X185670000Y-135236000D01*
X185970000Y-136036000D01*
X185970000Y-136036000D01*
G37*
G36*
X185670000Y-114827000D02*
X185170000Y-114827000D01*
X184870000Y-114027000D01*
X185970000Y-114027000D01*
X185670000Y-114827000D01*
X185670000Y-114827000D01*
G37*
G36*
X185970000Y-113811000D02*
X184870000Y-113811000D01*
X185170000Y-113011000D01*
X185670000Y-113011000D01*
X185970000Y-113811000D01*
X185970000Y-113811000D01*
G37*
G36*
X185670000Y-93237000D02*
X185170000Y-93237000D01*
X184870000Y-92437000D01*
X185970000Y-92437000D01*
X185670000Y-93237000D01*
X185670000Y-93237000D01*
G37*
G36*
X185970000Y-92221000D02*
X184870000Y-92221000D01*
X185170000Y-91421000D01*
X185670000Y-91421000D01*
X185970000Y-92221000D01*
X185970000Y-92221000D01*
G37*
G36*
X185924000Y-71774000D02*
X185424000Y-71774000D01*
X185124000Y-70974000D01*
X186224000Y-70974000D01*
X185924000Y-71774000D01*
X185924000Y-71774000D01*
G37*
G36*
X186224000Y-70758000D02*
X185124000Y-70758000D01*
X185424000Y-69958000D01*
X185924000Y-69958000D01*
X186224000Y-70758000D01*
X186224000Y-70758000D01*
G37*
G36*
X128655000Y-65449500D02*
X129155000Y-65449500D01*
X129455000Y-66249500D01*
X128355000Y-66249500D01*
X128655000Y-65449500D01*
X128655000Y-65449500D01*
G37*
G36*
X128355000Y-66465500D02*
X129455000Y-66465500D01*
X129155000Y-67265500D01*
X128655000Y-67265500D01*
X128355000Y-66465500D01*
X128355000Y-66465500D01*
G37*
G36*
X126115000Y-65449500D02*
X126615000Y-65449500D01*
X126915000Y-66249500D01*
X125815000Y-66249500D01*
X126115000Y-65449500D01*
X126115000Y-65449500D01*
G37*
G36*
X125815000Y-66465500D02*
X126915000Y-66465500D01*
X126615000Y-67265500D01*
X126115000Y-67265500D01*
X125815000Y-66465500D01*
X125815000Y-66465500D01*
G37*
D24*
X120396000Y-63500000D03*
X169164000Y-94234000D03*
X120396000Y-97790000D03*
X169164000Y-81026000D03*
X165354000Y-80772000D03*
X162306000Y-101092000D03*
X157226000Y-100838000D03*
X156464000Y-107950000D03*
X162560000Y-107696000D03*
X159512000Y-112522000D03*
X156718000Y-109728000D03*
X140462000Y-70104000D03*
X135636000Y-70104000D03*
X140462000Y-71120000D03*
X135636000Y-71120000D03*
X119888000Y-81534000D03*
X117602000Y-83820000D03*
X116332000Y-102362000D03*
X116332000Y-98806000D03*
X118364000Y-84582000D03*
X120396000Y-82550000D03*
X135636000Y-72136000D03*
X140462000Y-72136000D03*
X144018000Y-102108000D03*
X148336000Y-102108000D03*
X140970000Y-112522000D03*
X140970000Y-108966000D03*
X124943973Y-97518838D03*
X129032000Y-97028000D03*
X170688000Y-97536000D03*
X170434000Y-102108000D03*
X164084000Y-93980000D03*
X161036000Y-94234000D03*
X164084000Y-96520000D03*
X160020000Y-94996000D03*
X176530000Y-97536000D03*
X173482000Y-96266000D03*
X123444000Y-94996000D03*
X127000000Y-94996000D03*
X118364000Y-98806000D03*
X118364000Y-102362000D03*
X118110000Y-123444000D03*
X118110000Y-126238000D03*
X171450000Y-102108000D03*
X171704000Y-97028000D03*
X117348000Y-102362000D03*
X117348000Y-98806000D03*
X116586000Y-123444000D03*
X116586000Y-126238000D03*
X172466000Y-102108000D03*
X172466000Y-96266000D03*
D25*
X99060000Y-74422000D02*
X98425000Y-75057000D01*
X98552000Y-74676000D02*
X98425000Y-74676000D01*
X98425000Y-74803000D02*
X98552000Y-74676000D01*
X98425000Y-75057000D02*
X98425000Y-74803000D01*
X99060000Y-74422000D02*
X98425000Y-73787000D01*
X98552000Y-73914000D02*
X98425000Y-73914000D01*
X98425000Y-73787000D02*
X98552000Y-73914000D01*
X104775000Y-72089000D02*
X104775000Y-73787000D01*
X104140000Y-74422000D02*
X99060000Y-74422000D01*
X99060000Y-74422000D02*
X98425000Y-74422000D01*
X104775000Y-73787000D02*
X104140000Y-74422000D01*
X106895000Y-72009000D02*
X104855000Y-72009000D01*
X104855000Y-72009000D02*
X104775000Y-72089000D01*
X98425000Y-72089000D02*
X98425000Y-73914000D01*
X98425000Y-73914000D02*
X98425000Y-74422000D01*
X98425000Y-74422000D02*
X98425000Y-74676000D01*
X98425000Y-74676000D02*
X98425000Y-78154000D01*
X98425000Y-78154000D02*
X99110000Y-78839000D01*
X98806000Y-96266000D02*
X98425000Y-96647000D01*
X98552000Y-96520000D02*
X98425000Y-96520000D01*
X98425000Y-96647000D02*
X98552000Y-96520000D01*
X98806000Y-96266000D02*
X98425000Y-95885000D01*
X98552000Y-96012000D02*
X98425000Y-96012000D01*
X98425000Y-95885000D02*
X98552000Y-96012000D01*
X104775000Y-93679000D02*
X104648000Y-93806000D01*
X104648000Y-93806000D02*
X104648000Y-95250000D01*
X103632000Y-96266000D02*
X98806000Y-96266000D01*
X98806000Y-96266000D02*
X98425000Y-96266000D01*
X104648000Y-95250000D02*
X103632000Y-96266000D01*
X99110000Y-101064000D02*
X98425000Y-100379000D01*
X98425000Y-100379000D02*
X98425000Y-96774000D01*
X98425000Y-96774000D02*
X98425000Y-96520000D01*
X98425000Y-96520000D02*
X98425000Y-96266000D01*
X98425000Y-96266000D02*
X98425000Y-96012000D01*
X98425000Y-96012000D02*
X98425000Y-93679000D01*
X106895000Y-93599000D02*
X104855000Y-93599000D01*
X104855000Y-93599000D02*
X104775000Y-93679000D01*
X99060000Y-117348000D02*
X98425000Y-116713000D01*
X98552000Y-116840000D02*
X98425000Y-116840000D01*
X98425000Y-116713000D02*
X98552000Y-116840000D01*
X98425000Y-117856000D02*
X98552000Y-117856000D01*
X98552000Y-117856000D02*
X99060000Y-117348000D01*
X98806000Y-139700000D02*
X98425000Y-139319000D01*
X98552000Y-139446000D02*
X98425000Y-139446000D01*
X98425000Y-139319000D02*
X98552000Y-139446000D01*
X98425000Y-140208000D02*
X98425000Y-140081000D01*
X98425000Y-140081000D02*
X98806000Y-139700000D01*
X98425000Y-117348000D02*
X99060000Y-117348000D01*
X99060000Y-117348000D02*
X103886000Y-117348000D01*
X103886000Y-117348000D02*
X104775000Y-116459000D01*
X104775000Y-116459000D02*
X104775000Y-115269000D01*
X98425000Y-115269000D02*
X98425000Y-116840000D01*
X98425000Y-116840000D02*
X98425000Y-117348000D01*
X98425000Y-117348000D02*
X98425000Y-117856000D01*
X98425000Y-117856000D02*
X98425000Y-121969000D01*
X98425000Y-121969000D02*
X99110000Y-122654000D01*
X106895000Y-115189000D02*
X104855000Y-115189000D01*
X104855000Y-115189000D02*
X104775000Y-115269000D01*
X98425000Y-139700000D02*
X98806000Y-139700000D01*
X98806000Y-139700000D02*
X103632000Y-139700000D01*
X103632000Y-139700000D02*
X104775000Y-138557000D01*
X104775000Y-138557000D02*
X104775000Y-137494000D01*
X98425000Y-137494000D02*
X98425000Y-139446000D01*
X98425000Y-139446000D02*
X98425000Y-139700000D01*
X98425000Y-139700000D02*
X98425000Y-140208000D01*
X98425000Y-140208000D02*
X98425000Y-143559000D01*
X98425000Y-143559000D02*
X99110000Y-144244000D01*
X106895000Y-137414000D02*
X104855000Y-137414000D01*
X104855000Y-137414000D02*
X104775000Y-137494000D01*
X183515000Y-134794000D02*
X181475000Y-134794000D01*
X181475000Y-134794000D02*
X181395000Y-134874000D01*
X189484000Y-132334000D02*
X189865000Y-132715000D01*
X189738000Y-132588000D02*
X189865000Y-132588000D01*
X189865000Y-132715000D02*
X189738000Y-132588000D01*
X189484000Y-132334000D02*
X189865000Y-131953000D01*
X189738000Y-132080000D02*
X189865000Y-132080000D01*
X189865000Y-131953000D02*
X189738000Y-132080000D01*
X183515000Y-134794000D02*
X183515000Y-133223000D01*
X184404000Y-132334000D02*
X189484000Y-132334000D01*
X189484000Y-132334000D02*
X189865000Y-132334000D01*
X183515000Y-133223000D02*
X184404000Y-132334000D01*
X189180000Y-128044000D02*
X189865000Y-128729000D01*
X189865000Y-128729000D02*
X189865000Y-132080000D01*
X189865000Y-132080000D02*
X189865000Y-132334000D01*
X189865000Y-132334000D02*
X189865000Y-132588000D01*
X189865000Y-132588000D02*
X189865000Y-134794000D01*
X183515000Y-112569000D02*
X183435000Y-112649000D01*
X183435000Y-112649000D02*
X181395000Y-112649000D01*
X189865000Y-110998000D02*
X189357000Y-110490000D01*
X189865000Y-109982000D02*
X189357000Y-110490000D01*
X189357000Y-110490000D02*
X189230000Y-110490000D01*
X183515000Y-112569000D02*
X183515000Y-111125000D01*
X183515000Y-111125000D02*
X184150000Y-110490000D01*
X184150000Y-110490000D02*
X189230000Y-110490000D01*
X189230000Y-110490000D02*
X189865000Y-110490000D01*
X189865000Y-112569000D02*
X189865000Y-110998000D01*
X189865000Y-110998000D02*
X189865000Y-110490000D01*
X189865000Y-110490000D02*
X189865000Y-109982000D01*
X189865000Y-109982000D02*
X189865000Y-107139000D01*
X189865000Y-107139000D02*
X189180000Y-106454000D01*
X181395000Y-91059000D02*
X183435000Y-91059000D01*
X183435000Y-91059000D02*
X183515000Y-90979000D01*
X189865000Y-89154000D02*
X189738000Y-89154000D01*
X189738000Y-89154000D02*
X189484000Y-88900000D01*
X189484000Y-88900000D02*
X189865000Y-88519000D01*
X189865000Y-88519000D02*
X189738000Y-88646000D01*
X189738000Y-88646000D02*
X189865000Y-88646000D01*
X183515000Y-90979000D02*
X183642000Y-90852000D01*
X183642000Y-90852000D02*
X183642000Y-89408000D01*
X183642000Y-89408000D02*
X184150000Y-88900000D01*
X184150000Y-88900000D02*
X189484000Y-88900000D01*
X189484000Y-88900000D02*
X189865000Y-88900000D01*
X189180000Y-84864000D02*
X189865000Y-85549000D01*
X189865000Y-85549000D02*
X189865000Y-88646000D01*
X189865000Y-88646000D02*
X189865000Y-88900000D01*
X189865000Y-88900000D02*
X189865000Y-89154000D01*
X189865000Y-89154000D02*
X189865000Y-90979000D01*
X181649000Y-69342000D02*
X183468000Y-69342000D01*
X183468000Y-69342000D02*
X183642000Y-69516000D01*
X183642000Y-69516000D02*
X183468000Y-69342000D01*
X189484000Y-67564000D02*
X189992000Y-67056000D01*
X189992000Y-68072000D02*
X189484000Y-67564000D01*
X183642000Y-69516000D02*
X183642000Y-68326000D01*
X183642000Y-68326000D02*
X184404000Y-67564000D01*
X184404000Y-67564000D02*
X189484000Y-67564000D01*
X189484000Y-67564000D02*
X189992000Y-67564000D01*
X189180000Y-62639000D02*
X189992000Y-63451000D01*
X189992000Y-63451000D02*
X189992000Y-67056000D01*
X189992000Y-67056000D02*
X189992000Y-67564000D01*
X189992000Y-67564000D02*
X189992000Y-68072000D01*
X189992000Y-68072000D02*
X189992000Y-69516000D01*
X131445000Y-58694000D02*
X139285000Y-58694000D01*
X139285000Y-58694000D02*
X146050000Y-65459000D01*
X124065000Y-62994000D02*
X123696000Y-62994000D01*
X123696000Y-62994000D02*
X123190000Y-63500000D01*
X123190000Y-63500000D02*
X120396000Y-63500000D01*
X120396000Y-63500000D02*
X120015000Y-63119000D01*
X120015000Y-63119000D02*
X120015000Y-61595000D01*
D26*
X162179000Y-94107000D02*
X162179000Y-94361000D01*
X162560000Y-94742000D02*
X166898000Y-94742000D01*
X162179000Y-94361000D02*
X162560000Y-94742000D01*
X166898000Y-94742000D02*
X167386000Y-94254000D01*
X162179000Y-92773500D02*
X162179000Y-94107000D01*
X167152000Y-94488000D02*
X167386000Y-94254000D01*
X167386000Y-94254000D02*
X169144000Y-94254000D01*
X169144000Y-94254000D02*
X169164000Y-94234000D01*
X126873000Y-97663000D02*
X126873000Y-96521398D01*
X124395801Y-95568199D02*
X124206000Y-95758000D01*
X125919801Y-95568199D02*
X124395801Y-95568199D01*
X126873000Y-96521398D02*
X125919801Y-95568199D01*
X121920000Y-97770000D02*
X122408000Y-97282000D01*
X122408000Y-97282000D02*
X122682000Y-97282000D01*
X126873000Y-97663000D02*
X126873000Y-97790000D01*
X126873000Y-97790000D02*
X126873000Y-98742500D01*
X123698000Y-96266000D02*
X124206000Y-95758000D01*
X122682000Y-97282000D02*
X123698000Y-96266000D01*
X126873000Y-98742500D02*
X126935801Y-98679699D01*
X122174000Y-97770000D02*
X120416000Y-97770000D01*
X120416000Y-97770000D02*
X120396000Y-97790000D01*
X98298000Y-93806000D02*
X98425000Y-93679000D01*
X104855000Y-93599000D02*
X104775000Y-93679000D01*
X98298000Y-121842000D02*
X99110000Y-122654000D01*
X98298000Y-115396000D02*
X98425000Y-115269000D01*
X104855000Y-115189000D02*
X104775000Y-115269000D01*
X98298000Y-143432000D02*
X99110000Y-144244000D01*
X98298000Y-137621000D02*
X98425000Y-137494000D01*
X106895000Y-137414000D02*
X106815000Y-137494000D01*
X98298000Y-78027000D02*
X99110000Y-78839000D01*
X98298000Y-72216000D02*
X98425000Y-72089000D01*
X98425000Y-78154000D02*
X99110000Y-78839000D01*
X104855000Y-72009000D02*
X104775000Y-72089000D01*
X189738000Y-90852000D02*
X189865000Y-90979000D01*
X189738000Y-85422000D02*
X189180000Y-84864000D01*
X189992000Y-112442000D02*
X189865000Y-112569000D01*
X189992000Y-107266000D02*
X189180000Y-106454000D01*
X189992000Y-134667000D02*
X189865000Y-134794000D01*
X189992000Y-128856000D02*
X189180000Y-128044000D01*
X183515000Y-134794000D02*
X183642000Y-134667000D01*
X181395000Y-134874000D02*
X181475000Y-134794000D01*
X183435000Y-91059000D02*
X183515000Y-90979000D01*
X104775000Y-137494000D02*
X104775000Y-137944000D01*
X162052000Y-84074000D02*
X165354000Y-80772000D01*
X153670000Y-84074000D02*
X162052000Y-84074000D01*
X187501000Y-80518000D02*
X189180000Y-78839000D01*
X169672000Y-80518000D02*
X187501000Y-80518000D01*
X169164000Y-81026000D02*
X169672000Y-80518000D01*
X189180000Y-101064000D02*
X189180000Y-101142000D01*
X189180000Y-101142000D02*
X187452000Y-102870000D01*
X187452000Y-102870000D02*
X174752000Y-102870000D01*
X174752000Y-102870000D02*
X172974000Y-101092000D01*
X172974000Y-101092000D02*
X162306000Y-101092000D01*
X157226000Y-100838000D02*
X157226000Y-92456000D01*
X157226000Y-92456000D02*
X157226000Y-87376000D01*
X157226000Y-87376000D02*
X156464000Y-86614000D01*
X156464000Y-86614000D02*
X153670000Y-86614000D01*
X189180000Y-122654000D02*
X186408000Y-122654000D01*
X155702000Y-89154000D02*
X153670000Y-89154000D01*
X156464000Y-89916000D02*
X155702000Y-89154000D01*
X156464000Y-93472000D02*
X156464000Y-89916000D01*
X156464000Y-96012000D02*
X156464000Y-93472000D01*
X156464000Y-107950000D02*
X156464000Y-96012000D01*
X162560000Y-111252000D02*
X162560000Y-107696000D01*
X171450000Y-120142000D02*
X162560000Y-111252000D01*
X183896000Y-120142000D02*
X171450000Y-120142000D01*
X186408000Y-122654000D02*
X183896000Y-120142000D01*
X159512000Y-114046000D02*
X159512000Y-114554000D01*
X159512000Y-114554000D02*
X173228000Y-128270000D01*
X155702000Y-108712000D02*
X156718000Y-109728000D01*
X173228000Y-128270000D02*
X173228000Y-133096000D01*
X159512000Y-112522000D02*
X159512000Y-114046000D01*
X184150000Y-142240000D02*
X182372000Y-142240000D01*
X182372000Y-142240000D02*
X173228000Y-133096000D01*
X184150000Y-142240000D02*
X184404000Y-142240000D01*
X184404000Y-142240000D02*
X186408000Y-144244000D01*
X186408000Y-144244000D02*
X189180000Y-144244000D01*
X153670000Y-91694000D02*
X153670000Y-91948000D01*
X153670000Y-91948000D02*
X155702000Y-93980000D01*
X155702000Y-93980000D02*
X155702000Y-108712000D01*
X121666000Y-70104000D02*
X119888000Y-71882000D01*
X112014000Y-71882000D02*
X106934000Y-66802000D01*
X119888000Y-71882000D02*
X112014000Y-71882000D01*
X121666000Y-70104000D02*
X135636000Y-70104000D01*
X150368000Y-94234000D02*
X153670000Y-94234000D01*
X147574000Y-91440000D02*
X150368000Y-94234000D01*
X147574000Y-77216000D02*
X147574000Y-91440000D01*
X140462000Y-70104000D02*
X147574000Y-77216000D01*
X99110000Y-62639000D02*
X101501000Y-62639000D01*
X105664000Y-66802000D02*
X106934000Y-66802000D01*
X101501000Y-62639000D02*
X105664000Y-66802000D01*
X106172000Y-86614000D02*
X114808000Y-86614000D01*
X102644000Y-84864000D02*
X102588000Y-84864000D01*
X104394000Y-86614000D02*
X102644000Y-84864000D01*
X106172000Y-86614000D02*
X104394000Y-86614000D01*
X133858000Y-71120000D02*
X121920000Y-71120000D01*
X151638000Y-96774000D02*
X146812000Y-91948000D01*
X146812000Y-91948000D02*
X146812000Y-77470000D01*
X146812000Y-77470000D02*
X140462000Y-71120000D01*
X135636000Y-71120000D02*
X133858000Y-71120000D01*
X153670000Y-96774000D02*
X151638000Y-96774000D01*
X119888000Y-73152000D02*
X119888000Y-81534000D01*
X121920000Y-71120000D02*
X119888000Y-73152000D01*
X114808000Y-86614000D02*
X117602000Y-83820000D01*
X99110000Y-84864000D02*
X102588000Y-84864000D01*
X153670000Y-99314000D02*
X152146000Y-99314000D01*
X101424000Y-104140000D02*
X99110000Y-106454000D01*
X114554000Y-104140000D02*
X101424000Y-104140000D01*
X116332000Y-102362000D02*
X114554000Y-104140000D01*
X116332000Y-86614000D02*
X116332000Y-98806000D01*
X118364000Y-84582000D02*
X116332000Y-86614000D01*
X120650000Y-82296000D02*
X120396000Y-82550000D01*
X120650000Y-74168000D02*
X120650000Y-82296000D01*
X122682000Y-72136000D02*
X120650000Y-74168000D01*
X125730000Y-72136000D02*
X122682000Y-72136000D01*
X135636000Y-72136000D02*
X125730000Y-72136000D01*
X146050000Y-77724000D02*
X140462000Y-72136000D01*
X146050000Y-93218000D02*
X146050000Y-77724000D01*
X152146000Y-99314000D02*
X146050000Y-93218000D01*
X143002000Y-109220000D02*
X143510000Y-108712000D01*
X143510000Y-102616000D02*
X144018000Y-102108000D01*
X143510000Y-108712000D02*
X143510000Y-102616000D01*
X153416000Y-102108000D02*
X150114000Y-102108000D01*
X127000000Y-125222000D02*
X142367000Y-109855000D01*
X142367000Y-109855000D02*
X142494000Y-109728000D01*
X101572000Y-128044000D02*
X99110000Y-128044000D01*
X104394000Y-125222000D02*
X127000000Y-125222000D01*
X101572000Y-128044000D02*
X104394000Y-125222000D01*
X142494000Y-109728000D02*
X143002000Y-109220000D01*
X148336000Y-102108000D02*
X150114000Y-102108000D01*
X153416000Y-102108000D02*
X153670000Y-101854000D01*
X112268000Y-146558000D02*
X114300000Y-146558000D01*
X117602000Y-128016000D02*
X119380000Y-126238000D01*
X117602000Y-143256000D02*
X117602000Y-128016000D01*
X114300000Y-146558000D02*
X117602000Y-143256000D01*
X140970000Y-112522000D02*
X133604000Y-119888000D01*
X138430000Y-101854000D02*
X140208000Y-101854000D01*
X140970000Y-102616000D02*
X140970000Y-108966000D01*
X140208000Y-101854000D02*
X140970000Y-102616000D01*
X133604000Y-119888000D02*
X127254000Y-126238000D01*
X127254000Y-126238000D02*
X119380000Y-126238000D01*
X112268000Y-146558000D02*
X110998000Y-146558000D01*
X107950000Y-143510000D02*
X110998000Y-146558000D01*
X103124000Y-137160000D02*
X102870000Y-137160000D01*
X103124000Y-137160000D02*
X104140000Y-136144000D01*
X104140000Y-136144000D02*
X106934000Y-136144000D01*
X106934000Y-136144000D02*
X107950000Y-137160000D01*
X107950000Y-137160000D02*
X107950000Y-143510000D01*
X128778000Y-98742500D02*
X133540500Y-98742500D01*
X136652000Y-101854000D02*
X138430000Y-101854000D01*
X133540500Y-98742500D02*
X136652000Y-101854000D01*
X102870000Y-136093200D02*
X102870000Y-137160000D01*
X102870000Y-137160000D02*
X102870000Y-137414000D01*
X102870000Y-137414000D02*
X102362000Y-137922000D01*
X102362000Y-137922000D02*
X101393000Y-137922000D01*
X101393000Y-137922000D02*
X100965000Y-137494000D01*
X124968000Y-93789500D02*
X124968000Y-94488000D01*
X136906000Y-97790000D02*
X138430000Y-99314000D01*
X128778000Y-97790000D02*
X136906000Y-97790000D01*
X125984000Y-94996000D02*
X128778000Y-97790000D01*
X125476000Y-94996000D02*
X125984000Y-94996000D01*
X124968000Y-94488000D02*
X125476000Y-94996000D01*
X141224000Y-109982000D02*
X141986000Y-109220000D01*
X140970000Y-99314000D02*
X138430000Y-99314000D01*
X141986000Y-100330000D02*
X140970000Y-99314000D01*
X141986000Y-109220000D02*
X141986000Y-100330000D01*
X103124000Y-114808000D02*
X102870000Y-115062000D01*
X103124000Y-114808000D02*
X102870000Y-114554000D01*
X107950000Y-116840000D02*
X107950000Y-122428000D01*
X103124000Y-114808000D02*
X103886000Y-114046000D01*
X103886000Y-114046000D02*
X107442000Y-114046000D01*
X107442000Y-114046000D02*
X107950000Y-114554000D01*
X107950000Y-114554000D02*
X107950000Y-116840000D01*
X102870000Y-114808000D02*
X103124000Y-114808000D01*
X126746000Y-124460000D02*
X141224000Y-109982000D01*
X109982000Y-124460000D02*
X126746000Y-124460000D01*
X107950000Y-122428000D02*
X109982000Y-124460000D01*
X100965000Y-115269000D02*
X100965000Y-114681000D01*
X102870000Y-113741200D02*
X102870000Y-114554000D01*
X102870000Y-114554000D02*
X102870000Y-114808000D01*
X102870000Y-114808000D02*
X102870000Y-115062000D01*
X102870000Y-115062000D02*
X102870000Y-115316000D01*
X102870000Y-115316000D02*
X102362000Y-115824000D01*
X102362000Y-115824000D02*
X102108000Y-115824000D01*
X102108000Y-115824000D02*
X101520000Y-115824000D01*
X101520000Y-115824000D02*
X100965000Y-115269000D01*
X101266000Y-115570000D02*
X100965000Y-115269000D01*
X123190000Y-100584000D02*
X122682000Y-100584000D01*
X114046000Y-101600000D02*
X112522000Y-103124000D01*
X121666000Y-101600000D02*
X114046000Y-101600000D01*
X122682000Y-100584000D02*
X121666000Y-101600000D01*
X124968000Y-99568000D02*
X124968000Y-99822000D01*
X124968000Y-99822000D02*
X124206000Y-100584000D01*
X124206000Y-100584000D02*
X123190000Y-100584000D01*
X107950000Y-100330000D02*
X110744000Y-103124000D01*
X110744000Y-103124000D02*
X112522000Y-103124000D01*
X124968000Y-99568000D02*
X124968000Y-98742500D01*
X129032000Y-97028000D02*
X138176000Y-97028000D01*
X124968000Y-98742500D02*
X124943973Y-97518838D01*
X138176000Y-97028000D02*
X138430000Y-96774000D01*
X102362000Y-94234000D02*
X101520000Y-94234000D01*
X102870000Y-93726000D02*
X102362000Y-94234000D01*
X101520000Y-94234000D02*
X100965000Y-93679000D01*
X107950000Y-95758000D02*
X107950000Y-100330000D01*
X103124000Y-93218000D02*
X103886000Y-92456000D01*
X103886000Y-92456000D02*
X107442000Y-92456000D01*
X107442000Y-92456000D02*
X107950000Y-92964000D01*
X107950000Y-92964000D02*
X107950000Y-95758000D01*
X103124000Y-93218000D02*
X102870000Y-92964000D01*
X103124000Y-93218000D02*
X102870000Y-93472000D01*
X102870000Y-93218000D02*
X103124000Y-93218000D01*
X102870000Y-92151200D02*
X102870000Y-92964000D01*
X102870000Y-92964000D02*
X102870000Y-93218000D01*
X102870000Y-93218000D02*
X102870000Y-93472000D01*
X102870000Y-93472000D02*
X102870000Y-93726000D01*
X128778000Y-91948000D02*
X110744000Y-73914000D01*
X110744000Y-73914000D02*
X109982000Y-73152000D01*
X103124000Y-71882000D02*
X102870000Y-71628000D01*
X103124000Y-71882000D02*
X102870000Y-72136000D01*
X102870000Y-71882000D02*
X103124000Y-71882000D01*
X103124000Y-71882000D02*
X103378000Y-71882000D01*
X103886000Y-70866000D02*
X105156000Y-70866000D01*
X105156000Y-70866000D02*
X107696000Y-70866000D01*
X107696000Y-70866000D02*
X107950000Y-71120000D01*
X107950000Y-71120000D02*
X107950000Y-72898000D01*
X107950000Y-72898000D02*
X108204000Y-73152000D01*
X108204000Y-73152000D02*
X109982000Y-73152000D01*
X103632000Y-71120000D02*
X103886000Y-70866000D01*
X103378000Y-71882000D02*
X103632000Y-71628000D01*
X103632000Y-71628000D02*
X103632000Y-71120000D01*
X128778000Y-91948000D02*
X128778000Y-93789500D01*
X128778000Y-93789500D02*
X137985500Y-93789500D01*
X137985500Y-93789500D02*
X138430000Y-94234000D01*
X102870000Y-71069200D02*
X102870000Y-71120000D01*
X102870000Y-71120000D02*
X102870000Y-71628000D01*
X102870000Y-71628000D02*
X102870000Y-71882000D01*
X102870000Y-71882000D02*
X102870000Y-72136000D01*
X102489000Y-72517000D02*
X101393000Y-72517000D01*
X102870000Y-72136000D02*
X102489000Y-72517000D01*
X101393000Y-72517000D02*
X100965000Y-72089000D01*
X102870000Y-71247000D02*
X102870000Y-71069200D01*
X157226000Y-113538000D02*
X149606000Y-113538000D01*
X149606000Y-113538000D02*
X144780000Y-108712000D01*
X160020000Y-110744000D02*
X157226000Y-113538000D01*
X140716000Y-91694000D02*
X138430000Y-91694000D01*
X143002000Y-93980000D02*
X140716000Y-91694000D01*
X143002000Y-96012000D02*
X143002000Y-93980000D01*
X144780000Y-97790000D02*
X143002000Y-96012000D01*
X144780000Y-108712000D02*
X144780000Y-97790000D01*
X160020000Y-110744000D02*
X160274000Y-110998000D01*
X160020000Y-110744000D02*
X160274000Y-110490000D01*
X160274000Y-114046000D02*
X174244000Y-128016000D01*
X160274000Y-112014000D02*
X160274000Y-112268000D01*
X160274000Y-110998000D02*
X160274000Y-112014000D01*
X160274000Y-112268000D02*
X160274000Y-112522000D01*
X160274000Y-112522000D02*
X160274000Y-113792000D01*
X184404000Y-136144000D02*
X178054000Y-136144000D01*
X184658000Y-135890000D02*
X184404000Y-136144000D01*
X184658000Y-135128000D02*
X184658000Y-135890000D01*
X184912000Y-134874000D02*
X184658000Y-135128000D01*
X185166000Y-134874000D02*
X184912000Y-134874000D01*
X174244000Y-128524000D02*
X174244000Y-132334000D01*
X174244000Y-132334000D02*
X178054000Y-136144000D01*
X160274000Y-113792000D02*
X160274000Y-114046000D01*
X174244000Y-128016000D02*
X174244000Y-128524000D01*
X185166000Y-134874000D02*
X185420000Y-135128000D01*
X185166000Y-134874000D02*
X185420000Y-134620000D01*
X185420000Y-134874000D02*
X185166000Y-134874000D01*
X160274000Y-97726500D02*
X160274000Y-110490000D01*
X160274000Y-110490000D02*
X160274000Y-110998000D01*
X185420000Y-135686800D02*
X185420000Y-135128000D01*
X185420000Y-135128000D02*
X185420000Y-134874000D01*
X185420000Y-134874000D02*
X185420000Y-134620000D01*
X185674000Y-134366000D02*
X186897000Y-134366000D01*
X185420000Y-134620000D02*
X185674000Y-134366000D01*
X186897000Y-134366000D02*
X187325000Y-134794000D01*
X185166000Y-112522000D02*
X185420000Y-112776000D01*
X185420000Y-112268000D02*
X185420000Y-112522000D01*
X185166000Y-112522000D02*
X185420000Y-112268000D01*
X185420000Y-112268000D02*
X185674000Y-112014000D01*
X185674000Y-112014000D02*
X185928000Y-112014000D01*
X185420000Y-112522000D02*
X185166000Y-112522000D01*
X164084000Y-91948000D02*
X164592000Y-91440000D01*
X164592000Y-91440000D02*
X167894000Y-91440000D01*
X167894000Y-91440000D02*
X170688000Y-94234000D01*
X170688000Y-94234000D02*
X170688000Y-97536000D01*
X170434000Y-102108000D02*
X173736000Y-105410000D01*
X173736000Y-105410000D02*
X173736000Y-109728000D01*
X173736000Y-109728000D02*
X177546000Y-113538000D01*
X164084000Y-91948000D02*
X164084000Y-92773500D01*
X177800000Y-113792000D02*
X177546000Y-113538000D01*
X184404000Y-113792000D02*
X177800000Y-113792000D01*
X184658000Y-113538000D02*
X184404000Y-113792000D01*
X184658000Y-113030000D02*
X184658000Y-113538000D01*
X185166000Y-112522000D02*
X184658000Y-113030000D01*
X150114000Y-112522000D02*
X157226000Y-112522000D01*
X146050000Y-108458000D02*
X146050000Y-97536000D01*
X146050000Y-97536000D02*
X143764000Y-95250000D01*
X143764000Y-95250000D02*
X143764000Y-90932000D01*
X143764000Y-90932000D02*
X141986000Y-89154000D01*
X141986000Y-89154000D02*
X138430000Y-89154000D01*
X161036000Y-94234000D02*
X160782000Y-94488000D01*
X160782000Y-94488000D02*
X160782000Y-95250000D01*
X164084000Y-92773500D02*
X164084000Y-93980000D01*
X159258000Y-110490000D02*
X157226000Y-112522000D01*
X159258000Y-97028000D02*
X159258000Y-110490000D01*
X160782000Y-95504000D02*
X159258000Y-97028000D01*
X160782000Y-95250000D02*
X160782000Y-95504000D01*
X150114000Y-112522000D02*
X146050000Y-108458000D01*
X185420000Y-113461800D02*
X185420000Y-112776000D01*
X185420000Y-112776000D02*
X185420000Y-112522000D01*
X185928000Y-112014000D02*
X186770000Y-112014000D01*
X186770000Y-112014000D02*
X187325000Y-112569000D01*
X187024000Y-112268000D02*
X187325000Y-112569000D01*
X156718000Y-111760000D02*
X150876000Y-111760000D01*
X144526000Y-88392000D02*
X142748000Y-86614000D01*
X150876000Y-111760000D02*
X146812000Y-107696000D01*
X146812000Y-107696000D02*
X146812000Y-97282000D01*
X142748000Y-86614000D02*
X138430000Y-86614000D01*
X146812000Y-97028000D02*
X144780000Y-94996000D01*
X146812000Y-97282000D02*
X146812000Y-97028000D01*
X144526000Y-94742000D02*
X144526000Y-88392000D01*
X144780000Y-94996000D02*
X144526000Y-94742000D01*
X156972000Y-111506000D02*
X156718000Y-111760000D01*
X160020000Y-94996000D02*
X158496000Y-96520000D01*
X158496000Y-96520000D02*
X158496000Y-109982000D01*
X158496000Y-109982000D02*
X156972000Y-111506000D01*
X164084000Y-97726500D02*
X164084000Y-96520000D01*
X164084000Y-97726500D02*
X164084000Y-98806000D01*
X187325000Y-91821000D02*
X187325000Y-90979000D01*
X187706000Y-92202000D02*
X187325000Y-91821000D01*
X191008000Y-92202000D02*
X187706000Y-92202000D01*
X191516000Y-91694000D02*
X191008000Y-92202000D01*
X191516000Y-84836000D02*
X191516000Y-91694000D01*
X189738000Y-83058000D02*
X191516000Y-84836000D01*
X175514000Y-83058000D02*
X189738000Y-83058000D01*
X174244000Y-84328000D02*
X175514000Y-83058000D01*
X174244000Y-96520000D02*
X174244000Y-84328000D01*
X171704000Y-99060000D02*
X174244000Y-96520000D01*
X164338000Y-99060000D02*
X171704000Y-99060000D01*
X164084000Y-98806000D02*
X164338000Y-99060000D01*
X185420000Y-91871800D02*
X185420000Y-90932000D01*
X185928000Y-90424000D02*
X186770000Y-90424000D01*
X185420000Y-90932000D02*
X185928000Y-90424000D01*
X186770000Y-90424000D02*
X187325000Y-90979000D01*
X156210000Y-110998000D02*
X156464000Y-110998000D01*
X156464000Y-110998000D02*
X157988000Y-109474000D01*
X156210000Y-110998000D02*
X151130000Y-110998000D01*
X158940500Y-92773500D02*
X160274000Y-92773500D01*
X157988000Y-93726000D02*
X158940500Y-92773500D01*
X157988000Y-109474000D02*
X157988000Y-93726000D01*
X147574000Y-107442000D02*
X147574000Y-96266000D01*
X142494000Y-84074000D02*
X138430000Y-84074000D01*
X145288000Y-86868000D02*
X142494000Y-84074000D01*
X145288000Y-93980000D02*
X145288000Y-86868000D01*
X147574000Y-96266000D02*
X145288000Y-93980000D01*
X151130000Y-110998000D02*
X147574000Y-107442000D01*
X187706000Y-69516000D02*
X187706000Y-70104000D01*
X187706000Y-70104000D02*
X188468000Y-70866000D01*
X173990000Y-73152000D02*
X160274000Y-86868000D01*
X173990000Y-61468000D02*
X173990000Y-73152000D01*
X175260000Y-60198000D02*
X173990000Y-61468000D01*
X189738000Y-60198000D02*
X175260000Y-60198000D01*
X191262000Y-61722000D02*
X189738000Y-60198000D01*
X191262000Y-70612000D02*
X191262000Y-61722000D01*
X191008000Y-70866000D02*
X191262000Y-70612000D01*
X188468000Y-70866000D02*
X191008000Y-70866000D01*
X160274000Y-92773500D02*
X160274000Y-86868000D01*
X185674000Y-70408800D02*
X185674000Y-70104000D01*
X185674000Y-70104000D02*
X185674000Y-70104000D01*
X185674000Y-70104000D02*
X185674000Y-69850000D01*
X185674000Y-69850000D02*
X185674000Y-69596000D01*
X185674000Y-69596000D02*
X186182000Y-69088000D01*
X186182000Y-69088000D02*
X187278000Y-69088000D01*
X187278000Y-69088000D02*
X187706000Y-69516000D01*
D25*
X128905000Y-65836800D02*
X128905000Y-63234000D01*
X128905000Y-63234000D02*
X128665000Y-62994000D01*
X130810000Y-62992000D02*
X131445000Y-63627000D01*
X131318000Y-63500000D02*
X131445000Y-63500000D01*
X131445000Y-63627000D02*
X131318000Y-63500000D01*
X131445000Y-62484000D02*
X131318000Y-62484000D01*
X131318000Y-62484000D02*
X130810000Y-62992000D01*
X130810000Y-62992000D02*
X130808000Y-62994000D01*
X128665000Y-62994000D02*
X130808000Y-62994000D01*
X130808000Y-62994000D02*
X131445000Y-62994000D01*
X131445000Y-62994000D02*
X131443000Y-62992000D01*
X131443000Y-62992000D02*
X131318000Y-62992000D01*
X131318000Y-62992000D02*
X131445000Y-62992000D01*
X131445000Y-65151000D02*
X131445000Y-63500000D01*
X131445000Y-63500000D02*
X131445000Y-62992000D01*
X131445000Y-62992000D02*
X131445000Y-62484000D01*
X131445000Y-62484000D02*
X131445000Y-61194000D01*
X138430000Y-73232000D02*
X137748000Y-73232000D01*
X137748000Y-73232000D02*
X136652000Y-72136000D01*
X136652000Y-72136000D02*
X136652000Y-69088000D01*
X136652000Y-69088000D02*
X133604000Y-66040000D01*
X133604000Y-66040000D02*
X132334000Y-66040000D01*
X132334000Y-66040000D02*
X131445000Y-65151000D01*
X138430000Y-76454000D02*
X138430000Y-73232000D01*
D26*
X137748000Y-73232000D02*
X136652000Y-72136000D01*
X136652000Y-72136000D02*
X136652000Y-69088000D01*
X136652000Y-69088000D02*
X133604000Y-66040000D01*
X133604000Y-66040000D02*
X132334000Y-66040000D01*
X132334000Y-66040000D02*
X131445000Y-65151000D01*
X128665000Y-62994000D02*
X128667000Y-62992000D01*
X128665000Y-62994000D02*
X128905000Y-63234000D01*
X192278000Y-61214000D02*
X192278000Y-57658000D01*
X187706000Y-55372000D02*
X185674000Y-57404000D01*
X190500000Y-55372000D02*
X187706000Y-55372000D01*
X192278000Y-57150000D02*
X190500000Y-55372000D01*
X192278000Y-57658000D02*
X192278000Y-57150000D01*
X132080000Y-54610000D02*
X132588000Y-55118000D01*
X140208000Y-57404000D02*
X185674000Y-57404000D01*
X137922000Y-55118000D02*
X140208000Y-57404000D01*
X132588000Y-55118000D02*
X137922000Y-55118000D01*
X132080000Y-54610000D02*
X131318000Y-53848000D01*
X131318000Y-53848000D02*
X113284000Y-53848000D01*
X113284000Y-53848000D02*
X112776000Y-54356000D01*
X112776000Y-54356000D02*
X112776000Y-60452000D01*
X192024000Y-119380000D02*
X192278000Y-119634000D01*
X192278000Y-119634000D02*
X192278000Y-119888000D01*
X192024000Y-119419000D02*
X192024000Y-119380000D01*
X192024000Y-119380000D02*
X192278000Y-119126000D01*
X187452000Y-119419000D02*
X192024000Y-119419000D01*
X192024000Y-119419000D02*
X192278000Y-119419000D01*
X192278000Y-119419000D02*
X192278000Y-119380000D01*
X167386000Y-96754000D02*
X167386000Y-98044000D01*
X171450000Y-98298000D02*
X173482000Y-96266000D01*
X167640000Y-98298000D02*
X171450000Y-98298000D01*
X167386000Y-98044000D02*
X167640000Y-98298000D01*
X176530000Y-97575000D02*
X176491000Y-97575000D01*
X176530000Y-97536000D02*
X176530000Y-97575000D01*
X162179000Y-97726500D02*
X162179000Y-96139000D01*
X167132000Y-95758000D02*
X167386000Y-96012000D01*
X162560000Y-95758000D02*
X167132000Y-95758000D01*
X162179000Y-96139000D02*
X162560000Y-95758000D01*
X167386000Y-96012000D02*
X167386000Y-96754000D01*
X187452000Y-97575000D02*
X176491000Y-97575000D01*
X187452000Y-141517000D02*
X191731000Y-141517000D01*
X192278000Y-119888000D02*
X192278000Y-140462000D01*
X191731000Y-141517000D02*
X192278000Y-140970000D01*
X192278000Y-140970000D02*
X192278000Y-140462000D01*
X166898000Y-96266000D02*
X167386000Y-96754000D01*
X192024000Y-97536000D02*
X192278000Y-97790000D01*
X192024000Y-97575000D02*
X192024000Y-97536000D01*
X192024000Y-97536000D02*
X192278000Y-97282000D01*
X187452000Y-97575000D02*
X192024000Y-97575000D01*
X192024000Y-97575000D02*
X192278000Y-97575000D01*
X192278000Y-97575000D02*
X192278000Y-97536000D01*
X192043500Y-76219500D02*
X192278000Y-76454000D01*
X192024000Y-76239000D02*
X192043500Y-76219500D01*
X192043500Y-76219500D02*
X192278000Y-75985000D01*
X192278000Y-75985000D02*
X192278000Y-75946000D01*
X187706000Y-76239000D02*
X192024000Y-76239000D01*
X192024000Y-76239000D02*
X192278000Y-76239000D01*
X192278000Y-76239000D02*
X192278000Y-76200000D01*
X192278000Y-61214000D02*
X192278000Y-75946000D01*
X192278000Y-97790000D02*
X192278000Y-119126000D01*
X192278000Y-119126000D02*
X192278000Y-119380000D01*
X192278000Y-119380000D02*
X192278000Y-119888000D01*
X192278000Y-76454000D02*
X192278000Y-97282000D01*
X192278000Y-97282000D02*
X192278000Y-97536000D01*
X192278000Y-97536000D02*
X192278000Y-97790000D01*
X192278000Y-75946000D02*
X192278000Y-76200000D01*
X192278000Y-76200000D02*
X192278000Y-76454000D01*
X102870000Y-87083000D02*
X103339000Y-87083000D01*
X105410000Y-87376000D02*
X111252000Y-93218000D01*
X103632000Y-87376000D02*
X105410000Y-87376000D01*
X103339000Y-87083000D02*
X103632000Y-87376000D01*
X111252000Y-93218000D02*
X111252000Y-96012000D01*
X119634000Y-96774000D02*
X121138000Y-95270000D01*
X119634000Y-98806000D02*
X119634000Y-96774000D01*
X118872000Y-99568000D02*
X119634000Y-98806000D01*
X114808000Y-99568000D02*
X118872000Y-99568000D01*
X111252000Y-96012000D02*
X114808000Y-99568000D01*
X123444000Y-94996000D02*
X123170000Y-95270000D01*
X123170000Y-95270000D02*
X121920000Y-95270000D01*
X102323000Y-87083000D02*
X102870000Y-87083000D01*
X101092000Y-87083000D02*
X102323000Y-87083000D01*
X121920000Y-95270000D02*
X121138000Y-95270000D01*
X96266000Y-65239000D02*
X96012000Y-65493000D01*
X96012000Y-65493000D02*
X96012000Y-65532000D01*
X96266000Y-65239000D02*
X96012000Y-64985000D01*
X96012000Y-64985000D02*
X96012000Y-65024000D01*
X101092000Y-65239000D02*
X96266000Y-65239000D01*
X96266000Y-65239000D02*
X96012000Y-65239000D01*
X96012000Y-65239000D02*
X96012000Y-65278000D01*
X126873000Y-93789500D02*
X126873000Y-94869000D01*
X126873000Y-94869000D02*
X127000000Y-94996000D01*
X96227000Y-87083000D02*
X96227000Y-87161000D01*
X96227000Y-87161000D02*
X96012000Y-87376000D01*
X96012000Y-86868000D02*
X96227000Y-87083000D01*
X96266000Y-87122000D02*
X96266000Y-87083000D01*
X96227000Y-87083000D02*
X96266000Y-87122000D01*
X101092000Y-87083000D02*
X96266000Y-87083000D01*
X96266000Y-87083000D02*
X96012000Y-87083000D01*
X96012000Y-87083000D02*
X96012000Y-87122000D01*
X96774000Y-130771000D02*
X96735000Y-130771000D01*
X96735000Y-130771000D02*
X96012000Y-130048000D01*
X100838000Y-130771000D02*
X96774000Y-130771000D01*
X96012000Y-130048000D02*
X96012000Y-110998000D01*
X96012000Y-110490000D02*
X96012000Y-108966000D01*
X96012000Y-110744000D02*
X96012000Y-110490000D01*
X96012000Y-110998000D02*
X96012000Y-110744000D01*
X96266000Y-108712000D02*
X96012000Y-108458000D01*
X96012000Y-108966000D02*
X96305000Y-108673000D01*
X96266000Y-108712000D02*
X96266000Y-108673000D01*
X96305000Y-108673000D02*
X96266000Y-108712000D01*
X101092000Y-108673000D02*
X96266000Y-108673000D01*
X96266000Y-108673000D02*
X96012000Y-108673000D01*
X96012000Y-108673000D02*
X96012000Y-108712000D01*
X96012000Y-108966000D02*
X96012000Y-108712000D01*
X96012000Y-108712000D02*
X96012000Y-108458000D01*
X96012000Y-108458000D02*
X96012000Y-89154000D01*
X96012000Y-89154000D02*
X96012000Y-88900000D01*
X96012000Y-88900000D02*
X96012000Y-88646000D01*
X96012000Y-88646000D02*
X96012000Y-87376000D01*
X96012000Y-87376000D02*
X96012000Y-87122000D01*
X96012000Y-87122000D02*
X96012000Y-86868000D01*
X96012000Y-86868000D02*
X96012000Y-67818000D01*
X96012000Y-66294000D02*
X96012000Y-66548000D01*
X96012000Y-66040000D02*
X96012000Y-66294000D01*
X96012000Y-65532000D02*
X96012000Y-66040000D01*
X96012000Y-67818000D02*
X96012000Y-66548000D01*
X126492000Y-67818000D02*
X125476000Y-67818000D01*
X125476000Y-67818000D02*
X124460000Y-66802000D01*
X124460000Y-66802000D02*
X124460000Y-66040000D01*
X124460000Y-66040000D02*
X123698000Y-65278000D01*
X123698000Y-65278000D02*
X118110000Y-65278000D01*
X118110000Y-65278000D02*
X116840000Y-64008000D01*
X116840000Y-64008000D02*
X113284000Y-60452000D01*
X113284000Y-60452000D02*
X112776000Y-60452000D01*
X112776000Y-60452000D02*
X97790000Y-60452000D01*
X96012000Y-62230000D02*
X96012000Y-65024000D01*
X97790000Y-60452000D02*
X96012000Y-62230000D01*
X96012000Y-65024000D02*
X96012000Y-65278000D01*
X96012000Y-65278000D02*
X96012000Y-65532000D01*
X126365000Y-66751200D02*
X126365000Y-67691000D01*
X128905000Y-67691000D02*
X128905000Y-66751200D01*
X128778000Y-67818000D02*
X128905000Y-67691000D01*
X126492000Y-67818000D02*
X128778000Y-67818000D01*
X126365000Y-67691000D02*
X126492000Y-67818000D01*
X101854000Y-70612000D02*
X102108000Y-70358000D01*
X102362000Y-69342000D02*
X102108000Y-69596000D01*
X102108000Y-69596000D02*
X102108000Y-70358000D01*
X101854000Y-70612000D02*
X97478002Y-70612000D01*
X97478002Y-70612000D02*
X97028000Y-71062002D01*
X97028000Y-71062002D02*
X97028000Y-79502000D01*
X97028000Y-79502000D02*
X99568000Y-82042000D01*
X99568000Y-82042000D02*
X110236000Y-82042000D01*
X110236000Y-82042000D02*
X111710000Y-80568000D01*
X111710000Y-78839000D02*
X111710000Y-80568000D01*
X102362000Y-69342000D02*
X102616000Y-69342000D01*
X102616000Y-69342000D02*
X102870000Y-69088000D01*
X102616000Y-69342000D02*
X102870000Y-69596000D01*
X102870000Y-69342000D02*
X102616000Y-69342000D01*
X111710000Y-78839000D02*
X114907000Y-78839000D01*
X114907000Y-78839000D02*
X128143000Y-92075000D01*
X128143000Y-92075000D02*
X128143000Y-93789500D01*
X102870000Y-70154800D02*
X102870000Y-69596000D01*
X102870000Y-69596000D02*
X102870000Y-69342000D01*
X102870000Y-69342000D02*
X102870000Y-69088000D01*
X103124000Y-68834000D02*
X104220000Y-68834000D01*
X102870000Y-69088000D02*
X103124000Y-68834000D01*
X104220000Y-68834000D02*
X104775000Y-69389000D01*
X109005000Y-72009000D02*
X109005000Y-70651000D01*
X107743000Y-69389000D02*
X104775000Y-69389000D01*
X109005000Y-70651000D02*
X107743000Y-69389000D01*
X101092000Y-67349000D02*
X101131000Y-67310000D01*
X101131000Y-67310000D02*
X104140000Y-67310000D01*
X104775000Y-67945000D02*
X104775000Y-69389000D01*
X104140000Y-67310000D02*
X104775000Y-67945000D01*
X104601000Y-69215000D02*
X104775000Y-69389000D01*
X102870000Y-70154800D02*
X102870000Y-69977000D01*
X104140000Y-110744000D02*
X104394000Y-110490000D01*
X104394000Y-110490000D02*
X104648000Y-110490000D01*
X104140000Y-110998000D02*
X104140000Y-110744000D01*
X104140000Y-110744000D02*
X104140000Y-110568000D01*
X104140000Y-110568000D02*
X104218000Y-110490000D01*
X118364000Y-107442000D02*
X115316000Y-110490000D01*
X115316000Y-110490000D02*
X104648000Y-110490000D01*
X125603000Y-92583000D02*
X125603000Y-93789500D01*
X125222000Y-92202000D02*
X125603000Y-92583000D01*
X122174000Y-92202000D02*
X125222000Y-92202000D01*
X121666000Y-92710000D02*
X122174000Y-92202000D01*
X118364000Y-96012000D02*
X121666000Y-92710000D01*
X118364000Y-98806000D02*
X118364000Y-96012000D01*
X118364000Y-107442000D02*
X118364000Y-102362000D01*
X104648000Y-110490000D02*
X104218000Y-110490000D01*
X104218000Y-110490000D02*
X103925000Y-110783000D01*
X107442000Y-112569000D02*
X104775000Y-112569000D01*
X102870000Y-112826800D02*
X102870000Y-112268000D01*
X103124000Y-112014000D02*
X104220000Y-112014000D01*
X102870000Y-112268000D02*
X103124000Y-112014000D01*
X104220000Y-112014000D02*
X104775000Y-112569000D01*
X109005000Y-115189000D02*
X109005000Y-114085000D01*
X107489000Y-112569000D02*
X107442000Y-112569000D01*
X107442000Y-112569000D02*
X104775000Y-112569000D01*
X109005000Y-114085000D02*
X107489000Y-112569000D01*
X101092000Y-110783000D02*
X103925000Y-110783000D01*
X103925000Y-110783000D02*
X104140000Y-110998000D01*
X104140000Y-110998000D02*
X104775000Y-111633000D01*
X104775000Y-111633000D02*
X104775000Y-112569000D01*
X109005000Y-115189000D02*
X109005000Y-119949000D01*
X109005000Y-119949000D02*
X111710000Y-122654000D01*
X102870000Y-112826800D02*
X102870000Y-112522000D01*
X104220000Y-112014000D02*
X104775000Y-112569000D01*
X102870000Y-91236800D02*
X102870000Y-90678000D01*
X102870000Y-90678000D02*
X103124000Y-90424000D01*
X121440000Y-101064000D02*
X111710000Y-101064000D01*
X125603000Y-98742500D02*
X125603000Y-97155000D01*
X125603000Y-97155000D02*
X125222000Y-96774000D01*
X125222000Y-96774000D02*
X124714000Y-96774000D01*
X124714000Y-96774000D02*
X123444000Y-98044000D01*
X123444000Y-98044000D02*
X123444000Y-99060000D01*
X123444000Y-99060000D02*
X121440000Y-101064000D01*
X104775000Y-90979000D02*
X104775000Y-89789000D01*
X104179000Y-89193000D02*
X101092000Y-89193000D01*
X104775000Y-89789000D02*
X104179000Y-89193000D01*
X103124000Y-90424000D02*
X104220000Y-90424000D01*
X104220000Y-90424000D02*
X104775000Y-90979000D01*
X109005000Y-93599000D02*
X109005000Y-93169000D01*
X109005000Y-93169000D02*
X106815000Y-90979000D01*
X106815000Y-90979000D02*
X106727000Y-90979000D01*
X109005000Y-93599000D02*
X109005000Y-98359000D01*
X109005000Y-98359000D02*
X111710000Y-101064000D01*
X104220000Y-90424000D02*
X104775000Y-90979000D01*
X106815000Y-90979000D02*
X106680000Y-90979000D01*
X106680000Y-90979000D02*
X104775000Y-90979000D01*
X108966000Y-135128000D02*
X109300000Y-134794000D01*
X108712000Y-134794000D02*
X108712000Y-134874000D01*
X108712000Y-134874000D02*
X108966000Y-135128000D01*
X108966000Y-135128000D02*
X109005000Y-135167000D01*
X109005000Y-136183000D02*
X109005000Y-135167000D01*
X109005000Y-136183000D02*
X109005000Y-137414000D01*
X109005000Y-135167000D02*
X109005000Y-134794000D01*
X109005000Y-134794000D02*
X108966000Y-134833000D01*
X108966000Y-134833000D02*
X108966000Y-134874000D01*
X108966000Y-134874000D02*
X108966000Y-134794000D01*
X107442000Y-134794000D02*
X108712000Y-134794000D01*
X108712000Y-134794000D02*
X108966000Y-134794000D01*
X108966000Y-134794000D02*
X109300000Y-134794000D01*
X109300000Y-134794000D02*
X118110000Y-126238000D01*
X128143000Y-113411000D02*
X128143000Y-98742500D01*
X118110000Y-123444000D02*
X128143000Y-113411000D01*
X103378000Y-134366000D02*
X103124000Y-134366000D01*
X102870000Y-134620000D02*
X102870000Y-135178800D01*
X103124000Y-134366000D02*
X102870000Y-134620000D01*
X104775000Y-134794000D02*
X107442000Y-134794000D01*
X104775000Y-134794000D02*
X104775000Y-133731000D01*
X103925000Y-132881000D02*
X100838000Y-132881000D01*
X104775000Y-133731000D02*
X103925000Y-132881000D01*
X109005000Y-137414000D02*
X109005000Y-141539000D01*
X109005000Y-141539000D02*
X111710000Y-144244000D01*
X102870000Y-135178800D02*
X102870000Y-134874000D01*
X103378000Y-134366000D02*
X104347000Y-134366000D01*
X104347000Y-134366000D02*
X104775000Y-134794000D01*
X104775000Y-134794000D02*
X104855000Y-134874000D01*
X185674000Y-137414000D02*
X185420000Y-137160000D01*
X185420000Y-137668000D02*
X185674000Y-137414000D01*
X185420000Y-137414000D02*
X185674000Y-137414000D01*
X178640000Y-125984000D02*
X176580000Y-128044000D01*
X185674000Y-137414000D02*
X186182000Y-136906000D01*
X186182000Y-136906000D02*
X186182000Y-136398000D01*
X186182000Y-136398000D02*
X186436000Y-136144000D01*
X186436000Y-136144000D02*
X191008000Y-136144000D01*
X191008000Y-136144000D02*
X191262000Y-135890000D01*
X191262000Y-135890000D02*
X191262000Y-127000000D01*
X191262000Y-127000000D02*
X190246000Y-125984000D01*
X190246000Y-125984000D02*
X178640000Y-125984000D01*
X176580000Y-128044000D02*
X175542000Y-128044000D01*
X175542000Y-128044000D02*
X173736000Y-126238000D01*
X160909000Y-97726500D02*
X160909000Y-113411000D01*
X160909000Y-113411000D02*
X161544000Y-114046000D01*
X173736000Y-126238000D02*
X161544000Y-114046000D01*
X161544000Y-114046000D02*
X161036000Y-113538000D01*
X187452000Y-139407000D02*
X184111000Y-139407000D01*
X184111000Y-139407000D02*
X183515000Y-138811000D01*
X183515000Y-138811000D02*
X183515000Y-137494000D01*
X183515000Y-138811000D02*
X183515000Y-137494000D01*
X179285000Y-134874000D02*
X179285000Y-128739000D01*
X178590000Y-128044000D02*
X176580000Y-128044000D01*
X179285000Y-128739000D02*
X178590000Y-128044000D01*
X185420000Y-136601200D02*
X185420000Y-137160000D01*
X185420000Y-137160000D02*
X185420000Y-137414000D01*
X185420000Y-137414000D02*
X185420000Y-137668000D01*
X185166000Y-137922000D02*
X183943000Y-137922000D01*
X185420000Y-137668000D02*
X185166000Y-137922000D01*
X183943000Y-137922000D02*
X183515000Y-137494000D01*
X183388000Y-95250000D02*
X183769000Y-95250000D01*
X183642000Y-95250000D02*
X183642000Y-95123000D01*
X183769000Y-95250000D02*
X183642000Y-95250000D01*
X183578500Y-95059500D02*
X183642000Y-95123000D01*
X183388000Y-95250000D02*
X183388000Y-95123000D01*
X183515000Y-94996000D02*
X183578500Y-95059500D01*
X183578500Y-95059500D02*
X183984000Y-95465000D01*
X183984000Y-95465000D02*
X183935000Y-95465000D01*
X183046000Y-95465000D02*
X183896000Y-95465000D01*
X183896000Y-95465000D02*
X187452000Y-95465000D01*
X183515000Y-94996000D02*
X183388000Y-95123000D01*
X183388000Y-95123000D02*
X183046000Y-95465000D01*
X183046000Y-95465000D02*
X183095000Y-95465000D01*
X183515000Y-93679000D02*
X183515000Y-94996000D01*
X171704000Y-99822000D02*
X176061000Y-95465000D01*
X176061000Y-95465000D02*
X178093000Y-95465000D01*
X171450000Y-99822000D02*
X171704000Y-99822000D01*
X178093000Y-95465000D02*
X183134000Y-95465000D01*
X163449000Y-97726500D02*
X163449000Y-98806000D01*
X164338000Y-99822000D02*
X171450000Y-99822000D01*
X163449000Y-98933000D02*
X164338000Y-99822000D01*
X163449000Y-98806000D02*
X163449000Y-98933000D01*
X183515000Y-93679000D02*
X181055000Y-93679000D01*
X181055000Y-93679000D02*
X179285000Y-91909000D01*
X179285000Y-91909000D02*
X179285000Y-91059000D01*
X179285000Y-91059000D02*
X179285000Y-85813000D01*
X178336000Y-84864000D02*
X176580000Y-84864000D01*
X179285000Y-85813000D02*
X178336000Y-84864000D01*
X179285000Y-91909000D02*
X179285000Y-91059000D01*
X185420000Y-92786200D02*
X185420000Y-93726000D01*
X184912000Y-94234000D02*
X184070000Y-94234000D01*
X185420000Y-93726000D02*
X184912000Y-94234000D01*
X184070000Y-94234000D02*
X183515000Y-93679000D01*
X185420000Y-114808000D02*
X185674000Y-115062000D01*
X185420000Y-115316000D02*
X185674000Y-115062000D01*
X185674000Y-115062000D02*
X185928000Y-115062000D01*
X184658000Y-115824000D02*
X185166000Y-115824000D01*
X185420000Y-115570000D02*
X185420000Y-115316000D01*
X185420000Y-115316000D02*
X185420000Y-114808000D01*
X185420000Y-114808000D02*
X185420000Y-114376200D01*
X185166000Y-115824000D02*
X185420000Y-115570000D01*
X190754000Y-113792000D02*
X191262000Y-113284000D01*
X178386000Y-104648000D02*
X176580000Y-106454000D01*
X189992000Y-104648000D02*
X178386000Y-104648000D01*
X191262000Y-105918000D02*
X189992000Y-104648000D01*
X191262000Y-113284000D02*
X191262000Y-105918000D01*
X185420000Y-115062000D02*
X185928000Y-115062000D01*
X185420000Y-114376200D02*
X185420000Y-115062000D01*
X186690000Y-113792000D02*
X190754000Y-113792000D01*
X185928000Y-115062000D02*
X186182000Y-114808000D01*
X186182000Y-114808000D02*
X186182000Y-114300000D01*
X186182000Y-114300000D02*
X186690000Y-113792000D01*
X187452000Y-117309000D02*
X184365000Y-117309000D01*
X183515000Y-116459000D02*
X183515000Y-115269000D01*
X184365000Y-117309000D02*
X183515000Y-116459000D01*
X163830000Y-91440000D02*
X164592000Y-90678000D01*
X171450000Y-102108000D02*
X175796000Y-106454000D01*
X171704000Y-93980000D02*
X171704000Y-97028000D01*
X168402000Y-90678000D02*
X171704000Y-93980000D01*
X164592000Y-90678000D02*
X168402000Y-90678000D01*
X175796000Y-106454000D02*
X176580000Y-106454000D01*
X163449000Y-92773500D02*
X163449000Y-91821000D01*
X163449000Y-91821000D02*
X163830000Y-91440000D01*
X179285000Y-112649000D02*
X179285000Y-107403000D01*
X179285000Y-107403000D02*
X178336000Y-106454000D01*
X178336000Y-106454000D02*
X176580000Y-106454000D01*
X179324000Y-112688000D02*
X179285000Y-112649000D01*
X184658000Y-115824000D02*
X184070000Y-115824000D01*
X184070000Y-115824000D02*
X183515000Y-115269000D01*
X183435000Y-115189000D02*
X183515000Y-115269000D01*
X185674000Y-71323200D02*
X185674000Y-72390000D01*
X185420000Y-72644000D02*
X184070000Y-72644000D01*
X185674000Y-72390000D02*
X185420000Y-72644000D01*
X184070000Y-72644000D02*
X183642000Y-72216000D01*
X160909000Y-92773500D02*
X160909000Y-87249000D01*
X178816000Y-69342000D02*
X179539000Y-69342000D01*
X160909000Y-87249000D02*
X178816000Y-69342000D01*
X183642000Y-72216000D02*
X181436000Y-72216000D01*
X181436000Y-72216000D02*
X179539000Y-70319000D01*
X179539000Y-70319000D02*
X179539000Y-69342000D01*
X187706000Y-74129000D02*
X184365000Y-74129000D01*
X183642000Y-73406000D02*
X183642000Y-72216000D01*
X184365000Y-74129000D02*
X183642000Y-73406000D01*
X178463000Y-62639000D02*
X176580000Y-62639000D01*
X179539000Y-63715000D02*
X178463000Y-62639000D01*
X179539000Y-69342000D02*
X179539000Y-63715000D01*
X184070000Y-72644000D02*
X183642000Y-72216000D01*
X179539000Y-69342000D02*
X179539000Y-70319000D01*
X97282000Y-69389000D02*
X96520000Y-70151000D01*
X96520000Y-80010000D02*
X97028000Y-80518000D01*
X96520000Y-70151000D02*
X96520000Y-80010000D01*
X98425000Y-69389000D02*
X97282000Y-69389000D01*
X117602000Y-82550000D02*
X127508000Y-92456000D01*
X127508000Y-92456000D02*
X127508000Y-93789500D01*
X97028000Y-80518000D02*
X99060000Y-82550000D01*
X99060000Y-82550000D02*
X117602000Y-82550000D01*
X98425000Y-69389000D02*
X100965000Y-69389000D01*
X126238000Y-93789500D02*
X126238000Y-92202000D01*
X98425000Y-110871000D02*
X99568000Y-109728000D01*
X99568000Y-109728000D02*
X115062000Y-109728000D01*
X98425000Y-110871000D02*
X98425000Y-112569000D01*
X117348000Y-107442000D02*
X115062000Y-109728000D01*
X117348000Y-102362000D02*
X117348000Y-107442000D01*
X117348000Y-96266000D02*
X117348000Y-98806000D01*
X121920000Y-91694000D02*
X117348000Y-96266000D01*
X125730000Y-91694000D02*
X121920000Y-91694000D01*
X126238000Y-92202000D02*
X125730000Y-91694000D01*
X98425000Y-112569000D02*
X100965000Y-112569000D01*
X122428000Y-99314000D02*
X121412000Y-100330000D01*
X121412000Y-100330000D02*
X121158000Y-100330000D01*
X114046000Y-100330000D02*
X113030000Y-99314000D01*
X121158000Y-100330000D02*
X114046000Y-100330000D01*
X104648000Y-88138000D02*
X105156000Y-88138000D01*
X109982000Y-96266000D02*
X113030000Y-99314000D01*
X109982000Y-92964000D02*
X109982000Y-96266000D01*
X105156000Y-88138000D02*
X109982000Y-92964000D01*
X126238000Y-97790000D02*
X126238000Y-96774000D01*
X122936000Y-98806000D02*
X122428000Y-99314000D01*
X122936000Y-97664398D02*
X122936000Y-98806000D01*
X124334398Y-96266000D02*
X122936000Y-97664398D01*
X125730000Y-96266000D02*
X124334398Y-96266000D01*
X126238000Y-96774000D02*
X125730000Y-96266000D01*
X98425000Y-89281000D02*
X99568000Y-88138000D01*
X99568000Y-88138000D02*
X104648000Y-88138000D01*
X98425000Y-90979000D02*
X98425000Y-89281000D01*
X126238000Y-98742500D02*
X126238000Y-97790000D01*
X98425000Y-90979000D02*
X100965000Y-90979000D01*
X108458000Y-131826000D02*
X111252000Y-131826000D01*
X98425000Y-132969000D02*
X99568000Y-131826000D01*
X99568000Y-131826000D02*
X108458000Y-131826000D01*
X98425000Y-134794000D02*
X98425000Y-132969000D01*
X127508000Y-112522000D02*
X127508000Y-98742500D01*
X116586000Y-123444000D02*
X127508000Y-112522000D01*
X116586000Y-126492000D02*
X116586000Y-126238000D01*
X111252000Y-131826000D02*
X116586000Y-126492000D01*
X98425000Y-134794000D02*
X100965000Y-134794000D01*
X191516000Y-136906000D02*
X191770000Y-136652000D01*
X191770000Y-126238000D02*
X191516000Y-125984000D01*
X191770000Y-136652000D02*
X191770000Y-126238000D01*
X189865000Y-137494000D02*
X190928000Y-137494000D01*
X161544000Y-113030000D02*
X161544000Y-97726500D01*
X191516000Y-125984000D02*
X190754000Y-125222000D01*
X190754000Y-125222000D02*
X173736000Y-125222000D01*
X173736000Y-125222000D02*
X161544000Y-113030000D01*
X190928000Y-137494000D02*
X191516000Y-136906000D01*
X189865000Y-137494000D02*
X187325000Y-137494000D01*
X171958000Y-100330000D02*
X172212000Y-100330000D01*
X176022000Y-96520000D02*
X178054000Y-96520000D01*
X172212000Y-100330000D02*
X176022000Y-96520000D01*
X178054000Y-96520000D02*
X186436000Y-96520000D01*
X189865000Y-95885000D02*
X189865000Y-93679000D01*
X189230000Y-96520000D02*
X189865000Y-95885000D01*
X186436000Y-96520000D02*
X189230000Y-96520000D01*
X163322000Y-99822000D02*
X163830000Y-100330000D01*
X163830000Y-100330000D02*
X171958000Y-100330000D01*
X163322000Y-99822000D02*
X162814000Y-99314000D01*
X162814000Y-99314000D02*
X162814000Y-99060000D01*
X162814000Y-98806000D02*
X162814000Y-99060000D01*
X162814000Y-97726500D02*
X162814000Y-98806000D01*
X189865000Y-93679000D02*
X187325000Y-93679000D01*
X174498000Y-104140000D02*
X190500000Y-104140000D01*
X190801000Y-115269000D02*
X189865000Y-115269000D01*
X191827998Y-114242002D02*
X190801000Y-115269000D01*
X191827998Y-105467998D02*
X191827998Y-114242002D01*
X190500000Y-104140000D02*
X191827998Y-105467998D01*
X172466000Y-102108000D02*
X174498000Y-104140000D01*
X162814000Y-91694000D02*
X162814000Y-92773500D01*
X164338000Y-90170000D02*
X167640000Y-90170000D01*
X162814000Y-91694000D02*
X164338000Y-90170000D01*
X168910000Y-90170000D02*
X172466000Y-93726000D01*
X172466000Y-93726000D02*
X172466000Y-96266000D01*
X167640000Y-90170000D02*
X168910000Y-90170000D01*
X189865000Y-115269000D02*
X187325000Y-115269000D01*
X189992000Y-72216000D02*
X189992000Y-74168000D01*
X161544000Y-87376000D02*
X161544000Y-92773500D01*
X173736000Y-75184000D02*
X161544000Y-87376000D01*
X188976000Y-75184000D02*
X173736000Y-75184000D01*
X189992000Y-74168000D02*
X188976000Y-75184000D01*
X189992000Y-72216000D02*
X187706000Y-72216000D01*
X138430000Y-70532000D02*
X138430000Y-68834000D01*
X139305000Y-67959000D02*
X141050000Y-67959000D01*
X138430000Y-68834000D02*
X139305000Y-67959000D01*
X151050000Y-67959000D02*
X156845000Y-73754000D01*
X156845000Y-73754000D02*
X156845000Y-76374000D01*
D25*
X126365000Y-56894000D02*
X123192000Y-56894000D01*
X121793000Y-58293000D02*
X120015000Y-58293000D01*
X123192000Y-56894000D02*
X121793000Y-58293000D01*
X126365000Y-62994000D02*
X126365000Y-56894000D01*
X126365000Y-65836800D02*
X126365000Y-62994000D01*
D26*
X125605000Y-56134000D02*
X126365000Y-56894000D01*
X153670000Y-81534000D02*
X156210000Y-81534000D01*
X156845000Y-80899000D02*
X156845000Y-79074000D01*
X156210000Y-81534000D02*
X156845000Y-80899000D01*
X156845000Y-79074000D02*
X156765000Y-78994000D01*
D27*
G36*
X190836634Y-53826957D02*
X192215629Y-54748371D01*
X193137043Y-56127366D01*
X193475000Y-57826390D01*
X193475000Y-147481610D01*
X193137043Y-149180634D01*
X192215629Y-150559629D01*
X190836634Y-151481043D01*
X189137610Y-151819000D01*
X99482390Y-151819000D01*
X97783366Y-151481043D01*
X96404371Y-150559629D01*
X95482957Y-149180634D01*
X95243503Y-147976815D01*
X117274630Y-147976815D01*
X117598980Y-148761800D01*
X118199041Y-149362909D01*
X118983459Y-149688628D01*
X119832815Y-149689370D01*
X120617800Y-149365020D01*
X121218909Y-148764959D01*
X121544628Y-147980541D01*
X121544631Y-147976815D01*
X167074630Y-147976815D01*
X167398980Y-148761800D01*
X167999041Y-149362909D01*
X168783459Y-149688628D01*
X169632815Y-149689370D01*
X170417800Y-149365020D01*
X171018909Y-148764959D01*
X171344628Y-147980541D01*
X171345370Y-147131185D01*
X171021020Y-146346200D01*
X170420959Y-145745091D01*
X169636541Y-145419372D01*
X168787185Y-145418630D01*
X168002200Y-145742980D01*
X167401091Y-146343041D01*
X167075372Y-147127459D01*
X167074630Y-147976815D01*
X121544631Y-147976815D01*
X121545370Y-147131185D01*
X121221020Y-146346200D01*
X120620959Y-145745091D01*
X119836541Y-145419372D01*
X118987185Y-145418630D01*
X118202200Y-145742980D01*
X117601091Y-146343041D01*
X117275372Y-147127459D01*
X117274630Y-147976815D01*
X95243503Y-147976815D01*
X95145000Y-147481610D01*
X95145000Y-130349691D01*
X99978000Y-130349691D01*
X99978000Y-130485250D01*
X100136750Y-130644000D01*
X100725500Y-130644000D01*
X100725500Y-129999750D01*
X100950500Y-129999750D01*
X100950500Y-130644000D01*
X101539250Y-130644000D01*
X101698000Y-130485250D01*
X101698000Y-130349691D01*
X101601327Y-130116302D01*
X101422699Y-129937673D01*
X101189310Y-129841000D01*
X101109250Y-129841000D01*
X100950500Y-129999750D01*
X100725500Y-129999750D01*
X100566750Y-129841000D01*
X100486690Y-129841000D01*
X100253301Y-129937673D01*
X100074673Y-130116302D01*
X99978000Y-130349691D01*
X95145000Y-130349691D01*
X95145000Y-70151000D01*
X95760000Y-70151000D01*
X95760000Y-80010000D01*
X95817852Y-80300839D01*
X95982599Y-80547401D01*
X98508259Y-83073061D01*
X98043628Y-83265043D01*
X97512907Y-83794839D01*
X97225328Y-84487405D01*
X97224674Y-85237305D01*
X97511043Y-85930372D01*
X98040839Y-86461093D01*
X98733405Y-86748672D01*
X99483305Y-86749326D01*
X99695398Y-86661691D01*
X100232000Y-86661691D01*
X100232000Y-86797250D01*
X100390750Y-86956000D01*
X100979500Y-86956000D01*
X100979500Y-86311750D01*
X101204500Y-86311750D01*
X101204500Y-86956000D01*
X101793250Y-86956000D01*
X101952000Y-86797250D01*
X101952000Y-86661691D01*
X101855327Y-86428302D01*
X101676699Y-86249673D01*
X101443310Y-86153000D01*
X101363250Y-86153000D01*
X101204500Y-86311750D01*
X100979500Y-86311750D01*
X100820750Y-86153000D01*
X100740690Y-86153000D01*
X100507301Y-86249673D01*
X100328673Y-86428302D01*
X100232000Y-86661691D01*
X99695398Y-86661691D01*
X100176372Y-86462957D01*
X100707093Y-85933161D01*
X100835468Y-85624000D01*
X102329198Y-85624000D01*
X103856599Y-87151401D01*
X104103161Y-87316148D01*
X104394000Y-87374000D01*
X114808000Y-87374000D01*
X115098839Y-87316148D01*
X115345401Y-87151401D01*
X115572000Y-86924802D01*
X115572000Y-98243537D01*
X115539808Y-98275673D01*
X115397162Y-98619201D01*
X115396838Y-98991167D01*
X115538883Y-99334943D01*
X115773530Y-99570000D01*
X114360802Y-99570000D01*
X110742000Y-95951198D01*
X110742000Y-92964000D01*
X110684148Y-92673161D01*
X110519401Y-92426599D01*
X105693401Y-87600599D01*
X105446839Y-87435852D01*
X105156000Y-87378000D01*
X101952000Y-87378000D01*
X101952000Y-87368750D01*
X101793250Y-87210000D01*
X101204500Y-87210000D01*
X101204500Y-87230000D01*
X100979500Y-87230000D01*
X100979500Y-87210000D01*
X100390750Y-87210000D01*
X100232000Y-87368750D01*
X100232000Y-87378000D01*
X99568000Y-87378000D01*
X99277161Y-87435852D01*
X99030599Y-87600599D01*
X97887599Y-88743599D01*
X97722852Y-88990161D01*
X97665000Y-89281000D01*
X97665000Y-89602258D01*
X97539683Y-89625838D01*
X97323559Y-89764910D01*
X97178569Y-89977110D01*
X97127560Y-90229000D01*
X97127560Y-91729000D01*
X97171838Y-91964317D01*
X97310910Y-92180441D01*
X97523110Y-92325431D01*
X97536197Y-92328081D01*
X97323559Y-92464910D01*
X97178569Y-92677110D01*
X97127560Y-92929000D01*
X97127560Y-94429000D01*
X97171838Y-94664317D01*
X97310910Y-94880441D01*
X97523110Y-95025431D01*
X97540000Y-95028851D01*
X97540000Y-95884995D01*
X97539999Y-95885000D01*
X97540000Y-95885005D01*
X97540000Y-96646995D01*
X97539999Y-96647000D01*
X97540000Y-96647005D01*
X97540000Y-99967793D01*
X97512907Y-99994839D01*
X97225328Y-100687405D01*
X97224674Y-101437305D01*
X97511043Y-102130372D01*
X98040839Y-102661093D01*
X98733405Y-102948672D01*
X99483305Y-102949326D01*
X100176372Y-102662957D01*
X100707093Y-102133161D01*
X100994672Y-101440595D01*
X100995326Y-100690695D01*
X100708957Y-99997628D01*
X100179161Y-99466907D01*
X99486595Y-99179328D01*
X99310000Y-99179174D01*
X99310000Y-97151000D01*
X103631995Y-97151000D01*
X103632000Y-97151001D01*
X103914484Y-97094810D01*
X103970675Y-97083633D01*
X104257790Y-96891790D01*
X104257791Y-96891789D01*
X105273787Y-95875792D01*
X105273790Y-95875790D01*
X105465633Y-95588675D01*
X105493542Y-95448367D01*
X105533001Y-95250000D01*
X105533000Y-95249995D01*
X105533000Y-95056118D01*
X105660317Y-95032162D01*
X105876441Y-94893090D01*
X106021431Y-94680890D01*
X106061302Y-94484000D01*
X106895000Y-94484000D01*
X106958143Y-94471440D01*
X107190000Y-94471440D01*
X107190000Y-100330000D01*
X107230576Y-100533988D01*
X107008957Y-99997628D01*
X106479161Y-99466907D01*
X105786595Y-99179328D01*
X105036695Y-99178674D01*
X104343628Y-99465043D01*
X103812907Y-99994839D01*
X103525328Y-100687405D01*
X103524674Y-101437305D01*
X103811043Y-102130372D01*
X104340839Y-102661093D01*
X105033405Y-102948672D01*
X105783305Y-102949326D01*
X106476372Y-102662957D01*
X107007093Y-102133161D01*
X107294672Y-101440595D01*
X107295325Y-100691888D01*
X107412599Y-100867401D01*
X109925198Y-103380000D01*
X101424000Y-103380000D01*
X101133160Y-103437852D01*
X100886599Y-103602599D01*
X99792745Y-104696453D01*
X99486595Y-104569328D01*
X98736695Y-104568674D01*
X98043628Y-104855043D01*
X97512907Y-105384839D01*
X97225328Y-106077405D01*
X97224674Y-106827305D01*
X97511043Y-107520372D01*
X98040839Y-108051093D01*
X98733405Y-108338672D01*
X99483305Y-108339326D01*
X99695398Y-108251691D01*
X100232000Y-108251691D01*
X100232000Y-108387250D01*
X100390750Y-108546000D01*
X100979500Y-108546000D01*
X100979500Y-107901750D01*
X101204500Y-107901750D01*
X101204500Y-108546000D01*
X101793250Y-108546000D01*
X101952000Y-108387250D01*
X101952000Y-108251691D01*
X101855327Y-108018302D01*
X101676699Y-107839673D01*
X101443310Y-107743000D01*
X101363250Y-107743000D01*
X101204500Y-107901750D01*
X100979500Y-107901750D01*
X100820750Y-107743000D01*
X100740690Y-107743000D01*
X100507301Y-107839673D01*
X100328673Y-108018302D01*
X100232000Y-108251691D01*
X99695398Y-108251691D01*
X100176372Y-108052957D01*
X100707093Y-107523161D01*
X100994672Y-106830595D01*
X100995326Y-106080695D01*
X100867491Y-105771311D01*
X101738802Y-104900000D01*
X104298593Y-104900000D01*
X103812907Y-105384839D01*
X103525328Y-106077405D01*
X103524674Y-106827305D01*
X103811043Y-107520372D01*
X104340839Y-108051093D01*
X105033405Y-108338672D01*
X105783305Y-108339326D01*
X106476372Y-108052957D01*
X107007093Y-107523161D01*
X107294672Y-106830595D01*
X107295326Y-106080695D01*
X107008957Y-105387628D01*
X106522179Y-104900000D01*
X110598593Y-104900000D01*
X110112907Y-105384839D01*
X109825328Y-106077405D01*
X109824674Y-106827305D01*
X110111043Y-107520372D01*
X110640839Y-108051093D01*
X111333405Y-108338672D01*
X112083305Y-108339326D01*
X112776372Y-108052957D01*
X113307093Y-107523161D01*
X113594672Y-106830595D01*
X113595326Y-106080695D01*
X113308957Y-105387628D01*
X112822179Y-104900000D01*
X114554000Y-104900000D01*
X114844839Y-104842148D01*
X115091401Y-104677401D01*
X116471680Y-103297122D01*
X116517167Y-103297162D01*
X116588000Y-103267894D01*
X116588000Y-107127198D01*
X114747198Y-108968000D01*
X101952000Y-108968000D01*
X101952000Y-108958750D01*
X101793250Y-108800000D01*
X101204500Y-108800000D01*
X101204500Y-108820000D01*
X100979500Y-108820000D01*
X100979500Y-108800000D01*
X100390750Y-108800000D01*
X100232000Y-108958750D01*
X100232000Y-108968000D01*
X99568000Y-108968000D01*
X99277161Y-109025852D01*
X99030599Y-109190599D01*
X97887599Y-110333599D01*
X97722852Y-110580161D01*
X97665000Y-110871000D01*
X97665000Y-111192258D01*
X97539683Y-111215838D01*
X97323559Y-111354910D01*
X97178569Y-111567110D01*
X97127560Y-111819000D01*
X97127560Y-113319000D01*
X97171838Y-113554317D01*
X97310910Y-113770441D01*
X97523110Y-113915431D01*
X97536197Y-113918081D01*
X97323559Y-114054910D01*
X97178569Y-114267110D01*
X97127560Y-114519000D01*
X97127560Y-116019000D01*
X97171838Y-116254317D01*
X97310910Y-116470441D01*
X97523110Y-116615431D01*
X97540000Y-116618851D01*
X97540000Y-116712995D01*
X97539999Y-116713000D01*
X97540000Y-116713005D01*
X97540000Y-121557793D01*
X97512907Y-121584839D01*
X97225328Y-122277405D01*
X97224674Y-123027305D01*
X97511043Y-123720372D01*
X98040839Y-124251093D01*
X98733405Y-124538672D01*
X99483305Y-124539326D01*
X100176372Y-124252957D01*
X100707093Y-123723161D01*
X100994672Y-123030595D01*
X100995326Y-122280695D01*
X100708957Y-121587628D01*
X100179161Y-121056907D01*
X99486595Y-120769328D01*
X99310000Y-120769174D01*
X99310000Y-118349580D01*
X99426580Y-118233000D01*
X103885995Y-118233000D01*
X103886000Y-118233001D01*
X104168484Y-118176810D01*
X104224675Y-118165633D01*
X104511790Y-117973790D01*
X105400787Y-117084792D01*
X105400790Y-117084790D01*
X105592633Y-116797675D01*
X105609476Y-116713000D01*
X105626271Y-116628568D01*
X105660317Y-116622162D01*
X105876441Y-116483090D01*
X106021431Y-116270890D01*
X106061302Y-116074000D01*
X106895000Y-116074000D01*
X106958143Y-116061440D01*
X107190000Y-116061440D01*
X107190000Y-122025786D01*
X107008957Y-121587628D01*
X106479161Y-121056907D01*
X105786595Y-120769328D01*
X105036695Y-120768674D01*
X104343628Y-121055043D01*
X103812907Y-121584839D01*
X103525328Y-122277405D01*
X103524674Y-123027305D01*
X103811043Y-123720372D01*
X104340839Y-124251093D01*
X104848759Y-124462000D01*
X104394000Y-124462000D01*
X104103161Y-124519852D01*
X103856599Y-124684599D01*
X101257198Y-127284000D01*
X100835547Y-127284000D01*
X100708957Y-126977628D01*
X100179161Y-126446907D01*
X99486595Y-126159328D01*
X98736695Y-126158674D01*
X98043628Y-126445043D01*
X97512907Y-126974839D01*
X97225328Y-127667405D01*
X97224674Y-128417305D01*
X97511043Y-129110372D01*
X98040839Y-129641093D01*
X98733405Y-129928672D01*
X99483305Y-129929326D01*
X100176372Y-129642957D01*
X100707093Y-129113161D01*
X100835468Y-128804000D01*
X101572000Y-128804000D01*
X101862839Y-128746148D01*
X102109401Y-128581401D01*
X102273497Y-128417305D01*
X103524674Y-128417305D01*
X103811043Y-129110372D01*
X104340839Y-129641093D01*
X105033405Y-129928672D01*
X105783305Y-129929326D01*
X106476372Y-129642957D01*
X107007093Y-129113161D01*
X107294672Y-128420595D01*
X107295326Y-127670695D01*
X107008957Y-126977628D01*
X106479161Y-126446907D01*
X105786595Y-126159328D01*
X105036695Y-126158674D01*
X104343628Y-126445043D01*
X103812907Y-126974839D01*
X103525328Y-127667405D01*
X103524674Y-128417305D01*
X102273497Y-128417305D01*
X104708802Y-125982000D01*
X115679897Y-125982000D01*
X115651162Y-126051201D01*
X115650900Y-126352298D01*
X113594683Y-128408515D01*
X113595326Y-127670695D01*
X113308957Y-126977628D01*
X112779161Y-126446907D01*
X112086595Y-126159328D01*
X111336695Y-126158674D01*
X110643628Y-126445043D01*
X110112907Y-126974839D01*
X109825328Y-127667405D01*
X109824674Y-128417305D01*
X110111043Y-129110372D01*
X110640839Y-129641093D01*
X111333405Y-129928672D01*
X112073880Y-129929318D01*
X110937198Y-131066000D01*
X101698000Y-131066000D01*
X101698000Y-131056750D01*
X101539250Y-130898000D01*
X100950500Y-130898000D01*
X100950500Y-130918000D01*
X100725500Y-130918000D01*
X100725500Y-130898000D01*
X100136750Y-130898000D01*
X99978000Y-131056750D01*
X99978000Y-131066000D01*
X99568000Y-131066000D01*
X99277161Y-131123852D01*
X99030599Y-131288599D01*
X97887599Y-132431599D01*
X97722852Y-132678161D01*
X97665000Y-132969000D01*
X97665000Y-133417258D01*
X97539683Y-133440838D01*
X97323559Y-133579910D01*
X97178569Y-133792110D01*
X97127560Y-134044000D01*
X97127560Y-135544000D01*
X97171838Y-135779317D01*
X97310910Y-135995441D01*
X97523110Y-136140431D01*
X97536197Y-136143081D01*
X97323559Y-136279910D01*
X97178569Y-136492110D01*
X97127560Y-136744000D01*
X97127560Y-138244000D01*
X97171838Y-138479317D01*
X97310910Y-138695441D01*
X97523110Y-138840431D01*
X97540000Y-138843851D01*
X97540000Y-139318995D01*
X97539999Y-139319000D01*
X97540000Y-139319005D01*
X97540000Y-140080995D01*
X97539999Y-140081000D01*
X97540000Y-140081005D01*
X97540000Y-143147793D01*
X97512907Y-143174839D01*
X97225328Y-143867405D01*
X97224674Y-144617305D01*
X97511043Y-145310372D01*
X98040839Y-145841093D01*
X98733405Y-146128672D01*
X99483305Y-146129326D01*
X100176372Y-145842957D01*
X100707093Y-145313161D01*
X100994672Y-144620595D01*
X100995326Y-143870695D01*
X100708957Y-143177628D01*
X100179161Y-142646907D01*
X99486595Y-142359328D01*
X99310000Y-142359174D01*
X99310000Y-140585000D01*
X103631995Y-140585000D01*
X103632000Y-140585001D01*
X103914484Y-140528810D01*
X103970675Y-140517633D01*
X104257790Y-140325790D01*
X104257791Y-140325789D01*
X105400787Y-139182792D01*
X105400790Y-139182790D01*
X105592633Y-138895675D01*
X105600026Y-138858506D01*
X105660317Y-138847162D01*
X105876441Y-138708090D01*
X106021431Y-138495890D01*
X106061302Y-138299000D01*
X106895000Y-138299000D01*
X106958143Y-138286440D01*
X107190000Y-138286440D01*
X107190000Y-143510000D01*
X107230576Y-143713988D01*
X107008957Y-143177628D01*
X106479161Y-142646907D01*
X105786595Y-142359328D01*
X105036695Y-142358674D01*
X104343628Y-142645043D01*
X103812907Y-143174839D01*
X103525328Y-143867405D01*
X103524674Y-144617305D01*
X103811043Y-145310372D01*
X104340839Y-145841093D01*
X105033405Y-146128672D01*
X105783305Y-146129326D01*
X106476372Y-145842957D01*
X107007093Y-145313161D01*
X107294672Y-144620595D01*
X107295325Y-143871888D01*
X107412599Y-144047401D01*
X110460599Y-147095401D01*
X110707161Y-147260148D01*
X110998000Y-147318000D01*
X114300000Y-147318000D01*
X114590839Y-147260148D01*
X114837401Y-147095401D01*
X117315497Y-144617305D01*
X174694674Y-144617305D01*
X174981043Y-145310372D01*
X175510839Y-145841093D01*
X176203405Y-146128672D01*
X176953305Y-146129326D01*
X177646372Y-145842957D01*
X178177093Y-145313161D01*
X178464672Y-144620595D01*
X178465326Y-143870695D01*
X178178957Y-143177628D01*
X177649161Y-142646907D01*
X176956595Y-142359328D01*
X176206695Y-142358674D01*
X175513628Y-142645043D01*
X174982907Y-143174839D01*
X174695328Y-143867405D01*
X174694674Y-144617305D01*
X117315497Y-144617305D01*
X118139401Y-143793401D01*
X118304148Y-143546840D01*
X118362000Y-143256000D01*
X118362000Y-128330802D01*
X119694802Y-126998000D01*
X127254000Y-126998000D01*
X127544839Y-126940148D01*
X127791401Y-126775401D01*
X141109680Y-113457122D01*
X141155167Y-113457162D01*
X141498943Y-113315117D01*
X141762192Y-113052327D01*
X141904838Y-112708799D01*
X141905162Y-112336833D01*
X141763117Y-111993057D01*
X141533631Y-111763171D01*
X144047401Y-109249401D01*
X144145000Y-109103333D01*
X144242599Y-109249401D01*
X149068599Y-114075401D01*
X149315161Y-114240148D01*
X149606000Y-114298000D01*
X157226000Y-114298000D01*
X157516839Y-114240148D01*
X157763401Y-114075401D01*
X158752000Y-113086802D01*
X158752000Y-114554000D01*
X158809852Y-114844839D01*
X158974599Y-115091401D01*
X172468000Y-128584802D01*
X172468000Y-133096000D01*
X172525852Y-133386839D01*
X172690599Y-133633401D01*
X181757886Y-142700688D01*
X181282907Y-143174839D01*
X180995328Y-143867405D01*
X180994674Y-144617305D01*
X181281043Y-145310372D01*
X181810839Y-145841093D01*
X182503405Y-146128672D01*
X183253305Y-146129326D01*
X183946372Y-145842957D01*
X184477093Y-145313161D01*
X184764672Y-144620595D01*
X184765326Y-143870695D01*
X184628325Y-143539127D01*
X185870599Y-144781401D01*
X186117161Y-144946148D01*
X186408000Y-145004000D01*
X187454453Y-145004000D01*
X187581043Y-145310372D01*
X188110839Y-145841093D01*
X188803405Y-146128672D01*
X189553305Y-146129326D01*
X190246372Y-145842957D01*
X190777093Y-145313161D01*
X191064672Y-144620595D01*
X191065326Y-143870695D01*
X190778957Y-143177628D01*
X190249161Y-142646907D01*
X189556595Y-142359328D01*
X188806695Y-142358674D01*
X188113628Y-142645043D01*
X187582907Y-143174839D01*
X187454532Y-143484000D01*
X186722802Y-143484000D01*
X185041552Y-141802750D01*
X186592000Y-141802750D01*
X186592000Y-141938309D01*
X186688673Y-142171698D01*
X186867301Y-142350327D01*
X187100690Y-142447000D01*
X187180750Y-142447000D01*
X187339500Y-142288250D01*
X187339500Y-141644000D01*
X187564500Y-141644000D01*
X187564500Y-142288250D01*
X187723250Y-142447000D01*
X187803310Y-142447000D01*
X188036699Y-142350327D01*
X188215327Y-142171698D01*
X188312000Y-141938309D01*
X188312000Y-141802750D01*
X188153250Y-141644000D01*
X187564500Y-141644000D01*
X187339500Y-141644000D01*
X186750750Y-141644000D01*
X186592000Y-141802750D01*
X185041552Y-141802750D01*
X184941401Y-141702599D01*
X184694839Y-141537852D01*
X184404000Y-141480000D01*
X182686802Y-141480000D01*
X182302493Y-141095691D01*
X186592000Y-141095691D01*
X186592000Y-141231250D01*
X186750750Y-141390000D01*
X187339500Y-141390000D01*
X187339500Y-140745750D01*
X187564500Y-140745750D01*
X187564500Y-141390000D01*
X188153250Y-141390000D01*
X188312000Y-141231250D01*
X188312000Y-141095691D01*
X188215327Y-140862302D01*
X188036699Y-140683673D01*
X187803310Y-140587000D01*
X187723250Y-140587000D01*
X187564500Y-140745750D01*
X187339500Y-140745750D01*
X187180750Y-140587000D01*
X187100690Y-140587000D01*
X186867301Y-140683673D01*
X186688673Y-140862302D01*
X186592000Y-141095691D01*
X182302493Y-141095691D01*
X178110802Y-136904000D01*
X182217560Y-136904000D01*
X182217560Y-138244000D01*
X182261838Y-138479317D01*
X182400910Y-138695441D01*
X182613110Y-138840431D01*
X182767055Y-138871606D01*
X182812852Y-139101839D01*
X182977599Y-139348401D01*
X183573599Y-139944401D01*
X183820160Y-140109148D01*
X184111000Y-140167000D01*
X186782754Y-140167000D01*
X186975110Y-140298431D01*
X187227000Y-140349440D01*
X187677000Y-140349440D01*
X187912317Y-140305162D01*
X188128441Y-140166090D01*
X188273431Y-139953890D01*
X188324440Y-139702000D01*
X188324440Y-139112000D01*
X188280162Y-138876683D01*
X188246276Y-138824023D01*
X188426441Y-138708090D01*
X188571431Y-138495890D01*
X188593993Y-138384477D01*
X188611838Y-138479317D01*
X188750910Y-138695441D01*
X188963110Y-138840431D01*
X189215000Y-138891440D01*
X190515000Y-138891440D01*
X190750317Y-138847162D01*
X190966441Y-138708090D01*
X191111431Y-138495890D01*
X191162440Y-138244000D01*
X191162440Y-138207367D01*
X191218839Y-138196148D01*
X191465401Y-138031401D01*
X192307401Y-137189401D01*
X192472148Y-136942840D01*
X192530000Y-136652000D01*
X192530000Y-126238000D01*
X192472148Y-125947161D01*
X192472148Y-125947160D01*
X192307401Y-125700599D01*
X191291401Y-124684599D01*
X191044839Y-124519852D01*
X190754000Y-124462000D01*
X189740449Y-124462000D01*
X190246372Y-124252957D01*
X190777093Y-123723161D01*
X191064672Y-123030595D01*
X191065326Y-122280695D01*
X190778957Y-121587628D01*
X190249161Y-121056907D01*
X189556595Y-120769328D01*
X188806695Y-120768674D01*
X188113628Y-121055043D01*
X187582907Y-121584839D01*
X187454532Y-121894000D01*
X186722802Y-121894000D01*
X184533552Y-119704750D01*
X186592000Y-119704750D01*
X186592000Y-119840309D01*
X186688673Y-120073698D01*
X186867301Y-120252327D01*
X187100690Y-120349000D01*
X187180750Y-120349000D01*
X187339500Y-120190250D01*
X187339500Y-119546000D01*
X187564500Y-119546000D01*
X187564500Y-120190250D01*
X187723250Y-120349000D01*
X187803310Y-120349000D01*
X188036699Y-120252327D01*
X188215327Y-120073698D01*
X188312000Y-119840309D01*
X188312000Y-119704750D01*
X188153250Y-119546000D01*
X187564500Y-119546000D01*
X187339500Y-119546000D01*
X186750750Y-119546000D01*
X186592000Y-119704750D01*
X184533552Y-119704750D01*
X184433401Y-119604599D01*
X184186839Y-119439852D01*
X183896000Y-119382000D01*
X171764802Y-119382000D01*
X171380493Y-118997691D01*
X186592000Y-118997691D01*
X186592000Y-119133250D01*
X186750750Y-119292000D01*
X187339500Y-119292000D01*
X187339500Y-118647750D01*
X187564500Y-118647750D01*
X187564500Y-119292000D01*
X188153250Y-119292000D01*
X188312000Y-119133250D01*
X188312000Y-118997691D01*
X188215327Y-118764302D01*
X188036699Y-118585673D01*
X187803310Y-118489000D01*
X187723250Y-118489000D01*
X187564500Y-118647750D01*
X187339500Y-118647750D01*
X187180750Y-118489000D01*
X187100690Y-118489000D01*
X186867301Y-118585673D01*
X186688673Y-118764302D01*
X186592000Y-118997691D01*
X171380493Y-118997691D01*
X163320000Y-110937198D01*
X163320000Y-108258463D01*
X163352192Y-108226327D01*
X163494838Y-107882799D01*
X163495162Y-107510833D01*
X163353117Y-107167057D01*
X163090327Y-106903808D01*
X162746799Y-106761162D01*
X162374833Y-106760838D01*
X162304000Y-106790106D01*
X162304000Y-102026999D01*
X162491167Y-102027162D01*
X162834943Y-101885117D01*
X162868118Y-101852000D01*
X169527897Y-101852000D01*
X169499162Y-101921201D01*
X169498838Y-102293167D01*
X169640883Y-102636943D01*
X169903673Y-102900192D01*
X170247201Y-103042838D01*
X170294077Y-103042879D01*
X172976000Y-105724802D01*
X172976000Y-109728000D01*
X173033852Y-110018839D01*
X173198599Y-110265401D01*
X177262599Y-114329401D01*
X177509160Y-114494148D01*
X177800000Y-114552000D01*
X182217560Y-114552000D01*
X182217560Y-116019000D01*
X182261838Y-116254317D01*
X182400910Y-116470441D01*
X182613110Y-116615431D01*
X182793378Y-116651936D01*
X182812852Y-116749839D01*
X182977599Y-116996401D01*
X183827599Y-117846401D01*
X184074161Y-118011148D01*
X184365000Y-118069000D01*
X186782754Y-118069000D01*
X186975110Y-118200431D01*
X187227000Y-118251440D01*
X187677000Y-118251440D01*
X187912317Y-118207162D01*
X188128441Y-118068090D01*
X188273431Y-117855890D01*
X188324440Y-117604000D01*
X188324440Y-117014000D01*
X188280162Y-116778683D01*
X188182778Y-116627344D01*
X188210317Y-116622162D01*
X188426441Y-116483090D01*
X188571431Y-116270890D01*
X188593993Y-116159477D01*
X188611838Y-116254317D01*
X188750910Y-116470441D01*
X188963110Y-116615431D01*
X189215000Y-116666440D01*
X190515000Y-116666440D01*
X190750317Y-116622162D01*
X190966441Y-116483090D01*
X191111431Y-116270890D01*
X191162440Y-116019000D01*
X191162440Y-115923974D01*
X191338401Y-115806401D01*
X192365400Y-114779403D01*
X192530146Y-114532841D01*
X192587998Y-114242002D01*
X192587998Y-105467998D01*
X192530146Y-105177159D01*
X192365399Y-104930597D01*
X191037401Y-103602599D01*
X190790839Y-103437852D01*
X190500000Y-103380000D01*
X188016802Y-103380000D01*
X188552369Y-102844433D01*
X188803405Y-102948672D01*
X189553305Y-102949326D01*
X190246372Y-102662957D01*
X190777093Y-102133161D01*
X191064672Y-101440595D01*
X191065326Y-100690695D01*
X190778957Y-99997628D01*
X190249161Y-99466907D01*
X189556595Y-99179328D01*
X188806695Y-99178674D01*
X188113628Y-99465043D01*
X187582907Y-99994839D01*
X187295328Y-100687405D01*
X187294674Y-101437305D01*
X187445315Y-101801883D01*
X187137198Y-102110000D01*
X184486710Y-102110000D01*
X184764672Y-101440595D01*
X184765326Y-100690695D01*
X184478957Y-99997628D01*
X183949161Y-99466907D01*
X183256595Y-99179328D01*
X182506695Y-99178674D01*
X181813628Y-99465043D01*
X181282907Y-99994839D01*
X180995328Y-100687405D01*
X180994674Y-101437305D01*
X181272625Y-102110000D01*
X178186710Y-102110000D01*
X178464672Y-101440595D01*
X178465326Y-100690695D01*
X178178957Y-99997628D01*
X177649161Y-99466907D01*
X176956595Y-99179328D01*
X176206695Y-99178674D01*
X175513628Y-99465043D01*
X174982907Y-99994839D01*
X174695328Y-100687405D01*
X174694674Y-101437305D01*
X174906313Y-101949511D01*
X173511401Y-100554599D01*
X173264839Y-100389852D01*
X173233236Y-100383566D01*
X175756052Y-97860750D01*
X186592000Y-97860750D01*
X186592000Y-97996309D01*
X186688673Y-98229698D01*
X186867301Y-98408327D01*
X187100690Y-98505000D01*
X187180750Y-98505000D01*
X187339500Y-98346250D01*
X187339500Y-97702000D01*
X187564500Y-97702000D01*
X187564500Y-98346250D01*
X187723250Y-98505000D01*
X187803310Y-98505000D01*
X188036699Y-98408327D01*
X188215327Y-98229698D01*
X188312000Y-97996309D01*
X188312000Y-97860750D01*
X188153250Y-97702000D01*
X187564500Y-97702000D01*
X187339500Y-97702000D01*
X186750750Y-97702000D01*
X186592000Y-97860750D01*
X175756052Y-97860750D01*
X176336802Y-97280000D01*
X186592000Y-97280000D01*
X186592000Y-97289250D01*
X186750750Y-97448000D01*
X187339500Y-97448000D01*
X187339500Y-97428000D01*
X187564500Y-97428000D01*
X187564500Y-97448000D01*
X188153250Y-97448000D01*
X188312000Y-97289250D01*
X188312000Y-97280000D01*
X189230000Y-97280000D01*
X189520839Y-97222148D01*
X189767401Y-97057401D01*
X190402401Y-96422401D01*
X190567148Y-96175839D01*
X190625000Y-95885000D01*
X190625000Y-95055742D01*
X190750317Y-95032162D01*
X190966441Y-94893090D01*
X191111431Y-94680890D01*
X191162440Y-94429000D01*
X191162440Y-92931280D01*
X191298839Y-92904148D01*
X191545401Y-92739401D01*
X192053401Y-92231401D01*
X192075541Y-92198266D01*
X192218148Y-91984839D01*
X192276000Y-91694000D01*
X192276000Y-84836000D01*
X192218148Y-84545161D01*
X192053401Y-84298599D01*
X190275401Y-82520599D01*
X190028839Y-82355852D01*
X189738000Y-82298000D01*
X175514000Y-82298000D01*
X175223160Y-82355852D01*
X174976599Y-82520599D01*
X173706599Y-83790599D01*
X173541852Y-84037161D01*
X173484000Y-84328000D01*
X173484000Y-96205198D01*
X173400981Y-96288217D01*
X173401162Y-96080833D01*
X173259117Y-95737057D01*
X173226000Y-95703882D01*
X173226000Y-93726000D01*
X173168148Y-93435161D01*
X173168148Y-93435160D01*
X173003401Y-93188599D01*
X169447401Y-89632599D01*
X169200839Y-89467852D01*
X168910000Y-89410000D01*
X164338000Y-89410000D01*
X164095414Y-89458254D01*
X164047160Y-89467852D01*
X163800599Y-89632599D01*
X162304000Y-91129198D01*
X162304000Y-87690802D01*
X168405341Y-81589461D01*
X168633673Y-81818192D01*
X168977201Y-81960838D01*
X169349167Y-81961162D01*
X169692943Y-81819117D01*
X169956192Y-81556327D01*
X170071764Y-81278000D01*
X187501000Y-81278000D01*
X187791839Y-81220148D01*
X188038401Y-81055401D01*
X188497255Y-80596547D01*
X188803405Y-80723672D01*
X189553305Y-80724326D01*
X190246372Y-80437957D01*
X190777093Y-79908161D01*
X191064672Y-79215595D01*
X191065326Y-78465695D01*
X190778957Y-77772628D01*
X190249161Y-77241907D01*
X189556595Y-76954328D01*
X188806695Y-76953674D01*
X188113628Y-77240043D01*
X187582907Y-77769839D01*
X187295328Y-78462405D01*
X187294674Y-79212305D01*
X187422509Y-79521689D01*
X187186198Y-79758000D01*
X184539445Y-79758000D01*
X184764672Y-79215595D01*
X184765326Y-78465695D01*
X184478957Y-77772628D01*
X183949161Y-77241907D01*
X183256595Y-76954328D01*
X182506695Y-76953674D01*
X181813628Y-77240043D01*
X181282907Y-77769839D01*
X180995328Y-78462405D01*
X180994674Y-79212305D01*
X181220150Y-79758000D01*
X178239445Y-79758000D01*
X178464672Y-79215595D01*
X178465326Y-78465695D01*
X178178957Y-77772628D01*
X177649161Y-77241907D01*
X176956595Y-76954328D01*
X176206695Y-76953674D01*
X175513628Y-77240043D01*
X174982907Y-77769839D01*
X174695328Y-78462405D01*
X174694674Y-79212305D01*
X174920150Y-79758000D01*
X170236802Y-79758000D01*
X173470052Y-76524750D01*
X186846000Y-76524750D01*
X186846000Y-76660309D01*
X186942673Y-76893698D01*
X187121301Y-77072327D01*
X187354690Y-77169000D01*
X187434750Y-77169000D01*
X187593500Y-77010250D01*
X187593500Y-76366000D01*
X187818500Y-76366000D01*
X187818500Y-77010250D01*
X187977250Y-77169000D01*
X188057310Y-77169000D01*
X188290699Y-77072327D01*
X188469327Y-76893698D01*
X188566000Y-76660309D01*
X188566000Y-76524750D01*
X188407250Y-76366000D01*
X187818500Y-76366000D01*
X187593500Y-76366000D01*
X187004750Y-76366000D01*
X186846000Y-76524750D01*
X173470052Y-76524750D01*
X174050802Y-75944000D01*
X186846000Y-75944000D01*
X186846000Y-75953250D01*
X187004750Y-76112000D01*
X187593500Y-76112000D01*
X187593500Y-76092000D01*
X187818500Y-76092000D01*
X187818500Y-76112000D01*
X188407250Y-76112000D01*
X188566000Y-75953250D01*
X188566000Y-75944000D01*
X188976000Y-75944000D01*
X189266839Y-75886148D01*
X189513401Y-75721401D01*
X190529401Y-74705401D01*
X190694148Y-74458839D01*
X190752000Y-74168000D01*
X190752000Y-73592742D01*
X190877317Y-73569162D01*
X191093441Y-73430090D01*
X191238431Y-73217890D01*
X191289440Y-72966000D01*
X191289440Y-71570018D01*
X191298839Y-71568148D01*
X191545401Y-71403401D01*
X191799401Y-71149401D01*
X191964148Y-70902840D01*
X192022000Y-70612000D01*
X192022000Y-61722000D01*
X191964148Y-61431161D01*
X191964148Y-61431160D01*
X191799401Y-61184599D01*
X190275401Y-59660599D01*
X190241425Y-59637897D01*
X190417800Y-59565020D01*
X191018909Y-58964959D01*
X191344628Y-58180541D01*
X191345370Y-57331185D01*
X191021020Y-56546200D01*
X190420959Y-55945091D01*
X189636541Y-55619372D01*
X188787185Y-55618630D01*
X188002200Y-55942980D01*
X187401091Y-56543041D01*
X187075372Y-57327459D01*
X187074630Y-58176815D01*
X187398980Y-58961800D01*
X187874350Y-59438000D01*
X175260000Y-59438000D01*
X174969160Y-59495852D01*
X174722599Y-59660599D01*
X173452599Y-60930599D01*
X173287852Y-61177161D01*
X173230000Y-61468000D01*
X173230000Y-72837198D01*
X165985770Y-80081428D01*
X165884327Y-79979808D01*
X165540799Y-79837162D01*
X165168833Y-79836838D01*
X164825057Y-79978883D01*
X164561808Y-80241673D01*
X164419162Y-80585201D01*
X164419121Y-80632077D01*
X161737198Y-83314000D01*
X155125047Y-83314000D01*
X155056894Y-83149057D01*
X154712241Y-82803801D01*
X155055278Y-82461363D01*
X155124773Y-82294000D01*
X156210000Y-82294000D01*
X156500839Y-82236148D01*
X156747401Y-82071401D01*
X157382401Y-81436401D01*
X157547148Y-81189839D01*
X157605000Y-80899000D01*
X157605000Y-80450742D01*
X157730317Y-80427162D01*
X157946441Y-80288090D01*
X158091431Y-80075890D01*
X158142440Y-79824000D01*
X158142440Y-78324000D01*
X158098162Y-78088683D01*
X157959090Y-77872559D01*
X157746890Y-77727569D01*
X157733803Y-77724919D01*
X157946441Y-77588090D01*
X158091431Y-77375890D01*
X158142440Y-77124000D01*
X158142440Y-75624000D01*
X158098162Y-75388683D01*
X157959090Y-75172559D01*
X157746890Y-75027569D01*
X157605000Y-74998836D01*
X157605000Y-73754000D01*
X157547148Y-73463161D01*
X157382401Y-73216599D01*
X152501511Y-68335709D01*
X152534742Y-68255681D01*
X152535257Y-67664911D01*
X152309656Y-67118914D01*
X151892283Y-66700812D01*
X151346681Y-66474258D01*
X150755911Y-66473743D01*
X150209914Y-66699344D01*
X149791812Y-67116717D01*
X149565258Y-67662319D01*
X149564743Y-68253089D01*
X149790344Y-68799086D01*
X150207717Y-69217188D01*
X150753319Y-69443742D01*
X151344089Y-69444257D01*
X151426432Y-69410234D01*
X156085000Y-74068802D01*
X156085000Y-74997258D01*
X155959683Y-75020838D01*
X155743559Y-75159910D01*
X155598569Y-75372110D01*
X155547560Y-75624000D01*
X155547560Y-77124000D01*
X155591838Y-77359317D01*
X155730910Y-77575441D01*
X155943110Y-77720431D01*
X155956197Y-77723081D01*
X155743559Y-77859910D01*
X155598569Y-78072110D01*
X155547560Y-78324000D01*
X155547560Y-79824000D01*
X155591838Y-80059317D01*
X155730910Y-80275441D01*
X155943110Y-80420431D01*
X156085000Y-80449164D01*
X156085000Y-80584198D01*
X155895198Y-80774000D01*
X155125047Y-80774000D01*
X155056894Y-80609057D01*
X154712241Y-80263801D01*
X155055278Y-79921363D01*
X155304716Y-79320648D01*
X155305284Y-78670205D01*
X155056894Y-78069057D01*
X154990379Y-78002426D01*
X155121441Y-77918090D01*
X155266431Y-77705890D01*
X155317440Y-77454000D01*
X155317440Y-75454000D01*
X155273162Y-75218683D01*
X155134090Y-75002559D01*
X154921890Y-74857569D01*
X154670000Y-74806560D01*
X152670000Y-74806560D01*
X152434683Y-74850838D01*
X152218559Y-74989910D01*
X152073569Y-75202110D01*
X152022560Y-75454000D01*
X152022560Y-77454000D01*
X152066838Y-77689317D01*
X152205910Y-77905441D01*
X152348561Y-78002910D01*
X152284722Y-78066637D01*
X152035284Y-78667352D01*
X152034716Y-79317795D01*
X152283106Y-79918943D01*
X152627759Y-80264199D01*
X152284722Y-80606637D01*
X152035284Y-81207352D01*
X152034716Y-81857795D01*
X152283106Y-82458943D01*
X152627759Y-82804199D01*
X152284722Y-83146637D01*
X152035284Y-83747352D01*
X152034716Y-84397795D01*
X152283106Y-84998943D01*
X152627759Y-85344199D01*
X152284722Y-85686637D01*
X152035284Y-86287352D01*
X152034716Y-86937795D01*
X152283106Y-87538943D01*
X152627759Y-87884199D01*
X152284722Y-88226637D01*
X152035284Y-88827352D01*
X152034716Y-89477795D01*
X152283106Y-90078943D01*
X152627759Y-90424199D01*
X152284722Y-90766637D01*
X152035284Y-91367352D01*
X152034716Y-92017795D01*
X152283106Y-92618943D01*
X152627759Y-92964199D01*
X152284722Y-93306637D01*
X152215227Y-93474000D01*
X150682802Y-93474000D01*
X148334000Y-91125198D01*
X148334000Y-77216000D01*
X148276148Y-76925161D01*
X148111401Y-76678599D01*
X141397122Y-69964320D01*
X141397162Y-69918833D01*
X141255117Y-69575057D01*
X141124354Y-69444065D01*
X141344089Y-69444257D01*
X141890086Y-69218656D01*
X142308188Y-68801283D01*
X142534742Y-68255681D01*
X142535257Y-67664911D01*
X142309656Y-67118914D01*
X141892283Y-66700812D01*
X141346681Y-66474258D01*
X140755911Y-66473743D01*
X140209914Y-66699344D01*
X139791812Y-67116717D01*
X139757645Y-67199000D01*
X139305000Y-67199000D01*
X139014161Y-67256852D01*
X138767599Y-67421599D01*
X137892599Y-68296599D01*
X137727852Y-68543161D01*
X137670000Y-68834000D01*
X137670000Y-69155258D01*
X137544683Y-69178838D01*
X137537000Y-69183782D01*
X137537000Y-69088005D01*
X137537001Y-69088000D01*
X137469633Y-68749326D01*
X137469633Y-68749325D01*
X137277790Y-68462210D01*
X137277787Y-68462208D01*
X134568669Y-65753089D01*
X137064743Y-65753089D01*
X137290344Y-66299086D01*
X137707717Y-66717188D01*
X138253319Y-66943742D01*
X138844089Y-66944257D01*
X139390086Y-66718656D01*
X139808188Y-66301283D01*
X140034742Y-65755681D01*
X140035257Y-65164911D01*
X139809656Y-64618914D01*
X139392283Y-64200812D01*
X138846681Y-63974258D01*
X138255911Y-63973743D01*
X137709914Y-64199344D01*
X137291812Y-64616717D01*
X137065258Y-65162319D01*
X137064743Y-65753089D01*
X134568669Y-65753089D01*
X134229790Y-65414210D01*
X134157638Y-65366000D01*
X133942675Y-65222367D01*
X133886484Y-65211190D01*
X133604000Y-65154999D01*
X133603995Y-65155000D01*
X132700579Y-65155000D01*
X132330000Y-64784420D01*
X132330000Y-63627005D01*
X132330001Y-63627000D01*
X132330000Y-63626995D01*
X132330000Y-62531279D01*
X132521441Y-62408090D01*
X132666431Y-62195890D01*
X132717440Y-61944000D01*
X132717440Y-60444000D01*
X132673162Y-60208683D01*
X132534090Y-59992559D01*
X132464289Y-59944866D01*
X132521441Y-59908090D01*
X132666431Y-59695890D01*
X132690102Y-59579000D01*
X138918420Y-59579000D01*
X144565203Y-65225782D01*
X144564743Y-65753089D01*
X144790344Y-66299086D01*
X145207717Y-66717188D01*
X145753319Y-66943742D01*
X146344089Y-66944257D01*
X146890086Y-66718656D01*
X147308188Y-66301283D01*
X147534742Y-65755681D01*
X147534744Y-65753089D01*
X152064743Y-65753089D01*
X152290344Y-66299086D01*
X152707717Y-66717188D01*
X153253319Y-66943742D01*
X153844089Y-66944257D01*
X154390086Y-66718656D01*
X154808188Y-66301283D01*
X155034742Y-65755681D01*
X155035257Y-65164911D01*
X154809656Y-64618914D01*
X154392283Y-64200812D01*
X153846681Y-63974258D01*
X153255911Y-63973743D01*
X152709914Y-64199344D01*
X152291812Y-64616717D01*
X152065258Y-65162319D01*
X152064743Y-65753089D01*
X147534744Y-65753089D01*
X147535257Y-65164911D01*
X147309656Y-64618914D01*
X146892283Y-64200812D01*
X146346681Y-63974258D01*
X145816375Y-63973796D01*
X139910790Y-58068210D01*
X139623675Y-57876367D01*
X139567484Y-57865190D01*
X139285000Y-57808999D01*
X139284995Y-57809000D01*
X132692038Y-57809000D01*
X132673162Y-57708683D01*
X132534090Y-57492559D01*
X132321890Y-57347569D01*
X132070000Y-57296560D01*
X131445000Y-57296560D01*
X131445000Y-55753089D01*
X139564743Y-55753089D01*
X139790344Y-56299086D01*
X140207717Y-56717188D01*
X140753319Y-56943742D01*
X141344089Y-56944257D01*
X141890086Y-56718656D01*
X142308188Y-56301283D01*
X142534742Y-55755681D01*
X142534744Y-55753089D01*
X149564743Y-55753089D01*
X149790344Y-56299086D01*
X150207717Y-56717188D01*
X150753319Y-56943742D01*
X151344089Y-56944257D01*
X151890086Y-56718656D01*
X152308188Y-56301283D01*
X152534742Y-55755681D01*
X152535257Y-55164911D01*
X152309656Y-54618914D01*
X151892283Y-54200812D01*
X151346681Y-53974258D01*
X150755911Y-53973743D01*
X150209914Y-54199344D01*
X149791812Y-54616717D01*
X149565258Y-55162319D01*
X149564743Y-55753089D01*
X142534744Y-55753089D01*
X142535257Y-55164911D01*
X142309656Y-54618914D01*
X141892283Y-54200812D01*
X141346681Y-53974258D01*
X140755911Y-53973743D01*
X140209914Y-54199344D01*
X139791812Y-54616717D01*
X139565258Y-55162319D01*
X139564743Y-55753089D01*
X131445000Y-55753089D01*
X131445000Y-54356000D01*
X131434994Y-54306590D01*
X131406553Y-54264965D01*
X131364159Y-54237685D01*
X131318000Y-54229000D01*
X113538000Y-54229000D01*
X113488590Y-54239006D01*
X113446965Y-54267447D01*
X113419685Y-54309841D01*
X113411000Y-54356000D01*
X113411000Y-59436000D01*
X113421006Y-59485410D01*
X113446034Y-59523586D01*
X118526034Y-64857586D01*
X118567356Y-64886465D01*
X118618000Y-64897000D01*
X125476000Y-64897000D01*
X125480000Y-64896190D01*
X125480000Y-65298924D01*
X125208783Y-66022169D01*
X125167807Y-66231613D01*
X125189042Y-66353728D01*
X125168100Y-66439069D01*
X125208783Y-66692831D01*
X125265000Y-66842743D01*
X125265000Y-66738500D01*
X125405879Y-66738500D01*
X125563110Y-66845931D01*
X125815000Y-66896940D01*
X126915000Y-66896940D01*
X127125497Y-66861766D01*
X127335423Y-66738500D01*
X127465000Y-66738500D01*
X127465000Y-66842743D01*
X127521217Y-66692831D01*
X127562193Y-66483387D01*
X127540958Y-66361272D01*
X127561900Y-66275931D01*
X127521217Y-66022169D01*
X127250000Y-65298924D01*
X127250000Y-64434757D01*
X127291441Y-64408090D01*
X127436431Y-64195890D01*
X127487440Y-63944000D01*
X127487440Y-63119000D01*
X127542560Y-63119000D01*
X127542560Y-63944000D01*
X127586838Y-64179317D01*
X127725910Y-64395441D01*
X127938110Y-64540431D01*
X128020000Y-64557014D01*
X128020000Y-65298924D01*
X127748783Y-66022169D01*
X127707807Y-66231613D01*
X127729042Y-66353728D01*
X127708100Y-66439069D01*
X127748783Y-66692831D01*
X127805000Y-66842743D01*
X127805000Y-66738500D01*
X127945879Y-66738500D01*
X128103110Y-66845931D01*
X128355000Y-66896940D01*
X129455000Y-66896940D01*
X129665497Y-66861766D01*
X129875423Y-66738500D01*
X130005000Y-66738500D01*
X130005000Y-66842743D01*
X130061217Y-66692831D01*
X130102193Y-66483387D01*
X130080958Y-66361272D01*
X130101900Y-66275931D01*
X130061217Y-66022169D01*
X129790000Y-65298924D01*
X129790000Y-63879000D01*
X130445420Y-63879000D01*
X130560000Y-63993579D01*
X130560000Y-65150995D01*
X130559999Y-65151000D01*
X130597167Y-65337852D01*
X130627367Y-65489675D01*
X130819210Y-65776790D01*
X131708208Y-66665787D01*
X131708210Y-66665790D01*
X131995325Y-66857633D01*
X132051516Y-66868810D01*
X132334000Y-66925001D01*
X132334005Y-66925000D01*
X133237420Y-66925000D01*
X135481285Y-69168865D01*
X135450833Y-69168838D01*
X135107057Y-69310883D01*
X135073882Y-69344000D01*
X121666000Y-69344000D01*
X121375161Y-69401852D01*
X121128599Y-69566599D01*
X119573198Y-71122000D01*
X112328802Y-71122000D01*
X108199302Y-66992500D01*
X125321159Y-66992500D01*
X125508783Y-67492831D01*
X125650910Y-67716941D01*
X125863110Y-67861931D01*
X126115000Y-67912940D01*
X126238000Y-67912940D01*
X126238000Y-66992500D01*
X126492000Y-66992500D01*
X126492000Y-67912940D01*
X126615000Y-67912940D01*
X126874745Y-67858553D01*
X127085011Y-67710773D01*
X127221217Y-67492831D01*
X127408841Y-66992500D01*
X127861159Y-66992500D01*
X128048783Y-67492831D01*
X128190910Y-67716941D01*
X128403110Y-67861931D01*
X128655000Y-67912940D01*
X128778000Y-67912940D01*
X128778000Y-66992500D01*
X129032000Y-66992500D01*
X129032000Y-67912940D01*
X129155000Y-67912940D01*
X129414745Y-67858553D01*
X129625011Y-67710773D01*
X129761217Y-67492831D01*
X129948841Y-66992500D01*
X129032000Y-66992500D01*
X128778000Y-66992500D01*
X127861159Y-66992500D01*
X127408841Y-66992500D01*
X126492000Y-66992500D01*
X126238000Y-66992500D01*
X125321159Y-66992500D01*
X108199302Y-66992500D01*
X107471401Y-66264599D01*
X107224839Y-66099852D01*
X106934000Y-66042000D01*
X105978802Y-66042000D01*
X102949107Y-63012305D01*
X103524674Y-63012305D01*
X103811043Y-63705372D01*
X104340839Y-64236093D01*
X105033405Y-64523672D01*
X105783305Y-64524326D01*
X106476372Y-64237957D01*
X107007093Y-63708161D01*
X107294672Y-63015595D01*
X107294674Y-63012305D01*
X109824674Y-63012305D01*
X110111043Y-63705372D01*
X110640839Y-64236093D01*
X111333405Y-64523672D01*
X112083305Y-64524326D01*
X112776372Y-64237957D01*
X113307093Y-63708161D01*
X113594672Y-63015595D01*
X113595326Y-62265695D01*
X113308957Y-61572628D01*
X112779161Y-61041907D01*
X112086595Y-60754328D01*
X111336695Y-60753674D01*
X110643628Y-61040043D01*
X110112907Y-61569839D01*
X109825328Y-62262405D01*
X109824674Y-63012305D01*
X107294674Y-63012305D01*
X107295326Y-62265695D01*
X107008957Y-61572628D01*
X106479161Y-61041907D01*
X105786595Y-60754328D01*
X105036695Y-60753674D01*
X104343628Y-61040043D01*
X103812907Y-61569839D01*
X103525328Y-62262405D01*
X103524674Y-63012305D01*
X102949107Y-63012305D01*
X102038401Y-62101599D01*
X101791839Y-61936852D01*
X101501000Y-61879000D01*
X100835547Y-61879000D01*
X100708957Y-61572628D01*
X100179161Y-61041907D01*
X99486595Y-60754328D01*
X98736695Y-60753674D01*
X98043628Y-61040043D01*
X97512907Y-61569839D01*
X97225328Y-62262405D01*
X97224674Y-63012305D01*
X97511043Y-63705372D01*
X98040839Y-64236093D01*
X98733405Y-64523672D01*
X99483305Y-64524326D01*
X100176372Y-64237957D01*
X100707093Y-63708161D01*
X100835468Y-63399000D01*
X101186198Y-63399000D01*
X104386163Y-66598965D01*
X104140000Y-66550000D01*
X101704167Y-66550000D01*
X101568890Y-66457569D01*
X101317000Y-66406560D01*
X100867000Y-66406560D01*
X100631683Y-66450838D01*
X100415559Y-66589910D01*
X100270569Y-66802110D01*
X100219560Y-67054000D01*
X100219560Y-67644000D01*
X100263838Y-67879317D01*
X100336064Y-67991560D01*
X100315000Y-67991560D01*
X100079683Y-68035838D01*
X99863559Y-68174910D01*
X99718569Y-68387110D01*
X99696007Y-68498523D01*
X99678162Y-68403683D01*
X99539090Y-68187559D01*
X99326890Y-68042569D01*
X99075000Y-67991560D01*
X97775000Y-67991560D01*
X97539683Y-68035838D01*
X97323559Y-68174910D01*
X97178569Y-68387110D01*
X97127560Y-68639000D01*
X97127560Y-68659720D01*
X96991161Y-68686852D01*
X96744599Y-68851599D01*
X95982599Y-69613599D01*
X95817852Y-69860161D01*
X95760000Y-70151000D01*
X95145000Y-70151000D01*
X95145000Y-65524750D01*
X100232000Y-65524750D01*
X100232000Y-65660309D01*
X100328673Y-65893698D01*
X100507301Y-66072327D01*
X100740690Y-66169000D01*
X100820750Y-66169000D01*
X100979500Y-66010250D01*
X100979500Y-65366000D01*
X101204500Y-65366000D01*
X101204500Y-66010250D01*
X101363250Y-66169000D01*
X101443310Y-66169000D01*
X101676699Y-66072327D01*
X101855327Y-65893698D01*
X101952000Y-65660309D01*
X101952000Y-65524750D01*
X101793250Y-65366000D01*
X101204500Y-65366000D01*
X100979500Y-65366000D01*
X100390750Y-65366000D01*
X100232000Y-65524750D01*
X95145000Y-65524750D01*
X95145000Y-64817691D01*
X100232000Y-64817691D01*
X100232000Y-64953250D01*
X100390750Y-65112000D01*
X100979500Y-65112000D01*
X100979500Y-64467750D01*
X101204500Y-64467750D01*
X101204500Y-65112000D01*
X101793250Y-65112000D01*
X101952000Y-64953250D01*
X101952000Y-64817691D01*
X101855327Y-64584302D01*
X101676699Y-64405673D01*
X101443310Y-64309000D01*
X101363250Y-64309000D01*
X101204500Y-64467750D01*
X100979500Y-64467750D01*
X100820750Y-64309000D01*
X100740690Y-64309000D01*
X100507301Y-64405673D01*
X100328673Y-64584302D01*
X100232000Y-64817691D01*
X95145000Y-64817691D01*
X95145000Y-58526815D01*
X97116630Y-58526815D01*
X97440980Y-59311800D01*
X98041041Y-59912909D01*
X98825459Y-60238628D01*
X99674815Y-60239370D01*
X100459800Y-59915020D01*
X101060909Y-59314959D01*
X101386628Y-58530541D01*
X101387370Y-57681185D01*
X101063020Y-56896200D01*
X100462959Y-56295091D01*
X99678541Y-55969372D01*
X98829185Y-55968630D01*
X98044200Y-56292980D01*
X97443091Y-56893041D01*
X97117372Y-57677459D01*
X97116630Y-58526815D01*
X95145000Y-58526815D01*
X95145000Y-57826390D01*
X95482957Y-56127366D01*
X96395932Y-54761000D01*
X104331572Y-54761000D01*
X104331572Y-58731000D01*
X110044429Y-58731000D01*
X110044429Y-54761000D01*
X104331572Y-54761000D01*
X96395932Y-54761000D01*
X96404371Y-54748371D01*
X97783366Y-53826957D01*
X99482390Y-53489000D01*
X189137610Y-53489000D01*
X190836634Y-53826957D01*
X190836634Y-53826957D01*
G37*
X190836634Y-53826957D02*
X192215629Y-54748371D01*
X193137043Y-56127366D01*
X193475000Y-57826390D01*
X193475000Y-147481610D01*
X193137043Y-149180634D01*
X192215629Y-150559629D01*
X190836634Y-151481043D01*
X189137610Y-151819000D01*
X99482390Y-151819000D01*
X97783366Y-151481043D01*
X96404371Y-150559629D01*
X95482957Y-149180634D01*
X95243503Y-147976815D01*
X117274630Y-147976815D01*
X117598980Y-148761800D01*
X118199041Y-149362909D01*
X118983459Y-149688628D01*
X119832815Y-149689370D01*
X120617800Y-149365020D01*
X121218909Y-148764959D01*
X121544628Y-147980541D01*
X121544631Y-147976815D01*
X167074630Y-147976815D01*
X167398980Y-148761800D01*
X167999041Y-149362909D01*
X168783459Y-149688628D01*
X169632815Y-149689370D01*
X170417800Y-149365020D01*
X171018909Y-148764959D01*
X171344628Y-147980541D01*
X171345370Y-147131185D01*
X171021020Y-146346200D01*
X170420959Y-145745091D01*
X169636541Y-145419372D01*
X168787185Y-145418630D01*
X168002200Y-145742980D01*
X167401091Y-146343041D01*
X167075372Y-147127459D01*
X167074630Y-147976815D01*
X121544631Y-147976815D01*
X121545370Y-147131185D01*
X121221020Y-146346200D01*
X120620959Y-145745091D01*
X119836541Y-145419372D01*
X118987185Y-145418630D01*
X118202200Y-145742980D01*
X117601091Y-146343041D01*
X117275372Y-147127459D01*
X117274630Y-147976815D01*
X95243503Y-147976815D01*
X95145000Y-147481610D01*
X95145000Y-130349691D01*
X99978000Y-130349691D01*
X99978000Y-130485250D01*
X100136750Y-130644000D01*
X100725500Y-130644000D01*
X100725500Y-129999750D01*
X100950500Y-129999750D01*
X100950500Y-130644000D01*
X101539250Y-130644000D01*
X101698000Y-130485250D01*
X101698000Y-130349691D01*
X101601327Y-130116302D01*
X101422699Y-129937673D01*
X101189310Y-129841000D01*
X101109250Y-129841000D01*
X100950500Y-129999750D01*
X100725500Y-129999750D01*
X100566750Y-129841000D01*
X100486690Y-129841000D01*
X100253301Y-129937673D01*
X100074673Y-130116302D01*
X99978000Y-130349691D01*
X95145000Y-130349691D01*
X95145000Y-70151000D01*
X95760000Y-70151000D01*
X95760000Y-80010000D01*
X95817852Y-80300839D01*
X95982599Y-80547401D01*
X98508259Y-83073061D01*
X98043628Y-83265043D01*
X97512907Y-83794839D01*
X97225328Y-84487405D01*
X97224674Y-85237305D01*
X97511043Y-85930372D01*
X98040839Y-86461093D01*
X98733405Y-86748672D01*
X99483305Y-86749326D01*
X99695398Y-86661691D01*
X100232000Y-86661691D01*
X100232000Y-86797250D01*
X100390750Y-86956000D01*
X100979500Y-86956000D01*
X100979500Y-86311750D01*
X101204500Y-86311750D01*
X101204500Y-86956000D01*
X101793250Y-86956000D01*
X101952000Y-86797250D01*
X101952000Y-86661691D01*
X101855327Y-86428302D01*
X101676699Y-86249673D01*
X101443310Y-86153000D01*
X101363250Y-86153000D01*
X101204500Y-86311750D01*
X100979500Y-86311750D01*
X100820750Y-86153000D01*
X100740690Y-86153000D01*
X100507301Y-86249673D01*
X100328673Y-86428302D01*
X100232000Y-86661691D01*
X99695398Y-86661691D01*
X100176372Y-86462957D01*
X100707093Y-85933161D01*
X100835468Y-85624000D01*
X102329198Y-85624000D01*
X103856599Y-87151401D01*
X104103161Y-87316148D01*
X104394000Y-87374000D01*
X114808000Y-87374000D01*
X115098839Y-87316148D01*
X115345401Y-87151401D01*
X115572000Y-86924802D01*
X115572000Y-98243537D01*
X115539808Y-98275673D01*
X115397162Y-98619201D01*
X115396838Y-98991167D01*
X115538883Y-99334943D01*
X115773530Y-99570000D01*
X114360802Y-99570000D01*
X110742000Y-95951198D01*
X110742000Y-92964000D01*
X110684148Y-92673161D01*
X110519401Y-92426599D01*
X105693401Y-87600599D01*
X105446839Y-87435852D01*
X105156000Y-87378000D01*
X101952000Y-87378000D01*
X101952000Y-87368750D01*
X101793250Y-87210000D01*
X101204500Y-87210000D01*
X101204500Y-87230000D01*
X100979500Y-87230000D01*
X100979500Y-87210000D01*
X100390750Y-87210000D01*
X100232000Y-87368750D01*
X100232000Y-87378000D01*
X99568000Y-87378000D01*
X99277161Y-87435852D01*
X99030599Y-87600599D01*
X97887599Y-88743599D01*
X97722852Y-88990161D01*
X97665000Y-89281000D01*
X97665000Y-89602258D01*
X97539683Y-89625838D01*
X97323559Y-89764910D01*
X97178569Y-89977110D01*
X97127560Y-90229000D01*
X97127560Y-91729000D01*
X97171838Y-91964317D01*
X97310910Y-92180441D01*
X97523110Y-92325431D01*
X97536197Y-92328081D01*
X97323559Y-92464910D01*
X97178569Y-92677110D01*
X97127560Y-92929000D01*
X97127560Y-94429000D01*
X97171838Y-94664317D01*
X97310910Y-94880441D01*
X97523110Y-95025431D01*
X97540000Y-95028851D01*
X97540000Y-95884995D01*
X97539999Y-95885000D01*
X97540000Y-95885005D01*
X97540000Y-96646995D01*
X97539999Y-96647000D01*
X97540000Y-96647005D01*
X97540000Y-99967793D01*
X97512907Y-99994839D01*
X97225328Y-100687405D01*
X97224674Y-101437305D01*
X97511043Y-102130372D01*
X98040839Y-102661093D01*
X98733405Y-102948672D01*
X99483305Y-102949326D01*
X100176372Y-102662957D01*
X100707093Y-102133161D01*
X100994672Y-101440595D01*
X100995326Y-100690695D01*
X100708957Y-99997628D01*
X100179161Y-99466907D01*
X99486595Y-99179328D01*
X99310000Y-99179174D01*
X99310000Y-97151000D01*
X103631995Y-97151000D01*
X103632000Y-97151001D01*
X103914484Y-97094810D01*
X103970675Y-97083633D01*
X104257790Y-96891790D01*
X104257791Y-96891789D01*
X105273787Y-95875792D01*
X105273790Y-95875790D01*
X105465633Y-95588675D01*
X105493542Y-95448367D01*
X105533001Y-95250000D01*
X105533000Y-95249995D01*
X105533000Y-95056118D01*
X105660317Y-95032162D01*
X105876441Y-94893090D01*
X106021431Y-94680890D01*
X106061302Y-94484000D01*
X106895000Y-94484000D01*
X106958143Y-94471440D01*
X107190000Y-94471440D01*
X107190000Y-100330000D01*
X107230576Y-100533988D01*
X107008957Y-99997628D01*
X106479161Y-99466907D01*
X105786595Y-99179328D01*
X105036695Y-99178674D01*
X104343628Y-99465043D01*
X103812907Y-99994839D01*
X103525328Y-100687405D01*
X103524674Y-101437305D01*
X103811043Y-102130372D01*
X104340839Y-102661093D01*
X105033405Y-102948672D01*
X105783305Y-102949326D01*
X106476372Y-102662957D01*
X107007093Y-102133161D01*
X107294672Y-101440595D01*
X107295325Y-100691888D01*
X107412599Y-100867401D01*
X109925198Y-103380000D01*
X101424000Y-103380000D01*
X101133160Y-103437852D01*
X100886599Y-103602599D01*
X99792745Y-104696453D01*
X99486595Y-104569328D01*
X98736695Y-104568674D01*
X98043628Y-104855043D01*
X97512907Y-105384839D01*
X97225328Y-106077405D01*
X97224674Y-106827305D01*
X97511043Y-107520372D01*
X98040839Y-108051093D01*
X98733405Y-108338672D01*
X99483305Y-108339326D01*
X99695398Y-108251691D01*
X100232000Y-108251691D01*
X100232000Y-108387250D01*
X100390750Y-108546000D01*
X100979500Y-108546000D01*
X100979500Y-107901750D01*
X101204500Y-107901750D01*
X101204500Y-108546000D01*
X101793250Y-108546000D01*
X101952000Y-108387250D01*
X101952000Y-108251691D01*
X101855327Y-108018302D01*
X101676699Y-107839673D01*
X101443310Y-107743000D01*
X101363250Y-107743000D01*
X101204500Y-107901750D01*
X100979500Y-107901750D01*
X100820750Y-107743000D01*
X100740690Y-107743000D01*
X100507301Y-107839673D01*
X100328673Y-108018302D01*
X100232000Y-108251691D01*
X99695398Y-108251691D01*
X100176372Y-108052957D01*
X100707093Y-107523161D01*
X100994672Y-106830595D01*
X100995326Y-106080695D01*
X100867491Y-105771311D01*
X101738802Y-104900000D01*
X104298593Y-104900000D01*
X103812907Y-105384839D01*
X103525328Y-106077405D01*
X103524674Y-106827305D01*
X103811043Y-107520372D01*
X104340839Y-108051093D01*
X105033405Y-108338672D01*
X105783305Y-108339326D01*
X106476372Y-108052957D01*
X107007093Y-107523161D01*
X107294672Y-106830595D01*
X107295326Y-106080695D01*
X107008957Y-105387628D01*
X106522179Y-104900000D01*
X110598593Y-104900000D01*
X110112907Y-105384839D01*
X109825328Y-106077405D01*
X109824674Y-106827305D01*
X110111043Y-107520372D01*
X110640839Y-108051093D01*
X111333405Y-108338672D01*
X112083305Y-108339326D01*
X112776372Y-108052957D01*
X113307093Y-107523161D01*
X113594672Y-106830595D01*
X113595326Y-106080695D01*
X113308957Y-105387628D01*
X112822179Y-104900000D01*
X114554000Y-104900000D01*
X114844839Y-104842148D01*
X115091401Y-104677401D01*
X116471680Y-103297122D01*
X116517167Y-103297162D01*
X116588000Y-103267894D01*
X116588000Y-107127198D01*
X114747198Y-108968000D01*
X101952000Y-108968000D01*
X101952000Y-108958750D01*
X101793250Y-108800000D01*
X101204500Y-108800000D01*
X101204500Y-108820000D01*
X100979500Y-108820000D01*
X100979500Y-108800000D01*
X100390750Y-108800000D01*
X100232000Y-108958750D01*
X100232000Y-108968000D01*
X99568000Y-108968000D01*
X99277161Y-109025852D01*
X99030599Y-109190599D01*
X97887599Y-110333599D01*
X97722852Y-110580161D01*
X97665000Y-110871000D01*
X97665000Y-111192258D01*
X97539683Y-111215838D01*
X97323559Y-111354910D01*
X97178569Y-111567110D01*
X97127560Y-111819000D01*
X97127560Y-113319000D01*
X97171838Y-113554317D01*
X97310910Y-113770441D01*
X97523110Y-113915431D01*
X97536197Y-113918081D01*
X97323559Y-114054910D01*
X97178569Y-114267110D01*
X97127560Y-114519000D01*
X97127560Y-116019000D01*
X97171838Y-116254317D01*
X97310910Y-116470441D01*
X97523110Y-116615431D01*
X97540000Y-116618851D01*
X97540000Y-116712995D01*
X97539999Y-116713000D01*
X97540000Y-116713005D01*
X97540000Y-121557793D01*
X97512907Y-121584839D01*
X97225328Y-122277405D01*
X97224674Y-123027305D01*
X97511043Y-123720372D01*
X98040839Y-124251093D01*
X98733405Y-124538672D01*
X99483305Y-124539326D01*
X100176372Y-124252957D01*
X100707093Y-123723161D01*
X100994672Y-123030595D01*
X100995326Y-122280695D01*
X100708957Y-121587628D01*
X100179161Y-121056907D01*
X99486595Y-120769328D01*
X99310000Y-120769174D01*
X99310000Y-118349580D01*
X99426580Y-118233000D01*
X103885995Y-118233000D01*
X103886000Y-118233001D01*
X104168484Y-118176810D01*
X104224675Y-118165633D01*
X104511790Y-117973790D01*
X105400787Y-117084792D01*
X105400790Y-117084790D01*
X105592633Y-116797675D01*
X105609476Y-116713000D01*
X105626271Y-116628568D01*
X105660317Y-116622162D01*
X105876441Y-116483090D01*
X106021431Y-116270890D01*
X106061302Y-116074000D01*
X106895000Y-116074000D01*
X106958143Y-116061440D01*
X107190000Y-116061440D01*
X107190000Y-122025786D01*
X107008957Y-121587628D01*
X106479161Y-121056907D01*
X105786595Y-120769328D01*
X105036695Y-120768674D01*
X104343628Y-121055043D01*
X103812907Y-121584839D01*
X103525328Y-122277405D01*
X103524674Y-123027305D01*
X103811043Y-123720372D01*
X104340839Y-124251093D01*
X104848759Y-124462000D01*
X104394000Y-124462000D01*
X104103161Y-124519852D01*
X103856599Y-124684599D01*
X101257198Y-127284000D01*
X100835547Y-127284000D01*
X100708957Y-126977628D01*
X100179161Y-126446907D01*
X99486595Y-126159328D01*
X98736695Y-126158674D01*
X98043628Y-126445043D01*
X97512907Y-126974839D01*
X97225328Y-127667405D01*
X97224674Y-128417305D01*
X97511043Y-129110372D01*
X98040839Y-129641093D01*
X98733405Y-129928672D01*
X99483305Y-129929326D01*
X100176372Y-129642957D01*
X100707093Y-129113161D01*
X100835468Y-128804000D01*
X101572000Y-128804000D01*
X101862839Y-128746148D01*
X102109401Y-128581401D01*
X102273497Y-128417305D01*
X103524674Y-128417305D01*
X103811043Y-129110372D01*
X104340839Y-129641093D01*
X105033405Y-129928672D01*
X105783305Y-129929326D01*
X106476372Y-129642957D01*
X107007093Y-129113161D01*
X107294672Y-128420595D01*
X107295326Y-127670695D01*
X107008957Y-126977628D01*
X106479161Y-126446907D01*
X105786595Y-126159328D01*
X105036695Y-126158674D01*
X104343628Y-126445043D01*
X103812907Y-126974839D01*
X103525328Y-127667405D01*
X103524674Y-128417305D01*
X102273497Y-128417305D01*
X104708802Y-125982000D01*
X115679897Y-125982000D01*
X115651162Y-126051201D01*
X115650900Y-126352298D01*
X113594683Y-128408515D01*
X113595326Y-127670695D01*
X113308957Y-126977628D01*
X112779161Y-126446907D01*
X112086595Y-126159328D01*
X111336695Y-126158674D01*
X110643628Y-126445043D01*
X110112907Y-126974839D01*
X109825328Y-127667405D01*
X109824674Y-128417305D01*
X110111043Y-129110372D01*
X110640839Y-129641093D01*
X111333405Y-129928672D01*
X112073880Y-129929318D01*
X110937198Y-131066000D01*
X101698000Y-131066000D01*
X101698000Y-131056750D01*
X101539250Y-130898000D01*
X100950500Y-130898000D01*
X100950500Y-130918000D01*
X100725500Y-130918000D01*
X100725500Y-130898000D01*
X100136750Y-130898000D01*
X99978000Y-131056750D01*
X99978000Y-131066000D01*
X99568000Y-131066000D01*
X99277161Y-131123852D01*
X99030599Y-131288599D01*
X97887599Y-132431599D01*
X97722852Y-132678161D01*
X97665000Y-132969000D01*
X97665000Y-133417258D01*
X97539683Y-133440838D01*
X97323559Y-133579910D01*
X97178569Y-133792110D01*
X97127560Y-134044000D01*
X97127560Y-135544000D01*
X97171838Y-135779317D01*
X97310910Y-135995441D01*
X97523110Y-136140431D01*
X97536197Y-136143081D01*
X97323559Y-136279910D01*
X97178569Y-136492110D01*
X97127560Y-136744000D01*
X97127560Y-138244000D01*
X97171838Y-138479317D01*
X97310910Y-138695441D01*
X97523110Y-138840431D01*
X97540000Y-138843851D01*
X97540000Y-139318995D01*
X97539999Y-139319000D01*
X97540000Y-139319005D01*
X97540000Y-140080995D01*
X97539999Y-140081000D01*
X97540000Y-140081005D01*
X97540000Y-143147793D01*
X97512907Y-143174839D01*
X97225328Y-143867405D01*
X97224674Y-144617305D01*
X97511043Y-145310372D01*
X98040839Y-145841093D01*
X98733405Y-146128672D01*
X99483305Y-146129326D01*
X100176372Y-145842957D01*
X100707093Y-145313161D01*
X100994672Y-144620595D01*
X100995326Y-143870695D01*
X100708957Y-143177628D01*
X100179161Y-142646907D01*
X99486595Y-142359328D01*
X99310000Y-142359174D01*
X99310000Y-140585000D01*
X103631995Y-140585000D01*
X103632000Y-140585001D01*
X103914484Y-140528810D01*
X103970675Y-140517633D01*
X104257790Y-140325790D01*
X104257791Y-140325789D01*
X105400787Y-139182792D01*
X105400790Y-139182790D01*
X105592633Y-138895675D01*
X105600026Y-138858506D01*
X105660317Y-138847162D01*
X105876441Y-138708090D01*
X106021431Y-138495890D01*
X106061302Y-138299000D01*
X106895000Y-138299000D01*
X106958143Y-138286440D01*
X107190000Y-138286440D01*
X107190000Y-143510000D01*
X107230576Y-143713988D01*
X107008957Y-143177628D01*
X106479161Y-142646907D01*
X105786595Y-142359328D01*
X105036695Y-142358674D01*
X104343628Y-142645043D01*
X103812907Y-143174839D01*
X103525328Y-143867405D01*
X103524674Y-144617305D01*
X103811043Y-145310372D01*
X104340839Y-145841093D01*
X105033405Y-146128672D01*
X105783305Y-146129326D01*
X106476372Y-145842957D01*
X107007093Y-145313161D01*
X107294672Y-144620595D01*
X107295325Y-143871888D01*
X107412599Y-144047401D01*
X110460599Y-147095401D01*
X110707161Y-147260148D01*
X110998000Y-147318000D01*
X114300000Y-147318000D01*
X114590839Y-147260148D01*
X114837401Y-147095401D01*
X117315497Y-144617305D01*
X174694674Y-144617305D01*
X174981043Y-145310372D01*
X175510839Y-145841093D01*
X176203405Y-146128672D01*
X176953305Y-146129326D01*
X177646372Y-145842957D01*
X178177093Y-145313161D01*
X178464672Y-144620595D01*
X178465326Y-143870695D01*
X178178957Y-143177628D01*
X177649161Y-142646907D01*
X176956595Y-142359328D01*
X176206695Y-142358674D01*
X175513628Y-142645043D01*
X174982907Y-143174839D01*
X174695328Y-143867405D01*
X174694674Y-144617305D01*
X117315497Y-144617305D01*
X118139401Y-143793401D01*
X118304148Y-143546840D01*
X118362000Y-143256000D01*
X118362000Y-128330802D01*
X119694802Y-126998000D01*
X127254000Y-126998000D01*
X127544839Y-126940148D01*
X127791401Y-126775401D01*
X141109680Y-113457122D01*
X141155167Y-113457162D01*
X141498943Y-113315117D01*
X141762192Y-113052327D01*
X141904838Y-112708799D01*
X141905162Y-112336833D01*
X141763117Y-111993057D01*
X141533631Y-111763171D01*
X144047401Y-109249401D01*
X144145000Y-109103333D01*
X144242599Y-109249401D01*
X149068599Y-114075401D01*
X149315161Y-114240148D01*
X149606000Y-114298000D01*
X157226000Y-114298000D01*
X157516839Y-114240148D01*
X157763401Y-114075401D01*
X158752000Y-113086802D01*
X158752000Y-114554000D01*
X158809852Y-114844839D01*
X158974599Y-115091401D01*
X172468000Y-128584802D01*
X172468000Y-133096000D01*
X172525852Y-133386839D01*
X172690599Y-133633401D01*
X181757886Y-142700688D01*
X181282907Y-143174839D01*
X180995328Y-143867405D01*
X180994674Y-144617305D01*
X181281043Y-145310372D01*
X181810839Y-145841093D01*
X182503405Y-146128672D01*
X183253305Y-146129326D01*
X183946372Y-145842957D01*
X184477093Y-145313161D01*
X184764672Y-144620595D01*
X184765326Y-143870695D01*
X184628325Y-143539127D01*
X185870599Y-144781401D01*
X186117161Y-144946148D01*
X186408000Y-145004000D01*
X187454453Y-145004000D01*
X187581043Y-145310372D01*
X188110839Y-145841093D01*
X188803405Y-146128672D01*
X189553305Y-146129326D01*
X190246372Y-145842957D01*
X190777093Y-145313161D01*
X191064672Y-144620595D01*
X191065326Y-143870695D01*
X190778957Y-143177628D01*
X190249161Y-142646907D01*
X189556595Y-142359328D01*
X188806695Y-142358674D01*
X188113628Y-142645043D01*
X187582907Y-143174839D01*
X187454532Y-143484000D01*
X186722802Y-143484000D01*
X185041552Y-141802750D01*
X186592000Y-141802750D01*
X186592000Y-141938309D01*
X186688673Y-142171698D01*
X186867301Y-142350327D01*
X187100690Y-142447000D01*
X187180750Y-142447000D01*
X187339500Y-142288250D01*
X187339500Y-141644000D01*
X187564500Y-141644000D01*
X187564500Y-142288250D01*
X187723250Y-142447000D01*
X187803310Y-142447000D01*
X188036699Y-142350327D01*
X188215327Y-142171698D01*
X188312000Y-141938309D01*
X188312000Y-141802750D01*
X188153250Y-141644000D01*
X187564500Y-141644000D01*
X187339500Y-141644000D01*
X186750750Y-141644000D01*
X186592000Y-141802750D01*
X185041552Y-141802750D01*
X184941401Y-141702599D01*
X184694839Y-141537852D01*
X184404000Y-141480000D01*
X182686802Y-141480000D01*
X182302493Y-141095691D01*
X186592000Y-141095691D01*
X186592000Y-141231250D01*
X186750750Y-141390000D01*
X187339500Y-141390000D01*
X187339500Y-140745750D01*
X187564500Y-140745750D01*
X187564500Y-141390000D01*
X188153250Y-141390000D01*
X188312000Y-141231250D01*
X188312000Y-141095691D01*
X188215327Y-140862302D01*
X188036699Y-140683673D01*
X187803310Y-140587000D01*
X187723250Y-140587000D01*
X187564500Y-140745750D01*
X187339500Y-140745750D01*
X187180750Y-140587000D01*
X187100690Y-140587000D01*
X186867301Y-140683673D01*
X186688673Y-140862302D01*
X186592000Y-141095691D01*
X182302493Y-141095691D01*
X178110802Y-136904000D01*
X182217560Y-136904000D01*
X182217560Y-138244000D01*
X182261838Y-138479317D01*
X182400910Y-138695441D01*
X182613110Y-138840431D01*
X182767055Y-138871606D01*
X182812852Y-139101839D01*
X182977599Y-139348401D01*
X183573599Y-139944401D01*
X183820160Y-140109148D01*
X184111000Y-140167000D01*
X186782754Y-140167000D01*
X186975110Y-140298431D01*
X187227000Y-140349440D01*
X187677000Y-140349440D01*
X187912317Y-140305162D01*
X188128441Y-140166090D01*
X188273431Y-139953890D01*
X188324440Y-139702000D01*
X188324440Y-139112000D01*
X188280162Y-138876683D01*
X188246276Y-138824023D01*
X188426441Y-138708090D01*
X188571431Y-138495890D01*
X188593993Y-138384477D01*
X188611838Y-138479317D01*
X188750910Y-138695441D01*
X188963110Y-138840431D01*
X189215000Y-138891440D01*
X190515000Y-138891440D01*
X190750317Y-138847162D01*
X190966441Y-138708090D01*
X191111431Y-138495890D01*
X191162440Y-138244000D01*
X191162440Y-138207367D01*
X191218839Y-138196148D01*
X191465401Y-138031401D01*
X192307401Y-137189401D01*
X192472148Y-136942840D01*
X192530000Y-136652000D01*
X192530000Y-126238000D01*
X192472148Y-125947161D01*
X192472148Y-125947160D01*
X192307401Y-125700599D01*
X191291401Y-124684599D01*
X191044839Y-124519852D01*
X190754000Y-124462000D01*
X189740449Y-124462000D01*
X190246372Y-124252957D01*
X190777093Y-123723161D01*
X191064672Y-123030595D01*
X191065326Y-122280695D01*
X190778957Y-121587628D01*
X190249161Y-121056907D01*
X189556595Y-120769328D01*
X188806695Y-120768674D01*
X188113628Y-121055043D01*
X187582907Y-121584839D01*
X187454532Y-121894000D01*
X186722802Y-121894000D01*
X184533552Y-119704750D01*
X186592000Y-119704750D01*
X186592000Y-119840309D01*
X186688673Y-120073698D01*
X186867301Y-120252327D01*
X187100690Y-120349000D01*
X187180750Y-120349000D01*
X187339500Y-120190250D01*
X187339500Y-119546000D01*
X187564500Y-119546000D01*
X187564500Y-120190250D01*
X187723250Y-120349000D01*
X187803310Y-120349000D01*
X188036699Y-120252327D01*
X188215327Y-120073698D01*
X188312000Y-119840309D01*
X188312000Y-119704750D01*
X188153250Y-119546000D01*
X187564500Y-119546000D01*
X187339500Y-119546000D01*
X186750750Y-119546000D01*
X186592000Y-119704750D01*
X184533552Y-119704750D01*
X184433401Y-119604599D01*
X184186839Y-119439852D01*
X183896000Y-119382000D01*
X171764802Y-119382000D01*
X171380493Y-118997691D01*
X186592000Y-118997691D01*
X186592000Y-119133250D01*
X186750750Y-119292000D01*
X187339500Y-119292000D01*
X187339500Y-118647750D01*
X187564500Y-118647750D01*
X187564500Y-119292000D01*
X188153250Y-119292000D01*
X188312000Y-119133250D01*
X188312000Y-118997691D01*
X188215327Y-118764302D01*
X188036699Y-118585673D01*
X187803310Y-118489000D01*
X187723250Y-118489000D01*
X187564500Y-118647750D01*
X187339500Y-118647750D01*
X187180750Y-118489000D01*
X187100690Y-118489000D01*
X186867301Y-118585673D01*
X186688673Y-118764302D01*
X186592000Y-118997691D01*
X171380493Y-118997691D01*
X163320000Y-110937198D01*
X163320000Y-108258463D01*
X163352192Y-108226327D01*
X163494838Y-107882799D01*
X163495162Y-107510833D01*
X163353117Y-107167057D01*
X163090327Y-106903808D01*
X162746799Y-106761162D01*
X162374833Y-106760838D01*
X162304000Y-106790106D01*
X162304000Y-102026999D01*
X162491167Y-102027162D01*
X162834943Y-101885117D01*
X162868118Y-101852000D01*
X169527897Y-101852000D01*
X169499162Y-101921201D01*
X169498838Y-102293167D01*
X169640883Y-102636943D01*
X169903673Y-102900192D01*
X170247201Y-103042838D01*
X170294077Y-103042879D01*
X172976000Y-105724802D01*
X172976000Y-109728000D01*
X173033852Y-110018839D01*
X173198599Y-110265401D01*
X177262599Y-114329401D01*
X177509160Y-114494148D01*
X177800000Y-114552000D01*
X182217560Y-114552000D01*
X182217560Y-116019000D01*
X182261838Y-116254317D01*
X182400910Y-116470441D01*
X182613110Y-116615431D01*
X182793378Y-116651936D01*
X182812852Y-116749839D01*
X182977599Y-116996401D01*
X183827599Y-117846401D01*
X184074161Y-118011148D01*
X184365000Y-118069000D01*
X186782754Y-118069000D01*
X186975110Y-118200431D01*
X187227000Y-118251440D01*
X187677000Y-118251440D01*
X187912317Y-118207162D01*
X188128441Y-118068090D01*
X188273431Y-117855890D01*
X188324440Y-117604000D01*
X188324440Y-117014000D01*
X188280162Y-116778683D01*
X188182778Y-116627344D01*
X188210317Y-116622162D01*
X188426441Y-116483090D01*
X188571431Y-116270890D01*
X188593993Y-116159477D01*
X188611838Y-116254317D01*
X188750910Y-116470441D01*
X188963110Y-116615431D01*
X189215000Y-116666440D01*
X190515000Y-116666440D01*
X190750317Y-116622162D01*
X190966441Y-116483090D01*
X191111431Y-116270890D01*
X191162440Y-116019000D01*
X191162440Y-115923974D01*
X191338401Y-115806401D01*
X192365400Y-114779403D01*
X192530146Y-114532841D01*
X192587998Y-114242002D01*
X192587998Y-105467998D01*
X192530146Y-105177159D01*
X192365399Y-104930597D01*
X191037401Y-103602599D01*
X190790839Y-103437852D01*
X190500000Y-103380000D01*
X188016802Y-103380000D01*
X188552369Y-102844433D01*
X188803405Y-102948672D01*
X189553305Y-102949326D01*
X190246372Y-102662957D01*
X190777093Y-102133161D01*
X191064672Y-101440595D01*
X191065326Y-100690695D01*
X190778957Y-99997628D01*
X190249161Y-99466907D01*
X189556595Y-99179328D01*
X188806695Y-99178674D01*
X188113628Y-99465043D01*
X187582907Y-99994839D01*
X187295328Y-100687405D01*
X187294674Y-101437305D01*
X187445315Y-101801883D01*
X187137198Y-102110000D01*
X184486710Y-102110000D01*
X184764672Y-101440595D01*
X184765326Y-100690695D01*
X184478957Y-99997628D01*
X183949161Y-99466907D01*
X183256595Y-99179328D01*
X182506695Y-99178674D01*
X181813628Y-99465043D01*
X181282907Y-99994839D01*
X180995328Y-100687405D01*
X180994674Y-101437305D01*
X181272625Y-102110000D01*
X178186710Y-102110000D01*
X178464672Y-101440595D01*
X178465326Y-100690695D01*
X178178957Y-99997628D01*
X177649161Y-99466907D01*
X176956595Y-99179328D01*
X176206695Y-99178674D01*
X175513628Y-99465043D01*
X174982907Y-99994839D01*
X174695328Y-100687405D01*
X174694674Y-101437305D01*
X174906313Y-101949511D01*
X173511401Y-100554599D01*
X173264839Y-100389852D01*
X173233236Y-100383566D01*
X175756052Y-97860750D01*
X186592000Y-97860750D01*
X186592000Y-97996309D01*
X186688673Y-98229698D01*
X186867301Y-98408327D01*
X187100690Y-98505000D01*
X187180750Y-98505000D01*
X187339500Y-98346250D01*
X187339500Y-97702000D01*
X187564500Y-97702000D01*
X187564500Y-98346250D01*
X187723250Y-98505000D01*
X187803310Y-98505000D01*
X188036699Y-98408327D01*
X188215327Y-98229698D01*
X188312000Y-97996309D01*
X188312000Y-97860750D01*
X188153250Y-97702000D01*
X187564500Y-97702000D01*
X187339500Y-97702000D01*
X186750750Y-97702000D01*
X186592000Y-97860750D01*
X175756052Y-97860750D01*
X176336802Y-97280000D01*
X186592000Y-97280000D01*
X186592000Y-97289250D01*
X186750750Y-97448000D01*
X187339500Y-97448000D01*
X187339500Y-97428000D01*
X187564500Y-97428000D01*
X187564500Y-97448000D01*
X188153250Y-97448000D01*
X188312000Y-97289250D01*
X188312000Y-97280000D01*
X189230000Y-97280000D01*
X189520839Y-97222148D01*
X189767401Y-97057401D01*
X190402401Y-96422401D01*
X190567148Y-96175839D01*
X190625000Y-95885000D01*
X190625000Y-95055742D01*
X190750317Y-95032162D01*
X190966441Y-94893090D01*
X191111431Y-94680890D01*
X191162440Y-94429000D01*
X191162440Y-92931280D01*
X191298839Y-92904148D01*
X191545401Y-92739401D01*
X192053401Y-92231401D01*
X192075541Y-92198266D01*
X192218148Y-91984839D01*
X192276000Y-91694000D01*
X192276000Y-84836000D01*
X192218148Y-84545161D01*
X192053401Y-84298599D01*
X190275401Y-82520599D01*
X190028839Y-82355852D01*
X189738000Y-82298000D01*
X175514000Y-82298000D01*
X175223160Y-82355852D01*
X174976599Y-82520599D01*
X173706599Y-83790599D01*
X173541852Y-84037161D01*
X173484000Y-84328000D01*
X173484000Y-96205198D01*
X173400981Y-96288217D01*
X173401162Y-96080833D01*
X173259117Y-95737057D01*
X173226000Y-95703882D01*
X173226000Y-93726000D01*
X173168148Y-93435161D01*
X173168148Y-93435160D01*
X173003401Y-93188599D01*
X169447401Y-89632599D01*
X169200839Y-89467852D01*
X168910000Y-89410000D01*
X164338000Y-89410000D01*
X164095414Y-89458254D01*
X164047160Y-89467852D01*
X163800599Y-89632599D01*
X162304000Y-91129198D01*
X162304000Y-87690802D01*
X168405341Y-81589461D01*
X168633673Y-81818192D01*
X168977201Y-81960838D01*
X169349167Y-81961162D01*
X169692943Y-81819117D01*
X169956192Y-81556327D01*
X170071764Y-81278000D01*
X187501000Y-81278000D01*
X187791839Y-81220148D01*
X188038401Y-81055401D01*
X188497255Y-80596547D01*
X188803405Y-80723672D01*
X189553305Y-80724326D01*
X190246372Y-80437957D01*
X190777093Y-79908161D01*
X191064672Y-79215595D01*
X191065326Y-78465695D01*
X190778957Y-77772628D01*
X190249161Y-77241907D01*
X189556595Y-76954328D01*
X188806695Y-76953674D01*
X188113628Y-77240043D01*
X187582907Y-77769839D01*
X187295328Y-78462405D01*
X187294674Y-79212305D01*
X187422509Y-79521689D01*
X187186198Y-79758000D01*
X184539445Y-79758000D01*
X184764672Y-79215595D01*
X184765326Y-78465695D01*
X184478957Y-77772628D01*
X183949161Y-77241907D01*
X183256595Y-76954328D01*
X182506695Y-76953674D01*
X181813628Y-77240043D01*
X181282907Y-77769839D01*
X180995328Y-78462405D01*
X180994674Y-79212305D01*
X181220150Y-79758000D01*
X178239445Y-79758000D01*
X178464672Y-79215595D01*
X178465326Y-78465695D01*
X178178957Y-77772628D01*
X177649161Y-77241907D01*
X176956595Y-76954328D01*
X176206695Y-76953674D01*
X175513628Y-77240043D01*
X174982907Y-77769839D01*
X174695328Y-78462405D01*
X174694674Y-79212305D01*
X174920150Y-79758000D01*
X170236802Y-79758000D01*
X173470052Y-76524750D01*
X186846000Y-76524750D01*
X186846000Y-76660309D01*
X186942673Y-76893698D01*
X187121301Y-77072327D01*
X187354690Y-77169000D01*
X187434750Y-77169000D01*
X187593500Y-77010250D01*
X187593500Y-76366000D01*
X187818500Y-76366000D01*
X187818500Y-77010250D01*
X187977250Y-77169000D01*
X188057310Y-77169000D01*
X188290699Y-77072327D01*
X188469327Y-76893698D01*
X188566000Y-76660309D01*
X188566000Y-76524750D01*
X188407250Y-76366000D01*
X187818500Y-76366000D01*
X187593500Y-76366000D01*
X187004750Y-76366000D01*
X186846000Y-76524750D01*
X173470052Y-76524750D01*
X174050802Y-75944000D01*
X186846000Y-75944000D01*
X186846000Y-75953250D01*
X187004750Y-76112000D01*
X187593500Y-76112000D01*
X187593500Y-76092000D01*
X187818500Y-76092000D01*
X187818500Y-76112000D01*
X188407250Y-76112000D01*
X188566000Y-75953250D01*
X188566000Y-75944000D01*
X188976000Y-75944000D01*
X189266839Y-75886148D01*
X189513401Y-75721401D01*
X190529401Y-74705401D01*
X190694148Y-74458839D01*
X190752000Y-74168000D01*
X190752000Y-73592742D01*
X190877317Y-73569162D01*
X191093441Y-73430090D01*
X191238431Y-73217890D01*
X191289440Y-72966000D01*
X191289440Y-71570018D01*
X191298839Y-71568148D01*
X191545401Y-71403401D01*
X191799401Y-71149401D01*
X191964148Y-70902840D01*
X192022000Y-70612000D01*
X192022000Y-61722000D01*
X191964148Y-61431161D01*
X191964148Y-61431160D01*
X191799401Y-61184599D01*
X190275401Y-59660599D01*
X190241425Y-59637897D01*
X190417800Y-59565020D01*
X191018909Y-58964959D01*
X191344628Y-58180541D01*
X191345370Y-57331185D01*
X191021020Y-56546200D01*
X190420959Y-55945091D01*
X189636541Y-55619372D01*
X188787185Y-55618630D01*
X188002200Y-55942980D01*
X187401091Y-56543041D01*
X187075372Y-57327459D01*
X187074630Y-58176815D01*
X187398980Y-58961800D01*
X187874350Y-59438000D01*
X175260000Y-59438000D01*
X174969160Y-59495852D01*
X174722599Y-59660599D01*
X173452599Y-60930599D01*
X173287852Y-61177161D01*
X173230000Y-61468000D01*
X173230000Y-72837198D01*
X165985770Y-80081428D01*
X165884327Y-79979808D01*
X165540799Y-79837162D01*
X165168833Y-79836838D01*
X164825057Y-79978883D01*
X164561808Y-80241673D01*
X164419162Y-80585201D01*
X164419121Y-80632077D01*
X161737198Y-83314000D01*
X155125047Y-83314000D01*
X155056894Y-83149057D01*
X154712241Y-82803801D01*
X155055278Y-82461363D01*
X155124773Y-82294000D01*
X156210000Y-82294000D01*
X156500839Y-82236148D01*
X156747401Y-82071401D01*
X157382401Y-81436401D01*
X157547148Y-81189839D01*
X157605000Y-80899000D01*
X157605000Y-80450742D01*
X157730317Y-80427162D01*
X157946441Y-80288090D01*
X158091431Y-80075890D01*
X158142440Y-79824000D01*
X158142440Y-78324000D01*
X158098162Y-78088683D01*
X157959090Y-77872559D01*
X157746890Y-77727569D01*
X157733803Y-77724919D01*
X157946441Y-77588090D01*
X158091431Y-77375890D01*
X158142440Y-77124000D01*
X158142440Y-75624000D01*
X158098162Y-75388683D01*
X157959090Y-75172559D01*
X157746890Y-75027569D01*
X157605000Y-74998836D01*
X157605000Y-73754000D01*
X157547148Y-73463161D01*
X157382401Y-73216599D01*
X152501511Y-68335709D01*
X152534742Y-68255681D01*
X152535257Y-67664911D01*
X152309656Y-67118914D01*
X151892283Y-66700812D01*
X151346681Y-66474258D01*
X150755911Y-66473743D01*
X150209914Y-66699344D01*
X149791812Y-67116717D01*
X149565258Y-67662319D01*
X149564743Y-68253089D01*
X149790344Y-68799086D01*
X150207717Y-69217188D01*
X150753319Y-69443742D01*
X151344089Y-69444257D01*
X151426432Y-69410234D01*
X156085000Y-74068802D01*
X156085000Y-74997258D01*
X155959683Y-75020838D01*
X155743559Y-75159910D01*
X155598569Y-75372110D01*
X155547560Y-75624000D01*
X155547560Y-77124000D01*
X155591838Y-77359317D01*
X155730910Y-77575441D01*
X155943110Y-77720431D01*
X155956197Y-77723081D01*
X155743559Y-77859910D01*
X155598569Y-78072110D01*
X155547560Y-78324000D01*
X155547560Y-79824000D01*
X155591838Y-80059317D01*
X155730910Y-80275441D01*
X155943110Y-80420431D01*
X156085000Y-80449164D01*
X156085000Y-80584198D01*
X155895198Y-80774000D01*
X155125047Y-80774000D01*
X155056894Y-80609057D01*
X154712241Y-80263801D01*
X155055278Y-79921363D01*
X155304716Y-79320648D01*
X155305284Y-78670205D01*
X155056894Y-78069057D01*
X154990379Y-78002426D01*
X155121441Y-77918090D01*
X155266431Y-77705890D01*
X155317440Y-77454000D01*
X155317440Y-75454000D01*
X155273162Y-75218683D01*
X155134090Y-75002559D01*
X154921890Y-74857569D01*
X154670000Y-74806560D01*
X152670000Y-74806560D01*
X152434683Y-74850838D01*
X152218559Y-74989910D01*
X152073569Y-75202110D01*
X152022560Y-75454000D01*
X152022560Y-77454000D01*
X152066838Y-77689317D01*
X152205910Y-77905441D01*
X152348561Y-78002910D01*
X152284722Y-78066637D01*
X152035284Y-78667352D01*
X152034716Y-79317795D01*
X152283106Y-79918943D01*
X152627759Y-80264199D01*
X152284722Y-80606637D01*
X152035284Y-81207352D01*
X152034716Y-81857795D01*
X152283106Y-82458943D01*
X152627759Y-82804199D01*
X152284722Y-83146637D01*
X152035284Y-83747352D01*
X152034716Y-84397795D01*
X152283106Y-84998943D01*
X152627759Y-85344199D01*
X152284722Y-85686637D01*
X152035284Y-86287352D01*
X152034716Y-86937795D01*
X152283106Y-87538943D01*
X152627759Y-87884199D01*
X152284722Y-88226637D01*
X152035284Y-88827352D01*
X152034716Y-89477795D01*
X152283106Y-90078943D01*
X152627759Y-90424199D01*
X152284722Y-90766637D01*
X152035284Y-91367352D01*
X152034716Y-92017795D01*
X152283106Y-92618943D01*
X152627759Y-92964199D01*
X152284722Y-93306637D01*
X152215227Y-93474000D01*
X150682802Y-93474000D01*
X148334000Y-91125198D01*
X148334000Y-77216000D01*
X148276148Y-76925161D01*
X148111401Y-76678599D01*
X141397122Y-69964320D01*
X141397162Y-69918833D01*
X141255117Y-69575057D01*
X141124354Y-69444065D01*
X141344089Y-69444257D01*
X141890086Y-69218656D01*
X142308188Y-68801283D01*
X142534742Y-68255681D01*
X142535257Y-67664911D01*
X142309656Y-67118914D01*
X141892283Y-66700812D01*
X141346681Y-66474258D01*
X140755911Y-66473743D01*
X140209914Y-66699344D01*
X139791812Y-67116717D01*
X139757645Y-67199000D01*
X139305000Y-67199000D01*
X139014161Y-67256852D01*
X138767599Y-67421599D01*
X137892599Y-68296599D01*
X137727852Y-68543161D01*
X137670000Y-68834000D01*
X137670000Y-69155258D01*
X137544683Y-69178838D01*
X137537000Y-69183782D01*
X137537000Y-69088005D01*
X137537001Y-69088000D01*
X137469633Y-68749326D01*
X137469633Y-68749325D01*
X137277790Y-68462210D01*
X137277787Y-68462208D01*
X134568669Y-65753089D01*
X137064743Y-65753089D01*
X137290344Y-66299086D01*
X137707717Y-66717188D01*
X138253319Y-66943742D01*
X138844089Y-66944257D01*
X139390086Y-66718656D01*
X139808188Y-66301283D01*
X140034742Y-65755681D01*
X140035257Y-65164911D01*
X139809656Y-64618914D01*
X139392283Y-64200812D01*
X138846681Y-63974258D01*
X138255911Y-63973743D01*
X137709914Y-64199344D01*
X137291812Y-64616717D01*
X137065258Y-65162319D01*
X137064743Y-65753089D01*
X134568669Y-65753089D01*
X134229790Y-65414210D01*
X134157638Y-65366000D01*
X133942675Y-65222367D01*
X133886484Y-65211190D01*
X133604000Y-65154999D01*
X133603995Y-65155000D01*
X132700579Y-65155000D01*
X132330000Y-64784420D01*
X132330000Y-63627005D01*
X132330001Y-63627000D01*
X132330000Y-63626995D01*
X132330000Y-62531279D01*
X132521441Y-62408090D01*
X132666431Y-62195890D01*
X132717440Y-61944000D01*
X132717440Y-60444000D01*
X132673162Y-60208683D01*
X132534090Y-59992559D01*
X132464289Y-59944866D01*
X132521441Y-59908090D01*
X132666431Y-59695890D01*
X132690102Y-59579000D01*
X138918420Y-59579000D01*
X144565203Y-65225782D01*
X144564743Y-65753089D01*
X144790344Y-66299086D01*
X145207717Y-66717188D01*
X145753319Y-66943742D01*
X146344089Y-66944257D01*
X146890086Y-66718656D01*
X147308188Y-66301283D01*
X147534742Y-65755681D01*
X147534744Y-65753089D01*
X152064743Y-65753089D01*
X152290344Y-66299086D01*
X152707717Y-66717188D01*
X153253319Y-66943742D01*
X153844089Y-66944257D01*
X154390086Y-66718656D01*
X154808188Y-66301283D01*
X155034742Y-65755681D01*
X155035257Y-65164911D01*
X154809656Y-64618914D01*
X154392283Y-64200812D01*
X153846681Y-63974258D01*
X153255911Y-63973743D01*
X152709914Y-64199344D01*
X152291812Y-64616717D01*
X152065258Y-65162319D01*
X152064743Y-65753089D01*
X147534744Y-65753089D01*
X147535257Y-65164911D01*
X147309656Y-64618914D01*
X146892283Y-64200812D01*
X146346681Y-63974258D01*
X145816375Y-63973796D01*
X139910790Y-58068210D01*
X139623675Y-57876367D01*
X139567484Y-57865190D01*
X139285000Y-57808999D01*
X139284995Y-57809000D01*
X132692038Y-57809000D01*
X132673162Y-57708683D01*
X132534090Y-57492559D01*
X132321890Y-57347569D01*
X132070000Y-57296560D01*
X131445000Y-57296560D01*
X131445000Y-55753089D01*
X139564743Y-55753089D01*
X139790344Y-56299086D01*
X140207717Y-56717188D01*
X140753319Y-56943742D01*
X141344089Y-56944257D01*
X141890086Y-56718656D01*
X142308188Y-56301283D01*
X142534742Y-55755681D01*
X142534744Y-55753089D01*
X149564743Y-55753089D01*
X149790344Y-56299086D01*
X150207717Y-56717188D01*
X150753319Y-56943742D01*
X151344089Y-56944257D01*
X151890086Y-56718656D01*
X152308188Y-56301283D01*
X152534742Y-55755681D01*
X152535257Y-55164911D01*
X152309656Y-54618914D01*
X151892283Y-54200812D01*
X151346681Y-53974258D01*
X150755911Y-53973743D01*
X150209914Y-54199344D01*
X149791812Y-54616717D01*
X149565258Y-55162319D01*
X149564743Y-55753089D01*
X142534744Y-55753089D01*
X142535257Y-55164911D01*
X142309656Y-54618914D01*
X141892283Y-54200812D01*
X141346681Y-53974258D01*
X140755911Y-53973743D01*
X140209914Y-54199344D01*
X139791812Y-54616717D01*
X139565258Y-55162319D01*
X139564743Y-55753089D01*
X131445000Y-55753089D01*
X131445000Y-54356000D01*
X131434994Y-54306590D01*
X131406553Y-54264965D01*
X131364159Y-54237685D01*
X131318000Y-54229000D01*
X113538000Y-54229000D01*
X113488590Y-54239006D01*
X113446965Y-54267447D01*
X113419685Y-54309841D01*
X113411000Y-54356000D01*
X113411000Y-59436000D01*
X113421006Y-59485410D01*
X113446034Y-59523586D01*
X118526034Y-64857586D01*
X118567356Y-64886465D01*
X118618000Y-64897000D01*
X125476000Y-64897000D01*
X125480000Y-64896190D01*
X125480000Y-65298924D01*
X125208783Y-66022169D01*
X125167807Y-66231613D01*
X125189042Y-66353728D01*
X125168100Y-66439069D01*
X125208783Y-66692831D01*
X125265000Y-66842743D01*
X125265000Y-66738500D01*
X125405879Y-66738500D01*
X125563110Y-66845931D01*
X125815000Y-66896940D01*
X126915000Y-66896940D01*
X127125497Y-66861766D01*
X127335423Y-66738500D01*
X127465000Y-66738500D01*
X127465000Y-66842743D01*
X127521217Y-66692831D01*
X127562193Y-66483387D01*
X127540958Y-66361272D01*
X127561900Y-66275931D01*
X127521217Y-66022169D01*
X127250000Y-65298924D01*
X127250000Y-64434757D01*
X127291441Y-64408090D01*
X127436431Y-64195890D01*
X127487440Y-63944000D01*
X127487440Y-63119000D01*
X127542560Y-63119000D01*
X127542560Y-63944000D01*
X127586838Y-64179317D01*
X127725910Y-64395441D01*
X127938110Y-64540431D01*
X128020000Y-64557014D01*
X128020000Y-65298924D01*
X127748783Y-66022169D01*
X127707807Y-66231613D01*
X127729042Y-66353728D01*
X127708100Y-66439069D01*
X127748783Y-66692831D01*
X127805000Y-66842743D01*
X127805000Y-66738500D01*
X127945879Y-66738500D01*
X128103110Y-66845931D01*
X128355000Y-66896940D01*
X129455000Y-66896940D01*
X129665497Y-66861766D01*
X129875423Y-66738500D01*
X130005000Y-66738500D01*
X130005000Y-66842743D01*
X130061217Y-66692831D01*
X130102193Y-66483387D01*
X130080958Y-66361272D01*
X130101900Y-66275931D01*
X130061217Y-66022169D01*
X129790000Y-65298924D01*
X129790000Y-63879000D01*
X130445420Y-63879000D01*
X130560000Y-63993579D01*
X130560000Y-65150995D01*
X130559999Y-65151000D01*
X130597167Y-65337852D01*
X130627367Y-65489675D01*
X130819210Y-65776790D01*
X131708208Y-66665787D01*
X131708210Y-66665790D01*
X131995325Y-66857633D01*
X132051516Y-66868810D01*
X132334000Y-66925001D01*
X132334005Y-66925000D01*
X133237420Y-66925000D01*
X135481285Y-69168865D01*
X135450833Y-69168838D01*
X135107057Y-69310883D01*
X135073882Y-69344000D01*
X121666000Y-69344000D01*
X121375161Y-69401852D01*
X121128599Y-69566599D01*
X119573198Y-71122000D01*
X112328802Y-71122000D01*
X108199302Y-66992500D01*
X125321159Y-66992500D01*
X125508783Y-67492831D01*
X125650910Y-67716941D01*
X125863110Y-67861931D01*
X126115000Y-67912940D01*
X126238000Y-67912940D01*
X126238000Y-66992500D01*
X126492000Y-66992500D01*
X126492000Y-67912940D01*
X126615000Y-67912940D01*
X126874745Y-67858553D01*
X127085011Y-67710773D01*
X127221217Y-67492831D01*
X127408841Y-66992500D01*
X127861159Y-66992500D01*
X128048783Y-67492831D01*
X128190910Y-67716941D01*
X128403110Y-67861931D01*
X128655000Y-67912940D01*
X128778000Y-67912940D01*
X128778000Y-66992500D01*
X129032000Y-66992500D01*
X129032000Y-67912940D01*
X129155000Y-67912940D01*
X129414745Y-67858553D01*
X129625011Y-67710773D01*
X129761217Y-67492831D01*
X129948841Y-66992500D01*
X129032000Y-66992500D01*
X128778000Y-66992500D01*
X127861159Y-66992500D01*
X127408841Y-66992500D01*
X126492000Y-66992500D01*
X126238000Y-66992500D01*
X125321159Y-66992500D01*
X108199302Y-66992500D01*
X107471401Y-66264599D01*
X107224839Y-66099852D01*
X106934000Y-66042000D01*
X105978802Y-66042000D01*
X102949107Y-63012305D01*
X103524674Y-63012305D01*
X103811043Y-63705372D01*
X104340839Y-64236093D01*
X105033405Y-64523672D01*
X105783305Y-64524326D01*
X106476372Y-64237957D01*
X107007093Y-63708161D01*
X107294672Y-63015595D01*
X107294674Y-63012305D01*
X109824674Y-63012305D01*
X110111043Y-63705372D01*
X110640839Y-64236093D01*
X111333405Y-64523672D01*
X112083305Y-64524326D01*
X112776372Y-64237957D01*
X113307093Y-63708161D01*
X113594672Y-63015595D01*
X113595326Y-62265695D01*
X113308957Y-61572628D01*
X112779161Y-61041907D01*
X112086595Y-60754328D01*
X111336695Y-60753674D01*
X110643628Y-61040043D01*
X110112907Y-61569839D01*
X109825328Y-62262405D01*
X109824674Y-63012305D01*
X107294674Y-63012305D01*
X107295326Y-62265695D01*
X107008957Y-61572628D01*
X106479161Y-61041907D01*
X105786595Y-60754328D01*
X105036695Y-60753674D01*
X104343628Y-61040043D01*
X103812907Y-61569839D01*
X103525328Y-62262405D01*
X103524674Y-63012305D01*
X102949107Y-63012305D01*
X102038401Y-62101599D01*
X101791839Y-61936852D01*
X101501000Y-61879000D01*
X100835547Y-61879000D01*
X100708957Y-61572628D01*
X100179161Y-61041907D01*
X99486595Y-60754328D01*
X98736695Y-60753674D01*
X98043628Y-61040043D01*
X97512907Y-61569839D01*
X97225328Y-62262405D01*
X97224674Y-63012305D01*
X97511043Y-63705372D01*
X98040839Y-64236093D01*
X98733405Y-64523672D01*
X99483305Y-64524326D01*
X100176372Y-64237957D01*
X100707093Y-63708161D01*
X100835468Y-63399000D01*
X101186198Y-63399000D01*
X104386163Y-66598965D01*
X104140000Y-66550000D01*
X101704167Y-66550000D01*
X101568890Y-66457569D01*
X101317000Y-66406560D01*
X100867000Y-66406560D01*
X100631683Y-66450838D01*
X100415559Y-66589910D01*
X100270569Y-66802110D01*
X100219560Y-67054000D01*
X100219560Y-67644000D01*
X100263838Y-67879317D01*
X100336064Y-67991560D01*
X100315000Y-67991560D01*
X100079683Y-68035838D01*
X99863559Y-68174910D01*
X99718569Y-68387110D01*
X99696007Y-68498523D01*
X99678162Y-68403683D01*
X99539090Y-68187559D01*
X99326890Y-68042569D01*
X99075000Y-67991560D01*
X97775000Y-67991560D01*
X97539683Y-68035838D01*
X97323559Y-68174910D01*
X97178569Y-68387110D01*
X97127560Y-68639000D01*
X97127560Y-68659720D01*
X96991161Y-68686852D01*
X96744599Y-68851599D01*
X95982599Y-69613599D01*
X95817852Y-69860161D01*
X95760000Y-70151000D01*
X95145000Y-70151000D01*
X95145000Y-65524750D01*
X100232000Y-65524750D01*
X100232000Y-65660309D01*
X100328673Y-65893698D01*
X100507301Y-66072327D01*
X100740690Y-66169000D01*
X100820750Y-66169000D01*
X100979500Y-66010250D01*
X100979500Y-65366000D01*
X101204500Y-65366000D01*
X101204500Y-66010250D01*
X101363250Y-66169000D01*
X101443310Y-66169000D01*
X101676699Y-66072327D01*
X101855327Y-65893698D01*
X101952000Y-65660309D01*
X101952000Y-65524750D01*
X101793250Y-65366000D01*
X101204500Y-65366000D01*
X100979500Y-65366000D01*
X100390750Y-65366000D01*
X100232000Y-65524750D01*
X95145000Y-65524750D01*
X95145000Y-64817691D01*
X100232000Y-64817691D01*
X100232000Y-64953250D01*
X100390750Y-65112000D01*
X100979500Y-65112000D01*
X100979500Y-64467750D01*
X101204500Y-64467750D01*
X101204500Y-65112000D01*
X101793250Y-65112000D01*
X101952000Y-64953250D01*
X101952000Y-64817691D01*
X101855327Y-64584302D01*
X101676699Y-64405673D01*
X101443310Y-64309000D01*
X101363250Y-64309000D01*
X101204500Y-64467750D01*
X100979500Y-64467750D01*
X100820750Y-64309000D01*
X100740690Y-64309000D01*
X100507301Y-64405673D01*
X100328673Y-64584302D01*
X100232000Y-64817691D01*
X95145000Y-64817691D01*
X95145000Y-58526815D01*
X97116630Y-58526815D01*
X97440980Y-59311800D01*
X98041041Y-59912909D01*
X98825459Y-60238628D01*
X99674815Y-60239370D01*
X100459800Y-59915020D01*
X101060909Y-59314959D01*
X101386628Y-58530541D01*
X101387370Y-57681185D01*
X101063020Y-56896200D01*
X100462959Y-56295091D01*
X99678541Y-55969372D01*
X98829185Y-55968630D01*
X98044200Y-56292980D01*
X97443091Y-56893041D01*
X97117372Y-57677459D01*
X97116630Y-58526815D01*
X95145000Y-58526815D01*
X95145000Y-57826390D01*
X95482957Y-56127366D01*
X96395932Y-54761000D01*
X104331572Y-54761000D01*
X104331572Y-58731000D01*
X110044429Y-58731000D01*
X110044429Y-54761000D01*
X104331572Y-54761000D01*
X96395932Y-54761000D01*
X96404371Y-54748371D01*
X97783366Y-53826957D01*
X99482390Y-53489000D01*
X189137610Y-53489000D01*
X190836634Y-53826957D01*
G36*
X123527019Y-92966110D02*
X123476010Y-93218000D01*
X123476010Y-94361000D01*
X123520288Y-94596317D01*
X123659360Y-94812441D01*
X123871560Y-94957431D01*
X123945725Y-94972450D01*
X123858400Y-95030798D01*
X123180000Y-95709198D01*
X123180000Y-95555750D01*
X123021250Y-95397000D01*
X122047000Y-95397000D01*
X122047000Y-95417000D01*
X121793000Y-95417000D01*
X121793000Y-95397000D01*
X120818750Y-95397000D01*
X120660000Y-95555750D01*
X120660000Y-96146309D01*
X120756673Y-96379698D01*
X120897910Y-96520936D01*
X120843559Y-96555910D01*
X120698569Y-96768110D01*
X120673328Y-96892753D01*
X120582799Y-96855162D01*
X120210833Y-96854838D01*
X119867057Y-96996883D01*
X119603808Y-97259673D01*
X119461162Y-97603201D01*
X119460838Y-97975167D01*
X119602883Y-98318943D01*
X119865673Y-98582192D01*
X120209201Y-98724838D01*
X120581167Y-98725162D01*
X120678590Y-98684908D01*
X120691838Y-98755317D01*
X120830910Y-98971441D01*
X121043110Y-99116431D01*
X121295000Y-99167440D01*
X121499758Y-99167440D01*
X121097198Y-99570000D01*
X118922111Y-99570000D01*
X119156192Y-99336327D01*
X119298838Y-98992799D01*
X119299162Y-98620833D01*
X119157117Y-98277057D01*
X119124000Y-98243882D01*
X119124000Y-96326802D01*
X120660000Y-94790802D01*
X120660000Y-94984250D01*
X120818750Y-95143000D01*
X121793000Y-95143000D01*
X121793000Y-94043750D01*
X122047000Y-94043750D01*
X122047000Y-95143000D01*
X123021250Y-95143000D01*
X123180000Y-94984250D01*
X123180000Y-94393691D01*
X123083327Y-94160302D01*
X122904699Y-93981673D01*
X122671310Y-93885000D01*
X122205750Y-93885000D01*
X122047000Y-94043750D01*
X121793000Y-94043750D01*
X121634250Y-93885000D01*
X121565802Y-93885000D01*
X122488802Y-92962000D01*
X123529827Y-92962000D01*
X123527019Y-92966110D01*
X123527019Y-92966110D01*
G37*
X123527019Y-92966110D02*
X123476010Y-93218000D01*
X123476010Y-94361000D01*
X123520288Y-94596317D01*
X123659360Y-94812441D01*
X123871560Y-94957431D01*
X123945725Y-94972450D01*
X123858400Y-95030798D01*
X123180000Y-95709198D01*
X123180000Y-95555750D01*
X123021250Y-95397000D01*
X122047000Y-95397000D01*
X122047000Y-95417000D01*
X121793000Y-95417000D01*
X121793000Y-95397000D01*
X120818750Y-95397000D01*
X120660000Y-95555750D01*
X120660000Y-96146309D01*
X120756673Y-96379698D01*
X120897910Y-96520936D01*
X120843559Y-96555910D01*
X120698569Y-96768110D01*
X120673328Y-96892753D01*
X120582799Y-96855162D01*
X120210833Y-96854838D01*
X119867057Y-96996883D01*
X119603808Y-97259673D01*
X119461162Y-97603201D01*
X119460838Y-97975167D01*
X119602883Y-98318943D01*
X119865673Y-98582192D01*
X120209201Y-98724838D01*
X120581167Y-98725162D01*
X120678590Y-98684908D01*
X120691838Y-98755317D01*
X120830910Y-98971441D01*
X121043110Y-99116431D01*
X121295000Y-99167440D01*
X121499758Y-99167440D01*
X121097198Y-99570000D01*
X118922111Y-99570000D01*
X119156192Y-99336327D01*
X119298838Y-98992799D01*
X119299162Y-98620833D01*
X119157117Y-98277057D01*
X119124000Y-98243882D01*
X119124000Y-96326802D01*
X120660000Y-94790802D01*
X120660000Y-94984250D01*
X120818750Y-95143000D01*
X121793000Y-95143000D01*
X121793000Y-94043750D01*
X122047000Y-94043750D01*
X122047000Y-95143000D01*
X123021250Y-95143000D01*
X123180000Y-94984250D01*
X123180000Y-94393691D01*
X123083327Y-94160302D01*
X122904699Y-93981673D01*
X122671310Y-93885000D01*
X122205750Y-93885000D01*
X122047000Y-94043750D01*
X121793000Y-94043750D01*
X121634250Y-93885000D01*
X121565802Y-93885000D01*
X122488802Y-92962000D01*
X123529827Y-92962000D01*
X123527019Y-92966110D01*
G36*
X169928000Y-96973537D02*
X169895808Y-97005673D01*
X169753162Y-97349201D01*
X169752838Y-97721167D01*
X169894883Y-98064943D01*
X170129530Y-98300000D01*
X165575585Y-98300000D01*
X165575990Y-98298000D01*
X165575990Y-97155000D01*
X165554305Y-97039750D01*
X166126000Y-97039750D01*
X166126000Y-97630309D01*
X166222673Y-97863698D01*
X166401301Y-98042327D01*
X166634690Y-98139000D01*
X167100250Y-98139000D01*
X167259000Y-97980250D01*
X167259000Y-96881000D01*
X167513000Y-96881000D01*
X167513000Y-97980250D01*
X167671750Y-98139000D01*
X168137310Y-98139000D01*
X168370699Y-98042327D01*
X168549327Y-97863698D01*
X168646000Y-97630309D01*
X168646000Y-97039750D01*
X168487250Y-96881000D01*
X167513000Y-96881000D01*
X167259000Y-96881000D01*
X166284750Y-96881000D01*
X166126000Y-97039750D01*
X165554305Y-97039750D01*
X165531712Y-96919683D01*
X165392640Y-96703559D01*
X165180440Y-96558569D01*
X165018996Y-96525876D01*
X165019162Y-96334833D01*
X164877117Y-95991057D01*
X164614327Y-95727808D01*
X164270799Y-95585162D01*
X163898833Y-95584838D01*
X163555057Y-95726883D01*
X163291808Y-95989673D01*
X163149162Y-96333201D01*
X163148995Y-96524580D01*
X163127537Y-96528618D01*
X163023550Y-96507560D01*
X162604450Y-96507560D01*
X162522193Y-96523038D01*
X162514859Y-96520000D01*
X162442525Y-96520000D01*
X162420318Y-96542207D01*
X162369133Y-96551838D01*
X162176760Y-96675627D01*
X162005440Y-96558569D01*
X161940993Y-96545518D01*
X161915475Y-96520000D01*
X161843141Y-96520000D01*
X161833894Y-96523830D01*
X161753550Y-96507560D01*
X161334450Y-96507560D01*
X161222537Y-96528618D01*
X161118550Y-96507560D01*
X160853242Y-96507560D01*
X161319401Y-96041401D01*
X161484148Y-95794840D01*
X161497665Y-95726883D01*
X161542000Y-95504000D01*
X161542000Y-95036597D01*
X161564943Y-95027117D01*
X161667719Y-94924521D01*
X162022599Y-95279401D01*
X162269160Y-95444148D01*
X162560000Y-95502000D01*
X166364974Y-95502000D01*
X166222673Y-95644302D01*
X166126000Y-95877691D01*
X166126000Y-96468250D01*
X166284750Y-96627000D01*
X167259000Y-96627000D01*
X167259000Y-96607000D01*
X167513000Y-96607000D01*
X167513000Y-96627000D01*
X168487250Y-96627000D01*
X168646000Y-96468250D01*
X168646000Y-95877691D01*
X168549327Y-95644302D01*
X168408090Y-95503064D01*
X168462441Y-95468090D01*
X168607431Y-95255890D01*
X168652374Y-95033957D01*
X168977201Y-95168838D01*
X169349167Y-95169162D01*
X169692943Y-95027117D01*
X169928000Y-94792470D01*
X169928000Y-96973537D01*
X169928000Y-96973537D01*
G37*
X169928000Y-96973537D02*
X169895808Y-97005673D01*
X169753162Y-97349201D01*
X169752838Y-97721167D01*
X169894883Y-98064943D01*
X170129530Y-98300000D01*
X165575585Y-98300000D01*
X165575990Y-98298000D01*
X165575990Y-97155000D01*
X165554305Y-97039750D01*
X166126000Y-97039750D01*
X166126000Y-97630309D01*
X166222673Y-97863698D01*
X166401301Y-98042327D01*
X166634690Y-98139000D01*
X167100250Y-98139000D01*
X167259000Y-97980250D01*
X167259000Y-96881000D01*
X167513000Y-96881000D01*
X167513000Y-97980250D01*
X167671750Y-98139000D01*
X168137310Y-98139000D01*
X168370699Y-98042327D01*
X168549327Y-97863698D01*
X168646000Y-97630309D01*
X168646000Y-97039750D01*
X168487250Y-96881000D01*
X167513000Y-96881000D01*
X167259000Y-96881000D01*
X166284750Y-96881000D01*
X166126000Y-97039750D01*
X165554305Y-97039750D01*
X165531712Y-96919683D01*
X165392640Y-96703559D01*
X165180440Y-96558569D01*
X165018996Y-96525876D01*
X165019162Y-96334833D01*
X164877117Y-95991057D01*
X164614327Y-95727808D01*
X164270799Y-95585162D01*
X163898833Y-95584838D01*
X163555057Y-95726883D01*
X163291808Y-95989673D01*
X163149162Y-96333201D01*
X163148995Y-96524580D01*
X163127537Y-96528618D01*
X163023550Y-96507560D01*
X162604450Y-96507560D01*
X162522193Y-96523038D01*
X162514859Y-96520000D01*
X162442525Y-96520000D01*
X162420318Y-96542207D01*
X162369133Y-96551838D01*
X162176760Y-96675627D01*
X162005440Y-96558569D01*
X161940993Y-96545518D01*
X161915475Y-96520000D01*
X161843141Y-96520000D01*
X161833894Y-96523830D01*
X161753550Y-96507560D01*
X161334450Y-96507560D01*
X161222537Y-96528618D01*
X161118550Y-96507560D01*
X160853242Y-96507560D01*
X161319401Y-96041401D01*
X161484148Y-95794840D01*
X161497665Y-95726883D01*
X161542000Y-95504000D01*
X161542000Y-95036597D01*
X161564943Y-95027117D01*
X161667719Y-94924521D01*
X162022599Y-95279401D01*
X162269160Y-95444148D01*
X162560000Y-95502000D01*
X166364974Y-95502000D01*
X166222673Y-95644302D01*
X166126000Y-95877691D01*
X166126000Y-96468250D01*
X166284750Y-96627000D01*
X167259000Y-96627000D01*
X167259000Y-96607000D01*
X167513000Y-96607000D01*
X167513000Y-96627000D01*
X168487250Y-96627000D01*
X168646000Y-96468250D01*
X168646000Y-95877691D01*
X168549327Y-95644302D01*
X168408090Y-95503064D01*
X168462441Y-95468090D01*
X168607431Y-95255890D01*
X168652374Y-95033957D01*
X168977201Y-95168838D01*
X169349167Y-95169162D01*
X169692943Y-95027117D01*
X169928000Y-94792470D01*
X169928000Y-96973537D01*
G36*
X130600467Y-57337868D02*
X130584683Y-57340838D01*
X130368559Y-57479910D01*
X130223569Y-57692110D01*
X130172560Y-57944000D01*
X130172560Y-59444000D01*
X130216838Y-59679317D01*
X130355910Y-59895441D01*
X130425711Y-59943134D01*
X130368559Y-59979910D01*
X130223569Y-60192110D01*
X130172560Y-60444000D01*
X130172560Y-61944000D01*
X130203607Y-62109000D01*
X129787440Y-62109000D01*
X129787440Y-62044000D01*
X129743162Y-61808683D01*
X129604090Y-61592559D01*
X129391890Y-61447569D01*
X129140000Y-61396560D01*
X128190000Y-61396560D01*
X127954683Y-61440838D01*
X127738559Y-61579910D01*
X127593569Y-61792110D01*
X127542560Y-62044000D01*
X127542560Y-62357000D01*
X127475000Y-62357000D01*
X127475000Y-61917690D01*
X127378327Y-61684301D01*
X127199698Y-61505673D01*
X126966309Y-61409000D01*
X126650750Y-61409000D01*
X126492000Y-61567750D01*
X126492000Y-62357000D01*
X126238000Y-62357000D01*
X126238000Y-61567750D01*
X126079250Y-61409000D01*
X125763691Y-61409000D01*
X125530302Y-61505673D01*
X125351673Y-61684301D01*
X125255000Y-61917690D01*
X125255000Y-62708250D01*
X125413750Y-62867000D01*
X125427686Y-62867000D01*
X125187440Y-63427573D01*
X125187440Y-62044000D01*
X125143162Y-61808683D01*
X125004090Y-61592559D01*
X124791890Y-61447569D01*
X124540000Y-61396560D01*
X123590000Y-61396560D01*
X123354683Y-61440838D01*
X123138559Y-61579910D01*
X122993569Y-61792110D01*
X122942560Y-62044000D01*
X122942560Y-62495861D01*
X122823421Y-62615000D01*
X121623256Y-62615000D01*
X121627431Y-62608890D01*
X121678440Y-62357000D01*
X121678440Y-60833000D01*
X121634162Y-60597683D01*
X121495090Y-60381559D01*
X121282890Y-60236569D01*
X121031000Y-60185560D01*
X118999000Y-60185560D01*
X118763683Y-60229838D01*
X118547559Y-60368910D01*
X118402569Y-60581110D01*
X118351560Y-60833000D01*
X118351560Y-62357000D01*
X118395838Y-62592317D01*
X118534910Y-62808441D01*
X118747110Y-62953431D01*
X118999000Y-63004440D01*
X119130000Y-63004440D01*
X119130000Y-63118995D01*
X119129999Y-63119000D01*
X119172503Y-63332675D01*
X119197367Y-63457675D01*
X119350462Y-63686799D01*
X119389210Y-63744790D01*
X119553256Y-63908835D01*
X119602883Y-64028943D01*
X119708755Y-64135000D01*
X118926522Y-64135000D01*
X114173000Y-59131292D01*
X114173000Y-58578750D01*
X118364000Y-58578750D01*
X118364000Y-59181309D01*
X118460673Y-59414698D01*
X118639301Y-59593327D01*
X118872690Y-59690000D01*
X119729250Y-59690000D01*
X119888000Y-59531250D01*
X119888000Y-58420000D01*
X120142000Y-58420000D01*
X120142000Y-59531250D01*
X120300750Y-59690000D01*
X121157310Y-59690000D01*
X121390699Y-59593327D01*
X121569327Y-59414698D01*
X121666000Y-59181309D01*
X121666000Y-58578750D01*
X121507250Y-58420000D01*
X120142000Y-58420000D01*
X119888000Y-58420000D01*
X118522750Y-58420000D01*
X118364000Y-58578750D01*
X114173000Y-58578750D01*
X114173000Y-57404691D01*
X118364000Y-57404691D01*
X118364000Y-58007250D01*
X118522750Y-58166000D01*
X119888000Y-58166000D01*
X119888000Y-57054750D01*
X120142000Y-57054750D01*
X120142000Y-58166000D01*
X121507250Y-58166000D01*
X121666000Y-58007250D01*
X121666000Y-57404691D01*
X121572827Y-57179750D01*
X124105000Y-57179750D01*
X124105000Y-57970310D01*
X124201673Y-58203699D01*
X124380302Y-58382327D01*
X124613691Y-58479000D01*
X126079250Y-58479000D01*
X126238000Y-58320250D01*
X126238000Y-57021000D01*
X126492000Y-57021000D01*
X126492000Y-58320250D01*
X126650750Y-58479000D01*
X128116309Y-58479000D01*
X128349698Y-58382327D01*
X128528327Y-58203699D01*
X128625000Y-57970310D01*
X128625000Y-57179750D01*
X128466250Y-57021000D01*
X126492000Y-57021000D01*
X126238000Y-57021000D01*
X124263750Y-57021000D01*
X124105000Y-57179750D01*
X121572827Y-57179750D01*
X121569327Y-57171302D01*
X121390699Y-56992673D01*
X121157310Y-56896000D01*
X120300750Y-56896000D01*
X120142000Y-57054750D01*
X119888000Y-57054750D01*
X119729250Y-56896000D01*
X118872690Y-56896000D01*
X118639301Y-56992673D01*
X118460673Y-57171302D01*
X118364000Y-57404691D01*
X114173000Y-57404691D01*
X114173000Y-55817690D01*
X124105000Y-55817690D01*
X124105000Y-56608250D01*
X124263750Y-56767000D01*
X126238000Y-56767000D01*
X126238000Y-55467750D01*
X126492000Y-55467750D01*
X126492000Y-56767000D01*
X128466250Y-56767000D01*
X128625000Y-56608250D01*
X128625000Y-55817690D01*
X128528327Y-55584301D01*
X128349698Y-55405673D01*
X128116309Y-55309000D01*
X126650750Y-55309000D01*
X126492000Y-55467750D01*
X126238000Y-55467750D01*
X126079250Y-55309000D01*
X124613691Y-55309000D01*
X124380302Y-55405673D01*
X124201673Y-55584301D01*
X124105000Y-55817690D01*
X114173000Y-55817690D01*
X114173000Y-54991000D01*
X130678696Y-54991000D01*
X130600467Y-57337868D01*
X130600467Y-57337868D01*
G37*
X130600467Y-57337868D02*
X130584683Y-57340838D01*
X130368559Y-57479910D01*
X130223569Y-57692110D01*
X130172560Y-57944000D01*
X130172560Y-59444000D01*
X130216838Y-59679317D01*
X130355910Y-59895441D01*
X130425711Y-59943134D01*
X130368559Y-59979910D01*
X130223569Y-60192110D01*
X130172560Y-60444000D01*
X130172560Y-61944000D01*
X130203607Y-62109000D01*
X129787440Y-62109000D01*
X129787440Y-62044000D01*
X129743162Y-61808683D01*
X129604090Y-61592559D01*
X129391890Y-61447569D01*
X129140000Y-61396560D01*
X128190000Y-61396560D01*
X127954683Y-61440838D01*
X127738559Y-61579910D01*
X127593569Y-61792110D01*
X127542560Y-62044000D01*
X127542560Y-62357000D01*
X127475000Y-62357000D01*
X127475000Y-61917690D01*
X127378327Y-61684301D01*
X127199698Y-61505673D01*
X126966309Y-61409000D01*
X126650750Y-61409000D01*
X126492000Y-61567750D01*
X126492000Y-62357000D01*
X126238000Y-62357000D01*
X126238000Y-61567750D01*
X126079250Y-61409000D01*
X125763691Y-61409000D01*
X125530302Y-61505673D01*
X125351673Y-61684301D01*
X125255000Y-61917690D01*
X125255000Y-62708250D01*
X125413750Y-62867000D01*
X125427686Y-62867000D01*
X125187440Y-63427573D01*
X125187440Y-62044000D01*
X125143162Y-61808683D01*
X125004090Y-61592559D01*
X124791890Y-61447569D01*
X124540000Y-61396560D01*
X123590000Y-61396560D01*
X123354683Y-61440838D01*
X123138559Y-61579910D01*
X122993569Y-61792110D01*
X122942560Y-62044000D01*
X122942560Y-62495861D01*
X122823421Y-62615000D01*
X121623256Y-62615000D01*
X121627431Y-62608890D01*
X121678440Y-62357000D01*
X121678440Y-60833000D01*
X121634162Y-60597683D01*
X121495090Y-60381559D01*
X121282890Y-60236569D01*
X121031000Y-60185560D01*
X118999000Y-60185560D01*
X118763683Y-60229838D01*
X118547559Y-60368910D01*
X118402569Y-60581110D01*
X118351560Y-60833000D01*
X118351560Y-62357000D01*
X118395838Y-62592317D01*
X118534910Y-62808441D01*
X118747110Y-62953431D01*
X118999000Y-63004440D01*
X119130000Y-63004440D01*
X119130000Y-63118995D01*
X119129999Y-63119000D01*
X119172503Y-63332675D01*
X119197367Y-63457675D01*
X119350462Y-63686799D01*
X119389210Y-63744790D01*
X119553256Y-63908835D01*
X119602883Y-64028943D01*
X119708755Y-64135000D01*
X118926522Y-64135000D01*
X114173000Y-59131292D01*
X114173000Y-58578750D01*
X118364000Y-58578750D01*
X118364000Y-59181309D01*
X118460673Y-59414698D01*
X118639301Y-59593327D01*
X118872690Y-59690000D01*
X119729250Y-59690000D01*
X119888000Y-59531250D01*
X119888000Y-58420000D01*
X120142000Y-58420000D01*
X120142000Y-59531250D01*
X120300750Y-59690000D01*
X121157310Y-59690000D01*
X121390699Y-59593327D01*
X121569327Y-59414698D01*
X121666000Y-59181309D01*
X121666000Y-58578750D01*
X121507250Y-58420000D01*
X120142000Y-58420000D01*
X119888000Y-58420000D01*
X118522750Y-58420000D01*
X118364000Y-58578750D01*
X114173000Y-58578750D01*
X114173000Y-57404691D01*
X118364000Y-57404691D01*
X118364000Y-58007250D01*
X118522750Y-58166000D01*
X119888000Y-58166000D01*
X119888000Y-57054750D01*
X120142000Y-57054750D01*
X120142000Y-58166000D01*
X121507250Y-58166000D01*
X121666000Y-58007250D01*
X121666000Y-57404691D01*
X121572827Y-57179750D01*
X124105000Y-57179750D01*
X124105000Y-57970310D01*
X124201673Y-58203699D01*
X124380302Y-58382327D01*
X124613691Y-58479000D01*
X126079250Y-58479000D01*
X126238000Y-58320250D01*
X126238000Y-57021000D01*
X126492000Y-57021000D01*
X126492000Y-58320250D01*
X126650750Y-58479000D01*
X128116309Y-58479000D01*
X128349698Y-58382327D01*
X128528327Y-58203699D01*
X128625000Y-57970310D01*
X128625000Y-57179750D01*
X128466250Y-57021000D01*
X126492000Y-57021000D01*
X126238000Y-57021000D01*
X124263750Y-57021000D01*
X124105000Y-57179750D01*
X121572827Y-57179750D01*
X121569327Y-57171302D01*
X121390699Y-56992673D01*
X121157310Y-56896000D01*
X120300750Y-56896000D01*
X120142000Y-57054750D01*
X119888000Y-57054750D01*
X119729250Y-56896000D01*
X118872690Y-56896000D01*
X118639301Y-56992673D01*
X118460673Y-57171302D01*
X118364000Y-57404691D01*
X114173000Y-57404691D01*
X114173000Y-55817690D01*
X124105000Y-55817690D01*
X124105000Y-56608250D01*
X124263750Y-56767000D01*
X126238000Y-56767000D01*
X126238000Y-55467750D01*
X126492000Y-55467750D01*
X126492000Y-56767000D01*
X128466250Y-56767000D01*
X128625000Y-56608250D01*
X128625000Y-55817690D01*
X128528327Y-55584301D01*
X128349698Y-55405673D01*
X128116309Y-55309000D01*
X126650750Y-55309000D01*
X126492000Y-55467750D01*
X126238000Y-55467750D01*
X126079250Y-55309000D01*
X124613691Y-55309000D01*
X124380302Y-55405673D01*
X124201673Y-55584301D01*
X124105000Y-55817690D01*
X114173000Y-55817690D01*
X114173000Y-54991000D01*
X130678696Y-54991000D01*
X130600467Y-57337868D01*
M02*
