G04 #@! TF.FileFunction,Soldermask,Bot*
%FSLAX46Y46*%
G04 Gerber Fmt 4.6, Leading zero omitted, Abs format (unit mm)*
G04 Created by KiCad (PCBNEW 0.201510170916+6271~30~ubuntu14.04.1-product) date Tue 27 Oct 2015 04:17:41 PM CET*
%MOMM*%
G01*
G04 APERTURE LIST*
%ADD10C,0.100000*%
%ADD11C,2.900000*%
%ADD12R,2.400000X2.400000*%
%ADD13C,2.400000*%
%ADD14C,2.100000*%
%ADD15C,3.400000*%
G04 APERTURE END LIST*
D10*
D11*
X99110000Y-101064000D03*
X105410000Y-101064000D03*
X111710000Y-101064000D03*
X99110000Y-84864000D03*
X105410000Y-84864000D03*
X111710000Y-84864000D03*
D12*
X153670000Y-76454000D03*
D13*
X153670000Y-78994000D03*
X153670000Y-81534000D03*
X153670000Y-84074000D03*
X153670000Y-86614000D03*
X153670000Y-89154000D03*
X153670000Y-91694000D03*
X153670000Y-94234000D03*
X153670000Y-96774000D03*
X153670000Y-99314000D03*
X153670000Y-101854000D03*
X153670000Y-104394000D03*
X153670000Y-106934000D03*
X153670000Y-109474000D03*
X138430000Y-109474000D03*
X138430000Y-106934000D03*
X138430000Y-104394000D03*
X138430000Y-101854000D03*
X138430000Y-99314000D03*
X138430000Y-96774000D03*
X138430000Y-94234000D03*
X138430000Y-91694000D03*
X138430000Y-89154000D03*
X138430000Y-86614000D03*
X138430000Y-84074000D03*
X138430000Y-81534000D03*
X138430000Y-78994000D03*
X138430000Y-76454000D03*
D11*
X99110000Y-78839000D03*
X105410000Y-78839000D03*
X111710000Y-78839000D03*
X99110000Y-62639000D03*
X105410000Y-62639000D03*
X111710000Y-62639000D03*
X99110000Y-122654000D03*
X105410000Y-122654000D03*
X111710000Y-122654000D03*
X99110000Y-106454000D03*
X105410000Y-106454000D03*
X111710000Y-106454000D03*
X99110000Y-144244000D03*
X105410000Y-144244000D03*
X111710000Y-144244000D03*
X99110000Y-128044000D03*
X105410000Y-128044000D03*
X111710000Y-128044000D03*
X189180000Y-128044000D03*
X182880000Y-128044000D03*
X176580000Y-128044000D03*
X189180000Y-144244000D03*
X182880000Y-144244000D03*
X176580000Y-144244000D03*
X189180000Y-84864000D03*
X182880000Y-84864000D03*
X176580000Y-84864000D03*
X189180000Y-101064000D03*
X182880000Y-101064000D03*
X176580000Y-101064000D03*
X189180000Y-106454000D03*
X182880000Y-106454000D03*
X176580000Y-106454000D03*
X189180000Y-122654000D03*
X182880000Y-122654000D03*
X176580000Y-122654000D03*
X189180000Y-62639000D03*
X182880000Y-62639000D03*
X176580000Y-62639000D03*
X189180000Y-78839000D03*
X182880000Y-78839000D03*
X176580000Y-78839000D03*
D14*
X153550000Y-65459000D03*
X146050000Y-65459000D03*
X138550000Y-65459000D03*
X151050000Y-67959000D03*
X141050000Y-67959000D03*
X141050000Y-55459000D03*
X151050000Y-55459000D03*
D15*
X99252000Y-58104000D03*
X189210000Y-57754000D03*
X119410000Y-147554000D03*
X169210000Y-147554000D03*
M02*
